G04 #@! TF.GenerationSoftware,KiCad,Pcbnew,6.0.5+dfsg-1~bpo11+1*
G04 #@! TF.CreationDate,2022-08-13T18:52:41+00:00*
G04 #@! TF.ProjectId,switch_board,73776974-6368-45f6-926f-6172642e6b69,0.1*
G04 #@! TF.SameCoordinates,Original*
G04 #@! TF.FileFunction,Legend,Top*
G04 #@! TF.FilePolarity,Positive*
%FSLAX46Y46*%
G04 Gerber Fmt 4.6, Leading zero omitted, Abs format (unit mm)*
G04 Created by KiCad (PCBNEW 6.0.5+dfsg-1~bpo11+1) date 2022-08-13 18:52:41*
%MOMM*%
%LPD*%
G01*
G04 APERTURE LIST*
%ADD10C,0.150000*%
%ADD11C,0.120000*%
%ADD12O,3.500000X9.500000*%
%ADD13C,5.600000*%
%ADD14O,1.740000X2.190000*%
%ADD15O,2.190000X1.740000*%
%ADD16C,2.000000*%
G04 APERTURE END LIST*
D10*
X252666666Y-109624761D02*
X252809523Y-109672380D01*
X253047619Y-109672380D01*
X253142857Y-109624761D01*
X253190476Y-109577142D01*
X253238095Y-109481904D01*
X253238095Y-109386666D01*
X253190476Y-109291428D01*
X253142857Y-109243809D01*
X253047619Y-109196190D01*
X252857142Y-109148571D01*
X252761904Y-109100952D01*
X252714285Y-109053333D01*
X252666666Y-108958095D01*
X252666666Y-108862857D01*
X252714285Y-108767619D01*
X252761904Y-108720000D01*
X252857142Y-108672380D01*
X253095238Y-108672380D01*
X253238095Y-108720000D01*
X253571428Y-108672380D02*
X253809523Y-109672380D01*
X254000000Y-108958095D01*
X254190476Y-109672380D01*
X254428571Y-108672380D01*
X254857142Y-109672380D02*
X255047619Y-109672380D01*
X255142857Y-109624761D01*
X255190476Y-109577142D01*
X255285714Y-109434285D01*
X255333333Y-109243809D01*
X255333333Y-108862857D01*
X255285714Y-108767619D01*
X255238095Y-108720000D01*
X255142857Y-108672380D01*
X254952380Y-108672380D01*
X254857142Y-108720000D01*
X254809523Y-108767619D01*
X254761904Y-108862857D01*
X254761904Y-109100952D01*
X254809523Y-109196190D01*
X254857142Y-109243809D01*
X254952380Y-109291428D01*
X255142857Y-109291428D01*
X255238095Y-109243809D01*
X255285714Y-109196190D01*
X255333333Y-109100952D01*
X379190476Y-109624761D02*
X379333333Y-109672380D01*
X379571428Y-109672380D01*
X379666666Y-109624761D01*
X379714285Y-109577142D01*
X379761904Y-109481904D01*
X379761904Y-109386666D01*
X379714285Y-109291428D01*
X379666666Y-109243809D01*
X379571428Y-109196190D01*
X379380952Y-109148571D01*
X379285714Y-109100952D01*
X379238095Y-109053333D01*
X379190476Y-108958095D01*
X379190476Y-108862857D01*
X379238095Y-108767619D01*
X379285714Y-108720000D01*
X379380952Y-108672380D01*
X379619047Y-108672380D01*
X379761904Y-108720000D01*
X380095238Y-108672380D02*
X380333333Y-109672380D01*
X380523809Y-108958095D01*
X380714285Y-109672380D01*
X380952380Y-108672380D01*
X381857142Y-109672380D02*
X381285714Y-109672380D01*
X381571428Y-109672380D02*
X381571428Y-108672380D01*
X381476190Y-108815238D01*
X381380952Y-108910476D01*
X381285714Y-108958095D01*
X382714285Y-109005714D02*
X382714285Y-109672380D01*
X382476190Y-108624761D02*
X382238095Y-109339047D01*
X382857142Y-109339047D01*
X176466666Y-109624761D02*
X176609523Y-109672380D01*
X176847619Y-109672380D01*
X176942857Y-109624761D01*
X176990476Y-109577142D01*
X177038095Y-109481904D01*
X177038095Y-109386666D01*
X176990476Y-109291428D01*
X176942857Y-109243809D01*
X176847619Y-109196190D01*
X176657142Y-109148571D01*
X176561904Y-109100952D01*
X176514285Y-109053333D01*
X176466666Y-108958095D01*
X176466666Y-108862857D01*
X176514285Y-108767619D01*
X176561904Y-108720000D01*
X176657142Y-108672380D01*
X176895238Y-108672380D01*
X177038095Y-108720000D01*
X177371428Y-108672380D02*
X177609523Y-109672380D01*
X177800000Y-108958095D01*
X177990476Y-109672380D01*
X178228571Y-108672380D01*
X179038095Y-108672380D02*
X178847619Y-108672380D01*
X178752380Y-108720000D01*
X178704761Y-108767619D01*
X178609523Y-108910476D01*
X178561904Y-109100952D01*
X178561904Y-109481904D01*
X178609523Y-109577142D01*
X178657142Y-109624761D01*
X178752380Y-109672380D01*
X178942857Y-109672380D01*
X179038095Y-109624761D01*
X179085714Y-109577142D01*
X179133333Y-109481904D01*
X179133333Y-109243809D01*
X179085714Y-109148571D01*
X179038095Y-109100952D01*
X178942857Y-109053333D01*
X178752380Y-109053333D01*
X178657142Y-109100952D01*
X178609523Y-109148571D01*
X178561904Y-109243809D01*
X49466666Y-109624761D02*
X49609523Y-109672380D01*
X49847619Y-109672380D01*
X49942857Y-109624761D01*
X49990476Y-109577142D01*
X50038095Y-109481904D01*
X50038095Y-109386666D01*
X49990476Y-109291428D01*
X49942857Y-109243809D01*
X49847619Y-109196190D01*
X49657142Y-109148571D01*
X49561904Y-109100952D01*
X49514285Y-109053333D01*
X49466666Y-108958095D01*
X49466666Y-108862857D01*
X49514285Y-108767619D01*
X49561904Y-108720000D01*
X49657142Y-108672380D01*
X49895238Y-108672380D01*
X50038095Y-108720000D01*
X50371428Y-108672380D02*
X50609523Y-109672380D01*
X50800000Y-108958095D01*
X50990476Y-109672380D01*
X51228571Y-108672380D01*
X52133333Y-109672380D02*
X51561904Y-109672380D01*
X51847619Y-109672380D02*
X51847619Y-108672380D01*
X51752380Y-108815238D01*
X51657142Y-108910476D01*
X51561904Y-108958095D01*
X404590476Y-109624761D02*
X404733333Y-109672380D01*
X404971428Y-109672380D01*
X405066666Y-109624761D01*
X405114285Y-109577142D01*
X405161904Y-109481904D01*
X405161904Y-109386666D01*
X405114285Y-109291428D01*
X405066666Y-109243809D01*
X404971428Y-109196190D01*
X404780952Y-109148571D01*
X404685714Y-109100952D01*
X404638095Y-109053333D01*
X404590476Y-108958095D01*
X404590476Y-108862857D01*
X404638095Y-108767619D01*
X404685714Y-108720000D01*
X404780952Y-108672380D01*
X405019047Y-108672380D01*
X405161904Y-108720000D01*
X405495238Y-108672380D02*
X405733333Y-109672380D01*
X405923809Y-108958095D01*
X406114285Y-109672380D01*
X406352380Y-108672380D01*
X407257142Y-109672380D02*
X406685714Y-109672380D01*
X406971428Y-109672380D02*
X406971428Y-108672380D01*
X406876190Y-108815238D01*
X406780952Y-108910476D01*
X406685714Y-108958095D01*
X408161904Y-108672380D02*
X407685714Y-108672380D01*
X407638095Y-109148571D01*
X407685714Y-109100952D01*
X407780952Y-109053333D01*
X408019047Y-109053333D01*
X408114285Y-109100952D01*
X408161904Y-109148571D01*
X408209523Y-109243809D01*
X408209523Y-109481904D01*
X408161904Y-109577142D01*
X408114285Y-109624761D01*
X408019047Y-109672380D01*
X407780952Y-109672380D01*
X407685714Y-109624761D01*
X407638095Y-109577142D01*
X100266666Y-109624761D02*
X100409523Y-109672380D01*
X100647619Y-109672380D01*
X100742857Y-109624761D01*
X100790476Y-109577142D01*
X100838095Y-109481904D01*
X100838095Y-109386666D01*
X100790476Y-109291428D01*
X100742857Y-109243809D01*
X100647619Y-109196190D01*
X100457142Y-109148571D01*
X100361904Y-109100952D01*
X100314285Y-109053333D01*
X100266666Y-108958095D01*
X100266666Y-108862857D01*
X100314285Y-108767619D01*
X100361904Y-108720000D01*
X100457142Y-108672380D01*
X100695238Y-108672380D01*
X100838095Y-108720000D01*
X101171428Y-108672380D02*
X101409523Y-109672380D01*
X101600000Y-108958095D01*
X101790476Y-109672380D01*
X102028571Y-108672380D01*
X102314285Y-108672380D02*
X102933333Y-108672380D01*
X102600000Y-109053333D01*
X102742857Y-109053333D01*
X102838095Y-109100952D01*
X102885714Y-109148571D01*
X102933333Y-109243809D01*
X102933333Y-109481904D01*
X102885714Y-109577142D01*
X102838095Y-109624761D01*
X102742857Y-109672380D01*
X102457142Y-109672380D01*
X102361904Y-109624761D01*
X102314285Y-109577142D01*
X24066666Y-109624761D02*
X24209523Y-109672380D01*
X24447619Y-109672380D01*
X24542857Y-109624761D01*
X24590476Y-109577142D01*
X24638095Y-109481904D01*
X24638095Y-109386666D01*
X24590476Y-109291428D01*
X24542857Y-109243809D01*
X24447619Y-109196190D01*
X24257142Y-109148571D01*
X24161904Y-109100952D01*
X24114285Y-109053333D01*
X24066666Y-108958095D01*
X24066666Y-108862857D01*
X24114285Y-108767619D01*
X24161904Y-108720000D01*
X24257142Y-108672380D01*
X24495238Y-108672380D01*
X24638095Y-108720000D01*
X24971428Y-108672380D02*
X25209523Y-109672380D01*
X25400000Y-108958095D01*
X25590476Y-109672380D01*
X25828571Y-108672380D01*
X26400000Y-108672380D02*
X26495238Y-108672380D01*
X26590476Y-108720000D01*
X26638095Y-108767619D01*
X26685714Y-108862857D01*
X26733333Y-109053333D01*
X26733333Y-109291428D01*
X26685714Y-109481904D01*
X26638095Y-109577142D01*
X26590476Y-109624761D01*
X26495238Y-109672380D01*
X26400000Y-109672380D01*
X26304761Y-109624761D01*
X26257142Y-109577142D01*
X26209523Y-109481904D01*
X26161904Y-109291428D01*
X26161904Y-109053333D01*
X26209523Y-108862857D01*
X26257142Y-108767619D01*
X26304761Y-108720000D01*
X26400000Y-108672380D01*
X227266666Y-109624761D02*
X227409523Y-109672380D01*
X227647619Y-109672380D01*
X227742857Y-109624761D01*
X227790476Y-109577142D01*
X227838095Y-109481904D01*
X227838095Y-109386666D01*
X227790476Y-109291428D01*
X227742857Y-109243809D01*
X227647619Y-109196190D01*
X227457142Y-109148571D01*
X227361904Y-109100952D01*
X227314285Y-109053333D01*
X227266666Y-108958095D01*
X227266666Y-108862857D01*
X227314285Y-108767619D01*
X227361904Y-108720000D01*
X227457142Y-108672380D01*
X227695238Y-108672380D01*
X227838095Y-108720000D01*
X228171428Y-108672380D02*
X228409523Y-109672380D01*
X228600000Y-108958095D01*
X228790476Y-109672380D01*
X229028571Y-108672380D01*
X229552380Y-109100952D02*
X229457142Y-109053333D01*
X229409523Y-109005714D01*
X229361904Y-108910476D01*
X229361904Y-108862857D01*
X229409523Y-108767619D01*
X229457142Y-108720000D01*
X229552380Y-108672380D01*
X229742857Y-108672380D01*
X229838095Y-108720000D01*
X229885714Y-108767619D01*
X229933333Y-108862857D01*
X229933333Y-108910476D01*
X229885714Y-109005714D01*
X229838095Y-109053333D01*
X229742857Y-109100952D01*
X229552380Y-109100952D01*
X229457142Y-109148571D01*
X229409523Y-109196190D01*
X229361904Y-109291428D01*
X229361904Y-109481904D01*
X229409523Y-109577142D01*
X229457142Y-109624761D01*
X229552380Y-109672380D01*
X229742857Y-109672380D01*
X229838095Y-109624761D01*
X229885714Y-109577142D01*
X229933333Y-109481904D01*
X229933333Y-109291428D01*
X229885714Y-109196190D01*
X229838095Y-109148571D01*
X229742857Y-109100952D01*
X125666666Y-109624761D02*
X125809523Y-109672380D01*
X126047619Y-109672380D01*
X126142857Y-109624761D01*
X126190476Y-109577142D01*
X126238095Y-109481904D01*
X126238095Y-109386666D01*
X126190476Y-109291428D01*
X126142857Y-109243809D01*
X126047619Y-109196190D01*
X125857142Y-109148571D01*
X125761904Y-109100952D01*
X125714285Y-109053333D01*
X125666666Y-108958095D01*
X125666666Y-108862857D01*
X125714285Y-108767619D01*
X125761904Y-108720000D01*
X125857142Y-108672380D01*
X126095238Y-108672380D01*
X126238095Y-108720000D01*
X126571428Y-108672380D02*
X126809523Y-109672380D01*
X127000000Y-108958095D01*
X127190476Y-109672380D01*
X127428571Y-108672380D01*
X128238095Y-109005714D02*
X128238095Y-109672380D01*
X128000000Y-108624761D02*
X127761904Y-109339047D01*
X128380952Y-109339047D01*
X328390476Y-109624761D02*
X328533333Y-109672380D01*
X328771428Y-109672380D01*
X328866666Y-109624761D01*
X328914285Y-109577142D01*
X328961904Y-109481904D01*
X328961904Y-109386666D01*
X328914285Y-109291428D01*
X328866666Y-109243809D01*
X328771428Y-109196190D01*
X328580952Y-109148571D01*
X328485714Y-109100952D01*
X328438095Y-109053333D01*
X328390476Y-108958095D01*
X328390476Y-108862857D01*
X328438095Y-108767619D01*
X328485714Y-108720000D01*
X328580952Y-108672380D01*
X328819047Y-108672380D01*
X328961904Y-108720000D01*
X329295238Y-108672380D02*
X329533333Y-109672380D01*
X329723809Y-108958095D01*
X329914285Y-109672380D01*
X330152380Y-108672380D01*
X331057142Y-109672380D02*
X330485714Y-109672380D01*
X330771428Y-109672380D02*
X330771428Y-108672380D01*
X330676190Y-108815238D01*
X330580952Y-108910476D01*
X330485714Y-108958095D01*
X331438095Y-108767619D02*
X331485714Y-108720000D01*
X331580952Y-108672380D01*
X331819047Y-108672380D01*
X331914285Y-108720000D01*
X331961904Y-108767619D01*
X332009523Y-108862857D01*
X332009523Y-108958095D01*
X331961904Y-109100952D01*
X331390476Y-109672380D01*
X332009523Y-109672380D01*
X277590476Y-109624761D02*
X277733333Y-109672380D01*
X277971428Y-109672380D01*
X278066666Y-109624761D01*
X278114285Y-109577142D01*
X278161904Y-109481904D01*
X278161904Y-109386666D01*
X278114285Y-109291428D01*
X278066666Y-109243809D01*
X277971428Y-109196190D01*
X277780952Y-109148571D01*
X277685714Y-109100952D01*
X277638095Y-109053333D01*
X277590476Y-108958095D01*
X277590476Y-108862857D01*
X277638095Y-108767619D01*
X277685714Y-108720000D01*
X277780952Y-108672380D01*
X278019047Y-108672380D01*
X278161904Y-108720000D01*
X278495238Y-108672380D02*
X278733333Y-109672380D01*
X278923809Y-108958095D01*
X279114285Y-109672380D01*
X279352380Y-108672380D01*
X280257142Y-109672380D02*
X279685714Y-109672380D01*
X279971428Y-109672380D02*
X279971428Y-108672380D01*
X279876190Y-108815238D01*
X279780952Y-108910476D01*
X279685714Y-108958095D01*
X280876190Y-108672380D02*
X280971428Y-108672380D01*
X281066666Y-108720000D01*
X281114285Y-108767619D01*
X281161904Y-108862857D01*
X281209523Y-109053333D01*
X281209523Y-109291428D01*
X281161904Y-109481904D01*
X281114285Y-109577142D01*
X281066666Y-109624761D01*
X280971428Y-109672380D01*
X280876190Y-109672380D01*
X280780952Y-109624761D01*
X280733333Y-109577142D01*
X280685714Y-109481904D01*
X280638095Y-109291428D01*
X280638095Y-109053333D01*
X280685714Y-108862857D01*
X280733333Y-108767619D01*
X280780952Y-108720000D01*
X280876190Y-108672380D01*
X151066666Y-109624761D02*
X151209523Y-109672380D01*
X151447619Y-109672380D01*
X151542857Y-109624761D01*
X151590476Y-109577142D01*
X151638095Y-109481904D01*
X151638095Y-109386666D01*
X151590476Y-109291428D01*
X151542857Y-109243809D01*
X151447619Y-109196190D01*
X151257142Y-109148571D01*
X151161904Y-109100952D01*
X151114285Y-109053333D01*
X151066666Y-108958095D01*
X151066666Y-108862857D01*
X151114285Y-108767619D01*
X151161904Y-108720000D01*
X151257142Y-108672380D01*
X151495238Y-108672380D01*
X151638095Y-108720000D01*
X151971428Y-108672380D02*
X152209523Y-109672380D01*
X152400000Y-108958095D01*
X152590476Y-109672380D01*
X152828571Y-108672380D01*
X153685714Y-108672380D02*
X153209523Y-108672380D01*
X153161904Y-109148571D01*
X153209523Y-109100952D01*
X153304761Y-109053333D01*
X153542857Y-109053333D01*
X153638095Y-109100952D01*
X153685714Y-109148571D01*
X153733333Y-109243809D01*
X153733333Y-109481904D01*
X153685714Y-109577142D01*
X153638095Y-109624761D01*
X153542857Y-109672380D01*
X153304761Y-109672380D01*
X153209523Y-109624761D01*
X153161904Y-109577142D01*
X302990476Y-109624761D02*
X303133333Y-109672380D01*
X303371428Y-109672380D01*
X303466666Y-109624761D01*
X303514285Y-109577142D01*
X303561904Y-109481904D01*
X303561904Y-109386666D01*
X303514285Y-109291428D01*
X303466666Y-109243809D01*
X303371428Y-109196190D01*
X303180952Y-109148571D01*
X303085714Y-109100952D01*
X303038095Y-109053333D01*
X302990476Y-108958095D01*
X302990476Y-108862857D01*
X303038095Y-108767619D01*
X303085714Y-108720000D01*
X303180952Y-108672380D01*
X303419047Y-108672380D01*
X303561904Y-108720000D01*
X303895238Y-108672380D02*
X304133333Y-109672380D01*
X304323809Y-108958095D01*
X304514285Y-109672380D01*
X304752380Y-108672380D01*
X305657142Y-109672380D02*
X305085714Y-109672380D01*
X305371428Y-109672380D02*
X305371428Y-108672380D01*
X305276190Y-108815238D01*
X305180952Y-108910476D01*
X305085714Y-108958095D01*
X306609523Y-109672380D02*
X306038095Y-109672380D01*
X306323809Y-109672380D02*
X306323809Y-108672380D01*
X306228571Y-108815238D01*
X306133333Y-108910476D01*
X306038095Y-108958095D01*
X201866666Y-109624761D02*
X202009523Y-109672380D01*
X202247619Y-109672380D01*
X202342857Y-109624761D01*
X202390476Y-109577142D01*
X202438095Y-109481904D01*
X202438095Y-109386666D01*
X202390476Y-109291428D01*
X202342857Y-109243809D01*
X202247619Y-109196190D01*
X202057142Y-109148571D01*
X201961904Y-109100952D01*
X201914285Y-109053333D01*
X201866666Y-108958095D01*
X201866666Y-108862857D01*
X201914285Y-108767619D01*
X201961904Y-108720000D01*
X202057142Y-108672380D01*
X202295238Y-108672380D01*
X202438095Y-108720000D01*
X202771428Y-108672380D02*
X203009523Y-109672380D01*
X203200000Y-108958095D01*
X203390476Y-109672380D01*
X203628571Y-108672380D01*
X203914285Y-108672380D02*
X204580952Y-108672380D01*
X204152380Y-109672380D01*
X74866666Y-109624761D02*
X75009523Y-109672380D01*
X75247619Y-109672380D01*
X75342857Y-109624761D01*
X75390476Y-109577142D01*
X75438095Y-109481904D01*
X75438095Y-109386666D01*
X75390476Y-109291428D01*
X75342857Y-109243809D01*
X75247619Y-109196190D01*
X75057142Y-109148571D01*
X74961904Y-109100952D01*
X74914285Y-109053333D01*
X74866666Y-108958095D01*
X74866666Y-108862857D01*
X74914285Y-108767619D01*
X74961904Y-108720000D01*
X75057142Y-108672380D01*
X75295238Y-108672380D01*
X75438095Y-108720000D01*
X75771428Y-108672380D02*
X76009523Y-109672380D01*
X76200000Y-108958095D01*
X76390476Y-109672380D01*
X76628571Y-108672380D01*
X76961904Y-108767619D02*
X77009523Y-108720000D01*
X77104761Y-108672380D01*
X77342857Y-108672380D01*
X77438095Y-108720000D01*
X77485714Y-108767619D01*
X77533333Y-108862857D01*
X77533333Y-108958095D01*
X77485714Y-109100952D01*
X76914285Y-109672380D01*
X77533333Y-109672380D01*
X353790476Y-109624761D02*
X353933333Y-109672380D01*
X354171428Y-109672380D01*
X354266666Y-109624761D01*
X354314285Y-109577142D01*
X354361904Y-109481904D01*
X354361904Y-109386666D01*
X354314285Y-109291428D01*
X354266666Y-109243809D01*
X354171428Y-109196190D01*
X353980952Y-109148571D01*
X353885714Y-109100952D01*
X353838095Y-109053333D01*
X353790476Y-108958095D01*
X353790476Y-108862857D01*
X353838095Y-108767619D01*
X353885714Y-108720000D01*
X353980952Y-108672380D01*
X354219047Y-108672380D01*
X354361904Y-108720000D01*
X354695238Y-108672380D02*
X354933333Y-109672380D01*
X355123809Y-108958095D01*
X355314285Y-109672380D01*
X355552380Y-108672380D01*
X356457142Y-109672380D02*
X355885714Y-109672380D01*
X356171428Y-109672380D02*
X356171428Y-108672380D01*
X356076190Y-108815238D01*
X355980952Y-108910476D01*
X355885714Y-108958095D01*
X356790476Y-108672380D02*
X357409523Y-108672380D01*
X357076190Y-109053333D01*
X357219047Y-109053333D01*
X357314285Y-109100952D01*
X357361904Y-109148571D01*
X357409523Y-109243809D01*
X357409523Y-109481904D01*
X357361904Y-109577142D01*
X357314285Y-109624761D01*
X357219047Y-109672380D01*
X356933333Y-109672380D01*
X356838095Y-109624761D01*
X356790476Y-109577142D01*
D11*
X243000000Y-111000000D02*
X265000000Y-111000000D01*
X265000000Y-111000000D02*
X265000000Y-143000000D01*
X265000000Y-143000000D02*
X243000000Y-143000000D01*
X243000000Y-143000000D02*
X243000000Y-111000000D01*
X370000000Y-111000000D02*
X392000000Y-111000000D01*
X392000000Y-111000000D02*
X392000000Y-143000000D01*
X392000000Y-143000000D02*
X370000000Y-143000000D01*
X370000000Y-143000000D02*
X370000000Y-111000000D01*
X166800000Y-111000000D02*
X188800000Y-111000000D01*
X188800000Y-111000000D02*
X188800000Y-143000000D01*
X188800000Y-143000000D02*
X166800000Y-143000000D01*
X166800000Y-143000000D02*
X166800000Y-111000000D01*
X39800000Y-111000000D02*
X61800000Y-111000000D01*
X61800000Y-111000000D02*
X61800000Y-143000000D01*
X61800000Y-143000000D02*
X39800000Y-143000000D01*
X39800000Y-143000000D02*
X39800000Y-111000000D01*
X395400000Y-111000000D02*
X417400000Y-111000000D01*
X417400000Y-111000000D02*
X417400000Y-143000000D01*
X417400000Y-143000000D02*
X395400000Y-143000000D01*
X395400000Y-143000000D02*
X395400000Y-111000000D01*
X90600000Y-111000000D02*
X112600000Y-111000000D01*
X112600000Y-111000000D02*
X112600000Y-143000000D01*
X112600000Y-143000000D02*
X90600000Y-143000000D01*
X90600000Y-143000000D02*
X90600000Y-111000000D01*
X14400000Y-111000000D02*
X36400000Y-111000000D01*
X36400000Y-111000000D02*
X36400000Y-143000000D01*
X36400000Y-143000000D02*
X14400000Y-143000000D01*
X14400000Y-143000000D02*
X14400000Y-111000000D01*
X217600000Y-111000000D02*
X239600000Y-111000000D01*
X239600000Y-111000000D02*
X239600000Y-143000000D01*
X239600000Y-143000000D02*
X217600000Y-143000000D01*
X217600000Y-143000000D02*
X217600000Y-111000000D01*
X116000000Y-111000000D02*
X138000000Y-111000000D01*
X138000000Y-111000000D02*
X138000000Y-143000000D01*
X138000000Y-143000000D02*
X116000000Y-143000000D01*
X116000000Y-143000000D02*
X116000000Y-111000000D01*
X319200000Y-111000000D02*
X341200000Y-111000000D01*
X341200000Y-111000000D02*
X341200000Y-143000000D01*
X341200000Y-143000000D02*
X319200000Y-143000000D01*
X319200000Y-143000000D02*
X319200000Y-111000000D01*
X268400000Y-111000000D02*
X290400000Y-111000000D01*
X290400000Y-111000000D02*
X290400000Y-143000000D01*
X290400000Y-143000000D02*
X268400000Y-143000000D01*
X268400000Y-143000000D02*
X268400000Y-111000000D01*
X141400000Y-111000000D02*
X163400000Y-111000000D01*
X163400000Y-111000000D02*
X163400000Y-143000000D01*
X163400000Y-143000000D02*
X141400000Y-143000000D01*
X141400000Y-143000000D02*
X141400000Y-111000000D01*
X293800000Y-111000000D02*
X315800000Y-111000000D01*
X315800000Y-111000000D02*
X315800000Y-143000000D01*
X315800000Y-143000000D02*
X293800000Y-143000000D01*
X293800000Y-143000000D02*
X293800000Y-111000000D01*
X192200000Y-111000000D02*
X214200000Y-111000000D01*
X214200000Y-111000000D02*
X214200000Y-143000000D01*
X214200000Y-143000000D02*
X192200000Y-143000000D01*
X192200000Y-143000000D02*
X192200000Y-111000000D01*
X65200000Y-111000000D02*
X87200000Y-111000000D01*
X87200000Y-111000000D02*
X87200000Y-143000000D01*
X87200000Y-143000000D02*
X65200000Y-143000000D01*
X65200000Y-143000000D02*
X65200000Y-111000000D01*
X344600000Y-111000000D02*
X366600000Y-111000000D01*
X366600000Y-111000000D02*
X366600000Y-143000000D01*
X366600000Y-143000000D02*
X344600000Y-143000000D01*
X344600000Y-143000000D02*
X344600000Y-111000000D01*
%LPC*%
G36*
G01*
X250632543Y-141354522D02*
X244994387Y-139302402D01*
G75*
G02*
X243948460Y-137059405I598535J1644462D01*
G01*
X243948460Y-137059405D01*
G75*
G02*
X246191457Y-136013478I1644462J-598535D01*
G01*
X251829613Y-138065598D01*
G75*
G02*
X252875540Y-140308595I-598535J-1644462D01*
G01*
X252875540Y-140308595D01*
G75*
G02*
X250632543Y-141354522I-1644462J598535D01*
G01*
G37*
D12*
X246126000Y-127000000D03*
G36*
G01*
X244994387Y-114697598D02*
X250632543Y-112645478D01*
G75*
G02*
X252875540Y-113691405I598535J-1644462D01*
G01*
X252875540Y-113691405D01*
G75*
G02*
X251829613Y-115934402I-1644462J-598535D01*
G01*
X246191457Y-117986522D01*
G75*
G02*
X243948460Y-116940595I-598535J1644462D01*
G01*
X243948460Y-116940595D01*
G75*
G02*
X244994387Y-114697598I1644462J598535D01*
G01*
G37*
G36*
G01*
X256170387Y-138065598D02*
X261808543Y-136013478D01*
G75*
G02*
X264051540Y-137059405I598535J-1644462D01*
G01*
X264051540Y-137059405D01*
G75*
G02*
X263005613Y-139302402I-1644462J-598535D01*
G01*
X257367457Y-141354522D01*
G75*
G02*
X255124460Y-140308595I-598535J1644462D01*
G01*
X255124460Y-140308595D01*
G75*
G02*
X256170387Y-138065598I1644462J598535D01*
G01*
G37*
X261874000Y-127000000D03*
G36*
G01*
X261808543Y-117986522D02*
X256170387Y-115934402D01*
G75*
G02*
X255124460Y-113691405I598535J1644462D01*
G01*
X255124460Y-113691405D01*
G75*
G02*
X257367457Y-112645478I1644462J-598535D01*
G01*
X263005613Y-114697598D01*
G75*
G02*
X264051540Y-116940595I-598535J-1644462D01*
G01*
X264051540Y-116940595D01*
G75*
G02*
X261808543Y-117986522I-1644462J598535D01*
G01*
G37*
G36*
G01*
X377632543Y-141354522D02*
X371994387Y-139302402D01*
G75*
G02*
X370948460Y-137059405I598535J1644462D01*
G01*
X370948460Y-137059405D01*
G75*
G02*
X373191457Y-136013478I1644462J-598535D01*
G01*
X378829613Y-138065598D01*
G75*
G02*
X379875540Y-140308595I-598535J-1644462D01*
G01*
X379875540Y-140308595D01*
G75*
G02*
X377632543Y-141354522I-1644462J598535D01*
G01*
G37*
X373126000Y-127000000D03*
G36*
G01*
X371994387Y-114697598D02*
X377632543Y-112645478D01*
G75*
G02*
X379875540Y-113691405I598535J-1644462D01*
G01*
X379875540Y-113691405D01*
G75*
G02*
X378829613Y-115934402I-1644462J-598535D01*
G01*
X373191457Y-117986522D01*
G75*
G02*
X370948460Y-116940595I-598535J1644462D01*
G01*
X370948460Y-116940595D01*
G75*
G02*
X371994387Y-114697598I1644462J598535D01*
G01*
G37*
G36*
G01*
X383170387Y-138065598D02*
X388808543Y-136013478D01*
G75*
G02*
X391051540Y-137059405I598535J-1644462D01*
G01*
X391051540Y-137059405D01*
G75*
G02*
X390005613Y-139302402I-1644462J-598535D01*
G01*
X384367457Y-141354522D01*
G75*
G02*
X382124460Y-140308595I-598535J1644462D01*
G01*
X382124460Y-140308595D01*
G75*
G02*
X383170387Y-138065598I1644462J598535D01*
G01*
G37*
X388874000Y-127000000D03*
G36*
G01*
X388808543Y-117986522D02*
X383170387Y-115934402D01*
G75*
G02*
X382124460Y-113691405I598535J1644462D01*
G01*
X382124460Y-113691405D01*
G75*
G02*
X384367457Y-112645478I1644462J-598535D01*
G01*
X390005613Y-114697598D01*
G75*
G02*
X391051540Y-116940595I-598535J-1644462D01*
G01*
X391051540Y-116940595D01*
G75*
G02*
X388808543Y-117986522I-1644462J598535D01*
G01*
G37*
G36*
G01*
X174432543Y-141354522D02*
X168794387Y-139302402D01*
G75*
G02*
X167748460Y-137059405I598535J1644462D01*
G01*
X167748460Y-137059405D01*
G75*
G02*
X169991457Y-136013478I1644462J-598535D01*
G01*
X175629613Y-138065598D01*
G75*
G02*
X176675540Y-140308595I-598535J-1644462D01*
G01*
X176675540Y-140308595D01*
G75*
G02*
X174432543Y-141354522I-1644462J598535D01*
G01*
G37*
X169926000Y-127000000D03*
G36*
G01*
X168794387Y-114697598D02*
X174432543Y-112645478D01*
G75*
G02*
X176675540Y-113691405I598535J-1644462D01*
G01*
X176675540Y-113691405D01*
G75*
G02*
X175629613Y-115934402I-1644462J-598535D01*
G01*
X169991457Y-117986522D01*
G75*
G02*
X167748460Y-116940595I-598535J1644462D01*
G01*
X167748460Y-116940595D01*
G75*
G02*
X168794387Y-114697598I1644462J598535D01*
G01*
G37*
G36*
G01*
X179970387Y-138065598D02*
X185608543Y-136013478D01*
G75*
G02*
X187851540Y-137059405I598535J-1644462D01*
G01*
X187851540Y-137059405D01*
G75*
G02*
X186805613Y-139302402I-1644462J-598535D01*
G01*
X181167457Y-141354522D01*
G75*
G02*
X178924460Y-140308595I-598535J1644462D01*
G01*
X178924460Y-140308595D01*
G75*
G02*
X179970387Y-138065598I1644462J598535D01*
G01*
G37*
X185674000Y-127000000D03*
G36*
G01*
X185608543Y-117986522D02*
X179970387Y-115934402D01*
G75*
G02*
X178924460Y-113691405I598535J1644462D01*
G01*
X178924460Y-113691405D01*
G75*
G02*
X181167457Y-112645478I1644462J-598535D01*
G01*
X186805613Y-114697598D01*
G75*
G02*
X187851540Y-116940595I-598535J-1644462D01*
G01*
X187851540Y-116940595D01*
G75*
G02*
X185608543Y-117986522I-1644462J598535D01*
G01*
G37*
G36*
G01*
X47432543Y-141354522D02*
X41794387Y-139302402D01*
G75*
G02*
X40748460Y-137059405I598535J1644462D01*
G01*
X40748460Y-137059405D01*
G75*
G02*
X42991457Y-136013478I1644462J-598535D01*
G01*
X48629613Y-138065598D01*
G75*
G02*
X49675540Y-140308595I-598535J-1644462D01*
G01*
X49675540Y-140308595D01*
G75*
G02*
X47432543Y-141354522I-1644462J598535D01*
G01*
G37*
X42926000Y-127000000D03*
G36*
G01*
X41794387Y-114697598D02*
X47432543Y-112645478D01*
G75*
G02*
X49675540Y-113691405I598535J-1644462D01*
G01*
X49675540Y-113691405D01*
G75*
G02*
X48629613Y-115934402I-1644462J-598535D01*
G01*
X42991457Y-117986522D01*
G75*
G02*
X40748460Y-116940595I-598535J1644462D01*
G01*
X40748460Y-116940595D01*
G75*
G02*
X41794387Y-114697598I1644462J598535D01*
G01*
G37*
G36*
G01*
X52970387Y-138065598D02*
X58608543Y-136013478D01*
G75*
G02*
X60851540Y-137059405I598535J-1644462D01*
G01*
X60851540Y-137059405D01*
G75*
G02*
X59805613Y-139302402I-1644462J-598535D01*
G01*
X54167457Y-141354522D01*
G75*
G02*
X51924460Y-140308595I-598535J1644462D01*
G01*
X51924460Y-140308595D01*
G75*
G02*
X52970387Y-138065598I1644462J598535D01*
G01*
G37*
X58674000Y-127000000D03*
G36*
G01*
X58608543Y-117986522D02*
X52970387Y-115934402D01*
G75*
G02*
X51924460Y-113691405I598535J1644462D01*
G01*
X51924460Y-113691405D01*
G75*
G02*
X54167457Y-112645478I1644462J-598535D01*
G01*
X59805613Y-114697598D01*
G75*
G02*
X60851540Y-116940595I-598535J-1644462D01*
G01*
X60851540Y-116940595D01*
G75*
G02*
X58608543Y-117986522I-1644462J598535D01*
G01*
G37*
G36*
G01*
X403032543Y-141354522D02*
X397394387Y-139302402D01*
G75*
G02*
X396348460Y-137059405I598535J1644462D01*
G01*
X396348460Y-137059405D01*
G75*
G02*
X398591457Y-136013478I1644462J-598535D01*
G01*
X404229613Y-138065598D01*
G75*
G02*
X405275540Y-140308595I-598535J-1644462D01*
G01*
X405275540Y-140308595D01*
G75*
G02*
X403032543Y-141354522I-1644462J598535D01*
G01*
G37*
X398526000Y-127000000D03*
G36*
G01*
X397394387Y-114697598D02*
X403032543Y-112645478D01*
G75*
G02*
X405275540Y-113691405I598535J-1644462D01*
G01*
X405275540Y-113691405D01*
G75*
G02*
X404229613Y-115934402I-1644462J-598535D01*
G01*
X398591457Y-117986522D01*
G75*
G02*
X396348460Y-116940595I-598535J1644462D01*
G01*
X396348460Y-116940595D01*
G75*
G02*
X397394387Y-114697598I1644462J598535D01*
G01*
G37*
G36*
G01*
X408570387Y-138065598D02*
X414208543Y-136013478D01*
G75*
G02*
X416451540Y-137059405I598535J-1644462D01*
G01*
X416451540Y-137059405D01*
G75*
G02*
X415405613Y-139302402I-1644462J-598535D01*
G01*
X409767457Y-141354522D01*
G75*
G02*
X407524460Y-140308595I-598535J1644462D01*
G01*
X407524460Y-140308595D01*
G75*
G02*
X408570387Y-138065598I1644462J598535D01*
G01*
G37*
X414274000Y-127000000D03*
G36*
G01*
X414208543Y-117986522D02*
X408570387Y-115934402D01*
G75*
G02*
X407524460Y-113691405I598535J1644462D01*
G01*
X407524460Y-113691405D01*
G75*
G02*
X409767457Y-112645478I1644462J-598535D01*
G01*
X415405613Y-114697598D01*
G75*
G02*
X416451540Y-116940595I-598535J-1644462D01*
G01*
X416451540Y-116940595D01*
G75*
G02*
X414208543Y-117986522I-1644462J598535D01*
G01*
G37*
G36*
G01*
X98232543Y-141354522D02*
X92594387Y-139302402D01*
G75*
G02*
X91548460Y-137059405I598535J1644462D01*
G01*
X91548460Y-137059405D01*
G75*
G02*
X93791457Y-136013478I1644462J-598535D01*
G01*
X99429613Y-138065598D01*
G75*
G02*
X100475540Y-140308595I-598535J-1644462D01*
G01*
X100475540Y-140308595D01*
G75*
G02*
X98232543Y-141354522I-1644462J598535D01*
G01*
G37*
X93726000Y-127000000D03*
G36*
G01*
X92594387Y-114697598D02*
X98232543Y-112645478D01*
G75*
G02*
X100475540Y-113691405I598535J-1644462D01*
G01*
X100475540Y-113691405D01*
G75*
G02*
X99429613Y-115934402I-1644462J-598535D01*
G01*
X93791457Y-117986522D01*
G75*
G02*
X91548460Y-116940595I-598535J1644462D01*
G01*
X91548460Y-116940595D01*
G75*
G02*
X92594387Y-114697598I1644462J598535D01*
G01*
G37*
G36*
G01*
X103770387Y-138065598D02*
X109408543Y-136013478D01*
G75*
G02*
X111651540Y-137059405I598535J-1644462D01*
G01*
X111651540Y-137059405D01*
G75*
G02*
X110605613Y-139302402I-1644462J-598535D01*
G01*
X104967457Y-141354522D01*
G75*
G02*
X102724460Y-140308595I-598535J1644462D01*
G01*
X102724460Y-140308595D01*
G75*
G02*
X103770387Y-138065598I1644462J598535D01*
G01*
G37*
X109474000Y-127000000D03*
G36*
G01*
X109408543Y-117986522D02*
X103770387Y-115934402D01*
G75*
G02*
X102724460Y-113691405I598535J1644462D01*
G01*
X102724460Y-113691405D01*
G75*
G02*
X104967457Y-112645478I1644462J-598535D01*
G01*
X110605613Y-114697598D01*
G75*
G02*
X111651540Y-116940595I-598535J-1644462D01*
G01*
X111651540Y-116940595D01*
G75*
G02*
X109408543Y-117986522I-1644462J598535D01*
G01*
G37*
D13*
X292100000Y-102870000D03*
X38100000Y-160020000D03*
X88900000Y-102870000D03*
X38100000Y-102870000D03*
G36*
G01*
X22032543Y-141354522D02*
X16394387Y-139302402D01*
G75*
G02*
X15348460Y-137059405I598535J1644462D01*
G01*
X15348460Y-137059405D01*
G75*
G02*
X17591457Y-136013478I1644462J-598535D01*
G01*
X23229613Y-138065598D01*
G75*
G02*
X24275540Y-140308595I-598535J-1644462D01*
G01*
X24275540Y-140308595D01*
G75*
G02*
X22032543Y-141354522I-1644462J598535D01*
G01*
G37*
D12*
X17526000Y-127000000D03*
G36*
G01*
X16394387Y-114697598D02*
X22032543Y-112645478D01*
G75*
G02*
X24275540Y-113691405I598535J-1644462D01*
G01*
X24275540Y-113691405D01*
G75*
G02*
X23229613Y-115934402I-1644462J-598535D01*
G01*
X17591457Y-117986522D01*
G75*
G02*
X15348460Y-116940595I-598535J1644462D01*
G01*
X15348460Y-116940595D01*
G75*
G02*
X16394387Y-114697598I1644462J598535D01*
G01*
G37*
G36*
G01*
X27570387Y-138065598D02*
X33208543Y-136013478D01*
G75*
G02*
X35451540Y-137059405I598535J-1644462D01*
G01*
X35451540Y-137059405D01*
G75*
G02*
X34405613Y-139302402I-1644462J-598535D01*
G01*
X28767457Y-141354522D01*
G75*
G02*
X26524460Y-140308595I-598535J1644462D01*
G01*
X26524460Y-140308595D01*
G75*
G02*
X27570387Y-138065598I1644462J598535D01*
G01*
G37*
X33274000Y-127000000D03*
G36*
G01*
X33208543Y-117986522D02*
X27570387Y-115934402D01*
G75*
G02*
X26524460Y-113691405I598535J1644462D01*
G01*
X26524460Y-113691405D01*
G75*
G02*
X28767457Y-112645478I1644462J-598535D01*
G01*
X34405613Y-114697598D01*
G75*
G02*
X35451540Y-116940595I-598535J-1644462D01*
G01*
X35451540Y-116940595D01*
G75*
G02*
X33208543Y-117986522I-1644462J598535D01*
G01*
G37*
G36*
G01*
X225232543Y-141354522D02*
X219594387Y-139302402D01*
G75*
G02*
X218548460Y-137059405I598535J1644462D01*
G01*
X218548460Y-137059405D01*
G75*
G02*
X220791457Y-136013478I1644462J-598535D01*
G01*
X226429613Y-138065598D01*
G75*
G02*
X227475540Y-140308595I-598535J-1644462D01*
G01*
X227475540Y-140308595D01*
G75*
G02*
X225232543Y-141354522I-1644462J598535D01*
G01*
G37*
X220726000Y-127000000D03*
G36*
G01*
X219594387Y-114697598D02*
X225232543Y-112645478D01*
G75*
G02*
X227475540Y-113691405I598535J-1644462D01*
G01*
X227475540Y-113691405D01*
G75*
G02*
X226429613Y-115934402I-1644462J-598535D01*
G01*
X220791457Y-117986522D01*
G75*
G02*
X218548460Y-116940595I-598535J1644462D01*
G01*
X218548460Y-116940595D01*
G75*
G02*
X219594387Y-114697598I1644462J598535D01*
G01*
G37*
G36*
G01*
X230770387Y-138065598D02*
X236408543Y-136013478D01*
G75*
G02*
X238651540Y-137059405I598535J-1644462D01*
G01*
X238651540Y-137059405D01*
G75*
G02*
X237605613Y-139302402I-1644462J-598535D01*
G01*
X231967457Y-141354522D01*
G75*
G02*
X229724460Y-140308595I-598535J1644462D01*
G01*
X229724460Y-140308595D01*
G75*
G02*
X230770387Y-138065598I1644462J598535D01*
G01*
G37*
X236474000Y-127000000D03*
G36*
G01*
X236408543Y-117986522D02*
X230770387Y-115934402D01*
G75*
G02*
X229724460Y-113691405I598535J1644462D01*
G01*
X229724460Y-113691405D01*
G75*
G02*
X231967457Y-112645478I1644462J-598535D01*
G01*
X237605613Y-114697598D01*
G75*
G02*
X238651540Y-116940595I-598535J-1644462D01*
G01*
X238651540Y-116940595D01*
G75*
G02*
X236408543Y-117986522I-1644462J598535D01*
G01*
G37*
G36*
G01*
X123632543Y-141354522D02*
X117994387Y-139302402D01*
G75*
G02*
X116948460Y-137059405I598535J1644462D01*
G01*
X116948460Y-137059405D01*
G75*
G02*
X119191457Y-136013478I1644462J-598535D01*
G01*
X124829613Y-138065598D01*
G75*
G02*
X125875540Y-140308595I-598535J-1644462D01*
G01*
X125875540Y-140308595D01*
G75*
G02*
X123632543Y-141354522I-1644462J598535D01*
G01*
G37*
X119126000Y-127000000D03*
G36*
G01*
X117994387Y-114697598D02*
X123632543Y-112645478D01*
G75*
G02*
X125875540Y-113691405I598535J-1644462D01*
G01*
X125875540Y-113691405D01*
G75*
G02*
X124829613Y-115934402I-1644462J-598535D01*
G01*
X119191457Y-117986522D01*
G75*
G02*
X116948460Y-116940595I-598535J1644462D01*
G01*
X116948460Y-116940595D01*
G75*
G02*
X117994387Y-114697598I1644462J598535D01*
G01*
G37*
G36*
G01*
X129170387Y-138065598D02*
X134808543Y-136013478D01*
G75*
G02*
X137051540Y-137059405I598535J-1644462D01*
G01*
X137051540Y-137059405D01*
G75*
G02*
X136005613Y-139302402I-1644462J-598535D01*
G01*
X130367457Y-141354522D01*
G75*
G02*
X128124460Y-140308595I-598535J1644462D01*
G01*
X128124460Y-140308595D01*
G75*
G02*
X129170387Y-138065598I1644462J598535D01*
G01*
G37*
X134874000Y-127000000D03*
G36*
G01*
X134808543Y-117986522D02*
X129170387Y-115934402D01*
G75*
G02*
X128124460Y-113691405I598535J1644462D01*
G01*
X128124460Y-113691405D01*
G75*
G02*
X130367457Y-112645478I1644462J-598535D01*
G01*
X136005613Y-114697598D01*
G75*
G02*
X137051540Y-116940595I-598535J-1644462D01*
G01*
X137051540Y-116940595D01*
G75*
G02*
X134808543Y-117986522I-1644462J598535D01*
G01*
G37*
G36*
G01*
X326832543Y-141354522D02*
X321194387Y-139302402D01*
G75*
G02*
X320148460Y-137059405I598535J1644462D01*
G01*
X320148460Y-137059405D01*
G75*
G02*
X322391457Y-136013478I1644462J-598535D01*
G01*
X328029613Y-138065598D01*
G75*
G02*
X329075540Y-140308595I-598535J-1644462D01*
G01*
X329075540Y-140308595D01*
G75*
G02*
X326832543Y-141354522I-1644462J598535D01*
G01*
G37*
X322326000Y-127000000D03*
G36*
G01*
X321194387Y-114697598D02*
X326832543Y-112645478D01*
G75*
G02*
X329075540Y-113691405I598535J-1644462D01*
G01*
X329075540Y-113691405D01*
G75*
G02*
X328029613Y-115934402I-1644462J-598535D01*
G01*
X322391457Y-117986522D01*
G75*
G02*
X320148460Y-116940595I-598535J1644462D01*
G01*
X320148460Y-116940595D01*
G75*
G02*
X321194387Y-114697598I1644462J598535D01*
G01*
G37*
G36*
G01*
X332370387Y-138065598D02*
X338008543Y-136013478D01*
G75*
G02*
X340251540Y-137059405I598535J-1644462D01*
G01*
X340251540Y-137059405D01*
G75*
G02*
X339205613Y-139302402I-1644462J-598535D01*
G01*
X333567457Y-141354522D01*
G75*
G02*
X331324460Y-140308595I-598535J1644462D01*
G01*
X331324460Y-140308595D01*
G75*
G02*
X332370387Y-138065598I1644462J598535D01*
G01*
G37*
X338074000Y-127000000D03*
G36*
G01*
X338008543Y-117986522D02*
X332370387Y-115934402D01*
G75*
G02*
X331324460Y-113691405I598535J1644462D01*
G01*
X331324460Y-113691405D01*
G75*
G02*
X333567457Y-112645478I1644462J-598535D01*
G01*
X339205613Y-114697598D01*
G75*
G02*
X340251540Y-116940595I-598535J-1644462D01*
G01*
X340251540Y-116940595D01*
G75*
G02*
X338008543Y-117986522I-1644462J598535D01*
G01*
G37*
D13*
X139700000Y-102870000D03*
G36*
G01*
X276032543Y-141354522D02*
X270394387Y-139302402D01*
G75*
G02*
X269348460Y-137059405I598535J1644462D01*
G01*
X269348460Y-137059405D01*
G75*
G02*
X271591457Y-136013478I1644462J-598535D01*
G01*
X277229613Y-138065598D01*
G75*
G02*
X278275540Y-140308595I-598535J-1644462D01*
G01*
X278275540Y-140308595D01*
G75*
G02*
X276032543Y-141354522I-1644462J598535D01*
G01*
G37*
D12*
X271526000Y-127000000D03*
G36*
G01*
X270394387Y-114697598D02*
X276032543Y-112645478D01*
G75*
G02*
X278275540Y-113691405I598535J-1644462D01*
G01*
X278275540Y-113691405D01*
G75*
G02*
X277229613Y-115934402I-1644462J-598535D01*
G01*
X271591457Y-117986522D01*
G75*
G02*
X269348460Y-116940595I-598535J1644462D01*
G01*
X269348460Y-116940595D01*
G75*
G02*
X270394387Y-114697598I1644462J598535D01*
G01*
G37*
G36*
G01*
X281570387Y-138065598D02*
X287208543Y-136013478D01*
G75*
G02*
X289451540Y-137059405I598535J-1644462D01*
G01*
X289451540Y-137059405D01*
G75*
G02*
X288405613Y-139302402I-1644462J-598535D01*
G01*
X282767457Y-141354522D01*
G75*
G02*
X280524460Y-140308595I-598535J1644462D01*
G01*
X280524460Y-140308595D01*
G75*
G02*
X281570387Y-138065598I1644462J598535D01*
G01*
G37*
X287274000Y-127000000D03*
G36*
G01*
X287208543Y-117986522D02*
X281570387Y-115934402D01*
G75*
G02*
X280524460Y-113691405I598535J1644462D01*
G01*
X280524460Y-113691405D01*
G75*
G02*
X282767457Y-112645478I1644462J-598535D01*
G01*
X288405613Y-114697598D01*
G75*
G02*
X289451540Y-116940595I-598535J-1644462D01*
G01*
X289451540Y-116940595D01*
G75*
G02*
X287208543Y-117986522I-1644462J598535D01*
G01*
G37*
G36*
G01*
X149032543Y-141354522D02*
X143394387Y-139302402D01*
G75*
G02*
X142348460Y-137059405I598535J1644462D01*
G01*
X142348460Y-137059405D01*
G75*
G02*
X144591457Y-136013478I1644462J-598535D01*
G01*
X150229613Y-138065598D01*
G75*
G02*
X151275540Y-140308595I-598535J-1644462D01*
G01*
X151275540Y-140308595D01*
G75*
G02*
X149032543Y-141354522I-1644462J598535D01*
G01*
G37*
X144526000Y-127000000D03*
G36*
G01*
X143394387Y-114697598D02*
X149032543Y-112645478D01*
G75*
G02*
X151275540Y-113691405I598535J-1644462D01*
G01*
X151275540Y-113691405D01*
G75*
G02*
X150229613Y-115934402I-1644462J-598535D01*
G01*
X144591457Y-117986522D01*
G75*
G02*
X142348460Y-116940595I-598535J1644462D01*
G01*
X142348460Y-116940595D01*
G75*
G02*
X143394387Y-114697598I1644462J598535D01*
G01*
G37*
G36*
G01*
X154570387Y-138065598D02*
X160208543Y-136013478D01*
G75*
G02*
X162451540Y-137059405I598535J-1644462D01*
G01*
X162451540Y-137059405D01*
G75*
G02*
X161405613Y-139302402I-1644462J-598535D01*
G01*
X155767457Y-141354522D01*
G75*
G02*
X153524460Y-140308595I-598535J1644462D01*
G01*
X153524460Y-140308595D01*
G75*
G02*
X154570387Y-138065598I1644462J598535D01*
G01*
G37*
X160274000Y-127000000D03*
G36*
G01*
X160208543Y-117986522D02*
X154570387Y-115934402D01*
G75*
G02*
X153524460Y-113691405I598535J1644462D01*
G01*
X153524460Y-113691405D01*
G75*
G02*
X155767457Y-112645478I1644462J-598535D01*
G01*
X161405613Y-114697598D01*
G75*
G02*
X162451540Y-116940595I-598535J-1644462D01*
G01*
X162451540Y-116940595D01*
G75*
G02*
X160208543Y-117986522I-1644462J598535D01*
G01*
G37*
G36*
G01*
X301432543Y-141354522D02*
X295794387Y-139302402D01*
G75*
G02*
X294748460Y-137059405I598535J1644462D01*
G01*
X294748460Y-137059405D01*
G75*
G02*
X296991457Y-136013478I1644462J-598535D01*
G01*
X302629613Y-138065598D01*
G75*
G02*
X303675540Y-140308595I-598535J-1644462D01*
G01*
X303675540Y-140308595D01*
G75*
G02*
X301432543Y-141354522I-1644462J598535D01*
G01*
G37*
X296926000Y-127000000D03*
G36*
G01*
X295794387Y-114697598D02*
X301432543Y-112645478D01*
G75*
G02*
X303675540Y-113691405I598535J-1644462D01*
G01*
X303675540Y-113691405D01*
G75*
G02*
X302629613Y-115934402I-1644462J-598535D01*
G01*
X296991457Y-117986522D01*
G75*
G02*
X294748460Y-116940595I-598535J1644462D01*
G01*
X294748460Y-116940595D01*
G75*
G02*
X295794387Y-114697598I1644462J598535D01*
G01*
G37*
G36*
G01*
X306970387Y-138065598D02*
X312608543Y-136013478D01*
G75*
G02*
X314851540Y-137059405I598535J-1644462D01*
G01*
X314851540Y-137059405D01*
G75*
G02*
X313805613Y-139302402I-1644462J-598535D01*
G01*
X308167457Y-141354522D01*
G75*
G02*
X305924460Y-140308595I-598535J1644462D01*
G01*
X305924460Y-140308595D01*
G75*
G02*
X306970387Y-138065598I1644462J598535D01*
G01*
G37*
X312674000Y-127000000D03*
G36*
G01*
X312608543Y-117986522D02*
X306970387Y-115934402D01*
G75*
G02*
X305924460Y-113691405I598535J1644462D01*
G01*
X305924460Y-113691405D01*
G75*
G02*
X308167457Y-112645478I1644462J-598535D01*
G01*
X313805613Y-114697598D01*
G75*
G02*
X314851540Y-116940595I-598535J-1644462D01*
G01*
X314851540Y-116940595D01*
G75*
G02*
X312608543Y-117986522I-1644462J598535D01*
G01*
G37*
G36*
G01*
X199832543Y-141354522D02*
X194194387Y-139302402D01*
G75*
G02*
X193148460Y-137059405I598535J1644462D01*
G01*
X193148460Y-137059405D01*
G75*
G02*
X195391457Y-136013478I1644462J-598535D01*
G01*
X201029613Y-138065598D01*
G75*
G02*
X202075540Y-140308595I-598535J-1644462D01*
G01*
X202075540Y-140308595D01*
G75*
G02*
X199832543Y-141354522I-1644462J598535D01*
G01*
G37*
X195326000Y-127000000D03*
G36*
G01*
X194194387Y-114697598D02*
X199832543Y-112645478D01*
G75*
G02*
X202075540Y-113691405I598535J-1644462D01*
G01*
X202075540Y-113691405D01*
G75*
G02*
X201029613Y-115934402I-1644462J-598535D01*
G01*
X195391457Y-117986522D01*
G75*
G02*
X193148460Y-116940595I-598535J1644462D01*
G01*
X193148460Y-116940595D01*
G75*
G02*
X194194387Y-114697598I1644462J598535D01*
G01*
G37*
G36*
G01*
X205370387Y-138065598D02*
X211008543Y-136013478D01*
G75*
G02*
X213251540Y-137059405I598535J-1644462D01*
G01*
X213251540Y-137059405D01*
G75*
G02*
X212205613Y-139302402I-1644462J-598535D01*
G01*
X206567457Y-141354522D01*
G75*
G02*
X204324460Y-140308595I-598535J1644462D01*
G01*
X204324460Y-140308595D01*
G75*
G02*
X205370387Y-138065598I1644462J598535D01*
G01*
G37*
X211074000Y-127000000D03*
G36*
G01*
X211008543Y-117986522D02*
X205370387Y-115934402D01*
G75*
G02*
X204324460Y-113691405I598535J1644462D01*
G01*
X204324460Y-113691405D01*
G75*
G02*
X206567457Y-112645478I1644462J-598535D01*
G01*
X212205613Y-114697598D01*
G75*
G02*
X213251540Y-116940595I-598535J-1644462D01*
G01*
X213251540Y-116940595D01*
G75*
G02*
X211008543Y-117986522I-1644462J598535D01*
G01*
G37*
D13*
X342900000Y-102870000D03*
G36*
G01*
X72832543Y-141354522D02*
X67194387Y-139302402D01*
G75*
G02*
X66148460Y-137059405I598535J1644462D01*
G01*
X66148460Y-137059405D01*
G75*
G02*
X68391457Y-136013478I1644462J-598535D01*
G01*
X74029613Y-138065598D01*
G75*
G02*
X75075540Y-140308595I-598535J-1644462D01*
G01*
X75075540Y-140308595D01*
G75*
G02*
X72832543Y-141354522I-1644462J598535D01*
G01*
G37*
D12*
X68326000Y-127000000D03*
G36*
G01*
X67194387Y-114697598D02*
X72832543Y-112645478D01*
G75*
G02*
X75075540Y-113691405I598535J-1644462D01*
G01*
X75075540Y-113691405D01*
G75*
G02*
X74029613Y-115934402I-1644462J-598535D01*
G01*
X68391457Y-117986522D01*
G75*
G02*
X66148460Y-116940595I-598535J1644462D01*
G01*
X66148460Y-116940595D01*
G75*
G02*
X67194387Y-114697598I1644462J598535D01*
G01*
G37*
G36*
G01*
X78370387Y-138065598D02*
X84008543Y-136013478D01*
G75*
G02*
X86251540Y-137059405I598535J-1644462D01*
G01*
X86251540Y-137059405D01*
G75*
G02*
X85205613Y-139302402I-1644462J-598535D01*
G01*
X79567457Y-141354522D01*
G75*
G02*
X77324460Y-140308595I-598535J1644462D01*
G01*
X77324460Y-140308595D01*
G75*
G02*
X78370387Y-138065598I1644462J598535D01*
G01*
G37*
X84074000Y-127000000D03*
G36*
G01*
X84008543Y-117986522D02*
X78370387Y-115934402D01*
G75*
G02*
X77324460Y-113691405I598535J1644462D01*
G01*
X77324460Y-113691405D01*
G75*
G02*
X79567457Y-112645478I1644462J-598535D01*
G01*
X85205613Y-114697598D01*
G75*
G02*
X86251540Y-116940595I-598535J-1644462D01*
G01*
X86251540Y-116940595D01*
G75*
G02*
X84008543Y-117986522I-1644462J598535D01*
G01*
G37*
G36*
G01*
X352232543Y-141354522D02*
X346594387Y-139302402D01*
G75*
G02*
X345548460Y-137059405I598535J1644462D01*
G01*
X345548460Y-137059405D01*
G75*
G02*
X347791457Y-136013478I1644462J-598535D01*
G01*
X353429613Y-138065598D01*
G75*
G02*
X354475540Y-140308595I-598535J-1644462D01*
G01*
X354475540Y-140308595D01*
G75*
G02*
X352232543Y-141354522I-1644462J598535D01*
G01*
G37*
X347726000Y-127000000D03*
G36*
G01*
X346594387Y-114697598D02*
X352232543Y-112645478D01*
G75*
G02*
X354475540Y-113691405I598535J-1644462D01*
G01*
X354475540Y-113691405D01*
G75*
G02*
X353429613Y-115934402I-1644462J-598535D01*
G01*
X347791457Y-117986522D01*
G75*
G02*
X345548460Y-116940595I-598535J1644462D01*
G01*
X345548460Y-116940595D01*
G75*
G02*
X346594387Y-114697598I1644462J598535D01*
G01*
G37*
G36*
G01*
X357770387Y-138065598D02*
X363408543Y-136013478D01*
G75*
G02*
X365651540Y-137059405I598535J-1644462D01*
G01*
X365651540Y-137059405D01*
G75*
G02*
X364605613Y-139302402I-1644462J-598535D01*
G01*
X358967457Y-141354522D01*
G75*
G02*
X356724460Y-140308595I-598535J1644462D01*
G01*
X356724460Y-140308595D01*
G75*
G02*
X357770387Y-138065598I1644462J598535D01*
G01*
G37*
X363474000Y-127000000D03*
G36*
G01*
X363408543Y-117986522D02*
X357770387Y-115934402D01*
G75*
G02*
X356724460Y-113691405I598535J1644462D01*
G01*
X356724460Y-113691405D01*
G75*
G02*
X358967457Y-112645478I1644462J-598535D01*
G01*
X364605613Y-114697598D01*
G75*
G02*
X365651540Y-116940595I-598535J-1644462D01*
G01*
X365651540Y-116940595D01*
G75*
G02*
X363408543Y-117986522I-1644462J598535D01*
G01*
G37*
D13*
X241300000Y-102870000D03*
X393700000Y-102870000D03*
X190500000Y-102870000D03*
X393700000Y-160020000D03*
G36*
G01*
X403460000Y-103950000D02*
X403460000Y-105640000D01*
G75*
G02*
X403210000Y-105890000I-250000J0D01*
G01*
X401970000Y-105890000D01*
G75*
G02*
X401720000Y-105640000I0J250000D01*
G01*
X401720000Y-103950000D01*
G75*
G02*
X401970000Y-103700000I250000J0D01*
G01*
X403210000Y-103700000D01*
G75*
G02*
X403460000Y-103950000I0J-250000D01*
G01*
G37*
D14*
X400050000Y-104795000D03*
G36*
G01*
X16935000Y-145180000D02*
X18625000Y-145180000D01*
G75*
G02*
X18875000Y-145430000I0J-250000D01*
G01*
X18875000Y-146670000D01*
G75*
G02*
X18625000Y-146920000I-250000J0D01*
G01*
X16935000Y-146920000D01*
G75*
G02*
X16685000Y-146670000I0J250000D01*
G01*
X16685000Y-145430000D01*
G75*
G02*
X16935000Y-145180000I250000J0D01*
G01*
G37*
D15*
X17780000Y-148590000D03*
X17780000Y-151130000D03*
X17780000Y-153670000D03*
X17780000Y-156210000D03*
D16*
X62865000Y-157480000D03*
G36*
G01*
X388220000Y-103950000D02*
X388220000Y-105640000D01*
G75*
G02*
X387970000Y-105890000I-250000J0D01*
G01*
X386730000Y-105890000D01*
G75*
G02*
X386480000Y-105640000I0J250000D01*
G01*
X386480000Y-103950000D01*
G75*
G02*
X386730000Y-103700000I250000J0D01*
G01*
X387970000Y-103700000D01*
G75*
G02*
X388220000Y-103950000I0J-250000D01*
G01*
G37*
D14*
X384810000Y-104795000D03*
G36*
G01*
X414865000Y-157080000D02*
X413175000Y-157080000D01*
G75*
G02*
X412925000Y-156830000I0J250000D01*
G01*
X412925000Y-155590000D01*
G75*
G02*
X413175000Y-155340000I250000J0D01*
G01*
X414865000Y-155340000D01*
G75*
G02*
X415115000Y-155590000I0J-250000D01*
G01*
X415115000Y-156830000D01*
G75*
G02*
X414865000Y-157080000I-250000J0D01*
G01*
G37*
D15*
X414020000Y-153670000D03*
X414020000Y-151130000D03*
X414020000Y-148590000D03*
X414020000Y-146050000D03*
D16*
X52070000Y-157480000D03*
X73660000Y-157480000D03*
G36*
G01*
X414255000Y-103950000D02*
X414255000Y-105640000D01*
G75*
G02*
X414005000Y-105890000I-250000J0D01*
G01*
X412765000Y-105890000D01*
G75*
G02*
X412515000Y-105640000I0J250000D01*
G01*
X412515000Y-103950000D01*
G75*
G02*
X412765000Y-103700000I250000J0D01*
G01*
X414005000Y-103700000D01*
G75*
G02*
X414255000Y-103950000I0J-250000D01*
G01*
G37*
D14*
X410845000Y-104795000D03*
G36*
G01*
X377425000Y-103950000D02*
X377425000Y-105640000D01*
G75*
G02*
X377175000Y-105890000I-250000J0D01*
G01*
X375935000Y-105890000D01*
G75*
G02*
X375685000Y-105640000I0J250000D01*
G01*
X375685000Y-103950000D01*
G75*
G02*
X375935000Y-103700000I250000J0D01*
G01*
X377175000Y-103700000D01*
G75*
G02*
X377425000Y-103950000I0J-250000D01*
G01*
G37*
X374015000Y-104795000D03*
M02*
