G04 #@! TF.GenerationSoftware,KiCad,Pcbnew,6.0.5+dfsg-1~bpo11+1*
G04 #@! TF.CreationDate,2022-08-13T18:52:41+00:00*
G04 #@! TF.ProjectId,switch_board,73776974-6368-45f6-926f-6172642e6b69,0.1*
G04 #@! TF.SameCoordinates,Original*
G04 #@! TF.FileFunction,Paste,Bot*
G04 #@! TF.FilePolarity,Positive*
%FSLAX46Y46*%
G04 Gerber Fmt 4.6, Leading zero omitted, Abs format (unit mm)*
G04 Created by KiCad (PCBNEW 6.0.5+dfsg-1~bpo11+1) date 2022-08-13 18:52:41*
%MOMM*%
%LPD*%
G01*
G04 APERTURE LIST*
%ADD10R,0.900000X1.200000*%
G04 APERTURE END LIST*
G36*
G01*
X133789000Y-150467000D02*
X134689000Y-150467000D01*
G75*
G02*
X134939000Y-150717000I0J-250000D01*
G01*
X134939000Y-151242000D01*
G75*
G02*
X134689000Y-151492000I-250000J0D01*
G01*
X133789000Y-151492000D01*
G75*
G02*
X133539000Y-151242000I0J250000D01*
G01*
X133539000Y-150717000D01*
G75*
G02*
X133789000Y-150467000I250000J0D01*
G01*
G37*
G36*
G01*
X133789000Y-152292000D02*
X134689000Y-152292000D01*
G75*
G02*
X134939000Y-152542000I0J-250000D01*
G01*
X134939000Y-153067000D01*
G75*
G02*
X134689000Y-153317000I-250000J0D01*
G01*
X133789000Y-153317000D01*
G75*
G02*
X133539000Y-153067000I0J250000D01*
G01*
X133539000Y-152542000D01*
G75*
G02*
X133789000Y-152292000I250000J0D01*
G01*
G37*
G36*
G01*
X160682600Y-156370000D02*
X160682600Y-157320000D01*
G75*
G02*
X160432600Y-157570000I-250000J0D01*
G01*
X159932600Y-157570000D01*
G75*
G02*
X159682600Y-157320000I0J250000D01*
G01*
X159682600Y-156370000D01*
G75*
G02*
X159932600Y-156120000I250000J0D01*
G01*
X160432600Y-156120000D01*
G75*
G02*
X160682600Y-156370000I0J-250000D01*
G01*
G37*
G36*
G01*
X158782600Y-156370000D02*
X158782600Y-157320000D01*
G75*
G02*
X158532600Y-157570000I-250000J0D01*
G01*
X158032600Y-157570000D01*
G75*
G02*
X157782600Y-157320000I0J250000D01*
G01*
X157782600Y-156370000D01*
G75*
G02*
X158032600Y-156120000I250000J0D01*
G01*
X158532600Y-156120000D01*
G75*
G02*
X158782600Y-156370000I0J-250000D01*
G01*
G37*
G36*
G01*
X196065000Y-146471000D02*
X196365000Y-146471000D01*
G75*
G02*
X196515000Y-146621000I0J-150000D01*
G01*
X196515000Y-148371000D01*
G75*
G02*
X196365000Y-148521000I-150000J0D01*
G01*
X196065000Y-148521000D01*
G75*
G02*
X195915000Y-148371000I0J150000D01*
G01*
X195915000Y-146621000D01*
G75*
G02*
X196065000Y-146471000I150000J0D01*
G01*
G37*
G36*
G01*
X197335000Y-146471000D02*
X197635000Y-146471000D01*
G75*
G02*
X197785000Y-146621000I0J-150000D01*
G01*
X197785000Y-148371000D01*
G75*
G02*
X197635000Y-148521000I-150000J0D01*
G01*
X197335000Y-148521000D01*
G75*
G02*
X197185000Y-148371000I0J150000D01*
G01*
X197185000Y-146621000D01*
G75*
G02*
X197335000Y-146471000I150000J0D01*
G01*
G37*
G36*
G01*
X198605000Y-146471000D02*
X198905000Y-146471000D01*
G75*
G02*
X199055000Y-146621000I0J-150000D01*
G01*
X199055000Y-148371000D01*
G75*
G02*
X198905000Y-148521000I-150000J0D01*
G01*
X198605000Y-148521000D01*
G75*
G02*
X198455000Y-148371000I0J150000D01*
G01*
X198455000Y-146621000D01*
G75*
G02*
X198605000Y-146471000I150000J0D01*
G01*
G37*
G36*
G01*
X199875000Y-146471000D02*
X200175000Y-146471000D01*
G75*
G02*
X200325000Y-146621000I0J-150000D01*
G01*
X200325000Y-148371000D01*
G75*
G02*
X200175000Y-148521000I-150000J0D01*
G01*
X199875000Y-148521000D01*
G75*
G02*
X199725000Y-148371000I0J150000D01*
G01*
X199725000Y-146621000D01*
G75*
G02*
X199875000Y-146471000I150000J0D01*
G01*
G37*
G36*
G01*
X201145000Y-146471000D02*
X201445000Y-146471000D01*
G75*
G02*
X201595000Y-146621000I0J-150000D01*
G01*
X201595000Y-148371000D01*
G75*
G02*
X201445000Y-148521000I-150000J0D01*
G01*
X201145000Y-148521000D01*
G75*
G02*
X200995000Y-148371000I0J150000D01*
G01*
X200995000Y-146621000D01*
G75*
G02*
X201145000Y-146471000I150000J0D01*
G01*
G37*
G36*
G01*
X202415000Y-146471000D02*
X202715000Y-146471000D01*
G75*
G02*
X202865000Y-146621000I0J-150000D01*
G01*
X202865000Y-148371000D01*
G75*
G02*
X202715000Y-148521000I-150000J0D01*
G01*
X202415000Y-148521000D01*
G75*
G02*
X202265000Y-148371000I0J150000D01*
G01*
X202265000Y-146621000D01*
G75*
G02*
X202415000Y-146471000I150000J0D01*
G01*
G37*
G36*
G01*
X203685000Y-146471000D02*
X203985000Y-146471000D01*
G75*
G02*
X204135000Y-146621000I0J-150000D01*
G01*
X204135000Y-148371000D01*
G75*
G02*
X203985000Y-148521000I-150000J0D01*
G01*
X203685000Y-148521000D01*
G75*
G02*
X203535000Y-148371000I0J150000D01*
G01*
X203535000Y-146621000D01*
G75*
G02*
X203685000Y-146471000I150000J0D01*
G01*
G37*
G36*
G01*
X204955000Y-146471000D02*
X205255000Y-146471000D01*
G75*
G02*
X205405000Y-146621000I0J-150000D01*
G01*
X205405000Y-148371000D01*
G75*
G02*
X205255000Y-148521000I-150000J0D01*
G01*
X204955000Y-148521000D01*
G75*
G02*
X204805000Y-148371000I0J150000D01*
G01*
X204805000Y-146621000D01*
G75*
G02*
X204955000Y-146471000I150000J0D01*
G01*
G37*
G36*
G01*
X206225000Y-146471000D02*
X206525000Y-146471000D01*
G75*
G02*
X206675000Y-146621000I0J-150000D01*
G01*
X206675000Y-148371000D01*
G75*
G02*
X206525000Y-148521000I-150000J0D01*
G01*
X206225000Y-148521000D01*
G75*
G02*
X206075000Y-148371000I0J150000D01*
G01*
X206075000Y-146621000D01*
G75*
G02*
X206225000Y-146471000I150000J0D01*
G01*
G37*
G36*
G01*
X207495000Y-146471000D02*
X207795000Y-146471000D01*
G75*
G02*
X207945000Y-146621000I0J-150000D01*
G01*
X207945000Y-148371000D01*
G75*
G02*
X207795000Y-148521000I-150000J0D01*
G01*
X207495000Y-148521000D01*
G75*
G02*
X207345000Y-148371000I0J150000D01*
G01*
X207345000Y-146621000D01*
G75*
G02*
X207495000Y-146471000I150000J0D01*
G01*
G37*
G36*
G01*
X208765000Y-146471000D02*
X209065000Y-146471000D01*
G75*
G02*
X209215000Y-146621000I0J-150000D01*
G01*
X209215000Y-148371000D01*
G75*
G02*
X209065000Y-148521000I-150000J0D01*
G01*
X208765000Y-148521000D01*
G75*
G02*
X208615000Y-148371000I0J150000D01*
G01*
X208615000Y-146621000D01*
G75*
G02*
X208765000Y-146471000I150000J0D01*
G01*
G37*
G36*
G01*
X210035000Y-146471000D02*
X210335000Y-146471000D01*
G75*
G02*
X210485000Y-146621000I0J-150000D01*
G01*
X210485000Y-148371000D01*
G75*
G02*
X210335000Y-148521000I-150000J0D01*
G01*
X210035000Y-148521000D01*
G75*
G02*
X209885000Y-148371000I0J150000D01*
G01*
X209885000Y-146621000D01*
G75*
G02*
X210035000Y-146471000I150000J0D01*
G01*
G37*
G36*
G01*
X210035000Y-155771000D02*
X210335000Y-155771000D01*
G75*
G02*
X210485000Y-155921000I0J-150000D01*
G01*
X210485000Y-157671000D01*
G75*
G02*
X210335000Y-157821000I-150000J0D01*
G01*
X210035000Y-157821000D01*
G75*
G02*
X209885000Y-157671000I0J150000D01*
G01*
X209885000Y-155921000D01*
G75*
G02*
X210035000Y-155771000I150000J0D01*
G01*
G37*
G36*
G01*
X208765000Y-155771000D02*
X209065000Y-155771000D01*
G75*
G02*
X209215000Y-155921000I0J-150000D01*
G01*
X209215000Y-157671000D01*
G75*
G02*
X209065000Y-157821000I-150000J0D01*
G01*
X208765000Y-157821000D01*
G75*
G02*
X208615000Y-157671000I0J150000D01*
G01*
X208615000Y-155921000D01*
G75*
G02*
X208765000Y-155771000I150000J0D01*
G01*
G37*
G36*
G01*
X207495000Y-155771000D02*
X207795000Y-155771000D01*
G75*
G02*
X207945000Y-155921000I0J-150000D01*
G01*
X207945000Y-157671000D01*
G75*
G02*
X207795000Y-157821000I-150000J0D01*
G01*
X207495000Y-157821000D01*
G75*
G02*
X207345000Y-157671000I0J150000D01*
G01*
X207345000Y-155921000D01*
G75*
G02*
X207495000Y-155771000I150000J0D01*
G01*
G37*
G36*
G01*
X206225000Y-155771000D02*
X206525000Y-155771000D01*
G75*
G02*
X206675000Y-155921000I0J-150000D01*
G01*
X206675000Y-157671000D01*
G75*
G02*
X206525000Y-157821000I-150000J0D01*
G01*
X206225000Y-157821000D01*
G75*
G02*
X206075000Y-157671000I0J150000D01*
G01*
X206075000Y-155921000D01*
G75*
G02*
X206225000Y-155771000I150000J0D01*
G01*
G37*
G36*
G01*
X204955000Y-155771000D02*
X205255000Y-155771000D01*
G75*
G02*
X205405000Y-155921000I0J-150000D01*
G01*
X205405000Y-157671000D01*
G75*
G02*
X205255000Y-157821000I-150000J0D01*
G01*
X204955000Y-157821000D01*
G75*
G02*
X204805000Y-157671000I0J150000D01*
G01*
X204805000Y-155921000D01*
G75*
G02*
X204955000Y-155771000I150000J0D01*
G01*
G37*
G36*
G01*
X203685000Y-155771000D02*
X203985000Y-155771000D01*
G75*
G02*
X204135000Y-155921000I0J-150000D01*
G01*
X204135000Y-157671000D01*
G75*
G02*
X203985000Y-157821000I-150000J0D01*
G01*
X203685000Y-157821000D01*
G75*
G02*
X203535000Y-157671000I0J150000D01*
G01*
X203535000Y-155921000D01*
G75*
G02*
X203685000Y-155771000I150000J0D01*
G01*
G37*
G36*
G01*
X202415000Y-155771000D02*
X202715000Y-155771000D01*
G75*
G02*
X202865000Y-155921000I0J-150000D01*
G01*
X202865000Y-157671000D01*
G75*
G02*
X202715000Y-157821000I-150000J0D01*
G01*
X202415000Y-157821000D01*
G75*
G02*
X202265000Y-157671000I0J150000D01*
G01*
X202265000Y-155921000D01*
G75*
G02*
X202415000Y-155771000I150000J0D01*
G01*
G37*
G36*
G01*
X201145000Y-155771000D02*
X201445000Y-155771000D01*
G75*
G02*
X201595000Y-155921000I0J-150000D01*
G01*
X201595000Y-157671000D01*
G75*
G02*
X201445000Y-157821000I-150000J0D01*
G01*
X201145000Y-157821000D01*
G75*
G02*
X200995000Y-157671000I0J150000D01*
G01*
X200995000Y-155921000D01*
G75*
G02*
X201145000Y-155771000I150000J0D01*
G01*
G37*
G36*
G01*
X199875000Y-155771000D02*
X200175000Y-155771000D01*
G75*
G02*
X200325000Y-155921000I0J-150000D01*
G01*
X200325000Y-157671000D01*
G75*
G02*
X200175000Y-157821000I-150000J0D01*
G01*
X199875000Y-157821000D01*
G75*
G02*
X199725000Y-157671000I0J150000D01*
G01*
X199725000Y-155921000D01*
G75*
G02*
X199875000Y-155771000I150000J0D01*
G01*
G37*
G36*
G01*
X198605000Y-155771000D02*
X198905000Y-155771000D01*
G75*
G02*
X199055000Y-155921000I0J-150000D01*
G01*
X199055000Y-157671000D01*
G75*
G02*
X198905000Y-157821000I-150000J0D01*
G01*
X198605000Y-157821000D01*
G75*
G02*
X198455000Y-157671000I0J150000D01*
G01*
X198455000Y-155921000D01*
G75*
G02*
X198605000Y-155771000I150000J0D01*
G01*
G37*
G36*
G01*
X197335000Y-155771000D02*
X197635000Y-155771000D01*
G75*
G02*
X197785000Y-155921000I0J-150000D01*
G01*
X197785000Y-157671000D01*
G75*
G02*
X197635000Y-157821000I-150000J0D01*
G01*
X197335000Y-157821000D01*
G75*
G02*
X197185000Y-157671000I0J150000D01*
G01*
X197185000Y-155921000D01*
G75*
G02*
X197335000Y-155771000I150000J0D01*
G01*
G37*
G36*
G01*
X196065000Y-155771000D02*
X196365000Y-155771000D01*
G75*
G02*
X196515000Y-155921000I0J-150000D01*
G01*
X196515000Y-157671000D01*
G75*
G02*
X196365000Y-157821000I-150000J0D01*
G01*
X196065000Y-157821000D01*
G75*
G02*
X195915000Y-157671000I0J150000D01*
G01*
X195915000Y-155921000D01*
G75*
G02*
X196065000Y-155771000I150000J0D01*
G01*
G37*
G36*
G01*
X162333800Y-146471000D02*
X162633800Y-146471000D01*
G75*
G02*
X162783800Y-146621000I0J-150000D01*
G01*
X162783800Y-148371000D01*
G75*
G02*
X162633800Y-148521000I-150000J0D01*
G01*
X162333800Y-148521000D01*
G75*
G02*
X162183800Y-148371000I0J150000D01*
G01*
X162183800Y-146621000D01*
G75*
G02*
X162333800Y-146471000I150000J0D01*
G01*
G37*
G36*
G01*
X163603800Y-146471000D02*
X163903800Y-146471000D01*
G75*
G02*
X164053800Y-146621000I0J-150000D01*
G01*
X164053800Y-148371000D01*
G75*
G02*
X163903800Y-148521000I-150000J0D01*
G01*
X163603800Y-148521000D01*
G75*
G02*
X163453800Y-148371000I0J150000D01*
G01*
X163453800Y-146621000D01*
G75*
G02*
X163603800Y-146471000I150000J0D01*
G01*
G37*
G36*
G01*
X164873800Y-146471000D02*
X165173800Y-146471000D01*
G75*
G02*
X165323800Y-146621000I0J-150000D01*
G01*
X165323800Y-148371000D01*
G75*
G02*
X165173800Y-148521000I-150000J0D01*
G01*
X164873800Y-148521000D01*
G75*
G02*
X164723800Y-148371000I0J150000D01*
G01*
X164723800Y-146621000D01*
G75*
G02*
X164873800Y-146471000I150000J0D01*
G01*
G37*
G36*
G01*
X166143800Y-146471000D02*
X166443800Y-146471000D01*
G75*
G02*
X166593800Y-146621000I0J-150000D01*
G01*
X166593800Y-148371000D01*
G75*
G02*
X166443800Y-148521000I-150000J0D01*
G01*
X166143800Y-148521000D01*
G75*
G02*
X165993800Y-148371000I0J150000D01*
G01*
X165993800Y-146621000D01*
G75*
G02*
X166143800Y-146471000I150000J0D01*
G01*
G37*
G36*
G01*
X167413800Y-146471000D02*
X167713800Y-146471000D01*
G75*
G02*
X167863800Y-146621000I0J-150000D01*
G01*
X167863800Y-148371000D01*
G75*
G02*
X167713800Y-148521000I-150000J0D01*
G01*
X167413800Y-148521000D01*
G75*
G02*
X167263800Y-148371000I0J150000D01*
G01*
X167263800Y-146621000D01*
G75*
G02*
X167413800Y-146471000I150000J0D01*
G01*
G37*
G36*
G01*
X168683800Y-146471000D02*
X168983800Y-146471000D01*
G75*
G02*
X169133800Y-146621000I0J-150000D01*
G01*
X169133800Y-148371000D01*
G75*
G02*
X168983800Y-148521000I-150000J0D01*
G01*
X168683800Y-148521000D01*
G75*
G02*
X168533800Y-148371000I0J150000D01*
G01*
X168533800Y-146621000D01*
G75*
G02*
X168683800Y-146471000I150000J0D01*
G01*
G37*
G36*
G01*
X169953800Y-146471000D02*
X170253800Y-146471000D01*
G75*
G02*
X170403800Y-146621000I0J-150000D01*
G01*
X170403800Y-148371000D01*
G75*
G02*
X170253800Y-148521000I-150000J0D01*
G01*
X169953800Y-148521000D01*
G75*
G02*
X169803800Y-148371000I0J150000D01*
G01*
X169803800Y-146621000D01*
G75*
G02*
X169953800Y-146471000I150000J0D01*
G01*
G37*
G36*
G01*
X171223800Y-146471000D02*
X171523800Y-146471000D01*
G75*
G02*
X171673800Y-146621000I0J-150000D01*
G01*
X171673800Y-148371000D01*
G75*
G02*
X171523800Y-148521000I-150000J0D01*
G01*
X171223800Y-148521000D01*
G75*
G02*
X171073800Y-148371000I0J150000D01*
G01*
X171073800Y-146621000D01*
G75*
G02*
X171223800Y-146471000I150000J0D01*
G01*
G37*
G36*
G01*
X172493800Y-146471000D02*
X172793800Y-146471000D01*
G75*
G02*
X172943800Y-146621000I0J-150000D01*
G01*
X172943800Y-148371000D01*
G75*
G02*
X172793800Y-148521000I-150000J0D01*
G01*
X172493800Y-148521000D01*
G75*
G02*
X172343800Y-148371000I0J150000D01*
G01*
X172343800Y-146621000D01*
G75*
G02*
X172493800Y-146471000I150000J0D01*
G01*
G37*
G36*
G01*
X173763800Y-146471000D02*
X174063800Y-146471000D01*
G75*
G02*
X174213800Y-146621000I0J-150000D01*
G01*
X174213800Y-148371000D01*
G75*
G02*
X174063800Y-148521000I-150000J0D01*
G01*
X173763800Y-148521000D01*
G75*
G02*
X173613800Y-148371000I0J150000D01*
G01*
X173613800Y-146621000D01*
G75*
G02*
X173763800Y-146471000I150000J0D01*
G01*
G37*
G36*
G01*
X175033800Y-146471000D02*
X175333800Y-146471000D01*
G75*
G02*
X175483800Y-146621000I0J-150000D01*
G01*
X175483800Y-148371000D01*
G75*
G02*
X175333800Y-148521000I-150000J0D01*
G01*
X175033800Y-148521000D01*
G75*
G02*
X174883800Y-148371000I0J150000D01*
G01*
X174883800Y-146621000D01*
G75*
G02*
X175033800Y-146471000I150000J0D01*
G01*
G37*
G36*
G01*
X176303800Y-146471000D02*
X176603800Y-146471000D01*
G75*
G02*
X176753800Y-146621000I0J-150000D01*
G01*
X176753800Y-148371000D01*
G75*
G02*
X176603800Y-148521000I-150000J0D01*
G01*
X176303800Y-148521000D01*
G75*
G02*
X176153800Y-148371000I0J150000D01*
G01*
X176153800Y-146621000D01*
G75*
G02*
X176303800Y-146471000I150000J0D01*
G01*
G37*
G36*
G01*
X176303800Y-155771000D02*
X176603800Y-155771000D01*
G75*
G02*
X176753800Y-155921000I0J-150000D01*
G01*
X176753800Y-157671000D01*
G75*
G02*
X176603800Y-157821000I-150000J0D01*
G01*
X176303800Y-157821000D01*
G75*
G02*
X176153800Y-157671000I0J150000D01*
G01*
X176153800Y-155921000D01*
G75*
G02*
X176303800Y-155771000I150000J0D01*
G01*
G37*
G36*
G01*
X175033800Y-155771000D02*
X175333800Y-155771000D01*
G75*
G02*
X175483800Y-155921000I0J-150000D01*
G01*
X175483800Y-157671000D01*
G75*
G02*
X175333800Y-157821000I-150000J0D01*
G01*
X175033800Y-157821000D01*
G75*
G02*
X174883800Y-157671000I0J150000D01*
G01*
X174883800Y-155921000D01*
G75*
G02*
X175033800Y-155771000I150000J0D01*
G01*
G37*
G36*
G01*
X173763800Y-155771000D02*
X174063800Y-155771000D01*
G75*
G02*
X174213800Y-155921000I0J-150000D01*
G01*
X174213800Y-157671000D01*
G75*
G02*
X174063800Y-157821000I-150000J0D01*
G01*
X173763800Y-157821000D01*
G75*
G02*
X173613800Y-157671000I0J150000D01*
G01*
X173613800Y-155921000D01*
G75*
G02*
X173763800Y-155771000I150000J0D01*
G01*
G37*
G36*
G01*
X172493800Y-155771000D02*
X172793800Y-155771000D01*
G75*
G02*
X172943800Y-155921000I0J-150000D01*
G01*
X172943800Y-157671000D01*
G75*
G02*
X172793800Y-157821000I-150000J0D01*
G01*
X172493800Y-157821000D01*
G75*
G02*
X172343800Y-157671000I0J150000D01*
G01*
X172343800Y-155921000D01*
G75*
G02*
X172493800Y-155771000I150000J0D01*
G01*
G37*
G36*
G01*
X171223800Y-155771000D02*
X171523800Y-155771000D01*
G75*
G02*
X171673800Y-155921000I0J-150000D01*
G01*
X171673800Y-157671000D01*
G75*
G02*
X171523800Y-157821000I-150000J0D01*
G01*
X171223800Y-157821000D01*
G75*
G02*
X171073800Y-157671000I0J150000D01*
G01*
X171073800Y-155921000D01*
G75*
G02*
X171223800Y-155771000I150000J0D01*
G01*
G37*
G36*
G01*
X169953800Y-155771000D02*
X170253800Y-155771000D01*
G75*
G02*
X170403800Y-155921000I0J-150000D01*
G01*
X170403800Y-157671000D01*
G75*
G02*
X170253800Y-157821000I-150000J0D01*
G01*
X169953800Y-157821000D01*
G75*
G02*
X169803800Y-157671000I0J150000D01*
G01*
X169803800Y-155921000D01*
G75*
G02*
X169953800Y-155771000I150000J0D01*
G01*
G37*
G36*
G01*
X168683800Y-155771000D02*
X168983800Y-155771000D01*
G75*
G02*
X169133800Y-155921000I0J-150000D01*
G01*
X169133800Y-157671000D01*
G75*
G02*
X168983800Y-157821000I-150000J0D01*
G01*
X168683800Y-157821000D01*
G75*
G02*
X168533800Y-157671000I0J150000D01*
G01*
X168533800Y-155921000D01*
G75*
G02*
X168683800Y-155771000I150000J0D01*
G01*
G37*
G36*
G01*
X167413800Y-155771000D02*
X167713800Y-155771000D01*
G75*
G02*
X167863800Y-155921000I0J-150000D01*
G01*
X167863800Y-157671000D01*
G75*
G02*
X167713800Y-157821000I-150000J0D01*
G01*
X167413800Y-157821000D01*
G75*
G02*
X167263800Y-157671000I0J150000D01*
G01*
X167263800Y-155921000D01*
G75*
G02*
X167413800Y-155771000I150000J0D01*
G01*
G37*
G36*
G01*
X166143800Y-155771000D02*
X166443800Y-155771000D01*
G75*
G02*
X166593800Y-155921000I0J-150000D01*
G01*
X166593800Y-157671000D01*
G75*
G02*
X166443800Y-157821000I-150000J0D01*
G01*
X166143800Y-157821000D01*
G75*
G02*
X165993800Y-157671000I0J150000D01*
G01*
X165993800Y-155921000D01*
G75*
G02*
X166143800Y-155771000I150000J0D01*
G01*
G37*
G36*
G01*
X164873800Y-155771000D02*
X165173800Y-155771000D01*
G75*
G02*
X165323800Y-155921000I0J-150000D01*
G01*
X165323800Y-157671000D01*
G75*
G02*
X165173800Y-157821000I-150000J0D01*
G01*
X164873800Y-157821000D01*
G75*
G02*
X164723800Y-157671000I0J150000D01*
G01*
X164723800Y-155921000D01*
G75*
G02*
X164873800Y-155771000I150000J0D01*
G01*
G37*
G36*
G01*
X163603800Y-155771000D02*
X163903800Y-155771000D01*
G75*
G02*
X164053800Y-155921000I0J-150000D01*
G01*
X164053800Y-157671000D01*
G75*
G02*
X163903800Y-157821000I-150000J0D01*
G01*
X163603800Y-157821000D01*
G75*
G02*
X163453800Y-157671000I0J150000D01*
G01*
X163453800Y-155921000D01*
G75*
G02*
X163603800Y-155771000I150000J0D01*
G01*
G37*
G36*
G01*
X162333800Y-155771000D02*
X162633800Y-155771000D01*
G75*
G02*
X162783800Y-155921000I0J-150000D01*
G01*
X162783800Y-157671000D01*
G75*
G02*
X162633800Y-157821000I-150000J0D01*
G01*
X162333800Y-157821000D01*
G75*
G02*
X162183800Y-157671000I0J150000D01*
G01*
X162183800Y-155921000D01*
G75*
G02*
X162333800Y-155771000I150000J0D01*
G01*
G37*
G36*
G01*
X48716250Y-150546500D02*
X47803750Y-150546500D01*
G75*
G02*
X47560000Y-150302750I0J243750D01*
G01*
X47560000Y-149815250D01*
G75*
G02*
X47803750Y-149571500I243750J0D01*
G01*
X48716250Y-149571500D01*
G75*
G02*
X48960000Y-149815250I0J-243750D01*
G01*
X48960000Y-150302750D01*
G75*
G02*
X48716250Y-150546500I-243750J0D01*
G01*
G37*
G36*
G01*
X48716250Y-148671500D02*
X47803750Y-148671500D01*
G75*
G02*
X47560000Y-148427750I0J243750D01*
G01*
X47560000Y-147940250D01*
G75*
G02*
X47803750Y-147696500I243750J0D01*
G01*
X48716250Y-147696500D01*
G75*
G02*
X48960000Y-147940250I0J-243750D01*
G01*
X48960000Y-148427750D01*
G75*
G02*
X48716250Y-148671500I-243750J0D01*
G01*
G37*
G36*
G01*
X44635000Y-150340000D02*
X45535000Y-150340000D01*
G75*
G02*
X45785000Y-150590000I0J-250000D01*
G01*
X45785000Y-151115000D01*
G75*
G02*
X45535000Y-151365000I-250000J0D01*
G01*
X44635000Y-151365000D01*
G75*
G02*
X44385000Y-151115000I0J250000D01*
G01*
X44385000Y-150590000D01*
G75*
G02*
X44635000Y-150340000I250000J0D01*
G01*
G37*
G36*
G01*
X44635000Y-152165000D02*
X45535000Y-152165000D01*
G75*
G02*
X45785000Y-152415000I0J-250000D01*
G01*
X45785000Y-152940000D01*
G75*
G02*
X45535000Y-153190000I-250000J0D01*
G01*
X44635000Y-153190000D01*
G75*
G02*
X44385000Y-152940000I0J250000D01*
G01*
X44385000Y-152415000D01*
G75*
G02*
X44635000Y-152165000I250000J0D01*
G01*
G37*
D10*
X162686000Y-162560000D03*
X159386000Y-162560000D03*
G36*
G01*
X194312200Y-156395400D02*
X194312200Y-157345400D01*
G75*
G02*
X194062200Y-157595400I-250000J0D01*
G01*
X193562200Y-157595400D01*
G75*
G02*
X193312200Y-157345400I0J250000D01*
G01*
X193312200Y-156395400D01*
G75*
G02*
X193562200Y-156145400I250000J0D01*
G01*
X194062200Y-156145400D01*
G75*
G02*
X194312200Y-156395400I0J-250000D01*
G01*
G37*
G36*
G01*
X192412200Y-156395400D02*
X192412200Y-157345400D01*
G75*
G02*
X192162200Y-157595400I-250000J0D01*
G01*
X191662200Y-157595400D01*
G75*
G02*
X191412200Y-157345400I0J250000D01*
G01*
X191412200Y-156395400D01*
G75*
G02*
X191662200Y-156145400I250000J0D01*
G01*
X192162200Y-156145400D01*
G75*
G02*
X192412200Y-156395400I0J-250000D01*
G01*
G37*
G36*
G01*
X42948000Y-150815500D02*
X42948000Y-151115500D01*
G75*
G02*
X42798000Y-151265500I-150000J0D01*
G01*
X41773000Y-151265500D01*
G75*
G02*
X41623000Y-151115500I0J150000D01*
G01*
X41623000Y-150815500D01*
G75*
G02*
X41773000Y-150665500I150000J0D01*
G01*
X42798000Y-150665500D01*
G75*
G02*
X42948000Y-150815500I0J-150000D01*
G01*
G37*
G36*
G01*
X42948000Y-151765500D02*
X42948000Y-152065500D01*
G75*
G02*
X42798000Y-152215500I-150000J0D01*
G01*
X41773000Y-152215500D01*
G75*
G02*
X41623000Y-152065500I0J150000D01*
G01*
X41623000Y-151765500D01*
G75*
G02*
X41773000Y-151615500I150000J0D01*
G01*
X42798000Y-151615500D01*
G75*
G02*
X42948000Y-151765500I0J-150000D01*
G01*
G37*
G36*
G01*
X42948000Y-152715500D02*
X42948000Y-153015500D01*
G75*
G02*
X42798000Y-153165500I-150000J0D01*
G01*
X41773000Y-153165500D01*
G75*
G02*
X41623000Y-153015500I0J150000D01*
G01*
X41623000Y-152715500D01*
G75*
G02*
X41773000Y-152565500I150000J0D01*
G01*
X42798000Y-152565500D01*
G75*
G02*
X42948000Y-152715500I0J-150000D01*
G01*
G37*
G36*
G01*
X40673000Y-152715500D02*
X40673000Y-153015500D01*
G75*
G02*
X40523000Y-153165500I-150000J0D01*
G01*
X39498000Y-153165500D01*
G75*
G02*
X39348000Y-153015500I0J150000D01*
G01*
X39348000Y-152715500D01*
G75*
G02*
X39498000Y-152565500I150000J0D01*
G01*
X40523000Y-152565500D01*
G75*
G02*
X40673000Y-152715500I0J-150000D01*
G01*
G37*
G36*
G01*
X40673000Y-150815500D02*
X40673000Y-151115500D01*
G75*
G02*
X40523000Y-151265500I-150000J0D01*
G01*
X39498000Y-151265500D01*
G75*
G02*
X39348000Y-151115500I0J150000D01*
G01*
X39348000Y-150815500D01*
G75*
G02*
X39498000Y-150665500I150000J0D01*
G01*
X40523000Y-150665500D01*
G75*
G02*
X40673000Y-150815500I0J-150000D01*
G01*
G37*
G36*
G01*
X137091000Y-150467000D02*
X137991000Y-150467000D01*
G75*
G02*
X138241000Y-150717000I0J-250000D01*
G01*
X138241000Y-151242000D01*
G75*
G02*
X137991000Y-151492000I-250000J0D01*
G01*
X137091000Y-151492000D01*
G75*
G02*
X136841000Y-151242000I0J250000D01*
G01*
X136841000Y-150717000D01*
G75*
G02*
X137091000Y-150467000I250000J0D01*
G01*
G37*
G36*
G01*
X137091000Y-152292000D02*
X137991000Y-152292000D01*
G75*
G02*
X138241000Y-152542000I0J-250000D01*
G01*
X138241000Y-153067000D01*
G75*
G02*
X137991000Y-153317000I-250000J0D01*
G01*
X137091000Y-153317000D01*
G75*
G02*
X136841000Y-153067000I0J250000D01*
G01*
X136841000Y-152542000D01*
G75*
G02*
X137091000Y-152292000I250000J0D01*
G01*
G37*
G36*
G01*
X29497000Y-150442000D02*
X30447000Y-150442000D01*
G75*
G02*
X30697000Y-150692000I0J-250000D01*
G01*
X30697000Y-151192000D01*
G75*
G02*
X30447000Y-151442000I-250000J0D01*
G01*
X29497000Y-151442000D01*
G75*
G02*
X29247000Y-151192000I0J250000D01*
G01*
X29247000Y-150692000D01*
G75*
G02*
X29497000Y-150442000I250000J0D01*
G01*
G37*
G36*
G01*
X29497000Y-152342000D02*
X30447000Y-152342000D01*
G75*
G02*
X30697000Y-152592000I0J-250000D01*
G01*
X30697000Y-153092000D01*
G75*
G02*
X30447000Y-153342000I-250000J0D01*
G01*
X29497000Y-153342000D01*
G75*
G02*
X29247000Y-153092000I0J250000D01*
G01*
X29247000Y-152592000D01*
G75*
G02*
X29497000Y-152342000I250000J0D01*
G01*
G37*
X193674000Y-147447000D03*
X190374000Y-147447000D03*
G36*
G01*
X47810000Y-152776500D02*
X48710000Y-152776500D01*
G75*
G02*
X48960000Y-153026500I0J-250000D01*
G01*
X48960000Y-153551500D01*
G75*
G02*
X48710000Y-153801500I-250000J0D01*
G01*
X47810000Y-153801500D01*
G75*
G02*
X47560000Y-153551500I0J250000D01*
G01*
X47560000Y-153026500D01*
G75*
G02*
X47810000Y-152776500I250000J0D01*
G01*
G37*
G36*
G01*
X47810000Y-154601500D02*
X48710000Y-154601500D01*
G75*
G02*
X48960000Y-154851500I0J-250000D01*
G01*
X48960000Y-155376500D01*
G75*
G02*
X48710000Y-155626500I-250000J0D01*
G01*
X47810000Y-155626500D01*
G75*
G02*
X47560000Y-155376500I0J250000D01*
G01*
X47560000Y-154851500D01*
G75*
G02*
X47810000Y-154601500I250000J0D01*
G01*
G37*
X160020000Y-147574000D03*
X156720000Y-147574000D03*
M02*
