%FSLAX45Y45*%
G04 Gerber Fmt 4.5, Leading zero omitted, Abs format (unit mm)*
G04 Created by KiCad (PCBNEW 6.0.5+dfsg-1~bpo11+1) date 2022-08-13 18:52:41*
%MOMM*%
%LPD*%
G01*
G04 APERTURE LIST*
%TA.AperFunction,Profile*%
%ADD10C,0.100000*%
%TD*%
%ADD11C,0.200000*%
G04 APERTURE END LIST*
D10*
X41783000Y-16510000D02*
X41783000Y-9906000D01*
X1397000Y-9906000D02*
X1397000Y-16510000D01*
X1397000Y-16510000D02*
X41783000Y-16510000D01*
X41783000Y-9906000D02*
X1397000Y-9906000D01*
D11*
X1649619Y-16825476D02*
X1649619Y-16625476D01*
X1697238Y-16625476D01*
X1725809Y-16635000D01*
X1744857Y-16654048D01*
X1754381Y-16673095D01*
X1763905Y-16711190D01*
X1763905Y-16739762D01*
X1754381Y-16777857D01*
X1744857Y-16796905D01*
X1725809Y-16815952D01*
X1697238Y-16825476D01*
X1649619Y-16825476D01*
X1849619Y-16825476D02*
X1849619Y-16692143D01*
X1849619Y-16730238D02*
X1859143Y-16711190D01*
X1868667Y-16701667D01*
X1887714Y-16692143D01*
X1906762Y-16692143D01*
X1973428Y-16825476D02*
X1973428Y-16692143D01*
X1973428Y-16625476D02*
X1963905Y-16635000D01*
X1973428Y-16644524D01*
X1982952Y-16635000D01*
X1973428Y-16625476D01*
X1973428Y-16644524D01*
X2097238Y-16825476D02*
X2078190Y-16815952D01*
X2068667Y-16796905D01*
X2068667Y-16625476D01*
X2202000Y-16825476D02*
X2182952Y-16815952D01*
X2173429Y-16796905D01*
X2173429Y-16625476D01*
X2430571Y-16825476D02*
X2430571Y-16625476D01*
X2497238Y-16768333D01*
X2563905Y-16625476D01*
X2563905Y-16825476D01*
X2744857Y-16825476D02*
X2744857Y-16720714D01*
X2735333Y-16701667D01*
X2716286Y-16692143D01*
X2678190Y-16692143D01*
X2659143Y-16701667D01*
X2744857Y-16815952D02*
X2725810Y-16825476D01*
X2678190Y-16825476D01*
X2659143Y-16815952D01*
X2649619Y-16796905D01*
X2649619Y-16777857D01*
X2659143Y-16758809D01*
X2678190Y-16749286D01*
X2725810Y-16749286D01*
X2744857Y-16739762D01*
X2840095Y-16692143D02*
X2840095Y-16892143D01*
X2840095Y-16701667D02*
X2859143Y-16692143D01*
X2897238Y-16692143D01*
X2916286Y-16701667D01*
X2925809Y-16711190D01*
X2935333Y-16730238D01*
X2935333Y-16787381D01*
X2925809Y-16806429D01*
X2916286Y-16815952D01*
X2897238Y-16825476D01*
X2859143Y-16825476D01*
X2840095Y-16815952D01*
X3021048Y-16806429D02*
X3030571Y-16815952D01*
X3021048Y-16825476D01*
X3011524Y-16815952D01*
X3021048Y-16806429D01*
X3021048Y-16825476D01*
X3021048Y-16701667D02*
X3030571Y-16711190D01*
X3021048Y-16720714D01*
X3011524Y-16711190D01*
X3021048Y-16701667D01*
X3021048Y-16720714D01*
M02*
