M48
; DRILL file {KiCad 6.0.5+dfsg-1~bpo11+1} date Sat Aug 13 18:52:41 2022
; FORMAT={-:-/ absolute / metric / decimal}
; #@! TF.CreationDate,2022-08-13T18:52:41+00:00
; #@! TF.GenerationSoftware,Kicad,Pcbnew,6.0.5+dfsg-1~bpo11+1
; #@! TF.FileFunction,Plated,1,2,PTH
FMAT,2
METRIC
; #@! TA.AperFunction,Plated,PTH,ViaDrill
T1C0.400
; #@! TA.AperFunction,Plated,PTH,ViaDrill
T2C0.500
; #@! TA.AperFunction,Plated,PTH,ComponentDrill
T3C1.000
; #@! TA.AperFunction,Plated,PTH,ComponentDrill
T4C1.190
; #@! TA.AperFunction,Plated,PTH,ComponentDrill
T5C2.500
; #@! TA.AperFunction,Plated,PTH,ComponentDrill
T6C3.200
%
G90
G05
T1
X390.23Y-112.04
T2
X28.296Y-150.774
X41.91Y-157.48
X44.704Y-154.94
X48.285Y-157.48
X50.8Y-104.14
X50.8Y-146.05
X73.66Y-152.07
X76.2Y-104.14
X76.2Y-147.32
X76.2Y-155.575
X101.6Y-104.14
X101.6Y-147.32
X101.6Y-156.21
X127.0Y-104.14
X127.0Y-147.32
X127.0Y-156.21
X132.131Y-153.264
X135.738Y-150.774
X135.89Y-152.044
X143.053Y-150.774
X145.415Y-156.21
X146.914Y-147.218
X150.114Y-147.066
X150.495Y-156.21
X152.4Y-104.14
X153.924Y-147.066
X155.448Y-147.066
X155.575Y-156.21
X160.096Y-150.774
X163.728Y-153.264
X164.964Y-152.053
X166.319Y-149.22
X177.165Y-144.145
X177.8Y-104.14
X178.714Y-150.774
X179.07Y-156.21
X182.016Y-145.72
X184.15Y-156.21
X185.141Y-145.694
X187.604Y-135.28
X189.23Y-147.574
X189.23Y-156.21
X193.777Y-150.774
X197.485Y-153.289
X197.51Y-149.163
X198.695Y-152.053
X200.05Y-149.631
X203.2Y-104.14
X210.185Y-144.145
X212.725Y-147.32
X222.25Y-156.21
X228.6Y-104.14
X228.6Y-146.05
X254.0Y-104.14
X254.0Y-146.05
X273.05Y-156.21
X279.4Y-104.14
X279.4Y-146.05
X298.45Y-156.21
X304.8Y-104.14
X304.8Y-146.05
X323.85Y-156.21
X330.2Y-104.14
X330.2Y-146.05
X349.25Y-156.21
X355.6Y-104.14
X355.6Y-146.05
X373.38Y-156.21
X381.0Y-146.05
X400.05Y-156.21
X402.59Y-146.05
T3
X52.07Y-157.48
X62.865Y-157.48
X73.66Y-157.48
T4
X17.78Y-146.05
X17.78Y-148.59
X17.78Y-151.13
X17.78Y-153.67
X17.78Y-156.21
X374.015Y-104.795
X376.555Y-104.795
X384.81Y-104.795
X387.35Y-104.795
X400.05Y-104.795
X402.59Y-104.795
X410.845Y-104.795
X413.385Y-104.795
X414.02Y-146.05
X414.02Y-148.59
X414.02Y-151.13
X414.02Y-153.67
X414.02Y-156.21
T6
X38.1Y-102.87
X38.1Y-160.02
X88.9Y-102.87
X139.7Y-102.87
X190.5Y-102.87
X241.3Y-102.87
X292.1Y-102.87
X342.9Y-102.87
X393.7Y-102.87
X393.7Y-160.02
T5
X17.526Y-124.0G85X17.526Y-130.0
G05
X22.631Y-114.29G85X16.993Y-116.342
G05
X16.993Y-137.658G85X22.631Y-139.71
G05
X28.169Y-114.29G85X33.807Y-116.342
G05
X33.807Y-137.658G85X28.169Y-139.71
G05
X33.274Y-124.0G85X33.274Y-130.0
G05
X42.926Y-124.0G85X42.926Y-130.0
G05
X48.031Y-114.29G85X42.393Y-116.342
G05
X42.393Y-137.658G85X48.031Y-139.71
G05
X53.569Y-114.29G85X59.207Y-116.342
G05
X59.207Y-137.658G85X53.569Y-139.71
G05
X58.674Y-124.0G85X58.674Y-130.0
G05
X68.326Y-124.0G85X68.326Y-130.0
G05
X73.431Y-114.29G85X67.793Y-116.342
G05
X67.793Y-137.658G85X73.431Y-139.71
G05
X78.969Y-114.29G85X84.607Y-116.342
G05
X84.607Y-137.658G85X78.969Y-139.71
G05
X84.074Y-124.0G85X84.074Y-130.0
G05
X93.726Y-124.0G85X93.726Y-130.0
G05
X98.831Y-114.29G85X93.193Y-116.342
G05
X93.193Y-137.658G85X98.831Y-139.71
G05
X104.369Y-114.29G85X110.007Y-116.342
G05
X110.007Y-137.658G85X104.369Y-139.71
G05
X109.474Y-124.0G85X109.474Y-130.0
G05
X119.126Y-124.0G85X119.126Y-130.0
G05
X124.231Y-114.29G85X118.593Y-116.342
G05
X118.593Y-137.658G85X124.231Y-139.71
G05
X129.769Y-114.29G85X135.407Y-116.342
G05
X135.407Y-137.658G85X129.769Y-139.71
G05
X134.874Y-124.0G85X134.874Y-130.0
G05
X144.526Y-124.0G85X144.526Y-130.0
G05
X149.631Y-114.29G85X143.993Y-116.342
G05
X143.993Y-137.658G85X149.631Y-139.71
G05
X155.169Y-114.29G85X160.807Y-116.342
G05
X160.807Y-137.658G85X155.169Y-139.71
G05
X160.274Y-124.0G85X160.274Y-130.0
G05
X169.926Y-124.0G85X169.926Y-130.0
G05
X175.031Y-114.29G85X169.393Y-116.342
G05
X169.393Y-137.658G85X175.031Y-139.71
G05
X180.569Y-114.29G85X186.207Y-116.342
G05
X186.207Y-137.658G85X180.569Y-139.71
G05
X185.674Y-124.0G85X185.674Y-130.0
G05
X195.326Y-124.0G85X195.326Y-130.0
G05
X200.431Y-114.29G85X194.793Y-116.342
G05
X194.793Y-137.658G85X200.431Y-139.71
G05
X205.969Y-114.29G85X211.607Y-116.342
G05
X211.607Y-137.658G85X205.969Y-139.71
G05
X211.074Y-124.0G85X211.074Y-130.0
G05
X220.726Y-124.0G85X220.726Y-130.0
G05
X225.831Y-114.29G85X220.193Y-116.342
G05
X220.193Y-137.658G85X225.831Y-139.71
G05
X231.369Y-114.29G85X237.007Y-116.342
G05
X237.007Y-137.658G85X231.369Y-139.71
G05
X236.474Y-124.0G85X236.474Y-130.0
G05
X246.126Y-124.0G85X246.126Y-130.0
G05
X251.231Y-114.29G85X245.593Y-116.342
G05
X245.593Y-137.658G85X251.231Y-139.71
G05
X256.769Y-114.29G85X262.407Y-116.342
G05
X262.407Y-137.658G85X256.769Y-139.71
G05
X261.874Y-124.0G85X261.874Y-130.0
G05
X271.526Y-124.0G85X271.526Y-130.0
G05
X276.631Y-114.29G85X270.993Y-116.342
G05
X270.993Y-137.658G85X276.631Y-139.71
G05
X282.169Y-114.29G85X287.807Y-116.342
G05
X287.807Y-137.658G85X282.169Y-139.71
G05
X287.274Y-124.0G85X287.274Y-130.0
G05
X296.926Y-124.0G85X296.926Y-130.0
G05
X302.031Y-114.29G85X296.393Y-116.342
G05
X296.393Y-137.658G85X302.031Y-139.71
G05
X307.569Y-114.29G85X313.207Y-116.342
G05
X313.207Y-137.658G85X307.569Y-139.71
G05
X312.674Y-124.0G85X312.674Y-130.0
G05
X322.326Y-124.0G85X322.326Y-130.0
G05
X327.431Y-114.29G85X321.793Y-116.342
G05
X321.793Y-137.658G85X327.431Y-139.71
G05
X332.969Y-114.29G85X338.607Y-116.342
G05
X338.607Y-137.658G85X332.969Y-139.71
G05
X338.074Y-124.0G85X338.074Y-130.0
G05
X347.726Y-124.0G85X347.726Y-130.0
G05
X352.831Y-114.29G85X347.193Y-116.342
G05
X347.193Y-137.658G85X352.831Y-139.71
G05
X358.369Y-114.29G85X364.007Y-116.342
G05
X364.007Y-137.658G85X358.369Y-139.71
G05
X363.474Y-124.0G85X363.474Y-130.0
G05
X373.126Y-124.0G85X373.126Y-130.0
G05
X378.231Y-114.29G85X372.593Y-116.342
G05
X372.593Y-137.658G85X378.231Y-139.71
G05
X383.769Y-114.29G85X389.407Y-116.342
G05
X389.407Y-137.658G85X383.769Y-139.71
G05
X388.874Y-124.0G85X388.874Y-130.0
G05
X398.526Y-124.0G85X398.526Y-130.0
G05
X403.631Y-114.29G85X397.993Y-116.342
G05
X397.993Y-137.658G85X403.631Y-139.71
G05
X409.169Y-114.29G85X414.807Y-116.342
G05
X414.807Y-137.658G85X409.169Y-139.71
G05
X414.274Y-124.0G85X414.274Y-130.0
G05
T0
M30
