%FSLAX45Y45*%
G04 Gerber Fmt 4.5, Leading zero omitted, Abs format (unit mm)*
G04 Created by KiCad (PCBNEW 6.0.5-2.fc36) date 2022-06-02 11:15:03*
%MOMM*%
%LPD*%
G01*
G04 APERTURE LIST*
%TA.AperFunction,Profile*%
%ADD10C,0.100000*%
%TD*%
%ADD11C,0.200000*%
%ADD12C,0.040000*%
%ADD13C,0.050000*%
%ADD14C,0.100000*%
%ADD15C,0.320000*%
G04 APERTURE END LIST*
D10*
X15748000Y-3048000D02*
G75*
G03*
X15367000Y-2667000I-381000J0D01*
G01*
X10922000Y-9144000D02*
X15367000Y-9144000D01*
X10922000Y-2667000D02*
X15367000Y-2667000D01*
X15367000Y-9144000D02*
G75*
G03*
X15748000Y-8763000I0J381000D01*
G01*
X15748000Y-8763000D02*
X15748000Y-3048000D01*
X10541000Y-8763000D02*
G75*
G03*
X10922000Y-9144000I381000J0D01*
G01*
X10541000Y-8763000D02*
X10541000Y-3048000D01*
X10922000Y-2667000D02*
G75*
G03*
X10541000Y-3048000I0J-381000D01*
G01*
D11*
D12*
X13086400Y-7930200D02*
X13126400Y-7970200D01*
X13126400Y-7930200D02*
X13086400Y-7970200D01*
X13086400Y-8057200D02*
X13126400Y-8097200D01*
X13126400Y-8057200D02*
X13086400Y-8097200D01*
X13086400Y-8184200D02*
X13126400Y-8224200D01*
X13126400Y-8184200D02*
X13086400Y-8224200D01*
X13086400Y-8491099D02*
X13126400Y-8531099D01*
X13126400Y-8491099D02*
X13086400Y-8531099D01*
X13089036Y-8391183D02*
X13129036Y-8431183D01*
X13129036Y-8391183D02*
X13089036Y-8431183D01*
X13091509Y-8287661D02*
X13131509Y-8327661D01*
X13131509Y-8287661D02*
X13091509Y-8327661D01*
D13*
X11759800Y-6629400D02*
G75*
G03*
X11759800Y-6629400I-25000J0D01*
G01*
X11785200Y-4191000D02*
G75*
G03*
X11785200Y-4191000I-25000J0D01*
G01*
X12013800Y-4182250D02*
G75*
G03*
X12013800Y-4182250I-25000J0D01*
G01*
X12092540Y-3647440D02*
G75*
G03*
X12092540Y-3647440I-25000J0D01*
G01*
X12140800Y-6070600D02*
G75*
G03*
X12140800Y-6070600I-25000J0D01*
G01*
X12191600Y-7175500D02*
G75*
G03*
X12191600Y-7175500I-25000J0D01*
G01*
X12191600Y-7302500D02*
G75*
G03*
X12191600Y-7302500I-25000J0D01*
G01*
X12191600Y-7429500D02*
G75*
G03*
X12191600Y-7429500I-25000J0D01*
G01*
X12191600Y-7556500D02*
G75*
G03*
X12191600Y-7556500I-25000J0D01*
G01*
X12191600Y-7683500D02*
G75*
G03*
X12191600Y-7683500I-25000J0D01*
G01*
X12191600Y-7810500D02*
G75*
G03*
X12191600Y-7810500I-25000J0D01*
G01*
X12191600Y-7937500D02*
G75*
G03*
X12191600Y-7937500I-25000J0D01*
G01*
X12191600Y-8064500D02*
G75*
G03*
X12191600Y-8064500I-25000J0D01*
G01*
X12204300Y-4864100D02*
G75*
G03*
X12204300Y-4864100I-25000J0D01*
G01*
X12204300Y-5003800D02*
G75*
G03*
X12204300Y-5003800I-25000J0D01*
G01*
X12204300Y-5143500D02*
G75*
G03*
X12204300Y-5143500I-25000J0D01*
G01*
X12204300Y-5270500D02*
G75*
G03*
X12204300Y-5270500I-25000J0D01*
G01*
X12204300Y-5397500D02*
G75*
G03*
X12204300Y-5397500I-25000J0D01*
G01*
X12204300Y-5524500D02*
G75*
G03*
X12204300Y-5524500I-25000J0D01*
G01*
X12204300Y-5651500D02*
G75*
G03*
X12204300Y-5651500I-25000J0D01*
G01*
X12204300Y-5778500D02*
G75*
G03*
X12204300Y-5778500I-25000J0D01*
G01*
X12241456Y-4233994D02*
G75*
G03*
X12241456Y-4233994I-25000J0D01*
G01*
X12318600Y-6477000D02*
G75*
G03*
X12318600Y-6477000I-25000J0D01*
G01*
X12496400Y-6070600D02*
G75*
G03*
X12496400Y-6070600I-25000J0D01*
G01*
X12725000Y-4495800D02*
G75*
G03*
X12725000Y-4495800I-25000J0D01*
G01*
X13233000Y-4673600D02*
G75*
G03*
X13233000Y-4673600I-25000J0D01*
G01*
X13233000Y-4826000D02*
G75*
G03*
X13233000Y-4826000I-25000J0D01*
G01*
X13233000Y-4978400D02*
G75*
G03*
X13233000Y-4978400I-25000J0D01*
G01*
X13233000Y-5130800D02*
G75*
G03*
X13233000Y-5130800I-25000J0D01*
G01*
X13233000Y-5283200D02*
G75*
G03*
X13233000Y-5283200I-25000J0D01*
G01*
X13233000Y-5435600D02*
G75*
G03*
X13233000Y-5435600I-25000J0D01*
G01*
X13233000Y-5588000D02*
G75*
G03*
X13233000Y-5588000I-25000J0D01*
G01*
X13233000Y-5740400D02*
G75*
G03*
X13233000Y-5740400I-25000J0D01*
G01*
X13283800Y-6489700D02*
G75*
G03*
X13283800Y-6489700I-25000J0D01*
G01*
X13400640Y-4010660D02*
G75*
G03*
X13400640Y-4010660I-25000J0D01*
G01*
D14*
X10922000Y-4014000D02*
X10922000Y-4114000D01*
X10872000Y-4064000D02*
X10972000Y-4064000D01*
X10922000Y-4268000D02*
X10922000Y-4368000D01*
X10872000Y-4318000D02*
X10972000Y-4318000D01*
X10922000Y-4522000D02*
X10922000Y-4622000D01*
X10872000Y-4572000D02*
X10972000Y-4572000D01*
X10922000Y-4776000D02*
X10922000Y-4876000D01*
X10872000Y-4826000D02*
X10972000Y-4826000D01*
X10922000Y-5030000D02*
X10922000Y-5130000D01*
X10872000Y-5080000D02*
X10972000Y-5080000D01*
X10922000Y-5284000D02*
X10922000Y-5384000D01*
X10872000Y-5334000D02*
X10972000Y-5334000D01*
X10922000Y-5538000D02*
X10922000Y-5638000D01*
X10872000Y-5588000D02*
X10972000Y-5588000D01*
X10922000Y-6300000D02*
X10922000Y-6400000D01*
X10872000Y-6350000D02*
X10972000Y-6350000D01*
X10922000Y-6554000D02*
X10922000Y-6654000D01*
X10872000Y-6604000D02*
X10972000Y-6604000D01*
X10922000Y-6808000D02*
X10922000Y-6908000D01*
X10872000Y-6858000D02*
X10972000Y-6858000D01*
X10922000Y-7316000D02*
X10922000Y-7416000D01*
X10872000Y-7366000D02*
X10972000Y-7366000D01*
X10922000Y-7570000D02*
X10922000Y-7670000D01*
X10872000Y-7620000D02*
X10972000Y-7620000D01*
X10922000Y-7824000D02*
X10922000Y-7924000D01*
X10872000Y-7874000D02*
X10972000Y-7874000D01*
X14224000Y-3506000D02*
X14224000Y-3606000D01*
X14174000Y-3556000D02*
X14274000Y-3556000D01*
X14224000Y-3760000D02*
X14224000Y-3860000D01*
X14174000Y-3810000D02*
X14274000Y-3810000D01*
X14224000Y-4014000D02*
X14224000Y-4114000D01*
X14174000Y-4064000D02*
X14274000Y-4064000D01*
X14224000Y-4268000D02*
X14224000Y-4368000D01*
X14174000Y-4318000D02*
X14274000Y-4318000D01*
X14224000Y-4522000D02*
X14224000Y-4622000D01*
X14174000Y-4572000D02*
X14274000Y-4572000D01*
X14224000Y-4776000D02*
X14224000Y-4876000D01*
X14174000Y-4826000D02*
X14274000Y-4826000D01*
X14224000Y-5030000D02*
X14224000Y-5130000D01*
X14174000Y-5080000D02*
X14274000Y-5080000D01*
X14224000Y-5284000D02*
X14224000Y-5384000D01*
X14174000Y-5334000D02*
X14274000Y-5334000D01*
X14224000Y-5538000D02*
X14224000Y-5638000D01*
X14174000Y-5588000D02*
X14274000Y-5588000D01*
X14224000Y-5792000D02*
X14224000Y-5892000D01*
X14174000Y-5842000D02*
X14274000Y-5842000D01*
X14224000Y-6046000D02*
X14224000Y-6146000D01*
X14174000Y-6096000D02*
X14274000Y-6096000D01*
X14224000Y-6300000D02*
X14224000Y-6400000D01*
X14174000Y-6350000D02*
X14274000Y-6350000D01*
X14224000Y-6554000D02*
X14224000Y-6654000D01*
X14174000Y-6604000D02*
X14274000Y-6604000D01*
X14224000Y-6808000D02*
X14224000Y-6908000D01*
X14174000Y-6858000D02*
X14274000Y-6858000D01*
X14224000Y-7062000D02*
X14224000Y-7162000D01*
X14174000Y-7112000D02*
X14274000Y-7112000D01*
X14224000Y-7316000D02*
X14224000Y-7416000D01*
X14174000Y-7366000D02*
X14274000Y-7366000D01*
X14224000Y-7570000D02*
X14224000Y-7670000D01*
X14174000Y-7620000D02*
X14274000Y-7620000D01*
X14224000Y-7824000D02*
X14224000Y-7924000D01*
X14174000Y-7874000D02*
X14274000Y-7874000D01*
X14224000Y-8078000D02*
X14224000Y-8178000D01*
X14174000Y-8128000D02*
X14274000Y-8128000D01*
X14224000Y-8332000D02*
X14224000Y-8432000D01*
X14174000Y-8382000D02*
X14274000Y-8382000D01*
X14478000Y-3506000D02*
X14478000Y-3606000D01*
X14428000Y-3556000D02*
X14528000Y-3556000D01*
X14478000Y-3760000D02*
X14478000Y-3860000D01*
X14428000Y-3810000D02*
X14528000Y-3810000D01*
X14478000Y-4014000D02*
X14478000Y-4114000D01*
X14428000Y-4064000D02*
X14528000Y-4064000D01*
X14478000Y-4268000D02*
X14478000Y-4368000D01*
X14428000Y-4318000D02*
X14528000Y-4318000D01*
X14478000Y-4522000D02*
X14478000Y-4622000D01*
X14428000Y-4572000D02*
X14528000Y-4572000D01*
X14478000Y-4776000D02*
X14478000Y-4876000D01*
X14428000Y-4826000D02*
X14528000Y-4826000D01*
X14478000Y-5030000D02*
X14478000Y-5130000D01*
X14428000Y-5080000D02*
X14528000Y-5080000D01*
X14478000Y-5284000D02*
X14478000Y-5384000D01*
X14428000Y-5334000D02*
X14528000Y-5334000D01*
X14478000Y-5538000D02*
X14478000Y-5638000D01*
X14428000Y-5588000D02*
X14528000Y-5588000D01*
X14478000Y-5792000D02*
X14478000Y-5892000D01*
X14428000Y-5842000D02*
X14528000Y-5842000D01*
X14478000Y-6046000D02*
X14478000Y-6146000D01*
X14428000Y-6096000D02*
X14528000Y-6096000D01*
X14478000Y-6300000D02*
X14478000Y-6400000D01*
X14428000Y-6350000D02*
X14528000Y-6350000D01*
X14478000Y-6554000D02*
X14478000Y-6654000D01*
X14428000Y-6604000D02*
X14528000Y-6604000D01*
X14478000Y-6808000D02*
X14478000Y-6908000D01*
X14428000Y-6858000D02*
X14528000Y-6858000D01*
X14478000Y-7062000D02*
X14478000Y-7162000D01*
X14428000Y-7112000D02*
X14528000Y-7112000D01*
X14478000Y-7316000D02*
X14478000Y-7416000D01*
X14428000Y-7366000D02*
X14528000Y-7366000D01*
X14478000Y-7570000D02*
X14478000Y-7670000D01*
X14428000Y-7620000D02*
X14528000Y-7620000D01*
X14478000Y-7824000D02*
X14478000Y-7924000D01*
X14428000Y-7874000D02*
X14528000Y-7874000D01*
X14478000Y-8078000D02*
X14478000Y-8178000D01*
X14428000Y-8128000D02*
X14528000Y-8128000D01*
X14478000Y-8332000D02*
X14478000Y-8432000D01*
X14428000Y-8382000D02*
X14528000Y-8382000D01*
D15*
X11035138Y-3161138D02*
X11035138Y-2934862D01*
X10808862Y-2934862D01*
X10808862Y-3161138D01*
X11035138Y-3161138D01*
X11035138Y-8876138D02*
X11035138Y-8649862D01*
X10808862Y-8649862D01*
X10808862Y-8876138D01*
X11035138Y-8876138D01*
X15480138Y-3161138D02*
X15480138Y-2934862D01*
X15253862Y-2934862D01*
X15253862Y-3161138D01*
X15480138Y-3161138D01*
X15480138Y-8876138D02*
X15480138Y-8649862D01*
X15253862Y-8649862D01*
X15253862Y-8876138D01*
X15480138Y-8876138D01*
D11*
X10793619Y-9459476D02*
X10793619Y-9259476D01*
X10841238Y-9259476D01*
X10869809Y-9269000D01*
X10888857Y-9288048D01*
X10898381Y-9307095D01*
X10907905Y-9345191D01*
X10907905Y-9373762D01*
X10898381Y-9411857D01*
X10888857Y-9430905D01*
X10869809Y-9449952D01*
X10841238Y-9459476D01*
X10793619Y-9459476D01*
X10993619Y-9459476D02*
X10993619Y-9326143D01*
X10993619Y-9364238D02*
X11003143Y-9345191D01*
X11012666Y-9335667D01*
X11031714Y-9326143D01*
X11050762Y-9326143D01*
X11117428Y-9459476D02*
X11117428Y-9326143D01*
X11117428Y-9259476D02*
X11107905Y-9269000D01*
X11117428Y-9278524D01*
X11126952Y-9269000D01*
X11117428Y-9259476D01*
X11117428Y-9278524D01*
X11241238Y-9459476D02*
X11222190Y-9449952D01*
X11212666Y-9430905D01*
X11212666Y-9259476D01*
X11346000Y-9459476D02*
X11326952Y-9449952D01*
X11317428Y-9430905D01*
X11317428Y-9259476D01*
X11574571Y-9459476D02*
X11574571Y-9259476D01*
X11641238Y-9402333D01*
X11707904Y-9259476D01*
X11707904Y-9459476D01*
X11888857Y-9459476D02*
X11888857Y-9354714D01*
X11879333Y-9335667D01*
X11860285Y-9326143D01*
X11822190Y-9326143D01*
X11803143Y-9335667D01*
X11888857Y-9449952D02*
X11869809Y-9459476D01*
X11822190Y-9459476D01*
X11803143Y-9449952D01*
X11793619Y-9430905D01*
X11793619Y-9411857D01*
X11803143Y-9392810D01*
X11822190Y-9383286D01*
X11869809Y-9383286D01*
X11888857Y-9373762D01*
X11984095Y-9326143D02*
X11984095Y-9526143D01*
X11984095Y-9335667D02*
X12003143Y-9326143D01*
X12041238Y-9326143D01*
X12060285Y-9335667D01*
X12069809Y-9345191D01*
X12079333Y-9364238D01*
X12079333Y-9421381D01*
X12069809Y-9440429D01*
X12060285Y-9449952D01*
X12041238Y-9459476D01*
X12003143Y-9459476D01*
X11984095Y-9449952D01*
X12165047Y-9440429D02*
X12174571Y-9449952D01*
X12165047Y-9459476D01*
X12155524Y-9449952D01*
X12165047Y-9440429D01*
X12165047Y-9459476D01*
X12165047Y-9335667D02*
X12174571Y-9345191D01*
X12165047Y-9354714D01*
X12155524Y-9345191D01*
X12165047Y-9335667D01*
X12165047Y-9354714D01*
D12*
X10496000Y-9769000D02*
X10536000Y-9809000D01*
X10536000Y-9769000D02*
X10496000Y-9809000D01*
D11*
X10831714Y-9679476D02*
X10850762Y-9679476D01*
X10869809Y-9689000D01*
X10879333Y-9698524D01*
X10888857Y-9717572D01*
X10898381Y-9755667D01*
X10898381Y-9803286D01*
X10888857Y-9841381D01*
X10879333Y-9860429D01*
X10869809Y-9869952D01*
X10850762Y-9879476D01*
X10831714Y-9879476D01*
X10812666Y-9869952D01*
X10803143Y-9860429D01*
X10793619Y-9841381D01*
X10784095Y-9803286D01*
X10784095Y-9755667D01*
X10793619Y-9717572D01*
X10803143Y-9698524D01*
X10812666Y-9689000D01*
X10831714Y-9679476D01*
X10984095Y-9860429D02*
X10993619Y-9869952D01*
X10984095Y-9879476D01*
X10974571Y-9869952D01*
X10984095Y-9860429D01*
X10984095Y-9879476D01*
X11165047Y-9746143D02*
X11165047Y-9879476D01*
X11117428Y-9669952D02*
X11069809Y-9812810D01*
X11193619Y-9812810D01*
X11307904Y-9679476D02*
X11326952Y-9679476D01*
X11346000Y-9689000D01*
X11355524Y-9698524D01*
X11365047Y-9717572D01*
X11374571Y-9755667D01*
X11374571Y-9803286D01*
X11365047Y-9841381D01*
X11355524Y-9860429D01*
X11346000Y-9869952D01*
X11326952Y-9879476D01*
X11307904Y-9879476D01*
X11288857Y-9869952D01*
X11279333Y-9860429D01*
X11269809Y-9841381D01*
X11260285Y-9803286D01*
X11260285Y-9755667D01*
X11269809Y-9717572D01*
X11279333Y-9698524D01*
X11288857Y-9689000D01*
X11307904Y-9679476D01*
X11498381Y-9679476D02*
X11517428Y-9679476D01*
X11536476Y-9689000D01*
X11546000Y-9698524D01*
X11555524Y-9717572D01*
X11565047Y-9755667D01*
X11565047Y-9803286D01*
X11555524Y-9841381D01*
X11546000Y-9860429D01*
X11536476Y-9869952D01*
X11517428Y-9879476D01*
X11498381Y-9879476D01*
X11479333Y-9869952D01*
X11469809Y-9860429D01*
X11460285Y-9841381D01*
X11450762Y-9803286D01*
X11450762Y-9755667D01*
X11460285Y-9717572D01*
X11469809Y-9698524D01*
X11479333Y-9689000D01*
X11498381Y-9679476D01*
X11650762Y-9879476D02*
X11650762Y-9746143D01*
X11650762Y-9765191D02*
X11660285Y-9755667D01*
X11679333Y-9746143D01*
X11707904Y-9746143D01*
X11726952Y-9755667D01*
X11736476Y-9774714D01*
X11736476Y-9879476D01*
X11736476Y-9774714D02*
X11746000Y-9755667D01*
X11765047Y-9746143D01*
X11793619Y-9746143D01*
X11812666Y-9755667D01*
X11822190Y-9774714D01*
X11822190Y-9879476D01*
X11917428Y-9879476D02*
X11917428Y-9746143D01*
X11917428Y-9765191D02*
X11926952Y-9755667D01*
X11946000Y-9746143D01*
X11974571Y-9746143D01*
X11993619Y-9755667D01*
X12003143Y-9774714D01*
X12003143Y-9879476D01*
X12003143Y-9774714D02*
X12012666Y-9755667D01*
X12031714Y-9746143D01*
X12060285Y-9746143D01*
X12079333Y-9755667D01*
X12088857Y-9774714D01*
X12088857Y-9879476D01*
X12479333Y-9669952D02*
X12307904Y-9927095D01*
X12736476Y-9679476D02*
X12755524Y-9679476D01*
X12774571Y-9689000D01*
X12784095Y-9698524D01*
X12793619Y-9717572D01*
X12803143Y-9755667D01*
X12803143Y-9803286D01*
X12793619Y-9841381D01*
X12784095Y-9860429D01*
X12774571Y-9869952D01*
X12755524Y-9879476D01*
X12736476Y-9879476D01*
X12717428Y-9869952D01*
X12707904Y-9860429D01*
X12698381Y-9841381D01*
X12688857Y-9803286D01*
X12688857Y-9755667D01*
X12698381Y-9717572D01*
X12707904Y-9698524D01*
X12717428Y-9689000D01*
X12736476Y-9679476D01*
X12888857Y-9860429D02*
X12898381Y-9869952D01*
X12888857Y-9879476D01*
X12879333Y-9869952D01*
X12888857Y-9860429D01*
X12888857Y-9879476D01*
X13022190Y-9679476D02*
X13041238Y-9679476D01*
X13060285Y-9689000D01*
X13069809Y-9698524D01*
X13079333Y-9717572D01*
X13088857Y-9755667D01*
X13088857Y-9803286D01*
X13079333Y-9841381D01*
X13069809Y-9860429D01*
X13060285Y-9869952D01*
X13041238Y-9879476D01*
X13022190Y-9879476D01*
X13003143Y-9869952D01*
X12993619Y-9860429D01*
X12984095Y-9841381D01*
X12974571Y-9803286D01*
X12974571Y-9755667D01*
X12984095Y-9717572D01*
X12993619Y-9698524D01*
X13003143Y-9689000D01*
X13022190Y-9679476D01*
X13279333Y-9879476D02*
X13165047Y-9879476D01*
X13222190Y-9879476D02*
X13222190Y-9679476D01*
X13203143Y-9708048D01*
X13184095Y-9727095D01*
X13165047Y-9736619D01*
X13460285Y-9679476D02*
X13365047Y-9679476D01*
X13355524Y-9774714D01*
X13365047Y-9765191D01*
X13384095Y-9755667D01*
X13431714Y-9755667D01*
X13450762Y-9765191D01*
X13460285Y-9774714D01*
X13469809Y-9793762D01*
X13469809Y-9841381D01*
X13460285Y-9860429D01*
X13450762Y-9869952D01*
X13431714Y-9879476D01*
X13384095Y-9879476D01*
X13365047Y-9869952D01*
X13355524Y-9860429D01*
X13536476Y-9679476D02*
X13669809Y-9679476D01*
X13584095Y-9879476D01*
X13736476Y-9679476D02*
X13736476Y-9717572D01*
X13812666Y-9679476D02*
X13812666Y-9717572D01*
X14107904Y-9955667D02*
X14098381Y-9946143D01*
X14079333Y-9917572D01*
X14069809Y-9898524D01*
X14060285Y-9869952D01*
X14050762Y-9822333D01*
X14050762Y-9784238D01*
X14060285Y-9736619D01*
X14069809Y-9708048D01*
X14079333Y-9689000D01*
X14098381Y-9660429D01*
X14107904Y-9650905D01*
X14269809Y-9679476D02*
X14231714Y-9679476D01*
X14212666Y-9689000D01*
X14203143Y-9698524D01*
X14184095Y-9727095D01*
X14174571Y-9765191D01*
X14174571Y-9841381D01*
X14184095Y-9860429D01*
X14193619Y-9869952D01*
X14212666Y-9879476D01*
X14250762Y-9879476D01*
X14269809Y-9869952D01*
X14279333Y-9860429D01*
X14288857Y-9841381D01*
X14288857Y-9793762D01*
X14279333Y-9774714D01*
X14269809Y-9765191D01*
X14250762Y-9755667D01*
X14212666Y-9755667D01*
X14193619Y-9765191D01*
X14184095Y-9774714D01*
X14174571Y-9793762D01*
X14526952Y-9879476D02*
X14526952Y-9679476D01*
X14612666Y-9879476D02*
X14612666Y-9774714D01*
X14603143Y-9755667D01*
X14584095Y-9746143D01*
X14555524Y-9746143D01*
X14536476Y-9755667D01*
X14526952Y-9765191D01*
X14736476Y-9879476D02*
X14717428Y-9869952D01*
X14707904Y-9860429D01*
X14698381Y-9841381D01*
X14698381Y-9784238D01*
X14707904Y-9765191D01*
X14717428Y-9755667D01*
X14736476Y-9746143D01*
X14765047Y-9746143D01*
X14784095Y-9755667D01*
X14793619Y-9765191D01*
X14803143Y-9784238D01*
X14803143Y-9841381D01*
X14793619Y-9860429D01*
X14784095Y-9869952D01*
X14765047Y-9879476D01*
X14736476Y-9879476D01*
X14917428Y-9879476D02*
X14898381Y-9869952D01*
X14888857Y-9850905D01*
X14888857Y-9679476D01*
X15069809Y-9869952D02*
X15050762Y-9879476D01*
X15012666Y-9879476D01*
X14993619Y-9869952D01*
X14984095Y-9850905D01*
X14984095Y-9774714D01*
X14993619Y-9755667D01*
X15012666Y-9746143D01*
X15050762Y-9746143D01*
X15069809Y-9755667D01*
X15079333Y-9774714D01*
X15079333Y-9793762D01*
X14984095Y-9812810D01*
X15155524Y-9869952D02*
X15174571Y-9879476D01*
X15212666Y-9879476D01*
X15231714Y-9869952D01*
X15241238Y-9850905D01*
X15241238Y-9841381D01*
X15231714Y-9822333D01*
X15212666Y-9812810D01*
X15184095Y-9812810D01*
X15165047Y-9803286D01*
X15155524Y-9784238D01*
X15155524Y-9774714D01*
X15165047Y-9755667D01*
X15184095Y-9746143D01*
X15212666Y-9746143D01*
X15231714Y-9755667D01*
X15307904Y-9955667D02*
X15317428Y-9946143D01*
X15336476Y-9917572D01*
X15346000Y-9898524D01*
X15355524Y-9869952D01*
X15365047Y-9822333D01*
X15365047Y-9784238D01*
X15355524Y-9736619D01*
X15346000Y-9708048D01*
X15336476Y-9689000D01*
X15317428Y-9660429D01*
X15307904Y-9650905D01*
D13*
X10536000Y-10053000D02*
G75*
G03*
X10536000Y-10053000I-25000J0D01*
G01*
D11*
X10831714Y-9943476D02*
X10850762Y-9943476D01*
X10869809Y-9953000D01*
X10879333Y-9962524D01*
X10888857Y-9981572D01*
X10898381Y-10019667D01*
X10898381Y-10067286D01*
X10888857Y-10105381D01*
X10879333Y-10124429D01*
X10869809Y-10133952D01*
X10850762Y-10143476D01*
X10831714Y-10143476D01*
X10812666Y-10133952D01*
X10803143Y-10124429D01*
X10793619Y-10105381D01*
X10784095Y-10067286D01*
X10784095Y-10019667D01*
X10793619Y-9981572D01*
X10803143Y-9962524D01*
X10812666Y-9953000D01*
X10831714Y-9943476D01*
X10984095Y-10124429D02*
X10993619Y-10133952D01*
X10984095Y-10143476D01*
X10974571Y-10133952D01*
X10984095Y-10124429D01*
X10984095Y-10143476D01*
X11174571Y-9943476D02*
X11079333Y-9943476D01*
X11069809Y-10038714D01*
X11079333Y-10029191D01*
X11098381Y-10019667D01*
X11146000Y-10019667D01*
X11165047Y-10029191D01*
X11174571Y-10038714D01*
X11184095Y-10057762D01*
X11184095Y-10105381D01*
X11174571Y-10124429D01*
X11165047Y-10133952D01*
X11146000Y-10143476D01*
X11098381Y-10143476D01*
X11079333Y-10133952D01*
X11069809Y-10124429D01*
X11307904Y-9943476D02*
X11326952Y-9943476D01*
X11346000Y-9953000D01*
X11355524Y-9962524D01*
X11365047Y-9981572D01*
X11374571Y-10019667D01*
X11374571Y-10067286D01*
X11365047Y-10105381D01*
X11355524Y-10124429D01*
X11346000Y-10133952D01*
X11326952Y-10143476D01*
X11307904Y-10143476D01*
X11288857Y-10133952D01*
X11279333Y-10124429D01*
X11269809Y-10105381D01*
X11260285Y-10067286D01*
X11260285Y-10019667D01*
X11269809Y-9981572D01*
X11279333Y-9962524D01*
X11288857Y-9953000D01*
X11307904Y-9943476D01*
X11498381Y-9943476D02*
X11517428Y-9943476D01*
X11536476Y-9953000D01*
X11546000Y-9962524D01*
X11555524Y-9981572D01*
X11565047Y-10019667D01*
X11565047Y-10067286D01*
X11555524Y-10105381D01*
X11546000Y-10124429D01*
X11536476Y-10133952D01*
X11517428Y-10143476D01*
X11498381Y-10143476D01*
X11479333Y-10133952D01*
X11469809Y-10124429D01*
X11460285Y-10105381D01*
X11450762Y-10067286D01*
X11450762Y-10019667D01*
X11460285Y-9981572D01*
X11469809Y-9962524D01*
X11479333Y-9953000D01*
X11498381Y-9943476D01*
X11650762Y-10143476D02*
X11650762Y-10010143D01*
X11650762Y-10029191D02*
X11660285Y-10019667D01*
X11679333Y-10010143D01*
X11707904Y-10010143D01*
X11726952Y-10019667D01*
X11736476Y-10038714D01*
X11736476Y-10143476D01*
X11736476Y-10038714D02*
X11746000Y-10019667D01*
X11765047Y-10010143D01*
X11793619Y-10010143D01*
X11812666Y-10019667D01*
X11822190Y-10038714D01*
X11822190Y-10143476D01*
X11917428Y-10143476D02*
X11917428Y-10010143D01*
X11917428Y-10029191D02*
X11926952Y-10019667D01*
X11946000Y-10010143D01*
X11974571Y-10010143D01*
X11993619Y-10019667D01*
X12003143Y-10038714D01*
X12003143Y-10143476D01*
X12003143Y-10038714D02*
X12012666Y-10019667D01*
X12031714Y-10010143D01*
X12060285Y-10010143D01*
X12079333Y-10019667D01*
X12088857Y-10038714D01*
X12088857Y-10143476D01*
X12479333Y-9933952D02*
X12307904Y-10191095D01*
X12736476Y-9943476D02*
X12755524Y-9943476D01*
X12774571Y-9953000D01*
X12784095Y-9962524D01*
X12793619Y-9981572D01*
X12803143Y-10019667D01*
X12803143Y-10067286D01*
X12793619Y-10105381D01*
X12784095Y-10124429D01*
X12774571Y-10133952D01*
X12755524Y-10143476D01*
X12736476Y-10143476D01*
X12717428Y-10133952D01*
X12707904Y-10124429D01*
X12698381Y-10105381D01*
X12688857Y-10067286D01*
X12688857Y-10019667D01*
X12698381Y-9981572D01*
X12707904Y-9962524D01*
X12717428Y-9953000D01*
X12736476Y-9943476D01*
X12888857Y-10124429D02*
X12898381Y-10133952D01*
X12888857Y-10143476D01*
X12879333Y-10133952D01*
X12888857Y-10124429D01*
X12888857Y-10143476D01*
X13022190Y-9943476D02*
X13041238Y-9943476D01*
X13060285Y-9953000D01*
X13069809Y-9962524D01*
X13079333Y-9981572D01*
X13088857Y-10019667D01*
X13088857Y-10067286D01*
X13079333Y-10105381D01*
X13069809Y-10124429D01*
X13060285Y-10133952D01*
X13041238Y-10143476D01*
X13022190Y-10143476D01*
X13003143Y-10133952D01*
X12993619Y-10124429D01*
X12984095Y-10105381D01*
X12974571Y-10067286D01*
X12974571Y-10019667D01*
X12984095Y-9981572D01*
X12993619Y-9962524D01*
X13003143Y-9953000D01*
X13022190Y-9943476D01*
X13279333Y-10143476D02*
X13165047Y-10143476D01*
X13222190Y-10143476D02*
X13222190Y-9943476D01*
X13203143Y-9972048D01*
X13184095Y-9991095D01*
X13165047Y-10000619D01*
X13374571Y-10143476D02*
X13412666Y-10143476D01*
X13431714Y-10133952D01*
X13441238Y-10124429D01*
X13460285Y-10095857D01*
X13469809Y-10057762D01*
X13469809Y-9981572D01*
X13460285Y-9962524D01*
X13450762Y-9953000D01*
X13431714Y-9943476D01*
X13393619Y-9943476D01*
X13374571Y-9953000D01*
X13365047Y-9962524D01*
X13355524Y-9981572D01*
X13355524Y-10029191D01*
X13365047Y-10048238D01*
X13374571Y-10057762D01*
X13393619Y-10067286D01*
X13431714Y-10067286D01*
X13450762Y-10057762D01*
X13460285Y-10048238D01*
X13469809Y-10029191D01*
X13536476Y-9943476D02*
X13669809Y-9943476D01*
X13584095Y-10143476D01*
X13736476Y-9943476D02*
X13736476Y-9981572D01*
X13812666Y-9943476D02*
X13812666Y-9981572D01*
X14107904Y-10219667D02*
X14098381Y-10210143D01*
X14079333Y-10181572D01*
X14069809Y-10162524D01*
X14060285Y-10133952D01*
X14050762Y-10086333D01*
X14050762Y-10048238D01*
X14060285Y-10000619D01*
X14069809Y-9972048D01*
X14079333Y-9953000D01*
X14098381Y-9924429D01*
X14107904Y-9914905D01*
X14165047Y-9943476D02*
X14288857Y-9943476D01*
X14222190Y-10019667D01*
X14250762Y-10019667D01*
X14269809Y-10029191D01*
X14279333Y-10038714D01*
X14288857Y-10057762D01*
X14288857Y-10105381D01*
X14279333Y-10124429D01*
X14269809Y-10133952D01*
X14250762Y-10143476D01*
X14193619Y-10143476D01*
X14174571Y-10133952D01*
X14165047Y-10124429D01*
X14469809Y-9943476D02*
X14374571Y-9943476D01*
X14365047Y-10038714D01*
X14374571Y-10029191D01*
X14393619Y-10019667D01*
X14441238Y-10019667D01*
X14460285Y-10029191D01*
X14469809Y-10038714D01*
X14479333Y-10057762D01*
X14479333Y-10105381D01*
X14469809Y-10124429D01*
X14460285Y-10133952D01*
X14441238Y-10143476D01*
X14393619Y-10143476D01*
X14374571Y-10133952D01*
X14365047Y-10124429D01*
X14717428Y-10143476D02*
X14717428Y-9943476D01*
X14803143Y-10143476D02*
X14803143Y-10038714D01*
X14793619Y-10019667D01*
X14774571Y-10010143D01*
X14746000Y-10010143D01*
X14726952Y-10019667D01*
X14717428Y-10029191D01*
X14926952Y-10143476D02*
X14907904Y-10133952D01*
X14898381Y-10124429D01*
X14888857Y-10105381D01*
X14888857Y-10048238D01*
X14898381Y-10029191D01*
X14907904Y-10019667D01*
X14926952Y-10010143D01*
X14955524Y-10010143D01*
X14974571Y-10019667D01*
X14984095Y-10029191D01*
X14993619Y-10048238D01*
X14993619Y-10105381D01*
X14984095Y-10124429D01*
X14974571Y-10133952D01*
X14955524Y-10143476D01*
X14926952Y-10143476D01*
X15107904Y-10143476D02*
X15088857Y-10133952D01*
X15079333Y-10114905D01*
X15079333Y-9943476D01*
X15260285Y-10133952D02*
X15241238Y-10143476D01*
X15203143Y-10143476D01*
X15184095Y-10133952D01*
X15174571Y-10114905D01*
X15174571Y-10038714D01*
X15184095Y-10019667D01*
X15203143Y-10010143D01*
X15241238Y-10010143D01*
X15260285Y-10019667D01*
X15269809Y-10038714D01*
X15269809Y-10057762D01*
X15174571Y-10076810D01*
X15346000Y-10133952D02*
X15365047Y-10143476D01*
X15403143Y-10143476D01*
X15422190Y-10133952D01*
X15431714Y-10114905D01*
X15431714Y-10105381D01*
X15422190Y-10086333D01*
X15403143Y-10076810D01*
X15374571Y-10076810D01*
X15355524Y-10067286D01*
X15346000Y-10048238D01*
X15346000Y-10038714D01*
X15355524Y-10019667D01*
X15374571Y-10010143D01*
X15403143Y-10010143D01*
X15422190Y-10019667D01*
X15498381Y-10219667D02*
X15507904Y-10210143D01*
X15526952Y-10181572D01*
X15536476Y-10162524D01*
X15546000Y-10133952D01*
X15555524Y-10086333D01*
X15555524Y-10048238D01*
X15546000Y-10000619D01*
X15536476Y-9972048D01*
X15526952Y-9953000D01*
X15507904Y-9924429D01*
X15498381Y-9914905D01*
D14*
X10486000Y-10267000D02*
X10486000Y-10367000D01*
X10436000Y-10317000D02*
X10536000Y-10317000D01*
D11*
X10898381Y-10407476D02*
X10784095Y-10407476D01*
X10841238Y-10407476D02*
X10841238Y-10207476D01*
X10822190Y-10236048D01*
X10803143Y-10255095D01*
X10784095Y-10264619D01*
X10984095Y-10388429D02*
X10993619Y-10397952D01*
X10984095Y-10407476D01*
X10974571Y-10397952D01*
X10984095Y-10388429D01*
X10984095Y-10407476D01*
X11117428Y-10207476D02*
X11136476Y-10207476D01*
X11155524Y-10217000D01*
X11165047Y-10226524D01*
X11174571Y-10245572D01*
X11184095Y-10283667D01*
X11184095Y-10331286D01*
X11174571Y-10369381D01*
X11165047Y-10388429D01*
X11155524Y-10397952D01*
X11136476Y-10407476D01*
X11117428Y-10407476D01*
X11098381Y-10397952D01*
X11088857Y-10388429D01*
X11079333Y-10369381D01*
X11069809Y-10331286D01*
X11069809Y-10283667D01*
X11079333Y-10245572D01*
X11088857Y-10226524D01*
X11098381Y-10217000D01*
X11117428Y-10207476D01*
X11307904Y-10207476D02*
X11326952Y-10207476D01*
X11346000Y-10217000D01*
X11355524Y-10226524D01*
X11365047Y-10245572D01*
X11374571Y-10283667D01*
X11374571Y-10331286D01*
X11365047Y-10369381D01*
X11355524Y-10388429D01*
X11346000Y-10397952D01*
X11326952Y-10407476D01*
X11307904Y-10407476D01*
X11288857Y-10397952D01*
X11279333Y-10388429D01*
X11269809Y-10369381D01*
X11260285Y-10331286D01*
X11260285Y-10283667D01*
X11269809Y-10245572D01*
X11279333Y-10226524D01*
X11288857Y-10217000D01*
X11307904Y-10207476D01*
X11498381Y-10207476D02*
X11517428Y-10207476D01*
X11536476Y-10217000D01*
X11546000Y-10226524D01*
X11555524Y-10245572D01*
X11565047Y-10283667D01*
X11565047Y-10331286D01*
X11555524Y-10369381D01*
X11546000Y-10388429D01*
X11536476Y-10397952D01*
X11517428Y-10407476D01*
X11498381Y-10407476D01*
X11479333Y-10397952D01*
X11469809Y-10388429D01*
X11460285Y-10369381D01*
X11450762Y-10331286D01*
X11450762Y-10283667D01*
X11460285Y-10245572D01*
X11469809Y-10226524D01*
X11479333Y-10217000D01*
X11498381Y-10207476D01*
X11650762Y-10407476D02*
X11650762Y-10274143D01*
X11650762Y-10293191D02*
X11660285Y-10283667D01*
X11679333Y-10274143D01*
X11707904Y-10274143D01*
X11726952Y-10283667D01*
X11736476Y-10302714D01*
X11736476Y-10407476D01*
X11736476Y-10302714D02*
X11746000Y-10283667D01*
X11765047Y-10274143D01*
X11793619Y-10274143D01*
X11812666Y-10283667D01*
X11822190Y-10302714D01*
X11822190Y-10407476D01*
X11917428Y-10407476D02*
X11917428Y-10274143D01*
X11917428Y-10293191D02*
X11926952Y-10283667D01*
X11946000Y-10274143D01*
X11974571Y-10274143D01*
X11993619Y-10283667D01*
X12003143Y-10302714D01*
X12003143Y-10407476D01*
X12003143Y-10302714D02*
X12012666Y-10283667D01*
X12031714Y-10274143D01*
X12060285Y-10274143D01*
X12079333Y-10283667D01*
X12088857Y-10302714D01*
X12088857Y-10407476D01*
X12479333Y-10197952D02*
X12307904Y-10455095D01*
X12736476Y-10207476D02*
X12755524Y-10207476D01*
X12774571Y-10217000D01*
X12784095Y-10226524D01*
X12793619Y-10245572D01*
X12803143Y-10283667D01*
X12803143Y-10331286D01*
X12793619Y-10369381D01*
X12784095Y-10388429D01*
X12774571Y-10397952D01*
X12755524Y-10407476D01*
X12736476Y-10407476D01*
X12717428Y-10397952D01*
X12707904Y-10388429D01*
X12698381Y-10369381D01*
X12688857Y-10331286D01*
X12688857Y-10283667D01*
X12698381Y-10245572D01*
X12707904Y-10226524D01*
X12717428Y-10217000D01*
X12736476Y-10207476D01*
X12888857Y-10388429D02*
X12898381Y-10397952D01*
X12888857Y-10407476D01*
X12879333Y-10397952D01*
X12888857Y-10388429D01*
X12888857Y-10407476D01*
X13022190Y-10207476D02*
X13041238Y-10207476D01*
X13060285Y-10217000D01*
X13069809Y-10226524D01*
X13079333Y-10245572D01*
X13088857Y-10283667D01*
X13088857Y-10331286D01*
X13079333Y-10369381D01*
X13069809Y-10388429D01*
X13060285Y-10397952D01*
X13041238Y-10407476D01*
X13022190Y-10407476D01*
X13003143Y-10397952D01*
X12993619Y-10388429D01*
X12984095Y-10369381D01*
X12974571Y-10331286D01*
X12974571Y-10283667D01*
X12984095Y-10245572D01*
X12993619Y-10226524D01*
X13003143Y-10217000D01*
X13022190Y-10207476D01*
X13155524Y-10207476D02*
X13279333Y-10207476D01*
X13212666Y-10283667D01*
X13241238Y-10283667D01*
X13260285Y-10293191D01*
X13269809Y-10302714D01*
X13279333Y-10321762D01*
X13279333Y-10369381D01*
X13269809Y-10388429D01*
X13260285Y-10397952D01*
X13241238Y-10407476D01*
X13184095Y-10407476D01*
X13165047Y-10397952D01*
X13155524Y-10388429D01*
X13374571Y-10407476D02*
X13412666Y-10407476D01*
X13431714Y-10397952D01*
X13441238Y-10388429D01*
X13460285Y-10359857D01*
X13469809Y-10321762D01*
X13469809Y-10245572D01*
X13460285Y-10226524D01*
X13450762Y-10217000D01*
X13431714Y-10207476D01*
X13393619Y-10207476D01*
X13374571Y-10217000D01*
X13365047Y-10226524D01*
X13355524Y-10245572D01*
X13355524Y-10293191D01*
X13365047Y-10312238D01*
X13374571Y-10321762D01*
X13393619Y-10331286D01*
X13431714Y-10331286D01*
X13450762Y-10321762D01*
X13460285Y-10312238D01*
X13469809Y-10293191D01*
X13641238Y-10274143D02*
X13641238Y-10407476D01*
X13593619Y-10197952D02*
X13546000Y-10340810D01*
X13669809Y-10340810D01*
X13736476Y-10207476D02*
X13736476Y-10245572D01*
X13812666Y-10207476D02*
X13812666Y-10245572D01*
X14107904Y-10483667D02*
X14098381Y-10474143D01*
X14079333Y-10445572D01*
X14069809Y-10426524D01*
X14060285Y-10397952D01*
X14050762Y-10350333D01*
X14050762Y-10312238D01*
X14060285Y-10264619D01*
X14069809Y-10236048D01*
X14079333Y-10217000D01*
X14098381Y-10188429D01*
X14107904Y-10178905D01*
X14279333Y-10207476D02*
X14184095Y-10207476D01*
X14174571Y-10302714D01*
X14184095Y-10293191D01*
X14203143Y-10283667D01*
X14250762Y-10283667D01*
X14269809Y-10293191D01*
X14279333Y-10302714D01*
X14288857Y-10321762D01*
X14288857Y-10369381D01*
X14279333Y-10388429D01*
X14269809Y-10397952D01*
X14250762Y-10407476D01*
X14203143Y-10407476D01*
X14184095Y-10397952D01*
X14174571Y-10388429D01*
X14355524Y-10207476D02*
X14479333Y-10207476D01*
X14412666Y-10283667D01*
X14441238Y-10283667D01*
X14460285Y-10293191D01*
X14469809Y-10302714D01*
X14479333Y-10321762D01*
X14479333Y-10369381D01*
X14469809Y-10388429D01*
X14460285Y-10397952D01*
X14441238Y-10407476D01*
X14384095Y-10407476D01*
X14365047Y-10397952D01*
X14355524Y-10388429D01*
X14717428Y-10407476D02*
X14717428Y-10207476D01*
X14803143Y-10407476D02*
X14803143Y-10302714D01*
X14793619Y-10283667D01*
X14774571Y-10274143D01*
X14746000Y-10274143D01*
X14726952Y-10283667D01*
X14717428Y-10293191D01*
X14926952Y-10407476D02*
X14907904Y-10397952D01*
X14898381Y-10388429D01*
X14888857Y-10369381D01*
X14888857Y-10312238D01*
X14898381Y-10293191D01*
X14907904Y-10283667D01*
X14926952Y-10274143D01*
X14955524Y-10274143D01*
X14974571Y-10283667D01*
X14984095Y-10293191D01*
X14993619Y-10312238D01*
X14993619Y-10369381D01*
X14984095Y-10388429D01*
X14974571Y-10397952D01*
X14955524Y-10407476D01*
X14926952Y-10407476D01*
X15107904Y-10407476D02*
X15088857Y-10397952D01*
X15079333Y-10378905D01*
X15079333Y-10207476D01*
X15260285Y-10397952D02*
X15241238Y-10407476D01*
X15203143Y-10407476D01*
X15184095Y-10397952D01*
X15174571Y-10378905D01*
X15174571Y-10302714D01*
X15184095Y-10283667D01*
X15203143Y-10274143D01*
X15241238Y-10274143D01*
X15260285Y-10283667D01*
X15269809Y-10302714D01*
X15269809Y-10321762D01*
X15174571Y-10340810D01*
X15346000Y-10397952D02*
X15365047Y-10407476D01*
X15403143Y-10407476D01*
X15422190Y-10397952D01*
X15431714Y-10378905D01*
X15431714Y-10369381D01*
X15422190Y-10350333D01*
X15403143Y-10340810D01*
X15374571Y-10340810D01*
X15355524Y-10331286D01*
X15346000Y-10312238D01*
X15346000Y-10302714D01*
X15355524Y-10283667D01*
X15374571Y-10274143D01*
X15403143Y-10274143D01*
X15422190Y-10283667D01*
X15498381Y-10483667D02*
X15507904Y-10474143D01*
X15526952Y-10445572D01*
X15536476Y-10426524D01*
X15546000Y-10397952D01*
X15555524Y-10350333D01*
X15555524Y-10312238D01*
X15546000Y-10264619D01*
X15536476Y-10236048D01*
X15526952Y-10217000D01*
X15507904Y-10188429D01*
X15498381Y-10178905D01*
X10506711Y-10651712D02*
X10506711Y-10510289D01*
X10365288Y-10510289D01*
X10365288Y-10651712D01*
X10506711Y-10651712D01*
X10774571Y-10471476D02*
X10898381Y-10471476D01*
X10831714Y-10547667D01*
X10860286Y-10547667D01*
X10879333Y-10557191D01*
X10888857Y-10566714D01*
X10898381Y-10585762D01*
X10898381Y-10633381D01*
X10888857Y-10652429D01*
X10879333Y-10661952D01*
X10860286Y-10671476D01*
X10803143Y-10671476D01*
X10784095Y-10661952D01*
X10774571Y-10652429D01*
X10984095Y-10652429D02*
X10993619Y-10661952D01*
X10984095Y-10671476D01*
X10974571Y-10661952D01*
X10984095Y-10652429D01*
X10984095Y-10671476D01*
X11069809Y-10490524D02*
X11079333Y-10481000D01*
X11098381Y-10471476D01*
X11146000Y-10471476D01*
X11165047Y-10481000D01*
X11174571Y-10490524D01*
X11184095Y-10509572D01*
X11184095Y-10528619D01*
X11174571Y-10557191D01*
X11060286Y-10671476D01*
X11184095Y-10671476D01*
X11307904Y-10471476D02*
X11326952Y-10471476D01*
X11346000Y-10481000D01*
X11355524Y-10490524D01*
X11365047Y-10509572D01*
X11374571Y-10547667D01*
X11374571Y-10595286D01*
X11365047Y-10633381D01*
X11355524Y-10652429D01*
X11346000Y-10661952D01*
X11326952Y-10671476D01*
X11307904Y-10671476D01*
X11288857Y-10661952D01*
X11279333Y-10652429D01*
X11269809Y-10633381D01*
X11260285Y-10595286D01*
X11260285Y-10547667D01*
X11269809Y-10509572D01*
X11279333Y-10490524D01*
X11288857Y-10481000D01*
X11307904Y-10471476D01*
X11498381Y-10471476D02*
X11517428Y-10471476D01*
X11536476Y-10481000D01*
X11546000Y-10490524D01*
X11555524Y-10509572D01*
X11565047Y-10547667D01*
X11565047Y-10595286D01*
X11555524Y-10633381D01*
X11546000Y-10652429D01*
X11536476Y-10661952D01*
X11517428Y-10671476D01*
X11498381Y-10671476D01*
X11479333Y-10661952D01*
X11469809Y-10652429D01*
X11460285Y-10633381D01*
X11450762Y-10595286D01*
X11450762Y-10547667D01*
X11460285Y-10509572D01*
X11469809Y-10490524D01*
X11479333Y-10481000D01*
X11498381Y-10471476D01*
X11650762Y-10671476D02*
X11650762Y-10538143D01*
X11650762Y-10557191D02*
X11660285Y-10547667D01*
X11679333Y-10538143D01*
X11707904Y-10538143D01*
X11726952Y-10547667D01*
X11736476Y-10566714D01*
X11736476Y-10671476D01*
X11736476Y-10566714D02*
X11746000Y-10547667D01*
X11765047Y-10538143D01*
X11793619Y-10538143D01*
X11812666Y-10547667D01*
X11822190Y-10566714D01*
X11822190Y-10671476D01*
X11917428Y-10671476D02*
X11917428Y-10538143D01*
X11917428Y-10557191D02*
X11926952Y-10547667D01*
X11946000Y-10538143D01*
X11974571Y-10538143D01*
X11993619Y-10547667D01*
X12003143Y-10566714D01*
X12003143Y-10671476D01*
X12003143Y-10566714D02*
X12012666Y-10547667D01*
X12031714Y-10538143D01*
X12060285Y-10538143D01*
X12079333Y-10547667D01*
X12088857Y-10566714D01*
X12088857Y-10671476D01*
X12479333Y-10461952D02*
X12307904Y-10719095D01*
X12736476Y-10471476D02*
X12755524Y-10471476D01*
X12774571Y-10481000D01*
X12784095Y-10490524D01*
X12793619Y-10509572D01*
X12803143Y-10547667D01*
X12803143Y-10595286D01*
X12793619Y-10633381D01*
X12784095Y-10652429D01*
X12774571Y-10661952D01*
X12755524Y-10671476D01*
X12736476Y-10671476D01*
X12717428Y-10661952D01*
X12707904Y-10652429D01*
X12698381Y-10633381D01*
X12688857Y-10595286D01*
X12688857Y-10547667D01*
X12698381Y-10509572D01*
X12707904Y-10490524D01*
X12717428Y-10481000D01*
X12736476Y-10471476D01*
X12888857Y-10652429D02*
X12898381Y-10661952D01*
X12888857Y-10671476D01*
X12879333Y-10661952D01*
X12888857Y-10652429D01*
X12888857Y-10671476D01*
X13088857Y-10671476D02*
X12974571Y-10671476D01*
X13031714Y-10671476D02*
X13031714Y-10471476D01*
X13012666Y-10500048D01*
X12993619Y-10519095D01*
X12974571Y-10528619D01*
X13165047Y-10490524D02*
X13174571Y-10481000D01*
X13193619Y-10471476D01*
X13241238Y-10471476D01*
X13260285Y-10481000D01*
X13269809Y-10490524D01*
X13279333Y-10509572D01*
X13279333Y-10528619D01*
X13269809Y-10557191D01*
X13155524Y-10671476D01*
X13279333Y-10671476D01*
X13450762Y-10471476D02*
X13412666Y-10471476D01*
X13393619Y-10481000D01*
X13384095Y-10490524D01*
X13365047Y-10519095D01*
X13355524Y-10557191D01*
X13355524Y-10633381D01*
X13365047Y-10652429D01*
X13374571Y-10661952D01*
X13393619Y-10671476D01*
X13431714Y-10671476D01*
X13450762Y-10661952D01*
X13460285Y-10652429D01*
X13469809Y-10633381D01*
X13469809Y-10585762D01*
X13460285Y-10566714D01*
X13450762Y-10557191D01*
X13431714Y-10547667D01*
X13393619Y-10547667D01*
X13374571Y-10557191D01*
X13365047Y-10566714D01*
X13355524Y-10585762D01*
X13593619Y-10471476D02*
X13612666Y-10471476D01*
X13631714Y-10481000D01*
X13641238Y-10490524D01*
X13650762Y-10509572D01*
X13660285Y-10547667D01*
X13660285Y-10595286D01*
X13650762Y-10633381D01*
X13641238Y-10652429D01*
X13631714Y-10661952D01*
X13612666Y-10671476D01*
X13593619Y-10671476D01*
X13574571Y-10661952D01*
X13565047Y-10652429D01*
X13555524Y-10633381D01*
X13546000Y-10595286D01*
X13546000Y-10547667D01*
X13555524Y-10509572D01*
X13565047Y-10490524D01*
X13574571Y-10481000D01*
X13593619Y-10471476D01*
X13736476Y-10471476D02*
X13736476Y-10509572D01*
X13812666Y-10471476D02*
X13812666Y-10509572D01*
X14107904Y-10747667D02*
X14098381Y-10738143D01*
X14079333Y-10709572D01*
X14069809Y-10690524D01*
X14060285Y-10661952D01*
X14050762Y-10614333D01*
X14050762Y-10576238D01*
X14060285Y-10528619D01*
X14069809Y-10500048D01*
X14079333Y-10481000D01*
X14098381Y-10452429D01*
X14107904Y-10442905D01*
X14269809Y-10538143D02*
X14269809Y-10671476D01*
X14222190Y-10461952D02*
X14174571Y-10604810D01*
X14298381Y-10604810D01*
X14526952Y-10671476D02*
X14526952Y-10471476D01*
X14612666Y-10671476D02*
X14612666Y-10566714D01*
X14603143Y-10547667D01*
X14584095Y-10538143D01*
X14555524Y-10538143D01*
X14536476Y-10547667D01*
X14526952Y-10557191D01*
X14736476Y-10671476D02*
X14717428Y-10661952D01*
X14707904Y-10652429D01*
X14698381Y-10633381D01*
X14698381Y-10576238D01*
X14707904Y-10557191D01*
X14717428Y-10547667D01*
X14736476Y-10538143D01*
X14765047Y-10538143D01*
X14784095Y-10547667D01*
X14793619Y-10557191D01*
X14803143Y-10576238D01*
X14803143Y-10633381D01*
X14793619Y-10652429D01*
X14784095Y-10661952D01*
X14765047Y-10671476D01*
X14736476Y-10671476D01*
X14917428Y-10671476D02*
X14898381Y-10661952D01*
X14888857Y-10642905D01*
X14888857Y-10471476D01*
X15069809Y-10661952D02*
X15050762Y-10671476D01*
X15012666Y-10671476D01*
X14993619Y-10661952D01*
X14984095Y-10642905D01*
X14984095Y-10566714D01*
X14993619Y-10547667D01*
X15012666Y-10538143D01*
X15050762Y-10538143D01*
X15069809Y-10547667D01*
X15079333Y-10566714D01*
X15079333Y-10585762D01*
X14984095Y-10604810D01*
X15155524Y-10661952D02*
X15174571Y-10671476D01*
X15212666Y-10671476D01*
X15231714Y-10661952D01*
X15241238Y-10642905D01*
X15241238Y-10633381D01*
X15231714Y-10614333D01*
X15212666Y-10604810D01*
X15184095Y-10604810D01*
X15165047Y-10595286D01*
X15155524Y-10576238D01*
X15155524Y-10566714D01*
X15165047Y-10547667D01*
X15184095Y-10538143D01*
X15212666Y-10538143D01*
X15231714Y-10547667D01*
X15307904Y-10747667D02*
X15317428Y-10738143D01*
X15336476Y-10709572D01*
X15346000Y-10690524D01*
X15355524Y-10661952D01*
X15365047Y-10614333D01*
X15365047Y-10576238D01*
X15355524Y-10528619D01*
X15346000Y-10500048D01*
X15336476Y-10481000D01*
X15317428Y-10452429D01*
X15307904Y-10442905D01*
M02*
