G04 #@! TF.GenerationSoftware,KiCad,Pcbnew,6.0.1-79c1e3a40b~116~ubuntu20.04.1*
G04 #@! TF.CreationDate,2022-01-21T15:32:23-05:00*
G04 #@! TF.ProjectId,led_breakout,6c65645f-6272-4656-916b-6f75742e6b69,0*
G04 #@! TF.SameCoordinates,Original*
G04 #@! TF.FileFunction,Copper,L1,Top*
G04 #@! TF.FilePolarity,Positive*
%FSLAX46Y46*%
G04 Gerber Fmt 4.6, Leading zero omitted, Abs format (unit mm)*
G04 Created by KiCad (PCBNEW 6.0.1-79c1e3a40b~116~ubuntu20.04.1) date 2022-01-21 15:32:23*
%MOMM*%
%LPD*%
G01*
G04 APERTURE LIST*
G04 Aperture macros list*
%AMRoundRect*
0 Rectangle with rounded corners*
0 $1 Rounding radius*
0 $2 $3 $4 $5 $6 $7 $8 $9 X,Y pos of 4 corners*
0 Add a 4 corners polygon primitive as box body*
4,1,4,$2,$3,$4,$5,$6,$7,$8,$9,$2,$3,0*
0 Add four circle primitives for the rounded corners*
1,1,$1+$1,$2,$3*
1,1,$1+$1,$4,$5*
1,1,$1+$1,$6,$7*
1,1,$1+$1,$8,$9*
0 Add four rect primitives between the rounded corners*
20,1,$1+$1,$2,$3,$4,$5,0*
20,1,$1+$1,$4,$5,$6,$7,0*
20,1,$1+$1,$6,$7,$8,$9,0*
20,1,$1+$1,$8,$9,$2,$3,0*%
G04 Aperture macros list end*
G04 #@! TA.AperFunction,SMDPad,CuDef*
%ADD10RoundRect,0.250000X0.250000X0.475000X-0.250000X0.475000X-0.250000X-0.475000X0.250000X-0.475000X0*%
G04 #@! TD*
G04 #@! TA.AperFunction,SMDPad,CuDef*
%ADD11RoundRect,0.243750X-0.243750X-0.456250X0.243750X-0.456250X0.243750X0.456250X-0.243750X0.456250X0*%
G04 #@! TD*
G04 #@! TA.AperFunction,SMDPad,CuDef*
%ADD12RoundRect,0.250000X-0.262500X-0.450000X0.262500X-0.450000X0.262500X0.450000X-0.262500X0.450000X0*%
G04 #@! TD*
G04 #@! TA.AperFunction,ComponentPad*
%ADD13C,5.600000*%
G04 #@! TD*
G04 #@! TA.AperFunction,ComponentPad*
%ADD14R,1.700000X1.700000*%
G04 #@! TD*
G04 #@! TA.AperFunction,ComponentPad*
%ADD15O,1.700000X1.700000*%
G04 #@! TD*
G04 #@! TA.AperFunction,SMDPad,CuDef*
%ADD16RoundRect,0.250000X-0.250000X-0.475000X0.250000X-0.475000X0.250000X0.475000X-0.250000X0.475000X0*%
G04 #@! TD*
G04 #@! TA.AperFunction,SMDPad,CuDef*
%ADD17RoundRect,0.150000X-0.875000X-0.150000X0.875000X-0.150000X0.875000X0.150000X-0.875000X0.150000X0*%
G04 #@! TD*
G04 #@! TA.AperFunction,SMDPad,CuDef*
%ADD18RoundRect,0.250000X-0.450000X0.262500X-0.450000X-0.262500X0.450000X-0.262500X0.450000X0.262500X0*%
G04 #@! TD*
G04 #@! TA.AperFunction,SMDPad,CuDef*
%ADD19RoundRect,0.243750X-0.456250X0.243750X-0.456250X-0.243750X0.456250X-0.243750X0.456250X0.243750X0*%
G04 #@! TD*
G04 #@! TA.AperFunction,ViaPad*
%ADD20C,1.000000*%
G04 #@! TD*
G04 #@! TA.AperFunction,Conductor*
%ADD21C,0.300000*%
G04 #@! TD*
G04 #@! TA.AperFunction,Conductor*
%ADD22C,0.600000*%
G04 #@! TD*
G04 #@! TA.AperFunction,Conductor*
%ADD23C,0.500000*%
G04 #@! TD*
G04 #@! TA.AperFunction,Conductor*
%ADD24C,0.250000*%
G04 #@! TD*
G04 APERTURE END LIST*
D10*
X128204000Y-40386000D03*
X126304000Y-40386000D03*
D11*
X138762500Y-55880000D03*
X140637500Y-55880000D03*
X138762500Y-45720000D03*
X140637500Y-45720000D03*
X138762500Y-63500000D03*
X140637500Y-63500000D03*
X146382500Y-68580000D03*
X148257500Y-68580000D03*
X146382500Y-45720000D03*
X148257500Y-45720000D03*
D12*
X131929500Y-41910000D03*
X133754500Y-41910000D03*
D13*
X146050000Y-86360000D03*
D11*
X138762500Y-60960000D03*
X140637500Y-60960000D03*
X138762500Y-43180000D03*
X140637500Y-43180000D03*
X146382500Y-71120000D03*
X148257500Y-71120000D03*
X138762500Y-48260000D03*
X140637500Y-48260000D03*
X146382500Y-63500000D03*
X148257500Y-63500000D03*
X146382500Y-58420000D03*
X148257500Y-58420000D03*
X146382500Y-60955000D03*
X148257500Y-60955000D03*
X146382500Y-76200000D03*
X148257500Y-76200000D03*
X138762500Y-73660000D03*
X140637500Y-73660000D03*
X146382500Y-43180000D03*
X148257500Y-43180000D03*
D14*
X109220000Y-40640000D03*
D15*
X109220000Y-43180000D03*
X109220000Y-45720000D03*
X109220000Y-48260000D03*
X109220000Y-50800000D03*
X109220000Y-53340000D03*
X109220000Y-55880000D03*
D13*
X110490000Y-86360000D03*
D11*
X146382500Y-40640000D03*
X148257500Y-40640000D03*
D14*
X109220000Y-63500000D03*
D15*
X109220000Y-66040000D03*
X109220000Y-68580000D03*
D10*
X125410000Y-62992000D03*
X123510000Y-62992000D03*
D16*
X120716000Y-40386000D03*
X122616000Y-40386000D03*
D17*
X119810000Y-43815000D03*
X119810000Y-45085000D03*
X119810000Y-46355000D03*
X119810000Y-47625000D03*
X119810000Y-48895000D03*
X119810000Y-50165000D03*
X119810000Y-51435000D03*
X119810000Y-52705000D03*
X119810000Y-53975000D03*
X119810000Y-55245000D03*
X119810000Y-56515000D03*
X119810000Y-57785000D03*
X129110000Y-57785000D03*
X129110000Y-56515000D03*
X129110000Y-55245000D03*
X129110000Y-53975000D03*
X129110000Y-52705000D03*
X129110000Y-51435000D03*
X129110000Y-50165000D03*
X129110000Y-48895000D03*
X129110000Y-47625000D03*
X129110000Y-46355000D03*
X129110000Y-45085000D03*
X129110000Y-43815000D03*
D13*
X146050000Y-35560000D03*
D17*
X119810000Y-66675000D03*
X119810000Y-67945000D03*
X119810000Y-69215000D03*
X119810000Y-70485000D03*
X119810000Y-71755000D03*
X119810000Y-73025000D03*
X119810000Y-74295000D03*
X119810000Y-75565000D03*
X119810000Y-76835000D03*
X119810000Y-78105000D03*
X119810000Y-79375000D03*
X119810000Y-80645000D03*
X129110000Y-80645000D03*
X129110000Y-79375000D03*
X129110000Y-78105000D03*
X129110000Y-76835000D03*
X129110000Y-75565000D03*
X129110000Y-74295000D03*
X129110000Y-73025000D03*
X129110000Y-71755000D03*
X129110000Y-70485000D03*
X129110000Y-69215000D03*
X129110000Y-67945000D03*
X129110000Y-66675000D03*
D11*
X138762500Y-40640000D03*
X140637500Y-40640000D03*
D18*
X118745000Y-34647500D03*
X118745000Y-36472500D03*
D11*
X138762500Y-78740000D03*
X140637500Y-78740000D03*
X138762500Y-53340000D03*
X140637500Y-53340000D03*
X146382500Y-66040000D03*
X148257500Y-66040000D03*
X138762500Y-71120000D03*
X140637500Y-71120000D03*
X138762500Y-50800000D03*
X140637500Y-50800000D03*
X138762500Y-68580000D03*
X140637500Y-68580000D03*
X146382500Y-55880000D03*
X148257500Y-55880000D03*
X138762500Y-76200000D03*
X140637500Y-76200000D03*
X146382500Y-48260000D03*
X148257500Y-48260000D03*
D19*
X115570000Y-34622500D03*
X115570000Y-36497500D03*
D12*
X129389500Y-63754000D03*
X131214500Y-63754000D03*
D11*
X146382500Y-53340000D03*
X148257500Y-53340000D03*
D14*
X109220000Y-73660000D03*
D15*
X109220000Y-76200000D03*
X109220000Y-78740000D03*
D11*
X146382500Y-50800000D03*
X148257500Y-50800000D03*
X146382500Y-73660000D03*
X148257500Y-73660000D03*
D13*
X110490000Y-35560000D03*
D11*
X138762500Y-66040000D03*
X140637500Y-66040000D03*
X146382500Y-78740000D03*
X148257500Y-78740000D03*
X138762500Y-58420000D03*
X140637500Y-58420000D03*
D20*
X137414000Y-41529000D03*
X121793000Y-48641000D03*
X121793000Y-50038000D03*
X137414000Y-44069000D03*
X121793000Y-51435000D03*
X137414000Y-46482000D03*
X121793000Y-52705000D03*
X137414000Y-49022000D03*
X121793000Y-53975000D03*
X137414000Y-51689000D03*
X121793000Y-55245000D03*
X137414000Y-54356000D03*
X121793000Y-56515000D03*
X137287000Y-56642000D03*
X121793000Y-57785000D03*
X137287000Y-58928000D03*
X145034000Y-41783000D03*
X121666000Y-71755000D03*
X121666000Y-73025000D03*
X145034000Y-44450000D03*
X121666000Y-74295000D03*
X145034000Y-46990000D03*
X121666000Y-75565000D03*
X145034000Y-49403000D03*
X145034000Y-51943000D03*
X121666000Y-76835000D03*
X121666000Y-78105000D03*
X145034000Y-54610000D03*
X145034000Y-57150000D03*
X121666000Y-79375000D03*
X121666000Y-80645000D03*
X145034000Y-59563000D03*
X122936000Y-64770000D03*
X117348000Y-66294000D03*
X133756400Y-40106600D03*
X119888000Y-41822500D03*
X122164562Y-42339938D03*
X120675400Y-36474400D03*
X132969000Y-64897000D03*
X121158000Y-60706000D03*
X124714000Y-60706000D03*
X127000000Y-44958000D03*
X117602000Y-41910000D03*
D21*
X119810000Y-48895000D02*
X121539000Y-48895000D01*
X138762500Y-40640000D02*
X137873500Y-41529000D01*
X121539000Y-48895000D02*
X121793000Y-48641000D01*
X137873500Y-41529000D02*
X137414000Y-41529000D01*
X119810000Y-67945000D02*
X111125000Y-67945000D01*
X111125000Y-67945000D02*
X109220000Y-66040000D01*
X114935000Y-70485000D02*
X109220000Y-76200000D01*
X119810000Y-70485000D02*
X114935000Y-70485000D01*
X119810000Y-50165000D02*
X121666000Y-50165000D01*
X138762500Y-43180000D02*
X137873500Y-44069000D01*
X121666000Y-50165000D02*
X121793000Y-50038000D01*
X137873500Y-44069000D02*
X137414000Y-44069000D01*
X137414000Y-46482000D02*
X138000500Y-46482000D01*
X119810000Y-51435000D02*
X121793000Y-51435000D01*
X138000500Y-46482000D02*
X138762500Y-45720000D01*
X138000500Y-49022000D02*
X137414000Y-49022000D01*
X138762500Y-48260000D02*
X138000500Y-49022000D01*
X119810000Y-52705000D02*
X121793000Y-52705000D01*
X119810000Y-53975000D02*
X121793000Y-53975000D01*
X137414000Y-51689000D02*
X137873500Y-51689000D01*
X137873500Y-51689000D02*
X138762500Y-50800000D01*
X137746500Y-54356000D02*
X137414000Y-54356000D01*
X119810000Y-55245000D02*
X121793000Y-55245000D01*
X138762500Y-53340000D02*
X137746500Y-54356000D01*
X138000500Y-56642000D02*
X138762500Y-55880000D01*
X137287000Y-56642000D02*
X138000500Y-56642000D01*
X119810000Y-56515000D02*
X121793000Y-56515000D01*
X137287000Y-58928000D02*
X138254500Y-58928000D01*
X138254500Y-58928000D02*
X138762500Y-58420000D01*
X119810000Y-57785000D02*
X121793000Y-57785000D01*
X136144000Y-60960000D02*
X138762500Y-60960000D01*
X132969000Y-57785000D02*
X136144000Y-60960000D01*
X129110000Y-57785000D02*
X132969000Y-57785000D01*
X132862777Y-58434517D02*
X128028091Y-58434518D01*
X127735480Y-58141907D02*
X127735480Y-56947920D01*
X128028091Y-58434518D02*
X127735480Y-58141907D01*
X128168400Y-56515000D02*
X129110000Y-56515000D01*
X138762500Y-63500000D02*
X137928262Y-63500000D01*
X137928262Y-63500000D02*
X132862777Y-58434517D01*
X127735480Y-56947920D02*
X128168400Y-56515000D01*
X127235969Y-56094020D02*
X128084989Y-55245000D01*
X128084989Y-55245000D02*
X129110000Y-55245000D01*
X138353732Y-64657298D02*
X138353732Y-64631900D01*
X138762500Y-65066066D02*
X138353732Y-64657298D01*
X127235969Y-58348811D02*
X127235969Y-56094020D01*
X138353732Y-64631900D02*
X132655860Y-58934028D01*
X138762500Y-66040000D02*
X138762500Y-65066066D01*
X127821186Y-58934029D02*
X127235969Y-58348811D01*
X132655860Y-58934028D02*
X127821186Y-58934029D01*
X126736458Y-58555715D02*
X126736458Y-55330742D01*
X138762500Y-68580000D02*
X137854221Y-67671721D01*
X132448955Y-59433539D02*
X127614281Y-59433539D01*
X128092200Y-53975000D02*
X129110000Y-53975000D01*
X127614281Y-59433539D02*
X126736458Y-58555715D01*
X137854221Y-67671721D02*
X137854221Y-64838805D01*
X137854221Y-64838805D02*
X132448955Y-59433539D01*
X126736458Y-55330742D02*
X128092200Y-53975000D01*
X126236947Y-54553042D02*
X128084989Y-52705000D01*
X137354711Y-65045710D02*
X132242051Y-59933050D01*
X128084989Y-52705000D02*
X129110000Y-52705000D01*
X132242051Y-59933050D02*
X127407376Y-59933049D01*
X126236947Y-58762619D02*
X126236947Y-54553042D01*
X137354711Y-69712211D02*
X137354711Y-65045710D01*
X127407376Y-59933049D02*
X126236947Y-58762619D01*
X138762500Y-71120000D02*
X137354711Y-69712211D01*
X128016000Y-51435000D02*
X129110000Y-51435000D01*
X132035147Y-60432561D02*
X127200471Y-60432559D01*
X132035147Y-60432561D02*
X136855200Y-65252610D01*
X125737436Y-53713564D02*
X128016000Y-51435000D01*
X138762500Y-73660000D02*
X136855200Y-71752700D01*
X136855200Y-71752700D02*
X136855200Y-65252610D01*
X127200471Y-60432559D02*
X125737436Y-58969523D01*
X125737436Y-58969523D02*
X125737436Y-53713564D01*
X125178022Y-53053778D02*
X128066800Y-50165000D01*
X136245600Y-65379600D02*
X131800600Y-60934600D01*
X125178022Y-59138022D02*
X125178022Y-53053778D01*
X128066800Y-50165000D02*
X129110000Y-50165000D01*
X136245600Y-73683100D02*
X136245600Y-65379600D01*
X138762500Y-76200000D02*
X136245600Y-73683100D01*
X126974600Y-60934600D02*
X125178022Y-59138022D01*
X131800600Y-60934600D02*
X126974600Y-60934600D01*
X124678511Y-59400511D02*
X124678511Y-52156289D01*
X138762500Y-78740000D02*
X135585200Y-75562700D01*
X126796800Y-61518800D02*
X124678511Y-59400511D01*
X124678511Y-52156289D02*
X127939800Y-48895000D01*
X135585200Y-65481200D02*
X131622800Y-61518800D01*
X127939800Y-48895000D02*
X129110000Y-48895000D01*
X135585200Y-75562700D02*
X135585200Y-65481200D01*
X131622800Y-61518800D02*
X126796800Y-61518800D01*
X119810000Y-71755000D02*
X121666000Y-71755000D01*
X145034000Y-41783000D02*
X145239500Y-41783000D01*
X145239500Y-41783000D02*
X146382500Y-40640000D01*
X145112500Y-44450000D02*
X145034000Y-44450000D01*
X119810000Y-73025000D02*
X121666000Y-73025000D01*
X146382500Y-43180000D02*
X145112500Y-44450000D01*
X145034000Y-46990000D02*
X145112500Y-46990000D01*
X145112500Y-46990000D02*
X146382500Y-45720000D01*
X119810000Y-74295000D02*
X121666000Y-74295000D01*
X119810000Y-75565000D02*
X121666000Y-75565000D01*
X145239500Y-49403000D02*
X146382500Y-48260000D01*
X145034000Y-49403000D02*
X145239500Y-49403000D01*
X119810000Y-76835000D02*
X121666000Y-76835000D01*
X145239500Y-51943000D02*
X145034000Y-51943000D01*
X146382500Y-50800000D02*
X145239500Y-51943000D01*
X145112500Y-54610000D02*
X146382500Y-53340000D01*
X145034000Y-54610000D02*
X145112500Y-54610000D01*
X119810000Y-78105000D02*
X121666000Y-78105000D01*
X119810000Y-79375000D02*
X121666000Y-79375000D01*
X146382500Y-55880000D02*
X145112500Y-57150000D01*
X145112500Y-57150000D02*
X145034000Y-57150000D01*
X119810000Y-80645000D02*
X121666000Y-80645000D01*
X145034000Y-59563000D02*
X145239500Y-59563000D01*
X145239500Y-59563000D02*
X146382500Y-58420000D01*
X142443200Y-64894300D02*
X146382500Y-60955000D01*
X129110000Y-80645000D02*
X129110000Y-81104000D01*
X129387600Y-81381600D02*
X139534910Y-81381600D01*
X129110000Y-81104000D02*
X129387600Y-81381600D01*
X142443200Y-78473310D02*
X142443200Y-64894300D01*
X139534910Y-81381600D02*
X142443200Y-78473310D01*
X129110000Y-79375000D02*
X128016000Y-79375000D01*
X128614684Y-81881111D02*
X139741814Y-81881111D01*
X142942711Y-66939789D02*
X146382500Y-63500000D01*
X127735480Y-79655520D02*
X127735480Y-81001907D01*
X127735480Y-81001907D02*
X128614684Y-81881111D01*
X142942711Y-78680214D02*
X142942711Y-66939789D01*
X139741814Y-81881111D02*
X142942711Y-78680214D01*
X128016000Y-79375000D02*
X127735480Y-79655520D01*
X143442222Y-78887118D02*
X143442222Y-68980278D01*
X127235969Y-78935831D02*
X127235969Y-81208812D01*
X143442222Y-68980278D02*
X146382500Y-66040000D01*
X129110000Y-78105000D02*
X128066800Y-78105000D01*
X128407780Y-82380622D02*
X139948718Y-82380622D01*
X139948718Y-82380622D02*
X143442222Y-78887118D01*
X127235969Y-81208812D02*
X128407780Y-82380622D01*
X128066800Y-78105000D02*
X127235969Y-78935831D01*
X143941733Y-71020767D02*
X146382500Y-68580000D01*
X128200876Y-82880133D02*
X140155621Y-82880133D01*
X129110000Y-76835000D02*
X128092200Y-76835000D01*
X128092200Y-76835000D02*
X126736459Y-78190741D01*
X126736459Y-81415717D02*
X128200876Y-82880133D01*
X140155621Y-82880133D02*
X143941733Y-79094021D01*
X143941733Y-79094021D02*
X143941733Y-71020767D01*
X126736459Y-78190741D02*
X126736459Y-81415717D01*
X126236949Y-81622622D02*
X127993972Y-83379644D01*
X144441244Y-73061256D02*
X146382500Y-71120000D01*
X129110000Y-75565000D02*
X128041400Y-75565000D01*
X126236949Y-77369451D02*
X126236949Y-81622622D01*
X140362527Y-83379644D02*
X144441244Y-79300927D01*
X128041400Y-75565000D02*
X126236949Y-77369451D01*
X144441244Y-79300927D02*
X144441244Y-73061256D01*
X127993972Y-83379644D02*
X140362527Y-83379644D01*
X129110000Y-74295000D02*
X128092200Y-74295000D01*
X144940755Y-79507831D02*
X144940755Y-75101745D01*
X127787068Y-83879155D02*
X140569431Y-83879155D01*
X140569431Y-83879155D02*
X144940755Y-79507831D01*
X128092200Y-74295000D02*
X125737439Y-76649761D01*
X144940755Y-75101745D02*
X146382500Y-73660000D01*
X125737439Y-76649761D02*
X125737439Y-81829527D01*
X125737439Y-81829527D02*
X127787068Y-83879155D01*
X145440265Y-79714750D02*
X145440265Y-77142235D01*
X125237928Y-82036432D02*
X127580164Y-84378666D01*
X129110000Y-73025000D02*
X128066800Y-73025000D01*
X145440265Y-77142235D02*
X146382500Y-76200000D01*
X127580164Y-84378666D02*
X140776350Y-84378665D01*
X128066800Y-73025000D02*
X125237928Y-75853872D01*
X125237928Y-75853872D02*
X125237928Y-82036432D01*
X140776350Y-84378665D02*
X145440265Y-79714750D01*
D22*
X120716000Y-40386000D02*
X122443200Y-38658800D01*
X140004800Y-38658800D02*
X140637500Y-39291500D01*
D21*
X148257500Y-78740000D02*
X148257500Y-40640000D01*
D23*
X129110000Y-43815000D02*
X126365000Y-43815000D01*
D22*
X125349000Y-63053000D02*
X125410000Y-62992000D01*
X120462000Y-40640000D02*
X120716000Y-40386000D01*
X129110000Y-66675000D02*
X126619000Y-66675000D01*
X126619000Y-66675000D02*
X125349000Y-65405000D01*
X146936700Y-39319200D02*
X148257500Y-40640000D01*
D23*
X128204000Y-43815000D02*
X128204000Y-40386000D01*
D21*
X140637500Y-40640000D02*
X140637500Y-78740000D01*
X115570000Y-36497500D02*
X115570000Y-40640000D01*
D22*
X140665200Y-39319200D02*
X146936700Y-39319200D01*
X109220000Y-40640000D02*
X115570000Y-40640000D01*
D23*
X126365000Y-43815000D02*
X123535511Y-46644489D01*
D22*
X128204000Y-38658800D02*
X128204000Y-40386000D01*
X125349000Y-65405000D02*
X125349000Y-63053000D01*
X122443200Y-38658800D02*
X140004800Y-38658800D01*
X140637500Y-39291500D02*
X140637500Y-40640000D01*
D23*
X123535511Y-61117511D02*
X125410000Y-62992000D01*
X123535511Y-46644489D02*
X123535511Y-61117511D01*
D22*
X115570000Y-40640000D02*
X120462000Y-40640000D01*
D21*
X146382500Y-79677500D02*
X146382500Y-78740000D01*
X129110000Y-71755000D02*
X127990600Y-71755000D01*
X124738417Y-75007183D02*
X124738417Y-82243334D01*
X124738417Y-82243334D02*
X127373260Y-84878177D01*
X141181825Y-84878175D02*
X146382500Y-79677500D01*
X127990600Y-71755000D02*
X124738417Y-75007183D01*
X127373260Y-84878177D02*
X141181825Y-84878175D01*
X118745000Y-34647500D02*
X115595000Y-34647500D01*
X115595000Y-34647500D02*
X115570000Y-34622500D01*
X119810000Y-69215000D02*
X120904000Y-69215000D01*
D24*
X110490000Y-44450000D02*
X109220000Y-43180000D01*
X121361200Y-44754800D02*
X121056400Y-44450000D01*
X121361200Y-45542200D02*
X121361200Y-44754800D01*
D21*
X120904000Y-69215000D02*
X121412000Y-68707000D01*
D24*
X119810000Y-46355000D02*
X120548400Y-46355000D01*
X120548400Y-46355000D02*
X121361200Y-45542200D01*
D21*
X122936000Y-60960000D02*
X122936000Y-48133000D01*
X121412000Y-68707000D02*
X121412000Y-62484000D01*
D24*
X121056400Y-44450000D02*
X110490000Y-44450000D01*
D21*
X122936000Y-48133000D02*
X121158000Y-46355000D01*
X121412000Y-62484000D02*
X122936000Y-60960000D01*
X121158000Y-46355000D02*
X119810000Y-46355000D01*
D23*
X123510000Y-62992000D02*
X123510000Y-64196000D01*
X119810000Y-41900500D02*
X119888000Y-41822500D01*
D21*
X131214500Y-63754000D02*
X131826000Y-63754000D01*
X120673500Y-36472500D02*
X120675400Y-36474400D01*
D23*
X119810000Y-66675000D02*
X117729000Y-66675000D01*
X133754500Y-41910000D02*
X133754500Y-40108500D01*
X119810000Y-43815000D02*
X119810000Y-41900500D01*
X117729000Y-66675000D02*
X117348000Y-66294000D01*
X133754500Y-40108500D02*
X133756400Y-40106600D01*
X124118500Y-40386000D02*
X122164562Y-42339938D01*
X123510000Y-64196000D02*
X122936000Y-64770000D01*
X126304000Y-40386000D02*
X124118500Y-40386000D01*
D21*
X131826000Y-63754000D02*
X132969000Y-64897000D01*
X118745000Y-36472500D02*
X120673500Y-36472500D01*
X109220000Y-45720000D02*
X107520978Y-47419022D01*
X107520978Y-61800978D02*
X109220000Y-63500000D01*
X107520978Y-47419022D02*
X107520978Y-61800978D01*
X109855000Y-45085000D02*
X109220000Y-45720000D01*
X119810000Y-45085000D02*
X109855000Y-45085000D01*
X119810000Y-47625000D02*
X118745000Y-47625000D01*
X118745000Y-47625000D02*
X118276499Y-47156499D01*
X118276499Y-47156499D02*
X110323501Y-47156499D01*
X110323501Y-47156499D02*
X109220000Y-48260000D01*
X130302000Y-62839600D02*
X130302000Y-64643000D01*
X131318000Y-65659000D02*
X131318000Y-69570600D01*
X124135022Y-60127022D02*
X126111000Y-62103000D01*
X109220000Y-53340000D02*
X108020489Y-54539511D01*
X129110000Y-47625000D02*
X127838200Y-47625000D01*
X127838200Y-47625000D02*
X124135022Y-51328178D01*
X109728000Y-60706000D02*
X121158000Y-60706000D01*
X126111000Y-62103000D02*
X129565400Y-62103000D01*
X130302000Y-64643000D02*
X131318000Y-65659000D01*
X108020489Y-58998489D02*
X109728000Y-60706000D01*
X108020489Y-54539511D02*
X108020489Y-58998489D01*
X129565400Y-62103000D02*
X130302000Y-62839600D01*
X124135022Y-51328178D02*
X124135022Y-60127022D01*
X130403600Y-70485000D02*
X129110000Y-70485000D01*
X131318000Y-69570600D02*
X130403600Y-70485000D01*
X131929500Y-41910000D02*
X130708400Y-43131100D01*
X130708400Y-44500800D02*
X130124200Y-45085000D01*
X130124200Y-45085000D02*
X129110000Y-45085000D01*
X130708400Y-43131100D02*
X130708400Y-44500800D01*
X130810000Y-67691000D02*
X130810000Y-65887600D01*
X130810000Y-65887600D02*
X129389500Y-64467100D01*
X129110000Y-67945000D02*
X130556000Y-67945000D01*
X129389500Y-64467100D02*
X129389500Y-63754000D01*
X130556000Y-67945000D02*
X130810000Y-67691000D01*
X109220000Y-68580000D02*
X107021467Y-66381467D01*
X129110000Y-46355000D02*
X128397000Y-46355000D01*
X128397000Y-46355000D02*
X127000000Y-44958000D01*
X107021467Y-66381467D02*
X107021467Y-43346533D01*
X107021467Y-43346533D02*
X108458000Y-41910000D01*
X108458000Y-41910000D02*
X117602000Y-41910000D01*
G04 #@! TA.AperFunction,Conductor*
G36*
X122420032Y-62511394D02*
G01*
X122476868Y-62553941D01*
X122501679Y-62620461D01*
X122502000Y-62629450D01*
X122502000Y-62719885D01*
X122506475Y-62735124D01*
X122507865Y-62736329D01*
X122515548Y-62738000D01*
X123638000Y-62738000D01*
X123706121Y-62758002D01*
X123752614Y-62811658D01*
X123764000Y-62864000D01*
X123764000Y-64206884D01*
X123768475Y-64222123D01*
X123769865Y-64223328D01*
X123777548Y-64224999D01*
X123807095Y-64224999D01*
X123813614Y-64224662D01*
X123909206Y-64214743D01*
X123922600Y-64211851D01*
X124076784Y-64160412D01*
X124089962Y-64154239D01*
X124227807Y-64068937D01*
X124239208Y-64059901D01*
X124325327Y-63973632D01*
X124387610Y-63939553D01*
X124458430Y-63944556D01*
X124515302Y-63987053D01*
X124540171Y-64053552D01*
X124540500Y-64062650D01*
X124540500Y-65395786D01*
X124540493Y-65397106D01*
X124539549Y-65487221D01*
X124548711Y-65529597D01*
X124550769Y-65542163D01*
X124555603Y-65585255D01*
X124557919Y-65591906D01*
X124557920Y-65591910D01*
X124566633Y-65616930D01*
X124570796Y-65631742D01*
X124574454Y-65648658D01*
X124577881Y-65664510D01*
X124596208Y-65703813D01*
X124600990Y-65715589D01*
X124615255Y-65756552D01*
X124618989Y-65762527D01*
X124618990Y-65762530D01*
X124633027Y-65784995D01*
X124640366Y-65798512D01*
X124649156Y-65817361D01*
X124654538Y-65828902D01*
X124658855Y-65834467D01*
X124658856Y-65834469D01*
X124681106Y-65863153D01*
X124688402Y-65873612D01*
X124711374Y-65910376D01*
X124716334Y-65915371D01*
X124716335Y-65915372D01*
X124739976Y-65939179D01*
X124740561Y-65939804D01*
X124741078Y-65940470D01*
X124767068Y-65966460D01*
X124839185Y-66039082D01*
X124840222Y-66039740D01*
X124841451Y-66040843D01*
X126040766Y-67240158D01*
X126041694Y-67241095D01*
X126070536Y-67270547D01*
X126104771Y-67305507D01*
X126141221Y-67328998D01*
X126151546Y-67336417D01*
X126185443Y-67363476D01*
X126191784Y-67366541D01*
X126191785Y-67366542D01*
X126215637Y-67378072D01*
X126229054Y-67385601D01*
X126257238Y-67403765D01*
X126263855Y-67406173D01*
X126263860Y-67406176D01*
X126297973Y-67418592D01*
X126309716Y-67423553D01*
X126342403Y-67439354D01*
X126342408Y-67439356D01*
X126348749Y-67442421D01*
X126355607Y-67444004D01*
X126355609Y-67444005D01*
X126381426Y-67449965D01*
X126396169Y-67454332D01*
X126427685Y-67465803D01*
X126434675Y-67466686D01*
X126434683Y-67466688D01*
X126470701Y-67471238D01*
X126483253Y-67473474D01*
X126518614Y-67481638D01*
X126518617Y-67481638D01*
X126525485Y-67483224D01*
X126532531Y-67483249D01*
X126532534Y-67483249D01*
X126566056Y-67483366D01*
X126566938Y-67483395D01*
X126567769Y-67483500D01*
X126604419Y-67483500D01*
X126604859Y-67483501D01*
X126703343Y-67483845D01*
X126703348Y-67483845D01*
X126706870Y-67483857D01*
X126708070Y-67483589D01*
X126709707Y-67483500D01*
X127471955Y-67483500D01*
X127540076Y-67503502D01*
X127586569Y-67557158D01*
X127596673Y-67627432D01*
X127592952Y-67644653D01*
X127579438Y-67691169D01*
X127578934Y-67697574D01*
X127578933Y-67697579D01*
X127577873Y-67711049D01*
X127576500Y-67728498D01*
X127576500Y-68161502D01*
X127579438Y-68198831D01*
X127584331Y-68215673D01*
X127617461Y-68329707D01*
X127625855Y-68358601D01*
X127710547Y-68501807D01*
X127713229Y-68504489D01*
X127738502Y-68568861D01*
X127724600Y-68638484D01*
X127714428Y-68654312D01*
X127710547Y-68658193D01*
X127625855Y-68801399D01*
X127623644Y-68809010D01*
X127623643Y-68809012D01*
X127614441Y-68840686D01*
X127579438Y-68961169D01*
X127578934Y-68967574D01*
X127578933Y-68967579D01*
X127576978Y-68992425D01*
X127576500Y-68998498D01*
X127576500Y-69431502D01*
X127579438Y-69468831D01*
X127625855Y-69628601D01*
X127710547Y-69771807D01*
X127713229Y-69774489D01*
X127738502Y-69838861D01*
X127724600Y-69908484D01*
X127714428Y-69924312D01*
X127710547Y-69928193D01*
X127625855Y-70071399D01*
X127623644Y-70079010D01*
X127623643Y-70079012D01*
X127621536Y-70086265D01*
X127579438Y-70231169D01*
X127578934Y-70237574D01*
X127578933Y-70237579D01*
X127576693Y-70266042D01*
X127576500Y-70268498D01*
X127576500Y-70701502D01*
X127579438Y-70738831D01*
X127625855Y-70898601D01*
X127694674Y-71014967D01*
X127712133Y-71083781D01*
X127689617Y-71151112D01*
X127660279Y-71181041D01*
X127633462Y-71200524D01*
X127623546Y-71207038D01*
X127583793Y-71230548D01*
X127568632Y-71245709D01*
X127553600Y-71258548D01*
X127536243Y-71271159D01*
X127522781Y-71287432D01*
X127506793Y-71306758D01*
X127498803Y-71315538D01*
X124330812Y-74483528D01*
X124322032Y-74491518D01*
X124322030Y-74491520D01*
X124315337Y-74495767D01*
X124309911Y-74501545D01*
X124309910Y-74501546D01*
X124266813Y-74547440D01*
X124264058Y-74550282D01*
X124243490Y-74570850D01*
X124240773Y-74574353D01*
X124233065Y-74583378D01*
X124201445Y-74617050D01*
X124197624Y-74624001D01*
X124197623Y-74624002D01*
X124191114Y-74635841D01*
X124180260Y-74652365D01*
X124172435Y-74662454D01*
X124167113Y-74669315D01*
X124163966Y-74676587D01*
X124163965Y-74676589D01*
X124148763Y-74711718D01*
X124143541Y-74722378D01*
X124129292Y-74748297D01*
X124121293Y-74762846D01*
X124115958Y-74783624D01*
X124109559Y-74802314D01*
X124101037Y-74822007D01*
X124096417Y-74851175D01*
X124093811Y-74867631D01*
X124091404Y-74879254D01*
X124079917Y-74923995D01*
X124079917Y-74945442D01*
X124078366Y-74965152D01*
X124075011Y-74986335D01*
X124078052Y-75018500D01*
X124079358Y-75032321D01*
X124079917Y-75044179D01*
X124079917Y-82161278D01*
X124079358Y-82173134D01*
X124077629Y-82180871D01*
X124077878Y-82188793D01*
X124079855Y-82251703D01*
X124079917Y-82255661D01*
X124079917Y-82284766D01*
X124080473Y-82289166D01*
X124081405Y-82300998D01*
X124082855Y-82347165D01*
X124085067Y-82354778D01*
X124085067Y-82354779D01*
X124088836Y-82367750D01*
X124092847Y-82387116D01*
X124095535Y-82408398D01*
X124098451Y-82415763D01*
X124098452Y-82415767D01*
X124112543Y-82451355D01*
X124116382Y-82462565D01*
X124129272Y-82506934D01*
X124140192Y-82525399D01*
X124148883Y-82543139D01*
X124156782Y-82563090D01*
X124183933Y-82600460D01*
X124190450Y-82610382D01*
X124209924Y-82643311D01*
X124209927Y-82643315D01*
X124213964Y-82650141D01*
X124229128Y-82665305D01*
X124241968Y-82680338D01*
X124254576Y-82697691D01*
X124290169Y-82727136D01*
X124298949Y-82735126D01*
X126849605Y-85285782D01*
X126857595Y-85294562D01*
X126861844Y-85301257D01*
X126867622Y-85306683D01*
X126867623Y-85306684D01*
X126913517Y-85349781D01*
X126916359Y-85352536D01*
X126936927Y-85373104D01*
X126940430Y-85375821D01*
X126949455Y-85383529D01*
X126983127Y-85415149D01*
X126990078Y-85418970D01*
X126990079Y-85418971D01*
X127001918Y-85425480D01*
X127018442Y-85436334D01*
X127028531Y-85444159D01*
X127035392Y-85449481D01*
X127042664Y-85452628D01*
X127042666Y-85452629D01*
X127077795Y-85467831D01*
X127088455Y-85473053D01*
X127094549Y-85476403D01*
X127128923Y-85495301D01*
X127149701Y-85500636D01*
X127168391Y-85507035D01*
X127188084Y-85515557D01*
X127229080Y-85522050D01*
X127233708Y-85522783D01*
X127245331Y-85525190D01*
X127270006Y-85531525D01*
X127290072Y-85536677D01*
X127311519Y-85536677D01*
X127331229Y-85538228D01*
X127352412Y-85541583D01*
X127360304Y-85540837D01*
X127382764Y-85538714D01*
X127398400Y-85537236D01*
X127410257Y-85536677D01*
X132727693Y-85536676D01*
X141099769Y-85536675D01*
X141111625Y-85537234D01*
X141111628Y-85537234D01*
X141119362Y-85538963D01*
X141190194Y-85536737D01*
X141194152Y-85536675D01*
X141223257Y-85536675D01*
X141227657Y-85536119D01*
X141239489Y-85535187D01*
X141285656Y-85533737D01*
X141306246Y-85527755D01*
X141325607Y-85523745D01*
X141332595Y-85522863D01*
X141339029Y-85522050D01*
X141339030Y-85522050D01*
X141346889Y-85521057D01*
X141354254Y-85518141D01*
X141354258Y-85518140D01*
X141389846Y-85504049D01*
X141401056Y-85500210D01*
X141445425Y-85487320D01*
X141463890Y-85476400D01*
X141481630Y-85467709D01*
X141501581Y-85459810D01*
X141538954Y-85432657D01*
X141548873Y-85426142D01*
X141581802Y-85406668D01*
X141581806Y-85406665D01*
X141588632Y-85402628D01*
X141603796Y-85387464D01*
X141618830Y-85374623D01*
X141629768Y-85366676D01*
X141636182Y-85362016D01*
X141665628Y-85326422D01*
X141673617Y-85317643D01*
X146790105Y-80201155D01*
X146798885Y-80193165D01*
X146798887Y-80193163D01*
X146805580Y-80188916D01*
X146854105Y-80137242D01*
X146856859Y-80134401D01*
X146877427Y-80113833D01*
X146880147Y-80110326D01*
X146887853Y-80101304D01*
X146894940Y-80093757D01*
X146919472Y-80067633D01*
X146929132Y-80050062D01*
X146929803Y-80048842D01*
X146940657Y-80032318D01*
X146948943Y-80021635D01*
X146948944Y-80021634D01*
X146953804Y-80015368D01*
X146972154Y-79972964D01*
X146977369Y-79962319D01*
X146999624Y-79921837D01*
X147001594Y-79914163D01*
X147001597Y-79914156D01*
X147004955Y-79901074D01*
X147011361Y-79882362D01*
X147012895Y-79878819D01*
X147019157Y-79864348D01*
X147068489Y-79807248D01*
X147090466Y-79793648D01*
X147096689Y-79789797D01*
X147220617Y-79665653D01*
X147222419Y-79662730D01*
X147279029Y-79622592D01*
X147349952Y-79619358D01*
X147411364Y-79654982D01*
X147416916Y-79661378D01*
X147420203Y-79666689D01*
X147544347Y-79790617D01*
X147693671Y-79882661D01*
X147700619Y-79884966D01*
X147700620Y-79884966D01*
X147853634Y-79935719D01*
X147853636Y-79935719D01*
X147860165Y-79937885D01*
X147963769Y-79948500D01*
X148255234Y-79948500D01*
X148551230Y-79948499D01*
X148656129Y-79937616D01*
X148662660Y-79935437D01*
X148662665Y-79935436D01*
X148815578Y-79884420D01*
X148822526Y-79882102D01*
X148971689Y-79789797D01*
X149095617Y-79665653D01*
X149099460Y-79659419D01*
X149119661Y-79626647D01*
X149172433Y-79579153D01*
X149242504Y-79567729D01*
X149307628Y-79596003D01*
X149347128Y-79654997D01*
X149352921Y-79692770D01*
X149352890Y-80194536D01*
X149352599Y-84973369D01*
X149352594Y-85053616D01*
X149332588Y-85121735D01*
X149278929Y-85168225D01*
X149208655Y-85178324D01*
X149144076Y-85148827D01*
X149109523Y-85100196D01*
X149059052Y-84973369D01*
X149057793Y-84970205D01*
X149027768Y-84913498D01*
X148891702Y-84656513D01*
X148891698Y-84656506D01*
X148890103Y-84653494D01*
X148689190Y-84356746D01*
X148457403Y-84083432D01*
X148197454Y-83836750D01*
X147912384Y-83619585D01*
X147909472Y-83617828D01*
X147909467Y-83617825D01*
X147608443Y-83436236D01*
X147608437Y-83436233D01*
X147605528Y-83434478D01*
X147280475Y-83283593D01*
X147110752Y-83226145D01*
X146944255Y-83169789D01*
X146944250Y-83169788D01*
X146941028Y-83168697D01*
X146742681Y-83124724D01*
X146594493Y-83091871D01*
X146594487Y-83091870D01*
X146591158Y-83091132D01*
X146587769Y-83090758D01*
X146587764Y-83090757D01*
X146238338Y-83052180D01*
X146238333Y-83052180D01*
X146234957Y-83051807D01*
X146231558Y-83051801D01*
X146231557Y-83051801D01*
X146062080Y-83051505D01*
X145876592Y-83051182D01*
X145763413Y-83063277D01*
X145523639Y-83088901D01*
X145523631Y-83088902D01*
X145520256Y-83089263D01*
X145170117Y-83165606D01*
X144830271Y-83279317D01*
X144827178Y-83280739D01*
X144827177Y-83280740D01*
X144820974Y-83283593D01*
X144504694Y-83429066D01*
X144197193Y-83613101D01*
X144194467Y-83615163D01*
X144194465Y-83615164D01*
X144188620Y-83619585D01*
X143911367Y-83829270D01*
X143650559Y-84075043D01*
X143417819Y-84347546D01*
X143415900Y-84350358D01*
X143415897Y-84350363D01*
X143322624Y-84487097D01*
X143215871Y-84643591D01*
X143047077Y-84959714D01*
X142913411Y-85292218D01*
X142912491Y-85295492D01*
X142912489Y-85295497D01*
X142844261Y-85538228D01*
X142816437Y-85637213D01*
X142757290Y-85990663D01*
X142736661Y-86348434D01*
X142754792Y-86706340D01*
X142755329Y-86709695D01*
X142755330Y-86709701D01*
X142760316Y-86740828D01*
X142811470Y-87060195D01*
X142906033Y-87405859D01*
X143037374Y-87739288D01*
X143203957Y-88056582D01*
X143205858Y-88059411D01*
X143205864Y-88059421D01*
X143322085Y-88232374D01*
X143403834Y-88354029D01*
X143634665Y-88628150D01*
X143893751Y-88875738D01*
X144178061Y-89093897D01*
X144210056Y-89113350D01*
X144481355Y-89278303D01*
X144481360Y-89278306D01*
X144484270Y-89280075D01*
X144794510Y-89425402D01*
X144847712Y-89472411D01*
X144867054Y-89540722D01*
X144846394Y-89608646D01*
X144792291Y-89654618D01*
X144741049Y-89665503D01*
X130381169Y-89664248D01*
X111801571Y-89662625D01*
X111733453Y-89642617D01*
X111686965Y-89588957D01*
X111676867Y-89518682D01*
X111706366Y-89454104D01*
X111749332Y-89421970D01*
X112021954Y-89297729D01*
X112025066Y-89296311D01*
X112187597Y-89199807D01*
X112330262Y-89115099D01*
X112330267Y-89115096D01*
X112333207Y-89113350D01*
X112619786Y-88898180D01*
X112881451Y-88653319D01*
X113115140Y-88381630D01*
X113221750Y-88226512D01*
X113316190Y-88089101D01*
X113316195Y-88089094D01*
X113318120Y-88086292D01*
X113319732Y-88083298D01*
X113319737Y-88083290D01*
X113486395Y-87773772D01*
X113488017Y-87770760D01*
X113622842Y-87438724D01*
X113633142Y-87402568D01*
X113710564Y-87130776D01*
X113721020Y-87094070D01*
X113781401Y-86740828D01*
X113783511Y-86706340D01*
X113803168Y-86384928D01*
X113803278Y-86383131D01*
X113803359Y-86360000D01*
X113783979Y-86002159D01*
X113726066Y-85648505D01*
X113630297Y-85303173D01*
X113627243Y-85295497D01*
X113499052Y-84973369D01*
X113497793Y-84970205D01*
X113467768Y-84913498D01*
X113331702Y-84656513D01*
X113331698Y-84656506D01*
X113330103Y-84653494D01*
X113129190Y-84356746D01*
X112897403Y-84083432D01*
X112637454Y-83836750D01*
X112352384Y-83619585D01*
X112349472Y-83617828D01*
X112349467Y-83617825D01*
X112048443Y-83436236D01*
X112048437Y-83436233D01*
X112045528Y-83434478D01*
X111720475Y-83283593D01*
X111550752Y-83226145D01*
X111384255Y-83169789D01*
X111384250Y-83169788D01*
X111381028Y-83168697D01*
X111182681Y-83124724D01*
X111034493Y-83091871D01*
X111034487Y-83091870D01*
X111031158Y-83091132D01*
X111027769Y-83090758D01*
X111027764Y-83090757D01*
X110678338Y-83052180D01*
X110678333Y-83052180D01*
X110674957Y-83051807D01*
X110671558Y-83051801D01*
X110671557Y-83051801D01*
X110502080Y-83051505D01*
X110316592Y-83051182D01*
X110203413Y-83063277D01*
X109963639Y-83088901D01*
X109963631Y-83088902D01*
X109960256Y-83089263D01*
X109610117Y-83165606D01*
X109270271Y-83279317D01*
X109267178Y-83280739D01*
X109267177Y-83280740D01*
X109260974Y-83283593D01*
X108944694Y-83429066D01*
X108637193Y-83613101D01*
X108634467Y-83615163D01*
X108634465Y-83615164D01*
X108628620Y-83619585D01*
X108351367Y-83829270D01*
X108090559Y-84075043D01*
X107857819Y-84347546D01*
X107855900Y-84350358D01*
X107855897Y-84350363D01*
X107762624Y-84487097D01*
X107655871Y-84643591D01*
X107487077Y-84959714D01*
X107485806Y-84962876D01*
X107427381Y-85108211D01*
X107383414Y-85163955D01*
X107316289Y-85187080D01*
X107247318Y-85170243D01*
X107198398Y-85118790D01*
X107184474Y-85061205D01*
X107184481Y-84973369D01*
X107185709Y-67781149D01*
X107205716Y-67713031D01*
X107259375Y-67666542D01*
X107329650Y-67656443D01*
X107394228Y-67685940D01*
X107400804Y-67692064D01*
X107862101Y-68153361D01*
X107896127Y-68215673D01*
X107894424Y-68276125D01*
X107880989Y-68324570D01*
X107857251Y-68546695D01*
X107857548Y-68551848D01*
X107857548Y-68551851D01*
X107864361Y-68670006D01*
X107870110Y-68769715D01*
X107871247Y-68774761D01*
X107871248Y-68774767D01*
X107875085Y-68791791D01*
X107919222Y-68987639D01*
X107956054Y-69078345D01*
X107991942Y-69166727D01*
X108003266Y-69194616D01*
X108039067Y-69253038D01*
X108102364Y-69356329D01*
X108119987Y-69385088D01*
X108266250Y-69553938D01*
X108438126Y-69696632D01*
X108631000Y-69809338D01*
X108635825Y-69811180D01*
X108635826Y-69811181D01*
X108669948Y-69824211D01*
X108839692Y-69889030D01*
X108844760Y-69890061D01*
X108844763Y-69890062D01*
X108935232Y-69908468D01*
X109058597Y-69933567D01*
X109063772Y-69933757D01*
X109063774Y-69933757D01*
X109276673Y-69941564D01*
X109276677Y-69941564D01*
X109281837Y-69941753D01*
X109286957Y-69941097D01*
X109286959Y-69941097D01*
X109498288Y-69914025D01*
X109498289Y-69914025D01*
X109503416Y-69913368D01*
X109509639Y-69911501D01*
X109712429Y-69850661D01*
X109712434Y-69850659D01*
X109717384Y-69849174D01*
X109917994Y-69750896D01*
X110099860Y-69621173D01*
X110258096Y-69463489D01*
X110317594Y-69380689D01*
X110385435Y-69286277D01*
X110388453Y-69282077D01*
X110410679Y-69237107D01*
X110485136Y-69086453D01*
X110485137Y-69086451D01*
X110487430Y-69081811D01*
X110542836Y-68899449D01*
X110550865Y-68873023D01*
X110550865Y-68873021D01*
X110552370Y-68868069D01*
X110581529Y-68646590D01*
X110582384Y-68611576D01*
X110604043Y-68543966D01*
X110658817Y-68498797D01*
X110729317Y-68490411D01*
X110772814Y-68509494D01*
X110774046Y-68507411D01*
X110780871Y-68511447D01*
X110787132Y-68516304D01*
X110794404Y-68519451D01*
X110794406Y-68519452D01*
X110829535Y-68534654D01*
X110840195Y-68539876D01*
X110847635Y-68543966D01*
X110880663Y-68562124D01*
X110901441Y-68567459D01*
X110920131Y-68573858D01*
X110939824Y-68582380D01*
X110983596Y-68589313D01*
X110985448Y-68589606D01*
X110997071Y-68592013D01*
X111025072Y-68599202D01*
X111041812Y-68603500D01*
X111063259Y-68603500D01*
X111082969Y-68605051D01*
X111104152Y-68608406D01*
X111150141Y-68604059D01*
X111161996Y-68603500D01*
X118221991Y-68603500D01*
X118290112Y-68623502D01*
X118336605Y-68677158D01*
X118346709Y-68747432D01*
X118332723Y-68787167D01*
X118333038Y-68787303D01*
X118331096Y-68791791D01*
X118330447Y-68793635D01*
X118325855Y-68801399D01*
X118323644Y-68809010D01*
X118323643Y-68809012D01*
X118314441Y-68840686D01*
X118279438Y-68961169D01*
X118278934Y-68967574D01*
X118278933Y-68967579D01*
X118276978Y-68992425D01*
X118276500Y-68998498D01*
X118276500Y-69431502D01*
X118279438Y-69468831D01*
X118325855Y-69628601D01*
X118330446Y-69636365D01*
X118330657Y-69637196D01*
X118333038Y-69642697D01*
X118332150Y-69643081D01*
X118347904Y-69705180D01*
X118325386Y-69772511D01*
X118270040Y-69816979D01*
X118221991Y-69826500D01*
X115017060Y-69826500D01*
X115005203Y-69825941D01*
X114997463Y-69824211D01*
X114989538Y-69824460D01*
X114989537Y-69824460D01*
X114926599Y-69826438D01*
X114922641Y-69826500D01*
X114893568Y-69826500D01*
X114889634Y-69826997D01*
X114889632Y-69826997D01*
X114889189Y-69827053D01*
X114877354Y-69827985D01*
X114844564Y-69829016D01*
X114839089Y-69829188D01*
X114839088Y-69829188D01*
X114831169Y-69829437D01*
X114811444Y-69835168D01*
X114810571Y-69835421D01*
X114791218Y-69839429D01*
X114787743Y-69839868D01*
X114769936Y-69842118D01*
X114762568Y-69845035D01*
X114762565Y-69845036D01*
X114726982Y-69859125D01*
X114715747Y-69862971D01*
X114679016Y-69873642D01*
X114679013Y-69873643D01*
X114671400Y-69875855D01*
X114652935Y-69886775D01*
X114635195Y-69895466D01*
X114615244Y-69903365D01*
X114581071Y-69928193D01*
X114577874Y-69930516D01*
X114567952Y-69937033D01*
X114535023Y-69956507D01*
X114535019Y-69956510D01*
X114528193Y-69960547D01*
X114513029Y-69975711D01*
X114497996Y-69988551D01*
X114480643Y-70001159D01*
X114451198Y-70036752D01*
X114443208Y-70045532D01*
X110793595Y-73695145D01*
X110731283Y-73729171D01*
X110660468Y-73724106D01*
X110603632Y-73681559D01*
X110578821Y-73615039D01*
X110578500Y-73606050D01*
X110578500Y-72761866D01*
X110571745Y-72699684D01*
X110520615Y-72563295D01*
X110433261Y-72446739D01*
X110316705Y-72359385D01*
X110180316Y-72308255D01*
X110118134Y-72301500D01*
X108321866Y-72301500D01*
X108259684Y-72308255D01*
X108123295Y-72359385D01*
X108006739Y-72446739D01*
X107919385Y-72563295D01*
X107868255Y-72699684D01*
X107861500Y-72761866D01*
X107861500Y-74558134D01*
X107868255Y-74620316D01*
X107919385Y-74756705D01*
X108006739Y-74873261D01*
X108123295Y-74960615D01*
X108131704Y-74963767D01*
X108131705Y-74963768D01*
X108240451Y-75004535D01*
X108297216Y-75047176D01*
X108321916Y-75113738D01*
X108306709Y-75183087D01*
X108287316Y-75209568D01*
X108184262Y-75317408D01*
X108160629Y-75342138D01*
X108157715Y-75346410D01*
X108157714Y-75346411D01*
X108105011Y-75423671D01*
X108034743Y-75526680D01*
X107998791Y-75604132D01*
X107945052Y-75719904D01*
X107940688Y-75729305D01*
X107880989Y-75944570D01*
X107857251Y-76166695D01*
X107857548Y-76171848D01*
X107857548Y-76171851D01*
X107869812Y-76384547D01*
X107870110Y-76389715D01*
X107871247Y-76394761D01*
X107871248Y-76394767D01*
X107884762Y-76454731D01*
X107919222Y-76607639D01*
X108003266Y-76814616D01*
X108035244Y-76866799D01*
X108102364Y-76976329D01*
X108119987Y-77005088D01*
X108266250Y-77173938D01*
X108438126Y-77316632D01*
X108495946Y-77350419D01*
X108511445Y-77359476D01*
X108560169Y-77411114D01*
X108573240Y-77480897D01*
X108546509Y-77546669D01*
X108506055Y-77580027D01*
X108493607Y-77586507D01*
X108489474Y-77589610D01*
X108489471Y-77589612D01*
X108319100Y-77717530D01*
X108314965Y-77720635D01*
X108311393Y-77724373D01*
X108184262Y-77857408D01*
X108160629Y-77882138D01*
X108157715Y-77886410D01*
X108157714Y-77886411D01*
X108105011Y-77963671D01*
X108034743Y-78066680D01*
X108002195Y-78136799D01*
X107957183Y-78233770D01*
X107940688Y-78269305D01*
X107880989Y-78484570D01*
X107857251Y-78706695D01*
X107857548Y-78711848D01*
X107857548Y-78711851D01*
X107869812Y-78924547D01*
X107870110Y-78929715D01*
X107871247Y-78934761D01*
X107871248Y-78934767D01*
X107884762Y-78994731D01*
X107919222Y-79147639D01*
X108003266Y-79354616D01*
X108035244Y-79406799D01*
X108102364Y-79516329D01*
X108119987Y-79545088D01*
X108266250Y-79713938D01*
X108438126Y-79856632D01*
X108631000Y-79969338D01*
X108635825Y-79971180D01*
X108635826Y-79971181D01*
X108706095Y-79998014D01*
X108839692Y-80049030D01*
X108844760Y-80050061D01*
X108844763Y-80050062D01*
X108931128Y-80067633D01*
X109058597Y-80093567D01*
X109063772Y-80093757D01*
X109063774Y-80093757D01*
X109276673Y-80101564D01*
X109276677Y-80101564D01*
X109281837Y-80101753D01*
X109286957Y-80101097D01*
X109286959Y-80101097D01*
X109498288Y-80074025D01*
X109498289Y-80074025D01*
X109503416Y-80073368D01*
X109545704Y-80060681D01*
X109712429Y-80010661D01*
X109712434Y-80010659D01*
X109717384Y-80009174D01*
X109917994Y-79910896D01*
X110099860Y-79781173D01*
X110258096Y-79623489D01*
X110275325Y-79599513D01*
X110385435Y-79446277D01*
X110388453Y-79442077D01*
X110405889Y-79406799D01*
X110485136Y-79246453D01*
X110485137Y-79246451D01*
X110487430Y-79241811D01*
X110552370Y-79028069D01*
X110581529Y-78806590D01*
X110583156Y-78740000D01*
X110564852Y-78517361D01*
X110510431Y-78300702D01*
X110421354Y-78095840D01*
X110320000Y-77939170D01*
X110302822Y-77912617D01*
X110302820Y-77912614D01*
X110300014Y-77908277D01*
X110149670Y-77743051D01*
X110145619Y-77739852D01*
X110145615Y-77739848D01*
X109978414Y-77607800D01*
X109978410Y-77607798D01*
X109974359Y-77604598D01*
X109933053Y-77581796D01*
X109883084Y-77531364D01*
X109868312Y-77461921D01*
X109893428Y-77395516D01*
X109920780Y-77368909D01*
X109964603Y-77337650D01*
X110099860Y-77241173D01*
X110258096Y-77083489D01*
X110275325Y-77059513D01*
X110385435Y-76906277D01*
X110388453Y-76902077D01*
X110405889Y-76866799D01*
X110485136Y-76706453D01*
X110485137Y-76706451D01*
X110487430Y-76701811D01*
X110552370Y-76488069D01*
X110581529Y-76266590D01*
X110583156Y-76200000D01*
X110564852Y-75977361D01*
X110543919Y-75894022D01*
X110546723Y-75823081D01*
X110577028Y-75774232D01*
X115170855Y-71180405D01*
X115233167Y-71146379D01*
X115259950Y-71143500D01*
X118221991Y-71143500D01*
X118290112Y-71163502D01*
X118336605Y-71217158D01*
X118346709Y-71287432D01*
X118332723Y-71327167D01*
X118333038Y-71327303D01*
X118331096Y-71331791D01*
X118330447Y-71333635D01*
X118325855Y-71341399D01*
X118323644Y-71349010D01*
X118323643Y-71349012D01*
X118317885Y-71368831D01*
X118279438Y-71501169D01*
X118278934Y-71507574D01*
X118278933Y-71507579D01*
X118276693Y-71536042D01*
X118276500Y-71538498D01*
X118276500Y-71971502D01*
X118276693Y-71973950D01*
X118276693Y-71973958D01*
X118277131Y-71979513D01*
X118279438Y-72008831D01*
X118325855Y-72168601D01*
X118410547Y-72311807D01*
X118413229Y-72314489D01*
X118438502Y-72378861D01*
X118424600Y-72448484D01*
X118414428Y-72464312D01*
X118410547Y-72468193D01*
X118325855Y-72611399D01*
X118323644Y-72619010D01*
X118323643Y-72619012D01*
X118317885Y-72638831D01*
X118279438Y-72771169D01*
X118276500Y-72808498D01*
X118276500Y-73241502D01*
X118276693Y-73243950D01*
X118276693Y-73243958D01*
X118277131Y-73249513D01*
X118279438Y-73278831D01*
X118295471Y-73334016D01*
X118317645Y-73410340D01*
X118325855Y-73438601D01*
X118410547Y-73581807D01*
X118413229Y-73584489D01*
X118438502Y-73648861D01*
X118424600Y-73718484D01*
X118414428Y-73734312D01*
X118410547Y-73738193D01*
X118325855Y-73881399D01*
X118323644Y-73889010D01*
X118323643Y-73889012D01*
X118317885Y-73908831D01*
X118279438Y-74041169D01*
X118278934Y-74047574D01*
X118278933Y-74047579D01*
X118276693Y-74076042D01*
X118276500Y-74078498D01*
X118276500Y-74511502D01*
X118276693Y-74513950D01*
X118276693Y-74513958D01*
X118277131Y-74519513D01*
X118279438Y-74548831D01*
X118325855Y-74708601D01*
X118410547Y-74851807D01*
X118413229Y-74854489D01*
X118438502Y-74918861D01*
X118424600Y-74988484D01*
X118414428Y-75004312D01*
X118410547Y-75008193D01*
X118325855Y-75151399D01*
X118323644Y-75159010D01*
X118323643Y-75159012D01*
X118317885Y-75178831D01*
X118279438Y-75311169D01*
X118278934Y-75317574D01*
X118278933Y-75317579D01*
X118276930Y-75343034D01*
X118276500Y-75348498D01*
X118276500Y-75781502D01*
X118276693Y-75783950D01*
X118276693Y-75783958D01*
X118277131Y-75789513D01*
X118279438Y-75818831D01*
X118289450Y-75853293D01*
X118321229Y-75962677D01*
X118325855Y-75978601D01*
X118410547Y-76121807D01*
X118413229Y-76124489D01*
X118438502Y-76188861D01*
X118424600Y-76258484D01*
X118414428Y-76274312D01*
X118410547Y-76278193D01*
X118325855Y-76421399D01*
X118323644Y-76429010D01*
X118323643Y-76429012D01*
X118317885Y-76448831D01*
X118279438Y-76581169D01*
X118278934Y-76587574D01*
X118278933Y-76587579D01*
X118276978Y-76612425D01*
X118276500Y-76618498D01*
X118276500Y-77051502D01*
X118276693Y-77053950D01*
X118276693Y-77053958D01*
X118277131Y-77059513D01*
X118279438Y-77088831D01*
X118325855Y-77248601D01*
X118410547Y-77391807D01*
X118413229Y-77394489D01*
X118438502Y-77458861D01*
X118424600Y-77528484D01*
X118414428Y-77544312D01*
X118410547Y-77548193D01*
X118325855Y-77691399D01*
X118323644Y-77699010D01*
X118323643Y-77699012D01*
X118318263Y-77717530D01*
X118279438Y-77851169D01*
X118278934Y-77857574D01*
X118278933Y-77857579D01*
X118276950Y-77882782D01*
X118276500Y-77888498D01*
X118276500Y-78321502D01*
X118276693Y-78323950D01*
X118276693Y-78323958D01*
X118278881Y-78351751D01*
X118279438Y-78358831D01*
X118281233Y-78365008D01*
X118317461Y-78489707D01*
X118325855Y-78518601D01*
X118410547Y-78661807D01*
X118413229Y-78664489D01*
X118438502Y-78728861D01*
X118424600Y-78798484D01*
X118414428Y-78814312D01*
X118410547Y-78818193D01*
X118325855Y-78961399D01*
X118323644Y-78969010D01*
X118323643Y-78969012D01*
X118317885Y-78988831D01*
X118279438Y-79121169D01*
X118278934Y-79127574D01*
X118278933Y-79127579D01*
X118276978Y-79152425D01*
X118276500Y-79158498D01*
X118276500Y-79591502D01*
X118276693Y-79593950D01*
X118276693Y-79593958D01*
X118277131Y-79599513D01*
X118279438Y-79628831D01*
X118325855Y-79788601D01*
X118410547Y-79931807D01*
X118413229Y-79934489D01*
X118438502Y-79998861D01*
X118424600Y-80068484D01*
X118414428Y-80084312D01*
X118410547Y-80088193D01*
X118325855Y-80231399D01*
X118323644Y-80239010D01*
X118323643Y-80239012D01*
X118317885Y-80258831D01*
X118279438Y-80391169D01*
X118276500Y-80428498D01*
X118276500Y-80861502D01*
X118276693Y-80863950D01*
X118276693Y-80863958D01*
X118277131Y-80869513D01*
X118279438Y-80898831D01*
X118325855Y-81058601D01*
X118329892Y-81065427D01*
X118406509Y-81194980D01*
X118406511Y-81194983D01*
X118410547Y-81201807D01*
X118528193Y-81319453D01*
X118535017Y-81323489D01*
X118535020Y-81323491D01*
X118620760Y-81374197D01*
X118671399Y-81404145D01*
X118679010Y-81406356D01*
X118679012Y-81406357D01*
X118696825Y-81411532D01*
X118831169Y-81450562D01*
X118837574Y-81451066D01*
X118837579Y-81451067D01*
X118866042Y-81453307D01*
X118866050Y-81453307D01*
X118868498Y-81453500D01*
X120751502Y-81453500D01*
X120753950Y-81453307D01*
X120753958Y-81453307D01*
X120782421Y-81451067D01*
X120782426Y-81451066D01*
X120788831Y-81450562D01*
X120795007Y-81448768D01*
X120795011Y-81448767D01*
X120923176Y-81411532D01*
X120994172Y-81411735D01*
X121039991Y-81436575D01*
X121087650Y-81477136D01*
X121260294Y-81573624D01*
X121448392Y-81634740D01*
X121644777Y-81658158D01*
X121650912Y-81657686D01*
X121650914Y-81657686D01*
X121835830Y-81643457D01*
X121835834Y-81643456D01*
X121841972Y-81642984D01*
X122032463Y-81589798D01*
X122037967Y-81587018D01*
X122037969Y-81587017D01*
X122203495Y-81503404D01*
X122203497Y-81503403D01*
X122208996Y-81500625D01*
X122364847Y-81378861D01*
X122494078Y-81229145D01*
X122591769Y-81057179D01*
X122654197Y-80869513D01*
X122678985Y-80673295D01*
X122679380Y-80645000D01*
X122660080Y-80448167D01*
X122602916Y-80258831D01*
X122510066Y-80084204D01*
X122506167Y-80079424D01*
X122505715Y-80078743D01*
X122484676Y-80010935D01*
X122501105Y-79946775D01*
X122588723Y-79792542D01*
X122588725Y-79792537D01*
X122591769Y-79787179D01*
X122654197Y-79599513D01*
X122678985Y-79403295D01*
X122679380Y-79375000D01*
X122660080Y-79178167D01*
X122649341Y-79142596D01*
X122616258Y-79033023D01*
X122602916Y-78988831D01*
X122510066Y-78814204D01*
X122506167Y-78809424D01*
X122505715Y-78808743D01*
X122484676Y-78740935D01*
X122501105Y-78676775D01*
X122588723Y-78522542D01*
X122588725Y-78522537D01*
X122591769Y-78517179D01*
X122654197Y-78329513D01*
X122678985Y-78133295D01*
X122679380Y-78105000D01*
X122660080Y-77908167D01*
X122658273Y-77902180D01*
X122604697Y-77724731D01*
X122602916Y-77718831D01*
X122510066Y-77544204D01*
X122506167Y-77539424D01*
X122505715Y-77538743D01*
X122484676Y-77470935D01*
X122501105Y-77406775D01*
X122588723Y-77252542D01*
X122588725Y-77252537D01*
X122591769Y-77247179D01*
X122654197Y-77059513D01*
X122678985Y-76863295D01*
X122679380Y-76835000D01*
X122660080Y-76638167D01*
X122655551Y-76623164D01*
X122636162Y-76558947D01*
X122602916Y-76448831D01*
X122510066Y-76274204D01*
X122506167Y-76269424D01*
X122505715Y-76268743D01*
X122484676Y-76200935D01*
X122501105Y-76136775D01*
X122588723Y-75982542D01*
X122588725Y-75982537D01*
X122591769Y-75977179D01*
X122654197Y-75789513D01*
X122678985Y-75593295D01*
X122679380Y-75565000D01*
X122660080Y-75368167D01*
X122653512Y-75346411D01*
X122604697Y-75184731D01*
X122602916Y-75178831D01*
X122510066Y-75004204D01*
X122506167Y-74999424D01*
X122505715Y-74998743D01*
X122484676Y-74930935D01*
X122501105Y-74866775D01*
X122588723Y-74712542D01*
X122588725Y-74712537D01*
X122591769Y-74707179D01*
X122654197Y-74519513D01*
X122678985Y-74323295D01*
X122679380Y-74295000D01*
X122660080Y-74098167D01*
X122655551Y-74083164D01*
X122633912Y-74011496D01*
X122602916Y-73908831D01*
X122510066Y-73734204D01*
X122506167Y-73729424D01*
X122505715Y-73728743D01*
X122484676Y-73660935D01*
X122501105Y-73596775D01*
X122588723Y-73442542D01*
X122588725Y-73442537D01*
X122591769Y-73437179D01*
X122654197Y-73249513D01*
X122678985Y-73053295D01*
X122679380Y-73025000D01*
X122660080Y-72828167D01*
X122652568Y-72803284D01*
X122623821Y-72708073D01*
X122602916Y-72638831D01*
X122510066Y-72464204D01*
X122506167Y-72459424D01*
X122505715Y-72458743D01*
X122484676Y-72390935D01*
X122501105Y-72326775D01*
X122588723Y-72172542D01*
X122588725Y-72172537D01*
X122591769Y-72167179D01*
X122654197Y-71979513D01*
X122678985Y-71783295D01*
X122679380Y-71755000D01*
X122660080Y-71558167D01*
X122655551Y-71543164D01*
X122628791Y-71454533D01*
X122602916Y-71368831D01*
X122510066Y-71194204D01*
X122428460Y-71094145D01*
X122388960Y-71045713D01*
X122388957Y-71045710D01*
X122385065Y-71040938D01*
X122351890Y-71013493D01*
X122237425Y-70918799D01*
X122237421Y-70918797D01*
X122232675Y-70914870D01*
X122058701Y-70820802D01*
X121869768Y-70762318D01*
X121863643Y-70761674D01*
X121863642Y-70761674D01*
X121679204Y-70742289D01*
X121679202Y-70742289D01*
X121673075Y-70741645D01*
X121636122Y-70745008D01*
X121480919Y-70759132D01*
X121411266Y-70745387D01*
X121360102Y-70696165D01*
X121343500Y-70633651D01*
X121343500Y-70268498D01*
X121343307Y-70266042D01*
X121341067Y-70237579D01*
X121341066Y-70237574D01*
X121340562Y-70231169D01*
X121298464Y-70086265D01*
X121296357Y-70079012D01*
X121296356Y-70079010D01*
X121294145Y-70071399D01*
X121217693Y-69942125D01*
X121200234Y-69873311D01*
X121222751Y-69805979D01*
X121252086Y-69776052D01*
X121261129Y-69769482D01*
X121271048Y-69762967D01*
X121303977Y-69743493D01*
X121303981Y-69743490D01*
X121310807Y-69739453D01*
X121325971Y-69724289D01*
X121341005Y-69711448D01*
X121349632Y-69705180D01*
X121358357Y-69698841D01*
X121387803Y-69663246D01*
X121395792Y-69654468D01*
X121819604Y-69230655D01*
X121828385Y-69222665D01*
X121828387Y-69222664D01*
X121835080Y-69218416D01*
X121883620Y-69166726D01*
X121886374Y-69163885D01*
X121906926Y-69143333D01*
X121909638Y-69139837D01*
X121917349Y-69130808D01*
X121943544Y-69102913D01*
X121948972Y-69097133D01*
X121952794Y-69090181D01*
X121959301Y-69078345D01*
X121970158Y-69061816D01*
X121978447Y-69051131D01*
X121978448Y-69051129D01*
X121983304Y-69044869D01*
X122001657Y-69002456D01*
X122006868Y-68991819D01*
X122029124Y-68951337D01*
X122034457Y-68930566D01*
X122040859Y-68911864D01*
X122049379Y-68892177D01*
X122056605Y-68846552D01*
X122059013Y-68834926D01*
X122068529Y-68797865D01*
X122068529Y-68797864D01*
X122070500Y-68790188D01*
X122070500Y-68768742D01*
X122072051Y-68749031D01*
X122074166Y-68735678D01*
X122075406Y-68727849D01*
X122071059Y-68681864D01*
X122070500Y-68670006D01*
X122070500Y-63514095D01*
X122502001Y-63514095D01*
X122502338Y-63520614D01*
X122512257Y-63616206D01*
X122515149Y-63629600D01*
X122566588Y-63783784D01*
X122572761Y-63796962D01*
X122658063Y-63934807D01*
X122667099Y-63946208D01*
X122781829Y-64060739D01*
X122793240Y-64069751D01*
X122931243Y-64154816D01*
X122944424Y-64160963D01*
X123098710Y-64212138D01*
X123112086Y-64215005D01*
X123206438Y-64224672D01*
X123212854Y-64225000D01*
X123237885Y-64225000D01*
X123253124Y-64220525D01*
X123254329Y-64219135D01*
X123256000Y-64211452D01*
X123256000Y-63264115D01*
X123251525Y-63248876D01*
X123250135Y-63247671D01*
X123242452Y-63246000D01*
X122520116Y-63246000D01*
X122504877Y-63250475D01*
X122503672Y-63251865D01*
X122502001Y-63259548D01*
X122502001Y-63514095D01*
X122070500Y-63514095D01*
X122070500Y-62808950D01*
X122090502Y-62740829D01*
X122107405Y-62719855D01*
X122286905Y-62540355D01*
X122349217Y-62506329D01*
X122420032Y-62511394D01*
G37*
G04 #@! TD.AperFunction*
G04 #@! TA.AperFunction,Conductor*
G36*
X131365971Y-62197302D02*
G01*
X131386945Y-62214205D01*
X131515890Y-62343150D01*
X131549916Y-62405462D01*
X131544851Y-62476277D01*
X131502304Y-62533113D01*
X131474253Y-62547155D01*
X131470171Y-62551865D01*
X131468500Y-62559548D01*
X131468500Y-63481885D01*
X131472975Y-63497124D01*
X131474365Y-63498329D01*
X131482048Y-63500000D01*
X132216884Y-63500000D01*
X132232123Y-63495525D01*
X132233328Y-63494135D01*
X132234999Y-63486452D01*
X132234999Y-63366449D01*
X132255001Y-63298328D01*
X132308657Y-63251835D01*
X132378931Y-63241731D01*
X132443511Y-63271225D01*
X132450094Y-63277354D01*
X134889795Y-65717055D01*
X134923821Y-65779367D01*
X134926700Y-65806150D01*
X134926700Y-75480644D01*
X134926141Y-75492500D01*
X134924412Y-75500237D01*
X134924661Y-75508159D01*
X134926638Y-75571069D01*
X134926700Y-75575027D01*
X134926700Y-75604132D01*
X134927256Y-75608532D01*
X134928188Y-75620364D01*
X134929638Y-75666531D01*
X134931850Y-75674144D01*
X134931850Y-75674145D01*
X134935619Y-75687116D01*
X134939630Y-75706482D01*
X134942318Y-75727764D01*
X134945234Y-75735129D01*
X134945235Y-75735133D01*
X134959326Y-75770721D01*
X134963165Y-75781931D01*
X134976055Y-75826300D01*
X134986975Y-75844765D01*
X134995666Y-75862505D01*
X135003565Y-75882456D01*
X135030716Y-75919826D01*
X135037233Y-75929748D01*
X135056707Y-75962677D01*
X135056710Y-75962681D01*
X135060747Y-75969507D01*
X135075911Y-75984671D01*
X135088751Y-75999704D01*
X135101359Y-76017057D01*
X135136952Y-76046502D01*
X135145732Y-76054492D01*
X137729595Y-78638355D01*
X137763621Y-78700667D01*
X137766500Y-78727450D01*
X137766501Y-78988831D01*
X137766501Y-79246230D01*
X137777384Y-79351129D01*
X137779563Y-79357660D01*
X137779564Y-79357665D01*
X137825058Y-79494027D01*
X137832898Y-79517526D01*
X137925203Y-79666689D01*
X138049347Y-79790617D01*
X138198671Y-79882661D01*
X138205619Y-79884966D01*
X138205620Y-79884966D01*
X138358634Y-79935719D01*
X138358636Y-79935719D01*
X138365165Y-79937885D01*
X138468769Y-79948500D01*
X138760234Y-79948500D01*
X139056230Y-79948499D01*
X139161129Y-79937616D01*
X139167660Y-79935437D01*
X139167665Y-79935436D01*
X139320578Y-79884420D01*
X139327526Y-79882102D01*
X139476689Y-79789797D01*
X139600617Y-79665653D01*
X139602419Y-79662730D01*
X139659029Y-79622592D01*
X139729952Y-79619358D01*
X139791364Y-79654982D01*
X139796916Y-79661378D01*
X139800203Y-79666689D01*
X139924347Y-79790617D01*
X139955869Y-79810048D01*
X140003362Y-79862818D01*
X140014786Y-79932890D01*
X139986513Y-79998014D01*
X139978848Y-80006402D01*
X139299055Y-80686195D01*
X139236743Y-80720221D01*
X139209960Y-80723100D01*
X130769500Y-80723100D01*
X130701379Y-80703098D01*
X130654886Y-80649442D01*
X130643500Y-80597100D01*
X130643500Y-80428498D01*
X130640562Y-80391169D01*
X130602115Y-80258831D01*
X130596357Y-80239012D01*
X130596356Y-80239010D01*
X130594145Y-80231399D01*
X130509453Y-80088193D01*
X130506771Y-80085511D01*
X130481498Y-80021139D01*
X130495400Y-79951516D01*
X130505572Y-79935688D01*
X130509453Y-79931807D01*
X130594145Y-79788601D01*
X130640562Y-79628831D01*
X130642870Y-79599513D01*
X130643307Y-79593958D01*
X130643307Y-79593950D01*
X130643500Y-79591502D01*
X130643500Y-79158498D01*
X130643022Y-79152425D01*
X130641067Y-79127579D01*
X130641066Y-79127574D01*
X130640562Y-79121169D01*
X130602115Y-78988831D01*
X130596357Y-78969012D01*
X130596356Y-78969010D01*
X130594145Y-78961399D01*
X130509453Y-78818193D01*
X130506771Y-78815511D01*
X130481498Y-78751139D01*
X130495400Y-78681516D01*
X130505572Y-78665688D01*
X130509453Y-78661807D01*
X130594145Y-78518601D01*
X130602540Y-78489707D01*
X130638767Y-78365008D01*
X130640562Y-78358831D01*
X130641120Y-78351751D01*
X130643307Y-78323958D01*
X130643307Y-78323950D01*
X130643500Y-78321502D01*
X130643500Y-77888498D01*
X130643050Y-77882782D01*
X130641067Y-77857579D01*
X130641066Y-77857574D01*
X130640562Y-77851169D01*
X130601737Y-77717530D01*
X130596357Y-77699012D01*
X130596356Y-77699010D01*
X130594145Y-77691399D01*
X130509453Y-77548193D01*
X130506771Y-77545511D01*
X130481498Y-77481139D01*
X130495400Y-77411516D01*
X130505572Y-77395688D01*
X130509453Y-77391807D01*
X130594145Y-77248601D01*
X130640562Y-77088831D01*
X130642870Y-77059513D01*
X130643307Y-77053958D01*
X130643307Y-77053950D01*
X130643500Y-77051502D01*
X130643500Y-76618498D01*
X130643022Y-76612425D01*
X130641067Y-76587579D01*
X130641066Y-76587574D01*
X130640562Y-76581169D01*
X130602115Y-76448831D01*
X130596357Y-76429012D01*
X130596356Y-76429010D01*
X130594145Y-76421399D01*
X130509453Y-76278193D01*
X130506771Y-76275511D01*
X130481498Y-76211139D01*
X130495400Y-76141516D01*
X130505572Y-76125688D01*
X130509453Y-76121807D01*
X130594145Y-75978601D01*
X130598772Y-75962677D01*
X130630550Y-75853293D01*
X130640562Y-75818831D01*
X130642870Y-75789513D01*
X130643307Y-75783958D01*
X130643307Y-75783950D01*
X130643500Y-75781502D01*
X130643500Y-75348498D01*
X130643070Y-75343034D01*
X130641067Y-75317579D01*
X130641066Y-75317574D01*
X130640562Y-75311169D01*
X130602115Y-75178831D01*
X130596357Y-75159012D01*
X130596356Y-75159010D01*
X130594145Y-75151399D01*
X130509453Y-75008193D01*
X130506771Y-75005511D01*
X130481498Y-74941139D01*
X130495400Y-74871516D01*
X130505572Y-74855688D01*
X130509453Y-74851807D01*
X130594145Y-74708601D01*
X130640562Y-74548831D01*
X130642870Y-74519513D01*
X130643307Y-74513958D01*
X130643307Y-74513950D01*
X130643500Y-74511502D01*
X130643500Y-74078498D01*
X130643307Y-74076042D01*
X130641067Y-74047579D01*
X130641066Y-74047574D01*
X130640562Y-74041169D01*
X130602115Y-73908831D01*
X130596357Y-73889012D01*
X130596356Y-73889010D01*
X130594145Y-73881399D01*
X130509453Y-73738193D01*
X130506771Y-73735511D01*
X130481498Y-73671139D01*
X130495400Y-73601516D01*
X130505572Y-73585688D01*
X130509453Y-73581807D01*
X130594145Y-73438601D01*
X130602356Y-73410340D01*
X130624529Y-73334016D01*
X130640562Y-73278831D01*
X130642870Y-73249513D01*
X130643307Y-73243958D01*
X130643307Y-73243950D01*
X130643500Y-73241502D01*
X130643500Y-72808498D01*
X130640562Y-72771169D01*
X130602115Y-72638831D01*
X130596357Y-72619012D01*
X130596356Y-72619010D01*
X130594145Y-72611399D01*
X130509453Y-72468193D01*
X130506771Y-72465511D01*
X130481498Y-72401139D01*
X130495400Y-72331516D01*
X130505572Y-72315688D01*
X130509453Y-72311807D01*
X130594145Y-72168601D01*
X130640562Y-72008831D01*
X130642870Y-71979513D01*
X130643307Y-71973958D01*
X130643307Y-71973950D01*
X130643500Y-71971502D01*
X130643500Y-71538498D01*
X130643307Y-71536042D01*
X130641067Y-71507579D01*
X130641066Y-71507574D01*
X130640562Y-71501169D01*
X130602115Y-71368831D01*
X130596357Y-71349012D01*
X130596356Y-71349010D01*
X130594145Y-71341399D01*
X130562757Y-71288326D01*
X130545299Y-71219512D01*
X130567816Y-71152180D01*
X130623160Y-71107711D01*
X130636056Y-71103193D01*
X130667200Y-71094145D01*
X130685665Y-71083225D01*
X130703405Y-71074534D01*
X130723356Y-71066635D01*
X130760729Y-71039482D01*
X130770648Y-71032967D01*
X130803577Y-71013493D01*
X130803581Y-71013490D01*
X130810407Y-71009453D01*
X130825571Y-70994289D01*
X130840605Y-70981448D01*
X130851543Y-70973501D01*
X130857957Y-70968841D01*
X130887403Y-70933247D01*
X130895392Y-70924468D01*
X131725605Y-70094255D01*
X131734385Y-70086265D01*
X131734387Y-70086263D01*
X131741080Y-70082016D01*
X131757454Y-70064580D01*
X131789604Y-70030343D01*
X131792359Y-70027501D01*
X131812927Y-70006933D01*
X131815647Y-70003426D01*
X131823353Y-69994404D01*
X131840907Y-69975711D01*
X131854972Y-69960733D01*
X131858794Y-69953781D01*
X131865303Y-69941942D01*
X131876157Y-69925418D01*
X131884445Y-69914732D01*
X131889304Y-69908468D01*
X131894928Y-69895472D01*
X131907654Y-69866065D01*
X131912876Y-69855405D01*
X131931305Y-69821884D01*
X131931306Y-69821882D01*
X131935124Y-69814937D01*
X131940459Y-69794159D01*
X131946858Y-69775469D01*
X131955380Y-69755776D01*
X131962606Y-69710152D01*
X131965013Y-69698529D01*
X131974528Y-69661468D01*
X131976500Y-69653788D01*
X131976500Y-69632341D01*
X131978051Y-69612631D01*
X131980166Y-69599277D01*
X131981406Y-69591448D01*
X131977059Y-69545459D01*
X131976500Y-69533604D01*
X131976500Y-65741056D01*
X131977059Y-65729200D01*
X131977059Y-65729197D01*
X131978788Y-65721463D01*
X131976562Y-65650631D01*
X131976500Y-65646673D01*
X131976500Y-65617568D01*
X131975944Y-65613168D01*
X131975012Y-65601330D01*
X131974993Y-65600702D01*
X131973562Y-65555169D01*
X131967580Y-65534579D01*
X131963570Y-65515216D01*
X131961875Y-65501796D01*
X131961875Y-65501795D01*
X131960882Y-65493936D01*
X131957966Y-65486571D01*
X131957965Y-65486567D01*
X131943874Y-65450979D01*
X131940035Y-65439769D01*
X131927145Y-65395400D01*
X131916225Y-65376935D01*
X131907534Y-65359195D01*
X131899635Y-65339244D01*
X131872482Y-65301871D01*
X131865967Y-65291952D01*
X131846493Y-65259023D01*
X131846490Y-65259019D01*
X131842453Y-65252193D01*
X131827289Y-65237029D01*
X131814448Y-65221995D01*
X131808300Y-65213533D01*
X131801841Y-65204643D01*
X131766247Y-65175197D01*
X131757468Y-65167208D01*
X131708367Y-65118107D01*
X131674341Y-65055795D01*
X131679406Y-64984980D01*
X131721953Y-64928144D01*
X131757587Y-64909488D01*
X131793782Y-64897413D01*
X131806962Y-64891239D01*
X131944807Y-64805937D01*
X131956208Y-64796901D01*
X132070739Y-64682171D01*
X132079751Y-64670760D01*
X132164816Y-64532757D01*
X132170963Y-64519576D01*
X132222138Y-64365290D01*
X132225005Y-64351914D01*
X132234672Y-64257562D01*
X132235000Y-64251146D01*
X132235000Y-64026115D01*
X132230525Y-64010876D01*
X132229135Y-64009671D01*
X132221452Y-64008000D01*
X131086500Y-64008000D01*
X131018379Y-63987998D01*
X130971886Y-63934342D01*
X130960500Y-63882000D01*
X130960500Y-62921659D01*
X130961059Y-62909803D01*
X130962789Y-62902063D01*
X130962449Y-62891227D01*
X130960562Y-62831211D01*
X130960500Y-62827253D01*
X130960500Y-62564116D01*
X130956025Y-62548877D01*
X130954635Y-62547672D01*
X130941247Y-62544760D01*
X130878934Y-62510735D01*
X130866097Y-62495704D01*
X130856479Y-62482466D01*
X130849967Y-62472552D01*
X130830493Y-62439623D01*
X130830490Y-62439619D01*
X130826453Y-62432793D01*
X130811289Y-62417629D01*
X130798448Y-62402595D01*
X130790501Y-62391657D01*
X130785841Y-62385243D01*
X130786210Y-62384975D01*
X130756474Y-62326205D01*
X130763760Y-62255583D01*
X130808069Y-62200111D01*
X130880375Y-62177300D01*
X131297850Y-62177300D01*
X131365971Y-62197302D01*
G37*
G04 #@! TD.AperFunction*
G04 #@! TA.AperFunction,Conductor*
G36*
X108387990Y-60297704D02*
G01*
X108394573Y-60303833D01*
X109204345Y-61113605D01*
X109212335Y-61122385D01*
X109216584Y-61129080D01*
X109222362Y-61134506D01*
X109222363Y-61134507D01*
X109268257Y-61177604D01*
X109271099Y-61180359D01*
X109291667Y-61200927D01*
X109295170Y-61203644D01*
X109304195Y-61211352D01*
X109337867Y-61242972D01*
X109344818Y-61246793D01*
X109344819Y-61246794D01*
X109356658Y-61253303D01*
X109373182Y-61264157D01*
X109383865Y-61272443D01*
X109390132Y-61277304D01*
X109397407Y-61280452D01*
X109432536Y-61295654D01*
X109443181Y-61300869D01*
X109483663Y-61323124D01*
X109491337Y-61325094D01*
X109491344Y-61325097D01*
X109504426Y-61328455D01*
X109523134Y-61334860D01*
X109542823Y-61343380D01*
X109550649Y-61344619D01*
X109550651Y-61344620D01*
X109575159Y-61348501D01*
X109588459Y-61350608D01*
X109600070Y-61353012D01*
X109631107Y-61360981D01*
X109637135Y-61362529D01*
X109637136Y-61362529D01*
X109644812Y-61364500D01*
X109666258Y-61364500D01*
X109685968Y-61366051D01*
X109699322Y-61368166D01*
X109699323Y-61368166D01*
X109707152Y-61369406D01*
X109753141Y-61365059D01*
X109764996Y-61364500D01*
X120332494Y-61364500D01*
X120400615Y-61384502D01*
X120423132Y-61402974D01*
X120425204Y-61405120D01*
X120429035Y-61409953D01*
X120579650Y-61538136D01*
X120752294Y-61634624D01*
X120940392Y-61695740D01*
X120976330Y-61700025D01*
X121041603Y-61727951D01*
X121081416Y-61786734D01*
X121083129Y-61857710D01*
X121050507Y-61914234D01*
X121004396Y-61960345D01*
X120995613Y-61968337D01*
X120988920Y-61972584D01*
X120983494Y-61978362D01*
X120940395Y-62024258D01*
X120937640Y-62027100D01*
X120917073Y-62047667D01*
X120914356Y-62051170D01*
X120906648Y-62060195D01*
X120875028Y-62093867D01*
X120871207Y-62100818D01*
X120871206Y-62100819D01*
X120864697Y-62112658D01*
X120853843Y-62129182D01*
X120846018Y-62139271D01*
X120840696Y-62146132D01*
X120837549Y-62153404D01*
X120837548Y-62153406D01*
X120822346Y-62188535D01*
X120817124Y-62199195D01*
X120814059Y-62204771D01*
X120794876Y-62239663D01*
X120789541Y-62260441D01*
X120783142Y-62279131D01*
X120774620Y-62298824D01*
X120773380Y-62306655D01*
X120767394Y-62344448D01*
X120764987Y-62356071D01*
X120764518Y-62357898D01*
X120753500Y-62400812D01*
X120753500Y-62422259D01*
X120751949Y-62441969D01*
X120748594Y-62463152D01*
X120749340Y-62471043D01*
X120752941Y-62509138D01*
X120753500Y-62520996D01*
X120753500Y-65741000D01*
X120733498Y-65809121D01*
X120679842Y-65855614D01*
X120627500Y-65867000D01*
X120082115Y-65867000D01*
X120066876Y-65871475D01*
X120065671Y-65872865D01*
X120064000Y-65880548D01*
X120064000Y-66803000D01*
X120043998Y-66871121D01*
X119990342Y-66917614D01*
X119938000Y-66929000D01*
X118298122Y-66929000D01*
X118284591Y-66932973D01*
X118283456Y-66940871D01*
X118324107Y-67080790D01*
X118330354Y-67095225D01*
X118331026Y-67096362D01*
X118331281Y-67097369D01*
X118333501Y-67102498D01*
X118332674Y-67102856D01*
X118348485Y-67165178D01*
X118325967Y-67232510D01*
X118270623Y-67276978D01*
X118222572Y-67286500D01*
X111449950Y-67286500D01*
X111381829Y-67266498D01*
X111360855Y-67249595D01*
X110579457Y-66468197D01*
X110545431Y-66405885D01*
X110545523Y-66403605D01*
X118285061Y-66403605D01*
X118285101Y-66417706D01*
X118292370Y-66421000D01*
X119537885Y-66421000D01*
X119553124Y-66416525D01*
X119554329Y-66415135D01*
X119556000Y-66407452D01*
X119556000Y-65885116D01*
X119551525Y-65869877D01*
X119550135Y-65868672D01*
X119542452Y-65867001D01*
X118871017Y-65867001D01*
X118866080Y-65867195D01*
X118837664Y-65869430D01*
X118825069Y-65871730D01*
X118679210Y-65914107D01*
X118664779Y-65920352D01*
X118535322Y-65996911D01*
X118522896Y-66006551D01*
X118416551Y-66112896D01*
X118406911Y-66125322D01*
X118330352Y-66254779D01*
X118324107Y-66269210D01*
X118285061Y-66403605D01*
X110545523Y-66403605D01*
X110547994Y-66342473D01*
X110552370Y-66328069D01*
X110581529Y-66106590D01*
X110581611Y-66103240D01*
X110583074Y-66043365D01*
X110583074Y-66043361D01*
X110583156Y-66040000D01*
X110564852Y-65817361D01*
X110510431Y-65600702D01*
X110421354Y-65395840D01*
X110320000Y-65239170D01*
X110302822Y-65212617D01*
X110302820Y-65212614D01*
X110300014Y-65208277D01*
X110296532Y-65204450D01*
X110152798Y-65046488D01*
X110121746Y-64982642D01*
X110130141Y-64912143D01*
X110175317Y-64857375D01*
X110201761Y-64843706D01*
X110308297Y-64803767D01*
X110316705Y-64800615D01*
X110433261Y-64713261D01*
X110520615Y-64596705D01*
X110571745Y-64460316D01*
X110578500Y-64398134D01*
X110578500Y-62601866D01*
X110571745Y-62539684D01*
X110520615Y-62403295D01*
X110433261Y-62286739D01*
X110316705Y-62199385D01*
X110180316Y-62148255D01*
X110118134Y-62141500D01*
X108844950Y-62141500D01*
X108776829Y-62121498D01*
X108755855Y-62104595D01*
X108216383Y-61565123D01*
X108182357Y-61502811D01*
X108179478Y-61476028D01*
X108179478Y-60392928D01*
X108199480Y-60324807D01*
X108253136Y-60278314D01*
X108323410Y-60268210D01*
X108387990Y-60297704D01*
G37*
G04 #@! TD.AperFunction*
G04 #@! TA.AperFunction,Conductor*
G36*
X137935304Y-39487302D02*
G01*
X137981797Y-39540958D01*
X137991901Y-39611232D01*
X137962407Y-39675812D01*
X137956356Y-39682317D01*
X137929558Y-39709162D01*
X137929554Y-39709167D01*
X137924383Y-39714347D01*
X137832339Y-39863671D01*
X137777115Y-40030165D01*
X137766500Y-40133769D01*
X137766500Y-40412971D01*
X137746498Y-40481092D01*
X137692842Y-40527585D01*
X137622568Y-40537689D01*
X137621718Y-40537541D01*
X137617768Y-40536318D01*
X137534678Y-40527585D01*
X137427204Y-40516289D01*
X137427202Y-40516289D01*
X137421075Y-40515645D01*
X137338576Y-40523153D01*
X137230251Y-40533011D01*
X137230248Y-40533012D01*
X137224112Y-40533570D01*
X137218206Y-40535308D01*
X137218202Y-40535309D01*
X137113076Y-40566249D01*
X137034381Y-40589410D01*
X137028923Y-40592263D01*
X137028919Y-40592265D01*
X136938147Y-40639720D01*
X136859110Y-40681040D01*
X136704975Y-40804968D01*
X136577846Y-40956474D01*
X136574879Y-40961872D01*
X136574875Y-40961877D01*
X136541609Y-41022389D01*
X136482567Y-41129787D01*
X136480706Y-41135654D01*
X136480705Y-41135656D01*
X136433030Y-41285946D01*
X136422765Y-41318306D01*
X136400719Y-41514851D01*
X136401473Y-41523831D01*
X136415848Y-41695020D01*
X136417268Y-41711934D01*
X136471783Y-41902050D01*
X136498474Y-41953984D01*
X136541313Y-42037339D01*
X136562187Y-42077956D01*
X136685035Y-42232953D01*
X136689728Y-42236947D01*
X136689729Y-42236948D01*
X136801364Y-42331956D01*
X136835650Y-42361136D01*
X137008294Y-42457624D01*
X137196392Y-42518740D01*
X137392777Y-42542158D01*
X137398912Y-42541686D01*
X137398914Y-42541686D01*
X137583830Y-42527457D01*
X137583834Y-42527456D01*
X137589972Y-42526984D01*
X137609112Y-42521640D01*
X137680100Y-42522587D01*
X137739309Y-42561764D01*
X137767939Y-42626732D01*
X137768337Y-42655840D01*
X137766500Y-42673769D01*
X137766500Y-42952971D01*
X137746498Y-43021092D01*
X137692842Y-43067585D01*
X137622568Y-43077689D01*
X137621718Y-43077541D01*
X137617768Y-43076318D01*
X137520930Y-43066140D01*
X137427204Y-43056289D01*
X137427202Y-43056289D01*
X137421075Y-43055645D01*
X137338576Y-43063153D01*
X137230251Y-43073011D01*
X137230248Y-43073012D01*
X137224112Y-43073570D01*
X137218206Y-43075308D01*
X137218202Y-43075309D01*
X137134703Y-43099884D01*
X137034381Y-43129410D01*
X137028923Y-43132263D01*
X137028919Y-43132265D01*
X136948069Y-43174533D01*
X136859110Y-43221040D01*
X136704975Y-43344968D01*
X136577846Y-43496474D01*
X136574879Y-43501872D01*
X136574875Y-43501877D01*
X136527728Y-43587639D01*
X136482567Y-43669787D01*
X136480706Y-43675654D01*
X136480705Y-43675656D01*
X136437726Y-43811144D01*
X136422765Y-43858306D01*
X136400719Y-44054851D01*
X136403794Y-44091474D01*
X136416208Y-44239306D01*
X136417268Y-44251934D01*
X136434675Y-44312640D01*
X136451197Y-44370257D01*
X136471783Y-44442050D01*
X136474602Y-44447535D01*
X136550905Y-44596003D01*
X136562187Y-44617956D01*
X136685035Y-44772953D01*
X136689728Y-44776947D01*
X136689729Y-44776948D01*
X136829074Y-44895539D01*
X136835650Y-44901136D01*
X137008294Y-44997624D01*
X137196392Y-45058740D01*
X137392777Y-45082158D01*
X137398912Y-45081686D01*
X137398914Y-45081686D01*
X137583830Y-45067457D01*
X137583834Y-45067456D01*
X137589972Y-45066984D01*
X137609112Y-45061640D01*
X137680100Y-45062587D01*
X137739309Y-45101764D01*
X137767939Y-45166732D01*
X137768337Y-45195840D01*
X137766500Y-45213769D01*
X137766500Y-45365971D01*
X137746498Y-45434092D01*
X137692842Y-45480585D01*
X137622568Y-45490689D01*
X137621718Y-45490541D01*
X137617768Y-45489318D01*
X137534678Y-45480585D01*
X137427204Y-45469289D01*
X137427202Y-45469289D01*
X137421075Y-45468645D01*
X137338576Y-45476153D01*
X137230251Y-45486011D01*
X137230248Y-45486012D01*
X137224112Y-45486570D01*
X137218206Y-45488308D01*
X137218202Y-45488309D01*
X137116508Y-45518239D01*
X137034381Y-45542410D01*
X137028923Y-45545263D01*
X137028919Y-45545265D01*
X136958146Y-45582265D01*
X136859110Y-45634040D01*
X136704975Y-45757968D01*
X136577846Y-45909474D01*
X136574879Y-45914872D01*
X136574875Y-45914877D01*
X136525457Y-46004769D01*
X136482567Y-46082787D01*
X136422765Y-46271306D01*
X136400719Y-46467851D01*
X136402527Y-46489380D01*
X136416637Y-46657417D01*
X136417268Y-46664934D01*
X136418967Y-46670858D01*
X136457914Y-46806682D01*
X136471783Y-46855050D01*
X136474602Y-46860535D01*
X136548098Y-47003541D01*
X136562187Y-47030956D01*
X136685035Y-47185953D01*
X136689728Y-47189947D01*
X136689729Y-47189948D01*
X136707579Y-47205139D01*
X136835650Y-47314136D01*
X137008294Y-47410624D01*
X137196392Y-47471740D01*
X137392777Y-47495158D01*
X137398912Y-47494686D01*
X137398914Y-47494686D01*
X137583830Y-47480457D01*
X137583834Y-47480456D01*
X137589972Y-47479984D01*
X137630423Y-47468690D01*
X137701411Y-47469637D01*
X137760620Y-47508814D01*
X137789250Y-47573782D01*
X137783898Y-47629715D01*
X137777115Y-47650165D01*
X137766500Y-47753769D01*
X137766500Y-47905971D01*
X137746498Y-47974092D01*
X137692842Y-48020585D01*
X137622568Y-48030689D01*
X137621718Y-48030541D01*
X137617768Y-48029318D01*
X137534678Y-48020585D01*
X137427204Y-48009289D01*
X137427202Y-48009289D01*
X137421075Y-48008645D01*
X137338576Y-48016153D01*
X137230251Y-48026011D01*
X137230248Y-48026012D01*
X137224112Y-48026570D01*
X137218206Y-48028308D01*
X137218202Y-48028309D01*
X137160040Y-48045427D01*
X137034381Y-48082410D01*
X137028923Y-48085263D01*
X137028919Y-48085265D01*
X136967987Y-48117120D01*
X136859110Y-48174040D01*
X136704975Y-48297968D01*
X136577846Y-48449474D01*
X136574879Y-48454872D01*
X136574875Y-48454877D01*
X136523643Y-48548069D01*
X136482567Y-48622787D01*
X136422765Y-48811306D01*
X136400719Y-49007851D01*
X136401235Y-49013995D01*
X136416208Y-49192306D01*
X136417268Y-49204934D01*
X136418967Y-49210858D01*
X136466502Y-49376632D01*
X136471783Y-49395050D01*
X136474602Y-49400535D01*
X136548098Y-49543541D01*
X136562187Y-49570956D01*
X136685035Y-49725953D01*
X136689728Y-49729947D01*
X136689729Y-49729948D01*
X136771862Y-49799848D01*
X136835650Y-49854136D01*
X137008294Y-49950624D01*
X137196392Y-50011740D01*
X137392777Y-50035158D01*
X137398912Y-50034686D01*
X137398914Y-50034686D01*
X137583830Y-50020457D01*
X137583834Y-50020456D01*
X137589972Y-50019984D01*
X137630423Y-50008690D01*
X137701411Y-50009637D01*
X137760620Y-50048814D01*
X137789250Y-50113782D01*
X137783898Y-50169715D01*
X137777115Y-50190165D01*
X137766500Y-50293769D01*
X137766500Y-50572971D01*
X137746498Y-50641092D01*
X137692842Y-50687585D01*
X137622568Y-50697689D01*
X137621718Y-50697541D01*
X137617768Y-50696318D01*
X137534678Y-50687585D01*
X137427204Y-50676289D01*
X137427202Y-50676289D01*
X137421075Y-50675645D01*
X137338576Y-50683153D01*
X137230251Y-50693011D01*
X137230248Y-50693012D01*
X137224112Y-50693570D01*
X137218206Y-50695308D01*
X137218202Y-50695309D01*
X137128169Y-50721807D01*
X137034381Y-50749410D01*
X137028923Y-50752263D01*
X137028919Y-50752265D01*
X136944027Y-50796646D01*
X136859110Y-50841040D01*
X136704975Y-50964968D01*
X136577846Y-51116474D01*
X136574879Y-51121872D01*
X136574875Y-51121877D01*
X136538756Y-51187579D01*
X136482567Y-51289787D01*
X136480706Y-51295654D01*
X136480705Y-51295656D01*
X136424627Y-51472436D01*
X136422765Y-51478306D01*
X136400719Y-51674851D01*
X136401235Y-51680995D01*
X136415848Y-51855020D01*
X136417268Y-51871934D01*
X136436283Y-51938246D01*
X136457293Y-52011516D01*
X136471783Y-52062050D01*
X136482733Y-52083357D01*
X136541313Y-52197339D01*
X136562187Y-52237956D01*
X136685035Y-52392953D01*
X136689728Y-52396947D01*
X136689729Y-52396948D01*
X136820541Y-52508277D01*
X136835650Y-52521136D01*
X137008294Y-52617624D01*
X137196392Y-52678740D01*
X137392777Y-52702158D01*
X137398912Y-52701686D01*
X137398914Y-52701686D01*
X137583830Y-52687457D01*
X137583834Y-52687456D01*
X137589972Y-52686984D01*
X137609112Y-52681640D01*
X137680100Y-52682587D01*
X137739309Y-52721764D01*
X137767939Y-52786732D01*
X137768337Y-52815840D01*
X137766500Y-52833769D01*
X137766501Y-53118601D01*
X137766501Y-53239971D01*
X137746499Y-53308091D01*
X137692844Y-53354585D01*
X137622570Y-53364689D01*
X137621715Y-53364540D01*
X137617768Y-53363318D01*
X137611650Y-53362675D01*
X137611645Y-53362674D01*
X137427204Y-53343289D01*
X137427202Y-53343289D01*
X137421075Y-53342645D01*
X137338576Y-53350153D01*
X137230251Y-53360011D01*
X137230248Y-53360012D01*
X137224112Y-53360570D01*
X137218206Y-53362308D01*
X137218202Y-53362309D01*
X137113076Y-53393249D01*
X137034381Y-53416410D01*
X137028923Y-53419263D01*
X137028919Y-53419265D01*
X136986111Y-53441645D01*
X136859110Y-53508040D01*
X136704975Y-53631968D01*
X136577846Y-53783474D01*
X136574879Y-53788872D01*
X136574875Y-53788877D01*
X136523624Y-53882104D01*
X136482567Y-53956787D01*
X136480706Y-53962654D01*
X136480705Y-53962656D01*
X136454179Y-54046277D01*
X136422765Y-54145306D01*
X136400719Y-54341851D01*
X136401235Y-54347995D01*
X136416751Y-54532775D01*
X136417268Y-54538934D01*
X136437409Y-54609174D01*
X136469796Y-54722120D01*
X136471783Y-54729050D01*
X136562187Y-54904956D01*
X136685035Y-55059953D01*
X136689728Y-55063947D01*
X136689729Y-55063948D01*
X136801364Y-55158956D01*
X136835650Y-55188136D01*
X137008294Y-55284624D01*
X137196392Y-55345740D01*
X137392777Y-55369158D01*
X137398912Y-55368686D01*
X137398914Y-55368686D01*
X137583830Y-55354457D01*
X137583834Y-55354456D01*
X137589972Y-55353984D01*
X137606619Y-55349336D01*
X137677607Y-55350283D01*
X137736816Y-55389459D01*
X137765445Y-55454428D01*
X137766500Y-55470695D01*
X137766500Y-55563769D01*
X137746498Y-55631890D01*
X137692842Y-55678383D01*
X137622568Y-55688487D01*
X137603241Y-55684134D01*
X137490768Y-55649318D01*
X137484643Y-55648674D01*
X137484642Y-55648674D01*
X137300204Y-55629289D01*
X137300202Y-55629289D01*
X137294075Y-55628645D01*
X137211576Y-55636153D01*
X137103251Y-55646011D01*
X137103248Y-55646012D01*
X137097112Y-55646570D01*
X137091206Y-55648308D01*
X137091202Y-55648309D01*
X137033040Y-55665427D01*
X136907381Y-55702410D01*
X136901923Y-55705263D01*
X136901919Y-55705265D01*
X136812525Y-55752000D01*
X136732110Y-55794040D01*
X136577975Y-55917968D01*
X136450846Y-56069474D01*
X136447879Y-56074872D01*
X136447875Y-56074877D01*
X136393982Y-56172910D01*
X136355567Y-56242787D01*
X136295765Y-56431306D01*
X136273719Y-56627851D01*
X136274235Y-56633995D01*
X136288467Y-56803482D01*
X136290268Y-56824934D01*
X136291967Y-56830858D01*
X136330219Y-56964258D01*
X136344783Y-57015050D01*
X136347602Y-57020535D01*
X136421098Y-57163541D01*
X136435187Y-57190956D01*
X136558035Y-57345953D01*
X136562728Y-57349947D01*
X136562729Y-57349948D01*
X136580579Y-57365139D01*
X136708650Y-57474136D01*
X136881294Y-57570624D01*
X137069392Y-57631740D01*
X137265777Y-57655158D01*
X137271912Y-57654686D01*
X137271914Y-57654686D01*
X137456830Y-57640457D01*
X137456834Y-57640456D01*
X137462972Y-57639984D01*
X137643384Y-57589612D01*
X137714373Y-57590559D01*
X137773582Y-57629735D01*
X137802211Y-57694703D01*
X137796859Y-57750638D01*
X137777115Y-57810165D01*
X137776414Y-57817010D01*
X137771560Y-57864381D01*
X137744718Y-57930108D01*
X137686603Y-57970890D01*
X137608957Y-57971903D01*
X137555845Y-57955463D01*
X137490768Y-57935318D01*
X137484643Y-57934674D01*
X137484642Y-57934674D01*
X137300204Y-57915289D01*
X137300202Y-57915289D01*
X137294075Y-57914645D01*
X137211576Y-57922153D01*
X137103251Y-57932011D01*
X137103248Y-57932012D01*
X137097112Y-57932570D01*
X137091206Y-57934308D01*
X137091202Y-57934309D01*
X136986076Y-57965249D01*
X136907381Y-57988410D01*
X136901923Y-57991263D01*
X136901919Y-57991265D01*
X136823196Y-58032421D01*
X136732110Y-58080040D01*
X136577975Y-58203968D01*
X136450846Y-58355474D01*
X136447879Y-58360872D01*
X136447875Y-58360877D01*
X136382360Y-58480050D01*
X136355567Y-58528787D01*
X136353706Y-58534654D01*
X136353705Y-58534656D01*
X136297627Y-58711436D01*
X136295765Y-58717306D01*
X136273719Y-58913851D01*
X136274235Y-58919995D01*
X136284007Y-59036366D01*
X136290268Y-59110934D01*
X136305423Y-59163787D01*
X136337024Y-59273990D01*
X136344783Y-59301050D01*
X136347602Y-59306535D01*
X136429270Y-59465442D01*
X136435187Y-59476956D01*
X136558035Y-59631953D01*
X136562728Y-59635947D01*
X136562729Y-59635948D01*
X136698503Y-59751500D01*
X136708650Y-59760136D01*
X136881294Y-59856624D01*
X137069392Y-59917740D01*
X137265777Y-59941158D01*
X137271912Y-59940686D01*
X137271914Y-59940686D01*
X137456830Y-59926457D01*
X137456834Y-59926456D01*
X137462972Y-59925984D01*
X137653463Y-59872798D01*
X137658967Y-59870018D01*
X137658969Y-59870017D01*
X137825067Y-59786115D01*
X137894889Y-59773255D01*
X137960580Y-59800184D01*
X138001283Y-59858354D01*
X138004076Y-59929296D01*
X137971050Y-59987598D01*
X137924383Y-60034347D01*
X137920543Y-60040577D01*
X137920542Y-60040578D01*
X137836918Y-60176243D01*
X137832339Y-60183671D01*
X137824942Y-60205973D01*
X137821892Y-60215168D01*
X137781461Y-60273528D01*
X137715896Y-60300764D01*
X137702299Y-60301500D01*
X136468950Y-60301500D01*
X136400829Y-60281498D01*
X136379855Y-60264595D01*
X133492655Y-57377395D01*
X133484665Y-57368615D01*
X133484663Y-57368613D01*
X133480416Y-57361920D01*
X133428742Y-57313395D01*
X133425901Y-57310641D01*
X133405333Y-57290073D01*
X133401826Y-57287353D01*
X133392804Y-57279647D01*
X133359133Y-57248028D01*
X133346482Y-57241073D01*
X133340342Y-57237697D01*
X133323818Y-57226843D01*
X133313132Y-57218555D01*
X133306868Y-57213696D01*
X133299596Y-57210549D01*
X133299594Y-57210548D01*
X133264465Y-57195346D01*
X133253805Y-57190124D01*
X133220284Y-57171695D01*
X133220282Y-57171694D01*
X133213337Y-57167876D01*
X133192559Y-57162541D01*
X133173869Y-57156142D01*
X133154176Y-57147620D01*
X133108552Y-57140394D01*
X133096929Y-57137987D01*
X133068928Y-57130798D01*
X133052188Y-57126500D01*
X133030741Y-57126500D01*
X133011031Y-57124949D01*
X132997677Y-57122834D01*
X132989848Y-57121594D01*
X132943859Y-57125941D01*
X132932004Y-57126500D01*
X130698009Y-57126500D01*
X130629888Y-57106498D01*
X130583395Y-57052842D01*
X130573291Y-56982568D01*
X130587277Y-56942833D01*
X130586962Y-56942697D01*
X130588904Y-56938209D01*
X130589553Y-56936365D01*
X130594145Y-56928601D01*
X130640562Y-56768831D01*
X130641521Y-56756656D01*
X130643307Y-56733958D01*
X130643307Y-56733950D01*
X130643500Y-56731502D01*
X130643500Y-56298498D01*
X130640562Y-56261169D01*
X130605320Y-56139865D01*
X130596357Y-56109012D01*
X130596356Y-56109010D01*
X130594145Y-56101399D01*
X130509453Y-55958193D01*
X130506771Y-55955511D01*
X130481498Y-55891139D01*
X130495400Y-55821516D01*
X130505572Y-55805688D01*
X130509453Y-55801807D01*
X130594145Y-55658601D01*
X130597641Y-55646570D01*
X130638767Y-55505008D01*
X130640562Y-55498831D01*
X130642777Y-55470695D01*
X130643307Y-55463958D01*
X130643307Y-55463950D01*
X130643500Y-55461502D01*
X130643500Y-55028498D01*
X130641308Y-55000642D01*
X130641067Y-54997579D01*
X130641066Y-54997574D01*
X130640562Y-54991169D01*
X130594145Y-54831399D01*
X130509453Y-54688193D01*
X130506771Y-54685511D01*
X130481498Y-54621139D01*
X130495400Y-54551516D01*
X130505572Y-54535688D01*
X130509453Y-54531807D01*
X130594145Y-54388601D01*
X130640562Y-54228831D01*
X130641521Y-54216656D01*
X130643307Y-54193958D01*
X130643307Y-54193950D01*
X130643500Y-54191502D01*
X130643500Y-53758498D01*
X130640562Y-53721169D01*
X130594145Y-53561399D01*
X130509453Y-53418193D01*
X130506771Y-53415511D01*
X130481498Y-53351139D01*
X130495400Y-53281516D01*
X130505572Y-53265688D01*
X130509453Y-53261807D01*
X130594145Y-53118601D01*
X130640562Y-52958831D01*
X130641930Y-52941457D01*
X130643307Y-52923958D01*
X130643307Y-52923950D01*
X130643500Y-52921502D01*
X130643500Y-52488498D01*
X130643248Y-52485290D01*
X130641067Y-52457579D01*
X130641066Y-52457574D01*
X130640562Y-52451169D01*
X130594145Y-52291399D01*
X130509453Y-52148193D01*
X130506771Y-52145511D01*
X130481498Y-52081139D01*
X130495400Y-52011516D01*
X130505572Y-51995688D01*
X130509453Y-51991807D01*
X130594145Y-51848601D01*
X130640562Y-51688831D01*
X130641663Y-51674851D01*
X130643307Y-51653958D01*
X130643307Y-51653950D01*
X130643500Y-51651502D01*
X130643500Y-51218498D01*
X130640562Y-51181169D01*
X130594145Y-51021399D01*
X130509453Y-50878193D01*
X130506771Y-50875511D01*
X130481498Y-50811139D01*
X130495400Y-50741516D01*
X130505572Y-50725688D01*
X130509453Y-50721807D01*
X130594145Y-50578601D01*
X130640562Y-50418831D01*
X130641930Y-50401457D01*
X130643307Y-50383958D01*
X130643307Y-50383950D01*
X130643500Y-50381502D01*
X130643500Y-49948498D01*
X130643046Y-49942728D01*
X130641067Y-49917579D01*
X130641066Y-49917574D01*
X130640562Y-49911169D01*
X130594145Y-49751399D01*
X130509453Y-49608193D01*
X130506771Y-49605511D01*
X130481498Y-49541139D01*
X130495400Y-49471516D01*
X130505572Y-49455688D01*
X130509453Y-49451807D01*
X130594145Y-49308601D01*
X130640562Y-49148831D01*
X130643500Y-49111502D01*
X130643500Y-48678498D01*
X130640562Y-48641169D01*
X130594145Y-48481399D01*
X130509453Y-48338193D01*
X130506771Y-48335511D01*
X130481498Y-48271139D01*
X130495400Y-48201516D01*
X130505572Y-48185688D01*
X130509453Y-48181807D01*
X130594145Y-48038601D01*
X130597641Y-48026570D01*
X130638767Y-47885008D01*
X130640562Y-47878831D01*
X130642682Y-47851903D01*
X130643307Y-47843958D01*
X130643307Y-47843950D01*
X130643500Y-47841502D01*
X130643500Y-47408498D01*
X130640562Y-47371169D01*
X130594145Y-47211399D01*
X130509453Y-47068193D01*
X130506771Y-47065511D01*
X130481498Y-47001139D01*
X130495400Y-46931516D01*
X130505572Y-46915688D01*
X130509453Y-46911807D01*
X130594145Y-46768601D01*
X130640562Y-46608831D01*
X130641521Y-46596656D01*
X130643307Y-46573958D01*
X130643307Y-46573950D01*
X130643500Y-46571502D01*
X130643500Y-46138498D01*
X130640562Y-46101169D01*
X130606266Y-45983121D01*
X130596357Y-45949012D01*
X130596356Y-45949010D01*
X130594145Y-45941399D01*
X130509453Y-45798193D01*
X130506771Y-45795511D01*
X130481498Y-45731139D01*
X130495400Y-45661516D01*
X130505575Y-45645685D01*
X130509453Y-45641807D01*
X130513485Y-45634989D01*
X130513493Y-45634979D01*
X130516987Y-45629070D01*
X130536344Y-45604116D01*
X130546171Y-45594289D01*
X130561205Y-45581448D01*
X130572143Y-45573501D01*
X130578557Y-45568841D01*
X130608003Y-45533247D01*
X130615992Y-45524468D01*
X131116005Y-45024455D01*
X131124785Y-45016465D01*
X131124787Y-45016463D01*
X131131480Y-45012216D01*
X131180005Y-44960542D01*
X131182759Y-44957701D01*
X131203327Y-44937133D01*
X131206047Y-44933626D01*
X131213753Y-44924604D01*
X131239944Y-44896713D01*
X131245372Y-44890933D01*
X131249194Y-44883981D01*
X131255703Y-44872142D01*
X131266557Y-44855618D01*
X131274845Y-44844932D01*
X131279704Y-44838668D01*
X131284089Y-44828535D01*
X131298054Y-44796265D01*
X131303276Y-44785605D01*
X131321705Y-44752084D01*
X131321706Y-44752082D01*
X131325524Y-44745137D01*
X131330859Y-44724359D01*
X131337258Y-44705669D01*
X131345780Y-44685976D01*
X131353006Y-44640352D01*
X131355413Y-44628729D01*
X131364928Y-44591668D01*
X131366900Y-44583988D01*
X131366900Y-44562541D01*
X131368451Y-44542831D01*
X131370566Y-44529477D01*
X131371806Y-44521648D01*
X131367459Y-44475659D01*
X131366900Y-44463804D01*
X131366900Y-43456050D01*
X131386902Y-43387929D01*
X131403805Y-43366955D01*
X131615355Y-43155405D01*
X131677667Y-43121379D01*
X131704450Y-43118500D01*
X132242400Y-43118500D01*
X132245646Y-43118163D01*
X132245650Y-43118163D01*
X132341308Y-43108238D01*
X132341312Y-43108237D01*
X132348166Y-43107526D01*
X132354702Y-43105345D01*
X132354704Y-43105345D01*
X132501109Y-43056500D01*
X132515946Y-43051550D01*
X132666348Y-42958478D01*
X132698523Y-42926247D01*
X132753138Y-42871537D01*
X132815421Y-42837458D01*
X132886241Y-42842461D01*
X132931329Y-42871382D01*
X133013829Y-42953739D01*
X133025240Y-42962751D01*
X133163243Y-43047816D01*
X133176424Y-43053963D01*
X133330710Y-43105138D01*
X133344086Y-43108005D01*
X133438438Y-43117672D01*
X133444854Y-43118000D01*
X133482385Y-43118000D01*
X133497624Y-43113525D01*
X133498829Y-43112135D01*
X133500500Y-43104452D01*
X133500500Y-43099884D01*
X134008500Y-43099884D01*
X134012975Y-43115123D01*
X134014365Y-43116328D01*
X134022048Y-43117999D01*
X134064095Y-43117999D01*
X134070614Y-43117662D01*
X134166206Y-43107743D01*
X134179600Y-43104851D01*
X134333784Y-43053412D01*
X134346962Y-43047239D01*
X134484807Y-42961937D01*
X134496208Y-42952901D01*
X134610739Y-42838171D01*
X134619751Y-42826760D01*
X134704816Y-42688757D01*
X134710963Y-42675576D01*
X134762138Y-42521290D01*
X134765005Y-42507914D01*
X134774672Y-42413562D01*
X134775000Y-42407146D01*
X134775000Y-42182115D01*
X134770525Y-42166876D01*
X134769135Y-42165671D01*
X134761452Y-42164000D01*
X134026615Y-42164000D01*
X134011376Y-42168475D01*
X134010171Y-42169865D01*
X134008500Y-42177548D01*
X134008500Y-43099884D01*
X133500500Y-43099884D01*
X133500500Y-41637885D01*
X134008500Y-41637885D01*
X134012975Y-41653124D01*
X134014365Y-41654329D01*
X134022048Y-41656000D01*
X134756884Y-41656000D01*
X134772123Y-41651525D01*
X134773328Y-41650135D01*
X134774999Y-41642452D01*
X134774999Y-41412905D01*
X134774662Y-41406386D01*
X134764743Y-41310794D01*
X134761851Y-41297400D01*
X134710412Y-41143216D01*
X134704239Y-41130038D01*
X134618937Y-40992193D01*
X134609901Y-40980792D01*
X134495171Y-40866261D01*
X134483760Y-40857249D01*
X134345757Y-40772184D01*
X134332576Y-40766037D01*
X134178290Y-40714862D01*
X134164914Y-40711995D01*
X134070562Y-40702328D01*
X134064145Y-40702000D01*
X134026615Y-40702000D01*
X134011376Y-40706475D01*
X134010171Y-40707865D01*
X134008500Y-40715548D01*
X134008500Y-41637885D01*
X133500500Y-41637885D01*
X133500500Y-40720116D01*
X133496025Y-40704877D01*
X133494635Y-40703672D01*
X133486952Y-40702001D01*
X133444905Y-40702001D01*
X133438386Y-40702338D01*
X133342794Y-40712257D01*
X133329400Y-40715149D01*
X133175216Y-40766588D01*
X133162038Y-40772761D01*
X133024193Y-40858063D01*
X133012792Y-40867099D01*
X132931570Y-40948462D01*
X132869287Y-40982541D01*
X132798467Y-40977538D01*
X132753380Y-40948617D01*
X132670488Y-40865870D01*
X132670483Y-40865866D01*
X132665303Y-40860695D01*
X132659072Y-40856854D01*
X132520968Y-40771725D01*
X132520966Y-40771724D01*
X132514738Y-40767885D01*
X132434995Y-40741436D01*
X132353389Y-40714368D01*
X132353387Y-40714368D01*
X132346861Y-40712203D01*
X132340025Y-40711503D01*
X132340022Y-40711502D01*
X132296969Y-40707091D01*
X132242400Y-40701500D01*
X131616600Y-40701500D01*
X131613354Y-40701837D01*
X131613350Y-40701837D01*
X131517692Y-40711762D01*
X131517688Y-40711763D01*
X131510834Y-40712474D01*
X131504298Y-40714655D01*
X131504296Y-40714655D01*
X131423401Y-40741644D01*
X131343054Y-40768450D01*
X131192652Y-40861522D01*
X131067695Y-40986697D01*
X131063855Y-40992927D01*
X131063854Y-40992928D01*
X130979493Y-41129787D01*
X130974885Y-41137262D01*
X130972581Y-41144209D01*
X130924498Y-41289176D01*
X130919203Y-41305139D01*
X130918503Y-41311975D01*
X130918502Y-41311978D01*
X130916631Y-41330238D01*
X130908500Y-41409600D01*
X130908500Y-41947551D01*
X130888498Y-42015672D01*
X130871595Y-42036646D01*
X130300796Y-42607445D01*
X130292013Y-42615437D01*
X130285320Y-42619684D01*
X130279894Y-42625462D01*
X130236795Y-42671358D01*
X130234040Y-42674200D01*
X130213473Y-42694767D01*
X130210756Y-42698270D01*
X130203048Y-42707295D01*
X130171428Y-42740967D01*
X130167607Y-42747918D01*
X130167606Y-42747919D01*
X130161097Y-42759758D01*
X130150243Y-42776282D01*
X130142418Y-42786371D01*
X130137096Y-42793232D01*
X130133949Y-42800504D01*
X130133948Y-42800506D01*
X130118746Y-42835635D01*
X130113524Y-42846295D01*
X130091276Y-42886763D01*
X130085941Y-42907541D01*
X130079540Y-42926234D01*
X130077672Y-42930551D01*
X130032259Y-42985120D01*
X129962040Y-43006500D01*
X129088500Y-43006500D01*
X129020379Y-42986498D01*
X128973886Y-42932842D01*
X128962500Y-42880500D01*
X128962500Y-41477393D01*
X128982502Y-41409272D01*
X128999327Y-41388375D01*
X129048134Y-41339483D01*
X129053305Y-41334303D01*
X129066784Y-41312436D01*
X129142275Y-41189968D01*
X129142276Y-41189966D01*
X129146115Y-41183738D01*
X129201797Y-41015861D01*
X129212500Y-40911400D01*
X129212500Y-39860600D01*
X129209481Y-39831500D01*
X129202238Y-39761692D01*
X129202237Y-39761688D01*
X129201526Y-39754834D01*
X129196066Y-39738469D01*
X129160938Y-39633176D01*
X129158354Y-39562226D01*
X129194538Y-39501143D01*
X129258002Y-39469318D01*
X129280462Y-39467300D01*
X137867183Y-39467300D01*
X137935304Y-39487302D01*
G37*
G04 #@! TD.AperFunction*
G04 #@! TA.AperFunction,Conductor*
G36*
X118019669Y-47835001D02*
G01*
X118040643Y-47851903D01*
X118221346Y-48032605D01*
X118229336Y-48041385D01*
X118233584Y-48048080D01*
X118285273Y-48096619D01*
X118288115Y-48099374D01*
X118308667Y-48119926D01*
X118311801Y-48122357D01*
X118312163Y-48122638D01*
X118321191Y-48130348D01*
X118354867Y-48161972D01*
X118361816Y-48165792D01*
X118368227Y-48170450D01*
X118367433Y-48171542D01*
X118411655Y-48216020D01*
X118426545Y-48285438D01*
X118409346Y-48340224D01*
X118325855Y-48481399D01*
X118279438Y-48641169D01*
X118276500Y-48678498D01*
X118276500Y-49111502D01*
X118279438Y-49148831D01*
X118325855Y-49308601D01*
X118410547Y-49451807D01*
X118413229Y-49454489D01*
X118438502Y-49518861D01*
X118424600Y-49588484D01*
X118414428Y-49604312D01*
X118410547Y-49608193D01*
X118325855Y-49751399D01*
X118279438Y-49911169D01*
X118278934Y-49917574D01*
X118278933Y-49917579D01*
X118276954Y-49942728D01*
X118276500Y-49948498D01*
X118276500Y-50381502D01*
X118276693Y-50383950D01*
X118276693Y-50383958D01*
X118278071Y-50401457D01*
X118279438Y-50418831D01*
X118325855Y-50578601D01*
X118410547Y-50721807D01*
X118413229Y-50724489D01*
X118438502Y-50788861D01*
X118424600Y-50858484D01*
X118414428Y-50874312D01*
X118410547Y-50878193D01*
X118325855Y-51021399D01*
X118279438Y-51181169D01*
X118276500Y-51218498D01*
X118276500Y-51651502D01*
X118276693Y-51653950D01*
X118276693Y-51653958D01*
X118278338Y-51674851D01*
X118279438Y-51688831D01*
X118325855Y-51848601D01*
X118410547Y-51991807D01*
X118413229Y-51994489D01*
X118438502Y-52058861D01*
X118424600Y-52128484D01*
X118414428Y-52144312D01*
X118410547Y-52148193D01*
X118325855Y-52291399D01*
X118279438Y-52451169D01*
X118278934Y-52457574D01*
X118278933Y-52457579D01*
X118276752Y-52485290D01*
X118276500Y-52488498D01*
X118276500Y-52921502D01*
X118276693Y-52923950D01*
X118276693Y-52923958D01*
X118278071Y-52941457D01*
X118279438Y-52958831D01*
X118325855Y-53118601D01*
X118410547Y-53261807D01*
X118413229Y-53264489D01*
X118438502Y-53328861D01*
X118424600Y-53398484D01*
X118414428Y-53414312D01*
X118410547Y-53418193D01*
X118325855Y-53561399D01*
X118279438Y-53721169D01*
X118276500Y-53758498D01*
X118276500Y-54191502D01*
X118276693Y-54193950D01*
X118276693Y-54193958D01*
X118278480Y-54216656D01*
X118279438Y-54228831D01*
X118325855Y-54388601D01*
X118410547Y-54531807D01*
X118413229Y-54534489D01*
X118438502Y-54598861D01*
X118424600Y-54668484D01*
X118414428Y-54684312D01*
X118410547Y-54688193D01*
X118325855Y-54831399D01*
X118279438Y-54991169D01*
X118278934Y-54997574D01*
X118278933Y-54997579D01*
X118278692Y-55000642D01*
X118276500Y-55028498D01*
X118276500Y-55461502D01*
X118276693Y-55463950D01*
X118276693Y-55463958D01*
X118277224Y-55470695D01*
X118279438Y-55498831D01*
X118281233Y-55505008D01*
X118322360Y-55646570D01*
X118325855Y-55658601D01*
X118410547Y-55801807D01*
X118413229Y-55804489D01*
X118438502Y-55868861D01*
X118424600Y-55938484D01*
X118414428Y-55954312D01*
X118410547Y-55958193D01*
X118325855Y-56101399D01*
X118323644Y-56109010D01*
X118323643Y-56109012D01*
X118314680Y-56139865D01*
X118279438Y-56261169D01*
X118276500Y-56298498D01*
X118276500Y-56731502D01*
X118276693Y-56733950D01*
X118276693Y-56733958D01*
X118278480Y-56756656D01*
X118279438Y-56768831D01*
X118325855Y-56928601D01*
X118410547Y-57071807D01*
X118413229Y-57074489D01*
X118438502Y-57138861D01*
X118424600Y-57208484D01*
X118414428Y-57224312D01*
X118410547Y-57228193D01*
X118325855Y-57371399D01*
X118279438Y-57531169D01*
X118276500Y-57568498D01*
X118276500Y-58001502D01*
X118279438Y-58038831D01*
X118325855Y-58198601D01*
X118329892Y-58205427D01*
X118406509Y-58334980D01*
X118406511Y-58334983D01*
X118410547Y-58341807D01*
X118528193Y-58459453D01*
X118535017Y-58463489D01*
X118535020Y-58463491D01*
X118633352Y-58521644D01*
X118671399Y-58544145D01*
X118679010Y-58546356D01*
X118679012Y-58546357D01*
X118731231Y-58561528D01*
X118831169Y-58590562D01*
X118837574Y-58591066D01*
X118837579Y-58591067D01*
X118866042Y-58593307D01*
X118866050Y-58593307D01*
X118868498Y-58593500D01*
X120751502Y-58593500D01*
X120753950Y-58593307D01*
X120753958Y-58593307D01*
X120782421Y-58591067D01*
X120782426Y-58591066D01*
X120788831Y-58590562D01*
X120888769Y-58561528D01*
X120940988Y-58546357D01*
X120940990Y-58546356D01*
X120948601Y-58544145D01*
X120977610Y-58526989D01*
X121046427Y-58509529D01*
X121113758Y-58532045D01*
X121123413Y-58539488D01*
X121209958Y-58613143D01*
X121214650Y-58617136D01*
X121387294Y-58713624D01*
X121575392Y-58774740D01*
X121771777Y-58798158D01*
X121777912Y-58797686D01*
X121777914Y-58797686D01*
X121962830Y-58783457D01*
X121962834Y-58783456D01*
X121968972Y-58782984D01*
X122117619Y-58741481D01*
X122188607Y-58742428D01*
X122247816Y-58781604D01*
X122276445Y-58846572D01*
X122277500Y-58862840D01*
X122277500Y-60157862D01*
X122257498Y-60225983D01*
X122203842Y-60272476D01*
X122133568Y-60282580D01*
X122068988Y-60253086D01*
X122040248Y-60217015D01*
X122031719Y-60200973D01*
X122002066Y-60145204D01*
X121907575Y-60029347D01*
X121880960Y-59996713D01*
X121880957Y-59996710D01*
X121877065Y-59991938D01*
X121871820Y-59987599D01*
X121729425Y-59869799D01*
X121729421Y-59869797D01*
X121724675Y-59865870D01*
X121550701Y-59771802D01*
X121361768Y-59713318D01*
X121355643Y-59712674D01*
X121355642Y-59712674D01*
X121171204Y-59693289D01*
X121171202Y-59693289D01*
X121165075Y-59692645D01*
X121082576Y-59700153D01*
X120974251Y-59710011D01*
X120974248Y-59710012D01*
X120968112Y-59710570D01*
X120962206Y-59712308D01*
X120962202Y-59712309D01*
X120868819Y-59739793D01*
X120778381Y-59766410D01*
X120772923Y-59769263D01*
X120772919Y-59769265D01*
X120711767Y-59801235D01*
X120603110Y-59858040D01*
X120448975Y-59981968D01*
X120445013Y-59986690D01*
X120431753Y-60002492D01*
X120372643Y-60041818D01*
X120335232Y-60047500D01*
X110052949Y-60047500D01*
X109984828Y-60027498D01*
X109963854Y-60010595D01*
X108715894Y-58762634D01*
X108681868Y-58700322D01*
X108678989Y-58673539D01*
X108678989Y-57309194D01*
X108698991Y-57241073D01*
X108752647Y-57194580D01*
X108822921Y-57184476D01*
X108840144Y-57188198D01*
X108844891Y-57189577D01*
X108948250Y-57210606D01*
X108962299Y-57209410D01*
X108966000Y-57199065D01*
X108966000Y-57198517D01*
X109474000Y-57198517D01*
X109478064Y-57212359D01*
X109491478Y-57214393D01*
X109498184Y-57213534D01*
X109508262Y-57211392D01*
X109712255Y-57150191D01*
X109721842Y-57146433D01*
X109913095Y-57052739D01*
X109921945Y-57047464D01*
X110095328Y-56923792D01*
X110103200Y-56917139D01*
X110254052Y-56766812D01*
X110260730Y-56758965D01*
X110385003Y-56586020D01*
X110390313Y-56577183D01*
X110484670Y-56386267D01*
X110488469Y-56376672D01*
X110550377Y-56172910D01*
X110552555Y-56162837D01*
X110553986Y-56151962D01*
X110551775Y-56137778D01*
X110538617Y-56134000D01*
X109492115Y-56134000D01*
X109476876Y-56138475D01*
X109475671Y-56139865D01*
X109474000Y-56147548D01*
X109474000Y-57198517D01*
X108966000Y-57198517D01*
X108966000Y-55752000D01*
X108986002Y-55683879D01*
X109039658Y-55637386D01*
X109092000Y-55626000D01*
X110538344Y-55626000D01*
X110551875Y-55622027D01*
X110553180Y-55612947D01*
X110511214Y-55445875D01*
X110507894Y-55436124D01*
X110422972Y-55240814D01*
X110418105Y-55231739D01*
X110302426Y-55052926D01*
X110296136Y-55044757D01*
X110152806Y-54887240D01*
X110145273Y-54880215D01*
X109978139Y-54748222D01*
X109969556Y-54742520D01*
X109932602Y-54722120D01*
X109882631Y-54671687D01*
X109867859Y-54602245D01*
X109892975Y-54535839D01*
X109920327Y-54509232D01*
X109999474Y-54452777D01*
X110099860Y-54381173D01*
X110258096Y-54223489D01*
X110388453Y-54042077D01*
X110465607Y-53885968D01*
X110485136Y-53846453D01*
X110485137Y-53846451D01*
X110487430Y-53841811D01*
X110539506Y-53670410D01*
X110550865Y-53633023D01*
X110550865Y-53633021D01*
X110552370Y-53628069D01*
X110581529Y-53406590D01*
X110582553Y-53364689D01*
X110583074Y-53343365D01*
X110583074Y-53343361D01*
X110583156Y-53340000D01*
X110564852Y-53117361D01*
X110510431Y-52900702D01*
X110421354Y-52695840D01*
X110350278Y-52585973D01*
X110302822Y-52512617D01*
X110302820Y-52512614D01*
X110300014Y-52508277D01*
X110149670Y-52343051D01*
X110145619Y-52339852D01*
X110145615Y-52339848D01*
X109978414Y-52207800D01*
X109978410Y-52207798D01*
X109974359Y-52204598D01*
X109933053Y-52181796D01*
X109883084Y-52131364D01*
X109868312Y-52061921D01*
X109893428Y-51995516D01*
X109920780Y-51968909D01*
X109985526Y-51922726D01*
X110099860Y-51841173D01*
X110258096Y-51683489D01*
X110358482Y-51543787D01*
X110385435Y-51506277D01*
X110388453Y-51502077D01*
X110400202Y-51478306D01*
X110485136Y-51306453D01*
X110485137Y-51306451D01*
X110487430Y-51301811D01*
X110545176Y-51111747D01*
X110550865Y-51093023D01*
X110550865Y-51093021D01*
X110552370Y-51088069D01*
X110581529Y-50866590D01*
X110582223Y-50838187D01*
X110583074Y-50803365D01*
X110583074Y-50803361D01*
X110583156Y-50800000D01*
X110564852Y-50577361D01*
X110510431Y-50360702D01*
X110421354Y-50155840D01*
X110342810Y-50034429D01*
X110302822Y-49972617D01*
X110302820Y-49972614D01*
X110300014Y-49968277D01*
X110149670Y-49803051D01*
X110145619Y-49799852D01*
X110145615Y-49799848D01*
X109978414Y-49667800D01*
X109978410Y-49667798D01*
X109974359Y-49664598D01*
X109933053Y-49641796D01*
X109883084Y-49591364D01*
X109868312Y-49521921D01*
X109893428Y-49455516D01*
X109920780Y-49428909D01*
X109985526Y-49382726D01*
X110099860Y-49301173D01*
X110258096Y-49143489D01*
X110280018Y-49112982D01*
X110385435Y-48966277D01*
X110388453Y-48962077D01*
X110465870Y-48805436D01*
X110485136Y-48766453D01*
X110485137Y-48766451D01*
X110487430Y-48761811D01*
X110531308Y-48617392D01*
X110550865Y-48553023D01*
X110550865Y-48553021D01*
X110552370Y-48548069D01*
X110581529Y-48326590D01*
X110582113Y-48302692D01*
X110583074Y-48263365D01*
X110583074Y-48263361D01*
X110583156Y-48260000D01*
X110564852Y-48037361D01*
X110552568Y-47988457D01*
X110548358Y-47971694D01*
X110551163Y-47900753D01*
X110591876Y-47842589D01*
X110657571Y-47815670D01*
X110670562Y-47814999D01*
X117951548Y-47814999D01*
X118019669Y-47835001D01*
G37*
G04 #@! TD.AperFunction*
G04 #@! TA.AperFunction,Conductor*
G36*
X125296112Y-39487302D02*
G01*
X125342605Y-39540958D01*
X125352709Y-39611232D01*
X125347584Y-39632967D01*
X125308863Y-39749707D01*
X125305995Y-39763086D01*
X125296328Y-39857438D01*
X125296000Y-39863855D01*
X125296000Y-40113885D01*
X125300475Y-40129124D01*
X125301865Y-40130329D01*
X125309548Y-40132000D01*
X126432000Y-40132000D01*
X126500121Y-40152002D01*
X126546614Y-40205658D01*
X126558000Y-40258000D01*
X126558000Y-41600884D01*
X126562475Y-41616123D01*
X126563865Y-41617328D01*
X126571548Y-41618999D01*
X126601095Y-41618999D01*
X126607614Y-41618662D01*
X126703206Y-41608743D01*
X126716600Y-41605851D01*
X126870784Y-41554412D01*
X126883962Y-41548239D01*
X127021807Y-41462937D01*
X127033208Y-41453901D01*
X127147738Y-41339172D01*
X127154794Y-41330238D01*
X127212712Y-41289177D01*
X127283635Y-41285947D01*
X127345046Y-41321574D01*
X127351846Y-41329407D01*
X127355522Y-41335348D01*
X127360704Y-41340521D01*
X127408518Y-41388252D01*
X127442597Y-41450535D01*
X127445500Y-41477425D01*
X127445500Y-42930500D01*
X127425498Y-42998621D01*
X127371842Y-43045114D01*
X127319500Y-43056500D01*
X126432070Y-43056500D01*
X126413120Y-43055067D01*
X126398885Y-43052901D01*
X126398881Y-43052901D01*
X126391651Y-43051801D01*
X126384359Y-43052394D01*
X126384356Y-43052394D01*
X126338982Y-43056085D01*
X126328767Y-43056500D01*
X126320707Y-43056500D01*
X126317073Y-43056924D01*
X126317067Y-43056924D01*
X126304042Y-43058443D01*
X126292480Y-43059791D01*
X126288132Y-43060221D01*
X126215364Y-43066140D01*
X126208403Y-43068395D01*
X126202463Y-43069582D01*
X126196588Y-43070971D01*
X126189319Y-43071818D01*
X126120670Y-43096736D01*
X126116542Y-43098153D01*
X126054064Y-43118393D01*
X126054062Y-43118394D01*
X126047101Y-43120649D01*
X126040846Y-43124445D01*
X126035372Y-43126951D01*
X126029942Y-43129670D01*
X126023063Y-43132167D01*
X126016943Y-43136180D01*
X126016942Y-43136180D01*
X125962024Y-43172186D01*
X125958320Y-43174523D01*
X125895893Y-43212405D01*
X125887516Y-43219803D01*
X125887492Y-43219776D01*
X125884500Y-43222429D01*
X125881267Y-43225132D01*
X125875148Y-43229144D01*
X125870116Y-43234456D01*
X125821872Y-43285383D01*
X125819494Y-43287825D01*
X123046600Y-46060719D01*
X123032188Y-46073105D01*
X123020593Y-46081638D01*
X123020588Y-46081643D01*
X123014693Y-46085981D01*
X123009954Y-46091559D01*
X123009951Y-46091562D01*
X122980476Y-46126257D01*
X122973546Y-46133773D01*
X122967851Y-46139468D01*
X122965571Y-46142350D01*
X122950230Y-46161740D01*
X122947439Y-46165144D01*
X122904920Y-46215192D01*
X122900178Y-46220774D01*
X122896850Y-46227290D01*
X122893483Y-46232339D01*
X122890316Y-46237468D01*
X122885777Y-46243205D01*
X122854856Y-46309364D01*
X122852953Y-46313258D01*
X122819742Y-46378297D01*
X122818003Y-46385405D01*
X122815904Y-46391048D01*
X122813987Y-46396811D01*
X122810889Y-46403439D01*
X122797927Y-46465759D01*
X122796025Y-46474901D01*
X122795055Y-46479185D01*
X122777703Y-46550099D01*
X122777011Y-46561253D01*
X122776975Y-46561251D01*
X122776736Y-46565244D01*
X122776362Y-46569436D01*
X122774871Y-46576604D01*
X122775069Y-46583921D01*
X122776965Y-46654010D01*
X122777011Y-46657417D01*
X122777011Y-46738561D01*
X122757009Y-46806682D01*
X122703353Y-46853175D01*
X122633079Y-46863279D01*
X122568499Y-46833785D01*
X122561916Y-46827656D01*
X121854674Y-46120414D01*
X121820648Y-46058102D01*
X121825713Y-45987287D01*
X121851919Y-45945067D01*
X121877786Y-45917521D01*
X121881605Y-45910575D01*
X121881607Y-45910572D01*
X121887548Y-45899766D01*
X121898399Y-45883247D01*
X121905958Y-45873501D01*
X121910814Y-45867241D01*
X121913959Y-45859972D01*
X121913962Y-45859968D01*
X121928374Y-45826663D01*
X121933591Y-45816013D01*
X121954895Y-45777260D01*
X121959933Y-45757637D01*
X121966337Y-45738934D01*
X121971233Y-45727620D01*
X121971233Y-45727619D01*
X121974381Y-45720345D01*
X121975620Y-45712522D01*
X121975623Y-45712512D01*
X121981299Y-45676676D01*
X121983705Y-45665056D01*
X121992728Y-45629911D01*
X121992728Y-45629910D01*
X121994700Y-45622230D01*
X121994700Y-45601976D01*
X121996251Y-45582265D01*
X121998180Y-45570086D01*
X121999420Y-45562257D01*
X121995259Y-45518238D01*
X121994700Y-45506381D01*
X121994700Y-44833567D01*
X121995227Y-44822384D01*
X121996902Y-44814891D01*
X121996420Y-44799539D01*
X121994762Y-44746814D01*
X121994700Y-44742855D01*
X121994700Y-44714944D01*
X121994195Y-44710944D01*
X121993262Y-44699101D01*
X121992850Y-44685976D01*
X121991873Y-44654910D01*
X121986222Y-44635458D01*
X121982214Y-44616106D01*
X121980667Y-44603863D01*
X121979674Y-44596003D01*
X121971372Y-44575034D01*
X121963400Y-44554897D01*
X121959555Y-44543670D01*
X121954819Y-44527369D01*
X121947218Y-44501207D01*
X121943184Y-44494385D01*
X121943181Y-44494379D01*
X121936906Y-44483768D01*
X121928210Y-44466018D01*
X121923672Y-44454556D01*
X121923669Y-44454551D01*
X121920752Y-44447183D01*
X121894773Y-44411425D01*
X121888257Y-44401507D01*
X121869775Y-44370257D01*
X121865742Y-44363437D01*
X121851418Y-44349113D01*
X121838576Y-44334078D01*
X121831560Y-44324421D01*
X121826672Y-44317693D01*
X121792606Y-44289511D01*
X121783827Y-44281522D01*
X121560052Y-44057747D01*
X121552512Y-44049461D01*
X121548400Y-44042982D01*
X121498748Y-43996356D01*
X121495907Y-43993602D01*
X121476170Y-43973865D01*
X121472973Y-43971385D01*
X121463951Y-43963680D01*
X121431721Y-43933414D01*
X121424775Y-43929595D01*
X121424772Y-43929593D01*
X121413966Y-43923652D01*
X121397447Y-43912801D01*
X121396983Y-43912441D01*
X121381441Y-43900386D01*
X121374172Y-43897241D01*
X121374168Y-43897238D01*
X121340863Y-43882826D01*
X121330213Y-43877609D01*
X121291460Y-43856305D01*
X121271837Y-43851267D01*
X121253134Y-43844863D01*
X121241820Y-43839967D01*
X121241819Y-43839967D01*
X121234545Y-43836819D01*
X121226722Y-43835580D01*
X121226712Y-43835577D01*
X121190876Y-43829901D01*
X121179256Y-43827495D01*
X121144111Y-43818472D01*
X121144110Y-43818472D01*
X121136430Y-43816500D01*
X121116176Y-43816500D01*
X121096465Y-43814949D01*
X121084286Y-43813020D01*
X121076457Y-43811780D01*
X121076540Y-43811253D01*
X121076209Y-43811144D01*
X121069464Y-43812441D01*
X121032439Y-43815941D01*
X121020581Y-43816500D01*
X119682000Y-43816500D01*
X119613879Y-43796498D01*
X119567386Y-43742842D01*
X119556000Y-43690500D01*
X119556000Y-43542885D01*
X120064000Y-43542885D01*
X120068475Y-43558124D01*
X120069865Y-43559329D01*
X120077548Y-43561000D01*
X121057606Y-43561000D01*
X121066105Y-43563496D01*
X121085634Y-43561000D01*
X121321878Y-43561000D01*
X121335409Y-43557027D01*
X121336544Y-43549129D01*
X121295893Y-43409210D01*
X121289648Y-43394779D01*
X121213089Y-43265322D01*
X121203449Y-43252896D01*
X121097104Y-43146551D01*
X121084678Y-43136911D01*
X120955221Y-43060352D01*
X120940790Y-43054107D01*
X120794935Y-43011731D01*
X120782333Y-43009430D01*
X120753916Y-43007193D01*
X120748986Y-43007000D01*
X120082115Y-43007000D01*
X120066876Y-43011475D01*
X120065671Y-43012865D01*
X120064000Y-43020548D01*
X120064000Y-43542885D01*
X119556000Y-43542885D01*
X119556000Y-43025116D01*
X119551525Y-43009877D01*
X119550135Y-43008672D01*
X119542452Y-43007001D01*
X118871017Y-43007001D01*
X118866080Y-43007195D01*
X118837664Y-43009430D01*
X118825069Y-43011730D01*
X118679210Y-43054107D01*
X118664779Y-43060352D01*
X118535322Y-43136911D01*
X118522896Y-43146551D01*
X118416551Y-43252896D01*
X118406911Y-43265322D01*
X118330352Y-43394779D01*
X118324107Y-43409210D01*
X118281731Y-43555065D01*
X118279430Y-43567667D01*
X118277193Y-43596085D01*
X118277000Y-43601014D01*
X118277000Y-43690500D01*
X118256998Y-43758621D01*
X118203342Y-43805114D01*
X118151000Y-43816500D01*
X110804595Y-43816500D01*
X110736474Y-43796498D01*
X110715500Y-43779595D01*
X110571218Y-43635313D01*
X110537192Y-43573001D01*
X110539755Y-43509589D01*
X110550865Y-43473022D01*
X110552370Y-43468069D01*
X110581529Y-43246590D01*
X110581611Y-43243240D01*
X110583074Y-43183365D01*
X110583074Y-43183361D01*
X110583156Y-43180000D01*
X110564852Y-42957361D01*
X110510431Y-42740702D01*
X110508369Y-42735959D01*
X110508079Y-42735108D01*
X110505060Y-42664175D01*
X110540868Y-42602871D01*
X110604136Y-42570658D01*
X110627356Y-42568500D01*
X116776494Y-42568500D01*
X116844615Y-42588502D01*
X116867132Y-42606974D01*
X116869204Y-42609120D01*
X116873035Y-42613953D01*
X117023650Y-42742136D01*
X117196294Y-42838624D01*
X117384392Y-42899740D01*
X117580777Y-42923158D01*
X117586912Y-42922686D01*
X117586914Y-42922686D01*
X117771830Y-42908457D01*
X117771834Y-42908456D01*
X117777972Y-42907984D01*
X117968463Y-42854798D01*
X117973967Y-42852018D01*
X117973969Y-42852017D01*
X118139495Y-42768404D01*
X118139497Y-42768403D01*
X118144996Y-42765625D01*
X118300847Y-42643861D01*
X118401732Y-42526984D01*
X118426049Y-42498813D01*
X118426050Y-42498811D01*
X118430078Y-42494145D01*
X118527769Y-42322179D01*
X118590197Y-42134513D01*
X118614985Y-41938295D01*
X118615380Y-41910000D01*
X118596080Y-41713167D01*
X118565209Y-41610917D01*
X118564668Y-41539924D01*
X118602596Y-41479907D01*
X118666950Y-41449923D01*
X118685831Y-41448500D01*
X119937832Y-41448500D01*
X120003948Y-41467240D01*
X120136288Y-41548816D01*
X120143262Y-41553115D01*
X120219570Y-41578425D01*
X120304611Y-41606632D01*
X120304613Y-41606632D01*
X120311139Y-41608797D01*
X120317975Y-41609497D01*
X120317978Y-41609498D01*
X120361031Y-41613909D01*
X120415600Y-41619500D01*
X121016400Y-41619500D01*
X121019646Y-41619163D01*
X121019650Y-41619163D01*
X121115308Y-41609238D01*
X121115312Y-41609237D01*
X121122166Y-41608526D01*
X121128702Y-41606345D01*
X121128704Y-41606345D01*
X121269348Y-41559422D01*
X121289946Y-41552550D01*
X121440348Y-41459478D01*
X121565305Y-41334303D01*
X121568102Y-41329765D01*
X121625353Y-41289176D01*
X121696276Y-41285946D01*
X121757687Y-41321572D01*
X121765062Y-41330068D01*
X121773098Y-41340207D01*
X121887829Y-41454739D01*
X121899240Y-41463751D01*
X122037243Y-41548816D01*
X122050424Y-41554963D01*
X122204710Y-41606138D01*
X122218086Y-41609005D01*
X122312438Y-41618672D01*
X122318854Y-41619000D01*
X122343885Y-41619000D01*
X122359124Y-41614525D01*
X122360329Y-41613135D01*
X122362000Y-41605452D01*
X122362000Y-41600884D01*
X122870000Y-41600884D01*
X122874475Y-41616123D01*
X122875865Y-41617328D01*
X122883548Y-41618999D01*
X122913095Y-41618999D01*
X122919614Y-41618662D01*
X123015206Y-41608743D01*
X123028600Y-41605851D01*
X123182784Y-41554412D01*
X123195962Y-41548239D01*
X123333807Y-41462937D01*
X123345208Y-41453901D01*
X123459739Y-41339171D01*
X123468751Y-41327760D01*
X123553816Y-41189757D01*
X123559963Y-41176576D01*
X123611138Y-41022290D01*
X123614005Y-41008914D01*
X123623672Y-40914562D01*
X123624000Y-40908146D01*
X123624000Y-40908095D01*
X125296001Y-40908095D01*
X125296338Y-40914614D01*
X125306257Y-41010206D01*
X125309149Y-41023600D01*
X125360588Y-41177784D01*
X125366761Y-41190962D01*
X125452063Y-41328807D01*
X125461099Y-41340208D01*
X125575829Y-41454739D01*
X125587240Y-41463751D01*
X125725243Y-41548816D01*
X125738424Y-41554963D01*
X125892710Y-41606138D01*
X125906086Y-41609005D01*
X126000438Y-41618672D01*
X126006854Y-41619000D01*
X126031885Y-41619000D01*
X126047124Y-41614525D01*
X126048329Y-41613135D01*
X126050000Y-41605452D01*
X126050000Y-40658115D01*
X126045525Y-40642876D01*
X126044135Y-40641671D01*
X126036452Y-40640000D01*
X125314116Y-40640000D01*
X125298877Y-40644475D01*
X125297672Y-40645865D01*
X125296001Y-40653548D01*
X125296001Y-40908095D01*
X123624000Y-40908095D01*
X123624000Y-40658115D01*
X123619525Y-40642876D01*
X123618135Y-40641671D01*
X123610452Y-40640000D01*
X122888115Y-40640000D01*
X122872876Y-40644475D01*
X122871671Y-40645865D01*
X122870000Y-40653548D01*
X122870000Y-41600884D01*
X122362000Y-41600884D01*
X122362000Y-40258000D01*
X122382002Y-40189879D01*
X122435658Y-40143386D01*
X122488000Y-40132000D01*
X123605884Y-40132000D01*
X123621123Y-40127525D01*
X123622328Y-40126135D01*
X123623999Y-40118452D01*
X123623999Y-39863905D01*
X123623662Y-39857386D01*
X123613743Y-39761794D01*
X123610851Y-39748400D01*
X123572410Y-39633176D01*
X123569826Y-39562226D01*
X123606010Y-39501142D01*
X123669474Y-39469318D01*
X123691934Y-39467300D01*
X125227991Y-39467300D01*
X125296112Y-39487302D01*
G37*
G04 #@! TD.AperFunction*
G04 #@! TA.AperFunction,Conductor*
G36*
X134137461Y-32256617D02*
G01*
X144737303Y-32257393D01*
X144805423Y-32277400D01*
X144851911Y-32331059D01*
X144862010Y-32401334D01*
X144832512Y-32465912D01*
X144789945Y-32497865D01*
X144504694Y-32629066D01*
X144197193Y-32813101D01*
X144194467Y-32815163D01*
X144194465Y-32815164D01*
X144141957Y-32854876D01*
X143911367Y-33029270D01*
X143650559Y-33275043D01*
X143417819Y-33547546D01*
X143415900Y-33550358D01*
X143415897Y-33550363D01*
X143322624Y-33687097D01*
X143215871Y-33843591D01*
X143047077Y-34159714D01*
X142913411Y-34492218D01*
X142912491Y-34495492D01*
X142912489Y-34495497D01*
X142910332Y-34503173D01*
X142816437Y-34837213D01*
X142815875Y-34840570D01*
X142815875Y-34840571D01*
X142777250Y-35071389D01*
X142757290Y-35190663D01*
X142736661Y-35548434D01*
X142736833Y-35551829D01*
X142736833Y-35551830D01*
X142742743Y-35668500D01*
X142754792Y-35906340D01*
X142755329Y-35909695D01*
X142755330Y-35909701D01*
X142786728Y-36105727D01*
X142811470Y-36260195D01*
X142906033Y-36605859D01*
X142979053Y-36791231D01*
X143019864Y-36894835D01*
X143037374Y-36939288D01*
X143068151Y-36997909D01*
X143183104Y-37216862D01*
X143203957Y-37256582D01*
X143205858Y-37259411D01*
X143205864Y-37259421D01*
X143356108Y-37483005D01*
X143403834Y-37554029D01*
X143634665Y-37828150D01*
X143893751Y-38075738D01*
X144166127Y-38284740D01*
X144207992Y-38342075D01*
X144212214Y-38412946D01*
X144177450Y-38474849D01*
X144114737Y-38508131D01*
X144089421Y-38510700D01*
X141052282Y-38510700D01*
X140984161Y-38490698D01*
X140963187Y-38473795D01*
X140583034Y-38093642D01*
X140582106Y-38092705D01*
X140523957Y-38033325D01*
X140523956Y-38033324D01*
X140519029Y-38028293D01*
X140482579Y-38004802D01*
X140472254Y-37997383D01*
X140438357Y-37970324D01*
X140408162Y-37955727D01*
X140394745Y-37948198D01*
X140392742Y-37946907D01*
X140366562Y-37930035D01*
X140359945Y-37927627D01*
X140359940Y-37927624D01*
X140325827Y-37915208D01*
X140314084Y-37910247D01*
X140281397Y-37894446D01*
X140281392Y-37894444D01*
X140275051Y-37891379D01*
X140268193Y-37889796D01*
X140268191Y-37889795D01*
X140242374Y-37883835D01*
X140227631Y-37879468D01*
X140196115Y-37867997D01*
X140189125Y-37867114D01*
X140189117Y-37867112D01*
X140153099Y-37862562D01*
X140140547Y-37860326D01*
X140105186Y-37852162D01*
X140105183Y-37852162D01*
X140098315Y-37850576D01*
X140091269Y-37850551D01*
X140091266Y-37850551D01*
X140057744Y-37850434D01*
X140056862Y-37850405D01*
X140056031Y-37850300D01*
X140019381Y-37850300D01*
X140018941Y-37850299D01*
X139920457Y-37849955D01*
X139920452Y-37849955D01*
X139916930Y-37849943D01*
X139915730Y-37850211D01*
X139914093Y-37850300D01*
X128259905Y-37850300D01*
X128244986Y-37849414D01*
X128241326Y-37848978D01*
X128209680Y-37845204D01*
X128202677Y-37845940D01*
X128202676Y-37845940D01*
X128167760Y-37849610D01*
X128154589Y-37850300D01*
X122452460Y-37850300D01*
X122451141Y-37850293D01*
X122360979Y-37849349D01*
X122354093Y-37850838D01*
X122354091Y-37850838D01*
X122347968Y-37852162D01*
X122318603Y-37858511D01*
X122306037Y-37860569D01*
X122262945Y-37865403D01*
X122256294Y-37867719D01*
X122256290Y-37867720D01*
X122231270Y-37876433D01*
X122216457Y-37880596D01*
X122183690Y-37887681D01*
X122144389Y-37906007D01*
X122132606Y-37910792D01*
X122091648Y-37925055D01*
X122077570Y-37933852D01*
X122063216Y-37942821D01*
X122049699Y-37950160D01*
X122025681Y-37961360D01*
X122025677Y-37961362D01*
X122019298Y-37964337D01*
X122013734Y-37968653D01*
X122013732Y-37968654D01*
X121985040Y-37990909D01*
X121974585Y-37998203D01*
X121937824Y-38021174D01*
X121932827Y-38026136D01*
X121932826Y-38026137D01*
X121909021Y-38049776D01*
X121908396Y-38050361D01*
X121907730Y-38050878D01*
X121881740Y-38076868D01*
X121809118Y-38148985D01*
X121808460Y-38150022D01*
X121807357Y-38151251D01*
X120843013Y-39115595D01*
X120780701Y-39149621D01*
X120753918Y-39152500D01*
X120415600Y-39152500D01*
X120412354Y-39152837D01*
X120412350Y-39152837D01*
X120316692Y-39162762D01*
X120316688Y-39162763D01*
X120309834Y-39163474D01*
X120303298Y-39165655D01*
X120303296Y-39165655D01*
X120171194Y-39209728D01*
X120142054Y-39219450D01*
X119991652Y-39312522D01*
X119866695Y-39437697D01*
X119862855Y-39443927D01*
X119862854Y-39443928D01*
X119862637Y-39444281D01*
X119773885Y-39588262D01*
X119740956Y-39687540D01*
X119721842Y-39745167D01*
X119681411Y-39803527D01*
X119615847Y-39830764D01*
X119602249Y-39831500D01*
X116354500Y-39831500D01*
X116286379Y-39811498D01*
X116239886Y-39757842D01*
X116228500Y-39705500D01*
X116228500Y-37557603D01*
X116248502Y-37489482D01*
X116302158Y-37442989D01*
X116314624Y-37438079D01*
X116340578Y-37429420D01*
X116347526Y-37427102D01*
X116496689Y-37334797D01*
X116620617Y-37210653D01*
X116712661Y-37061329D01*
X116743752Y-36967594D01*
X116765719Y-36901366D01*
X116765719Y-36901364D01*
X116767885Y-36894835D01*
X116778500Y-36791231D01*
X116778500Y-36782095D01*
X117537001Y-36782095D01*
X117537338Y-36788614D01*
X117547257Y-36884206D01*
X117550149Y-36897600D01*
X117601588Y-37051784D01*
X117607761Y-37064962D01*
X117693063Y-37202807D01*
X117702099Y-37214208D01*
X117816829Y-37328739D01*
X117828240Y-37337751D01*
X117966243Y-37422816D01*
X117979424Y-37428963D01*
X118133710Y-37480138D01*
X118147086Y-37483005D01*
X118241438Y-37492672D01*
X118247854Y-37493000D01*
X118472885Y-37493000D01*
X118488124Y-37488525D01*
X118489329Y-37487135D01*
X118491000Y-37479452D01*
X118491000Y-37474884D01*
X118999000Y-37474884D01*
X119003475Y-37490123D01*
X119004865Y-37491328D01*
X119012548Y-37492999D01*
X119242095Y-37492999D01*
X119248614Y-37492662D01*
X119344206Y-37482743D01*
X119357600Y-37479851D01*
X119511784Y-37428412D01*
X119524962Y-37422239D01*
X119662807Y-37336937D01*
X119674208Y-37327901D01*
X119788739Y-37213171D01*
X119797751Y-37201760D01*
X119882816Y-37063757D01*
X119888963Y-37050576D01*
X119940138Y-36896290D01*
X119943005Y-36882914D01*
X119952672Y-36788562D01*
X119953000Y-36782146D01*
X119953000Y-36744615D01*
X119948525Y-36729376D01*
X119947135Y-36728171D01*
X119939452Y-36726500D01*
X119017115Y-36726500D01*
X119001876Y-36730975D01*
X119000671Y-36732365D01*
X118999000Y-36740048D01*
X118999000Y-37474884D01*
X118491000Y-37474884D01*
X118491000Y-36744615D01*
X118486525Y-36729376D01*
X118485135Y-36728171D01*
X118477452Y-36726500D01*
X117555116Y-36726500D01*
X117539877Y-36730975D01*
X117538672Y-36732365D01*
X117537001Y-36740048D01*
X117537001Y-36782095D01*
X116778500Y-36782095D01*
X116778499Y-36203770D01*
X116767616Y-36098871D01*
X116765437Y-36092340D01*
X116765436Y-36092335D01*
X116714420Y-35939422D01*
X116712102Y-35932474D01*
X116619797Y-35783311D01*
X116495653Y-35659383D01*
X116492730Y-35657581D01*
X116452592Y-35600971D01*
X116449358Y-35530048D01*
X116484982Y-35468636D01*
X116491378Y-35463084D01*
X116496689Y-35459797D01*
X116613300Y-35342982D01*
X116675584Y-35308903D01*
X116702474Y-35306000D01*
X117577835Y-35306000D01*
X117645956Y-35326002D01*
X117684978Y-35365695D01*
X117692669Y-35378123D01*
X117692673Y-35378128D01*
X117696522Y-35384348D01*
X117701700Y-35389517D01*
X117783463Y-35471138D01*
X117817542Y-35533421D01*
X117812539Y-35604241D01*
X117783618Y-35649329D01*
X117701261Y-35731829D01*
X117692249Y-35743240D01*
X117607184Y-35881243D01*
X117601037Y-35894424D01*
X117549862Y-36048710D01*
X117546995Y-36062086D01*
X117537328Y-36156438D01*
X117537000Y-36162855D01*
X117537000Y-36200385D01*
X117541475Y-36215624D01*
X117542865Y-36216829D01*
X117550548Y-36218500D01*
X119934884Y-36218500D01*
X119950123Y-36214025D01*
X119951328Y-36212635D01*
X119952999Y-36204952D01*
X119952999Y-36162905D01*
X119952662Y-36156386D01*
X119942743Y-36060794D01*
X119939851Y-36047400D01*
X119888412Y-35893216D01*
X119882239Y-35880038D01*
X119796937Y-35742193D01*
X119787901Y-35730792D01*
X119706538Y-35649570D01*
X119672459Y-35587287D01*
X119677462Y-35516467D01*
X119706383Y-35471380D01*
X119789130Y-35388488D01*
X119789134Y-35388483D01*
X119794305Y-35383303D01*
X119819850Y-35341862D01*
X119883275Y-35238968D01*
X119883276Y-35238966D01*
X119887115Y-35232738D01*
X119942797Y-35064861D01*
X119953500Y-34960400D01*
X119953500Y-34334600D01*
X119942526Y-34228834D01*
X119924022Y-34173369D01*
X119888868Y-34068002D01*
X119886550Y-34061054D01*
X119793478Y-33910652D01*
X119668303Y-33785695D01*
X119661253Y-33781349D01*
X119523968Y-33696725D01*
X119523966Y-33696724D01*
X119517738Y-33692885D01*
X119357254Y-33639655D01*
X119356389Y-33639368D01*
X119356387Y-33639368D01*
X119349861Y-33637203D01*
X119343025Y-33636503D01*
X119343022Y-33636502D01*
X119299969Y-33632091D01*
X119245400Y-33626500D01*
X118244600Y-33626500D01*
X118241354Y-33626837D01*
X118241350Y-33626837D01*
X118145692Y-33636762D01*
X118145688Y-33636763D01*
X118138834Y-33637474D01*
X118132298Y-33639655D01*
X118132296Y-33639655D01*
X118000194Y-33683728D01*
X117971054Y-33693450D01*
X117820652Y-33786522D01*
X117695695Y-33911697D01*
X117684958Y-33929116D01*
X117632187Y-33976609D01*
X117577698Y-33989000D01*
X116739931Y-33989000D01*
X116671810Y-33968998D01*
X116632788Y-33929304D01*
X116619797Y-33908311D01*
X116495653Y-33784383D01*
X116346329Y-33692339D01*
X116332120Y-33687626D01*
X116186366Y-33639281D01*
X116186364Y-33639281D01*
X116179835Y-33637115D01*
X116076231Y-33626500D01*
X115573904Y-33626500D01*
X115063770Y-33626501D01*
X114958871Y-33637384D01*
X114952340Y-33639563D01*
X114952335Y-33639564D01*
X114808276Y-33687626D01*
X114792474Y-33692898D01*
X114643311Y-33785203D01*
X114519383Y-33909347D01*
X114515543Y-33915577D01*
X114515542Y-33915578D01*
X114514095Y-33917925D01*
X114427339Y-34058671D01*
X114425034Y-34065619D01*
X114425034Y-34065620D01*
X114390345Y-34170205D01*
X114372115Y-34225165D01*
X114361500Y-34328769D01*
X114361501Y-34916230D01*
X114372384Y-35021129D01*
X114374563Y-35027660D01*
X114374564Y-35027665D01*
X114384692Y-35058022D01*
X114427898Y-35187526D01*
X114520203Y-35336689D01*
X114644347Y-35460617D01*
X114647270Y-35462419D01*
X114687408Y-35519029D01*
X114690642Y-35589952D01*
X114655018Y-35651364D01*
X114648622Y-35656916D01*
X114643311Y-35660203D01*
X114519383Y-35784347D01*
X114427339Y-35933671D01*
X114372115Y-36100165D01*
X114361500Y-36203769D01*
X114361501Y-36791230D01*
X114372384Y-36896129D01*
X114374563Y-36902660D01*
X114374564Y-36902665D01*
X114423911Y-37050576D01*
X114427898Y-37062526D01*
X114520203Y-37211689D01*
X114644347Y-37335617D01*
X114793671Y-37427661D01*
X114825168Y-37438108D01*
X114883528Y-37478539D01*
X114910764Y-37544104D01*
X114911500Y-37557701D01*
X114911500Y-39705500D01*
X114891498Y-39773621D01*
X114837842Y-39820114D01*
X114785500Y-39831500D01*
X110701291Y-39831500D01*
X110633170Y-39811498D01*
X110586677Y-39757842D01*
X110576028Y-39719108D01*
X110572598Y-39687540D01*
X110571745Y-39679684D01*
X110520615Y-39543295D01*
X110433261Y-39426739D01*
X110316705Y-39339385D01*
X110180316Y-39288255D01*
X110118134Y-39281500D01*
X108321866Y-39281500D01*
X108259684Y-39288255D01*
X108123295Y-39339385D01*
X108006739Y-39426739D01*
X107919385Y-39543295D01*
X107868255Y-39679684D01*
X107861500Y-39741866D01*
X107861500Y-41523050D01*
X107841498Y-41591171D01*
X107824595Y-41612145D01*
X107402650Y-42034090D01*
X107340338Y-42068116D01*
X107269523Y-42063051D01*
X107212687Y-42020504D01*
X107187876Y-41953984D01*
X107187555Y-41944986D01*
X107187918Y-36868113D01*
X107207925Y-36799994D01*
X107261584Y-36753505D01*
X107331859Y-36743406D01*
X107396437Y-36772903D01*
X107431150Y-36821942D01*
X107477374Y-36939288D01*
X107508151Y-36997909D01*
X107623104Y-37216862D01*
X107643957Y-37256582D01*
X107645858Y-37259411D01*
X107645864Y-37259421D01*
X107796108Y-37483005D01*
X107843834Y-37554029D01*
X108074665Y-37828150D01*
X108333751Y-38075738D01*
X108618061Y-38293897D01*
X108650056Y-38313350D01*
X108921355Y-38478303D01*
X108921360Y-38478306D01*
X108924270Y-38480075D01*
X108927358Y-38481521D01*
X108927357Y-38481521D01*
X109245710Y-38630649D01*
X109245720Y-38630653D01*
X109248794Y-38632093D01*
X109252012Y-38633195D01*
X109252015Y-38633196D01*
X109584615Y-38747071D01*
X109584623Y-38747073D01*
X109587838Y-38748174D01*
X109937435Y-38826959D01*
X109989728Y-38832917D01*
X110290114Y-38867142D01*
X110290122Y-38867142D01*
X110293497Y-38867527D01*
X110296901Y-38867545D01*
X110296904Y-38867545D01*
X110491227Y-38868562D01*
X110651857Y-38869403D01*
X110655243Y-38869053D01*
X110655245Y-38869053D01*
X111004932Y-38832917D01*
X111004941Y-38832916D01*
X111008324Y-38832566D01*
X111011657Y-38831852D01*
X111011660Y-38831851D01*
X111184186Y-38794864D01*
X111358727Y-38757446D01*
X111698968Y-38644922D01*
X112025066Y-38496311D01*
X112119052Y-38440506D01*
X112330262Y-38315099D01*
X112330267Y-38315096D01*
X112333207Y-38313350D01*
X112619786Y-38098180D01*
X112881451Y-37853319D01*
X113115140Y-37581630D01*
X113282135Y-37338651D01*
X113316190Y-37289101D01*
X113316195Y-37289094D01*
X113318120Y-37286292D01*
X113319732Y-37283298D01*
X113319737Y-37283290D01*
X113486395Y-36973772D01*
X113488017Y-36970760D01*
X113622842Y-36638724D01*
X113633142Y-36602568D01*
X113653527Y-36531006D01*
X113721020Y-36294070D01*
X113727386Y-36256829D01*
X113780829Y-35944175D01*
X113780829Y-35944173D01*
X113781401Y-35940828D01*
X113783511Y-35906340D01*
X113803168Y-35584928D01*
X113803278Y-35583131D01*
X113803359Y-35560000D01*
X113783979Y-35202159D01*
X113726066Y-34848505D01*
X113630297Y-34503173D01*
X113627243Y-34495497D01*
X113519664Y-34225165D01*
X113497793Y-34170205D01*
X113442418Y-34065620D01*
X113331702Y-33856513D01*
X113331698Y-33856506D01*
X113330103Y-33853494D01*
X113129190Y-33556746D01*
X112897403Y-33283432D01*
X112637454Y-33036750D01*
X112352384Y-32819585D01*
X112349472Y-32817828D01*
X112349467Y-32817825D01*
X112048443Y-32636236D01*
X112048437Y-32636233D01*
X112045528Y-32634478D01*
X111874763Y-32555211D01*
X111745627Y-32495268D01*
X111692260Y-32448444D01*
X111672680Y-32380201D01*
X111693104Y-32312205D01*
X111747046Y-32266046D01*
X111798686Y-32254981D01*
X134137461Y-32256617D01*
G37*
G04 #@! TD.AperFunction*
M02*
