%FSLAX45Y45*%
G04 Gerber Fmt 4.5, Leading zero omitted, Abs format (unit mm)*
G04 Created by KiCad (PCBNEW 6.0.1-79c1e3a40b~116~ubuntu20.04.1) date 2022-01-21 15:32:25*
%MOMM*%
%LPD*%
G01*
G04 APERTURE LIST*
%TA.AperFunction,Profile*%
%ADD10C,0.100000*%
%TD*%
%ADD11C,0.200000*%
%ADD12C,0.050000*%
%ADD13C,0.100000*%
%ADD14C,0.320000*%
G04 APERTURE END LIST*
D10*
X11049000Y-3174689D02*
G75*
G03*
X10668000Y-3571408I53J-381362D01*
G01*
X14605052Y-9017362D02*
G75*
G03*
X14986052Y-8620643I-53J381362D01*
G01*
X14589643Y-3174948D02*
X11049000Y-3174689D01*
X10667638Y-8636052D02*
G75*
G03*
X11064357Y-9017052I381362J53D01*
G01*
X11064357Y-9017052D02*
X14605052Y-9017362D01*
X14986052Y-8620643D02*
X14986362Y-3555948D01*
X14986362Y-3555948D02*
G75*
G03*
X14589643Y-3174948I-381362J-53D01*
G01*
X10668000Y-3571408D02*
X10667638Y-8636052D01*
D11*
D12*
X11709800Y-6604400D02*
X11759800Y-6654400D01*
X11759800Y-6604400D02*
X11709800Y-6654400D01*
X11735200Y-4166000D02*
X11785200Y-4216000D01*
X11785200Y-4166000D02*
X11735200Y-4216000D01*
X11963800Y-4157250D02*
X12013800Y-4207250D01*
X12013800Y-4157250D02*
X11963800Y-4207250D01*
X12042540Y-3622440D02*
X12092540Y-3672440D01*
X12092540Y-3622440D02*
X12042540Y-3672440D01*
X12090800Y-6045600D02*
X12140800Y-6095600D01*
X12140800Y-6045600D02*
X12090800Y-6095600D01*
X12141600Y-7150500D02*
X12191600Y-7200500D01*
X12191600Y-7150500D02*
X12141600Y-7200500D01*
X12141600Y-7277500D02*
X12191600Y-7327500D01*
X12191600Y-7277500D02*
X12141600Y-7327500D01*
X12141600Y-7404500D02*
X12191600Y-7454500D01*
X12191600Y-7404500D02*
X12141600Y-7454500D01*
X12141600Y-7531500D02*
X12191600Y-7581500D01*
X12191600Y-7531500D02*
X12141600Y-7581500D01*
X12141600Y-7658500D02*
X12191600Y-7708500D01*
X12191600Y-7658500D02*
X12141600Y-7708500D01*
X12141600Y-7785500D02*
X12191600Y-7835500D01*
X12191600Y-7785500D02*
X12141600Y-7835500D01*
X12141600Y-7912500D02*
X12191600Y-7962500D01*
X12191600Y-7912500D02*
X12141600Y-7962500D01*
X12141600Y-8039500D02*
X12191600Y-8089500D01*
X12191600Y-8039500D02*
X12141600Y-8089500D01*
X12154300Y-4839100D02*
X12204300Y-4889100D01*
X12204300Y-4839100D02*
X12154300Y-4889100D01*
X12154300Y-4978800D02*
X12204300Y-5028800D01*
X12204300Y-4978800D02*
X12154300Y-5028800D01*
X12154300Y-5118500D02*
X12204300Y-5168500D01*
X12204300Y-5118500D02*
X12154300Y-5168500D01*
X12154300Y-5245500D02*
X12204300Y-5295500D01*
X12204300Y-5245500D02*
X12154300Y-5295500D01*
X12154300Y-5372500D02*
X12204300Y-5422500D01*
X12204300Y-5372500D02*
X12154300Y-5422500D01*
X12154300Y-5499500D02*
X12204300Y-5549500D01*
X12204300Y-5499500D02*
X12154300Y-5549500D01*
X12154300Y-5626500D02*
X12204300Y-5676500D01*
X12204300Y-5626500D02*
X12154300Y-5676500D01*
X12154300Y-5753500D02*
X12204300Y-5803500D01*
X12204300Y-5753500D02*
X12154300Y-5803500D01*
X12191456Y-4208994D02*
X12241456Y-4258994D01*
X12241456Y-4208994D02*
X12191456Y-4258994D01*
X12268600Y-6452000D02*
X12318600Y-6502000D01*
X12318600Y-6452000D02*
X12268600Y-6502000D01*
X12446400Y-6045600D02*
X12496400Y-6095600D01*
X12496400Y-6045600D02*
X12446400Y-6095600D01*
X12675000Y-4470800D02*
X12725000Y-4520800D01*
X12725000Y-4470800D02*
X12675000Y-4520800D01*
X13271900Y-6464700D02*
X13321900Y-6514700D01*
X13321900Y-6464700D02*
X13271900Y-6514700D01*
X13350640Y-3985660D02*
X13400640Y-4035660D01*
X13400640Y-3985660D02*
X13350640Y-4035660D01*
X13703700Y-5639200D02*
X13753700Y-5689200D01*
X13753700Y-5639200D02*
X13703700Y-5689200D01*
X13703700Y-5867800D02*
X13753700Y-5917800D01*
X13753700Y-5867800D02*
X13703700Y-5917800D01*
X13716400Y-4127900D02*
X13766400Y-4177900D01*
X13766400Y-4127900D02*
X13716400Y-4177900D01*
X13716400Y-4381900D02*
X13766400Y-4431900D01*
X13766400Y-4381900D02*
X13716400Y-4431900D01*
X13716400Y-4623200D02*
X13766400Y-4673200D01*
X13766400Y-4623200D02*
X13716400Y-4673200D01*
X13716400Y-4877200D02*
X13766400Y-4927200D01*
X13766400Y-4877200D02*
X13716400Y-4927200D01*
X13716400Y-5143900D02*
X13766400Y-5193900D01*
X13766400Y-5143900D02*
X13716400Y-5193900D01*
X13716400Y-5410600D02*
X13766400Y-5460600D01*
X13766400Y-5410600D02*
X13716400Y-5460600D01*
X14478400Y-4153300D02*
X14528400Y-4203300D01*
X14528400Y-4153300D02*
X14478400Y-4203300D01*
X14478400Y-4420000D02*
X14528400Y-4470000D01*
X14528400Y-4420000D02*
X14478400Y-4470000D01*
X14478400Y-4674000D02*
X14528400Y-4724000D01*
X14528400Y-4674000D02*
X14478400Y-4724000D01*
X14478400Y-4915300D02*
X14528400Y-4965300D01*
X14528400Y-4915300D02*
X14478400Y-4965300D01*
X14478400Y-5169300D02*
X14528400Y-5219300D01*
X14528400Y-5169300D02*
X14478400Y-5219300D01*
X14478400Y-5436000D02*
X14528400Y-5486000D01*
X14528400Y-5436000D02*
X14478400Y-5486000D01*
X14478400Y-5690000D02*
X14528400Y-5740000D01*
X14528400Y-5690000D02*
X14478400Y-5740000D01*
X14478400Y-5931300D02*
X14528400Y-5981300D01*
X14528400Y-5931300D02*
X14478400Y-5981300D01*
D13*
X10972000Y-4064000D02*
G75*
G03*
X10972000Y-4064000I-50000J0D01*
G01*
X10972000Y-4318000D02*
G75*
G03*
X10972000Y-4318000I-50000J0D01*
G01*
X10972000Y-4572000D02*
G75*
G03*
X10972000Y-4572000I-50000J0D01*
G01*
X10972000Y-4826000D02*
G75*
G03*
X10972000Y-4826000I-50000J0D01*
G01*
X10972000Y-5080000D02*
G75*
G03*
X10972000Y-5080000I-50000J0D01*
G01*
X10972000Y-5334000D02*
G75*
G03*
X10972000Y-5334000I-50000J0D01*
G01*
X10972000Y-5588000D02*
G75*
G03*
X10972000Y-5588000I-50000J0D01*
G01*
X10972000Y-6350000D02*
G75*
G03*
X10972000Y-6350000I-50000J0D01*
G01*
X10972000Y-6604000D02*
G75*
G03*
X10972000Y-6604000I-50000J0D01*
G01*
X10972000Y-6858000D02*
G75*
G03*
X10972000Y-6858000I-50000J0D01*
G01*
X10972000Y-7366000D02*
G75*
G03*
X10972000Y-7366000I-50000J0D01*
G01*
X10972000Y-7620000D02*
G75*
G03*
X10972000Y-7620000I-50000J0D01*
G01*
X10972000Y-7874000D02*
G75*
G03*
X10972000Y-7874000I-50000J0D01*
G01*
D14*
X11049000Y-3396000D02*
X11049000Y-3716000D01*
X10889000Y-3556000D02*
X11209000Y-3556000D01*
X11049000Y-8476000D02*
X11049000Y-8796000D01*
X10889000Y-8636000D02*
X11209000Y-8636000D01*
X14605000Y-3396000D02*
X14605000Y-3716000D01*
X14445000Y-3556000D02*
X14765000Y-3556000D01*
X14605000Y-8476000D02*
X14605000Y-8796000D01*
X14445000Y-8636000D02*
X14765000Y-8636000D01*
D11*
X10920257Y-9332838D02*
X10920257Y-9132838D01*
X10967876Y-9132838D01*
X10996448Y-9142362D01*
X11015495Y-9161409D01*
X11025019Y-9180457D01*
X11034543Y-9218552D01*
X11034543Y-9247124D01*
X11025019Y-9285219D01*
X11015495Y-9304267D01*
X10996448Y-9323314D01*
X10967876Y-9332838D01*
X10920257Y-9332838D01*
X11120257Y-9332838D02*
X11120257Y-9199505D01*
X11120257Y-9237600D02*
X11129781Y-9218552D01*
X11139305Y-9209028D01*
X11158352Y-9199505D01*
X11177400Y-9199505D01*
X11244067Y-9332838D02*
X11244067Y-9199505D01*
X11244067Y-9132838D02*
X11234543Y-9142362D01*
X11244067Y-9151886D01*
X11253590Y-9142362D01*
X11244067Y-9132838D01*
X11244067Y-9151886D01*
X11367876Y-9332838D02*
X11348829Y-9323314D01*
X11339305Y-9304267D01*
X11339305Y-9132838D01*
X11472638Y-9332838D02*
X11453590Y-9323314D01*
X11444067Y-9304267D01*
X11444067Y-9132838D01*
X11701210Y-9332838D02*
X11701210Y-9132838D01*
X11767876Y-9275695D01*
X11834543Y-9132838D01*
X11834543Y-9332838D01*
X12015495Y-9332838D02*
X12015495Y-9228076D01*
X12005971Y-9209028D01*
X11986924Y-9199505D01*
X11948829Y-9199505D01*
X11929781Y-9209028D01*
X12015495Y-9323314D02*
X11996448Y-9332838D01*
X11948829Y-9332838D01*
X11929781Y-9323314D01*
X11920257Y-9304267D01*
X11920257Y-9285219D01*
X11929781Y-9266171D01*
X11948829Y-9256648D01*
X11996448Y-9256648D01*
X12015495Y-9247124D01*
X12110733Y-9199505D02*
X12110733Y-9399505D01*
X12110733Y-9209028D02*
X12129781Y-9199505D01*
X12167876Y-9199505D01*
X12186924Y-9209028D01*
X12196448Y-9218552D01*
X12205971Y-9237600D01*
X12205971Y-9294743D01*
X12196448Y-9313790D01*
X12186924Y-9323314D01*
X12167876Y-9332838D01*
X12129781Y-9332838D01*
X12110733Y-9323314D01*
X12291686Y-9313790D02*
X12301210Y-9323314D01*
X12291686Y-9332838D01*
X12282162Y-9323314D01*
X12291686Y-9313790D01*
X12291686Y-9332838D01*
X12291686Y-9209028D02*
X12301210Y-9218552D01*
X12291686Y-9228076D01*
X12282162Y-9218552D01*
X12291686Y-9209028D01*
X12291686Y-9228076D01*
D12*
X10612638Y-9637362D02*
X10662638Y-9687362D01*
X10662638Y-9637362D02*
X10612638Y-9687362D01*
D11*
X10958352Y-9552838D02*
X10977400Y-9552838D01*
X10996448Y-9562362D01*
X11005972Y-9571886D01*
X11015495Y-9590933D01*
X11025019Y-9629028D01*
X11025019Y-9676648D01*
X11015495Y-9714743D01*
X11005972Y-9733790D01*
X10996448Y-9743314D01*
X10977400Y-9752838D01*
X10958352Y-9752838D01*
X10939305Y-9743314D01*
X10929781Y-9733790D01*
X10920257Y-9714743D01*
X10910733Y-9676648D01*
X10910733Y-9629028D01*
X10920257Y-9590933D01*
X10929781Y-9571886D01*
X10939305Y-9562362D01*
X10958352Y-9552838D01*
X11110733Y-9733790D02*
X11120257Y-9743314D01*
X11110733Y-9752838D01*
X11101210Y-9743314D01*
X11110733Y-9733790D01*
X11110733Y-9752838D01*
X11301210Y-9552838D02*
X11205971Y-9552838D01*
X11196448Y-9648076D01*
X11205971Y-9638552D01*
X11225019Y-9629028D01*
X11272638Y-9629028D01*
X11291686Y-9638552D01*
X11301210Y-9648076D01*
X11310733Y-9667124D01*
X11310733Y-9714743D01*
X11301210Y-9733790D01*
X11291686Y-9743314D01*
X11272638Y-9752838D01*
X11225019Y-9752838D01*
X11205971Y-9743314D01*
X11196448Y-9733790D01*
X11434543Y-9552838D02*
X11453590Y-9552838D01*
X11472638Y-9562362D01*
X11482162Y-9571886D01*
X11491686Y-9590933D01*
X11501210Y-9629028D01*
X11501210Y-9676648D01*
X11491686Y-9714743D01*
X11482162Y-9733790D01*
X11472638Y-9743314D01*
X11453590Y-9752838D01*
X11434543Y-9752838D01*
X11415495Y-9743314D01*
X11405971Y-9733790D01*
X11396448Y-9714743D01*
X11386924Y-9676648D01*
X11386924Y-9629028D01*
X11396448Y-9590933D01*
X11405971Y-9571886D01*
X11415495Y-9562362D01*
X11434543Y-9552838D01*
X11625019Y-9552838D02*
X11644067Y-9552838D01*
X11663114Y-9562362D01*
X11672638Y-9571886D01*
X11682162Y-9590933D01*
X11691686Y-9629028D01*
X11691686Y-9676648D01*
X11682162Y-9714743D01*
X11672638Y-9733790D01*
X11663114Y-9743314D01*
X11644067Y-9752838D01*
X11625019Y-9752838D01*
X11605971Y-9743314D01*
X11596448Y-9733790D01*
X11586924Y-9714743D01*
X11577400Y-9676648D01*
X11577400Y-9629028D01*
X11586924Y-9590933D01*
X11596448Y-9571886D01*
X11605971Y-9562362D01*
X11625019Y-9552838D01*
X11777400Y-9752838D02*
X11777400Y-9619505D01*
X11777400Y-9638552D02*
X11786924Y-9629028D01*
X11805971Y-9619505D01*
X11834543Y-9619505D01*
X11853590Y-9629028D01*
X11863114Y-9648076D01*
X11863114Y-9752838D01*
X11863114Y-9648076D02*
X11872638Y-9629028D01*
X11891686Y-9619505D01*
X11920257Y-9619505D01*
X11939305Y-9629028D01*
X11948829Y-9648076D01*
X11948829Y-9752838D01*
X12044067Y-9752838D02*
X12044067Y-9619505D01*
X12044067Y-9638552D02*
X12053590Y-9629028D01*
X12072638Y-9619505D01*
X12101210Y-9619505D01*
X12120257Y-9629028D01*
X12129781Y-9648076D01*
X12129781Y-9752838D01*
X12129781Y-9648076D02*
X12139305Y-9629028D01*
X12158352Y-9619505D01*
X12186924Y-9619505D01*
X12205971Y-9629028D01*
X12215495Y-9648076D01*
X12215495Y-9752838D01*
X12605971Y-9543314D02*
X12434543Y-9800457D01*
X12863114Y-9552838D02*
X12882162Y-9552838D01*
X12901210Y-9562362D01*
X12910733Y-9571886D01*
X12920257Y-9590933D01*
X12929781Y-9629028D01*
X12929781Y-9676648D01*
X12920257Y-9714743D01*
X12910733Y-9733790D01*
X12901210Y-9743314D01*
X12882162Y-9752838D01*
X12863114Y-9752838D01*
X12844067Y-9743314D01*
X12834543Y-9733790D01*
X12825019Y-9714743D01*
X12815495Y-9676648D01*
X12815495Y-9629028D01*
X12825019Y-9590933D01*
X12834543Y-9571886D01*
X12844067Y-9562362D01*
X12863114Y-9552838D01*
X13015495Y-9733790D02*
X13025019Y-9743314D01*
X13015495Y-9752838D01*
X13005971Y-9743314D01*
X13015495Y-9733790D01*
X13015495Y-9752838D01*
X13148829Y-9552838D02*
X13167876Y-9552838D01*
X13186924Y-9562362D01*
X13196448Y-9571886D01*
X13205971Y-9590933D01*
X13215495Y-9629028D01*
X13215495Y-9676648D01*
X13205971Y-9714743D01*
X13196448Y-9733790D01*
X13186924Y-9743314D01*
X13167876Y-9752838D01*
X13148829Y-9752838D01*
X13129781Y-9743314D01*
X13120257Y-9733790D01*
X13110733Y-9714743D01*
X13101210Y-9676648D01*
X13101210Y-9629028D01*
X13110733Y-9590933D01*
X13120257Y-9571886D01*
X13129781Y-9562362D01*
X13148829Y-9552838D01*
X13405971Y-9752838D02*
X13291686Y-9752838D01*
X13348829Y-9752838D02*
X13348829Y-9552838D01*
X13329781Y-9581409D01*
X13310733Y-9600457D01*
X13291686Y-9609981D01*
X13501210Y-9752838D02*
X13539305Y-9752838D01*
X13558352Y-9743314D01*
X13567876Y-9733790D01*
X13586924Y-9705219D01*
X13596448Y-9667124D01*
X13596448Y-9590933D01*
X13586924Y-9571886D01*
X13577400Y-9562362D01*
X13558352Y-9552838D01*
X13520257Y-9552838D01*
X13501210Y-9562362D01*
X13491686Y-9571886D01*
X13482162Y-9590933D01*
X13482162Y-9638552D01*
X13491686Y-9657600D01*
X13501210Y-9667124D01*
X13520257Y-9676648D01*
X13558352Y-9676648D01*
X13577400Y-9667124D01*
X13586924Y-9657600D01*
X13596448Y-9638552D01*
X13663114Y-9552838D02*
X13796448Y-9552838D01*
X13710733Y-9752838D01*
X13863114Y-9552838D02*
X13863114Y-9590933D01*
X13939305Y-9552838D02*
X13939305Y-9590933D01*
X14234543Y-9829028D02*
X14225019Y-9819505D01*
X14205971Y-9790933D01*
X14196448Y-9771886D01*
X14186924Y-9743314D01*
X14177400Y-9695695D01*
X14177400Y-9657600D01*
X14186924Y-9609981D01*
X14196448Y-9581409D01*
X14205971Y-9562362D01*
X14225019Y-9533790D01*
X14234543Y-9524267D01*
X14396448Y-9619505D02*
X14396448Y-9752838D01*
X14348829Y-9543314D02*
X14301210Y-9686171D01*
X14425019Y-9686171D01*
X14482162Y-9552838D02*
X14605971Y-9552838D01*
X14539305Y-9629028D01*
X14567876Y-9629028D01*
X14586924Y-9638552D01*
X14596448Y-9648076D01*
X14605971Y-9667124D01*
X14605971Y-9714743D01*
X14596448Y-9733790D01*
X14586924Y-9743314D01*
X14567876Y-9752838D01*
X14510733Y-9752838D01*
X14491686Y-9743314D01*
X14482162Y-9733790D01*
X14844067Y-9752838D02*
X14844067Y-9552838D01*
X14929781Y-9752838D02*
X14929781Y-9648076D01*
X14920257Y-9629028D01*
X14901210Y-9619505D01*
X14872638Y-9619505D01*
X14853590Y-9629028D01*
X14844067Y-9638552D01*
X15053590Y-9752838D02*
X15034543Y-9743314D01*
X15025019Y-9733790D01*
X15015495Y-9714743D01*
X15015495Y-9657600D01*
X15025019Y-9638552D01*
X15034543Y-9629028D01*
X15053590Y-9619505D01*
X15082162Y-9619505D01*
X15101210Y-9629028D01*
X15110733Y-9638552D01*
X15120257Y-9657600D01*
X15120257Y-9714743D01*
X15110733Y-9733790D01*
X15101210Y-9743314D01*
X15082162Y-9752838D01*
X15053590Y-9752838D01*
X15234543Y-9752838D02*
X15215495Y-9743314D01*
X15205971Y-9724267D01*
X15205971Y-9552838D01*
X15386924Y-9743314D02*
X15367876Y-9752838D01*
X15329781Y-9752838D01*
X15310733Y-9743314D01*
X15301210Y-9724267D01*
X15301210Y-9648076D01*
X15310733Y-9629028D01*
X15329781Y-9619505D01*
X15367876Y-9619505D01*
X15386924Y-9629028D01*
X15396448Y-9648076D01*
X15396448Y-9667124D01*
X15301210Y-9686171D01*
X15472638Y-9743314D02*
X15491686Y-9752838D01*
X15529781Y-9752838D01*
X15548829Y-9743314D01*
X15558352Y-9724267D01*
X15558352Y-9714743D01*
X15548829Y-9695695D01*
X15529781Y-9686171D01*
X15501210Y-9686171D01*
X15482162Y-9676648D01*
X15472638Y-9657600D01*
X15472638Y-9648076D01*
X15482162Y-9629028D01*
X15501210Y-9619505D01*
X15529781Y-9619505D01*
X15548829Y-9629028D01*
X15625019Y-9829028D02*
X15634543Y-9819505D01*
X15653590Y-9790933D01*
X15663114Y-9771886D01*
X15672638Y-9743314D01*
X15682162Y-9695695D01*
X15682162Y-9657600D01*
X15672638Y-9609981D01*
X15663114Y-9581409D01*
X15653590Y-9562362D01*
X15634543Y-9533790D01*
X15625019Y-9524267D01*
D13*
X10662638Y-9926362D02*
G75*
G03*
X10662638Y-9926362I-50000J0D01*
G01*
D11*
X11025019Y-10016838D02*
X10910733Y-10016838D01*
X10967876Y-10016838D02*
X10967876Y-9816838D01*
X10948829Y-9845409D01*
X10929781Y-9864457D01*
X10910733Y-9873981D01*
X11110733Y-9997790D02*
X11120257Y-10007314D01*
X11110733Y-10016838D01*
X11101210Y-10007314D01*
X11110733Y-9997790D01*
X11110733Y-10016838D01*
X11244067Y-9816838D02*
X11263114Y-9816838D01*
X11282162Y-9826362D01*
X11291686Y-9835886D01*
X11301210Y-9854933D01*
X11310733Y-9893028D01*
X11310733Y-9940648D01*
X11301210Y-9978743D01*
X11291686Y-9997790D01*
X11282162Y-10007314D01*
X11263114Y-10016838D01*
X11244067Y-10016838D01*
X11225019Y-10007314D01*
X11215495Y-9997790D01*
X11205971Y-9978743D01*
X11196448Y-9940648D01*
X11196448Y-9893028D01*
X11205971Y-9854933D01*
X11215495Y-9835886D01*
X11225019Y-9826362D01*
X11244067Y-9816838D01*
X11434543Y-9816838D02*
X11453590Y-9816838D01*
X11472638Y-9826362D01*
X11482162Y-9835886D01*
X11491686Y-9854933D01*
X11501210Y-9893028D01*
X11501210Y-9940648D01*
X11491686Y-9978743D01*
X11482162Y-9997790D01*
X11472638Y-10007314D01*
X11453590Y-10016838D01*
X11434543Y-10016838D01*
X11415495Y-10007314D01*
X11405971Y-9997790D01*
X11396448Y-9978743D01*
X11386924Y-9940648D01*
X11386924Y-9893028D01*
X11396448Y-9854933D01*
X11405971Y-9835886D01*
X11415495Y-9826362D01*
X11434543Y-9816838D01*
X11625019Y-9816838D02*
X11644067Y-9816838D01*
X11663114Y-9826362D01*
X11672638Y-9835886D01*
X11682162Y-9854933D01*
X11691686Y-9893028D01*
X11691686Y-9940648D01*
X11682162Y-9978743D01*
X11672638Y-9997790D01*
X11663114Y-10007314D01*
X11644067Y-10016838D01*
X11625019Y-10016838D01*
X11605971Y-10007314D01*
X11596448Y-9997790D01*
X11586924Y-9978743D01*
X11577400Y-9940648D01*
X11577400Y-9893028D01*
X11586924Y-9854933D01*
X11596448Y-9835886D01*
X11605971Y-9826362D01*
X11625019Y-9816838D01*
X11777400Y-10016838D02*
X11777400Y-9883505D01*
X11777400Y-9902552D02*
X11786924Y-9893028D01*
X11805971Y-9883505D01*
X11834543Y-9883505D01*
X11853590Y-9893028D01*
X11863114Y-9912076D01*
X11863114Y-10016838D01*
X11863114Y-9912076D02*
X11872638Y-9893028D01*
X11891686Y-9883505D01*
X11920257Y-9883505D01*
X11939305Y-9893028D01*
X11948829Y-9912076D01*
X11948829Y-10016838D01*
X12044067Y-10016838D02*
X12044067Y-9883505D01*
X12044067Y-9902552D02*
X12053590Y-9893028D01*
X12072638Y-9883505D01*
X12101210Y-9883505D01*
X12120257Y-9893028D01*
X12129781Y-9912076D01*
X12129781Y-10016838D01*
X12129781Y-9912076D02*
X12139305Y-9893028D01*
X12158352Y-9883505D01*
X12186924Y-9883505D01*
X12205971Y-9893028D01*
X12215495Y-9912076D01*
X12215495Y-10016838D01*
X12605971Y-9807314D02*
X12434543Y-10064457D01*
X12863114Y-9816838D02*
X12882162Y-9816838D01*
X12901210Y-9826362D01*
X12910733Y-9835886D01*
X12920257Y-9854933D01*
X12929781Y-9893028D01*
X12929781Y-9940648D01*
X12920257Y-9978743D01*
X12910733Y-9997790D01*
X12901210Y-10007314D01*
X12882162Y-10016838D01*
X12863114Y-10016838D01*
X12844067Y-10007314D01*
X12834543Y-9997790D01*
X12825019Y-9978743D01*
X12815495Y-9940648D01*
X12815495Y-9893028D01*
X12825019Y-9854933D01*
X12834543Y-9835886D01*
X12844067Y-9826362D01*
X12863114Y-9816838D01*
X13015495Y-9997790D02*
X13025019Y-10007314D01*
X13015495Y-10016838D01*
X13005971Y-10007314D01*
X13015495Y-9997790D01*
X13015495Y-10016838D01*
X13148829Y-9816838D02*
X13167876Y-9816838D01*
X13186924Y-9826362D01*
X13196448Y-9835886D01*
X13205971Y-9854933D01*
X13215495Y-9893028D01*
X13215495Y-9940648D01*
X13205971Y-9978743D01*
X13196448Y-9997790D01*
X13186924Y-10007314D01*
X13167876Y-10016838D01*
X13148829Y-10016838D01*
X13129781Y-10007314D01*
X13120257Y-9997790D01*
X13110733Y-9978743D01*
X13101210Y-9940648D01*
X13101210Y-9893028D01*
X13110733Y-9854933D01*
X13120257Y-9835886D01*
X13129781Y-9826362D01*
X13148829Y-9816838D01*
X13282162Y-9816838D02*
X13405971Y-9816838D01*
X13339305Y-9893028D01*
X13367876Y-9893028D01*
X13386924Y-9902552D01*
X13396448Y-9912076D01*
X13405971Y-9931124D01*
X13405971Y-9978743D01*
X13396448Y-9997790D01*
X13386924Y-10007314D01*
X13367876Y-10016838D01*
X13310733Y-10016838D01*
X13291686Y-10007314D01*
X13282162Y-9997790D01*
X13501210Y-10016838D02*
X13539305Y-10016838D01*
X13558352Y-10007314D01*
X13567876Y-9997790D01*
X13586924Y-9969219D01*
X13596448Y-9931124D01*
X13596448Y-9854933D01*
X13586924Y-9835886D01*
X13577400Y-9826362D01*
X13558352Y-9816838D01*
X13520257Y-9816838D01*
X13501210Y-9826362D01*
X13491686Y-9835886D01*
X13482162Y-9854933D01*
X13482162Y-9902552D01*
X13491686Y-9921600D01*
X13501210Y-9931124D01*
X13520257Y-9940648D01*
X13558352Y-9940648D01*
X13577400Y-9931124D01*
X13586924Y-9921600D01*
X13596448Y-9902552D01*
X13767876Y-9883505D02*
X13767876Y-10016838D01*
X13720257Y-9807314D02*
X13672638Y-9950171D01*
X13796448Y-9950171D01*
X13863114Y-9816838D02*
X13863114Y-9854933D01*
X13939305Y-9816838D02*
X13939305Y-9854933D01*
X14234543Y-10093028D02*
X14225019Y-10083505D01*
X14205971Y-10054933D01*
X14196448Y-10035886D01*
X14186924Y-10007314D01*
X14177400Y-9959695D01*
X14177400Y-9921600D01*
X14186924Y-9873981D01*
X14196448Y-9845409D01*
X14205971Y-9826362D01*
X14225019Y-9797790D01*
X14234543Y-9788267D01*
X14415495Y-10016838D02*
X14301210Y-10016838D01*
X14358352Y-10016838D02*
X14358352Y-9816838D01*
X14339305Y-9845409D01*
X14320257Y-9864457D01*
X14301210Y-9873981D01*
X14482162Y-9816838D02*
X14605971Y-9816838D01*
X14539305Y-9893028D01*
X14567876Y-9893028D01*
X14586924Y-9902552D01*
X14596448Y-9912076D01*
X14605971Y-9931124D01*
X14605971Y-9978743D01*
X14596448Y-9997790D01*
X14586924Y-10007314D01*
X14567876Y-10016838D01*
X14510733Y-10016838D01*
X14491686Y-10007314D01*
X14482162Y-9997790D01*
X14844067Y-10016838D02*
X14844067Y-9816838D01*
X14929781Y-10016838D02*
X14929781Y-9912076D01*
X14920257Y-9893028D01*
X14901210Y-9883505D01*
X14872638Y-9883505D01*
X14853590Y-9893028D01*
X14844067Y-9902552D01*
X15053590Y-10016838D02*
X15034543Y-10007314D01*
X15025019Y-9997790D01*
X15015495Y-9978743D01*
X15015495Y-9921600D01*
X15025019Y-9902552D01*
X15034543Y-9893028D01*
X15053590Y-9883505D01*
X15082162Y-9883505D01*
X15101210Y-9893028D01*
X15110733Y-9902552D01*
X15120257Y-9921600D01*
X15120257Y-9978743D01*
X15110733Y-9997790D01*
X15101210Y-10007314D01*
X15082162Y-10016838D01*
X15053590Y-10016838D01*
X15234543Y-10016838D02*
X15215495Y-10007314D01*
X15205971Y-9988267D01*
X15205971Y-9816838D01*
X15386924Y-10007314D02*
X15367876Y-10016838D01*
X15329781Y-10016838D01*
X15310733Y-10007314D01*
X15301210Y-9988267D01*
X15301210Y-9912076D01*
X15310733Y-9893028D01*
X15329781Y-9883505D01*
X15367876Y-9883505D01*
X15386924Y-9893028D01*
X15396448Y-9912076D01*
X15396448Y-9931124D01*
X15301210Y-9950171D01*
X15472638Y-10007314D02*
X15491686Y-10016838D01*
X15529781Y-10016838D01*
X15548829Y-10007314D01*
X15558352Y-9988267D01*
X15558352Y-9978743D01*
X15548829Y-9959695D01*
X15529781Y-9950171D01*
X15501210Y-9950171D01*
X15482162Y-9940648D01*
X15472638Y-9921600D01*
X15472638Y-9912076D01*
X15482162Y-9893028D01*
X15501210Y-9883505D01*
X15529781Y-9883505D01*
X15548829Y-9893028D01*
X15625019Y-10093028D02*
X15634543Y-10083505D01*
X15653590Y-10054933D01*
X15663114Y-10035886D01*
X15672638Y-10007314D01*
X15682162Y-9959695D01*
X15682162Y-9921600D01*
X15672638Y-9873981D01*
X15663114Y-9845409D01*
X15653590Y-9826362D01*
X15634543Y-9797790D01*
X15625019Y-9788267D01*
X10562638Y-10090362D02*
X10562638Y-10290362D01*
X10462638Y-10190362D02*
X10662638Y-10190362D01*
X10901210Y-10080838D02*
X11025019Y-10080838D01*
X10958352Y-10157028D01*
X10986924Y-10157028D01*
X11005972Y-10166552D01*
X11015495Y-10176076D01*
X11025019Y-10195124D01*
X11025019Y-10242743D01*
X11015495Y-10261790D01*
X11005972Y-10271314D01*
X10986924Y-10280838D01*
X10929781Y-10280838D01*
X10910733Y-10271314D01*
X10901210Y-10261790D01*
X11110733Y-10261790D02*
X11120257Y-10271314D01*
X11110733Y-10280838D01*
X11101210Y-10271314D01*
X11110733Y-10261790D01*
X11110733Y-10280838D01*
X11196448Y-10099886D02*
X11205971Y-10090362D01*
X11225019Y-10080838D01*
X11272638Y-10080838D01*
X11291686Y-10090362D01*
X11301210Y-10099886D01*
X11310733Y-10118933D01*
X11310733Y-10137981D01*
X11301210Y-10166552D01*
X11186924Y-10280838D01*
X11310733Y-10280838D01*
X11434543Y-10080838D02*
X11453590Y-10080838D01*
X11472638Y-10090362D01*
X11482162Y-10099886D01*
X11491686Y-10118933D01*
X11501210Y-10157028D01*
X11501210Y-10204648D01*
X11491686Y-10242743D01*
X11482162Y-10261790D01*
X11472638Y-10271314D01*
X11453590Y-10280838D01*
X11434543Y-10280838D01*
X11415495Y-10271314D01*
X11405971Y-10261790D01*
X11396448Y-10242743D01*
X11386924Y-10204648D01*
X11386924Y-10157028D01*
X11396448Y-10118933D01*
X11405971Y-10099886D01*
X11415495Y-10090362D01*
X11434543Y-10080838D01*
X11625019Y-10080838D02*
X11644067Y-10080838D01*
X11663114Y-10090362D01*
X11672638Y-10099886D01*
X11682162Y-10118933D01*
X11691686Y-10157028D01*
X11691686Y-10204648D01*
X11682162Y-10242743D01*
X11672638Y-10261790D01*
X11663114Y-10271314D01*
X11644067Y-10280838D01*
X11625019Y-10280838D01*
X11605971Y-10271314D01*
X11596448Y-10261790D01*
X11586924Y-10242743D01*
X11577400Y-10204648D01*
X11577400Y-10157028D01*
X11586924Y-10118933D01*
X11596448Y-10099886D01*
X11605971Y-10090362D01*
X11625019Y-10080838D01*
X11777400Y-10280838D02*
X11777400Y-10147505D01*
X11777400Y-10166552D02*
X11786924Y-10157028D01*
X11805971Y-10147505D01*
X11834543Y-10147505D01*
X11853590Y-10157028D01*
X11863114Y-10176076D01*
X11863114Y-10280838D01*
X11863114Y-10176076D02*
X11872638Y-10157028D01*
X11891686Y-10147505D01*
X11920257Y-10147505D01*
X11939305Y-10157028D01*
X11948829Y-10176076D01*
X11948829Y-10280838D01*
X12044067Y-10280838D02*
X12044067Y-10147505D01*
X12044067Y-10166552D02*
X12053590Y-10157028D01*
X12072638Y-10147505D01*
X12101210Y-10147505D01*
X12120257Y-10157028D01*
X12129781Y-10176076D01*
X12129781Y-10280838D01*
X12129781Y-10176076D02*
X12139305Y-10157028D01*
X12158352Y-10147505D01*
X12186924Y-10147505D01*
X12205971Y-10157028D01*
X12215495Y-10176076D01*
X12215495Y-10280838D01*
X12605971Y-10071314D02*
X12434543Y-10328457D01*
X12863114Y-10080838D02*
X12882162Y-10080838D01*
X12901210Y-10090362D01*
X12910733Y-10099886D01*
X12920257Y-10118933D01*
X12929781Y-10157028D01*
X12929781Y-10204648D01*
X12920257Y-10242743D01*
X12910733Y-10261790D01*
X12901210Y-10271314D01*
X12882162Y-10280838D01*
X12863114Y-10280838D01*
X12844067Y-10271314D01*
X12834543Y-10261790D01*
X12825019Y-10242743D01*
X12815495Y-10204648D01*
X12815495Y-10157028D01*
X12825019Y-10118933D01*
X12834543Y-10099886D01*
X12844067Y-10090362D01*
X12863114Y-10080838D01*
X13015495Y-10261790D02*
X13025019Y-10271314D01*
X13015495Y-10280838D01*
X13005971Y-10271314D01*
X13015495Y-10261790D01*
X13015495Y-10280838D01*
X13215495Y-10280838D02*
X13101210Y-10280838D01*
X13158352Y-10280838D02*
X13158352Y-10080838D01*
X13139305Y-10109409D01*
X13120257Y-10128457D01*
X13101210Y-10137981D01*
X13291686Y-10099886D02*
X13301210Y-10090362D01*
X13320257Y-10080838D01*
X13367876Y-10080838D01*
X13386924Y-10090362D01*
X13396448Y-10099886D01*
X13405971Y-10118933D01*
X13405971Y-10137981D01*
X13396448Y-10166552D01*
X13282162Y-10280838D01*
X13405971Y-10280838D01*
X13577400Y-10080838D02*
X13539305Y-10080838D01*
X13520257Y-10090362D01*
X13510733Y-10099886D01*
X13491686Y-10128457D01*
X13482162Y-10166552D01*
X13482162Y-10242743D01*
X13491686Y-10261790D01*
X13501210Y-10271314D01*
X13520257Y-10280838D01*
X13558352Y-10280838D01*
X13577400Y-10271314D01*
X13586924Y-10261790D01*
X13596448Y-10242743D01*
X13596448Y-10195124D01*
X13586924Y-10176076D01*
X13577400Y-10166552D01*
X13558352Y-10157028D01*
X13520257Y-10157028D01*
X13501210Y-10166552D01*
X13491686Y-10176076D01*
X13482162Y-10195124D01*
X13720257Y-10080838D02*
X13739305Y-10080838D01*
X13758352Y-10090362D01*
X13767876Y-10099886D01*
X13777400Y-10118933D01*
X13786924Y-10157028D01*
X13786924Y-10204648D01*
X13777400Y-10242743D01*
X13767876Y-10261790D01*
X13758352Y-10271314D01*
X13739305Y-10280838D01*
X13720257Y-10280838D01*
X13701210Y-10271314D01*
X13691686Y-10261790D01*
X13682162Y-10242743D01*
X13672638Y-10204648D01*
X13672638Y-10157028D01*
X13682162Y-10118933D01*
X13691686Y-10099886D01*
X13701210Y-10090362D01*
X13720257Y-10080838D01*
X13863114Y-10080838D02*
X13863114Y-10118933D01*
X13939305Y-10080838D02*
X13939305Y-10118933D01*
X14234543Y-10357028D02*
X14225019Y-10347505D01*
X14205971Y-10318933D01*
X14196448Y-10299886D01*
X14186924Y-10271314D01*
X14177400Y-10223695D01*
X14177400Y-10185600D01*
X14186924Y-10137981D01*
X14196448Y-10109409D01*
X14205971Y-10090362D01*
X14225019Y-10061790D01*
X14234543Y-10052267D01*
X14396448Y-10147505D02*
X14396448Y-10280838D01*
X14348829Y-10071314D02*
X14301210Y-10214171D01*
X14425019Y-10214171D01*
X14653590Y-10280838D02*
X14653590Y-10080838D01*
X14739305Y-10280838D02*
X14739305Y-10176076D01*
X14729781Y-10157028D01*
X14710733Y-10147505D01*
X14682162Y-10147505D01*
X14663114Y-10157028D01*
X14653590Y-10166552D01*
X14863114Y-10280838D02*
X14844067Y-10271314D01*
X14834543Y-10261790D01*
X14825019Y-10242743D01*
X14825019Y-10185600D01*
X14834543Y-10166552D01*
X14844067Y-10157028D01*
X14863114Y-10147505D01*
X14891686Y-10147505D01*
X14910733Y-10157028D01*
X14920257Y-10166552D01*
X14929781Y-10185600D01*
X14929781Y-10242743D01*
X14920257Y-10261790D01*
X14910733Y-10271314D01*
X14891686Y-10280838D01*
X14863114Y-10280838D01*
X15044067Y-10280838D02*
X15025019Y-10271314D01*
X15015495Y-10252267D01*
X15015495Y-10080838D01*
X15196448Y-10271314D02*
X15177400Y-10280838D01*
X15139305Y-10280838D01*
X15120257Y-10271314D01*
X15110733Y-10252267D01*
X15110733Y-10176076D01*
X15120257Y-10157028D01*
X15139305Y-10147505D01*
X15177400Y-10147505D01*
X15196448Y-10157028D01*
X15205971Y-10176076D01*
X15205971Y-10195124D01*
X15110733Y-10214171D01*
X15282162Y-10271314D02*
X15301210Y-10280838D01*
X15339305Y-10280838D01*
X15358352Y-10271314D01*
X15367876Y-10252267D01*
X15367876Y-10242743D01*
X15358352Y-10223695D01*
X15339305Y-10214171D01*
X15310733Y-10214171D01*
X15291686Y-10204648D01*
X15282162Y-10185600D01*
X15282162Y-10176076D01*
X15291686Y-10157028D01*
X15310733Y-10147505D01*
X15339305Y-10147505D01*
X15358352Y-10157028D01*
X15434543Y-10357028D02*
X15444067Y-10347505D01*
X15463114Y-10318933D01*
X15472638Y-10299886D01*
X15482162Y-10271314D01*
X15491686Y-10223695D01*
X15491686Y-10185600D01*
X15482162Y-10137981D01*
X15472638Y-10109409D01*
X15463114Y-10090362D01*
X15444067Y-10061790D01*
X15434543Y-10052267D01*
M02*
