G04 #@! TF.GenerationSoftware,KiCad,Pcbnew,6.0.1-79c1e3a40b~116~ubuntu20.04.1*
G04 #@! TF.CreationDate,2022-01-21T15:32:23-05:00*
G04 #@! TF.ProjectId,led_breakout,6c65645f-6272-4656-916b-6f75742e6b69,0*
G04 #@! TF.SameCoordinates,Original*
G04 #@! TF.FileFunction,Copper,L2,Bot*
G04 #@! TF.FilePolarity,Positive*
%FSLAX46Y46*%
G04 Gerber Fmt 4.6, Leading zero omitted, Abs format (unit mm)*
G04 Created by KiCad (PCBNEW 6.0.1-79c1e3a40b~116~ubuntu20.04.1) date 2022-01-21 15:32:23*
%MOMM*%
%LPD*%
G01*
G04 APERTURE LIST*
G04 #@! TA.AperFunction,ComponentPad*
%ADD10C,5.600000*%
G04 #@! TD*
G04 #@! TA.AperFunction,ComponentPad*
%ADD11R,1.700000X1.700000*%
G04 #@! TD*
G04 #@! TA.AperFunction,ComponentPad*
%ADD12O,1.700000X1.700000*%
G04 #@! TD*
G04 #@! TA.AperFunction,ViaPad*
%ADD13C,1.000000*%
G04 #@! TD*
G04 #@! TA.AperFunction,Conductor*
%ADD14C,0.300000*%
G04 #@! TD*
G04 APERTURE END LIST*
D10*
X146050000Y-86360000D03*
D11*
X109220000Y-40640000D03*
D12*
X109220000Y-43180000D03*
X109220000Y-45720000D03*
X109220000Y-48260000D03*
X109220000Y-50800000D03*
X109220000Y-53340000D03*
X109220000Y-55880000D03*
D10*
X110490000Y-86360000D03*
D11*
X109220000Y-63500000D03*
D12*
X109220000Y-66040000D03*
X109220000Y-68580000D03*
D10*
X146050000Y-35560000D03*
D11*
X109220000Y-73660000D03*
D12*
X109220000Y-76200000D03*
X109220000Y-78740000D03*
D10*
X110490000Y-35560000D03*
D13*
X137414000Y-41529000D03*
X121793000Y-48641000D03*
X121793000Y-50038000D03*
X137414000Y-44069000D03*
X121793000Y-51435000D03*
X137414000Y-46482000D03*
X121793000Y-52705000D03*
X137414000Y-49022000D03*
X121793000Y-53975000D03*
X137414000Y-51689000D03*
X121793000Y-55245000D03*
X137414000Y-54356000D03*
X121793000Y-56515000D03*
X137287000Y-56642000D03*
X121793000Y-57785000D03*
X137287000Y-58928000D03*
X145034000Y-41783000D03*
X121666000Y-71755000D03*
X121666000Y-73025000D03*
X145034000Y-44450000D03*
X121666000Y-74295000D03*
X145034000Y-46990000D03*
X121666000Y-75565000D03*
X145034000Y-49403000D03*
X145034000Y-51943000D03*
X121666000Y-76835000D03*
X121666000Y-78105000D03*
X145034000Y-54610000D03*
X145034000Y-57150000D03*
X121666000Y-79375000D03*
X121666000Y-80645000D03*
X145034000Y-59563000D03*
X122936000Y-64770000D03*
X117348000Y-66294000D03*
X133756400Y-40106600D03*
X119888000Y-41822500D03*
X122164562Y-42339938D03*
X120675400Y-36474400D03*
X132969000Y-64897000D03*
X121158000Y-60706000D03*
X124714000Y-60706000D03*
X127000000Y-44958000D03*
X117602000Y-41910000D03*
D14*
X130302000Y-48641000D02*
X137414000Y-41529000D01*
X121793000Y-48641000D02*
X130302000Y-48641000D01*
X131445000Y-50038000D02*
X137414000Y-44069000D01*
X121793000Y-50038000D02*
X131445000Y-50038000D01*
X121793000Y-51435000D02*
X132461000Y-51435000D01*
X132461000Y-51435000D02*
X137414000Y-46482000D01*
X133731000Y-52705000D02*
X137414000Y-49022000D01*
X121793000Y-52705000D02*
X133731000Y-52705000D01*
X121793000Y-53975000D02*
X135128000Y-53975000D01*
X135128000Y-53975000D02*
X137414000Y-51689000D01*
X121793000Y-55245000D02*
X136525000Y-55245000D01*
X136525000Y-55245000D02*
X137414000Y-54356000D01*
X137160000Y-56515000D02*
X137287000Y-56642000D01*
X121793000Y-56515000D02*
X137160000Y-56515000D01*
X136144000Y-57785000D02*
X137287000Y-58928000D01*
X121793000Y-57785000D02*
X136144000Y-57785000D01*
X132342091Y-71755000D02*
X140589000Y-63508088D01*
X140589000Y-63508088D02*
X140589000Y-46228000D01*
X140589000Y-46228000D02*
X145034000Y-41783000D01*
X121666000Y-71755000D02*
X132342091Y-71755000D01*
X121666000Y-73025000D02*
X131778507Y-73025000D01*
X141088511Y-48395489D02*
X145034000Y-44450000D01*
X141088511Y-63714993D02*
X141088511Y-48395489D01*
X131778507Y-73025000D02*
X141088511Y-63714993D01*
X121666000Y-74295000D02*
X131214923Y-74295000D01*
X141630467Y-63879453D02*
X141630468Y-50393532D01*
X131214923Y-74295000D02*
X141630467Y-63879453D01*
X141630468Y-50393532D02*
X145034000Y-46990000D01*
X130651339Y-75565000D02*
X142129978Y-64086358D01*
X142129979Y-52307021D02*
X145034000Y-49403000D01*
X121666000Y-75565000D02*
X130651339Y-75565000D01*
X142129978Y-64086358D02*
X142129979Y-52307021D01*
X142629489Y-64293263D02*
X142629489Y-54347511D01*
X130087752Y-76835000D02*
X142629489Y-64293263D01*
X121666000Y-76835000D02*
X130087752Y-76835000D01*
X142629489Y-54347511D02*
X145034000Y-51943000D01*
X143129000Y-64500168D02*
X143129000Y-56515000D01*
X121666000Y-78105000D02*
X129524168Y-78105000D01*
X129524168Y-78105000D02*
X143129000Y-64500168D01*
X143129000Y-56515000D02*
X145034000Y-54610000D01*
X128960584Y-79375000D02*
X143764000Y-64571584D01*
X143764000Y-64571584D02*
X143764000Y-58420000D01*
X143764000Y-58420000D02*
X145034000Y-57150000D01*
X121666000Y-79375000D02*
X128960584Y-79375000D01*
X144399000Y-60198000D02*
X145034000Y-59563000D01*
X121666000Y-80645000D02*
X128397000Y-80645000D01*
X128397000Y-80645000D02*
X144399000Y-64643000D01*
X144399000Y-64643000D02*
X144399000Y-60198000D01*
X107018689Y-50461311D02*
X109220000Y-48260000D01*
X107018689Y-76538689D02*
X107018689Y-50461311D01*
X109220000Y-78740000D02*
X107018689Y-76538689D01*
X121158000Y-60706000D02*
X124714000Y-60706000D01*
X119126000Y-40386000D02*
X122428000Y-40386000D01*
X117602000Y-41910000D02*
X119126000Y-40386000D01*
X122428000Y-40386000D02*
X127000000Y-44958000D01*
X107518200Y-71958200D02*
X107518200Y-52501800D01*
X109220000Y-73660000D02*
X107518200Y-71958200D01*
X107518200Y-52501800D02*
X109220000Y-50800000D01*
G04 #@! TA.AperFunction,Conductor*
G36*
X134137461Y-32256617D02*
G01*
X144737303Y-32257393D01*
X144805423Y-32277400D01*
X144851911Y-32331059D01*
X144862010Y-32401334D01*
X144832512Y-32465912D01*
X144789945Y-32497865D01*
X144504694Y-32629066D01*
X144197193Y-32813101D01*
X144194467Y-32815163D01*
X144194465Y-32815164D01*
X144141957Y-32854876D01*
X143911367Y-33029270D01*
X143650559Y-33275043D01*
X143417819Y-33547546D01*
X143415900Y-33550358D01*
X143415897Y-33550363D01*
X143322624Y-33687097D01*
X143215871Y-33843591D01*
X143047077Y-34159714D01*
X142913411Y-34492218D01*
X142912491Y-34495492D01*
X142912489Y-34495497D01*
X142910332Y-34503173D01*
X142816437Y-34837213D01*
X142757290Y-35190663D01*
X142736661Y-35548434D01*
X142754792Y-35906340D01*
X142755329Y-35909695D01*
X142755330Y-35909701D01*
X142760316Y-35940828D01*
X142811470Y-36260195D01*
X142906033Y-36605859D01*
X143037374Y-36939288D01*
X143203957Y-37256582D01*
X143205858Y-37259411D01*
X143205864Y-37259421D01*
X143389569Y-37532800D01*
X143403834Y-37554029D01*
X143634665Y-37828150D01*
X143893751Y-38075738D01*
X144178061Y-38293897D01*
X144210056Y-38313350D01*
X144481355Y-38478303D01*
X144481360Y-38478306D01*
X144484270Y-38480075D01*
X144487358Y-38481521D01*
X144487357Y-38481521D01*
X144805710Y-38630649D01*
X144805720Y-38630653D01*
X144808794Y-38632093D01*
X144812012Y-38633195D01*
X144812015Y-38633196D01*
X145144615Y-38747071D01*
X145144623Y-38747073D01*
X145147838Y-38748174D01*
X145497435Y-38826959D01*
X145549728Y-38832917D01*
X145850114Y-38867142D01*
X145850122Y-38867142D01*
X145853497Y-38867527D01*
X145856901Y-38867545D01*
X145856904Y-38867545D01*
X146051227Y-38868562D01*
X146211857Y-38869403D01*
X146215243Y-38869053D01*
X146215245Y-38869053D01*
X146564932Y-38832917D01*
X146564941Y-38832916D01*
X146568324Y-38832566D01*
X146571657Y-38831852D01*
X146571660Y-38831851D01*
X146744186Y-38794864D01*
X146918727Y-38757446D01*
X147258968Y-38644922D01*
X147585066Y-38496311D01*
X147679052Y-38440506D01*
X147890262Y-38315099D01*
X147890267Y-38315096D01*
X147893207Y-38313350D01*
X148179786Y-38098180D01*
X148441451Y-37853319D01*
X148675140Y-37581630D01*
X148781750Y-37426512D01*
X148876190Y-37289101D01*
X148876195Y-37289094D01*
X148878120Y-37286292D01*
X148879732Y-37283298D01*
X148879737Y-37283290D01*
X149046395Y-36973772D01*
X149048017Y-36970760D01*
X149112795Y-36811231D01*
X149156957Y-36755640D01*
X149224162Y-36732750D01*
X149293074Y-36749827D01*
X149341814Y-36801450D01*
X149355538Y-36858642D01*
X149352599Y-84973369D01*
X149352594Y-85053616D01*
X149332588Y-85121735D01*
X149278929Y-85168225D01*
X149208655Y-85178324D01*
X149144076Y-85148827D01*
X149109523Y-85100196D01*
X149059052Y-84973369D01*
X149057793Y-84970205D01*
X149027768Y-84913498D01*
X148891702Y-84656513D01*
X148891698Y-84656506D01*
X148890103Y-84653494D01*
X148689190Y-84356746D01*
X148457403Y-84083432D01*
X148197454Y-83836750D01*
X147912384Y-83619585D01*
X147909472Y-83617828D01*
X147909467Y-83617825D01*
X147608443Y-83436236D01*
X147608437Y-83436233D01*
X147605528Y-83434478D01*
X147280475Y-83283593D01*
X147110752Y-83226145D01*
X146944255Y-83169789D01*
X146944250Y-83169788D01*
X146941028Y-83168697D01*
X146742681Y-83124724D01*
X146594493Y-83091871D01*
X146594487Y-83091870D01*
X146591158Y-83091132D01*
X146587769Y-83090758D01*
X146587764Y-83090757D01*
X146238338Y-83052180D01*
X146238333Y-83052180D01*
X146234957Y-83051807D01*
X146231558Y-83051801D01*
X146231557Y-83051801D01*
X146062080Y-83051505D01*
X145876592Y-83051182D01*
X145763413Y-83063277D01*
X145523639Y-83088901D01*
X145523631Y-83088902D01*
X145520256Y-83089263D01*
X145170117Y-83165606D01*
X144830271Y-83279317D01*
X144827178Y-83280739D01*
X144827177Y-83280740D01*
X144820974Y-83283593D01*
X144504694Y-83429066D01*
X144197193Y-83613101D01*
X144194467Y-83615163D01*
X144194465Y-83615164D01*
X144188620Y-83619585D01*
X143911367Y-83829270D01*
X143650559Y-84075043D01*
X143417819Y-84347546D01*
X143415900Y-84350358D01*
X143415897Y-84350363D01*
X143322624Y-84487097D01*
X143215871Y-84643591D01*
X143047077Y-84959714D01*
X142913411Y-85292218D01*
X142912491Y-85295492D01*
X142912489Y-85295497D01*
X142910332Y-85303173D01*
X142816437Y-85637213D01*
X142757290Y-85990663D01*
X142736661Y-86348434D01*
X142754792Y-86706340D01*
X142755329Y-86709695D01*
X142755330Y-86709701D01*
X142760316Y-86740828D01*
X142811470Y-87060195D01*
X142906033Y-87405859D01*
X143037374Y-87739288D01*
X143203957Y-88056582D01*
X143205858Y-88059411D01*
X143205864Y-88059421D01*
X143322085Y-88232374D01*
X143403834Y-88354029D01*
X143634665Y-88628150D01*
X143893751Y-88875738D01*
X144178061Y-89093897D01*
X144210056Y-89113350D01*
X144481355Y-89278303D01*
X144481360Y-89278306D01*
X144484270Y-89280075D01*
X144794510Y-89425402D01*
X144847712Y-89472411D01*
X144867054Y-89540722D01*
X144846394Y-89608646D01*
X144792291Y-89654618D01*
X144741049Y-89665503D01*
X130381169Y-89664248D01*
X111801571Y-89662625D01*
X111733453Y-89642617D01*
X111686965Y-89588957D01*
X111676867Y-89518682D01*
X111706366Y-89454104D01*
X111749332Y-89421970D01*
X112021954Y-89297729D01*
X112025066Y-89296311D01*
X112187597Y-89199807D01*
X112330262Y-89115099D01*
X112330267Y-89115096D01*
X112333207Y-89113350D01*
X112619786Y-88898180D01*
X112881451Y-88653319D01*
X113115140Y-88381630D01*
X113221750Y-88226512D01*
X113316190Y-88089101D01*
X113316195Y-88089094D01*
X113318120Y-88086292D01*
X113319732Y-88083298D01*
X113319737Y-88083290D01*
X113486395Y-87773772D01*
X113488017Y-87770760D01*
X113622842Y-87438724D01*
X113633142Y-87402568D01*
X113710564Y-87130776D01*
X113721020Y-87094070D01*
X113781401Y-86740828D01*
X113783511Y-86706340D01*
X113803168Y-86384928D01*
X113803278Y-86383131D01*
X113803359Y-86360000D01*
X113783979Y-86002159D01*
X113726066Y-85648505D01*
X113630297Y-85303173D01*
X113627243Y-85295497D01*
X113499052Y-84973369D01*
X113497793Y-84970205D01*
X113467768Y-84913498D01*
X113331702Y-84656513D01*
X113331698Y-84656506D01*
X113330103Y-84653494D01*
X113129190Y-84356746D01*
X112897403Y-84083432D01*
X112637454Y-83836750D01*
X112352384Y-83619585D01*
X112349472Y-83617828D01*
X112349467Y-83617825D01*
X112048443Y-83436236D01*
X112048437Y-83436233D01*
X112045528Y-83434478D01*
X111720475Y-83283593D01*
X111550752Y-83226145D01*
X111384255Y-83169789D01*
X111384250Y-83169788D01*
X111381028Y-83168697D01*
X111182681Y-83124724D01*
X111034493Y-83091871D01*
X111034487Y-83091870D01*
X111031158Y-83091132D01*
X111027769Y-83090758D01*
X111027764Y-83090757D01*
X110678338Y-83052180D01*
X110678333Y-83052180D01*
X110674957Y-83051807D01*
X110671558Y-83051801D01*
X110671557Y-83051801D01*
X110502080Y-83051505D01*
X110316592Y-83051182D01*
X110203413Y-83063277D01*
X109963639Y-83088901D01*
X109963631Y-83088902D01*
X109960256Y-83089263D01*
X109610117Y-83165606D01*
X109270271Y-83279317D01*
X109267178Y-83280739D01*
X109267177Y-83280740D01*
X109260974Y-83283593D01*
X108944694Y-83429066D01*
X108637193Y-83613101D01*
X108634467Y-83615163D01*
X108634465Y-83615164D01*
X108628620Y-83619585D01*
X108351367Y-83829270D01*
X108090559Y-84075043D01*
X107857819Y-84347546D01*
X107855900Y-84350358D01*
X107855897Y-84350363D01*
X107762624Y-84487097D01*
X107655871Y-84643591D01*
X107487077Y-84959714D01*
X107485806Y-84962876D01*
X107427381Y-85108211D01*
X107383414Y-85163955D01*
X107316289Y-85187080D01*
X107247318Y-85170243D01*
X107198398Y-85118790D01*
X107184474Y-85061205D01*
X107184481Y-84973369D01*
X107184791Y-80630851D01*
X120652719Y-80630851D01*
X120669268Y-80827934D01*
X120723783Y-81018050D01*
X120814187Y-81193956D01*
X120937035Y-81348953D01*
X121087650Y-81477136D01*
X121260294Y-81573624D01*
X121448392Y-81634740D01*
X121644777Y-81658158D01*
X121650912Y-81657686D01*
X121650914Y-81657686D01*
X121835830Y-81643457D01*
X121835834Y-81643456D01*
X121841972Y-81642984D01*
X122032463Y-81589798D01*
X122037967Y-81587018D01*
X122037969Y-81587017D01*
X122203495Y-81503404D01*
X122203497Y-81503403D01*
X122208996Y-81500625D01*
X122364847Y-81378861D01*
X122392203Y-81347169D01*
X122451856Y-81308672D01*
X122487584Y-81303500D01*
X128314944Y-81303500D01*
X128326800Y-81304059D01*
X128326803Y-81304059D01*
X128334537Y-81305788D01*
X128405369Y-81303562D01*
X128409327Y-81303500D01*
X128438432Y-81303500D01*
X128442832Y-81302944D01*
X128454664Y-81302012D01*
X128500831Y-81300562D01*
X128521421Y-81294580D01*
X128540782Y-81290570D01*
X128547770Y-81289688D01*
X128554204Y-81288875D01*
X128554205Y-81288875D01*
X128562064Y-81287882D01*
X128569429Y-81284966D01*
X128569433Y-81284965D01*
X128605021Y-81270874D01*
X128616231Y-81267035D01*
X128660600Y-81254145D01*
X128679065Y-81243225D01*
X128696805Y-81234534D01*
X128716756Y-81226635D01*
X128754129Y-81199482D01*
X128764048Y-81192967D01*
X128796977Y-81173493D01*
X128796981Y-81173490D01*
X128803807Y-81169453D01*
X128818971Y-81154289D01*
X128834005Y-81141448D01*
X128844943Y-81133501D01*
X128851357Y-81128841D01*
X128880803Y-81093247D01*
X128888792Y-81084468D01*
X144806600Y-65166659D01*
X144815381Y-65158669D01*
X144815390Y-65158661D01*
X144822080Y-65154416D01*
X144870621Y-65102725D01*
X144873375Y-65099884D01*
X144893926Y-65079333D01*
X144896638Y-65075837D01*
X144904349Y-65066808D01*
X144930544Y-65038913D01*
X144935972Y-65033133D01*
X144946301Y-65014345D01*
X144957158Y-64997816D01*
X144965447Y-64987131D01*
X144965448Y-64987129D01*
X144970304Y-64980869D01*
X144988657Y-64938456D01*
X144993868Y-64927819D01*
X145016124Y-64887337D01*
X145021457Y-64866566D01*
X145027859Y-64847864D01*
X145036379Y-64828177D01*
X145043605Y-64782552D01*
X145046013Y-64770926D01*
X145055529Y-64733865D01*
X145055529Y-64733864D01*
X145057500Y-64726188D01*
X145057500Y-64704742D01*
X145059051Y-64685031D01*
X145061166Y-64671678D01*
X145062406Y-64663849D01*
X145058059Y-64617864D01*
X145057500Y-64606006D01*
X145057500Y-60689394D01*
X145077502Y-60621273D01*
X145131158Y-60574780D01*
X145173833Y-60563765D01*
X145203829Y-60561457D01*
X145203832Y-60561456D01*
X145209972Y-60560984D01*
X145400463Y-60507798D01*
X145405967Y-60505018D01*
X145405969Y-60505017D01*
X145571495Y-60421404D01*
X145571497Y-60421403D01*
X145576996Y-60418625D01*
X145732847Y-60296861D01*
X145862078Y-60147145D01*
X145959769Y-59975179D01*
X146022197Y-59787513D01*
X146046985Y-59591295D01*
X146047380Y-59563000D01*
X146028080Y-59366167D01*
X145970916Y-59176831D01*
X145878066Y-59002204D01*
X145772084Y-58872257D01*
X145756960Y-58853713D01*
X145756957Y-58853710D01*
X145753065Y-58848938D01*
X145691112Y-58797686D01*
X145605425Y-58726799D01*
X145605421Y-58726797D01*
X145600675Y-58722870D01*
X145426701Y-58628802D01*
X145237768Y-58570318D01*
X145231643Y-58569674D01*
X145231642Y-58569674D01*
X145047204Y-58550289D01*
X145047202Y-58550289D01*
X145041075Y-58549645D01*
X144864650Y-58565701D01*
X144794997Y-58551956D01*
X144743832Y-58502735D01*
X144727401Y-58433666D01*
X144750919Y-58366678D01*
X144764135Y-58351125D01*
X144915933Y-58199327D01*
X144978245Y-58165301D01*
X145007211Y-58162494D01*
X145012777Y-58163158D01*
X145018912Y-58162686D01*
X145018915Y-58162686D01*
X145203830Y-58148457D01*
X145203834Y-58148456D01*
X145209972Y-58147984D01*
X145400463Y-58094798D01*
X145405967Y-58092018D01*
X145405969Y-58092017D01*
X145571495Y-58008404D01*
X145571497Y-58008403D01*
X145576996Y-58005625D01*
X145732847Y-57883861D01*
X145862078Y-57734145D01*
X145959769Y-57562179D01*
X146022197Y-57374513D01*
X146046985Y-57178295D01*
X146047380Y-57150000D01*
X146028080Y-56953167D01*
X146021901Y-56932699D01*
X145978539Y-56789081D01*
X145970916Y-56763831D01*
X145878066Y-56589204D01*
X145806007Y-56500851D01*
X145756960Y-56440713D01*
X145756957Y-56440710D01*
X145753065Y-56435938D01*
X145748316Y-56432009D01*
X145605425Y-56313799D01*
X145605421Y-56313797D01*
X145600675Y-56309870D01*
X145426701Y-56215802D01*
X145237768Y-56157318D01*
X145231643Y-56156674D01*
X145231642Y-56156674D01*
X145047204Y-56137289D01*
X145047202Y-56137289D01*
X145041075Y-56136645D01*
X144958576Y-56144153D01*
X144850251Y-56154011D01*
X144850248Y-56154012D01*
X144844112Y-56154570D01*
X144838202Y-56156310D01*
X144838199Y-56156310D01*
X144718301Y-56191597D01*
X144647305Y-56191641D01*
X144587554Y-56153295D01*
X144558021Y-56088733D01*
X144568081Y-56018453D01*
X144593632Y-55981628D01*
X144915933Y-55659327D01*
X144978245Y-55625301D01*
X145007211Y-55622494D01*
X145012777Y-55623158D01*
X145018912Y-55622686D01*
X145018915Y-55622686D01*
X145203830Y-55608457D01*
X145203834Y-55608456D01*
X145209972Y-55607984D01*
X145400463Y-55554798D01*
X145405967Y-55552018D01*
X145405969Y-55552017D01*
X145571495Y-55468404D01*
X145571497Y-55468403D01*
X145576996Y-55465625D01*
X145732847Y-55343861D01*
X145846990Y-55211625D01*
X145858049Y-55198813D01*
X145858050Y-55198811D01*
X145862078Y-55194145D01*
X145959769Y-55022179D01*
X146022197Y-54834513D01*
X146046985Y-54638295D01*
X146047380Y-54610000D01*
X146028080Y-54413167D01*
X146018421Y-54381173D01*
X145972697Y-54229731D01*
X145970916Y-54223831D01*
X145878066Y-54049204D01*
X145802692Y-53956787D01*
X145756960Y-53900713D01*
X145756957Y-53900710D01*
X145753065Y-53895938D01*
X145748316Y-53892009D01*
X145605425Y-53773799D01*
X145605421Y-53773797D01*
X145600675Y-53769870D01*
X145426701Y-53675802D01*
X145237768Y-53617318D01*
X145231643Y-53616674D01*
X145231642Y-53616674D01*
X145047204Y-53597289D01*
X145047202Y-53597289D01*
X145041075Y-53596645D01*
X144958576Y-53604153D01*
X144850251Y-53614011D01*
X144850248Y-53614012D01*
X144844112Y-53614570D01*
X144838206Y-53616308D01*
X144838202Y-53616309D01*
X144751122Y-53641938D01*
X144654381Y-53670410D01*
X144648923Y-53673263D01*
X144648919Y-53673265D01*
X144511251Y-53745237D01*
X144441615Y-53759071D01*
X144375554Y-53733061D01*
X144334042Y-53675465D01*
X144330259Y-53604570D01*
X144363780Y-53544480D01*
X144915933Y-52992327D01*
X144978245Y-52958301D01*
X145007211Y-52955494D01*
X145012777Y-52956158D01*
X145018912Y-52955686D01*
X145018915Y-52955686D01*
X145203830Y-52941457D01*
X145203834Y-52941456D01*
X145209972Y-52940984D01*
X145400463Y-52887798D01*
X145405967Y-52885018D01*
X145405969Y-52885017D01*
X145571495Y-52801404D01*
X145571497Y-52801403D01*
X145576996Y-52798625D01*
X145732847Y-52676861D01*
X145846990Y-52544625D01*
X145858049Y-52531813D01*
X145858050Y-52531811D01*
X145862078Y-52527145D01*
X145959769Y-52355179D01*
X146022197Y-52167513D01*
X146046985Y-51971295D01*
X146047380Y-51943000D01*
X146028080Y-51746167D01*
X145970916Y-51556831D01*
X145878066Y-51382204D01*
X145798292Y-51284392D01*
X145756960Y-51233713D01*
X145756957Y-51233710D01*
X145753065Y-51228938D01*
X145747466Y-51224306D01*
X145605425Y-51106799D01*
X145605421Y-51106797D01*
X145600675Y-51102870D01*
X145426701Y-51008802D01*
X145237768Y-50950318D01*
X145231643Y-50949674D01*
X145231642Y-50949674D01*
X145047204Y-50930289D01*
X145047202Y-50930289D01*
X145041075Y-50929645D01*
X144958576Y-50937153D01*
X144850251Y-50947011D01*
X144850248Y-50947012D01*
X144844112Y-50947570D01*
X144838202Y-50949310D01*
X144838199Y-50949310D01*
X144718301Y-50984597D01*
X144647305Y-50984641D01*
X144587554Y-50946295D01*
X144558021Y-50881733D01*
X144568081Y-50811453D01*
X144593632Y-50774628D01*
X144915933Y-50452327D01*
X144978245Y-50418301D01*
X145007211Y-50415494D01*
X145012777Y-50416158D01*
X145018912Y-50415686D01*
X145018915Y-50415686D01*
X145203830Y-50401457D01*
X145203834Y-50401456D01*
X145209972Y-50400984D01*
X145400463Y-50347798D01*
X145405967Y-50345018D01*
X145405969Y-50345017D01*
X145571495Y-50261404D01*
X145571497Y-50261403D01*
X145576996Y-50258625D01*
X145732847Y-50136861D01*
X145862078Y-49987145D01*
X145959769Y-49815179D01*
X146022197Y-49627513D01*
X146046985Y-49431295D01*
X146047380Y-49403000D01*
X146028080Y-49206167D01*
X146021532Y-49184477D01*
X145990129Y-49080468D01*
X145970916Y-49016831D01*
X145878066Y-48842204D01*
X145778757Y-48720439D01*
X145756960Y-48693713D01*
X145756957Y-48693710D01*
X145753065Y-48688938D01*
X145748316Y-48685009D01*
X145605425Y-48566799D01*
X145605421Y-48566797D01*
X145600675Y-48562870D01*
X145426701Y-48468802D01*
X145237768Y-48410318D01*
X145231643Y-48409674D01*
X145231642Y-48409674D01*
X145047204Y-48390289D01*
X145047202Y-48390289D01*
X145041075Y-48389645D01*
X144864650Y-48405701D01*
X144794997Y-48391956D01*
X144743832Y-48342735D01*
X144727401Y-48273666D01*
X144750919Y-48206678D01*
X144764135Y-48191125D01*
X144915933Y-48039327D01*
X144978245Y-48005301D01*
X145007211Y-48002494D01*
X145012777Y-48003158D01*
X145018912Y-48002686D01*
X145018915Y-48002686D01*
X145203830Y-47988457D01*
X145203834Y-47988456D01*
X145209972Y-47987984D01*
X145400463Y-47934798D01*
X145405967Y-47932018D01*
X145405969Y-47932017D01*
X145571495Y-47848404D01*
X145571497Y-47848403D01*
X145576996Y-47845625D01*
X145732847Y-47723861D01*
X145862078Y-47574145D01*
X145959769Y-47402179D01*
X146022197Y-47214513D01*
X146046985Y-47018295D01*
X146047380Y-46990000D01*
X146028080Y-46793167D01*
X146018421Y-46761173D01*
X145972697Y-46609731D01*
X145970916Y-46603831D01*
X145878066Y-46429204D01*
X145765077Y-46290666D01*
X145756960Y-46280713D01*
X145756957Y-46280710D01*
X145753065Y-46275938D01*
X145747466Y-46271306D01*
X145605425Y-46153799D01*
X145605421Y-46153797D01*
X145600675Y-46149870D01*
X145426701Y-46055802D01*
X145237768Y-45997318D01*
X145231643Y-45996674D01*
X145231642Y-45996674D01*
X145047204Y-45977289D01*
X145047202Y-45977289D01*
X145041075Y-45976645D01*
X144963960Y-45983663D01*
X144850251Y-45994011D01*
X144850248Y-45994012D01*
X144844112Y-45994570D01*
X144838202Y-45996310D01*
X144838199Y-45996310D01*
X144718301Y-46031597D01*
X144647305Y-46031641D01*
X144587554Y-45993295D01*
X144558021Y-45928733D01*
X144568081Y-45858453D01*
X144593632Y-45821628D01*
X144915933Y-45499327D01*
X144978245Y-45465301D01*
X145007211Y-45462494D01*
X145012777Y-45463158D01*
X145018912Y-45462686D01*
X145018915Y-45462686D01*
X145203830Y-45448457D01*
X145203834Y-45448456D01*
X145209972Y-45447984D01*
X145400463Y-45394798D01*
X145405967Y-45392018D01*
X145405969Y-45392017D01*
X145571495Y-45308404D01*
X145571497Y-45308403D01*
X145576996Y-45305625D01*
X145732847Y-45183861D01*
X145862078Y-45034145D01*
X145959769Y-44862179D01*
X146022197Y-44674513D01*
X146046985Y-44478295D01*
X146047380Y-44450000D01*
X146028080Y-44253167D01*
X146024108Y-44240009D01*
X145994991Y-44143571D01*
X145970916Y-44063831D01*
X145878066Y-43889204D01*
X145786625Y-43777086D01*
X145756960Y-43740713D01*
X145756957Y-43740710D01*
X145753065Y-43735938D01*
X145748316Y-43732009D01*
X145605425Y-43613799D01*
X145605421Y-43613797D01*
X145600675Y-43609870D01*
X145426701Y-43515802D01*
X145237768Y-43457318D01*
X145231643Y-43456674D01*
X145231642Y-43456674D01*
X145047204Y-43437289D01*
X145047202Y-43437289D01*
X145041075Y-43436645D01*
X144958576Y-43444153D01*
X144850251Y-43454011D01*
X144850248Y-43454012D01*
X144844112Y-43454570D01*
X144838206Y-43456308D01*
X144838202Y-43456309D01*
X144781413Y-43473023D01*
X144654381Y-43510410D01*
X144648923Y-43513263D01*
X144648919Y-43513265D01*
X144511251Y-43585237D01*
X144441615Y-43599071D01*
X144375554Y-43573061D01*
X144334042Y-43515465D01*
X144330259Y-43444570D01*
X144363780Y-43384480D01*
X144915933Y-42832327D01*
X144978245Y-42798301D01*
X145007211Y-42795494D01*
X145012777Y-42796158D01*
X145018912Y-42795686D01*
X145018915Y-42795686D01*
X145203830Y-42781457D01*
X145203834Y-42781456D01*
X145209972Y-42780984D01*
X145400463Y-42727798D01*
X145405967Y-42725018D01*
X145405969Y-42725017D01*
X145571495Y-42641404D01*
X145571497Y-42641403D01*
X145576996Y-42638625D01*
X145732847Y-42516861D01*
X145846990Y-42384625D01*
X145858049Y-42371813D01*
X145858050Y-42371811D01*
X145862078Y-42367145D01*
X145959769Y-42195179D01*
X146022197Y-42007513D01*
X146046985Y-41811295D01*
X146047380Y-41783000D01*
X146028080Y-41586167D01*
X146015739Y-41545290D01*
X145972697Y-41402731D01*
X145970916Y-41396831D01*
X145878066Y-41222204D01*
X145763233Y-41081405D01*
X145756960Y-41073713D01*
X145756957Y-41073710D01*
X145753065Y-41068938D01*
X145741278Y-41059187D01*
X145605425Y-40946799D01*
X145605421Y-40946797D01*
X145600675Y-40942870D01*
X145426701Y-40848802D01*
X145237768Y-40790318D01*
X145231643Y-40789674D01*
X145231642Y-40789674D01*
X145047204Y-40770289D01*
X145047202Y-40770289D01*
X145041075Y-40769645D01*
X144958576Y-40777153D01*
X144850251Y-40787011D01*
X144850248Y-40787012D01*
X144844112Y-40787570D01*
X144838206Y-40789308D01*
X144838202Y-40789309D01*
X144751122Y-40814938D01*
X144654381Y-40843410D01*
X144648923Y-40846263D01*
X144648919Y-40846265D01*
X144620193Y-40861283D01*
X144479110Y-40935040D01*
X144324975Y-41058968D01*
X144197846Y-41210474D01*
X144194879Y-41215872D01*
X144194875Y-41215877D01*
X144191397Y-41222204D01*
X144102567Y-41383787D01*
X144100706Y-41389654D01*
X144100705Y-41389656D01*
X144055385Y-41532523D01*
X144042765Y-41572306D01*
X144020719Y-41768851D01*
X144021235Y-41774995D01*
X144023275Y-41799291D01*
X144009043Y-41868847D01*
X143986812Y-41898929D01*
X142033304Y-43852436D01*
X140181395Y-45704345D01*
X140172615Y-45712335D01*
X140172613Y-45712337D01*
X140165920Y-45716584D01*
X140160494Y-45722362D01*
X140160493Y-45722363D01*
X140117396Y-45768257D01*
X140114641Y-45771099D01*
X140094073Y-45791667D01*
X140091356Y-45795170D01*
X140083648Y-45804195D01*
X140052028Y-45837867D01*
X140048207Y-45844818D01*
X140048206Y-45844819D01*
X140041697Y-45856658D01*
X140030843Y-45873182D01*
X140023018Y-45883271D01*
X140017696Y-45890132D01*
X140014549Y-45897404D01*
X140014548Y-45897406D01*
X139999346Y-45932535D01*
X139994124Y-45943195D01*
X139979152Y-45970429D01*
X139971876Y-45983663D01*
X139966541Y-46004441D01*
X139960142Y-46023131D01*
X139951620Y-46042824D01*
X139945291Y-46082787D01*
X139944394Y-46088448D01*
X139941987Y-46100071D01*
X139930500Y-46144812D01*
X139930500Y-46166259D01*
X139928949Y-46185969D01*
X139925594Y-46207152D01*
X139927419Y-46226453D01*
X139929941Y-46253138D01*
X139930500Y-46264996D01*
X139930500Y-63183138D01*
X139910498Y-63251259D01*
X139893595Y-63272233D01*
X132106236Y-71059595D01*
X132043924Y-71093620D01*
X132017141Y-71096500D01*
X122490209Y-71096500D01*
X122422088Y-71076498D01*
X122392567Y-71050136D01*
X122388960Y-71045713D01*
X122388956Y-71045709D01*
X122385065Y-71040938D01*
X122319140Y-70986400D01*
X122237425Y-70918799D01*
X122237421Y-70918797D01*
X122232675Y-70914870D01*
X122058701Y-70820802D01*
X121869768Y-70762318D01*
X121863643Y-70761674D01*
X121863642Y-70761674D01*
X121679204Y-70742289D01*
X121679202Y-70742289D01*
X121673075Y-70741645D01*
X121590576Y-70749153D01*
X121482251Y-70759011D01*
X121482248Y-70759012D01*
X121476112Y-70759570D01*
X121470206Y-70761308D01*
X121470202Y-70761309D01*
X121365076Y-70792249D01*
X121286381Y-70815410D01*
X121280923Y-70818263D01*
X121280919Y-70818265D01*
X121190147Y-70865720D01*
X121111110Y-70907040D01*
X120956975Y-71030968D01*
X120829846Y-71182474D01*
X120826879Y-71187872D01*
X120826875Y-71187877D01*
X120748095Y-71331180D01*
X120734567Y-71355787D01*
X120674765Y-71544306D01*
X120652719Y-71740851D01*
X120669268Y-71937934D01*
X120723783Y-72128050D01*
X120814187Y-72303956D01*
X120818016Y-72308787D01*
X120819839Y-72311088D01*
X120820414Y-72312509D01*
X120821353Y-72313966D01*
X120821076Y-72314144D01*
X120846474Y-72376898D01*
X120833301Y-72446662D01*
X120829846Y-72452474D01*
X120734567Y-72625787D01*
X120732706Y-72631654D01*
X120732705Y-72631656D01*
X120691400Y-72761866D01*
X120674765Y-72814306D01*
X120652719Y-73010851D01*
X120669268Y-73207934D01*
X120723783Y-73398050D01*
X120814187Y-73573956D01*
X120818016Y-73578787D01*
X120819839Y-73581088D01*
X120820414Y-73582509D01*
X120821353Y-73583966D01*
X120821076Y-73584144D01*
X120846474Y-73646898D01*
X120833301Y-73716662D01*
X120829846Y-73722474D01*
X120734567Y-73895787D01*
X120674765Y-74084306D01*
X120652719Y-74280851D01*
X120669268Y-74477934D01*
X120723783Y-74668050D01*
X120726602Y-74673535D01*
X120793754Y-74804197D01*
X120814187Y-74843956D01*
X120818016Y-74848787D01*
X120819839Y-74851088D01*
X120820414Y-74852509D01*
X120821353Y-74853966D01*
X120821076Y-74854144D01*
X120846474Y-74916898D01*
X120833301Y-74986662D01*
X120829846Y-74992474D01*
X120734567Y-75165787D01*
X120674765Y-75354306D01*
X120652719Y-75550851D01*
X120653235Y-75556995D01*
X120667704Y-75729305D01*
X120669268Y-75747934D01*
X120670967Y-75753858D01*
X120706580Y-75878055D01*
X120723783Y-75938050D01*
X120814187Y-76113956D01*
X120818016Y-76118787D01*
X120819839Y-76121088D01*
X120820414Y-76122509D01*
X120821353Y-76123966D01*
X120821076Y-76124144D01*
X120846474Y-76186898D01*
X120833301Y-76256662D01*
X120829846Y-76262474D01*
X120734567Y-76435787D01*
X120732706Y-76441654D01*
X120732705Y-76441656D01*
X120676627Y-76618436D01*
X120674765Y-76624306D01*
X120652719Y-76820851D01*
X120653235Y-76826995D01*
X120659540Y-76902077D01*
X120669268Y-77017934D01*
X120723783Y-77208050D01*
X120814187Y-77383956D01*
X120818016Y-77388787D01*
X120819839Y-77391088D01*
X120820414Y-77392509D01*
X120821353Y-77393966D01*
X120821076Y-77394144D01*
X120846474Y-77456898D01*
X120833301Y-77526662D01*
X120829846Y-77532474D01*
X120734567Y-77705787D01*
X120732706Y-77711654D01*
X120732705Y-77711656D01*
X120699695Y-77815717D01*
X120674765Y-77894306D01*
X120652719Y-78090851D01*
X120669268Y-78287934D01*
X120723783Y-78478050D01*
X120814187Y-78653956D01*
X120818016Y-78658787D01*
X120819839Y-78661088D01*
X120820414Y-78662509D01*
X120821353Y-78663966D01*
X120821076Y-78664144D01*
X120846474Y-78726898D01*
X120833301Y-78796662D01*
X120829846Y-78802474D01*
X120734567Y-78975787D01*
X120732706Y-78981654D01*
X120732705Y-78981656D01*
X120681652Y-79142596D01*
X120674765Y-79164306D01*
X120652719Y-79360851D01*
X120653235Y-79366995D01*
X120659540Y-79442077D01*
X120669268Y-79557934D01*
X120670967Y-79563858D01*
X120714002Y-79713938D01*
X120723783Y-79748050D01*
X120814187Y-79923956D01*
X120818016Y-79928787D01*
X120819839Y-79931088D01*
X120820414Y-79932509D01*
X120821353Y-79933966D01*
X120821076Y-79934144D01*
X120846474Y-79996898D01*
X120833301Y-80066662D01*
X120829846Y-80072474D01*
X120734567Y-80245787D01*
X120674765Y-80434306D01*
X120652719Y-80630851D01*
X107184791Y-80630851D01*
X107184983Y-77940423D01*
X107204990Y-77872305D01*
X107258649Y-77825816D01*
X107328924Y-77815717D01*
X107393502Y-77845214D01*
X107400078Y-77851338D01*
X107862101Y-78313361D01*
X107896127Y-78375673D01*
X107894424Y-78436125D01*
X107880989Y-78484570D01*
X107857251Y-78706695D01*
X107857548Y-78711848D01*
X107857548Y-78711851D01*
X107863011Y-78806590D01*
X107870110Y-78929715D01*
X107871247Y-78934761D01*
X107871248Y-78934767D01*
X107891119Y-79022939D01*
X107919222Y-79147639D01*
X108003266Y-79354616D01*
X108119987Y-79545088D01*
X108266250Y-79713938D01*
X108438126Y-79856632D01*
X108631000Y-79969338D01*
X108839692Y-80049030D01*
X108844760Y-80050061D01*
X108844763Y-80050062D01*
X108952017Y-80071883D01*
X109058597Y-80093567D01*
X109063772Y-80093757D01*
X109063774Y-80093757D01*
X109276673Y-80101564D01*
X109276677Y-80101564D01*
X109281837Y-80101753D01*
X109286957Y-80101097D01*
X109286959Y-80101097D01*
X109498288Y-80074025D01*
X109498289Y-80074025D01*
X109503416Y-80073368D01*
X109525768Y-80066662D01*
X109712429Y-80010661D01*
X109712434Y-80010659D01*
X109717384Y-80009174D01*
X109917994Y-79910896D01*
X110099860Y-79781173D01*
X110258096Y-79623489D01*
X110317594Y-79540689D01*
X110385435Y-79446277D01*
X110388453Y-79442077D01*
X110431625Y-79354726D01*
X110485136Y-79246453D01*
X110485137Y-79246451D01*
X110487430Y-79241811D01*
X110552370Y-79028069D01*
X110581529Y-78806590D01*
X110583156Y-78740000D01*
X110564852Y-78517361D01*
X110510431Y-78300702D01*
X110421354Y-78095840D01*
X110300014Y-77908277D01*
X110149670Y-77743051D01*
X110145619Y-77739852D01*
X110145615Y-77739848D01*
X109978414Y-77607800D01*
X109978410Y-77607798D01*
X109974359Y-77604598D01*
X109933053Y-77581796D01*
X109883084Y-77531364D01*
X109868312Y-77461921D01*
X109893428Y-77395516D01*
X109920780Y-77368909D01*
X109964603Y-77337650D01*
X110099860Y-77241173D01*
X110258096Y-77083489D01*
X110388453Y-76902077D01*
X110431625Y-76814726D01*
X110485136Y-76706453D01*
X110485137Y-76706451D01*
X110487430Y-76701811D01*
X110552370Y-76488069D01*
X110581529Y-76266590D01*
X110583156Y-76200000D01*
X110564852Y-75977361D01*
X110510431Y-75760702D01*
X110421354Y-75555840D01*
X110300014Y-75368277D01*
X110296532Y-75364450D01*
X110152798Y-75206488D01*
X110121746Y-75142642D01*
X110130141Y-75072143D01*
X110175317Y-75017375D01*
X110201761Y-75003706D01*
X110308297Y-74963767D01*
X110316705Y-74960615D01*
X110433261Y-74873261D01*
X110520615Y-74756705D01*
X110571745Y-74620316D01*
X110578500Y-74558134D01*
X110578500Y-72761866D01*
X110571745Y-72699684D01*
X110520615Y-72563295D01*
X110433261Y-72446739D01*
X110316705Y-72359385D01*
X110180316Y-72308255D01*
X110118134Y-72301500D01*
X108844950Y-72301500D01*
X108776829Y-72281498D01*
X108755855Y-72264595D01*
X108213605Y-71722345D01*
X108179579Y-71660033D01*
X108176700Y-71633250D01*
X108176700Y-69747963D01*
X108196702Y-69679842D01*
X108250358Y-69633349D01*
X108320632Y-69623245D01*
X108383185Y-69651019D01*
X108438126Y-69696632D01*
X108631000Y-69809338D01*
X108839692Y-69889030D01*
X108844760Y-69890061D01*
X108844763Y-69890062D01*
X108952017Y-69911883D01*
X109058597Y-69933567D01*
X109063772Y-69933757D01*
X109063774Y-69933757D01*
X109276673Y-69941564D01*
X109276677Y-69941564D01*
X109281837Y-69941753D01*
X109286957Y-69941097D01*
X109286959Y-69941097D01*
X109498288Y-69914025D01*
X109498289Y-69914025D01*
X109503416Y-69913368D01*
X109508366Y-69911883D01*
X109712429Y-69850661D01*
X109712434Y-69850659D01*
X109717384Y-69849174D01*
X109917994Y-69750896D01*
X110099860Y-69621173D01*
X110258096Y-69463489D01*
X110388453Y-69282077D01*
X110487430Y-69081811D01*
X110552370Y-68868069D01*
X110581529Y-68646590D01*
X110583156Y-68580000D01*
X110564852Y-68357361D01*
X110510431Y-68140702D01*
X110421354Y-67935840D01*
X110300014Y-67748277D01*
X110149670Y-67583051D01*
X110145619Y-67579852D01*
X110145615Y-67579848D01*
X109978414Y-67447800D01*
X109978410Y-67447798D01*
X109974359Y-67444598D01*
X109933053Y-67421796D01*
X109883084Y-67371364D01*
X109868312Y-67301921D01*
X109893428Y-67235516D01*
X109920780Y-67208909D01*
X109964603Y-67177650D01*
X110099860Y-67081173D01*
X110258096Y-66923489D01*
X110388453Y-66742077D01*
X110487430Y-66541811D01*
X110552370Y-66328069D01*
X110581529Y-66106590D01*
X110583156Y-66040000D01*
X110564852Y-65817361D01*
X110510431Y-65600702D01*
X110421354Y-65395840D01*
X110300014Y-65208277D01*
X110256120Y-65160038D01*
X110152798Y-65046488D01*
X110121746Y-64982642D01*
X110130141Y-64912143D01*
X110175317Y-64857375D01*
X110201761Y-64843706D01*
X110308297Y-64803767D01*
X110316705Y-64800615D01*
X110433261Y-64713261D01*
X110520615Y-64596705D01*
X110571745Y-64460316D01*
X110578500Y-64398134D01*
X110578500Y-62601866D01*
X110571745Y-62539684D01*
X110520615Y-62403295D01*
X110433261Y-62286739D01*
X110316705Y-62199385D01*
X110180316Y-62148255D01*
X110118134Y-62141500D01*
X108321866Y-62141500D01*
X108316310Y-62142104D01*
X108315807Y-62142013D01*
X108315072Y-62142053D01*
X108315063Y-62141880D01*
X108246430Y-62129578D01*
X108194412Y-62081259D01*
X108176700Y-62016841D01*
X108176700Y-60691851D01*
X120144719Y-60691851D01*
X120161268Y-60888934D01*
X120215783Y-61079050D01*
X120306187Y-61254956D01*
X120429035Y-61409953D01*
X120579650Y-61538136D01*
X120752294Y-61634624D01*
X120940392Y-61695740D01*
X121136777Y-61719158D01*
X121142912Y-61718686D01*
X121142914Y-61718686D01*
X121327830Y-61704457D01*
X121327834Y-61704456D01*
X121333972Y-61703984D01*
X121524463Y-61650798D01*
X121529967Y-61648018D01*
X121529969Y-61648017D01*
X121695495Y-61564404D01*
X121695497Y-61564403D01*
X121700996Y-61561625D01*
X121856847Y-61439861D01*
X121884203Y-61408169D01*
X121943856Y-61369672D01*
X121979584Y-61364500D01*
X123888494Y-61364500D01*
X123956615Y-61384502D01*
X123979132Y-61402974D01*
X123981204Y-61405120D01*
X123985035Y-61409953D01*
X124135650Y-61538136D01*
X124308294Y-61634624D01*
X124496392Y-61695740D01*
X124692777Y-61719158D01*
X124698912Y-61718686D01*
X124698914Y-61718686D01*
X124883830Y-61704457D01*
X124883834Y-61704456D01*
X124889972Y-61703984D01*
X125080463Y-61650798D01*
X125085967Y-61648018D01*
X125085969Y-61648017D01*
X125251495Y-61564404D01*
X125251497Y-61564403D01*
X125256996Y-61561625D01*
X125412847Y-61439861D01*
X125542078Y-61290145D01*
X125639769Y-61118179D01*
X125702197Y-60930513D01*
X125726985Y-60734295D01*
X125727380Y-60706000D01*
X125708080Y-60509167D01*
X125650916Y-60319831D01*
X125558066Y-60145204D01*
X125440567Y-60001136D01*
X125436960Y-59996713D01*
X125436957Y-59996710D01*
X125433065Y-59991938D01*
X125426724Y-59986692D01*
X125285425Y-59869799D01*
X125285421Y-59869797D01*
X125280675Y-59865870D01*
X125106701Y-59771802D01*
X124917768Y-59713318D01*
X124911643Y-59712674D01*
X124911642Y-59712674D01*
X124727204Y-59693289D01*
X124727202Y-59693289D01*
X124721075Y-59692645D01*
X124638576Y-59700153D01*
X124530251Y-59710011D01*
X124530248Y-59710012D01*
X124524112Y-59710570D01*
X124518206Y-59712308D01*
X124518202Y-59712309D01*
X124413076Y-59743249D01*
X124334381Y-59766410D01*
X124328923Y-59769263D01*
X124328919Y-59769265D01*
X124282821Y-59793365D01*
X124159110Y-59858040D01*
X124004975Y-59981968D01*
X124001013Y-59986690D01*
X123987753Y-60002492D01*
X123928643Y-60041818D01*
X123891232Y-60047500D01*
X121982209Y-60047500D01*
X121914088Y-60027498D01*
X121884567Y-60001136D01*
X121880960Y-59996713D01*
X121880956Y-59996709D01*
X121877065Y-59991938D01*
X121785074Y-59915836D01*
X121729425Y-59869799D01*
X121729421Y-59869797D01*
X121724675Y-59865870D01*
X121550701Y-59771802D01*
X121361768Y-59713318D01*
X121355643Y-59712674D01*
X121355642Y-59712674D01*
X121171204Y-59693289D01*
X121171202Y-59693289D01*
X121165075Y-59692645D01*
X121082576Y-59700153D01*
X120974251Y-59710011D01*
X120974248Y-59710012D01*
X120968112Y-59710570D01*
X120962206Y-59712308D01*
X120962202Y-59712309D01*
X120857076Y-59743249D01*
X120778381Y-59766410D01*
X120772923Y-59769263D01*
X120772919Y-59769265D01*
X120726821Y-59793365D01*
X120603110Y-59858040D01*
X120448975Y-59981968D01*
X120321846Y-60133474D01*
X120318879Y-60138872D01*
X120318875Y-60138877D01*
X120240095Y-60282180D01*
X120226567Y-60306787D01*
X120224706Y-60312654D01*
X120224705Y-60312656D01*
X120192294Y-60414829D01*
X120166765Y-60495306D01*
X120144719Y-60691851D01*
X108176700Y-60691851D01*
X108176700Y-57770851D01*
X120779719Y-57770851D01*
X120780235Y-57776995D01*
X120790815Y-57902989D01*
X120796268Y-57967934D01*
X120797967Y-57973858D01*
X120847897Y-58147984D01*
X120850783Y-58158050D01*
X120941187Y-58333956D01*
X121064035Y-58488953D01*
X121068728Y-58492947D01*
X121068729Y-58492948D01*
X121138064Y-58551956D01*
X121214650Y-58617136D01*
X121387294Y-58713624D01*
X121575392Y-58774740D01*
X121771777Y-58798158D01*
X121777912Y-58797686D01*
X121777914Y-58797686D01*
X121962830Y-58783457D01*
X121962834Y-58783456D01*
X121968972Y-58782984D01*
X122159463Y-58729798D01*
X122164967Y-58727018D01*
X122164969Y-58727017D01*
X122330495Y-58643404D01*
X122330497Y-58643403D01*
X122335996Y-58640625D01*
X122491847Y-58518861D01*
X122519203Y-58487169D01*
X122578856Y-58448672D01*
X122614584Y-58443500D01*
X135819050Y-58443500D01*
X135887171Y-58463502D01*
X135908145Y-58480405D01*
X136237685Y-58809945D01*
X136271711Y-58872257D01*
X136273211Y-58901546D01*
X136274492Y-58901564D01*
X136274406Y-58907725D01*
X136273719Y-58913851D01*
X136290268Y-59110934D01*
X136344783Y-59301050D01*
X136435187Y-59476956D01*
X136558035Y-59631953D01*
X136708650Y-59760136D01*
X136881294Y-59856624D01*
X137069392Y-59917740D01*
X137265777Y-59941158D01*
X137271912Y-59940686D01*
X137271914Y-59940686D01*
X137456830Y-59926457D01*
X137456834Y-59926456D01*
X137462972Y-59925984D01*
X137653463Y-59872798D01*
X137658967Y-59870018D01*
X137658969Y-59870017D01*
X137824495Y-59786404D01*
X137824497Y-59786403D01*
X137829996Y-59783625D01*
X137985847Y-59661861D01*
X138115078Y-59512145D01*
X138212769Y-59340179D01*
X138275197Y-59152513D01*
X138299985Y-58956295D01*
X138300380Y-58928000D01*
X138281080Y-58731167D01*
X138275784Y-58713624D01*
X138233067Y-58572140D01*
X138223916Y-58541831D01*
X138131066Y-58367204D01*
X138060709Y-58280938D01*
X138009960Y-58218713D01*
X138009957Y-58218710D01*
X138006065Y-58213938D01*
X138001316Y-58210009D01*
X137858425Y-58091799D01*
X137858421Y-58091797D01*
X137853675Y-58087870D01*
X137679701Y-57993802D01*
X137490768Y-57935318D01*
X137484643Y-57934674D01*
X137484642Y-57934674D01*
X137300204Y-57915289D01*
X137300202Y-57915289D01*
X137294075Y-57914645D01*
X137271122Y-57916734D01*
X137201470Y-57902989D01*
X137170608Y-57880348D01*
X137159338Y-57869078D01*
X137125312Y-57806766D01*
X137130377Y-57735951D01*
X137172924Y-57679115D01*
X137239444Y-57654304D01*
X137253490Y-57654635D01*
X137253497Y-57654300D01*
X137259666Y-57654429D01*
X137265777Y-57655158D01*
X137271912Y-57654686D01*
X137271914Y-57654686D01*
X137456830Y-57640457D01*
X137456834Y-57640456D01*
X137462972Y-57639984D01*
X137653463Y-57586798D01*
X137658967Y-57584018D01*
X137658969Y-57584017D01*
X137824495Y-57500404D01*
X137824497Y-57500403D01*
X137829996Y-57497625D01*
X137985847Y-57375861D01*
X138115078Y-57226145D01*
X138212769Y-57054179D01*
X138275197Y-56866513D01*
X138299985Y-56670295D01*
X138300380Y-56642000D01*
X138281080Y-56445167D01*
X138277108Y-56432009D01*
X138257162Y-56365947D01*
X138223916Y-56255831D01*
X138131066Y-56081204D01*
X138049854Y-55981628D01*
X138009960Y-55932713D01*
X138009957Y-55932710D01*
X138006065Y-55927938D01*
X138001316Y-55924009D01*
X137858425Y-55805799D01*
X137858421Y-55805797D01*
X137853675Y-55801870D01*
X137679701Y-55707802D01*
X137490768Y-55649318D01*
X137484643Y-55648674D01*
X137484642Y-55648674D01*
X137356395Y-55635195D01*
X137290738Y-55608182D01*
X137250108Y-55549960D01*
X137247405Y-55479015D01*
X137280470Y-55420790D01*
X137295933Y-55405327D01*
X137358245Y-55371301D01*
X137387211Y-55368494D01*
X137392777Y-55369158D01*
X137398912Y-55368686D01*
X137398915Y-55368686D01*
X137583830Y-55354457D01*
X137583834Y-55354456D01*
X137589972Y-55353984D01*
X137780463Y-55300798D01*
X137785967Y-55298018D01*
X137785969Y-55298017D01*
X137951495Y-55214404D01*
X137951497Y-55214403D01*
X137956996Y-55211625D01*
X138112847Y-55089861D01*
X138242078Y-54940145D01*
X138339769Y-54768179D01*
X138402197Y-54580513D01*
X138426985Y-54384295D01*
X138427380Y-54356000D01*
X138408080Y-54159167D01*
X138350916Y-53969831D01*
X138258066Y-53795204D01*
X138158615Y-53673265D01*
X138136960Y-53646713D01*
X138136957Y-53646710D01*
X138133065Y-53641938D01*
X138122289Y-53633023D01*
X137985425Y-53519799D01*
X137985421Y-53519797D01*
X137980675Y-53515870D01*
X137806701Y-53421802D01*
X137617768Y-53363318D01*
X137611643Y-53362674D01*
X137611642Y-53362674D01*
X137427204Y-53343289D01*
X137427202Y-53343289D01*
X137421075Y-53342645D01*
X137338576Y-53350153D01*
X137230251Y-53360011D01*
X137230248Y-53360012D01*
X137224112Y-53360570D01*
X137218206Y-53362308D01*
X137218202Y-53362309D01*
X137113076Y-53393249D01*
X137034381Y-53416410D01*
X137028923Y-53419263D01*
X137028919Y-53419265D01*
X136891251Y-53491237D01*
X136821615Y-53505071D01*
X136755554Y-53479061D01*
X136714042Y-53421465D01*
X136710259Y-53350570D01*
X136743780Y-53290480D01*
X137295933Y-52738327D01*
X137358245Y-52704301D01*
X137387211Y-52701494D01*
X137392777Y-52702158D01*
X137398912Y-52701686D01*
X137398915Y-52701686D01*
X137583830Y-52687457D01*
X137583834Y-52687456D01*
X137589972Y-52686984D01*
X137780463Y-52633798D01*
X137785967Y-52631018D01*
X137785969Y-52631017D01*
X137951495Y-52547404D01*
X137951497Y-52547403D01*
X137956996Y-52544625D01*
X138112847Y-52422861D01*
X138242078Y-52273145D01*
X138339769Y-52101179D01*
X138402197Y-51913513D01*
X138426985Y-51717295D01*
X138427380Y-51689000D01*
X138408080Y-51492167D01*
X138402298Y-51473014D01*
X138352697Y-51308731D01*
X138350916Y-51302831D01*
X138258066Y-51128204D01*
X138159198Y-51006980D01*
X138136960Y-50979713D01*
X138136957Y-50979710D01*
X138133065Y-50974938D01*
X138128316Y-50971009D01*
X137985425Y-50852799D01*
X137985421Y-50852797D01*
X137980675Y-50848870D01*
X137806701Y-50754802D01*
X137617768Y-50696318D01*
X137611643Y-50695674D01*
X137611642Y-50695674D01*
X137427204Y-50676289D01*
X137427202Y-50676289D01*
X137421075Y-50675645D01*
X137338576Y-50683153D01*
X137230251Y-50693011D01*
X137230248Y-50693012D01*
X137224112Y-50693570D01*
X137218206Y-50695308D01*
X137218202Y-50695309D01*
X137139467Y-50718482D01*
X137034381Y-50749410D01*
X137028923Y-50752263D01*
X137028919Y-50752265D01*
X136891251Y-50824237D01*
X136821615Y-50838071D01*
X136755554Y-50812061D01*
X136714042Y-50754465D01*
X136710259Y-50683570D01*
X136743780Y-50623480D01*
X137295933Y-50071327D01*
X137358245Y-50037301D01*
X137387211Y-50034494D01*
X137392777Y-50035158D01*
X137398912Y-50034686D01*
X137398915Y-50034686D01*
X137583830Y-50020457D01*
X137583834Y-50020456D01*
X137589972Y-50019984D01*
X137780463Y-49966798D01*
X137785967Y-49964018D01*
X137785969Y-49964017D01*
X137951495Y-49880404D01*
X137951497Y-49880403D01*
X137956996Y-49877625D01*
X138112847Y-49755861D01*
X138218559Y-49633392D01*
X138238049Y-49610813D01*
X138238050Y-49610811D01*
X138242078Y-49606145D01*
X138339769Y-49434179D01*
X138402197Y-49246513D01*
X138426985Y-49050295D01*
X138427380Y-49022000D01*
X138408080Y-48825167D01*
X138350916Y-48635831D01*
X138258066Y-48461204D01*
X138161445Y-48342735D01*
X138136960Y-48312713D01*
X138136957Y-48312710D01*
X138133065Y-48307938D01*
X138128316Y-48304009D01*
X137985425Y-48185799D01*
X137985421Y-48185797D01*
X137980675Y-48181870D01*
X137806701Y-48087802D01*
X137617768Y-48029318D01*
X137611643Y-48028674D01*
X137611642Y-48028674D01*
X137427204Y-48009289D01*
X137427202Y-48009289D01*
X137421075Y-48008645D01*
X137338576Y-48016153D01*
X137230251Y-48026011D01*
X137230248Y-48026012D01*
X137224112Y-48026570D01*
X137218202Y-48028310D01*
X137218199Y-48028310D01*
X137098301Y-48063597D01*
X137027305Y-48063641D01*
X136967554Y-48025295D01*
X136938021Y-47960733D01*
X136948081Y-47890453D01*
X136973632Y-47853628D01*
X137295933Y-47531327D01*
X137358245Y-47497301D01*
X137387211Y-47494494D01*
X137392777Y-47495158D01*
X137398912Y-47494686D01*
X137398915Y-47494686D01*
X137583830Y-47480457D01*
X137583834Y-47480456D01*
X137589972Y-47479984D01*
X137780463Y-47426798D01*
X137785967Y-47424018D01*
X137785969Y-47424017D01*
X137951495Y-47340404D01*
X137951497Y-47340403D01*
X137956996Y-47337625D01*
X138112847Y-47215861D01*
X138242078Y-47066145D01*
X138339769Y-46894179D01*
X138402197Y-46706513D01*
X138426985Y-46510295D01*
X138427380Y-46482000D01*
X138408080Y-46285167D01*
X138404108Y-46272009D01*
X138375174Y-46176176D01*
X138350916Y-46095831D01*
X138258066Y-45921204D01*
X138172593Y-45816404D01*
X138136960Y-45772713D01*
X138136957Y-45772710D01*
X138133065Y-45767938D01*
X138128316Y-45764009D01*
X137985425Y-45645799D01*
X137985421Y-45645797D01*
X137980675Y-45641870D01*
X137806701Y-45547802D01*
X137617768Y-45489318D01*
X137611643Y-45488674D01*
X137611642Y-45488674D01*
X137427204Y-45469289D01*
X137427202Y-45469289D01*
X137421075Y-45468645D01*
X137244650Y-45484701D01*
X137174997Y-45470956D01*
X137123832Y-45421735D01*
X137107401Y-45352666D01*
X137130919Y-45285678D01*
X137144135Y-45270125D01*
X137295933Y-45118327D01*
X137358245Y-45084301D01*
X137387211Y-45081494D01*
X137392777Y-45082158D01*
X137398912Y-45081686D01*
X137398915Y-45081686D01*
X137583830Y-45067457D01*
X137583834Y-45067456D01*
X137589972Y-45066984D01*
X137780463Y-45013798D01*
X137785967Y-45011018D01*
X137785969Y-45011017D01*
X137951495Y-44927404D01*
X137951497Y-44927403D01*
X137956996Y-44924625D01*
X138112847Y-44802861D01*
X138206489Y-44694376D01*
X138238049Y-44657813D01*
X138238050Y-44657811D01*
X138242078Y-44653145D01*
X138339769Y-44481179D01*
X138402197Y-44293513D01*
X138426985Y-44097295D01*
X138427380Y-44069000D01*
X138408080Y-43872167D01*
X138350916Y-43682831D01*
X138258066Y-43508204D01*
X138157159Y-43384480D01*
X138136960Y-43359713D01*
X138136957Y-43359710D01*
X138133065Y-43354938D01*
X138128316Y-43351009D01*
X137985425Y-43232799D01*
X137985421Y-43232797D01*
X137980675Y-43228870D01*
X137806701Y-43134802D01*
X137617768Y-43076318D01*
X137611643Y-43075674D01*
X137611642Y-43075674D01*
X137427204Y-43056289D01*
X137427202Y-43056289D01*
X137421075Y-43055645D01*
X137338576Y-43063153D01*
X137230251Y-43073011D01*
X137230248Y-43073012D01*
X137224112Y-43073570D01*
X137218202Y-43075310D01*
X137218199Y-43075310D01*
X137098301Y-43110597D01*
X137027305Y-43110641D01*
X136967554Y-43072295D01*
X136938021Y-43007733D01*
X136948081Y-42937453D01*
X136973632Y-42900628D01*
X137295933Y-42578327D01*
X137358245Y-42544301D01*
X137387211Y-42541494D01*
X137392777Y-42542158D01*
X137398912Y-42541686D01*
X137398915Y-42541686D01*
X137583830Y-42527457D01*
X137583834Y-42527456D01*
X137589972Y-42526984D01*
X137780463Y-42473798D01*
X137785967Y-42471018D01*
X137785969Y-42471017D01*
X137951495Y-42387404D01*
X137951497Y-42387403D01*
X137956996Y-42384625D01*
X138112847Y-42262861D01*
X138206489Y-42154376D01*
X138238049Y-42117813D01*
X138238050Y-42117811D01*
X138242078Y-42113145D01*
X138339769Y-41941179D01*
X138402197Y-41753513D01*
X138426985Y-41557295D01*
X138427205Y-41541531D01*
X138427331Y-41532523D01*
X138427331Y-41532520D01*
X138427380Y-41529000D01*
X138408080Y-41332167D01*
X138350916Y-41142831D01*
X138258066Y-40968204D01*
X138158615Y-40846265D01*
X138136960Y-40819713D01*
X138136957Y-40819710D01*
X138133065Y-40814938D01*
X138126724Y-40809692D01*
X137985425Y-40692799D01*
X137985421Y-40692797D01*
X137980675Y-40688870D01*
X137806701Y-40594802D01*
X137617768Y-40536318D01*
X137611643Y-40535674D01*
X137611642Y-40535674D01*
X137427204Y-40516289D01*
X137427202Y-40516289D01*
X137421075Y-40515645D01*
X137338576Y-40523153D01*
X137230251Y-40533011D01*
X137230248Y-40533012D01*
X137224112Y-40533570D01*
X137218206Y-40535308D01*
X137218202Y-40535309D01*
X137113076Y-40566249D01*
X137034381Y-40589410D01*
X137028923Y-40592263D01*
X137028919Y-40592265D01*
X136938147Y-40639720D01*
X136859110Y-40681040D01*
X136704975Y-40804968D01*
X136577846Y-40956474D01*
X136574879Y-40961872D01*
X136574875Y-40961877D01*
X136527870Y-41047380D01*
X136482567Y-41129787D01*
X136480706Y-41135654D01*
X136480705Y-41135656D01*
X136453250Y-41222204D01*
X136422765Y-41318306D01*
X136400719Y-41514851D01*
X136401235Y-41520995D01*
X136403275Y-41545290D01*
X136389043Y-41614845D01*
X136366812Y-41644928D01*
X130066145Y-47945595D01*
X130003833Y-47979621D01*
X129977050Y-47982500D01*
X122617209Y-47982500D01*
X122549088Y-47962498D01*
X122519567Y-47936136D01*
X122515960Y-47931713D01*
X122515956Y-47931709D01*
X122512065Y-47926938D01*
X122446140Y-47872400D01*
X122364425Y-47804799D01*
X122364421Y-47804797D01*
X122359675Y-47800870D01*
X122185701Y-47706802D01*
X121996768Y-47648318D01*
X121990643Y-47647674D01*
X121990642Y-47647674D01*
X121806204Y-47628289D01*
X121806202Y-47628289D01*
X121800075Y-47627645D01*
X121717576Y-47635153D01*
X121609251Y-47645011D01*
X121609248Y-47645012D01*
X121603112Y-47645570D01*
X121597206Y-47647308D01*
X121597202Y-47647309D01*
X121492076Y-47678249D01*
X121413381Y-47701410D01*
X121407923Y-47704263D01*
X121407919Y-47704265D01*
X121370436Y-47723861D01*
X121238110Y-47793040D01*
X121083975Y-47916968D01*
X120956846Y-48068474D01*
X120953879Y-48073872D01*
X120953875Y-48073877D01*
X120898811Y-48174040D01*
X120861567Y-48241787D01*
X120859706Y-48247654D01*
X120859705Y-48247656D01*
X120807528Y-48412140D01*
X120801765Y-48430306D01*
X120779719Y-48626851D01*
X120782593Y-48661081D01*
X120795208Y-48811306D01*
X120796268Y-48823934D01*
X120801507Y-48842204D01*
X120834550Y-48957438D01*
X120850783Y-49014050D01*
X120856679Y-49025523D01*
X120928187Y-49164660D01*
X120941187Y-49189956D01*
X120981163Y-49240393D01*
X120997261Y-49260704D01*
X121023899Y-49326514D01*
X121010728Y-49396279D01*
X120995040Y-49419956D01*
X120956846Y-49465474D01*
X120953879Y-49470872D01*
X120953875Y-49470877D01*
X120906728Y-49556638D01*
X120861567Y-49638787D01*
X120801765Y-49827306D01*
X120779719Y-50023851D01*
X120796268Y-50220934D01*
X120797967Y-50226858D01*
X120847897Y-50400984D01*
X120850783Y-50411050D01*
X120941187Y-50586956D01*
X120988892Y-50647145D01*
X120997261Y-50657704D01*
X121023899Y-50723514D01*
X121010728Y-50793279D01*
X120995040Y-50816956D01*
X120956846Y-50862474D01*
X120953879Y-50867872D01*
X120953875Y-50867877D01*
X120888319Y-50987125D01*
X120861567Y-51035787D01*
X120859706Y-51041654D01*
X120859705Y-51041656D01*
X120832250Y-51128204D01*
X120801765Y-51224306D01*
X120779719Y-51420851D01*
X120780235Y-51426995D01*
X120791633Y-51562731D01*
X120796268Y-51617934D01*
X120815066Y-51683489D01*
X120831346Y-51740264D01*
X120850783Y-51808050D01*
X120853602Y-51813535D01*
X120907992Y-51919365D01*
X120941187Y-51983956D01*
X120945016Y-51988787D01*
X120946839Y-51991088D01*
X120947414Y-51992509D01*
X120948353Y-51993966D01*
X120948076Y-51994144D01*
X120973474Y-52056898D01*
X120960301Y-52126662D01*
X120956846Y-52132474D01*
X120861567Y-52305787D01*
X120859706Y-52311654D01*
X120859705Y-52311656D01*
X120825908Y-52418197D01*
X120801765Y-52494306D01*
X120779719Y-52690851D01*
X120796268Y-52887934D01*
X120814946Y-52953071D01*
X120848798Y-53071127D01*
X120850783Y-53078050D01*
X120941187Y-53253956D01*
X120945016Y-53258787D01*
X120946839Y-53261088D01*
X120947414Y-53262509D01*
X120948353Y-53263966D01*
X120948076Y-53264144D01*
X120973474Y-53326898D01*
X120960301Y-53396662D01*
X120956846Y-53402474D01*
X120861567Y-53575787D01*
X120859706Y-53581654D01*
X120859705Y-53581656D01*
X120807814Y-53745237D01*
X120801765Y-53764306D01*
X120779719Y-53960851D01*
X120783472Y-54005546D01*
X120795208Y-54145306D01*
X120796268Y-54157934D01*
X120811358Y-54210559D01*
X120841002Y-54313938D01*
X120850783Y-54348050D01*
X120941187Y-54523956D01*
X120945016Y-54528787D01*
X120946839Y-54531088D01*
X120947414Y-54532509D01*
X120948353Y-54533966D01*
X120948076Y-54534144D01*
X120973474Y-54596898D01*
X120960301Y-54666662D01*
X120956846Y-54672474D01*
X120861567Y-54845787D01*
X120801765Y-55034306D01*
X120779719Y-55230851D01*
X120780235Y-55236995D01*
X120794370Y-55405327D01*
X120796268Y-55427934D01*
X120801413Y-55445875D01*
X120847897Y-55607984D01*
X120850783Y-55618050D01*
X120941187Y-55793956D01*
X120945016Y-55798787D01*
X120946839Y-55801088D01*
X120947414Y-55802509D01*
X120948353Y-55803966D01*
X120948076Y-55804144D01*
X120973474Y-55866898D01*
X120960301Y-55936662D01*
X120956846Y-55942474D01*
X120861567Y-56115787D01*
X120859706Y-56121654D01*
X120859705Y-56121656D01*
X120817142Y-56255831D01*
X120801765Y-56304306D01*
X120779719Y-56500851D01*
X120796268Y-56697934D01*
X120816856Y-56769731D01*
X120836991Y-56839950D01*
X120850783Y-56888050D01*
X120853602Y-56893535D01*
X120932634Y-57047313D01*
X120941187Y-57063956D01*
X120945016Y-57068787D01*
X120946839Y-57071088D01*
X120947414Y-57072509D01*
X120948353Y-57073966D01*
X120948076Y-57074144D01*
X120973474Y-57136898D01*
X120960301Y-57206662D01*
X120956846Y-57212474D01*
X120861567Y-57385787D01*
X120801765Y-57574306D01*
X120779719Y-57770851D01*
X108176700Y-57770851D01*
X108176700Y-57047313D01*
X108196702Y-56979192D01*
X108250358Y-56932699D01*
X108320632Y-56922595D01*
X108383185Y-56950369D01*
X108434434Y-56992916D01*
X108442881Y-56998831D01*
X108626756Y-57106279D01*
X108636042Y-57110729D01*
X108835001Y-57186703D01*
X108844899Y-57189579D01*
X108948250Y-57210606D01*
X108962299Y-57209410D01*
X108966000Y-57199065D01*
X108966000Y-57198517D01*
X109474000Y-57198517D01*
X109478064Y-57212359D01*
X109491478Y-57214393D01*
X109498184Y-57213534D01*
X109508262Y-57211392D01*
X109712255Y-57150191D01*
X109721842Y-57146433D01*
X109913095Y-57052739D01*
X109921945Y-57047464D01*
X110095328Y-56923792D01*
X110103200Y-56917139D01*
X110254052Y-56766812D01*
X110260730Y-56758965D01*
X110385003Y-56586020D01*
X110390313Y-56577183D01*
X110484670Y-56386267D01*
X110488469Y-56376672D01*
X110550377Y-56172910D01*
X110552555Y-56162837D01*
X110553986Y-56151962D01*
X110551775Y-56137778D01*
X110538617Y-56134000D01*
X109492115Y-56134000D01*
X109476876Y-56138475D01*
X109475671Y-56139865D01*
X109474000Y-56147548D01*
X109474000Y-57198517D01*
X108966000Y-57198517D01*
X108966000Y-55752000D01*
X108986002Y-55683879D01*
X109039658Y-55637386D01*
X109092000Y-55626000D01*
X110538344Y-55626000D01*
X110551875Y-55622027D01*
X110553180Y-55612947D01*
X110511214Y-55445875D01*
X110507894Y-55436124D01*
X110422972Y-55240814D01*
X110418105Y-55231739D01*
X110302426Y-55052926D01*
X110296136Y-55044757D01*
X110152806Y-54887240D01*
X110145273Y-54880215D01*
X109978139Y-54748222D01*
X109969556Y-54742520D01*
X109932602Y-54722120D01*
X109882631Y-54671687D01*
X109867859Y-54602245D01*
X109892975Y-54535839D01*
X109920327Y-54509232D01*
X109972625Y-54471928D01*
X110099860Y-54381173D01*
X110128639Y-54352495D01*
X110254435Y-54227137D01*
X110258096Y-54223489D01*
X110308558Y-54153264D01*
X110385435Y-54046277D01*
X110388453Y-54042077D01*
X110431625Y-53954726D01*
X110485136Y-53846453D01*
X110485137Y-53846451D01*
X110487430Y-53841811D01*
X110539506Y-53670410D01*
X110550865Y-53633023D01*
X110550865Y-53633021D01*
X110552370Y-53628069D01*
X110581529Y-53406590D01*
X110582611Y-53362309D01*
X110583074Y-53343365D01*
X110583074Y-53343361D01*
X110583156Y-53340000D01*
X110564852Y-53117361D01*
X110510431Y-52900702D01*
X110421354Y-52695840D01*
X110335966Y-52563850D01*
X110302822Y-52512617D01*
X110302820Y-52512614D01*
X110300014Y-52508277D01*
X110149670Y-52343051D01*
X110145619Y-52339852D01*
X110145615Y-52339848D01*
X109978414Y-52207800D01*
X109978410Y-52207798D01*
X109974359Y-52204598D01*
X109933053Y-52181796D01*
X109883084Y-52131364D01*
X109868312Y-52061921D01*
X109893428Y-51995516D01*
X109920780Y-51968909D01*
X110047285Y-51878674D01*
X110099860Y-51841173D01*
X110258096Y-51683489D01*
X110349109Y-51556831D01*
X110385435Y-51506277D01*
X110388453Y-51502077D01*
X110400202Y-51478306D01*
X110485136Y-51306453D01*
X110485137Y-51306451D01*
X110487430Y-51301811D01*
X110552370Y-51088069D01*
X110581529Y-50866590D01*
X110582742Y-50816961D01*
X110583074Y-50803365D01*
X110583074Y-50803361D01*
X110583156Y-50800000D01*
X110564852Y-50577361D01*
X110510431Y-50360702D01*
X110421354Y-50155840D01*
X110339100Y-50028694D01*
X110302822Y-49972617D01*
X110302820Y-49972614D01*
X110300014Y-49968277D01*
X110149670Y-49803051D01*
X110145619Y-49799852D01*
X110145615Y-49799848D01*
X109978414Y-49667800D01*
X109978410Y-49667798D01*
X109974359Y-49664598D01*
X109933053Y-49641796D01*
X109883084Y-49591364D01*
X109868312Y-49521921D01*
X109893428Y-49455516D01*
X109920780Y-49428909D01*
X109994085Y-49376621D01*
X110099860Y-49301173D01*
X110258096Y-49143489D01*
X110265625Y-49133012D01*
X110385435Y-48966277D01*
X110388453Y-48962077D01*
X110445009Y-48847645D01*
X110485136Y-48766453D01*
X110485137Y-48766451D01*
X110487430Y-48761811D01*
X110552370Y-48548069D01*
X110581529Y-48326590D01*
X110582081Y-48304009D01*
X110583074Y-48263365D01*
X110583074Y-48263361D01*
X110583156Y-48260000D01*
X110564852Y-48037361D01*
X110510431Y-47820702D01*
X110421354Y-47615840D01*
X110300014Y-47428277D01*
X110149670Y-47263051D01*
X110145619Y-47259852D01*
X110145615Y-47259848D01*
X109978414Y-47127800D01*
X109978410Y-47127798D01*
X109974359Y-47124598D01*
X109933053Y-47101796D01*
X109883084Y-47051364D01*
X109868312Y-46981921D01*
X109893428Y-46915516D01*
X109920780Y-46888909D01*
X109964603Y-46857650D01*
X110099860Y-46761173D01*
X110258096Y-46603489D01*
X110317594Y-46520689D01*
X110385435Y-46426277D01*
X110388453Y-46422077D01*
X110465607Y-46265968D01*
X110485136Y-46226453D01*
X110485137Y-46226451D01*
X110487430Y-46221811D01*
X110552370Y-46008069D01*
X110581529Y-45786590D01*
X110581868Y-45772713D01*
X110583074Y-45723365D01*
X110583074Y-45723361D01*
X110583156Y-45720000D01*
X110564852Y-45497361D01*
X110510431Y-45280702D01*
X110421354Y-45075840D01*
X110345120Y-44958000D01*
X110302822Y-44892617D01*
X110302820Y-44892614D01*
X110300014Y-44888277D01*
X110149670Y-44723051D01*
X110145619Y-44719852D01*
X110145615Y-44719848D01*
X109978414Y-44587800D01*
X109978410Y-44587798D01*
X109974359Y-44584598D01*
X109933053Y-44561796D01*
X109883084Y-44511364D01*
X109868312Y-44441921D01*
X109893428Y-44375516D01*
X109920780Y-44348909D01*
X109990238Y-44299365D01*
X110099860Y-44221173D01*
X110258096Y-44063489D01*
X110284509Y-44026732D01*
X110385435Y-43886277D01*
X110388453Y-43882077D01*
X110400202Y-43858306D01*
X110485136Y-43686453D01*
X110485137Y-43686451D01*
X110487430Y-43681811D01*
X110539506Y-43510410D01*
X110550865Y-43473023D01*
X110550865Y-43473021D01*
X110552370Y-43468069D01*
X110581529Y-43246590D01*
X110583156Y-43180000D01*
X110564852Y-42957361D01*
X110510431Y-42740702D01*
X110421354Y-42535840D01*
X110374738Y-42463783D01*
X110302822Y-42352617D01*
X110302820Y-42352614D01*
X110300014Y-42348277D01*
X110281147Y-42327542D01*
X110152798Y-42186488D01*
X110121746Y-42122642D01*
X110130141Y-42052143D01*
X110175317Y-41997375D01*
X110201761Y-41983706D01*
X110308297Y-41943767D01*
X110316705Y-41940615D01*
X110376433Y-41895851D01*
X116588719Y-41895851D01*
X116589235Y-41901995D01*
X116598587Y-42013365D01*
X116605268Y-42092934D01*
X116612402Y-42117813D01*
X116655082Y-42266655D01*
X116659783Y-42283050D01*
X116750187Y-42458956D01*
X116873035Y-42613953D01*
X116877728Y-42617947D01*
X116877729Y-42617948D01*
X116985074Y-42709305D01*
X117023650Y-42742136D01*
X117196294Y-42838624D01*
X117384392Y-42899740D01*
X117580777Y-42923158D01*
X117586912Y-42922686D01*
X117586914Y-42922686D01*
X117771830Y-42908457D01*
X117771834Y-42908456D01*
X117777972Y-42907984D01*
X117968463Y-42854798D01*
X117973967Y-42852018D01*
X117973969Y-42852017D01*
X118139495Y-42768404D01*
X118139497Y-42768403D01*
X118144996Y-42765625D01*
X118300847Y-42643861D01*
X118430078Y-42494145D01*
X118527769Y-42322179D01*
X118590197Y-42134513D01*
X118614985Y-41938295D01*
X118615380Y-41910000D01*
X118613859Y-41894489D01*
X118627118Y-41824742D01*
X118650162Y-41793098D01*
X119361854Y-41081405D01*
X119424167Y-41047380D01*
X119450950Y-41044500D01*
X122103050Y-41044500D01*
X122171171Y-41064502D01*
X122192145Y-41081405D01*
X124073263Y-42962522D01*
X125950685Y-44839944D01*
X125984711Y-44902256D01*
X125986216Y-44931547D01*
X125987492Y-44931565D01*
X125987406Y-44937725D01*
X125986719Y-44943851D01*
X125987235Y-44949995D01*
X126001370Y-45118327D01*
X126003268Y-45140934D01*
X126004967Y-45146858D01*
X126044773Y-45285678D01*
X126057783Y-45331050D01*
X126060602Y-45336535D01*
X126140059Y-45491140D01*
X126148187Y-45506956D01*
X126271035Y-45661953D01*
X126275728Y-45665947D01*
X126275729Y-45665948D01*
X126399282Y-45771099D01*
X126421650Y-45790136D01*
X126594294Y-45886624D01*
X126782392Y-45947740D01*
X126978777Y-45971158D01*
X126984912Y-45970686D01*
X126984914Y-45970686D01*
X127169830Y-45956457D01*
X127169834Y-45956456D01*
X127175972Y-45955984D01*
X127366463Y-45902798D01*
X127371967Y-45900018D01*
X127371969Y-45900017D01*
X127537495Y-45816404D01*
X127537497Y-45816403D01*
X127542996Y-45813625D01*
X127698847Y-45691861D01*
X127828078Y-45542145D01*
X127925769Y-45370179D01*
X127988197Y-45182513D01*
X128012985Y-44986295D01*
X128013380Y-44958000D01*
X127994080Y-44761167D01*
X127936916Y-44571831D01*
X127844066Y-44397204D01*
X127762041Y-44296632D01*
X127722960Y-44248713D01*
X127722957Y-44248710D01*
X127719065Y-44243938D01*
X127713466Y-44239306D01*
X127571425Y-44121799D01*
X127571421Y-44121797D01*
X127566675Y-44117870D01*
X127392701Y-44023802D01*
X127203768Y-43965318D01*
X127197643Y-43964674D01*
X127197642Y-43964674D01*
X127013204Y-43945289D01*
X127013202Y-43945289D01*
X127007075Y-43944645D01*
X126984121Y-43946734D01*
X126914469Y-43932989D01*
X126883607Y-43910348D01*
X124919802Y-41946542D01*
X122951655Y-39978395D01*
X122943665Y-39969615D01*
X122943663Y-39969613D01*
X122939416Y-39962920D01*
X122912627Y-39937763D01*
X122887743Y-39914396D01*
X122884901Y-39911641D01*
X122864333Y-39891073D01*
X122860826Y-39888353D01*
X122851804Y-39880647D01*
X122818133Y-39849028D01*
X122811181Y-39845206D01*
X122799342Y-39838697D01*
X122782818Y-39827843D01*
X122772132Y-39819555D01*
X122765868Y-39814696D01*
X122758596Y-39811549D01*
X122758594Y-39811548D01*
X122723465Y-39796346D01*
X122712805Y-39791124D01*
X122679284Y-39772695D01*
X122679282Y-39772694D01*
X122672337Y-39768876D01*
X122651559Y-39763541D01*
X122632869Y-39757142D01*
X122613176Y-39748620D01*
X122567552Y-39741394D01*
X122555929Y-39738987D01*
X122521661Y-39730189D01*
X122511188Y-39727500D01*
X122489741Y-39727500D01*
X122470031Y-39725949D01*
X122456677Y-39723834D01*
X122448848Y-39722594D01*
X122402859Y-39726941D01*
X122391004Y-39727500D01*
X119208056Y-39727500D01*
X119196200Y-39726941D01*
X119196197Y-39726941D01*
X119188463Y-39725212D01*
X119133446Y-39726941D01*
X119117631Y-39727438D01*
X119113673Y-39727500D01*
X119084568Y-39727500D01*
X119080168Y-39728056D01*
X119068336Y-39728988D01*
X119022169Y-39730438D01*
X119001579Y-39736420D01*
X118982218Y-39740430D01*
X118975230Y-39741312D01*
X118968796Y-39742125D01*
X118968795Y-39742125D01*
X118960936Y-39743118D01*
X118953571Y-39746034D01*
X118953567Y-39746035D01*
X118917982Y-39760124D01*
X118906752Y-39763969D01*
X118862399Y-39776855D01*
X118855575Y-39780891D01*
X118843943Y-39787770D01*
X118826187Y-39796469D01*
X118806244Y-39804365D01*
X118792025Y-39814696D01*
X118768868Y-39831520D01*
X118758949Y-39838035D01*
X118726023Y-39857508D01*
X118726019Y-39857511D01*
X118719193Y-39861548D01*
X118704032Y-39876709D01*
X118689000Y-39889548D01*
X118671643Y-39902159D01*
X118666593Y-39908263D01*
X118666591Y-39908265D01*
X118642188Y-39937763D01*
X118634199Y-39946541D01*
X117719457Y-40861283D01*
X117657145Y-40895309D01*
X117621370Y-40897269D01*
X117621370Y-40897332D01*
X117620351Y-40897325D01*
X117617192Y-40897498D01*
X117615205Y-40897289D01*
X117615202Y-40897289D01*
X117609075Y-40896645D01*
X117526576Y-40904153D01*
X117418251Y-40914011D01*
X117418248Y-40914012D01*
X117412112Y-40914570D01*
X117406206Y-40916308D01*
X117406202Y-40916309D01*
X117329434Y-40938903D01*
X117222381Y-40970410D01*
X117216923Y-40973263D01*
X117216919Y-40973265D01*
X117126147Y-41020720D01*
X117047110Y-41062040D01*
X116892975Y-41185968D01*
X116765846Y-41337474D01*
X116762879Y-41342872D01*
X116762875Y-41342877D01*
X116684095Y-41486180D01*
X116670567Y-41510787D01*
X116668706Y-41516654D01*
X116668705Y-41516656D01*
X116641134Y-41603571D01*
X116610765Y-41699306D01*
X116588719Y-41895851D01*
X110376433Y-41895851D01*
X110433261Y-41853261D01*
X110520615Y-41736705D01*
X110571745Y-41600316D01*
X110578500Y-41538134D01*
X110578500Y-39741866D01*
X110571745Y-39679684D01*
X110520615Y-39543295D01*
X110433261Y-39426739D01*
X110316705Y-39339385D01*
X110180316Y-39288255D01*
X110118134Y-39281500D01*
X108321866Y-39281500D01*
X108259684Y-39288255D01*
X108123295Y-39339385D01*
X108006739Y-39426739D01*
X107919385Y-39543295D01*
X107868255Y-39679684D01*
X107861500Y-39741866D01*
X107861500Y-41538134D01*
X107868255Y-41600316D01*
X107919385Y-41736705D01*
X108006739Y-41853261D01*
X108123295Y-41940615D01*
X108131704Y-41943767D01*
X108131705Y-41943768D01*
X108240451Y-41984535D01*
X108297216Y-42027176D01*
X108321916Y-42093738D01*
X108306709Y-42163087D01*
X108287316Y-42189568D01*
X108160629Y-42322138D01*
X108157715Y-42326410D01*
X108157714Y-42326411D01*
X108072556Y-42451249D01*
X108034743Y-42506680D01*
X107940688Y-42709305D01*
X107880989Y-42924570D01*
X107857251Y-43146695D01*
X107857548Y-43151848D01*
X107857548Y-43151851D01*
X107863011Y-43246590D01*
X107870110Y-43369715D01*
X107871247Y-43374761D01*
X107871248Y-43374767D01*
X107889107Y-43454011D01*
X107919222Y-43587639D01*
X108003266Y-43794616D01*
X108042295Y-43858306D01*
X108099762Y-43952083D01*
X108119987Y-43985088D01*
X108266250Y-44153938D01*
X108369923Y-44240009D01*
X108426998Y-44287393D01*
X108438126Y-44296632D01*
X108442803Y-44299365D01*
X108511445Y-44339476D01*
X108560169Y-44391114D01*
X108573240Y-44460897D01*
X108546509Y-44526669D01*
X108506055Y-44560027D01*
X108493607Y-44566507D01*
X108489474Y-44569610D01*
X108489471Y-44569612D01*
X108357907Y-44668393D01*
X108314965Y-44700635D01*
X108160629Y-44862138D01*
X108157715Y-44866410D01*
X108157714Y-44866411D01*
X108113281Y-44931547D01*
X108034743Y-45046680D01*
X107940688Y-45249305D01*
X107880989Y-45464570D01*
X107857251Y-45686695D01*
X107857548Y-45691848D01*
X107857548Y-45691851D01*
X107864730Y-45816404D01*
X107870110Y-45909715D01*
X107871247Y-45914761D01*
X107871248Y-45914767D01*
X107886775Y-45983663D01*
X107919222Y-46127639D01*
X108003266Y-46334616D01*
X108005965Y-46339020D01*
X108116878Y-46520014D01*
X108119987Y-46525088D01*
X108266250Y-46693938D01*
X108438126Y-46836632D01*
X108508595Y-46877811D01*
X108511445Y-46879476D01*
X108560169Y-46931114D01*
X108573240Y-47000897D01*
X108546509Y-47066669D01*
X108506055Y-47100027D01*
X108493607Y-47106507D01*
X108489474Y-47109610D01*
X108489471Y-47109612D01*
X108341962Y-47220365D01*
X108314965Y-47240635D01*
X108160629Y-47402138D01*
X108157715Y-47406410D01*
X108157714Y-47406411D01*
X108097658Y-47494450D01*
X108034743Y-47586680D01*
X107940688Y-47789305D01*
X107880989Y-48004570D01*
X107857251Y-48226695D01*
X107857548Y-48231848D01*
X107857548Y-48231851D01*
X107866780Y-48391956D01*
X107870110Y-48449715D01*
X107871247Y-48454762D01*
X107871248Y-48454766D01*
X107875072Y-48471732D01*
X107896497Y-48566799D01*
X107896951Y-48568815D01*
X107892415Y-48639666D01*
X107863129Y-48685611D01*
X107402142Y-49146598D01*
X107339830Y-49180624D01*
X107269015Y-49175559D01*
X107212179Y-49133012D01*
X107187368Y-49066492D01*
X107187047Y-49057494D01*
X107187918Y-36868113D01*
X107207925Y-36799994D01*
X107261584Y-36753505D01*
X107331859Y-36743406D01*
X107396437Y-36772903D01*
X107431150Y-36821942D01*
X107477374Y-36939288D01*
X107643957Y-37256582D01*
X107645858Y-37259411D01*
X107645864Y-37259421D01*
X107829569Y-37532800D01*
X107843834Y-37554029D01*
X108074665Y-37828150D01*
X108333751Y-38075738D01*
X108618061Y-38293897D01*
X108650056Y-38313350D01*
X108921355Y-38478303D01*
X108921360Y-38478306D01*
X108924270Y-38480075D01*
X108927358Y-38481521D01*
X108927357Y-38481521D01*
X109245710Y-38630649D01*
X109245720Y-38630653D01*
X109248794Y-38632093D01*
X109252012Y-38633195D01*
X109252015Y-38633196D01*
X109584615Y-38747071D01*
X109584623Y-38747073D01*
X109587838Y-38748174D01*
X109937435Y-38826959D01*
X109989728Y-38832917D01*
X110290114Y-38867142D01*
X110290122Y-38867142D01*
X110293497Y-38867527D01*
X110296901Y-38867545D01*
X110296904Y-38867545D01*
X110491227Y-38868562D01*
X110651857Y-38869403D01*
X110655243Y-38869053D01*
X110655245Y-38869053D01*
X111004932Y-38832917D01*
X111004941Y-38832916D01*
X111008324Y-38832566D01*
X111011657Y-38831852D01*
X111011660Y-38831851D01*
X111184186Y-38794864D01*
X111358727Y-38757446D01*
X111698968Y-38644922D01*
X112025066Y-38496311D01*
X112119052Y-38440506D01*
X112330262Y-38315099D01*
X112330267Y-38315096D01*
X112333207Y-38313350D01*
X112619786Y-38098180D01*
X112881451Y-37853319D01*
X113115140Y-37581630D01*
X113221750Y-37426512D01*
X113316190Y-37289101D01*
X113316195Y-37289094D01*
X113318120Y-37286292D01*
X113319732Y-37283298D01*
X113319737Y-37283290D01*
X113486395Y-36973772D01*
X113488017Y-36970760D01*
X113622842Y-36638724D01*
X113633142Y-36602568D01*
X113653527Y-36531006D01*
X113721020Y-36294070D01*
X113781401Y-35940828D01*
X113783511Y-35906340D01*
X113803168Y-35584928D01*
X113803278Y-35583131D01*
X113803359Y-35560000D01*
X113783979Y-35202159D01*
X113726066Y-34848505D01*
X113630297Y-34503173D01*
X113627243Y-34495497D01*
X113499052Y-34173369D01*
X113497793Y-34170205D01*
X113430797Y-34043671D01*
X113331702Y-33856513D01*
X113331698Y-33856506D01*
X113330103Y-33853494D01*
X113129190Y-33556746D01*
X112897403Y-33283432D01*
X112637454Y-33036750D01*
X112352384Y-32819585D01*
X112349472Y-32817828D01*
X112349467Y-32817825D01*
X112048443Y-32636236D01*
X112048437Y-32636233D01*
X112045528Y-32634478D01*
X111874763Y-32555211D01*
X111745627Y-32495268D01*
X111692260Y-32448444D01*
X111672680Y-32380201D01*
X111693104Y-32312205D01*
X111747046Y-32266046D01*
X111798686Y-32254981D01*
X134137461Y-32256617D01*
G37*
G04 #@! TD.AperFunction*
M02*
