M48
; DRILL file {KiCad 6.0.1-79c1e3a40b~116~ubuntu20.04.1} date Fri 21 Jan 2022 03:32:26 PM EST
; FORMAT={-:-/ absolute / metric / decimal}
; #@! TF.CreationDate,2022-01-21T15:32:26-05:00
; #@! TF.GenerationSoftware,Kicad,Pcbnew,6.0.1-79c1e3a40b~116~ubuntu20.04.1
; #@! TF.FileFunction,Plated,1,2,PTH
FMAT,2
METRIC
; #@! TA.AperFunction,Plated,PTH,ViaDrill
T1C0.500
; #@! TA.AperFunction,Plated,PTH,ComponentDrill
T2C1.000
; #@! TA.AperFunction,Plated,PTH,ComponentDrill
T3C3.200
%
G90
G05
T1
X117.348Y-66.294
X117.602Y-41.91
X119.888Y-41.822
X120.675Y-36.474
X121.158Y-60.706
X121.666Y-71.755
X121.666Y-73.025
X121.666Y-74.295
X121.666Y-75.565
X121.666Y-76.835
X121.666Y-78.105
X121.666Y-79.375
X121.666Y-80.645
X121.793Y-48.641
X121.793Y-50.038
X121.793Y-51.435
X121.793Y-52.705
X121.793Y-53.975
X121.793Y-55.245
X121.793Y-56.515
X121.793Y-57.785
X122.165Y-42.34
X122.936Y-64.77
X124.714Y-60.706
X127.0Y-44.958
X132.969Y-64.897
X133.756Y-40.107
X137.287Y-56.642
X137.287Y-58.928
X137.414Y-41.529
X137.414Y-44.069
X137.414Y-46.482
X137.414Y-49.022
X137.414Y-51.689
X137.414Y-54.356
X145.034Y-41.783
X145.034Y-44.45
X145.034Y-46.99
X145.034Y-49.403
X145.034Y-51.943
X145.034Y-54.61
X145.034Y-57.15
X145.034Y-59.563
T2
X109.22Y-40.64
X109.22Y-43.18
X109.22Y-45.72
X109.22Y-48.26
X109.22Y-50.8
X109.22Y-53.34
X109.22Y-55.88
X109.22Y-63.5
X109.22Y-66.04
X109.22Y-68.58
X109.22Y-73.66
X109.22Y-76.2
X109.22Y-78.74
T3
X110.49Y-35.56
X110.49Y-86.36
X146.05Y-35.56
X146.05Y-86.36
T0
M30
