%FSLAX45Y45*%
G04 Gerber Fmt 4.5, Leading zero omitted, Abs format (unit mm)*
G04 Created by KiCad (PCBNEW 6.0.1-79c1e3a40b~116~ubuntu20.04.1) date 2022-02-10 07:58:23*
%MOMM*%
%LPD*%
G01*
G04 APERTURE LIST*
%TA.AperFunction,Profile*%
%ADD10C,0.100000*%
%TD*%
%ADD11C,0.200000*%
G04 APERTURE END LIST*
D10*
X10922000Y-2921000D02*
G75*
G03*
X10541000Y-3302000I0J-381000D01*
G01*
X10922000Y-2921000D02*
X15367000Y-2921000D01*
X10541000Y-8636000D02*
G75*
G03*
X10922000Y-9017000I381000J0D01*
G01*
X15748000Y-8636000D02*
X15748000Y-3302000D01*
X10922000Y-9017000D02*
X15367000Y-9017000D01*
X15367000Y-9017000D02*
G75*
G03*
X15748000Y-8636000I0J381000D01*
G01*
X15748000Y-3302000D02*
G75*
G03*
X15367000Y-2921000I-381000J0D01*
G01*
X10541000Y-8636000D02*
X10541000Y-3302000D01*
D11*
X10793619Y-9332476D02*
X10793619Y-9132476D01*
X10841238Y-9132476D01*
X10869809Y-9142000D01*
X10888857Y-9161048D01*
X10898381Y-9180095D01*
X10907905Y-9218191D01*
X10907905Y-9246762D01*
X10898381Y-9284857D01*
X10888857Y-9303905D01*
X10869809Y-9322952D01*
X10841238Y-9332476D01*
X10793619Y-9332476D01*
X10993619Y-9332476D02*
X10993619Y-9199143D01*
X10993619Y-9237238D02*
X11003143Y-9218191D01*
X11012666Y-9208667D01*
X11031714Y-9199143D01*
X11050762Y-9199143D01*
X11117428Y-9332476D02*
X11117428Y-9199143D01*
X11117428Y-9132476D02*
X11107905Y-9142000D01*
X11117428Y-9151524D01*
X11126952Y-9142000D01*
X11117428Y-9132476D01*
X11117428Y-9151524D01*
X11241238Y-9332476D02*
X11222190Y-9322952D01*
X11212666Y-9303905D01*
X11212666Y-9132476D01*
X11346000Y-9332476D02*
X11326952Y-9322952D01*
X11317428Y-9303905D01*
X11317428Y-9132476D01*
X11574571Y-9332476D02*
X11574571Y-9132476D01*
X11641238Y-9275333D01*
X11707904Y-9132476D01*
X11707904Y-9332476D01*
X11888857Y-9332476D02*
X11888857Y-9227714D01*
X11879333Y-9208667D01*
X11860285Y-9199143D01*
X11822190Y-9199143D01*
X11803143Y-9208667D01*
X11888857Y-9322952D02*
X11869809Y-9332476D01*
X11822190Y-9332476D01*
X11803143Y-9322952D01*
X11793619Y-9303905D01*
X11793619Y-9284857D01*
X11803143Y-9265810D01*
X11822190Y-9256286D01*
X11869809Y-9256286D01*
X11888857Y-9246762D01*
X11984095Y-9199143D02*
X11984095Y-9399143D01*
X11984095Y-9208667D02*
X12003143Y-9199143D01*
X12041238Y-9199143D01*
X12060285Y-9208667D01*
X12069809Y-9218191D01*
X12079333Y-9237238D01*
X12079333Y-9294381D01*
X12069809Y-9313429D01*
X12060285Y-9322952D01*
X12041238Y-9332476D01*
X12003143Y-9332476D01*
X11984095Y-9322952D01*
X12165047Y-9313429D02*
X12174571Y-9322952D01*
X12165047Y-9332476D01*
X12155524Y-9322952D01*
X12165047Y-9313429D01*
X12165047Y-9332476D01*
X12165047Y-9208667D02*
X12174571Y-9218191D01*
X12165047Y-9227714D01*
X12155524Y-9218191D01*
X12165047Y-9208667D01*
X12165047Y-9227714D01*
M02*
