G04 #@! TF.GenerationSoftware,KiCad,Pcbnew,6.0.5-2.fc36*
G04 #@! TF.CreationDate,2022-06-02T11:14:52-04:00*
G04 #@! TF.ProjectId,led_breakout,6c65645f-6272-4656-916b-6f75742e6b69,0*
G04 #@! TF.SameCoordinates,Original*
G04 #@! TF.FileFunction,Legend,Bot*
G04 #@! TF.FilePolarity,Positive*
%FSLAX46Y46*%
G04 Gerber Fmt 4.6, Leading zero omitted, Abs format (unit mm)*
G04 Created by KiCad (PCBNEW 6.0.5-2.fc36) date 2022-06-02 11:14:52*
%MOMM*%
%LPD*%
G01*
G04 APERTURE LIST*
%ADD10C,0.150000*%
%ADD11O,1.700000X1.700000*%
%ADD12R,1.700000X1.700000*%
%ADD13C,5.600000*%
G04 APERTURE END LIST*
D10*
X140682023Y-66524761D02*
X140539166Y-66572380D01*
X140301071Y-66572380D01*
X140205833Y-66524761D01*
X140158214Y-66477142D01*
X140110595Y-66381904D01*
X140110595Y-66286666D01*
X140158214Y-66191428D01*
X140205833Y-66143809D01*
X140301071Y-66096190D01*
X140491547Y-66048571D01*
X140586785Y-66000952D01*
X140634404Y-65953333D01*
X140682023Y-65858095D01*
X140682023Y-65762857D01*
X140634404Y-65667619D01*
X140586785Y-65620000D01*
X140491547Y-65572380D01*
X140253452Y-65572380D01*
X140110595Y-65620000D01*
X139301071Y-66524761D02*
X139396309Y-66572380D01*
X139586785Y-66572380D01*
X139682023Y-66524761D01*
X139729642Y-66429523D01*
X139729642Y-66048571D01*
X139682023Y-65953333D01*
X139586785Y-65905714D01*
X139396309Y-65905714D01*
X139301071Y-65953333D01*
X139253452Y-66048571D01*
X139253452Y-66143809D01*
X139729642Y-66239047D01*
X138967738Y-65905714D02*
X138586785Y-65905714D01*
X138824880Y-65572380D02*
X138824880Y-66429523D01*
X138777261Y-66524761D01*
X138682023Y-66572380D01*
X138586785Y-66572380D01*
X137491547Y-65905714D02*
X137491547Y-66762857D01*
X137539166Y-66858095D01*
X137634404Y-66905714D01*
X137682023Y-66905714D01*
X137491547Y-65572380D02*
X137539166Y-65620000D01*
X137491547Y-65667619D01*
X137443928Y-65620000D01*
X137491547Y-65572380D01*
X137491547Y-65667619D01*
X136586785Y-65905714D02*
X136586785Y-66572380D01*
X137015357Y-65905714D02*
X137015357Y-66429523D01*
X136967738Y-66524761D01*
X136872500Y-66572380D01*
X136729642Y-66572380D01*
X136634404Y-66524761D01*
X136586785Y-66477142D01*
X136110595Y-66572380D02*
X136110595Y-65905714D01*
X136110595Y-66000952D02*
X136062976Y-65953333D01*
X135967738Y-65905714D01*
X135824880Y-65905714D01*
X135729642Y-65953333D01*
X135682023Y-66048571D01*
X135682023Y-66572380D01*
X135682023Y-66048571D02*
X135634404Y-65953333D01*
X135539166Y-65905714D01*
X135396309Y-65905714D01*
X135301071Y-65953333D01*
X135253452Y-66048571D01*
X135253452Y-66572380D01*
X134777261Y-65905714D02*
X134777261Y-66905714D01*
X134777261Y-65953333D02*
X134682023Y-65905714D01*
X134491547Y-65905714D01*
X134396309Y-65953333D01*
X134348690Y-66000952D01*
X134301071Y-66096190D01*
X134301071Y-66381904D01*
X134348690Y-66477142D01*
X134396309Y-66524761D01*
X134491547Y-66572380D01*
X134682023Y-66572380D01*
X134777261Y-66524761D01*
X133491547Y-66524761D02*
X133586785Y-66572380D01*
X133777261Y-66572380D01*
X133872500Y-66524761D01*
X133920119Y-66429523D01*
X133920119Y-66048571D01*
X133872500Y-65953333D01*
X133777261Y-65905714D01*
X133586785Y-65905714D01*
X133491547Y-65953333D01*
X133443928Y-66048571D01*
X133443928Y-66143809D01*
X133920119Y-66239047D01*
X133015357Y-66572380D02*
X133015357Y-65905714D01*
X133015357Y-66096190D02*
X132967738Y-66000952D01*
X132920119Y-65953333D01*
X132824880Y-65905714D01*
X132729642Y-65905714D01*
X132443928Y-66524761D02*
X132348690Y-66572380D01*
X132158214Y-66572380D01*
X132062976Y-66524761D01*
X132015357Y-66429523D01*
X132015357Y-66381904D01*
X132062976Y-66286666D01*
X132158214Y-66239047D01*
X132301071Y-66239047D01*
X132396309Y-66191428D01*
X132443928Y-66096190D01*
X132443928Y-66048571D01*
X132396309Y-65953333D01*
X132301071Y-65905714D01*
X132158214Y-65905714D01*
X132062976Y-65953333D01*
X130967738Y-65905714D02*
X130586785Y-65905714D01*
X130824880Y-65572380D02*
X130824880Y-66429523D01*
X130777261Y-66524761D01*
X130682023Y-66572380D01*
X130586785Y-66572380D01*
X130110595Y-66572380D02*
X130205833Y-66524761D01*
X130253452Y-66477142D01*
X130301071Y-66381904D01*
X130301071Y-66096190D01*
X130253452Y-66000952D01*
X130205833Y-65953333D01*
X130110595Y-65905714D01*
X129967738Y-65905714D01*
X129872500Y-65953333D01*
X129824880Y-66000952D01*
X129777261Y-66096190D01*
X129777261Y-66381904D01*
X129824880Y-66477142D01*
X129872500Y-66524761D01*
X129967738Y-66572380D01*
X130110595Y-66572380D01*
X128586785Y-66572380D02*
X128586785Y-65572380D01*
X128253452Y-66286666D01*
X127920119Y-65572380D01*
X127920119Y-66572380D01*
X127253452Y-65572380D02*
X127062976Y-65572380D01*
X126967738Y-65620000D01*
X126872500Y-65715238D01*
X126824880Y-65905714D01*
X126824880Y-66239047D01*
X126872500Y-66429523D01*
X126967738Y-66524761D01*
X127062976Y-66572380D01*
X127253452Y-66572380D01*
X127348690Y-66524761D01*
X127443928Y-66429523D01*
X127491547Y-66239047D01*
X127491547Y-65905714D01*
X127443928Y-65715238D01*
X127348690Y-65620000D01*
X127253452Y-65572380D01*
X126443928Y-66524761D02*
X126301071Y-66572380D01*
X126062976Y-66572380D01*
X125967738Y-66524761D01*
X125920119Y-66477142D01*
X125872500Y-66381904D01*
X125872500Y-66286666D01*
X125920119Y-66191428D01*
X125967738Y-66143809D01*
X126062976Y-66096190D01*
X126253452Y-66048571D01*
X126348690Y-66000952D01*
X126396309Y-65953333D01*
X126443928Y-65858095D01*
X126443928Y-65762857D01*
X126396309Y-65667619D01*
X126348690Y-65620000D01*
X126253452Y-65572380D01*
X126015357Y-65572380D01*
X125872500Y-65620000D01*
X125443928Y-66572380D02*
X125443928Y-65572380D01*
X140205833Y-68182380D02*
X140205833Y-67658571D01*
X140253452Y-67563333D01*
X140348690Y-67515714D01*
X140539166Y-67515714D01*
X140634404Y-67563333D01*
X140205833Y-68134761D02*
X140301071Y-68182380D01*
X140539166Y-68182380D01*
X140634404Y-68134761D01*
X140682023Y-68039523D01*
X140682023Y-67944285D01*
X140634404Y-67849047D01*
X140539166Y-67801428D01*
X140301071Y-67801428D01*
X140205833Y-67753809D01*
X139729642Y-67515714D02*
X139729642Y-68182380D01*
X139729642Y-67610952D02*
X139682023Y-67563333D01*
X139586785Y-67515714D01*
X139443928Y-67515714D01*
X139348690Y-67563333D01*
X139301071Y-67658571D01*
X139301071Y-68182380D01*
X138396309Y-68182380D02*
X138396309Y-67182380D01*
X138396309Y-68134761D02*
X138491547Y-68182380D01*
X138682023Y-68182380D01*
X138777261Y-68134761D01*
X138824880Y-68087142D01*
X138872500Y-67991904D01*
X138872500Y-67706190D01*
X138824880Y-67610952D01*
X138777261Y-67563333D01*
X138682023Y-67515714D01*
X138491547Y-67515714D01*
X138396309Y-67563333D01*
X136586785Y-68087142D02*
X136634404Y-68134761D01*
X136777261Y-68182380D01*
X136872500Y-68182380D01*
X137015357Y-68134761D01*
X137110595Y-68039523D01*
X137158214Y-67944285D01*
X137205833Y-67753809D01*
X137205833Y-67610952D01*
X137158214Y-67420476D01*
X137110595Y-67325238D01*
X137015357Y-67230000D01*
X136872500Y-67182380D01*
X136777261Y-67182380D01*
X136634404Y-67230000D01*
X136586785Y-67277619D01*
X136205833Y-68134761D02*
X136062976Y-68182380D01*
X135824880Y-68182380D01*
X135729642Y-68134761D01*
X135682023Y-68087142D01*
X135634404Y-67991904D01*
X135634404Y-67896666D01*
X135682023Y-67801428D01*
X135729642Y-67753809D01*
X135824880Y-67706190D01*
X136015357Y-67658571D01*
X136110595Y-67610952D01*
X136158214Y-67563333D01*
X136205833Y-67468095D01*
X136205833Y-67372857D01*
X136158214Y-67277619D01*
X136110595Y-67230000D01*
X136015357Y-67182380D01*
X135777261Y-67182380D01*
X135634404Y-67230000D01*
X134682023Y-68182380D02*
X135253452Y-68182380D01*
X134967738Y-68182380D02*
X134967738Y-67182380D01*
X135062976Y-67325238D01*
X135158214Y-67420476D01*
X135253452Y-67468095D01*
X133634404Y-67515714D02*
X133253452Y-67515714D01*
X133491547Y-68182380D02*
X133491547Y-67325238D01*
X133443928Y-67230000D01*
X133348690Y-67182380D01*
X133253452Y-67182380D01*
X132777261Y-68182380D02*
X132872500Y-68134761D01*
X132920119Y-68087142D01*
X132967738Y-67991904D01*
X132967738Y-67706190D01*
X132920119Y-67610952D01*
X132872500Y-67563333D01*
X132777261Y-67515714D01*
X132634404Y-67515714D01*
X132539166Y-67563333D01*
X132491547Y-67610952D01*
X132443928Y-67706190D01*
X132443928Y-67991904D01*
X132491547Y-68087142D01*
X132539166Y-68134761D01*
X132634404Y-68182380D01*
X132777261Y-68182380D01*
X132015357Y-68182380D02*
X132015357Y-67515714D01*
X132015357Y-67706190D02*
X131967738Y-67610952D01*
X131920119Y-67563333D01*
X131824880Y-67515714D01*
X131729642Y-67515714D01*
X130634404Y-68182380D02*
X130634404Y-67515714D01*
X130634404Y-67182380D02*
X130682023Y-67230000D01*
X130634404Y-67277619D01*
X130586785Y-67230000D01*
X130634404Y-67182380D01*
X130634404Y-67277619D01*
X130158214Y-67515714D02*
X130158214Y-68182380D01*
X130158214Y-67610952D02*
X130110595Y-67563333D01*
X130015357Y-67515714D01*
X129872500Y-67515714D01*
X129777261Y-67563333D01*
X129729642Y-67658571D01*
X129729642Y-68182380D01*
X128824880Y-68182380D02*
X128824880Y-67182380D01*
X128824880Y-68134761D02*
X128920119Y-68182380D01*
X129110595Y-68182380D01*
X129205833Y-68134761D01*
X129253452Y-68087142D01*
X129301071Y-67991904D01*
X129301071Y-67706190D01*
X129253452Y-67610952D01*
X129205833Y-67563333D01*
X129110595Y-67515714D01*
X128920119Y-67515714D01*
X128824880Y-67563333D01*
X127967738Y-68134761D02*
X128062976Y-68182380D01*
X128253452Y-68182380D01*
X128348690Y-68134761D01*
X128396309Y-68039523D01*
X128396309Y-67658571D01*
X128348690Y-67563333D01*
X128253452Y-67515714D01*
X128062976Y-67515714D01*
X127967738Y-67563333D01*
X127920119Y-67658571D01*
X127920119Y-67753809D01*
X128396309Y-67849047D01*
X127491547Y-67515714D02*
X127491547Y-68515714D01*
X127491547Y-67563333D02*
X127396309Y-67515714D01*
X127205833Y-67515714D01*
X127110595Y-67563333D01*
X127062976Y-67610952D01*
X127015357Y-67706190D01*
X127015357Y-67991904D01*
X127062976Y-68087142D01*
X127110595Y-68134761D01*
X127205833Y-68182380D01*
X127396309Y-68182380D01*
X127491547Y-68134761D01*
X126205833Y-68134761D02*
X126301071Y-68182380D01*
X126491547Y-68182380D01*
X126586785Y-68134761D01*
X126634404Y-68039523D01*
X126634404Y-67658571D01*
X126586785Y-67563333D01*
X126491547Y-67515714D01*
X126301071Y-67515714D01*
X126205833Y-67563333D01*
X126158214Y-67658571D01*
X126158214Y-67753809D01*
X126634404Y-67849047D01*
X125729642Y-67515714D02*
X125729642Y-68182380D01*
X125729642Y-67610952D02*
X125682023Y-67563333D01*
X125586785Y-67515714D01*
X125443928Y-67515714D01*
X125348690Y-67563333D01*
X125301071Y-67658571D01*
X125301071Y-68182380D01*
X124396309Y-68182380D02*
X124396309Y-67182380D01*
X124396309Y-68134761D02*
X124491547Y-68182380D01*
X124682023Y-68182380D01*
X124777261Y-68134761D01*
X124824880Y-68087142D01*
X124872500Y-67991904D01*
X124872500Y-67706190D01*
X124824880Y-67610952D01*
X124777261Y-67563333D01*
X124682023Y-67515714D01*
X124491547Y-67515714D01*
X124396309Y-67563333D01*
X123539166Y-68134761D02*
X123634404Y-68182380D01*
X123824880Y-68182380D01*
X123920119Y-68134761D01*
X123967738Y-68039523D01*
X123967738Y-67658571D01*
X123920119Y-67563333D01*
X123824880Y-67515714D01*
X123634404Y-67515714D01*
X123539166Y-67563333D01*
X123491547Y-67658571D01*
X123491547Y-67753809D01*
X123967738Y-67849047D01*
X123062976Y-67515714D02*
X123062976Y-68182380D01*
X123062976Y-67610952D02*
X123015357Y-67563333D01*
X122920119Y-67515714D01*
X122777261Y-67515714D01*
X122682023Y-67563333D01*
X122634404Y-67658571D01*
X122634404Y-68182380D01*
X122301071Y-67515714D02*
X121920119Y-67515714D01*
X122158214Y-67182380D02*
X122158214Y-68039523D01*
X122110595Y-68134761D01*
X122015357Y-68182380D01*
X121920119Y-68182380D01*
X140205833Y-69744761D02*
X140301071Y-69792380D01*
X140491547Y-69792380D01*
X140586785Y-69744761D01*
X140634404Y-69697142D01*
X140682023Y-69601904D01*
X140682023Y-69316190D01*
X140634404Y-69220952D01*
X140586785Y-69173333D01*
X140491547Y-69125714D01*
X140301071Y-69125714D01*
X140205833Y-69173333D01*
X139634404Y-69792380D02*
X139729642Y-69744761D01*
X139777261Y-69697142D01*
X139824880Y-69601904D01*
X139824880Y-69316190D01*
X139777261Y-69220952D01*
X139729642Y-69173333D01*
X139634404Y-69125714D01*
X139491547Y-69125714D01*
X139396309Y-69173333D01*
X139348690Y-69220952D01*
X139301071Y-69316190D01*
X139301071Y-69601904D01*
X139348690Y-69697142D01*
X139396309Y-69744761D01*
X139491547Y-69792380D01*
X139634404Y-69792380D01*
X138872500Y-69125714D02*
X138872500Y-69792380D01*
X138872500Y-69220952D02*
X138824880Y-69173333D01*
X138729642Y-69125714D01*
X138586785Y-69125714D01*
X138491547Y-69173333D01*
X138443928Y-69268571D01*
X138443928Y-69792380D01*
X138110595Y-69125714D02*
X137729642Y-69125714D01*
X137967738Y-68792380D02*
X137967738Y-69649523D01*
X137920119Y-69744761D01*
X137824880Y-69792380D01*
X137729642Y-69792380D01*
X137396309Y-69792380D02*
X137396309Y-69125714D01*
X137396309Y-69316190D02*
X137348690Y-69220952D01*
X137301071Y-69173333D01*
X137205833Y-69125714D01*
X137110595Y-69125714D01*
X136634404Y-69792380D02*
X136729642Y-69744761D01*
X136777261Y-69697142D01*
X136824880Y-69601904D01*
X136824880Y-69316190D01*
X136777261Y-69220952D01*
X136729642Y-69173333D01*
X136634404Y-69125714D01*
X136491547Y-69125714D01*
X136396309Y-69173333D01*
X136348690Y-69220952D01*
X136301071Y-69316190D01*
X136301071Y-69601904D01*
X136348690Y-69697142D01*
X136396309Y-69744761D01*
X136491547Y-69792380D01*
X136634404Y-69792380D01*
X135729642Y-69792380D02*
X135824880Y-69744761D01*
X135872500Y-69649523D01*
X135872500Y-68792380D01*
X134443928Y-69792380D02*
X134539166Y-69744761D01*
X134586785Y-69697142D01*
X134634404Y-69601904D01*
X134634404Y-69316190D01*
X134586785Y-69220952D01*
X134539166Y-69173333D01*
X134443928Y-69125714D01*
X134301071Y-69125714D01*
X134205833Y-69173333D01*
X134158214Y-69220952D01*
X134110595Y-69316190D01*
X134110595Y-69601904D01*
X134158214Y-69697142D01*
X134205833Y-69744761D01*
X134301071Y-69792380D01*
X134443928Y-69792380D01*
X133824880Y-69125714D02*
X133443928Y-69125714D01*
X133682023Y-69792380D02*
X133682023Y-68935238D01*
X133634404Y-68840000D01*
X133539166Y-68792380D01*
X133443928Y-68792380D01*
X132491547Y-69125714D02*
X132110595Y-69125714D01*
X132348690Y-68792380D02*
X132348690Y-69649523D01*
X132301071Y-69744761D01*
X132205833Y-69792380D01*
X132110595Y-69792380D01*
X131777261Y-69792380D02*
X131777261Y-68792380D01*
X131348690Y-69792380D02*
X131348690Y-69268571D01*
X131396309Y-69173333D01*
X131491547Y-69125714D01*
X131634404Y-69125714D01*
X131729642Y-69173333D01*
X131777261Y-69220952D01*
X130491547Y-69744761D02*
X130586785Y-69792380D01*
X130777261Y-69792380D01*
X130872500Y-69744761D01*
X130920119Y-69649523D01*
X130920119Y-69268571D01*
X130872500Y-69173333D01*
X130777261Y-69125714D01*
X130586785Y-69125714D01*
X130491547Y-69173333D01*
X130443928Y-69268571D01*
X130443928Y-69363809D01*
X130920119Y-69459047D01*
X129396309Y-69125714D02*
X129015357Y-69125714D01*
X129253452Y-68792380D02*
X129253452Y-69649523D01*
X129205833Y-69744761D01*
X129110595Y-69792380D01*
X129015357Y-69792380D01*
X128777261Y-69125714D02*
X128586785Y-69792380D01*
X128396309Y-69316190D01*
X128205833Y-69792380D01*
X128015357Y-69125714D01*
X127491547Y-69792380D02*
X127586785Y-69744761D01*
X127634404Y-69697142D01*
X127682023Y-69601904D01*
X127682023Y-69316190D01*
X127634404Y-69220952D01*
X127586785Y-69173333D01*
X127491547Y-69125714D01*
X127348690Y-69125714D01*
X127253452Y-69173333D01*
X127205833Y-69220952D01*
X127158214Y-69316190D01*
X127158214Y-69601904D01*
X127205833Y-69697142D01*
X127253452Y-69744761D01*
X127348690Y-69792380D01*
X127491547Y-69792380D01*
X125491547Y-69792380D02*
X125967738Y-69792380D01*
X125967738Y-68792380D01*
X125158214Y-69268571D02*
X124824880Y-69268571D01*
X124682023Y-69792380D02*
X125158214Y-69792380D01*
X125158214Y-68792380D01*
X124682023Y-68792380D01*
X124253452Y-69792380D02*
X124253452Y-68792380D01*
X124015357Y-68792380D01*
X123872500Y-68840000D01*
X123777261Y-68935238D01*
X123729642Y-69030476D01*
X123682023Y-69220952D01*
X123682023Y-69363809D01*
X123729642Y-69554285D01*
X123777261Y-69649523D01*
X123872500Y-69744761D01*
X124015357Y-69792380D01*
X124253452Y-69792380D01*
X140205833Y-71402380D02*
X140205833Y-70402380D01*
X140205833Y-71354761D02*
X140301071Y-71402380D01*
X140491547Y-71402380D01*
X140586785Y-71354761D01*
X140634404Y-71307142D01*
X140682023Y-71211904D01*
X140682023Y-70926190D01*
X140634404Y-70830952D01*
X140586785Y-70783333D01*
X140491547Y-70735714D01*
X140301071Y-70735714D01*
X140205833Y-70783333D01*
X139729642Y-71402380D02*
X139729642Y-70735714D01*
X139729642Y-70926190D02*
X139682023Y-70830952D01*
X139634404Y-70783333D01*
X139539166Y-70735714D01*
X139443928Y-70735714D01*
X139110595Y-71402380D02*
X139110595Y-70735714D01*
X139110595Y-70402380D02*
X139158214Y-70450000D01*
X139110595Y-70497619D01*
X139062976Y-70450000D01*
X139110595Y-70402380D01*
X139110595Y-70497619D01*
X138729642Y-70735714D02*
X138491547Y-71402380D01*
X138253452Y-70735714D01*
X137491547Y-71354761D02*
X137586785Y-71402380D01*
X137777261Y-71402380D01*
X137872500Y-71354761D01*
X137920119Y-71259523D01*
X137920119Y-70878571D01*
X137872500Y-70783333D01*
X137777261Y-70735714D01*
X137586785Y-70735714D01*
X137491547Y-70783333D01*
X137443928Y-70878571D01*
X137443928Y-70973809D01*
X137920119Y-71069047D01*
X137015357Y-71402380D02*
X137015357Y-70735714D01*
X137015357Y-70926190D02*
X136967738Y-70830952D01*
X136920119Y-70783333D01*
X136824880Y-70735714D01*
X136729642Y-70735714D01*
X136443928Y-71354761D02*
X136348690Y-71402380D01*
X136158214Y-71402380D01*
X136062976Y-71354761D01*
X136015357Y-71259523D01*
X136015357Y-71211904D01*
X136062976Y-71116666D01*
X136158214Y-71069047D01*
X136301071Y-71069047D01*
X136396309Y-71021428D01*
X136443928Y-70926190D01*
X136443928Y-70878571D01*
X136396309Y-70783333D01*
X136301071Y-70735714D01*
X136158214Y-70735714D01*
X136062976Y-70783333D01*
X135586785Y-71307142D02*
X135539166Y-71354761D01*
X135586785Y-71402380D01*
X135634404Y-71354761D01*
X135586785Y-71307142D01*
X135586785Y-71402380D01*
X140682023Y-74574761D02*
X140539166Y-74622380D01*
X140301071Y-74622380D01*
X140205833Y-74574761D01*
X140158214Y-74527142D01*
X140110595Y-74431904D01*
X140110595Y-74336666D01*
X140158214Y-74241428D01*
X140205833Y-74193809D01*
X140301071Y-74146190D01*
X140491547Y-74098571D01*
X140586785Y-74050952D01*
X140634404Y-74003333D01*
X140682023Y-73908095D01*
X140682023Y-73812857D01*
X140634404Y-73717619D01*
X140586785Y-73670000D01*
X140491547Y-73622380D01*
X140253452Y-73622380D01*
X140110595Y-73670000D01*
X139301071Y-74574761D02*
X139396309Y-74622380D01*
X139586785Y-74622380D01*
X139682023Y-74574761D01*
X139729642Y-74479523D01*
X139729642Y-74098571D01*
X139682023Y-74003333D01*
X139586785Y-73955714D01*
X139396309Y-73955714D01*
X139301071Y-74003333D01*
X139253452Y-74098571D01*
X139253452Y-74193809D01*
X139729642Y-74289047D01*
X138967738Y-73955714D02*
X138586785Y-73955714D01*
X138824880Y-73622380D02*
X138824880Y-74479523D01*
X138777261Y-74574761D01*
X138682023Y-74622380D01*
X138586785Y-74622380D01*
X137491547Y-73955714D02*
X137491547Y-74812857D01*
X137539166Y-74908095D01*
X137634404Y-74955714D01*
X137682023Y-74955714D01*
X137491547Y-73622380D02*
X137539166Y-73670000D01*
X137491547Y-73717619D01*
X137443928Y-73670000D01*
X137491547Y-73622380D01*
X137491547Y-73717619D01*
X136586785Y-73955714D02*
X136586785Y-74622380D01*
X137015357Y-73955714D02*
X137015357Y-74479523D01*
X136967738Y-74574761D01*
X136872500Y-74622380D01*
X136729642Y-74622380D01*
X136634404Y-74574761D01*
X136586785Y-74527142D01*
X136110595Y-74622380D02*
X136110595Y-73955714D01*
X136110595Y-74050952D02*
X136062976Y-74003333D01*
X135967738Y-73955714D01*
X135824880Y-73955714D01*
X135729642Y-74003333D01*
X135682023Y-74098571D01*
X135682023Y-74622380D01*
X135682023Y-74098571D02*
X135634404Y-74003333D01*
X135539166Y-73955714D01*
X135396309Y-73955714D01*
X135301071Y-74003333D01*
X135253452Y-74098571D01*
X135253452Y-74622380D01*
X134777261Y-73955714D02*
X134777261Y-74955714D01*
X134777261Y-74003333D02*
X134682023Y-73955714D01*
X134491547Y-73955714D01*
X134396309Y-74003333D01*
X134348690Y-74050952D01*
X134301071Y-74146190D01*
X134301071Y-74431904D01*
X134348690Y-74527142D01*
X134396309Y-74574761D01*
X134491547Y-74622380D01*
X134682023Y-74622380D01*
X134777261Y-74574761D01*
X133491547Y-74574761D02*
X133586785Y-74622380D01*
X133777261Y-74622380D01*
X133872500Y-74574761D01*
X133920119Y-74479523D01*
X133920119Y-74098571D01*
X133872500Y-74003333D01*
X133777261Y-73955714D01*
X133586785Y-73955714D01*
X133491547Y-74003333D01*
X133443928Y-74098571D01*
X133443928Y-74193809D01*
X133920119Y-74289047D01*
X133015357Y-74622380D02*
X133015357Y-73955714D01*
X133015357Y-74146190D02*
X132967738Y-74050952D01*
X132920119Y-74003333D01*
X132824880Y-73955714D01*
X132729642Y-73955714D01*
X132443928Y-74574761D02*
X132348690Y-74622380D01*
X132158214Y-74622380D01*
X132062976Y-74574761D01*
X132015357Y-74479523D01*
X132015357Y-74431904D01*
X132062976Y-74336666D01*
X132158214Y-74289047D01*
X132301071Y-74289047D01*
X132396309Y-74241428D01*
X132443928Y-74146190D01*
X132443928Y-74098571D01*
X132396309Y-74003333D01*
X132301071Y-73955714D01*
X132158214Y-73955714D01*
X132062976Y-74003333D01*
X130967738Y-73955714D02*
X130586785Y-73955714D01*
X130824880Y-73622380D02*
X130824880Y-74479523D01*
X130777261Y-74574761D01*
X130682023Y-74622380D01*
X130586785Y-74622380D01*
X130110595Y-74622380D02*
X130205833Y-74574761D01*
X130253452Y-74527142D01*
X130301071Y-74431904D01*
X130301071Y-74146190D01*
X130253452Y-74050952D01*
X130205833Y-74003333D01*
X130110595Y-73955714D01*
X129967738Y-73955714D01*
X129872500Y-74003333D01*
X129824880Y-74050952D01*
X129777261Y-74146190D01*
X129777261Y-74431904D01*
X129824880Y-74527142D01*
X129872500Y-74574761D01*
X129967738Y-74622380D01*
X130110595Y-74622380D01*
X128586785Y-73622380D02*
X128586785Y-74431904D01*
X128539166Y-74527142D01*
X128491547Y-74574761D01*
X128396309Y-74622380D01*
X128205833Y-74622380D01*
X128110595Y-74574761D01*
X128062976Y-74527142D01*
X128015357Y-74431904D01*
X128015357Y-73622380D01*
X127015357Y-74622380D02*
X127586785Y-74622380D01*
X127301071Y-74622380D02*
X127301071Y-73622380D01*
X127396309Y-73765238D01*
X127491547Y-73860476D01*
X127586785Y-73908095D01*
X125824880Y-74622380D02*
X125824880Y-73622380D01*
X125586785Y-73622380D01*
X125443928Y-73670000D01*
X125348690Y-73765238D01*
X125301071Y-73860476D01*
X125253452Y-74050952D01*
X125253452Y-74193809D01*
X125301071Y-74384285D01*
X125348690Y-74479523D01*
X125443928Y-74574761D01*
X125586785Y-74622380D01*
X125824880Y-74622380D01*
X124634404Y-73622380D02*
X124443928Y-73622380D01*
X124348690Y-73670000D01*
X124253452Y-73765238D01*
X124205833Y-73955714D01*
X124205833Y-74289047D01*
X124253452Y-74479523D01*
X124348690Y-74574761D01*
X124443928Y-74622380D01*
X124634404Y-74622380D01*
X124729642Y-74574761D01*
X124824880Y-74479523D01*
X124872500Y-74289047D01*
X124872500Y-73955714D01*
X124824880Y-73765238D01*
X124729642Y-73670000D01*
X124634404Y-73622380D01*
X123777261Y-73622380D02*
X123777261Y-74431904D01*
X123729642Y-74527142D01*
X123682023Y-74574761D01*
X123586785Y-74622380D01*
X123396309Y-74622380D01*
X123301071Y-74574761D01*
X123253452Y-74527142D01*
X123205833Y-74431904D01*
X123205833Y-73622380D01*
X122872500Y-73622380D02*
X122301071Y-73622380D01*
X122586785Y-74622380D02*
X122586785Y-73622380D01*
X140205833Y-76232380D02*
X140205833Y-75708571D01*
X140253452Y-75613333D01*
X140348690Y-75565714D01*
X140539166Y-75565714D01*
X140634404Y-75613333D01*
X140205833Y-76184761D02*
X140301071Y-76232380D01*
X140539166Y-76232380D01*
X140634404Y-76184761D01*
X140682023Y-76089523D01*
X140682023Y-75994285D01*
X140634404Y-75899047D01*
X140539166Y-75851428D01*
X140301071Y-75851428D01*
X140205833Y-75803809D01*
X139729642Y-75565714D02*
X139729642Y-76232380D01*
X139729642Y-75660952D02*
X139682023Y-75613333D01*
X139586785Y-75565714D01*
X139443928Y-75565714D01*
X139348690Y-75613333D01*
X139301071Y-75708571D01*
X139301071Y-76232380D01*
X138396309Y-76232380D02*
X138396309Y-75232380D01*
X138396309Y-76184761D02*
X138491547Y-76232380D01*
X138682023Y-76232380D01*
X138777261Y-76184761D01*
X138824880Y-76137142D01*
X138872500Y-76041904D01*
X138872500Y-75756190D01*
X138824880Y-75660952D01*
X138777261Y-75613333D01*
X138682023Y-75565714D01*
X138491547Y-75565714D01*
X138396309Y-75613333D01*
X136586785Y-76137142D02*
X136634404Y-76184761D01*
X136777261Y-76232380D01*
X136872500Y-76232380D01*
X137015357Y-76184761D01*
X137110595Y-76089523D01*
X137158214Y-75994285D01*
X137205833Y-75803809D01*
X137205833Y-75660952D01*
X137158214Y-75470476D01*
X137110595Y-75375238D01*
X137015357Y-75280000D01*
X136872500Y-75232380D01*
X136777261Y-75232380D01*
X136634404Y-75280000D01*
X136586785Y-75327619D01*
X136205833Y-76184761D02*
X136062976Y-76232380D01*
X135824880Y-76232380D01*
X135729642Y-76184761D01*
X135682023Y-76137142D01*
X135634404Y-76041904D01*
X135634404Y-75946666D01*
X135682023Y-75851428D01*
X135729642Y-75803809D01*
X135824880Y-75756190D01*
X136015357Y-75708571D01*
X136110595Y-75660952D01*
X136158214Y-75613333D01*
X136205833Y-75518095D01*
X136205833Y-75422857D01*
X136158214Y-75327619D01*
X136110595Y-75280000D01*
X136015357Y-75232380D01*
X135777261Y-75232380D01*
X135634404Y-75280000D01*
X135015357Y-75232380D02*
X134920119Y-75232380D01*
X134824880Y-75280000D01*
X134777261Y-75327619D01*
X134729642Y-75422857D01*
X134682023Y-75613333D01*
X134682023Y-75851428D01*
X134729642Y-76041904D01*
X134777261Y-76137142D01*
X134824880Y-76184761D01*
X134920119Y-76232380D01*
X135015357Y-76232380D01*
X135110595Y-76184761D01*
X135158214Y-76137142D01*
X135205833Y-76041904D01*
X135253452Y-75851428D01*
X135253452Y-75613333D01*
X135205833Y-75422857D01*
X135158214Y-75327619D01*
X135110595Y-75280000D01*
X135015357Y-75232380D01*
X133634404Y-75565714D02*
X133253452Y-75565714D01*
X133491547Y-76232380D02*
X133491547Y-75375238D01*
X133443928Y-75280000D01*
X133348690Y-75232380D01*
X133253452Y-75232380D01*
X132777261Y-76232380D02*
X132872500Y-76184761D01*
X132920119Y-76137142D01*
X132967738Y-76041904D01*
X132967738Y-75756190D01*
X132920119Y-75660952D01*
X132872500Y-75613333D01*
X132777261Y-75565714D01*
X132634404Y-75565714D01*
X132539166Y-75613333D01*
X132491547Y-75660952D01*
X132443928Y-75756190D01*
X132443928Y-76041904D01*
X132491547Y-76137142D01*
X132539166Y-76184761D01*
X132634404Y-76232380D01*
X132777261Y-76232380D01*
X132015357Y-76232380D02*
X132015357Y-75565714D01*
X132015357Y-75756190D02*
X131967738Y-75660952D01*
X131920119Y-75613333D01*
X131824880Y-75565714D01*
X131729642Y-75565714D01*
X130205833Y-76232380D02*
X130205833Y-75232380D01*
X130205833Y-76184761D02*
X130301071Y-76232380D01*
X130491547Y-76232380D01*
X130586785Y-76184761D01*
X130634404Y-76137142D01*
X130682023Y-76041904D01*
X130682023Y-75756190D01*
X130634404Y-75660952D01*
X130586785Y-75613333D01*
X130491547Y-75565714D01*
X130301071Y-75565714D01*
X130205833Y-75613333D01*
X129301071Y-76232380D02*
X129301071Y-75708571D01*
X129348690Y-75613333D01*
X129443928Y-75565714D01*
X129634404Y-75565714D01*
X129729642Y-75613333D01*
X129301071Y-76184761D02*
X129396309Y-76232380D01*
X129634404Y-76232380D01*
X129729642Y-76184761D01*
X129777261Y-76089523D01*
X129777261Y-75994285D01*
X129729642Y-75899047D01*
X129634404Y-75851428D01*
X129396309Y-75851428D01*
X129301071Y-75803809D01*
X128824880Y-76232380D02*
X128824880Y-75565714D01*
X128824880Y-75232380D02*
X128872500Y-75280000D01*
X128824880Y-75327619D01*
X128777261Y-75280000D01*
X128824880Y-75232380D01*
X128824880Y-75327619D01*
X128396309Y-76184761D02*
X128301071Y-76232380D01*
X128110595Y-76232380D01*
X128015357Y-76184761D01*
X127967738Y-76089523D01*
X127967738Y-76041904D01*
X128015357Y-75946666D01*
X128110595Y-75899047D01*
X128253452Y-75899047D01*
X128348690Y-75851428D01*
X128396309Y-75756190D01*
X128396309Y-75708571D01*
X128348690Y-75613333D01*
X128253452Y-75565714D01*
X128110595Y-75565714D01*
X128015357Y-75613333D01*
X127634404Y-75565714D02*
X127396309Y-76232380D01*
X127158214Y-75565714D02*
X127396309Y-76232380D01*
X127491547Y-76470476D01*
X127539166Y-76518095D01*
X127634404Y-76565714D01*
X140205833Y-77794761D02*
X140301071Y-77842380D01*
X140491547Y-77842380D01*
X140586785Y-77794761D01*
X140634404Y-77747142D01*
X140682023Y-77651904D01*
X140682023Y-77366190D01*
X140634404Y-77270952D01*
X140586785Y-77223333D01*
X140491547Y-77175714D01*
X140301071Y-77175714D01*
X140205833Y-77223333D01*
X139777261Y-77842380D02*
X139777261Y-76842380D01*
X139348690Y-77842380D02*
X139348690Y-77318571D01*
X139396309Y-77223333D01*
X139491547Y-77175714D01*
X139634404Y-77175714D01*
X139729642Y-77223333D01*
X139777261Y-77270952D01*
X138443928Y-77842380D02*
X138443928Y-77318571D01*
X138491547Y-77223333D01*
X138586785Y-77175714D01*
X138777261Y-77175714D01*
X138872500Y-77223333D01*
X138443928Y-77794761D02*
X138539166Y-77842380D01*
X138777261Y-77842380D01*
X138872500Y-77794761D01*
X138920119Y-77699523D01*
X138920119Y-77604285D01*
X138872500Y-77509047D01*
X138777261Y-77461428D01*
X138539166Y-77461428D01*
X138443928Y-77413809D01*
X137967738Y-77842380D02*
X137967738Y-77175714D01*
X137967738Y-76842380D02*
X138015357Y-76890000D01*
X137967738Y-76937619D01*
X137920119Y-76890000D01*
X137967738Y-76842380D01*
X137967738Y-76937619D01*
X137491547Y-77175714D02*
X137491547Y-77842380D01*
X137491547Y-77270952D02*
X137443928Y-77223333D01*
X137348690Y-77175714D01*
X137205833Y-77175714D01*
X137110595Y-77223333D01*
X137062976Y-77318571D01*
X137062976Y-77842380D01*
X136205833Y-77794761D02*
X136301071Y-77842380D01*
X136491547Y-77842380D01*
X136586785Y-77794761D01*
X136634404Y-77699523D01*
X136634404Y-77318571D01*
X136586785Y-77223333D01*
X136491547Y-77175714D01*
X136301071Y-77175714D01*
X136205833Y-77223333D01*
X136158214Y-77318571D01*
X136158214Y-77413809D01*
X136634404Y-77509047D01*
X135301071Y-77842380D02*
X135301071Y-76842380D01*
X135301071Y-77794761D02*
X135396309Y-77842380D01*
X135586785Y-77842380D01*
X135682023Y-77794761D01*
X135729642Y-77747142D01*
X135777261Y-77651904D01*
X135777261Y-77366190D01*
X135729642Y-77270952D01*
X135682023Y-77223333D01*
X135586785Y-77175714D01*
X135396309Y-77175714D01*
X135301071Y-77223333D01*
X133920119Y-77842380D02*
X134015357Y-77794761D01*
X134062976Y-77747142D01*
X134110595Y-77651904D01*
X134110595Y-77366190D01*
X134062976Y-77270952D01*
X134015357Y-77223333D01*
X133920119Y-77175714D01*
X133777261Y-77175714D01*
X133682023Y-77223333D01*
X133634404Y-77270952D01*
X133586785Y-77366190D01*
X133586785Y-77651904D01*
X133634404Y-77747142D01*
X133682023Y-77794761D01*
X133777261Y-77842380D01*
X133920119Y-77842380D01*
X133158214Y-77175714D02*
X133158214Y-78175714D01*
X133158214Y-77223333D02*
X133062976Y-77175714D01*
X132872500Y-77175714D01*
X132777261Y-77223333D01*
X132729642Y-77270952D01*
X132682023Y-77366190D01*
X132682023Y-77651904D01*
X132729642Y-77747142D01*
X132777261Y-77794761D01*
X132872500Y-77842380D01*
X133062976Y-77842380D01*
X133158214Y-77794761D01*
X131872500Y-77794761D02*
X131967738Y-77842380D01*
X132158214Y-77842380D01*
X132253452Y-77794761D01*
X132301071Y-77699523D01*
X132301071Y-77318571D01*
X132253452Y-77223333D01*
X132158214Y-77175714D01*
X131967738Y-77175714D01*
X131872500Y-77223333D01*
X131824880Y-77318571D01*
X131824880Y-77413809D01*
X132301071Y-77509047D01*
X131396309Y-77842380D02*
X131396309Y-77175714D01*
X131396309Y-77366190D02*
X131348690Y-77270952D01*
X131301071Y-77223333D01*
X131205833Y-77175714D01*
X131110595Y-77175714D01*
X130348690Y-77842380D02*
X130348690Y-77318571D01*
X130396309Y-77223333D01*
X130491547Y-77175714D01*
X130682023Y-77175714D01*
X130777261Y-77223333D01*
X130348690Y-77794761D02*
X130443928Y-77842380D01*
X130682023Y-77842380D01*
X130777261Y-77794761D01*
X130824880Y-77699523D01*
X130824880Y-77604285D01*
X130777261Y-77509047D01*
X130682023Y-77461428D01*
X130443928Y-77461428D01*
X130348690Y-77413809D01*
X130015357Y-77175714D02*
X129634404Y-77175714D01*
X129872500Y-76842380D02*
X129872500Y-77699523D01*
X129824880Y-77794761D01*
X129729642Y-77842380D01*
X129634404Y-77842380D01*
X129301071Y-77842380D02*
X129301071Y-77175714D01*
X129301071Y-76842380D02*
X129348690Y-76890000D01*
X129301071Y-76937619D01*
X129253452Y-76890000D01*
X129301071Y-76842380D01*
X129301071Y-76937619D01*
X128682023Y-77842380D02*
X128777261Y-77794761D01*
X128824880Y-77747142D01*
X128872500Y-77651904D01*
X128872500Y-77366190D01*
X128824880Y-77270952D01*
X128777261Y-77223333D01*
X128682023Y-77175714D01*
X128539166Y-77175714D01*
X128443928Y-77223333D01*
X128396309Y-77270952D01*
X128348690Y-77366190D01*
X128348690Y-77651904D01*
X128396309Y-77747142D01*
X128443928Y-77794761D01*
X128539166Y-77842380D01*
X128682023Y-77842380D01*
X127920119Y-77175714D02*
X127920119Y-77842380D01*
X127920119Y-77270952D02*
X127872500Y-77223333D01*
X127777261Y-77175714D01*
X127634404Y-77175714D01*
X127539166Y-77223333D01*
X127491547Y-77318571D01*
X127491547Y-77842380D01*
X127015357Y-77747142D02*
X126967738Y-77794761D01*
X127015357Y-77842380D01*
X127062976Y-77794761D01*
X127015357Y-77747142D01*
X127015357Y-77842380D01*
%LPC*%
D11*
X144780000Y-83820000D03*
X142240000Y-83820000D03*
X144780000Y-81280000D03*
X142240000Y-81280000D03*
X144780000Y-78740000D03*
X142240000Y-78740000D03*
X144780000Y-76200000D03*
X142240000Y-76200000D03*
X144780000Y-73660000D03*
X142240000Y-73660000D03*
X144780000Y-71120000D03*
X142240000Y-71120000D03*
X144780000Y-68580000D03*
X142240000Y-68580000D03*
X144780000Y-66040000D03*
X142240000Y-66040000D03*
X144780000Y-63500000D03*
X142240000Y-63500000D03*
X144780000Y-60960000D03*
X142240000Y-60960000D03*
X144780000Y-58420000D03*
X142240000Y-58420000D03*
X144780000Y-55880000D03*
X142240000Y-55880000D03*
X144780000Y-53340000D03*
X142240000Y-53340000D03*
X144780000Y-50800000D03*
X142240000Y-50800000D03*
X144780000Y-48260000D03*
X142240000Y-48260000D03*
X144780000Y-45720000D03*
X142240000Y-45720000D03*
X144780000Y-43180000D03*
X142240000Y-43180000D03*
X144780000Y-40640000D03*
X142240000Y-40640000D03*
X144780000Y-38100000D03*
X142240000Y-38100000D03*
X144780000Y-35560000D03*
D12*
X142240000Y-35560000D03*
D13*
X109220001Y-87630000D03*
X153670001Y-87630000D03*
X109220000Y-30480000D03*
D12*
X109220000Y-40640000D03*
D11*
X109220000Y-43180000D03*
X109220000Y-45720000D03*
X109220000Y-48260000D03*
X109220000Y-50800000D03*
X109220000Y-53340000D03*
X109220000Y-55880000D03*
D12*
X109220000Y-63500000D03*
D11*
X109220000Y-66040000D03*
X109220000Y-68580000D03*
D12*
X109220000Y-73660000D03*
D11*
X109220000Y-76200000D03*
X109220000Y-78740000D03*
D13*
X153670000Y-30480000D03*
M02*
