G04 #@! TF.GenerationSoftware,KiCad,Pcbnew,6.0.5-2.fc36*
G04 #@! TF.CreationDate,2022-06-02T11:14:52-04:00*
G04 #@! TF.ProjectId,led_breakout,6c65645f-6272-4656-916b-6f75742e6b69,0*
G04 #@! TF.SameCoordinates,Original*
G04 #@! TF.FileFunction,Paste,Top*
G04 #@! TF.FilePolarity,Positive*
%FSLAX46Y46*%
G04 Gerber Fmt 4.6, Leading zero omitted, Abs format (unit mm)*
G04 Created by KiCad (PCBNEW 6.0.5-2.fc36) date 2022-06-02 11:14:52*
%MOMM*%
%LPD*%
G01*
G04 APERTURE LIST*
G04 Aperture macros list*
%AMRoundRect*
0 Rectangle with rounded corners*
0 $1 Rounding radius*
0 $2 $3 $4 $5 $6 $7 $8 $9 X,Y pos of 4 corners*
0 Add a 4 corners polygon primitive as box body*
4,1,4,$2,$3,$4,$5,$6,$7,$8,$9,$2,$3,0*
0 Add four circle primitives for the rounded corners*
1,1,$1+$1,$2,$3*
1,1,$1+$1,$4,$5*
1,1,$1+$1,$6,$7*
1,1,$1+$1,$8,$9*
0 Add four rect primitives between the rounded corners*
20,1,$1+$1,$2,$3,$4,$5,0*
20,1,$1+$1,$4,$5,$6,$7,0*
20,1,$1+$1,$6,$7,$8,$9,0*
20,1,$1+$1,$8,$9,$2,$3,0*%
G04 Aperture macros list end*
%ADD10RoundRect,0.250000X0.250000X0.475000X-0.250000X0.475000X-0.250000X-0.475000X0.250000X-0.475000X0*%
%ADD11RoundRect,0.250000X-0.262500X-0.450000X0.262500X-0.450000X0.262500X0.450000X-0.262500X0.450000X0*%
%ADD12RoundRect,0.250000X-0.250000X-0.475000X0.250000X-0.475000X0.250000X0.475000X-0.250000X0.475000X0*%
%ADD13RoundRect,0.150000X-0.875000X-0.150000X0.875000X-0.150000X0.875000X0.150000X-0.875000X0.150000X0*%
%ADD14RoundRect,0.250000X-0.450000X0.262500X-0.450000X-0.262500X0.450000X-0.262500X0.450000X0.262500X0*%
%ADD15RoundRect,0.243750X-0.456250X0.243750X-0.456250X-0.243750X0.456250X-0.243750X0.456250X0.243750X0*%
G04 APERTURE END LIST*
D10*
X128204000Y-40386000D03*
X126304000Y-40386000D03*
D11*
X133754500Y-41910000D03*
X131929500Y-41910000D03*
D10*
X125410000Y-62992000D03*
X123510000Y-62992000D03*
D12*
X120716000Y-40386000D03*
X122616000Y-40386000D03*
D13*
X119810000Y-43815000D03*
X119810000Y-45085000D03*
X119810000Y-46355000D03*
X119810000Y-47625000D03*
X119810000Y-48895000D03*
X119810000Y-50165000D03*
X119810000Y-51435000D03*
X119810000Y-52705000D03*
X119810000Y-53975000D03*
X119810000Y-55245000D03*
X119810000Y-56515000D03*
X119810000Y-57785000D03*
X129110000Y-57785000D03*
X129110000Y-56515000D03*
X129110000Y-55245000D03*
X129110000Y-53975000D03*
X129110000Y-52705000D03*
X129110000Y-51435000D03*
X129110000Y-50165000D03*
X129110000Y-48895000D03*
X129110000Y-47625000D03*
X129110000Y-46355000D03*
X129110000Y-45085000D03*
X129110000Y-43815000D03*
X119810000Y-66675000D03*
X119810000Y-67945000D03*
X119810000Y-69215000D03*
X119810000Y-70485000D03*
X119810000Y-71755000D03*
X119810000Y-73025000D03*
X119810000Y-74295000D03*
X119810000Y-75565000D03*
X119810000Y-76835000D03*
X119810000Y-78105000D03*
X119810000Y-79375000D03*
X119810000Y-80645000D03*
X129110000Y-80645000D03*
X129110000Y-79375000D03*
X129110000Y-78105000D03*
X129110000Y-76835000D03*
X129110000Y-75565000D03*
X129110000Y-74295000D03*
X129110000Y-73025000D03*
X129110000Y-71755000D03*
X129110000Y-70485000D03*
X129110000Y-69215000D03*
X129110000Y-67945000D03*
X129110000Y-66675000D03*
D14*
X118745000Y-34647500D03*
X118745000Y-36472500D03*
D15*
X115570000Y-34622500D03*
X115570000Y-36497500D03*
D11*
X129389500Y-63754000D03*
X131214500Y-63754000D03*
M02*
