%FSLAX45Y45*%
G04 Gerber Fmt 4.5, Leading zero omitted, Abs format (unit mm)*
G04 Created by KiCad (PCBNEW 6.0.5-2.fc36) date 2022-06-02 11:15:03*
%MOMM*%
%LPD*%
G01*
G04 APERTURE LIST*
%TA.AperFunction,Profile*%
%ADD10C,0.100000*%
%TD*%
%ADD11C,0.200000*%
G04 APERTURE END LIST*
D10*
X15748000Y-3048000D02*
G75*
G03*
X15367000Y-2667000I-381000J0D01*
G01*
X10922000Y-9144000D02*
X15367000Y-9144000D01*
X10922000Y-2667000D02*
X15367000Y-2667000D01*
X15367000Y-9144000D02*
G75*
G03*
X15748000Y-8763000I0J381000D01*
G01*
X15748000Y-8763000D02*
X15748000Y-3048000D01*
X10541000Y-8763000D02*
G75*
G03*
X10922000Y-9144000I381000J0D01*
G01*
X10541000Y-8763000D02*
X10541000Y-3048000D01*
X10922000Y-2667000D02*
G75*
G03*
X10541000Y-3048000I0J-381000D01*
G01*
D11*
X10793619Y-9459476D02*
X10793619Y-9259476D01*
X10841238Y-9259476D01*
X10869809Y-9269000D01*
X10888857Y-9288048D01*
X10898381Y-9307095D01*
X10907905Y-9345191D01*
X10907905Y-9373762D01*
X10898381Y-9411857D01*
X10888857Y-9430905D01*
X10869809Y-9449952D01*
X10841238Y-9459476D01*
X10793619Y-9459476D01*
X10993619Y-9459476D02*
X10993619Y-9326143D01*
X10993619Y-9364238D02*
X11003143Y-9345191D01*
X11012666Y-9335667D01*
X11031714Y-9326143D01*
X11050762Y-9326143D01*
X11117428Y-9459476D02*
X11117428Y-9326143D01*
X11117428Y-9259476D02*
X11107905Y-9269000D01*
X11117428Y-9278524D01*
X11126952Y-9269000D01*
X11117428Y-9259476D01*
X11117428Y-9278524D01*
X11241238Y-9459476D02*
X11222190Y-9449952D01*
X11212666Y-9430905D01*
X11212666Y-9259476D01*
X11346000Y-9459476D02*
X11326952Y-9449952D01*
X11317428Y-9430905D01*
X11317428Y-9259476D01*
X11574571Y-9459476D02*
X11574571Y-9259476D01*
X11641238Y-9402333D01*
X11707904Y-9259476D01*
X11707904Y-9459476D01*
X11888857Y-9459476D02*
X11888857Y-9354714D01*
X11879333Y-9335667D01*
X11860285Y-9326143D01*
X11822190Y-9326143D01*
X11803143Y-9335667D01*
X11888857Y-9449952D02*
X11869809Y-9459476D01*
X11822190Y-9459476D01*
X11803143Y-9449952D01*
X11793619Y-9430905D01*
X11793619Y-9411857D01*
X11803143Y-9392810D01*
X11822190Y-9383286D01*
X11869809Y-9383286D01*
X11888857Y-9373762D01*
X11984095Y-9326143D02*
X11984095Y-9526143D01*
X11984095Y-9335667D02*
X12003143Y-9326143D01*
X12041238Y-9326143D01*
X12060285Y-9335667D01*
X12069809Y-9345191D01*
X12079333Y-9364238D01*
X12079333Y-9421381D01*
X12069809Y-9440429D01*
X12060285Y-9449952D01*
X12041238Y-9459476D01*
X12003143Y-9459476D01*
X11984095Y-9449952D01*
X12165047Y-9440429D02*
X12174571Y-9449952D01*
X12165047Y-9459476D01*
X12155524Y-9449952D01*
X12165047Y-9440429D01*
X12165047Y-9459476D01*
X12165047Y-9335667D02*
X12174571Y-9345191D01*
X12165047Y-9354714D01*
X12155524Y-9345191D01*
X12165047Y-9335667D01*
X12165047Y-9354714D01*
M02*
