M48
; DRILL file {KiCad 6.0.5-2.fc36} date Thu 02 Jun 2022 11:15:02 AM EDT
; FORMAT={-:-/ absolute / metric / decimal}
; #@! TF.CreationDate,2022-06-02T11:15:02-04:00
; #@! TF.GenerationSoftware,Kicad,Pcbnew,6.0.5-2.fc36
; #@! TF.FileFunction,Plated,1,2,PTH
FMAT,2
METRIC
; #@! TA.AperFunction,Plated,PTH,ViaDrill
T1C0.400
; #@! TA.AperFunction,Plated,PTH,ViaDrill
T2C0.500
; #@! TA.AperFunction,Plated,PTH,ComponentDrill
T3C1.000
; #@! TA.AperFunction,Plated,PTH,ComponentDrill
T4C3.200
%
G90
G05
T1
X131.064Y-79.502
X131.064Y-80.772
X131.064Y-82.042
X131.064Y-85.111
X131.09Y-84.112
X131.115Y-83.077
T2
X117.348Y-66.294
X117.602Y-41.91
X119.888Y-41.822
X120.675Y-36.474
X121.158Y-60.706
X121.666Y-71.755
X121.666Y-73.025
X121.666Y-74.295
X121.666Y-75.565
X121.666Y-76.835
X121.666Y-78.105
X121.666Y-79.375
X121.666Y-80.645
X121.793Y-48.641
X121.793Y-50.038
X121.793Y-51.435
X121.793Y-52.705
X121.793Y-53.975
X121.793Y-55.245
X121.793Y-56.515
X121.793Y-57.785
X122.165Y-42.34
X122.936Y-64.77
X124.714Y-60.706
X127.0Y-44.958
X132.08Y-46.736
X132.08Y-48.26
X132.08Y-49.784
X132.08Y-51.308
X132.08Y-52.832
X132.08Y-54.356
X132.08Y-55.88
X132.08Y-57.404
X132.588Y-64.897
X133.756Y-40.107
T3
X109.22Y-40.64
X109.22Y-43.18
X109.22Y-45.72
X109.22Y-48.26
X109.22Y-50.8
X109.22Y-53.34
X109.22Y-55.88
X109.22Y-63.5
X109.22Y-66.04
X109.22Y-68.58
X109.22Y-73.66
X109.22Y-76.2
X109.22Y-78.74
X142.24Y-35.56
X142.24Y-38.1
X142.24Y-40.64
X142.24Y-43.18
X142.24Y-45.72
X142.24Y-48.26
X142.24Y-50.8
X142.24Y-53.34
X142.24Y-55.88
X142.24Y-58.42
X142.24Y-60.96
X142.24Y-63.5
X142.24Y-66.04
X142.24Y-68.58
X142.24Y-71.12
X142.24Y-73.66
X142.24Y-76.2
X142.24Y-78.74
X142.24Y-81.28
X142.24Y-83.82
X144.78Y-35.56
X144.78Y-38.1
X144.78Y-40.64
X144.78Y-43.18
X144.78Y-45.72
X144.78Y-48.26
X144.78Y-50.8
X144.78Y-53.34
X144.78Y-55.88
X144.78Y-58.42
X144.78Y-60.96
X144.78Y-63.5
X144.78Y-66.04
X144.78Y-68.58
X144.78Y-71.12
X144.78Y-73.66
X144.78Y-76.2
X144.78Y-78.74
X144.78Y-81.28
X144.78Y-83.82
T4
X109.22Y-30.48
X109.22Y-87.63
X153.67Y-30.48
X153.67Y-87.63
T0
M30
