G04 #@! TF.GenerationSoftware,KiCad,Pcbnew,6.0.5-2.fc36*
G04 #@! TF.CreationDate,2022-06-02T11:14:52-04:00*
G04 #@! TF.ProjectId,led_breakout,6c65645f-6272-4656-916b-6f75742e6b69,0*
G04 #@! TF.SameCoordinates,Original*
G04 #@! TF.FileFunction,Soldermask,Bot*
G04 #@! TF.FilePolarity,Negative*
%FSLAX46Y46*%
G04 Gerber Fmt 4.6, Leading zero omitted, Abs format (unit mm)*
G04 Created by KiCad (PCBNEW 6.0.5-2.fc36) date 2022-06-02 11:14:52*
%MOMM*%
%LPD*%
G01*
G04 APERTURE LIST*
%ADD10O,1.700000X1.700000*%
%ADD11R,1.700000X1.700000*%
%ADD12C,5.600000*%
G04 APERTURE END LIST*
D10*
X144780000Y-83820000D03*
X142240000Y-83820000D03*
X144780000Y-81280000D03*
X142240000Y-81280000D03*
X144780000Y-78740000D03*
X142240000Y-78740000D03*
X144780000Y-76200000D03*
X142240000Y-76200000D03*
X144780000Y-73660000D03*
X142240000Y-73660000D03*
X144780000Y-71120000D03*
X142240000Y-71120000D03*
X144780000Y-68580000D03*
X142240000Y-68580000D03*
X144780000Y-66040000D03*
X142240000Y-66040000D03*
X144780000Y-63500000D03*
X142240000Y-63500000D03*
X144780000Y-60960000D03*
X142240000Y-60960000D03*
X144780000Y-58420000D03*
X142240000Y-58420000D03*
X144780000Y-55880000D03*
X142240000Y-55880000D03*
X144780000Y-53340000D03*
X142240000Y-53340000D03*
X144780000Y-50800000D03*
X142240000Y-50800000D03*
X144780000Y-48260000D03*
X142240000Y-48260000D03*
X144780000Y-45720000D03*
X142240000Y-45720000D03*
X144780000Y-43180000D03*
X142240000Y-43180000D03*
X144780000Y-40640000D03*
X142240000Y-40640000D03*
X144780000Y-38100000D03*
X142240000Y-38100000D03*
X144780000Y-35560000D03*
D11*
X142240000Y-35560000D03*
D12*
X109220001Y-87630000D03*
X153670001Y-87630000D03*
X109220000Y-30480000D03*
D11*
X109220000Y-40640000D03*
D10*
X109220000Y-43180000D03*
X109220000Y-45720000D03*
X109220000Y-48260000D03*
X109220000Y-50800000D03*
X109220000Y-53340000D03*
X109220000Y-55880000D03*
D11*
X109220000Y-63500000D03*
D10*
X109220000Y-66040000D03*
X109220000Y-68580000D03*
D11*
X109220000Y-73660000D03*
D10*
X109220000Y-76200000D03*
X109220000Y-78740000D03*
D12*
X153670000Y-30480000D03*
M02*
