  0
SECTION
  2
HEADER
  9
$ANGBASE
  50
0.0
  9
$ANGDIR
  70
1
  9
$MEASUREMENT
  70
1
  0
ENDSEC
  0
SECTION
  2
TABLES
  0
TABLE
  2
LTYPE
  70
4
  0
LTYPE
  5
40F
  2
CONTINUOUS
  70
0
  3
Solid line
  72
65
  73
0
  40
0.0
  0
LTYPE
  5
410
  2
DASHDOT
 70
0
  3
Dash Dot ____ _ ____ _
 72
65
 73
4
 40
2.0
 49
1.25
 49
-0.25
 49
0.25
 49
-0.25
  0
LTYPE
  5
411
  2
DASHED
 70
0
  3
Dashed __ __ __ __ __
 72
65
 73
2
 40
0.75
 49
0.5
 49
-0.25
  0
LTYPE
  5
43B
  2
DOTTED
 70
0
  3
Dotted .  .  .  .
 72
65
 73
2
 40
0.2
 49
0.0
 49
-0.2
  0
ENDTAB
  0
TABLE
  2
STYLE
  70
4
  0
STYLE
  2
KICAD
  70
0
  40
0
  41
1
  42
1
  50
0
  71
0
  3
isocp.shx
  0
STYLE
  2
KICADB
  70
0
  40
0
  41
1
  42
1
  50
0
  71
0
  3
isocp.shx
  0
STYLE
  2
KICADI
  70
0
  40
0
  41
1
  42
1
  50
15
  71
0
  3
isocp.shx
  0
STYLE
  2
KICADBI
  70
0
  40
0
  41
1
  42
1
  50
15
  71
0
  3
isocp.shx
  0
ENDTAB
  0
TABLE
  2
LAYER
  70
1
  0
LAYER
  2
BLACK
  70
0
  62
7
  6
CONTINUOUS
  0
ENDTAB
  0
ENDSEC
  0
SECTION
  2
ENTITIES
0
LINE
8
BLACK
6
CONTINUOUS
10
139.905
20
-133.098
11
140.225
21
-133.14
0
LINE
8
BLACK
6
CONTINUOUS
10
140.225
20
-133.14
11
140.537
21
-133.218
0
LINE
8
BLACK
6
CONTINUOUS
10
140.537
20
-133.218
11
140.839
21
-133.332
0
LINE
8
BLACK
6
CONTINUOUS
10
140.839
20
-133.332
11
141.125
21
-133.48
0
LINE
8
BLACK
6
CONTINUOUS
10
141.125
20
-133.48
11
141.393
21
-133.66
0
LINE
8
BLACK
6
CONTINUOUS
10
141.393
20
-133.66
11
141.638
21
-133.869
0
LINE
8
BLACK
6
CONTINUOUS
10
141.638
20
-133.869
11
141.857
21
-134.105
0
LINE
8
BLACK
6
CONTINUOUS
10
141.857
20
-134.105
11
142.048
21
-134.365
0
LINE
8
BLACK
6
CONTINUOUS
10
142.048
20
-134.365
11
142.208
21
-134.645
0
LINE
8
BLACK
6
CONTINUOUS
10
142.208
20
-134.645
11
142.334
21
-134.942
0
LINE
8
BLACK
6
CONTINUOUS
10
142.334
20
-134.942
11
142.426
21
-135.251
0
LINE
8
BLACK
6
CONTINUOUS
10
142.426
20
-135.251
11
142.481
21
-135.568
0
LINE
8
BLACK
6
CONTINUOUS
10
142.481
20
-135.568
11
142.5
21
-135.89
0
LINE
8
BLACK
6
CONTINUOUS
10
142.5
20
-135.89
11
142.494
21
-136.066
0
LINE
8
BLACK
6
CONTINUOUS
10
142.494
20
-136.066
11
142.456
21
-136.386
0
LINE
8
BLACK
6
CONTINUOUS
10
142.456
20
-136.386
11
142.38
21
-136.699
0
LINE
8
BLACK
6
CONTINUOUS
10
142.38
20
-136.699
11
142.27
21
-137.002
0
LINE
8
BLACK
6
CONTINUOUS
10
142.27
20
-137.002
11
142.125
21
-137.29
0
LINE
8
BLACK
6
CONTINUOUS
10
142.125
20
-137.29
11
141.948
21
-137.559
0
LINE
8
BLACK
6
CONTINUOUS
10
141.948
20
-137.559
11
141.741
21
-137.807
0
LINE
8
BLACK
6
CONTINUOUS
10
141.741
20
-137.807
11
141.507
21
-138.029
0
LINE
8
BLACK
6
CONTINUOUS
10
141.507
20
-138.029
11
141.249
21
-138.222
0
LINE
8
BLACK
6
CONTINUOUS
10
141.249
20
-138.222
11
140.971
21
-138.385
0
LINE
8
BLACK
6
CONTINUOUS
10
140.971
20
-138.385
11
140.676
21
-138.514
0
LINE
8
BLACK
6
CONTINUOUS
10
140.676
20
-138.514
11
140.368
21
-138.609
0
LINE
8
BLACK
6
CONTINUOUS
10
140.368
20
-138.609
11
140.051
21
-138.668
0
LINE
8
BLACK
6
CONTINUOUS
10
140.051
20
-138.668
11
139.729
21
-138.69
0
LINE
8
BLACK
6
CONTINUOUS
10
139.729
20
-138.69
11
139.407
21
-138.675
0
LINE
8
BLACK
6
CONTINUOUS
10
139.407
20
-138.675
11
139.089
21
-138.623
0
LINE
8
BLACK
6
CONTINUOUS
10
139.089
20
-138.623
11
138.779
21
-138.534
0
LINE
8
BLACK
6
CONTINUOUS
10
138.779
20
-138.534
11
138.481
21
-138.411
0
LINE
8
BLACK
6
CONTINUOUS
10
138.481
20
-138.411
11
138.2
21
-138.254
0
LINE
8
BLACK
6
CONTINUOUS
10
138.2
20
-138.254
11
137.938
21
-138.066
0
LINE
8
BLACK
6
CONTINUOUS
10
137.938
20
-138.066
11
137.699
21
-137.849
0
LINE
8
BLACK
6
CONTINUOUS
10
137.699
20
-137.849
11
137.488
21
-137.606
0
LINE
8
BLACK
6
CONTINUOUS
10
137.488
20
-137.606
11
137.305
21
-137.34
0
LINE
8
BLACK
6
CONTINUOUS
10
137.305
20
-137.34
11
137.154
21
-137.056
0
LINE
8
BLACK
6
CONTINUOUS
10
137.154
20
-137.056
11
137.037
21
-136.755
0
LINE
8
BLACK
6
CONTINUOUS
10
137.037
20
-136.755
11
136.955
21
-136.443
0
LINE
8
BLACK
6
CONTINUOUS
10
136.955
20
-136.443
11
136.91
21
-136.124
0
LINE
8
BLACK
6
CONTINUOUS
10
136.91
20
-136.124
11
136.901
21
-135.802
0
LINE
8
BLACK
6
CONTINUOUS
10
136.901
20
-135.802
11
136.93
21
-135.481
0
LINE
8
BLACK
6
CONTINUOUS
10
136.93
20
-135.481
11
136.995
21
-135.165
0
LINE
8
BLACK
6
CONTINUOUS
10
136.995
20
-135.165
11
137.097
21
-134.859
0
LINE
8
BLACK
6
CONTINUOUS
10
137.097
20
-134.859
11
137.232
21
-134.567
0
LINE
8
BLACK
6
CONTINUOUS
10
137.232
20
-134.567
11
137.401
21
-134.292
0
LINE
8
BLACK
6
CONTINUOUS
10
137.401
20
-134.292
11
137.6
21
-134.038
0
LINE
8
BLACK
6
CONTINUOUS
10
137.6
20
-134.038
11
137.826
21
-133.809
0
LINE
8
BLACK
6
CONTINUOUS
10
137.826
20
-133.809
11
138.078
21
-133.608
0
LINE
8
BLACK
6
CONTINUOUS
10
138.078
20
-133.608
11
138.351
21
-133.436
0
LINE
8
BLACK
6
CONTINUOUS
10
138.351
20
-133.436
11
138.642
21
-133.298
0
LINE
8
BLACK
6
CONTINUOUS
10
138.642
20
-133.298
11
138.947
21
-133.193
0
LINE
8
BLACK
6
CONTINUOUS
10
138.947
20
-133.193
11
139.262
21
-133.124
0
LINE
8
BLACK
6
CONTINUOUS
10
139.262
20
-133.124
11
139.583
21
-133.092
0
LINE
8
BLACK
6
CONTINUOUS
10
139.583
20
-133.092
11
139.905
21
-133.098
0
LINE
8
BLACK
6
CONTINUOUS
10
343.105
20
-133.098
11
343.425
21
-133.14
0
LINE
8
BLACK
6
CONTINUOUS
10
343.425
20
-133.14
11
343.737
21
-133.218
0
LINE
8
BLACK
6
CONTINUOUS
10
343.737
20
-133.218
11
344.039
21
-133.332
0
LINE
8
BLACK
6
CONTINUOUS
10
344.039
20
-133.332
11
344.325
21
-133.48
0
LINE
8
BLACK
6
CONTINUOUS
10
344.325
20
-133.48
11
344.593
21
-133.66
0
LINE
8
BLACK
6
CONTINUOUS
10
344.593
20
-133.66
11
344.838
21
-133.869
0
LINE
8
BLACK
6
CONTINUOUS
10
344.838
20
-133.869
11
345.057
21
-134.105
0
LINE
8
BLACK
6
CONTINUOUS
10
345.057
20
-134.105
11
345.248
21
-134.365
0
LINE
8
BLACK
6
CONTINUOUS
10
345.248
20
-134.365
11
345.408
21
-134.645
0
LINE
8
BLACK
6
CONTINUOUS
10
345.408
20
-134.645
11
345.534
21
-134.942
0
LINE
8
BLACK
6
CONTINUOUS
10
345.534
20
-134.942
11
345.626
21
-135.251
0
LINE
8
BLACK
6
CONTINUOUS
10
345.626
20
-135.251
11
345.681
21
-135.568
0
LINE
8
BLACK
6
CONTINUOUS
10
345.681
20
-135.568
11
345.7
21
-135.89
0
LINE
8
BLACK
6
CONTINUOUS
10
345.7
20
-135.89
11
345.694
21
-136.066
0
LINE
8
BLACK
6
CONTINUOUS
10
345.694
20
-136.066
11
345.656
21
-136.386
0
LINE
8
BLACK
6
CONTINUOUS
10
345.656
20
-136.386
11
345.58
21
-136.699
0
LINE
8
BLACK
6
CONTINUOUS
10
345.58
20
-136.699
11
345.47
21
-137.002
0
LINE
8
BLACK
6
CONTINUOUS
10
345.47
20
-137.002
11
345.325
21
-137.29
0
LINE
8
BLACK
6
CONTINUOUS
10
345.325
20
-137.29
11
345.148
21
-137.559
0
LINE
8
BLACK
6
CONTINUOUS
10
345.148
20
-137.559
11
344.941
21
-137.807
0
LINE
8
BLACK
6
CONTINUOUS
10
344.941
20
-137.807
11
344.707
21
-138.029
0
LINE
8
BLACK
6
CONTINUOUS
10
344.707
20
-138.029
11
344.449
21
-138.222
0
LINE
8
BLACK
6
CONTINUOUS
10
344.449
20
-138.222
11
344.171
21
-138.385
0
LINE
8
BLACK
6
CONTINUOUS
10
344.171
20
-138.385
11
343.876
21
-138.514
0
LINE
8
BLACK
6
CONTINUOUS
10
343.876
20
-138.514
11
343.568
21
-138.609
0
LINE
8
BLACK
6
CONTINUOUS
10
343.568
20
-138.609
11
343.251
21
-138.668
0
LINE
8
BLACK
6
CONTINUOUS
10
343.251
20
-138.668
11
342.929
21
-138.69
0
LINE
8
BLACK
6
CONTINUOUS
10
342.929
20
-138.69
11
342.607
21
-138.675
0
LINE
8
BLACK
6
CONTINUOUS
10
342.607
20
-138.675
11
342.289
21
-138.623
0
LINE
8
BLACK
6
CONTINUOUS
10
342.289
20
-138.623
11
341.979
21
-138.534
0
LINE
8
BLACK
6
CONTINUOUS
10
341.979
20
-138.534
11
341.681
21
-138.411
0
LINE
8
BLACK
6
CONTINUOUS
10
341.681
20
-138.411
11
341.4
21
-138.254
0
LINE
8
BLACK
6
CONTINUOUS
10
341.4
20
-138.254
11
341.138
21
-138.066
0
LINE
8
BLACK
6
CONTINUOUS
10
341.138
20
-138.066
11
340.899
21
-137.849
0
LINE
8
BLACK
6
CONTINUOUS
10
340.899
20
-137.849
11
340.688
21
-137.606
0
LINE
8
BLACK
6
CONTINUOUS
10
340.688
20
-137.606
11
340.505
21
-137.34
0
LINE
8
BLACK
6
CONTINUOUS
10
340.505
20
-137.34
11
340.354
21
-137.056
0
LINE
8
BLACK
6
CONTINUOUS
10
340.354
20
-137.056
11
340.237
21
-136.755
0
LINE
8
BLACK
6
CONTINUOUS
10
340.237
20
-136.755
11
340.155
21
-136.443
0
LINE
8
BLACK
6
CONTINUOUS
10
340.155
20
-136.443
11
340.11
21
-136.124
0
LINE
8
BLACK
6
CONTINUOUS
10
340.11
20
-136.124
11
340.101
21
-135.802
0
LINE
8
BLACK
6
CONTINUOUS
10
340.101
20
-135.802
11
340.13
21
-135.481
0
LINE
8
BLACK
6
CONTINUOUS
10
340.13
20
-135.481
11
340.195
21
-135.165
0
LINE
8
BLACK
6
CONTINUOUS
10
340.195
20
-135.165
11
340.297
21
-134.859
0
LINE
8
BLACK
6
CONTINUOUS
10
340.297
20
-134.859
11
340.432
21
-134.567
0
LINE
8
BLACK
6
CONTINUOUS
10
340.432
20
-134.567
11
340.601
21
-134.292
0
LINE
8
BLACK
6
CONTINUOUS
10
340.601
20
-134.292
11
340.8
21
-134.038
0
LINE
8
BLACK
6
CONTINUOUS
10
340.8
20
-134.038
11
341.026
21
-133.809
0
LINE
8
BLACK
6
CONTINUOUS
10
341.026
20
-133.809
11
341.278
21
-133.608
0
LINE
8
BLACK
6
CONTINUOUS
10
341.278
20
-133.608
11
341.551
21
-133.436
0
LINE
8
BLACK
6
CONTINUOUS
10
341.551
20
-133.436
11
341.842
21
-133.298
0
LINE
8
BLACK
6
CONTINUOUS
10
341.842
20
-133.298
11
342.147
21
-133.193
0
LINE
8
BLACK
6
CONTINUOUS
10
342.147
20
-133.193
11
342.462
21
-133.124
0
LINE
8
BLACK
6
CONTINUOUS
10
342.462
20
-133.124
11
342.783
21
-133.092
0
LINE
8
BLACK
6
CONTINUOUS
10
342.783
20
-133.092
11
343.105
21
-133.098
0
LINE
8
BLACK
6
CONTINUOUS
10
241.505
20
-133.098
11
241.825
21
-133.14
0
LINE
8
BLACK
6
CONTINUOUS
10
241.825
20
-133.14
11
242.137
21
-133.218
0
LINE
8
BLACK
6
CONTINUOUS
10
242.137
20
-133.218
11
242.439
21
-133.332
0
LINE
8
BLACK
6
CONTINUOUS
10
242.439
20
-133.332
11
242.725
21
-133.48
0
LINE
8
BLACK
6
CONTINUOUS
10
242.725
20
-133.48
11
242.993
21
-133.66
0
LINE
8
BLACK
6
CONTINUOUS
10
242.993
20
-133.66
11
243.238
21
-133.869
0
LINE
8
BLACK
6
CONTINUOUS
10
243.238
20
-133.869
11
243.457
21
-134.105
0
LINE
8
BLACK
6
CONTINUOUS
10
243.457
20
-134.105
11
243.648
21
-134.365
0
LINE
8
BLACK
6
CONTINUOUS
10
243.648
20
-134.365
11
243.808
21
-134.645
0
LINE
8
BLACK
6
CONTINUOUS
10
243.808
20
-134.645
11
243.934
21
-134.942
0
LINE
8
BLACK
6
CONTINUOUS
10
243.934
20
-134.942
11
244.026
21
-135.251
0
LINE
8
BLACK
6
CONTINUOUS
10
244.026
20
-135.251
11
244.081
21
-135.568
0
LINE
8
BLACK
6
CONTINUOUS
10
244.081
20
-135.568
11
244.1
21
-135.89
0
LINE
8
BLACK
6
CONTINUOUS
10
244.1
20
-135.89
11
244.094
21
-136.066
0
LINE
8
BLACK
6
CONTINUOUS
10
244.094
20
-136.066
11
244.056
21
-136.386
0
LINE
8
BLACK
6
CONTINUOUS
10
244.056
20
-136.386
11
243.98
21
-136.699
0
LINE
8
BLACK
6
CONTINUOUS
10
243.98
20
-136.699
11
243.87
21
-137.002
0
LINE
8
BLACK
6
CONTINUOUS
10
243.87
20
-137.002
11
243.725
21
-137.29
0
LINE
8
BLACK
6
CONTINUOUS
10
243.725
20
-137.29
11
243.548
21
-137.559
0
LINE
8
BLACK
6
CONTINUOUS
10
243.548
20
-137.559
11
243.341
21
-137.807
0
LINE
8
BLACK
6
CONTINUOUS
10
243.341
20
-137.807
11
243.107
21
-138.029
0
LINE
8
BLACK
6
CONTINUOUS
10
243.107
20
-138.029
11
242.849
21
-138.222
0
LINE
8
BLACK
6
CONTINUOUS
10
242.849
20
-138.222
11
242.571
21
-138.385
0
LINE
8
BLACK
6
CONTINUOUS
10
242.571
20
-138.385
11
242.276
21
-138.514
0
LINE
8
BLACK
6
CONTINUOUS
10
242.276
20
-138.514
11
241.968
21
-138.609
0
LINE
8
BLACK
6
CONTINUOUS
10
241.968
20
-138.609
11
241.651
21
-138.668
0
LINE
8
BLACK
6
CONTINUOUS
10
241.651
20
-138.668
11
241.329
21
-138.69
0
LINE
8
BLACK
6
CONTINUOUS
10
241.329
20
-138.69
11
241.007
21
-138.675
0
LINE
8
BLACK
6
CONTINUOUS
10
241.007
20
-138.675
11
240.689
21
-138.623
0
LINE
8
BLACK
6
CONTINUOUS
10
240.689
20
-138.623
11
240.379
21
-138.534
0
LINE
8
BLACK
6
CONTINUOUS
10
240.379
20
-138.534
11
240.081
21
-138.411
0
LINE
8
BLACK
6
CONTINUOUS
10
240.081
20
-138.411
11
239.8
21
-138.254
0
LINE
8
BLACK
6
CONTINUOUS
10
239.8
20
-138.254
11
239.538
21
-138.066
0
LINE
8
BLACK
6
CONTINUOUS
10
239.538
20
-138.066
11
239.299
21
-137.849
0
LINE
8
BLACK
6
CONTINUOUS
10
239.299
20
-137.849
11
239.088
21
-137.606
0
LINE
8
BLACK
6
CONTINUOUS
10
239.088
20
-137.606
11
238.905
21
-137.34
0
LINE
8
BLACK
6
CONTINUOUS
10
238.905
20
-137.34
11
238.754
21
-137.056
0
LINE
8
BLACK
6
CONTINUOUS
10
238.754
20
-137.056
11
238.637
21
-136.755
0
LINE
8
BLACK
6
CONTINUOUS
10
238.637
20
-136.755
11
238.555
21
-136.443
0
LINE
8
BLACK
6
CONTINUOUS
10
238.555
20
-136.443
11
238.51
21
-136.124
0
LINE
8
BLACK
6
CONTINUOUS
10
238.51
20
-136.124
11
238.501
21
-135.802
0
LINE
8
BLACK
6
CONTINUOUS
10
238.501
20
-135.802
11
238.53
21
-135.481
0
LINE
8
BLACK
6
CONTINUOUS
10
238.53
20
-135.481
11
238.595
21
-135.165
0
LINE
8
BLACK
6
CONTINUOUS
10
238.595
20
-135.165
11
238.697
21
-134.859
0
LINE
8
BLACK
6
CONTINUOUS
10
238.697
20
-134.859
11
238.832
21
-134.567
0
LINE
8
BLACK
6
CONTINUOUS
10
238.832
20
-134.567
11
239.001
21
-134.292
0
LINE
8
BLACK
6
CONTINUOUS
10
239.001
20
-134.292
11
239.2
21
-134.038
0
LINE
8
BLACK
6
CONTINUOUS
10
239.2
20
-134.038
11
239.426
21
-133.809
0
LINE
8
BLACK
6
CONTINUOUS
10
239.426
20
-133.809
11
239.678
21
-133.608
0
LINE
8
BLACK
6
CONTINUOUS
10
239.678
20
-133.608
11
239.951
21
-133.436
0
LINE
8
BLACK
6
CONTINUOUS
10
239.951
20
-133.436
11
240.242
21
-133.298
0
LINE
8
BLACK
6
CONTINUOUS
10
240.242
20
-133.298
11
240.547
21
-133.193
0
LINE
8
BLACK
6
CONTINUOUS
10
240.547
20
-133.193
11
240.862
21
-133.124
0
LINE
8
BLACK
6
CONTINUOUS
10
240.862
20
-133.124
11
241.183
21
-133.092
0
LINE
8
BLACK
6
CONTINUOUS
10
241.183
20
-133.092
11
241.505
21
-133.098
0
LINE
8
BLACK
6
CONTINUOUS
10
89.1051
20
-133.098
11
89.4247
21
-133.14
0
LINE
8
BLACK
6
CONTINUOUS
10
89.4247
20
-133.14
11
89.7373
21
-133.218
0
LINE
8
BLACK
6
CONTINUOUS
10
89.7373
20
-133.218
11
90.0389
21
-133.332
0
LINE
8
BLACK
6
CONTINUOUS
10
90.0389
20
-133.332
11
90.3253
21
-133.48
0
LINE
8
BLACK
6
CONTINUOUS
10
90.3253
20
-133.48
11
90.5929
21
-133.66
0
LINE
8
BLACK
6
CONTINUOUS
10
90.5929
20
-133.66
11
90.838
21
-133.869
0
LINE
8
BLACK
6
CONTINUOUS
10
90.838
20
-133.869
11
91.0574
21
-134.105
0
LINE
8
BLACK
6
CONTINUOUS
10
91.0574
20
-134.105
11
91.2483
21
-134.365
0
LINE
8
BLACK
6
CONTINUOUS
10
91.2483
20
-134.365
11
91.408
21
-134.645
0
LINE
8
BLACK
6
CONTINUOUS
10
91.408
20
-134.645
11
91.5345
21
-134.942
0
LINE
8
BLACK
6
CONTINUOUS
10
91.5345
20
-134.942
11
91.626
21
-135.251
0
LINE
8
BLACK
6
CONTINUOUS
10
91.626
20
-135.251
11
91.6814
21
-135.568
0
LINE
8
BLACK
6
CONTINUOUS
10
91.6814
20
-135.568
11
91.7
21
-135.89
0
LINE
8
BLACK
6
CONTINUOUS
10
91.7
20
-135.89
11
91.6945
21
-136.066
0
LINE
8
BLACK
6
CONTINUOUS
10
91.6945
20
-136.066
11
91.6557
21
-136.386
0
LINE
8
BLACK
6
CONTINUOUS
10
91.6557
20
-136.386
11
91.5805
21
-136.699
0
LINE
8
BLACK
6
CONTINUOUS
10
91.5805
20
-136.699
11
91.4697
21
-137.002
0
LINE
8
BLACK
6
CONTINUOUS
10
91.4697
20
-137.002
11
91.3249
21
-137.29
0
LINE
8
BLACK
6
CONTINUOUS
10
91.3249
20
-137.29
11
91.1479
21
-137.559
0
LINE
8
BLACK
6
CONTINUOUS
10
91.1479
20
-137.559
11
90.9411
21
-137.807
0
LINE
8
BLACK
6
CONTINUOUS
10
90.9411
20
-137.807
11
90.7073
21
-138.029
0
LINE
8
BLACK
6
CONTINUOUS
10
90.7073
20
-138.029
11
90.4495
21
-138.222
0
LINE
8
BLACK
6
CONTINUOUS
10
90.4495
20
-138.222
11
90.1712
21
-138.385
0
LINE
8
BLACK
6
CONTINUOUS
10
90.1712
20
-138.385
11
89.876
21
-138.514
0
LINE
8
BLACK
6
CONTINUOUS
10
89.876
20
-138.514
11
89.5679
21
-138.609
0
LINE
8
BLACK
6
CONTINUOUS
10
89.5679
20
-138.609
11
89.2509
21
-138.668
0
LINE
8
BLACK
6
CONTINUOUS
10
89.2509
20
-138.668
11
88.9293
21
-138.69
0
LINE
8
BLACK
6
CONTINUOUS
10
88.9293
20
-138.69
11
88.6073
21
-138.675
0
LINE
8
BLACK
6
CONTINUOUS
10
88.6073
20
-138.675
11
88.2892
21
-138.623
0
LINE
8
BLACK
6
CONTINUOUS
10
88.2892
20
-138.623
11
87.9792
21
-138.534
0
LINE
8
BLACK
6
CONTINUOUS
10
87.9792
20
-138.534
11
87.6814
21
-138.411
0
LINE
8
BLACK
6
CONTINUOUS
10
87.6814
20
-138.411
11
87.3997
21
-138.254
0
LINE
8
BLACK
6
CONTINUOUS
10
87.3997
20
-138.254
11
87.1379
21
-138.066
0
LINE
8
BLACK
6
CONTINUOUS
10
87.1379
20
-138.066
11
86.8995
21
-137.849
0
LINE
8
BLACK
6
CONTINUOUS
10
86.8995
20
-137.849
11
86.6876
21
-137.606
0
LINE
8
BLACK
6
CONTINUOUS
10
86.6876
20
-137.606
11
86.505
21
-137.34
0
LINE
8
BLACK
6
CONTINUOUS
10
86.505
20
-137.34
11
86.3541
21
-137.056
0
LINE
8
BLACK
6
CONTINUOUS
10
86.3541
20
-137.056
11
86.237
21
-136.755
0
LINE
8
BLACK
6
CONTINUOUS
10
86.237
20
-136.755
11
86.1552
21
-136.443
0
LINE
8
BLACK
6
CONTINUOUS
10
86.1552
20
-136.443
11
86.1098
21
-136.124
0
LINE
8
BLACK
6
CONTINUOUS
10
86.1098
20
-136.124
11
86.1014
21
-135.802
0
LINE
8
BLACK
6
CONTINUOUS
10
86.1014
20
-135.802
11
86.13
21
-135.481
0
LINE
8
BLACK
6
CONTINUOUS
10
86.13
20
-135.481
11
86.1954
21
-135.165
0
LINE
8
BLACK
6
CONTINUOUS
10
86.1954
20
-135.165
11
86.2966
21
-134.859
0
LINE
8
BLACK
6
CONTINUOUS
10
86.2966
20
-134.859
11
86.4323
21
-134.567
0
LINE
8
BLACK
6
CONTINUOUS
10
86.4323
20
-134.567
11
86.6008
21
-134.292
0
LINE
8
BLACK
6
CONTINUOUS
10
86.6008
20
-134.292
11
86.7997
21
-134.038
0
LINE
8
BLACK
6
CONTINUOUS
10
86.7997
20
-134.038
11
87.0264
21
-133.809
0
LINE
8
BLACK
6
CONTINUOUS
10
87.0264
20
-133.809
11
87.278
21
-133.608
0
LINE
8
BLACK
6
CONTINUOUS
10
87.278
20
-133.608
11
87.5511
21
-133.436
0
LINE
8
BLACK
6
CONTINUOUS
10
87.5511
20
-133.436
11
87.842
21
-133.298
0
LINE
8
BLACK
6
CONTINUOUS
10
87.842
20
-133.298
11
88.147
21
-133.193
0
LINE
8
BLACK
6
CONTINUOUS
10
88.147
20
-133.193
11
88.462
21
-133.124
0
LINE
8
BLACK
6
CONTINUOUS
10
88.462
20
-133.124
11
88.7827
21
-133.092
0
LINE
8
BLACK
6
CONTINUOUS
10
88.7827
20
-133.092
11
89.1051
21
-133.098
0
LINE
8
BLACK
6
CONTINUOUS
10
393.905
20
-133.098
11
394.225
21
-133.14
0
LINE
8
BLACK
6
CONTINUOUS
10
394.225
20
-133.14
11
394.537
21
-133.218
0
LINE
8
BLACK
6
CONTINUOUS
10
394.537
20
-133.218
11
394.839
21
-133.332
0
LINE
8
BLACK
6
CONTINUOUS
10
394.839
20
-133.332
11
395.125
21
-133.48
0
LINE
8
BLACK
6
CONTINUOUS
10
395.125
20
-133.48
11
395.393
21
-133.66
0
LINE
8
BLACK
6
CONTINUOUS
10
395.393
20
-133.66
11
395.638
21
-133.869
0
LINE
8
BLACK
6
CONTINUOUS
10
395.638
20
-133.869
11
395.857
21
-134.105
0
LINE
8
BLACK
6
CONTINUOUS
10
395.857
20
-134.105
11
396.048
21
-134.365
0
LINE
8
BLACK
6
CONTINUOUS
10
396.048
20
-134.365
11
396.208
21
-134.645
0
LINE
8
BLACK
6
CONTINUOUS
10
396.208
20
-134.645
11
396.334
21
-134.942
0
LINE
8
BLACK
6
CONTINUOUS
10
396.334
20
-134.942
11
396.426
21
-135.251
0
LINE
8
BLACK
6
CONTINUOUS
10
396.426
20
-135.251
11
396.481
21
-135.568
0
LINE
8
BLACK
6
CONTINUOUS
10
396.481
20
-135.568
11
396.5
21
-135.89
0
LINE
8
BLACK
6
CONTINUOUS
10
396.5
20
-135.89
11
396.494
21
-136.066
0
LINE
8
BLACK
6
CONTINUOUS
10
396.494
20
-136.066
11
396.456
21
-136.386
0
LINE
8
BLACK
6
CONTINUOUS
10
396.456
20
-136.386
11
396.38
21
-136.699
0
LINE
8
BLACK
6
CONTINUOUS
10
396.38
20
-136.699
11
396.27
21
-137.002
0
LINE
8
BLACK
6
CONTINUOUS
10
396.27
20
-137.002
11
396.125
21
-137.29
0
LINE
8
BLACK
6
CONTINUOUS
10
396.125
20
-137.29
11
395.948
21
-137.559
0
LINE
8
BLACK
6
CONTINUOUS
10
395.948
20
-137.559
11
395.741
21
-137.807
0
LINE
8
BLACK
6
CONTINUOUS
10
395.741
20
-137.807
11
395.507
21
-138.029
0
LINE
8
BLACK
6
CONTINUOUS
10
395.507
20
-138.029
11
395.249
21
-138.222
0
LINE
8
BLACK
6
CONTINUOUS
10
395.249
20
-138.222
11
394.971
21
-138.385
0
LINE
8
BLACK
6
CONTINUOUS
10
394.971
20
-138.385
11
394.676
21
-138.514
0
LINE
8
BLACK
6
CONTINUOUS
10
394.676
20
-138.514
11
394.368
21
-138.609
0
LINE
8
BLACK
6
CONTINUOUS
10
394.368
20
-138.609
11
394.051
21
-138.668
0
LINE
8
BLACK
6
CONTINUOUS
10
394.051
20
-138.668
11
393.729
21
-138.69
0
LINE
8
BLACK
6
CONTINUOUS
10
393.729
20
-138.69
11
393.407
21
-138.675
0
LINE
8
BLACK
6
CONTINUOUS
10
393.407
20
-138.675
11
393.089
21
-138.623
0
LINE
8
BLACK
6
CONTINUOUS
10
393.089
20
-138.623
11
392.779
21
-138.534
0
LINE
8
BLACK
6
CONTINUOUS
10
392.779
20
-138.534
11
392.481
21
-138.411
0
LINE
8
BLACK
6
CONTINUOUS
10
392.481
20
-138.411
11
392.2
21
-138.254
0
LINE
8
BLACK
6
CONTINUOUS
10
392.2
20
-138.254
11
391.938
21
-138.066
0
LINE
8
BLACK
6
CONTINUOUS
10
391.938
20
-138.066
11
391.699
21
-137.849
0
LINE
8
BLACK
6
CONTINUOUS
10
391.699
20
-137.849
11
391.488
21
-137.606
0
LINE
8
BLACK
6
CONTINUOUS
10
391.488
20
-137.606
11
391.305
21
-137.34
0
LINE
8
BLACK
6
CONTINUOUS
10
391.305
20
-137.34
11
391.154
21
-137.056
0
LINE
8
BLACK
6
CONTINUOUS
10
391.154
20
-137.056
11
391.037
21
-136.755
0
LINE
8
BLACK
6
CONTINUOUS
10
391.037
20
-136.755
11
390.955
21
-136.443
0
LINE
8
BLACK
6
CONTINUOUS
10
390.955
20
-136.443
11
390.91
21
-136.124
0
LINE
8
BLACK
6
CONTINUOUS
10
390.91
20
-136.124
11
390.901
21
-135.802
0
LINE
8
BLACK
6
CONTINUOUS
10
390.901
20
-135.802
11
390.93
21
-135.481
0
LINE
8
BLACK
6
CONTINUOUS
10
390.93
20
-135.481
11
390.995
21
-135.165
0
LINE
8
BLACK
6
CONTINUOUS
10
390.995
20
-135.165
11
391.097
21
-134.859
0
LINE
8
BLACK
6
CONTINUOUS
10
391.097
20
-134.859
11
391.232
21
-134.567
0
LINE
8
BLACK
6
CONTINUOUS
10
391.232
20
-134.567
11
391.401
21
-134.292
0
LINE
8
BLACK
6
CONTINUOUS
10
391.401
20
-134.292
11
391.6
21
-134.038
0
LINE
8
BLACK
6
CONTINUOUS
10
391.6
20
-134.038
11
391.826
21
-133.809
0
LINE
8
BLACK
6
CONTINUOUS
10
391.826
20
-133.809
11
392.078
21
-133.608
0
LINE
8
BLACK
6
CONTINUOUS
10
392.078
20
-133.608
11
392.351
21
-133.436
0
LINE
8
BLACK
6
CONTINUOUS
10
392.351
20
-133.436
11
392.642
21
-133.298
0
LINE
8
BLACK
6
CONTINUOUS
10
392.642
20
-133.298
11
392.947
21
-133.193
0
LINE
8
BLACK
6
CONTINUOUS
10
392.947
20
-133.193
11
393.262
21
-133.124
0
LINE
8
BLACK
6
CONTINUOUS
10
393.262
20
-133.124
11
393.583
21
-133.092
0
LINE
8
BLACK
6
CONTINUOUS
10
393.583
20
-133.092
11
393.905
21
-133.098
0
LINE
8
BLACK
6
CONTINUOUS
10
292.305
20
-133.098
11
292.625
21
-133.14
0
LINE
8
BLACK
6
CONTINUOUS
10
292.625
20
-133.14
11
292.937
21
-133.218
0
LINE
8
BLACK
6
CONTINUOUS
10
292.937
20
-133.218
11
293.239
21
-133.332
0
LINE
8
BLACK
6
CONTINUOUS
10
293.239
20
-133.332
11
293.525
21
-133.48
0
LINE
8
BLACK
6
CONTINUOUS
10
293.525
20
-133.48
11
293.793
21
-133.66
0
LINE
8
BLACK
6
CONTINUOUS
10
293.793
20
-133.66
11
294.038
21
-133.869
0
LINE
8
BLACK
6
CONTINUOUS
10
294.038
20
-133.869
11
294.257
21
-134.105
0
LINE
8
BLACK
6
CONTINUOUS
10
294.257
20
-134.105
11
294.448
21
-134.365
0
LINE
8
BLACK
6
CONTINUOUS
10
294.448
20
-134.365
11
294.608
21
-134.645
0
LINE
8
BLACK
6
CONTINUOUS
10
294.608
20
-134.645
11
294.734
21
-134.942
0
LINE
8
BLACK
6
CONTINUOUS
10
294.734
20
-134.942
11
294.826
21
-135.251
0
LINE
8
BLACK
6
CONTINUOUS
10
294.826
20
-135.251
11
294.881
21
-135.568
0
LINE
8
BLACK
6
CONTINUOUS
10
294.881
20
-135.568
11
294.9
21
-135.89
0
LINE
8
BLACK
6
CONTINUOUS
10
294.9
20
-135.89
11
294.894
21
-136.066
0
LINE
8
BLACK
6
CONTINUOUS
10
294.894
20
-136.066
11
294.856
21
-136.386
0
LINE
8
BLACK
6
CONTINUOUS
10
294.856
20
-136.386
11
294.78
21
-136.699
0
LINE
8
BLACK
6
CONTINUOUS
10
294.78
20
-136.699
11
294.67
21
-137.002
0
LINE
8
BLACK
6
CONTINUOUS
10
294.67
20
-137.002
11
294.525
21
-137.29
0
LINE
8
BLACK
6
CONTINUOUS
10
294.525
20
-137.29
11
294.348
21
-137.559
0
LINE
8
BLACK
6
CONTINUOUS
10
294.348
20
-137.559
11
294.141
21
-137.807
0
LINE
8
BLACK
6
CONTINUOUS
10
294.141
20
-137.807
11
293.907
21
-138.029
0
LINE
8
BLACK
6
CONTINUOUS
10
293.907
20
-138.029
11
293.649
21
-138.222
0
LINE
8
BLACK
6
CONTINUOUS
10
293.649
20
-138.222
11
293.371
21
-138.385
0
LINE
8
BLACK
6
CONTINUOUS
10
293.371
20
-138.385
11
293.076
21
-138.514
0
LINE
8
BLACK
6
CONTINUOUS
10
293.076
20
-138.514
11
292.768
21
-138.609
0
LINE
8
BLACK
6
CONTINUOUS
10
292.768
20
-138.609
11
292.451
21
-138.668
0
LINE
8
BLACK
6
CONTINUOUS
10
292.451
20
-138.668
11
292.129
21
-138.69
0
LINE
8
BLACK
6
CONTINUOUS
10
292.129
20
-138.69
11
291.807
21
-138.675
0
LINE
8
BLACK
6
CONTINUOUS
10
291.807
20
-138.675
11
291.489
21
-138.623
0
LINE
8
BLACK
6
CONTINUOUS
10
291.489
20
-138.623
11
291.179
21
-138.534
0
LINE
8
BLACK
6
CONTINUOUS
10
291.179
20
-138.534
11
290.881
21
-138.411
0
LINE
8
BLACK
6
CONTINUOUS
10
290.881
20
-138.411
11
290.6
21
-138.254
0
LINE
8
BLACK
6
CONTINUOUS
10
290.6
20
-138.254
11
290.338
21
-138.066
0
LINE
8
BLACK
6
CONTINUOUS
10
290.338
20
-138.066
11
290.099
21
-137.849
0
LINE
8
BLACK
6
CONTINUOUS
10
290.099
20
-137.849
11
289.888
21
-137.606
0
LINE
8
BLACK
6
CONTINUOUS
10
289.888
20
-137.606
11
289.705
21
-137.34
0
LINE
8
BLACK
6
CONTINUOUS
10
289.705
20
-137.34
11
289.554
21
-137.056
0
LINE
8
BLACK
6
CONTINUOUS
10
289.554
20
-137.056
11
289.437
21
-136.755
0
LINE
8
BLACK
6
CONTINUOUS
10
289.437
20
-136.755
11
289.355
21
-136.443
0
LINE
8
BLACK
6
CONTINUOUS
10
289.355
20
-136.443
11
289.31
21
-136.124
0
LINE
8
BLACK
6
CONTINUOUS
10
289.31
20
-136.124
11
289.301
21
-135.802
0
LINE
8
BLACK
6
CONTINUOUS
10
289.301
20
-135.802
11
289.33
21
-135.481
0
LINE
8
BLACK
6
CONTINUOUS
10
289.33
20
-135.481
11
289.395
21
-135.165
0
LINE
8
BLACK
6
CONTINUOUS
10
289.395
20
-135.165
11
289.497
21
-134.859
0
LINE
8
BLACK
6
CONTINUOUS
10
289.497
20
-134.859
11
289.632
21
-134.567
0
LINE
8
BLACK
6
CONTINUOUS
10
289.632
20
-134.567
11
289.801
21
-134.292
0
LINE
8
BLACK
6
CONTINUOUS
10
289.801
20
-134.292
11
290
21
-134.038
0
LINE
8
BLACK
6
CONTINUOUS
10
290
20
-134.038
11
290.226
21
-133.809
0
LINE
8
BLACK
6
CONTINUOUS
10
290.226
20
-133.809
11
290.478
21
-133.608
0
LINE
8
BLACK
6
CONTINUOUS
10
290.478
20
-133.608
11
290.751
21
-133.436
0
LINE
8
BLACK
6
CONTINUOUS
10
290.751
20
-133.436
11
291.042
21
-133.298
0
LINE
8
BLACK
6
CONTINUOUS
10
291.042
20
-133.298
11
291.347
21
-133.193
0
LINE
8
BLACK
6
CONTINUOUS
10
291.347
20
-133.193
11
291.662
21
-133.124
0
LINE
8
BLACK
6
CONTINUOUS
10
291.662
20
-133.124
11
291.983
21
-133.092
0
LINE
8
BLACK
6
CONTINUOUS
10
291.983
20
-133.092
11
292.305
21
-133.098
0
LINE
8
BLACK
6
CONTINUOUS
10
38.3051
20
-133.098
11
38.6247
21
-133.14
0
LINE
8
BLACK
6
CONTINUOUS
10
38.6247
20
-133.14
11
38.9373
21
-133.218
0
LINE
8
BLACK
6
CONTINUOUS
10
38.9373
20
-133.218
11
39.2389
21
-133.332
0
LINE
8
BLACK
6
CONTINUOUS
10
39.2389
20
-133.332
11
39.5253
21
-133.48
0
LINE
8
BLACK
6
CONTINUOUS
10
39.5253
20
-133.48
11
39.7929
21
-133.66
0
LINE
8
BLACK
6
CONTINUOUS
10
39.7929
20
-133.66
11
40.038
21
-133.869
0
LINE
8
BLACK
6
CONTINUOUS
10
40.038
20
-133.869
11
40.2574
21
-134.105
0
LINE
8
BLACK
6
CONTINUOUS
10
40.2574
20
-134.105
11
40.4483
21
-134.365
0
LINE
8
BLACK
6
CONTINUOUS
10
40.4483
20
-134.365
11
40.608
21
-134.645
0
LINE
8
BLACK
6
CONTINUOUS
10
40.608
20
-134.645
11
40.7345
21
-134.942
0
LINE
8
BLACK
6
CONTINUOUS
10
40.7345
20
-134.942
11
40.826
21
-135.251
0
LINE
8
BLACK
6
CONTINUOUS
10
40.826
20
-135.251
11
40.8814
21
-135.568
0
LINE
8
BLACK
6
CONTINUOUS
10
40.8814
20
-135.568
11
40.9
21
-135.89
0
LINE
8
BLACK
6
CONTINUOUS
10
40.9
20
-135.89
11
40.8945
21
-136.066
0
LINE
8
BLACK
6
CONTINUOUS
10
40.8945
20
-136.066
11
40.8557
21
-136.386
0
LINE
8
BLACK
6
CONTINUOUS
10
40.8557
20
-136.386
11
40.7805
21
-136.699
0
LINE
8
BLACK
6
CONTINUOUS
10
40.7805
20
-136.699
11
40.6697
21
-137.002
0
LINE
8
BLACK
6
CONTINUOUS
10
40.6697
20
-137.002
11
40.5249
21
-137.29
0
LINE
8
BLACK
6
CONTINUOUS
10
40.5249
20
-137.29
11
40.3479
21
-137.559
0
LINE
8
BLACK
6
CONTINUOUS
10
40.3479
20
-137.559
11
40.1411
21
-137.807
0
LINE
8
BLACK
6
CONTINUOUS
10
40.1411
20
-137.807
11
39.9073
21
-138.029
0
LINE
8
BLACK
6
CONTINUOUS
10
39.9073
20
-138.029
11
39.6495
21
-138.222
0
LINE
8
BLACK
6
CONTINUOUS
10
39.6495
20
-138.222
11
39.3712
21
-138.385
0
LINE
8
BLACK
6
CONTINUOUS
10
39.3712
20
-138.385
11
39.076
21
-138.514
0
LINE
8
BLACK
6
CONTINUOUS
10
39.076
20
-138.514
11
38.7679
21
-138.609
0
LINE
8
BLACK
6
CONTINUOUS
10
38.7679
20
-138.609
11
38.4509
21
-138.668
0
LINE
8
BLACK
6
CONTINUOUS
10
38.4509
20
-138.668
11
38.1293
21
-138.69
0
LINE
8
BLACK
6
CONTINUOUS
10
38.1293
20
-138.69
11
37.8073
21
-138.675
0
LINE
8
BLACK
6
CONTINUOUS
10
37.8073
20
-138.675
11
37.4892
21
-138.623
0
LINE
8
BLACK
6
CONTINUOUS
10
37.4892
20
-138.623
11
37.1792
21
-138.534
0
LINE
8
BLACK
6
CONTINUOUS
10
37.1792
20
-138.534
11
36.8814
21
-138.411
0
LINE
8
BLACK
6
CONTINUOUS
10
36.8814
20
-138.411
11
36.5997
21
-138.254
0
LINE
8
BLACK
6
CONTINUOUS
10
36.5997
20
-138.254
11
36.3379
21
-138.066
0
LINE
8
BLACK
6
CONTINUOUS
10
36.3379
20
-138.066
11
36.0995
21
-137.849
0
LINE
8
BLACK
6
CONTINUOUS
10
36.0995
20
-137.849
11
35.8876
21
-137.606
0
LINE
8
BLACK
6
CONTINUOUS
10
35.8876
20
-137.606
11
35.705
21
-137.34
0
LINE
8
BLACK
6
CONTINUOUS
10
35.705
20
-137.34
11
35.5541
21
-137.056
0
LINE
8
BLACK
6
CONTINUOUS
10
35.5541
20
-137.056
11
35.437
21
-136.755
0
LINE
8
BLACK
6
CONTINUOUS
10
35.437
20
-136.755
11
35.3552
21
-136.443
0
LINE
8
BLACK
6
CONTINUOUS
10
35.3552
20
-136.443
11
35.3098
21
-136.124
0
LINE
8
BLACK
6
CONTINUOUS
10
35.3098
20
-136.124
11
35.3014
21
-135.802
0
LINE
8
BLACK
6
CONTINUOUS
10
35.3014
20
-135.802
11
35.33
21
-135.481
0
LINE
8
BLACK
6
CONTINUOUS
10
35.33
20
-135.481
11
35.3954
21
-135.165
0
LINE
8
BLACK
6
CONTINUOUS
10
35.3954
20
-135.165
11
35.4966
21
-134.859
0
LINE
8
BLACK
6
CONTINUOUS
10
35.4966
20
-134.859
11
35.6323
21
-134.567
0
LINE
8
BLACK
6
CONTINUOUS
10
35.6323
20
-134.567
11
35.8008
21
-134.292
0
LINE
8
BLACK
6
CONTINUOUS
10
35.8008
20
-134.292
11
35.9997
21
-134.038
0
LINE
8
BLACK
6
CONTINUOUS
10
35.9997
20
-134.038
11
36.2264
21
-133.809
0
LINE
8
BLACK
6
CONTINUOUS
10
36.2264
20
-133.809
11
36.478
21
-133.608
0
LINE
8
BLACK
6
CONTINUOUS
10
36.478
20
-133.608
11
36.7511
21
-133.436
0
LINE
8
BLACK
6
CONTINUOUS
10
36.7511
20
-133.436
11
37.042
21
-133.298
0
LINE
8
BLACK
6
CONTINUOUS
10
37.042
20
-133.298
11
37.347
21
-133.193
0
LINE
8
BLACK
6
CONTINUOUS
10
37.347
20
-133.193
11
37.662
21
-133.124
0
LINE
8
BLACK
6
CONTINUOUS
10
37.662
20
-133.124
11
37.9827
21
-133.092
0
LINE
8
BLACK
6
CONTINUOUS
10
37.9827
20
-133.092
11
38.3051
21
-133.098
0
LINE
8
BLACK
6
CONTINUOUS
10
190.705
20
-133.098
11
191.025
21
-133.14
0
LINE
8
BLACK
6
CONTINUOUS
10
191.025
20
-133.14
11
191.337
21
-133.218
0
LINE
8
BLACK
6
CONTINUOUS
10
191.337
20
-133.218
11
191.639
21
-133.332
0
LINE
8
BLACK
6
CONTINUOUS
10
191.639
20
-133.332
11
191.925
21
-133.48
0
LINE
8
BLACK
6
CONTINUOUS
10
191.925
20
-133.48
11
192.193
21
-133.66
0
LINE
8
BLACK
6
CONTINUOUS
10
192.193
20
-133.66
11
192.438
21
-133.869
0
LINE
8
BLACK
6
CONTINUOUS
10
192.438
20
-133.869
11
192.657
21
-134.105
0
LINE
8
BLACK
6
CONTINUOUS
10
192.657
20
-134.105
11
192.848
21
-134.365
0
LINE
8
BLACK
6
CONTINUOUS
10
192.848
20
-134.365
11
193.008
21
-134.645
0
LINE
8
BLACK
6
CONTINUOUS
10
193.008
20
-134.645
11
193.134
21
-134.942
0
LINE
8
BLACK
6
CONTINUOUS
10
193.134
20
-134.942
11
193.226
21
-135.251
0
LINE
8
BLACK
6
CONTINUOUS
10
193.226
20
-135.251
11
193.281
21
-135.568
0
LINE
8
BLACK
6
CONTINUOUS
10
193.281
20
-135.568
11
193.3
21
-135.89
0
LINE
8
BLACK
6
CONTINUOUS
10
193.3
20
-135.89
11
193.294
21
-136.066
0
LINE
8
BLACK
6
CONTINUOUS
10
193.294
20
-136.066
11
193.256
21
-136.386
0
LINE
8
BLACK
6
CONTINUOUS
10
193.256
20
-136.386
11
193.18
21
-136.699
0
LINE
8
BLACK
6
CONTINUOUS
10
193.18
20
-136.699
11
193.07
21
-137.002
0
LINE
8
BLACK
6
CONTINUOUS
10
193.07
20
-137.002
11
192.925
21
-137.29
0
LINE
8
BLACK
6
CONTINUOUS
10
192.925
20
-137.29
11
192.748
21
-137.559
0
LINE
8
BLACK
6
CONTINUOUS
10
192.748
20
-137.559
11
192.541
21
-137.807
0
LINE
8
BLACK
6
CONTINUOUS
10
192.541
20
-137.807
11
192.307
21
-138.029
0
LINE
8
BLACK
6
CONTINUOUS
10
192.307
20
-138.029
11
192.049
21
-138.222
0
LINE
8
BLACK
6
CONTINUOUS
10
192.049
20
-138.222
11
191.771
21
-138.385
0
LINE
8
BLACK
6
CONTINUOUS
10
191.771
20
-138.385
11
191.476
21
-138.514
0
LINE
8
BLACK
6
CONTINUOUS
10
191.476
20
-138.514
11
191.168
21
-138.609
0
LINE
8
BLACK
6
CONTINUOUS
10
191.168
20
-138.609
11
190.851
21
-138.668
0
LINE
8
BLACK
6
CONTINUOUS
10
190.851
20
-138.668
11
190.529
21
-138.69
0
LINE
8
BLACK
6
CONTINUOUS
10
190.529
20
-138.69
11
190.207
21
-138.675
0
LINE
8
BLACK
6
CONTINUOUS
10
190.207
20
-138.675
11
189.889
21
-138.623
0
LINE
8
BLACK
6
CONTINUOUS
10
189.889
20
-138.623
11
189.579
21
-138.534
0
LINE
8
BLACK
6
CONTINUOUS
10
189.579
20
-138.534
11
189.281
21
-138.411
0
LINE
8
BLACK
6
CONTINUOUS
10
189.281
20
-138.411
11
189
21
-138.254
0
LINE
8
BLACK
6
CONTINUOUS
10
189
20
-138.254
11
188.738
21
-138.066
0
LINE
8
BLACK
6
CONTINUOUS
10
188.738
20
-138.066
11
188.499
21
-137.849
0
LINE
8
BLACK
6
CONTINUOUS
10
188.499
20
-137.849
11
188.288
21
-137.606
0
LINE
8
BLACK
6
CONTINUOUS
10
188.288
20
-137.606
11
188.105
21
-137.34
0
LINE
8
BLACK
6
CONTINUOUS
10
188.105
20
-137.34
11
187.954
21
-137.056
0
LINE
8
BLACK
6
CONTINUOUS
10
187.954
20
-137.056
11
187.837
21
-136.755
0
LINE
8
BLACK
6
CONTINUOUS
10
187.837
20
-136.755
11
187.755
21
-136.443
0
LINE
8
BLACK
6
CONTINUOUS
10
187.755
20
-136.443
11
187.71
21
-136.124
0
LINE
8
BLACK
6
CONTINUOUS
10
187.71
20
-136.124
11
187.701
21
-135.802
0
LINE
8
BLACK
6
CONTINUOUS
10
187.701
20
-135.802
11
187.73
21
-135.481
0
LINE
8
BLACK
6
CONTINUOUS
10
187.73
20
-135.481
11
187.795
21
-135.165
0
LINE
8
BLACK
6
CONTINUOUS
10
187.795
20
-135.165
11
187.897
21
-134.859
0
LINE
8
BLACK
6
CONTINUOUS
10
187.897
20
-134.859
11
188.032
21
-134.567
0
LINE
8
BLACK
6
CONTINUOUS
10
188.032
20
-134.567
11
188.201
21
-134.292
0
LINE
8
BLACK
6
CONTINUOUS
10
188.201
20
-134.292
11
188.4
21
-134.038
0
LINE
8
BLACK
6
CONTINUOUS
10
188.4
20
-134.038
11
188.626
21
-133.809
0
LINE
8
BLACK
6
CONTINUOUS
10
188.626
20
-133.809
11
188.878
21
-133.608
0
LINE
8
BLACK
6
CONTINUOUS
10
188.878
20
-133.608
11
189.151
21
-133.436
0
LINE
8
BLACK
6
CONTINUOUS
10
189.151
20
-133.436
11
189.442
21
-133.298
0
LINE
8
BLACK
6
CONTINUOUS
10
189.442
20
-133.298
11
189.747
21
-133.193
0
LINE
8
BLACK
6
CONTINUOUS
10
189.747
20
-133.193
11
190.062
21
-133.124
0
LINE
8
BLACK
6
CONTINUOUS
10
190.062
20
-133.124
11
190.383
21
-133.092
0
LINE
8
BLACK
6
CONTINUOUS
10
190.383
20
-133.092
11
190.705
21
-133.098
0
LINE
8
BLACK
6
CONTINUOUS
10
414.8
20
-133.769
11
414.881
21
-133.823
0
LINE
8
BLACK
6
CONTINUOUS
10
414.881
20
-133.823
11
414.935
21
-133.904
0
LINE
8
BLACK
6
CONTINUOUS
10
414.935
20
-133.904
11
414.954
21
-134
0
LINE
8
BLACK
6
CONTINUOUS
10
414.954
20
-134
11
414.954
21
-135.24
0
LINE
8
BLACK
6
CONTINUOUS
10
414.954
20
-135.24
11
414.935
21
-135.336
0
LINE
8
BLACK
6
CONTINUOUS
10
414.935
20
-135.336
11
414.881
21
-135.417
0
LINE
8
BLACK
6
CONTINUOUS
10
414.881
20
-135.417
11
414.8
21
-135.471
0
LINE
8
BLACK
6
CONTINUOUS
10
414.8
20
-135.471
11
414.704
21
-135.49
0
LINE
8
BLACK
6
CONTINUOUS
10
414.704
20
-135.49
11
413.014
21
-135.49
0
LINE
8
BLACK
6
CONTINUOUS
10
413.014
20
-135.49
11
412.918
21
-135.471
0
LINE
8
BLACK
6
CONTINUOUS
10
412.918
20
-135.471
11
412.837
21
-135.417
0
LINE
8
BLACK
6
CONTINUOUS
10
412.837
20
-135.417
11
412.783
21
-135.336
0
LINE
8
BLACK
6
CONTINUOUS
10
412.783
20
-135.336
11
412.764
21
-135.24
0
LINE
8
BLACK
6
CONTINUOUS
10
412.764
20
-135.24
11
412.764
21
-134
0
LINE
8
BLACK
6
CONTINUOUS
10
412.764
20
-134
11
412.783
21
-133.904
0
LINE
8
BLACK
6
CONTINUOUS
10
412.783
20
-133.904
11
412.837
21
-133.823
0
LINE
8
BLACK
6
CONTINUOUS
10
412.837
20
-133.823
11
412.918
21
-133.769
0
LINE
8
BLACK
6
CONTINUOUS
10
412.918
20
-133.769
11
413.014
21
-133.75
0
LINE
8
BLACK
6
CONTINUOUS
10
413.014
20
-133.75
11
414.704
21
-133.75
0
LINE
8
BLACK
6
CONTINUOUS
10
414.704
20
-133.75
11
414.8
21
-133.769
0
LINE
8
BLACK
6
CONTINUOUS
10
18.102
20
-133.755
11
18.2854
21
-133.796
0
LINE
8
BLACK
6
CONTINUOUS
10
18.2854
20
-133.796
11
18.4557
21
-133.876
0
LINE
8
BLACK
6
CONTINUOUS
10
18.4557
20
-133.876
11
18.605
21
-133.99
0
LINE
8
BLACK
6
CONTINUOUS
10
18.605
20
-133.99
11
18.7263
21
-134.134
0
LINE
8
BLACK
6
CONTINUOUS
10
18.7263
20
-134.134
11
18.8139
21
-134.3
0
LINE
8
BLACK
6
CONTINUOUS
10
18.8139
20
-134.3
11
18.8638
21
-134.481
0
LINE
8
BLACK
6
CONTINUOUS
10
18.8638
20
-134.481
11
18.8736
21
-134.669
0
LINE
8
BLACK
6
CONTINUOUS
10
18.8736
20
-134.669
11
18.843
21
-134.854
0
LINE
8
BLACK
6
CONTINUOUS
10
18.843
20
-134.854
11
18.7732
21
-135.028
0
LINE
8
BLACK
6
CONTINUOUS
10
18.7732
20
-135.028
11
18.6675
21
-135.184
0
LINE
8
BLACK
6
CONTINUOUS
10
18.6675
20
-135.184
11
18.531
21
-135.313
0
LINE
8
BLACK
6
CONTINUOUS
10
18.531
20
-135.313
11
18.3699
21
-135.41
0
LINE
8
BLACK
6
CONTINUOUS
10
18.3699
20
-135.41
11
18.1918
21
-135.47
0
LINE
8
BLACK
6
CONTINUOUS
10
18.1918
20
-135.47
11
18.005
21
-135.49
0
LINE
8
BLACK
6
CONTINUOUS
10
18.005
20
-135.49
11
17.555
21
-135.49
0
LINE
8
BLACK
6
CONTINUOUS
10
17.555
20
-135.49
11
17.458
21
-135.485
0
LINE
8
BLACK
6
CONTINUOUS
10
17.458
20
-135.485
11
17.2746
21
-135.444
0
LINE
8
BLACK
6
CONTINUOUS
10
17.2746
20
-135.444
11
17.1043
21
-135.364
0
LINE
8
BLACK
6
CONTINUOUS
10
17.1043
20
-135.364
11
16.955
21
-135.25
0
LINE
8
BLACK
6
CONTINUOUS
10
16.955
20
-135.25
11
16.8337
21
-135.106
0
LINE
8
BLACK
6
CONTINUOUS
10
16.8337
20
-135.106
11
16.7461
21
-134.94
0
LINE
8
BLACK
6
CONTINUOUS
10
16.7461
20
-134.94
11
16.6962
21
-134.759
0
LINE
8
BLACK
6
CONTINUOUS
10
16.6962
20
-134.759
11
16.6864
21
-134.571
0
LINE
8
BLACK
6
CONTINUOUS
10
16.6864
20
-134.571
11
16.717
21
-134.386
0
LINE
8
BLACK
6
CONTINUOUS
10
16.717
20
-134.386
11
16.7868
21
-134.212
0
LINE
8
BLACK
6
CONTINUOUS
10
16.7868
20
-134.212
11
16.8925
21
-134.056
0
LINE
8
BLACK
6
CONTINUOUS
10
16.8925
20
-134.056
11
17.029
21
-133.927
0
LINE
8
BLACK
6
CONTINUOUS
10
17.029
20
-133.927
11
17.1901
21
-133.83
0
LINE
8
BLACK
6
CONTINUOUS
10
17.1901
20
-133.83
11
17.3682
21
-133.77
0
LINE
8
BLACK
6
CONTINUOUS
10
17.3682
20
-133.77
11
17.555
21
-133.75
0
LINE
8
BLACK
6
CONTINUOUS
10
17.555
20
-133.75
11
18.005
21
-133.75
0
LINE
8
BLACK
6
CONTINUOUS
10
18.005
20
-133.75
11
18.102
21
-133.755
0
LINE
8
BLACK
6
CONTINUOUS
10
106.881
20
-133.005
11
107.068
21
-133.063
0
LINE
8
BLACK
6
CONTINUOUS
10
107.068
20
-133.063
11
107.239
21
-133.156
0
LINE
8
BLACK
6
CONTINUOUS
10
107.239
20
-133.156
11
107.39
21
-133.28
0
LINE
8
BLACK
6
CONTINUOUS
10
107.39
20
-133.28
11
107.513
21
-133.432
0
LINE
8
BLACK
6
CONTINUOUS
10
107.513
20
-133.432
11
107.605
21
-133.604
0
LINE
8
BLACK
6
CONTINUOUS
10
107.605
20
-133.604
11
107.661
21
-133.791
0
LINE
8
BLACK
6
CONTINUOUS
10
107.661
20
-133.791
11
107.68
21
-133.985
0
LINE
8
BLACK
6
CONTINUOUS
10
107.68
20
-133.985
11
107.68
21
-134.013
0
LINE
8
BLACK
6
CONTINUOUS
10
107.68
20
-134.013
11
107.655
21
-134.207
0
LINE
8
BLACK
6
CONTINUOUS
10
107.655
20
-134.207
11
107.594
21
-134.392
0
LINE
8
BLACK
6
CONTINUOUS
10
107.594
20
-134.392
11
107.497
21
-134.561
0
LINE
8
BLACK
6
CONTINUOUS
10
107.497
20
-134.561
11
107.37
21
-134.709
0
LINE
8
BLACK
6
CONTINUOUS
10
107.37
20
-134.709
11
107.216
21
-134.829
0
LINE
8
BLACK
6
CONTINUOUS
10
107.216
20
-134.829
11
107.042
21
-134.917
0
LINE
8
BLACK
6
CONTINUOUS
10
107.042
20
-134.917
11
106.854
21
-134.97
0
LINE
8
BLACK
6
CONTINUOUS
10
106.854
20
-134.97
11
106.659
21
-134.985
0
LINE
8
BLACK
6
CONTINUOUS
10
106.659
20
-134.985
11
106.465
21
-134.962
0
LINE
8
BLACK
6
CONTINUOUS
10
106.465
20
-134.962
11
106.28
21
-134.901
0
LINE
8
BLACK
6
CONTINUOUS
10
106.28
20
-134.901
11
106.109
21
-134.806
0
LINE
8
BLACK
6
CONTINUOUS
10
106.109
20
-134.806
11
105.961
21
-134.68
0
LINE
8
BLACK
6
CONTINUOUS
10
105.961
20
-134.68
11
105.839
21
-134.527
0
LINE
8
BLACK
6
CONTINUOUS
10
105.839
20
-134.527
11
105.75
21
-134.353
0
LINE
8
BLACK
6
CONTINUOUS
10
105.75
20
-134.353
11
105.696
21
-134.166
0
LINE
8
BLACK
6
CONTINUOUS
10
105.696
20
-134.166
11
105.68
21
-133.971
0
LINE
8
BLACK
6
CONTINUOUS
10
105.68
20
-133.971
11
105.702
21
-133.777
0
LINE
8
BLACK
6
CONTINUOUS
10
105.702
20
-133.777
11
105.761
21
-133.591
0
LINE
8
BLACK
6
CONTINUOUS
10
105.761
20
-133.591
11
105.855
21
-133.42
0
LINE
8
BLACK
6
CONTINUOUS
10
105.855
20
-133.42
11
105.98
21
-133.271
0
LINE
8
BLACK
6
CONTINUOUS
10
105.98
20
-133.271
11
106.132
21
-133.148
0
LINE
8
BLACK
6
CONTINUOUS
10
106.132
20
-133.148
11
106.305
21
-133.058
0
LINE
8
BLACK
6
CONTINUOUS
10
106.305
20
-133.058
11
106.493
21
-133.003
0
LINE
8
BLACK
6
CONTINUOUS
10
106.493
20
-133.003
11
106.687
21
-132.985
0
LINE
8
BLACK
6
CONTINUOUS
10
106.687
20
-132.985
11
106.881
21
-133.005
0
LINE
8
BLACK
6
CONTINUOUS
10
96.7211
20
-133.005
11
96.9075
21
-133.063
0
LINE
8
BLACK
6
CONTINUOUS
10
96.9075
20
-133.063
11
97.0792
21
-133.156
0
LINE
8
BLACK
6
CONTINUOUS
10
97.0792
20
-133.156
11
97.2296
21
-133.28
0
LINE
8
BLACK
6
CONTINUOUS
10
97.2296
20
-133.28
11
97.3529
21
-133.432
0
LINE
8
BLACK
6
CONTINUOUS
10
97.3529
20
-133.432
11
97.4445
21
-133.604
0
LINE
8
BLACK
6
CONTINUOUS
10
97.4445
20
-133.604
11
97.501
21
-133.791
0
LINE
8
BLACK
6
CONTINUOUS
10
97.501
20
-133.791
11
97.52
21
-133.985
0
LINE
8
BLACK
6
CONTINUOUS
10
97.52
20
-133.985
11
97.5196
21
-134.013
0
LINE
8
BLACK
6
CONTINUOUS
10
97.5196
20
-134.013
11
97.4951
21
-134.207
0
LINE
8
BLACK
6
CONTINUOUS
10
97.4951
20
-134.207
11
97.4335
21
-134.392
0
LINE
8
BLACK
6
CONTINUOUS
10
97.4335
20
-134.392
11
97.3371
21
-134.561
0
LINE
8
BLACK
6
CONTINUOUS
10
97.3371
20
-134.561
11
97.2096
21
-134.709
0
LINE
8
BLACK
6
CONTINUOUS
10
97.2096
20
-134.709
11
97.0558
21
-134.829
0
LINE
8
BLACK
6
CONTINUOUS
10
97.0558
20
-134.829
11
96.8816
21
-134.917
0
LINE
8
BLACK
6
CONTINUOUS
10
96.8816
20
-134.917
11
96.6936
21
-134.97
0
LINE
8
BLACK
6
CONTINUOUS
10
96.6936
20
-134.97
11
96.4991
21
-134.985
0
LINE
8
BLACK
6
CONTINUOUS
10
96.4991
20
-134.985
11
96.3053
21
-134.962
0
LINE
8
BLACK
6
CONTINUOUS
10
96.3053
20
-134.962
11
96.1197
21
-134.901
0
LINE
8
BLACK
6
CONTINUOUS
10
96.1197
20
-134.901
11
95.9493
21
-134.806
0
LINE
8
BLACK
6
CONTINUOUS
10
95.9493
20
-134.806
11
95.8007
21
-134.68
0
LINE
8
BLACK
6
CONTINUOUS
10
95.8007
20
-134.68
11
95.6794
21
-134.527
0
LINE
8
BLACK
6
CONTINUOUS
10
95.6794
20
-134.527
11
95.5902
21
-134.353
0
LINE
8
BLACK
6
CONTINUOUS
10
95.5902
20
-134.353
11
95.5364
21
-134.166
0
LINE
8
BLACK
6
CONTINUOUS
10
95.5364
20
-134.166
11
95.5201
21
-133.971
0
LINE
8
BLACK
6
CONTINUOUS
10
95.5201
20
-133.971
11
95.5419
21
-133.777
0
LINE
8
BLACK
6
CONTINUOUS
10
95.5419
20
-133.777
11
95.6009
21
-133.591
0
LINE
8
BLACK
6
CONTINUOUS
10
95.6009
20
-133.591
11
95.6949
21
-133.42
0
LINE
8
BLACK
6
CONTINUOUS
10
95.6949
20
-133.42
11
95.8203
21
-133.271
0
LINE
8
BLACK
6
CONTINUOUS
10
95.8203
20
-133.271
11
95.9724
21
-133.148
0
LINE
8
BLACK
6
CONTINUOUS
10
95.9724
20
-133.148
11
96.1454
21
-133.058
0
LINE
8
BLACK
6
CONTINUOUS
10
96.1454
20
-133.058
11
96.3326
21
-133.003
0
LINE
8
BLACK
6
CONTINUOUS
10
96.3326
20
-133.003
11
96.527
21
-132.985
0
LINE
8
BLACK
6
CONTINUOUS
10
96.527
20
-132.985
11
96.7211
21
-133.005
0
LINE
8
BLACK
6
CONTINUOUS
10
127.201
20
-133.005
11
127.388
21
-133.063
0
LINE
8
BLACK
6
CONTINUOUS
10
127.388
20
-133.063
11
127.559
21
-133.156
0
LINE
8
BLACK
6
CONTINUOUS
10
127.559
20
-133.156
11
127.71
21
-133.28
0
LINE
8
BLACK
6
CONTINUOUS
10
127.71
20
-133.28
11
127.833
21
-133.432
0
LINE
8
BLACK
6
CONTINUOUS
10
127.833
20
-133.432
11
127.925
21
-133.604
0
LINE
8
BLACK
6
CONTINUOUS
10
127.925
20
-133.604
11
127.981
21
-133.791
0
LINE
8
BLACK
6
CONTINUOUS
10
127.981
20
-133.791
11
128
21
-133.985
0
LINE
8
BLACK
6
CONTINUOUS
10
128
20
-133.985
11
128
21
-134.013
0
LINE
8
BLACK
6
CONTINUOUS
10
128
20
-134.013
11
127.975
21
-134.207
0
LINE
8
BLACK
6
CONTINUOUS
10
127.975
20
-134.207
11
127.914
21
-134.392
0
LINE
8
BLACK
6
CONTINUOUS
10
127.914
20
-134.392
11
127.817
21
-134.561
0
LINE
8
BLACK
6
CONTINUOUS
10
127.817
20
-134.561
11
127.69
21
-134.709
0
LINE
8
BLACK
6
CONTINUOUS
10
127.69
20
-134.709
11
127.536
21
-134.829
0
LINE
8
BLACK
6
CONTINUOUS
10
127.536
20
-134.829
11
127.362
21
-134.917
0
LINE
8
BLACK
6
CONTINUOUS
10
127.362
20
-134.917
11
127.174
21
-134.97
0
LINE
8
BLACK
6
CONTINUOUS
10
127.174
20
-134.97
11
126.979
21
-134.985
0
LINE
8
BLACK
6
CONTINUOUS
10
126.979
20
-134.985
11
126.785
21
-134.962
0
LINE
8
BLACK
6
CONTINUOUS
10
126.785
20
-134.962
11
126.6
21
-134.901
0
LINE
8
BLACK
6
CONTINUOUS
10
126.6
20
-134.901
11
126.429
21
-134.806
0
LINE
8
BLACK
6
CONTINUOUS
10
126.429
20
-134.806
11
126.281
21
-134.68
0
LINE
8
BLACK
6
CONTINUOUS
10
126.281
20
-134.68
11
126.159
21
-134.527
0
LINE
8
BLACK
6
CONTINUOUS
10
126.159
20
-134.527
11
126.07
21
-134.353
0
LINE
8
BLACK
6
CONTINUOUS
10
126.07
20
-134.353
11
126.016
21
-134.166
0
LINE
8
BLACK
6
CONTINUOUS
10
126.016
20
-134.166
11
126
21
-133.971
0
LINE
8
BLACK
6
CONTINUOUS
10
126
20
-133.971
11
126.022
21
-133.777
0
LINE
8
BLACK
6
CONTINUOUS
10
126.022
20
-133.777
11
126.081
21
-133.591
0
LINE
8
BLACK
6
CONTINUOUS
10
126.081
20
-133.591
11
126.175
21
-133.42
0
LINE
8
BLACK
6
CONTINUOUS
10
126.175
20
-133.42
11
126.3
21
-133.271
0
LINE
8
BLACK
6
CONTINUOUS
10
126.3
20
-133.271
11
126.452
21
-133.148
0
LINE
8
BLACK
6
CONTINUOUS
10
126.452
20
-133.148
11
126.625
21
-133.058
0
LINE
8
BLACK
6
CONTINUOUS
10
126.625
20
-133.058
11
126.813
21
-133.003
0
LINE
8
BLACK
6
CONTINUOUS
10
126.813
20
-133.003
11
127.007
21
-132.985
0
LINE
8
BLACK
6
CONTINUOUS
10
127.007
20
-132.985
11
127.201
21
-133.005
0
LINE
8
BLACK
6
CONTINUOUS
10
117.041
20
-133.005
11
117.228
21
-133.063
0
LINE
8
BLACK
6
CONTINUOUS
10
117.228
20
-133.063
11
117.399
21
-133.156
0
LINE
8
BLACK
6
CONTINUOUS
10
117.399
20
-133.156
11
117.55
21
-133.28
0
LINE
8
BLACK
6
CONTINUOUS
10
117.55
20
-133.28
11
117.673
21
-133.432
0
LINE
8
BLACK
6
CONTINUOUS
10
117.673
20
-133.432
11
117.765
21
-133.604
0
LINE
8
BLACK
6
CONTINUOUS
10
117.765
20
-133.604
11
117.821
21
-133.791
0
LINE
8
BLACK
6
CONTINUOUS
10
117.821
20
-133.791
11
117.84
21
-133.985
0
LINE
8
BLACK
6
CONTINUOUS
10
117.84
20
-133.985
11
117.84
21
-134.013
0
LINE
8
BLACK
6
CONTINUOUS
10
117.84
20
-134.013
11
117.815
21
-134.207
0
LINE
8
BLACK
6
CONTINUOUS
10
117.815
20
-134.207
11
117.754
21
-134.392
0
LINE
8
BLACK
6
CONTINUOUS
10
117.754
20
-134.392
11
117.657
21
-134.561
0
LINE
8
BLACK
6
CONTINUOUS
10
117.657
20
-134.561
11
117.53
21
-134.709
0
LINE
8
BLACK
6
CONTINUOUS
10
117.53
20
-134.709
11
117.376
21
-134.829
0
LINE
8
BLACK
6
CONTINUOUS
10
117.376
20
-134.829
11
117.202
21
-134.917
0
LINE
8
BLACK
6
CONTINUOUS
10
117.202
20
-134.917
11
117.014
21
-134.97
0
LINE
8
BLACK
6
CONTINUOUS
10
117.014
20
-134.97
11
116.819
21
-134.985
0
LINE
8
BLACK
6
CONTINUOUS
10
116.819
20
-134.985
11
116.625
21
-134.962
0
LINE
8
BLACK
6
CONTINUOUS
10
116.625
20
-134.962
11
116.44
21
-134.901
0
LINE
8
BLACK
6
CONTINUOUS
10
116.44
20
-134.901
11
116.269
21
-134.806
0
LINE
8
BLACK
6
CONTINUOUS
10
116.269
20
-134.806
11
116.121
21
-134.68
0
LINE
8
BLACK
6
CONTINUOUS
10
116.121
20
-134.68
11
115.999
21
-134.527
0
LINE
8
BLACK
6
CONTINUOUS
10
115.999
20
-134.527
11
115.91
21
-134.353
0
LINE
8
BLACK
6
CONTINUOUS
10
115.91
20
-134.353
11
115.856
21
-134.166
0
LINE
8
BLACK
6
CONTINUOUS
10
115.856
20
-134.166
11
115.84
21
-133.971
0
LINE
8
BLACK
6
CONTINUOUS
10
115.84
20
-133.971
11
115.862
21
-133.777
0
LINE
8
BLACK
6
CONTINUOUS
10
115.862
20
-133.777
11
115.921
21
-133.591
0
LINE
8
BLACK
6
CONTINUOUS
10
115.921
20
-133.591
11
116.015
21
-133.42
0
LINE
8
BLACK
6
CONTINUOUS
10
116.015
20
-133.42
11
116.14
21
-133.271
0
LINE
8
BLACK
6
CONTINUOUS
10
116.14
20
-133.271
11
116.292
21
-133.148
0
LINE
8
BLACK
6
CONTINUOUS
10
116.292
20
-133.148
11
116.465
21
-133.058
0
LINE
8
BLACK
6
CONTINUOUS
10
116.465
20
-133.058
11
116.653
21
-133.003
0
LINE
8
BLACK
6
CONTINUOUS
10
116.653
20
-133.003
11
116.847
21
-132.985
0
LINE
8
BLACK
6
CONTINUOUS
10
116.847
20
-132.985
11
117.041
21
-133.005
0
LINE
8
BLACK
6
CONTINUOUS
10
18.102
20
-131.215
11
18.2854
21
-131.256
0
LINE
8
BLACK
6
CONTINUOUS
10
18.2854
20
-131.256
11
18.4557
21
-131.336
0
LINE
8
BLACK
6
CONTINUOUS
10
18.4557
20
-131.336
11
18.605
21
-131.45
0
LINE
8
BLACK
6
CONTINUOUS
10
18.605
20
-131.45
11
18.7263
21
-131.594
0
LINE
8
BLACK
6
CONTINUOUS
10
18.7263
20
-131.594
11
18.8139
21
-131.76
0
LINE
8
BLACK
6
CONTINUOUS
10
18.8139
20
-131.76
11
18.8638
21
-131.941
0
LINE
8
BLACK
6
CONTINUOUS
10
18.8638
20
-131.941
11
18.8736
21
-132.129
0
LINE
8
BLACK
6
CONTINUOUS
10
18.8736
20
-132.129
11
18.843
21
-132.314
0
LINE
8
BLACK
6
CONTINUOUS
10
18.843
20
-132.314
11
18.7732
21
-132.488
0
LINE
8
BLACK
6
CONTINUOUS
10
18.7732
20
-132.488
11
18.6675
21
-132.644
0
LINE
8
BLACK
6
CONTINUOUS
10
18.6675
20
-132.644
11
18.531
21
-132.773
0
LINE
8
BLACK
6
CONTINUOUS
10
18.531
20
-132.773
11
18.3699
21
-132.87
0
LINE
8
BLACK
6
CONTINUOUS
10
18.3699
20
-132.87
11
18.1918
21
-132.93
0
LINE
8
BLACK
6
CONTINUOUS
10
18.1918
20
-132.93
11
18.005
21
-132.95
0
LINE
8
BLACK
6
CONTINUOUS
10
18.005
20
-132.95
11
17.555
21
-132.95
0
LINE
8
BLACK
6
CONTINUOUS
10
17.555
20
-132.95
11
17.458
21
-132.945
0
LINE
8
BLACK
6
CONTINUOUS
10
17.458
20
-132.945
11
17.2746
21
-132.904
0
LINE
8
BLACK
6
CONTINUOUS
10
17.2746
20
-132.904
11
17.1043
21
-132.824
0
LINE
8
BLACK
6
CONTINUOUS
10
17.1043
20
-132.824
11
16.955
21
-132.71
0
LINE
8
BLACK
6
CONTINUOUS
10
16.955
20
-132.71
11
16.8337
21
-132.566
0
LINE
8
BLACK
6
CONTINUOUS
10
16.8337
20
-132.566
11
16.7461
21
-132.4
0
LINE
8
BLACK
6
CONTINUOUS
10
16.7461
20
-132.4
11
16.6962
21
-132.219
0
LINE
8
BLACK
6
CONTINUOUS
10
16.6962
20
-132.219
11
16.6864
21
-132.031
0
LINE
8
BLACK
6
CONTINUOUS
10
16.6864
20
-132.031
11
16.717
21
-131.846
0
LINE
8
BLACK
6
CONTINUOUS
10
16.717
20
-131.846
11
16.7868
21
-131.672
0
LINE
8
BLACK
6
CONTINUOUS
10
16.7868
20
-131.672
11
16.8925
21
-131.516
0
LINE
8
BLACK
6
CONTINUOUS
10
16.8925
20
-131.516
11
17.029
21
-131.387
0
LINE
8
BLACK
6
CONTINUOUS
10
17.029
20
-131.387
11
17.1901
21
-131.29
0
LINE
8
BLACK
6
CONTINUOUS
10
17.1901
20
-131.29
11
17.3682
21
-131.23
0
LINE
8
BLACK
6
CONTINUOUS
10
17.3682
20
-131.23
11
17.555
21
-131.21
0
LINE
8
BLACK
6
CONTINUOUS
10
17.555
20
-131.21
11
18.005
21
-131.21
0
LINE
8
BLACK
6
CONTINUOUS
10
18.005
20
-131.21
11
18.102
21
-131.215
0
LINE
8
BLACK
6
CONTINUOUS
10
414.181
20
-131.215
11
414.364
21
-131.256
0
LINE
8
BLACK
6
CONTINUOUS
10
414.364
20
-131.256
11
414.535
21
-131.336
0
LINE
8
BLACK
6
CONTINUOUS
10
414.535
20
-131.336
11
414.684
21
-131.45
0
LINE
8
BLACK
6
CONTINUOUS
10
414.684
20
-131.45
11
414.805
21
-131.594
0
LINE
8
BLACK
6
CONTINUOUS
10
414.805
20
-131.594
11
414.893
21
-131.76
0
LINE
8
BLACK
6
CONTINUOUS
10
414.893
20
-131.76
11
414.943
21
-131.941
0
LINE
8
BLACK
6
CONTINUOUS
10
414.943
20
-131.941
11
414.953
21
-132.129
0
LINE
8
BLACK
6
CONTINUOUS
10
414.953
20
-132.129
11
414.922
21
-132.314
0
LINE
8
BLACK
6
CONTINUOUS
10
414.922
20
-132.314
11
414.852
21
-132.488
0
LINE
8
BLACK
6
CONTINUOUS
10
414.852
20
-132.488
11
414.747
21
-132.644
0
LINE
8
BLACK
6
CONTINUOUS
10
414.747
20
-132.644
11
414.61
21
-132.773
0
LINE
8
BLACK
6
CONTINUOUS
10
414.61
20
-132.773
11
414.449
21
-132.87
0
LINE
8
BLACK
6
CONTINUOUS
10
414.449
20
-132.87
11
414.271
21
-132.93
0
LINE
8
BLACK
6
CONTINUOUS
10
414.271
20
-132.93
11
414.084
21
-132.95
0
LINE
8
BLACK
6
CONTINUOUS
10
414.084
20
-132.95
11
413.634
21
-132.95
0
LINE
8
BLACK
6
CONTINUOUS
10
413.634
20
-132.95
11
413.537
21
-132.945
0
LINE
8
BLACK
6
CONTINUOUS
10
413.537
20
-132.945
11
413.354
21
-132.904
0
LINE
8
BLACK
6
CONTINUOUS
10
413.354
20
-132.904
11
413.183
21
-132.824
0
LINE
8
BLACK
6
CONTINUOUS
10
413.183
20
-132.824
11
413.034
21
-132.71
0
LINE
8
BLACK
6
CONTINUOUS
10
413.034
20
-132.71
11
412.913
21
-132.566
0
LINE
8
BLACK
6
CONTINUOUS
10
412.913
20
-132.566
11
412.825
21
-132.4
0
LINE
8
BLACK
6
CONTINUOUS
10
412.825
20
-132.4
11
412.775
21
-132.219
0
LINE
8
BLACK
6
CONTINUOUS
10
412.775
20
-132.219
11
412.765
21
-132.031
0
LINE
8
BLACK
6
CONTINUOUS
10
412.765
20
-132.031
11
412.796
21
-131.846
0
LINE
8
BLACK
6
CONTINUOUS
10
412.796
20
-131.846
11
412.866
21
-131.672
0
LINE
8
BLACK
6
CONTINUOUS
10
412.866
20
-131.672
11
412.971
21
-131.516
0
LINE
8
BLACK
6
CONTINUOUS
10
412.971
20
-131.516
11
413.108
21
-131.387
0
LINE
8
BLACK
6
CONTINUOUS
10
413.108
20
-131.387
11
413.269
21
-131.29
0
LINE
8
BLACK
6
CONTINUOUS
10
413.269
20
-131.29
11
413.447
21
-131.23
0
LINE
8
BLACK
6
CONTINUOUS
10
413.447
20
-131.23
11
413.634
21
-131.21
0
LINE
8
BLACK
6
CONTINUOUS
10
413.634
20
-131.21
11
414.084
21
-131.21
0
LINE
8
BLACK
6
CONTINUOUS
10
414.084
20
-131.21
11
414.181
21
-131.215
0
LINE
8
BLACK
6
CONTINUOUS
10
18.102
20
-128.675
11
18.2854
21
-128.716
0
LINE
8
BLACK
6
CONTINUOUS
10
18.2854
20
-128.716
11
18.4557
21
-128.796
0
LINE
8
BLACK
6
CONTINUOUS
10
18.4557
20
-128.796
11
18.605
21
-128.91
0
LINE
8
BLACK
6
CONTINUOUS
10
18.605
20
-128.91
11
18.7263
21
-129.054
0
LINE
8
BLACK
6
CONTINUOUS
10
18.7263
20
-129.054
11
18.8139
21
-129.22
0
LINE
8
BLACK
6
CONTINUOUS
10
18.8139
20
-129.22
11
18.8638
21
-129.401
0
LINE
8
BLACK
6
CONTINUOUS
10
18.8638
20
-129.401
11
18.8736
21
-129.589
0
LINE
8
BLACK
6
CONTINUOUS
10
18.8736
20
-129.589
11
18.843
21
-129.774
0
LINE
8
BLACK
6
CONTINUOUS
10
18.843
20
-129.774
11
18.7732
21
-129.948
0
LINE
8
BLACK
6
CONTINUOUS
10
18.7732
20
-129.948
11
18.6675
21
-130.104
0
LINE
8
BLACK
6
CONTINUOUS
10
18.6675
20
-130.104
11
18.531
21
-130.233
0
LINE
8
BLACK
6
CONTINUOUS
10
18.531
20
-130.233
11
18.3699
21
-130.33
0
LINE
8
BLACK
6
CONTINUOUS
10
18.3699
20
-130.33
11
18.1918
21
-130.39
0
LINE
8
BLACK
6
CONTINUOUS
10
18.1918
20
-130.39
11
18.005
21
-130.41
0
LINE
8
BLACK
6
CONTINUOUS
10
18.005
20
-130.41
11
17.555
21
-130.41
0
LINE
8
BLACK
6
CONTINUOUS
10
17.555
20
-130.41
11
17.458
21
-130.405
0
LINE
8
BLACK
6
CONTINUOUS
10
17.458
20
-130.405
11
17.2746
21
-130.364
0
LINE
8
BLACK
6
CONTINUOUS
10
17.2746
20
-130.364
11
17.1043
21
-130.284
0
LINE
8
BLACK
6
CONTINUOUS
10
17.1043
20
-130.284
11
16.955
21
-130.17
0
LINE
8
BLACK
6
CONTINUOUS
10
16.955
20
-130.17
11
16.8337
21
-130.026
0
LINE
8
BLACK
6
CONTINUOUS
10
16.8337
20
-130.026
11
16.7461
21
-129.86
0
LINE
8
BLACK
6
CONTINUOUS
10
16.7461
20
-129.86
11
16.6962
21
-129.679
0
LINE
8
BLACK
6
CONTINUOUS
10
16.6962
20
-129.679
11
16.6864
21
-129.491
0
LINE
8
BLACK
6
CONTINUOUS
10
16.6864
20
-129.491
11
16.717
21
-129.306
0
LINE
8
BLACK
6
CONTINUOUS
10
16.717
20
-129.306
11
16.7868
21
-129.132
0
LINE
8
BLACK
6
CONTINUOUS
10
16.7868
20
-129.132
11
16.8925
21
-128.976
0
LINE
8
BLACK
6
CONTINUOUS
10
16.8925
20
-128.976
11
17.029
21
-128.847
0
LINE
8
BLACK
6
CONTINUOUS
10
17.029
20
-128.847
11
17.1901
21
-128.75
0
LINE
8
BLACK
6
CONTINUOUS
10
17.1901
20
-128.75
11
17.3682
21
-128.69
0
LINE
8
BLACK
6
CONTINUOUS
10
17.3682
20
-128.69
11
17.555
21
-128.67
0
LINE
8
BLACK
6
CONTINUOUS
10
17.555
20
-128.67
11
18.005
21
-128.67
0
LINE
8
BLACK
6
CONTINUOUS
10
18.005
20
-128.67
11
18.102
21
-128.675
0
LINE
8
BLACK
6
CONTINUOUS
10
414.181
20
-128.675
11
414.364
21
-128.716
0
LINE
8
BLACK
6
CONTINUOUS
10
414.364
20
-128.716
11
414.535
21
-128.796
0
LINE
8
BLACK
6
CONTINUOUS
10
414.535
20
-128.796
11
414.684
21
-128.91
0
LINE
8
BLACK
6
CONTINUOUS
10
414.684
20
-128.91
11
414.805
21
-129.054
0
LINE
8
BLACK
6
CONTINUOUS
10
414.805
20
-129.054
11
414.893
21
-129.22
0
LINE
8
BLACK
6
CONTINUOUS
10
414.893
20
-129.22
11
414.943
21
-129.401
0
LINE
8
BLACK
6
CONTINUOUS
10
414.943
20
-129.401
11
414.953
21
-129.589
0
LINE
8
BLACK
6
CONTINUOUS
10
414.953
20
-129.589
11
414.922
21
-129.774
0
LINE
8
BLACK
6
CONTINUOUS
10
414.922
20
-129.774
11
414.852
21
-129.948
0
LINE
8
BLACK
6
CONTINUOUS
10
414.852
20
-129.948
11
414.747
21
-130.104
0
LINE
8
BLACK
6
CONTINUOUS
10
414.747
20
-130.104
11
414.61
21
-130.233
0
LINE
8
BLACK
6
CONTINUOUS
10
414.61
20
-130.233
11
414.449
21
-130.33
0
LINE
8
BLACK
6
CONTINUOUS
10
414.449
20
-130.33
11
414.271
21
-130.39
0
LINE
8
BLACK
6
CONTINUOUS
10
414.271
20
-130.39
11
414.084
21
-130.41
0
LINE
8
BLACK
6
CONTINUOUS
10
414.084
20
-130.41
11
413.634
21
-130.41
0
LINE
8
BLACK
6
CONTINUOUS
10
413.634
20
-130.41
11
413.537
21
-130.405
0
LINE
8
BLACK
6
CONTINUOUS
10
413.537
20
-130.405
11
413.354
21
-130.364
0
LINE
8
BLACK
6
CONTINUOUS
10
413.354
20
-130.364
11
413.183
21
-130.284
0
LINE
8
BLACK
6
CONTINUOUS
10
413.183
20
-130.284
11
413.034
21
-130.17
0
LINE
8
BLACK
6
CONTINUOUS
10
413.034
20
-130.17
11
412.913
21
-130.026
0
LINE
8
BLACK
6
CONTINUOUS
10
412.913
20
-130.026
11
412.825
21
-129.86
0
LINE
8
BLACK
6
CONTINUOUS
10
412.825
20
-129.86
11
412.775
21
-129.679
0
LINE
8
BLACK
6
CONTINUOUS
10
412.775
20
-129.679
11
412.765
21
-129.491
0
LINE
8
BLACK
6
CONTINUOUS
10
412.765
20
-129.491
11
412.796
21
-129.306
0
LINE
8
BLACK
6
CONTINUOUS
10
412.796
20
-129.306
11
412.866
21
-129.132
0
LINE
8
BLACK
6
CONTINUOUS
10
412.866
20
-129.132
11
412.971
21
-128.976
0
LINE
8
BLACK
6
CONTINUOUS
10
412.971
20
-128.976
11
413.108
21
-128.847
0
LINE
8
BLACK
6
CONTINUOUS
10
413.108
20
-128.847
11
413.269
21
-128.75
0
LINE
8
BLACK
6
CONTINUOUS
10
413.269
20
-128.75
11
413.447
21
-128.69
0
LINE
8
BLACK
6
CONTINUOUS
10
413.447
20
-128.69
11
413.634
21
-128.67
0
LINE
8
BLACK
6
CONTINUOUS
10
413.634
20
-128.67
11
414.084
21
-128.67
0
LINE
8
BLACK
6
CONTINUOUS
10
414.084
20
-128.67
11
414.181
21
-128.675
0
LINE
8
BLACK
6
CONTINUOUS
10
414.181
20
-126.135
11
414.364
21
-126.176
0
LINE
8
BLACK
6
CONTINUOUS
10
414.364
20
-126.176
11
414.535
21
-126.256
0
LINE
8
BLACK
6
CONTINUOUS
10
414.535
20
-126.256
11
414.684
21
-126.37
0
LINE
8
BLACK
6
CONTINUOUS
10
414.684
20
-126.37
11
414.805
21
-126.514
0
LINE
8
BLACK
6
CONTINUOUS
10
414.805
20
-126.514
11
414.893
21
-126.68
0
LINE
8
BLACK
6
CONTINUOUS
10
414.893
20
-126.68
11
414.943
21
-126.861
0
LINE
8
BLACK
6
CONTINUOUS
10
414.943
20
-126.861
11
414.953
21
-127.049
0
LINE
8
BLACK
6
CONTINUOUS
10
414.953
20
-127.049
11
414.922
21
-127.234
0
LINE
8
BLACK
6
CONTINUOUS
10
414.922
20
-127.234
11
414.852
21
-127.408
0
LINE
8
BLACK
6
CONTINUOUS
10
414.852
20
-127.408
11
414.747
21
-127.564
0
LINE
8
BLACK
6
CONTINUOUS
10
414.747
20
-127.564
11
414.61
21
-127.693
0
LINE
8
BLACK
6
CONTINUOUS
10
414.61
20
-127.693
11
414.449
21
-127.79
0
LINE
8
BLACK
6
CONTINUOUS
10
414.449
20
-127.79
11
414.271
21
-127.85
0
LINE
8
BLACK
6
CONTINUOUS
10
414.271
20
-127.85
11
414.084
21
-127.87
0
LINE
8
BLACK
6
CONTINUOUS
10
414.084
20
-127.87
11
413.634
21
-127.87
0
LINE
8
BLACK
6
CONTINUOUS
10
413.634
20
-127.87
11
413.537
21
-127.865
0
LINE
8
BLACK
6
CONTINUOUS
10
413.537
20
-127.865
11
413.354
21
-127.824
0
LINE
8
BLACK
6
CONTINUOUS
10
413.354
20
-127.824
11
413.183
21
-127.744
0
LINE
8
BLACK
6
CONTINUOUS
10
413.183
20
-127.744
11
413.034
21
-127.63
0
LINE
8
BLACK
6
CONTINUOUS
10
413.034
20
-127.63
11
412.913
21
-127.486
0
LINE
8
BLACK
6
CONTINUOUS
10
412.913
20
-127.486
11
412.825
21
-127.32
0
LINE
8
BLACK
6
CONTINUOUS
10
412.825
20
-127.32
11
412.775
21
-127.139
0
LINE
8
BLACK
6
CONTINUOUS
10
412.775
20
-127.139
11
412.765
21
-126.951
0
LINE
8
BLACK
6
CONTINUOUS
10
412.765
20
-126.951
11
412.796
21
-126.766
0
LINE
8
BLACK
6
CONTINUOUS
10
412.796
20
-126.766
11
412.866
21
-126.592
0
LINE
8
BLACK
6
CONTINUOUS
10
412.866
20
-126.592
11
412.971
21
-126.436
0
LINE
8
BLACK
6
CONTINUOUS
10
412.971
20
-126.436
11
413.108
21
-126.307
0
LINE
8
BLACK
6
CONTINUOUS
10
413.108
20
-126.307
11
413.269
21
-126.21
0
LINE
8
BLACK
6
CONTINUOUS
10
413.269
20
-126.21
11
413.447
21
-126.15
0
LINE
8
BLACK
6
CONTINUOUS
10
413.447
20
-126.15
11
413.634
21
-126.13
0
LINE
8
BLACK
6
CONTINUOUS
10
413.634
20
-126.13
11
414.084
21
-126.13
0
LINE
8
BLACK
6
CONTINUOUS
10
414.084
20
-126.13
11
414.181
21
-126.135
0
LINE
8
BLACK
6
CONTINUOUS
10
18.102
20
-126.135
11
18.2854
21
-126.176
0
LINE
8
BLACK
6
CONTINUOUS
10
18.2854
20
-126.176
11
18.4557
21
-126.256
0
LINE
8
BLACK
6
CONTINUOUS
10
18.4557
20
-126.256
11
18.605
21
-126.37
0
LINE
8
BLACK
6
CONTINUOUS
10
18.605
20
-126.37
11
18.7263
21
-126.514
0
LINE
8
BLACK
6
CONTINUOUS
10
18.7263
20
-126.514
11
18.8139
21
-126.68
0
LINE
8
BLACK
6
CONTINUOUS
10
18.8139
20
-126.68
11
18.8638
21
-126.861
0
LINE
8
BLACK
6
CONTINUOUS
10
18.8638
20
-126.861
11
18.8736
21
-127.049
0
LINE
8
BLACK
6
CONTINUOUS
10
18.8736
20
-127.049
11
18.843
21
-127.234
0
LINE
8
BLACK
6
CONTINUOUS
10
18.843
20
-127.234
11
18.7732
21
-127.408
0
LINE
8
BLACK
6
CONTINUOUS
10
18.7732
20
-127.408
11
18.6675
21
-127.564
0
LINE
8
BLACK
6
CONTINUOUS
10
18.6675
20
-127.564
11
18.531
21
-127.693
0
LINE
8
BLACK
6
CONTINUOUS
10
18.531
20
-127.693
11
18.3699
21
-127.79
0
LINE
8
BLACK
6
CONTINUOUS
10
18.3699
20
-127.79
11
18.1918
21
-127.85
0
LINE
8
BLACK
6
CONTINUOUS
10
18.1918
20
-127.85
11
18.005
21
-127.87
0
LINE
8
BLACK
6
CONTINUOUS
10
18.005
20
-127.87
11
17.555
21
-127.87
0
LINE
8
BLACK
6
CONTINUOUS
10
17.555
20
-127.87
11
17.458
21
-127.865
0
LINE
8
BLACK
6
CONTINUOUS
10
17.458
20
-127.865
11
17.2746
21
-127.824
0
LINE
8
BLACK
6
CONTINUOUS
10
17.2746
20
-127.824
11
17.1043
21
-127.744
0
LINE
8
BLACK
6
CONTINUOUS
10
17.1043
20
-127.744
11
16.955
21
-127.63
0
LINE
8
BLACK
6
CONTINUOUS
10
16.955
20
-127.63
11
16.8337
21
-127.486
0
LINE
8
BLACK
6
CONTINUOUS
10
16.8337
20
-127.486
11
16.7461
21
-127.32
0
LINE
8
BLACK
6
CONTINUOUS
10
16.7461
20
-127.32
11
16.6962
21
-127.139
0
LINE
8
BLACK
6
CONTINUOUS
10
16.6962
20
-127.139
11
16.6864
21
-126.951
0
LINE
8
BLACK
6
CONTINUOUS
10
16.6864
20
-126.951
11
16.717
21
-126.766
0
LINE
8
BLACK
6
CONTINUOUS
10
16.717
20
-126.766
11
16.7868
21
-126.592
0
LINE
8
BLACK
6
CONTINUOUS
10
16.7868
20
-126.592
11
16.8925
21
-126.436
0
LINE
8
BLACK
6
CONTINUOUS
10
16.8925
20
-126.436
11
17.029
21
-126.307
0
LINE
8
BLACK
6
CONTINUOUS
10
17.029
20
-126.307
11
17.1901
21
-126.21
0
LINE
8
BLACK
6
CONTINUOUS
10
17.1901
20
-126.21
11
17.3682
21
-126.15
0
LINE
8
BLACK
6
CONTINUOUS
10
17.3682
20
-126.15
11
17.555
21
-126.13
0
LINE
8
BLACK
6
CONTINUOUS
10
17.555
20
-126.13
11
18.005
21
-126.13
0
LINE
8
BLACK
6
CONTINUOUS
10
18.005
20
-126.13
11
18.102
21
-126.135
0
LINE
8
BLACK
6
CONTINUOUS
10
414.181
20
-123.595
11
414.364
21
-123.636
0
LINE
8
BLACK
6
CONTINUOUS
10
414.364
20
-123.636
11
414.535
21
-123.716
0
LINE
8
BLACK
6
CONTINUOUS
10
414.535
20
-123.716
11
414.684
21
-123.83
0
LINE
8
BLACK
6
CONTINUOUS
10
414.684
20
-123.83
11
414.805
21
-123.974
0
LINE
8
BLACK
6
CONTINUOUS
10
414.805
20
-123.974
11
414.893
21
-124.14
0
LINE
8
BLACK
6
CONTINUOUS
10
414.893
20
-124.14
11
414.943
21
-124.321
0
LINE
8
BLACK
6
CONTINUOUS
10
414.943
20
-124.321
11
414.953
21
-124.509
0
LINE
8
BLACK
6
CONTINUOUS
10
414.953
20
-124.509
11
414.922
21
-124.694
0
LINE
8
BLACK
6
CONTINUOUS
10
414.922
20
-124.694
11
414.852
21
-124.868
0
LINE
8
BLACK
6
CONTINUOUS
10
414.852
20
-124.868
11
414.747
21
-125.024
0
LINE
8
BLACK
6
CONTINUOUS
10
414.747
20
-125.024
11
414.61
21
-125.153
0
LINE
8
BLACK
6
CONTINUOUS
10
414.61
20
-125.153
11
414.449
21
-125.25
0
LINE
8
BLACK
6
CONTINUOUS
10
414.449
20
-125.25
11
414.271
21
-125.31
0
LINE
8
BLACK
6
CONTINUOUS
10
414.271
20
-125.31
11
414.084
21
-125.33
0
LINE
8
BLACK
6
CONTINUOUS
10
414.084
20
-125.33
11
413.634
21
-125.33
0
LINE
8
BLACK
6
CONTINUOUS
10
413.634
20
-125.33
11
413.537
21
-125.325
0
LINE
8
BLACK
6
CONTINUOUS
10
413.537
20
-125.325
11
413.354
21
-125.284
0
LINE
8
BLACK
6
CONTINUOUS
10
413.354
20
-125.284
11
413.183
21
-125.204
0
LINE
8
BLACK
6
CONTINUOUS
10
413.183
20
-125.204
11
413.034
21
-125.09
0
LINE
8
BLACK
6
CONTINUOUS
10
413.034
20
-125.09
11
412.913
21
-124.946
0
LINE
8
BLACK
6
CONTINUOUS
10
412.913
20
-124.946
11
412.825
21
-124.78
0
LINE
8
BLACK
6
CONTINUOUS
10
412.825
20
-124.78
11
412.775
21
-124.599
0
LINE
8
BLACK
6
CONTINUOUS
10
412.775
20
-124.599
11
412.765
21
-124.411
0
LINE
8
BLACK
6
CONTINUOUS
10
412.765
20
-124.411
11
412.796
21
-124.226
0
LINE
8
BLACK
6
CONTINUOUS
10
412.796
20
-124.226
11
412.866
21
-124.052
0
LINE
8
BLACK
6
CONTINUOUS
10
412.866
20
-124.052
11
412.971
21
-123.896
0
LINE
8
BLACK
6
CONTINUOUS
10
412.971
20
-123.896
11
413.108
21
-123.767
0
LINE
8
BLACK
6
CONTINUOUS
10
413.108
20
-123.767
11
413.269
21
-123.67
0
LINE
8
BLACK
6
CONTINUOUS
10
413.269
20
-123.67
11
413.447
21
-123.61
0
LINE
8
BLACK
6
CONTINUOUS
10
413.447
20
-123.61
11
413.634
21
-123.59
0
LINE
8
BLACK
6
CONTINUOUS
10
413.634
20
-123.59
11
414.084
21
-123.59
0
LINE
8
BLACK
6
CONTINUOUS
10
414.084
20
-123.59
11
414.181
21
-123.595
0
LINE
8
BLACK
6
CONTINUOUS
10
18.102
20
-123.595
11
18.2854
21
-123.636
0
LINE
8
BLACK
6
CONTINUOUS
10
18.2854
20
-123.636
11
18.4557
21
-123.716
0
LINE
8
BLACK
6
CONTINUOUS
10
18.4557
20
-123.716
11
18.605
21
-123.83
0
LINE
8
BLACK
6
CONTINUOUS
10
18.605
20
-123.83
11
18.7263
21
-123.974
0
LINE
8
BLACK
6
CONTINUOUS
10
18.7263
20
-123.974
11
18.8139
21
-124.14
0
LINE
8
BLACK
6
CONTINUOUS
10
18.8139
20
-124.14
11
18.8638
21
-124.321
0
LINE
8
BLACK
6
CONTINUOUS
10
18.8638
20
-124.321
11
18.8736
21
-124.509
0
LINE
8
BLACK
6
CONTINUOUS
10
18.8736
20
-124.509
11
18.843
21
-124.694
0
LINE
8
BLACK
6
CONTINUOUS
10
18.843
20
-124.694
11
18.7732
21
-124.868
0
LINE
8
BLACK
6
CONTINUOUS
10
18.7732
20
-124.868
11
18.6675
21
-125.024
0
LINE
8
BLACK
6
CONTINUOUS
10
18.6675
20
-125.024
11
18.531
21
-125.153
0
LINE
8
BLACK
6
CONTINUOUS
10
18.531
20
-125.153
11
18.3699
21
-125.25
0
LINE
8
BLACK
6
CONTINUOUS
10
18.3699
20
-125.25
11
18.1918
21
-125.31
0
LINE
8
BLACK
6
CONTINUOUS
10
18.1918
20
-125.31
11
18.005
21
-125.33
0
LINE
8
BLACK
6
CONTINUOUS
10
18.005
20
-125.33
11
17.555
21
-125.33
0
LINE
8
BLACK
6
CONTINUOUS
10
17.555
20
-125.33
11
17.458
21
-125.325
0
LINE
8
BLACK
6
CONTINUOUS
10
17.458
20
-125.325
11
17.2746
21
-125.284
0
LINE
8
BLACK
6
CONTINUOUS
10
17.2746
20
-125.284
11
17.1043
21
-125.204
0
LINE
8
BLACK
6
CONTINUOUS
10
17.1043
20
-125.204
11
16.955
21
-125.09
0
LINE
8
BLACK
6
CONTINUOUS
10
16.955
20
-125.09
11
16.8337
21
-124.946
0
LINE
8
BLACK
6
CONTINUOUS
10
16.8337
20
-124.946
11
16.7461
21
-124.78
0
LINE
8
BLACK
6
CONTINUOUS
10
16.7461
20
-124.78
11
16.6962
21
-124.599
0
LINE
8
BLACK
6
CONTINUOUS
10
16.6962
20
-124.599
11
16.6864
21
-124.411
0
LINE
8
BLACK
6
CONTINUOUS
10
16.6864
20
-124.411
11
16.717
21
-124.226
0
LINE
8
BLACK
6
CONTINUOUS
10
16.717
20
-124.226
11
16.7868
21
-124.052
0
LINE
8
BLACK
6
CONTINUOUS
10
16.7868
20
-124.052
11
16.8925
21
-123.896
0
LINE
8
BLACK
6
CONTINUOUS
10
16.8925
20
-123.896
11
17.029
21
-123.767
0
LINE
8
BLACK
6
CONTINUOUS
10
17.029
20
-123.767
11
17.1901
21
-123.67
0
LINE
8
BLACK
6
CONTINUOUS
10
17.1901
20
-123.67
11
17.3682
21
-123.61
0
LINE
8
BLACK
6
CONTINUOUS
10
17.3682
20
-123.61
11
17.555
21
-123.59
0
LINE
8
BLACK
6
CONTINUOUS
10
17.555
20
-123.59
11
18.005
21
-123.59
0
LINE
8
BLACK
6
CONTINUOUS
10
18.005
20
-123.59
11
18.102
21
-123.595
0
LINE
8
BLACK
6
CONTINUOUS
10
414.181
20
-121.055
11
414.364
21
-121.096
0
LINE
8
BLACK
6
CONTINUOUS
10
414.364
20
-121.096
11
414.535
21
-121.176
0
LINE
8
BLACK
6
CONTINUOUS
10
414.535
20
-121.176
11
414.684
21
-121.29
0
LINE
8
BLACK
6
CONTINUOUS
10
414.684
20
-121.29
11
414.805
21
-121.434
0
LINE
8
BLACK
6
CONTINUOUS
10
414.805
20
-121.434
11
414.893
21
-121.6
0
LINE
8
BLACK
6
CONTINUOUS
10
414.893
20
-121.6
11
414.943
21
-121.781
0
LINE
8
BLACK
6
CONTINUOUS
10
414.943
20
-121.781
11
414.953
21
-121.969
0
LINE
8
BLACK
6
CONTINUOUS
10
414.953
20
-121.969
11
414.922
21
-122.154
0
LINE
8
BLACK
6
CONTINUOUS
10
414.922
20
-122.154
11
414.852
21
-122.328
0
LINE
8
BLACK
6
CONTINUOUS
10
414.852
20
-122.328
11
414.747
21
-122.484
0
LINE
8
BLACK
6
CONTINUOUS
10
414.747
20
-122.484
11
414.61
21
-122.613
0
LINE
8
BLACK
6
CONTINUOUS
10
414.61
20
-122.613
11
414.449
21
-122.71
0
LINE
8
BLACK
6
CONTINUOUS
10
414.449
20
-122.71
11
414.271
21
-122.77
0
LINE
8
BLACK
6
CONTINUOUS
10
414.271
20
-122.77
11
414.084
21
-122.79
0
LINE
8
BLACK
6
CONTINUOUS
10
414.084
20
-122.79
11
413.634
21
-122.79
0
LINE
8
BLACK
6
CONTINUOUS
10
413.634
20
-122.79
11
413.537
21
-122.785
0
LINE
8
BLACK
6
CONTINUOUS
10
413.537
20
-122.785
11
413.354
21
-122.744
0
LINE
8
BLACK
6
CONTINUOUS
10
413.354
20
-122.744
11
413.183
21
-122.664
0
LINE
8
BLACK
6
CONTINUOUS
10
413.183
20
-122.664
11
413.034
21
-122.55
0
LINE
8
BLACK
6
CONTINUOUS
10
413.034
20
-122.55
11
412.913
21
-122.406
0
LINE
8
BLACK
6
CONTINUOUS
10
412.913
20
-122.406
11
412.825
21
-122.24
0
LINE
8
BLACK
6
CONTINUOUS
10
412.825
20
-122.24
11
412.775
21
-122.059
0
LINE
8
BLACK
6
CONTINUOUS
10
412.775
20
-122.059
11
412.765
21
-121.871
0
LINE
8
BLACK
6
CONTINUOUS
10
412.765
20
-121.871
11
412.796
21
-121.686
0
LINE
8
BLACK
6
CONTINUOUS
10
412.796
20
-121.686
11
412.866
21
-121.512
0
LINE
8
BLACK
6
CONTINUOUS
10
412.866
20
-121.512
11
412.971
21
-121.356
0
LINE
8
BLACK
6
CONTINUOUS
10
412.971
20
-121.356
11
413.108
21
-121.227
0
LINE
8
BLACK
6
CONTINUOUS
10
413.108
20
-121.227
11
413.269
21
-121.13
0
LINE
8
BLACK
6
CONTINUOUS
10
413.269
20
-121.13
11
413.447
21
-121.07
0
LINE
8
BLACK
6
CONTINUOUS
10
413.447
20
-121.07
11
413.634
21
-121.05
0
LINE
8
BLACK
6
CONTINUOUS
10
413.634
20
-121.05
11
414.084
21
-121.05
0
LINE
8
BLACK
6
CONTINUOUS
10
414.084
20
-121.05
11
414.181
21
-121.055
0
LINE
8
BLACK
6
CONTINUOUS
10
18.7207
20
-121.069
11
18.8018
21
-121.123
0
LINE
8
BLACK
6
CONTINUOUS
10
18.8018
20
-121.123
11
18.856
21
-121.204
0
LINE
8
BLACK
6
CONTINUOUS
10
18.856
20
-121.204
11
18.875
21
-121.3
0
LINE
8
BLACK
6
CONTINUOUS
10
18.875
20
-121.3
11
18.875
21
-122.54
0
LINE
8
BLACK
6
CONTINUOUS
10
18.875
20
-122.54
11
18.856
21
-122.636
0
LINE
8
BLACK
6
CONTINUOUS
10
18.856
20
-122.636
11
18.8018
21
-122.717
0
LINE
8
BLACK
6
CONTINUOUS
10
18.8018
20
-122.717
11
18.7207
21
-122.771
0
LINE
8
BLACK
6
CONTINUOUS
10
18.7207
20
-122.771
11
18.625
21
-122.79
0
LINE
8
BLACK
6
CONTINUOUS
10
18.625
20
-122.79
11
16.935
21
-122.79
0
LINE
8
BLACK
6
CONTINUOUS
10
16.935
20
-122.79
11
16.8393
21
-122.771
0
LINE
8
BLACK
6
CONTINUOUS
10
16.8393
20
-122.771
11
16.7582
21
-122.717
0
LINE
8
BLACK
6
CONTINUOUS
10
16.7582
20
-122.717
11
16.704
21
-122.636
0
LINE
8
BLACK
6
CONTINUOUS
10
16.704
20
-122.636
11
16.685
21
-122.54
0
LINE
8
BLACK
6
CONTINUOUS
10
16.685
20
-122.54
11
16.685
21
-121.3
0
LINE
8
BLACK
6
CONTINUOUS
10
16.685
20
-121.3
11
16.704
21
-121.204
0
LINE
8
BLACK
6
CONTINUOUS
10
16.704
20
-121.204
11
16.7582
21
-121.123
0
LINE
8
BLACK
6
CONTINUOUS
10
16.7582
20
-121.123
11
16.8393
21
-121.069
0
LINE
8
BLACK
6
CONTINUOUS
10
16.8393
20
-121.069
11
16.935
21
-121.05
0
LINE
8
BLACK
6
CONTINUOUS
10
16.935
20
-121.05
11
18.625
21
-121.05
0
LINE
8
BLACK
6
CONTINUOUS
10
18.625
20
-121.05
11
18.7207
21
-121.069
0
LINE
8
BLACK
6
CONTINUOUS
10
26.139
20
-119.991
11
24.339
21
-119.991
0
LINE
8
BLACK
6
CONTINUOUS
10
24.339
20
-119.991
11
24.339
21
-118.191
0
LINE
8
BLACK
6
CONTINUOUS
10
24.339
20
-118.191
11
26.139
21
-118.191
0
LINE
8
BLACK
6
CONTINUOUS
10
26.139
20
-118.191
11
26.139
21
-119.991
0
LINE
8
BLACK
6
CONTINUOUS
10
178.539
20
-119.991
11
176.739
21
-119.991
0
LINE
8
BLACK
6
CONTINUOUS
10
176.739
20
-119.991
11
176.739
21
-118.191
0
LINE
8
BLACK
6
CONTINUOUS
10
176.739
20
-118.191
11
178.539
21
-118.191
0
LINE
8
BLACK
6
CONTINUOUS
10
178.539
20
-118.191
11
178.539
21
-119.991
0
LINE
8
BLACK
6
CONTINUOUS
10
381.739
20
-119.991
11
379.939
21
-119.991
0
LINE
8
BLACK
6
CONTINUOUS
10
379.939
20
-119.991
11
379.939
21
-118.191
0
LINE
8
BLACK
6
CONTINUOUS
10
379.939
20
-118.191
11
381.739
21
-118.191
0
LINE
8
BLACK
6
CONTINUOUS
10
381.739
20
-118.191
11
381.739
21
-119.991
0
LINE
8
BLACK
6
CONTINUOUS
10
254.739
20
-119.991
11
252.939
21
-119.991
0
LINE
8
BLACK
6
CONTINUOUS
10
252.939
20
-119.991
11
252.939
21
-118.191
0
LINE
8
BLACK
6
CONTINUOUS
10
252.939
20
-118.191
11
254.739
21
-118.191
0
LINE
8
BLACK
6
CONTINUOUS
10
254.739
20
-118.191
11
254.739
21
-119.991
0
LINE
8
BLACK
6
CONTINUOUS
10
203.939
20
-119.991
11
202.139
21
-119.991
0
LINE
8
BLACK
6
CONTINUOUS
10
202.139
20
-119.991
11
202.139
21
-118.191
0
LINE
8
BLACK
6
CONTINUOUS
10
202.139
20
-118.191
11
203.939
21
-118.191
0
LINE
8
BLACK
6
CONTINUOUS
10
203.939
20
-118.191
11
203.939
21
-119.991
0
LINE
8
BLACK
6
CONTINUOUS
10
127.739
20
-119.991
11
125.939
21
-119.991
0
LINE
8
BLACK
6
CONTINUOUS
10
125.939
20
-119.991
11
125.939
21
-118.191
0
LINE
8
BLACK
6
CONTINUOUS
10
125.939
20
-118.191
11
127.739
21
-118.191
0
LINE
8
BLACK
6
CONTINUOUS
10
127.739
20
-118.191
11
127.739
21
-119.991
0
LINE
8
BLACK
6
CONTINUOUS
10
76.939
20
-119.991
11
75.139
21
-119.991
0
LINE
8
BLACK
6
CONTINUOUS
10
75.139
20
-119.991
11
75.139
21
-118.191
0
LINE
8
BLACK
6
CONTINUOUS
10
75.139
20
-118.191
11
76.939
21
-118.191
0
LINE
8
BLACK
6
CONTINUOUS
10
76.939
20
-118.191
11
76.939
21
-119.991
0
LINE
8
BLACK
6
CONTINUOUS
10
280.139
20
-119.991
11
278.339
21
-119.991
0
LINE
8
BLACK
6
CONTINUOUS
10
278.339
20
-119.991
11
278.339
21
-118.191
0
LINE
8
BLACK
6
CONTINUOUS
10
278.339
20
-118.191
11
280.139
21
-118.191
0
LINE
8
BLACK
6
CONTINUOUS
10
280.139
20
-118.191
11
280.139
21
-119.991
0
LINE
8
BLACK
6
CONTINUOUS
10
102.339
20
-119.991
11
100.539
21
-119.991
0
LINE
8
BLACK
6
CONTINUOUS
10
100.539
20
-119.991
11
100.539
21
-118.191
0
LINE
8
BLACK
6
CONTINUOUS
10
100.539
20
-118.191
11
102.339
21
-118.191
0
LINE
8
BLACK
6
CONTINUOUS
10
102.339
20
-118.191
11
102.339
21
-119.991
0
LINE
8
BLACK
6
CONTINUOUS
10
330.939
20
-119.991
11
329.139
21
-119.991
0
LINE
8
BLACK
6
CONTINUOUS
10
329.139
20
-119.991
11
329.139
21
-118.191
0
LINE
8
BLACK
6
CONTINUOUS
10
329.139
20
-118.191
11
330.939
21
-118.191
0
LINE
8
BLACK
6
CONTINUOUS
10
330.939
20
-118.191
11
330.939
21
-119.991
0
LINE
8
BLACK
6
CONTINUOUS
10
407.139
20
-119.991
11
405.339
21
-119.991
0
LINE
8
BLACK
6
CONTINUOUS
10
405.339
20
-119.991
11
405.339
21
-118.191
0
LINE
8
BLACK
6
CONTINUOUS
10
405.339
20
-118.191
11
407.139
21
-118.191
0
LINE
8
BLACK
6
CONTINUOUS
10
407.139
20
-118.191
11
407.139
21
-119.991
0
LINE
8
BLACK
6
CONTINUOUS
10
51.539
20
-119.991
11
49.739
21
-119.991
0
LINE
8
BLACK
6
CONTINUOUS
10
49.739
20
-119.991
11
49.739
21
-118.191
0
LINE
8
BLACK
6
CONTINUOUS
10
49.739
20
-118.191
11
51.539
21
-118.191
0
LINE
8
BLACK
6
CONTINUOUS
10
51.539
20
-118.191
11
51.539
21
-119.991
0
LINE
8
BLACK
6
CONTINUOUS
10
153.139
20
-119.991
11
151.339
21
-119.991
0
LINE
8
BLACK
6
CONTINUOUS
10
151.339
20
-119.991
11
151.339
21
-118.191
0
LINE
8
BLACK
6
CONTINUOUS
10
151.339
20
-118.191
11
153.139
21
-118.191
0
LINE
8
BLACK
6
CONTINUOUS
10
153.139
20
-118.191
11
153.139
21
-119.991
0
LINE
8
BLACK
6
CONTINUOUS
10
305.539
20
-119.991
11
303.739
21
-119.991
0
LINE
8
BLACK
6
CONTINUOUS
10
303.739
20
-119.991
11
303.739
21
-118.191
0
LINE
8
BLACK
6
CONTINUOUS
10
303.739
20
-118.191
11
305.539
21
-118.191
0
LINE
8
BLACK
6
CONTINUOUS
10
305.539
20
-118.191
11
305.539
21
-119.991
0
LINE
8
BLACK
6
CONTINUOUS
10
356.339
20
-119.991
11
354.539
21
-119.991
0
LINE
8
BLACK
6
CONTINUOUS
10
354.539
20
-119.991
11
354.539
21
-118.191
0
LINE
8
BLACK
6
CONTINUOUS
10
354.539
20
-118.191
11
356.339
21
-118.191
0
LINE
8
BLACK
6
CONTINUOUS
10
356.339
20
-118.191
11
356.339
21
-119.991
0
LINE
8
BLACK
6
CONTINUOUS
10
229.339
20
-119.991
11
227.539
21
-119.991
0
LINE
8
BLACK
6
CONTINUOUS
10
227.539
20
-119.991
11
227.539
21
-118.191
0
LINE
8
BLACK
6
CONTINUOUS
10
227.539
20
-118.191
11
229.339
21
-118.191
0
LINE
8
BLACK
6
CONTINUOUS
10
229.339
20
-118.191
11
229.339
21
-119.991
0
LINE
8
BLACK
6
CONTINUOUS
10
406.517
20
-115.695
11
406.689
21
-115.772
0
LINE
8
BLACK
6
CONTINUOUS
10
406.689
20
-115.772
11
406.841
21
-115.882
0
LINE
8
BLACK
6
CONTINUOUS
10
406.841
20
-115.882
11
406.967
21
-116.022
0
LINE
8
BLACK
6
CONTINUOUS
10
406.967
20
-116.022
11
407.061
21
-116.185
0
LINE
8
BLACK
6
CONTINUOUS
10
407.061
20
-116.185
11
407.119
21
-116.364
0
LINE
8
BLACK
6
CONTINUOUS
10
407.119
20
-116.364
11
407.139
21
-116.551
0
LINE
8
BLACK
6
CONTINUOUS
10
407.139
20
-116.551
11
407.119
21
-116.738
0
LINE
8
BLACK
6
CONTINUOUS
10
407.119
20
-116.738
11
407.061
21
-116.917
0
LINE
8
BLACK
6
CONTINUOUS
10
407.061
20
-116.917
11
406.967
21
-117.08
0
LINE
8
BLACK
6
CONTINUOUS
10
406.967
20
-117.08
11
406.841
21
-117.22
0
LINE
8
BLACK
6
CONTINUOUS
10
406.841
20
-117.22
11
406.689
21
-117.33
0
LINE
8
BLACK
6
CONTINUOUS
10
406.689
20
-117.33
11
406.517
21
-117.407
0
LINE
8
BLACK
6
CONTINUOUS
10
406.517
20
-117.407
11
406.333
21
-117.446
0
LINE
8
BLACK
6
CONTINUOUS
10
406.333
20
-117.446
11
406.145
21
-117.446
0
LINE
8
BLACK
6
CONTINUOUS
10
406.145
20
-117.446
11
405.961
21
-117.407
0
LINE
8
BLACK
6
CONTINUOUS
10
405.961
20
-117.407
11
405.789
21
-117.33
0
LINE
8
BLACK
6
CONTINUOUS
10
405.789
20
-117.33
11
405.637
21
-117.22
0
LINE
8
BLACK
6
CONTINUOUS
10
405.637
20
-117.22
11
405.511
21
-117.08
0
LINE
8
BLACK
6
CONTINUOUS
10
405.511
20
-117.08
11
405.417
21
-116.917
0
LINE
8
BLACK
6
CONTINUOUS
10
405.417
20
-116.917
11
405.359
21
-116.738
0
LINE
8
BLACK
6
CONTINUOUS
10
405.359
20
-116.738
11
405.339
21
-116.551
0
LINE
8
BLACK
6
CONTINUOUS
10
405.339
20
-116.551
11
405.359
21
-116.364
0
LINE
8
BLACK
6
CONTINUOUS
10
405.359
20
-116.364
11
405.417
21
-116.185
0
LINE
8
BLACK
6
CONTINUOUS
10
405.417
20
-116.185
11
405.511
21
-116.022
0
LINE
8
BLACK
6
CONTINUOUS
10
405.511
20
-116.022
11
405.637
21
-115.882
0
LINE
8
BLACK
6
CONTINUOUS
10
405.637
20
-115.882
11
405.789
21
-115.772
0
LINE
8
BLACK
6
CONTINUOUS
10
405.789
20
-115.772
11
405.961
21
-115.695
0
LINE
8
BLACK
6
CONTINUOUS
10
405.961
20
-115.695
11
406.145
21
-115.656
0
LINE
8
BLACK
6
CONTINUOUS
10
406.145
20
-115.656
11
406.333
21
-115.656
0
LINE
8
BLACK
6
CONTINUOUS
10
406.333
20
-115.656
11
406.517
21
-115.695
0
LINE
8
BLACK
6
CONTINUOUS
10
254.117
20
-115.695
11
254.289
21
-115.772
0
LINE
8
BLACK
6
CONTINUOUS
10
254.289
20
-115.772
11
254.441
21
-115.882
0
LINE
8
BLACK
6
CONTINUOUS
10
254.441
20
-115.882
11
254.567
21
-116.022
0
LINE
8
BLACK
6
CONTINUOUS
10
254.567
20
-116.022
11
254.661
21
-116.185
0
LINE
8
BLACK
6
CONTINUOUS
10
254.661
20
-116.185
11
254.719
21
-116.364
0
LINE
8
BLACK
6
CONTINUOUS
10
254.719
20
-116.364
11
254.739
21
-116.551
0
LINE
8
BLACK
6
CONTINUOUS
10
254.739
20
-116.551
11
254.719
21
-116.738
0
LINE
8
BLACK
6
CONTINUOUS
10
254.719
20
-116.738
11
254.661
21
-116.917
0
LINE
8
BLACK
6
CONTINUOUS
10
254.661
20
-116.917
11
254.567
21
-117.08
0
LINE
8
BLACK
6
CONTINUOUS
10
254.567
20
-117.08
11
254.441
21
-117.22
0
LINE
8
BLACK
6
CONTINUOUS
10
254.441
20
-117.22
11
254.289
21
-117.33
0
LINE
8
BLACK
6
CONTINUOUS
10
254.289
20
-117.33
11
254.117
21
-117.407
0
LINE
8
BLACK
6
CONTINUOUS
10
254.117
20
-117.407
11
253.933
21
-117.446
0
LINE
8
BLACK
6
CONTINUOUS
10
253.933
20
-117.446
11
253.745
21
-117.446
0
LINE
8
BLACK
6
CONTINUOUS
10
253.745
20
-117.446
11
253.561
21
-117.407
0
LINE
8
BLACK
6
CONTINUOUS
10
253.561
20
-117.407
11
253.389
21
-117.33
0
LINE
8
BLACK
6
CONTINUOUS
10
253.389
20
-117.33
11
253.237
21
-117.22
0
LINE
8
BLACK
6
CONTINUOUS
10
253.237
20
-117.22
11
253.111
21
-117.08
0
LINE
8
BLACK
6
CONTINUOUS
10
253.111
20
-117.08
11
253.017
21
-116.917
0
LINE
8
BLACK
6
CONTINUOUS
10
253.017
20
-116.917
11
252.959
21
-116.738
0
LINE
8
BLACK
6
CONTINUOUS
10
252.959
20
-116.738
11
252.939
21
-116.551
0
LINE
8
BLACK
6
CONTINUOUS
10
252.939
20
-116.551
11
252.959
21
-116.364
0
LINE
8
BLACK
6
CONTINUOUS
10
252.959
20
-116.364
11
253.017
21
-116.185
0
LINE
8
BLACK
6
CONTINUOUS
10
253.017
20
-116.185
11
253.111
21
-116.022
0
LINE
8
BLACK
6
CONTINUOUS
10
253.111
20
-116.022
11
253.237
21
-115.882
0
LINE
8
BLACK
6
CONTINUOUS
10
253.237
20
-115.882
11
253.389
21
-115.772
0
LINE
8
BLACK
6
CONTINUOUS
10
253.389
20
-115.772
11
253.561
21
-115.695
0
LINE
8
BLACK
6
CONTINUOUS
10
253.561
20
-115.695
11
253.745
21
-115.656
0
LINE
8
BLACK
6
CONTINUOUS
10
253.745
20
-115.656
11
253.933
21
-115.656
0
LINE
8
BLACK
6
CONTINUOUS
10
253.933
20
-115.656
11
254.117
21
-115.695
0
LINE
8
BLACK
6
CONTINUOUS
10
152.517
20
-115.695
11
152.689
21
-115.772
0
LINE
8
BLACK
6
CONTINUOUS
10
152.689
20
-115.772
11
152.841
21
-115.882
0
LINE
8
BLACK
6
CONTINUOUS
10
152.841
20
-115.882
11
152.967
21
-116.022
0
LINE
8
BLACK
6
CONTINUOUS
10
152.967
20
-116.022
11
153.061
21
-116.185
0
LINE
8
BLACK
6
CONTINUOUS
10
153.061
20
-116.185
11
153.119
21
-116.364
0
LINE
8
BLACK
6
CONTINUOUS
10
153.119
20
-116.364
11
153.139
21
-116.551
0
LINE
8
BLACK
6
CONTINUOUS
10
153.139
20
-116.551
11
153.119
21
-116.738
0
LINE
8
BLACK
6
CONTINUOUS
10
153.119
20
-116.738
11
153.061
21
-116.917
0
LINE
8
BLACK
6
CONTINUOUS
10
153.061
20
-116.917
11
152.967
21
-117.08
0
LINE
8
BLACK
6
CONTINUOUS
10
152.967
20
-117.08
11
152.841
21
-117.22
0
LINE
8
BLACK
6
CONTINUOUS
10
152.841
20
-117.22
11
152.689
21
-117.33
0
LINE
8
BLACK
6
CONTINUOUS
10
152.689
20
-117.33
11
152.517
21
-117.407
0
LINE
8
BLACK
6
CONTINUOUS
10
152.517
20
-117.407
11
152.333
21
-117.446
0
LINE
8
BLACK
6
CONTINUOUS
10
152.333
20
-117.446
11
152.145
21
-117.446
0
LINE
8
BLACK
6
CONTINUOUS
10
152.145
20
-117.446
11
151.961
21
-117.407
0
LINE
8
BLACK
6
CONTINUOUS
10
151.961
20
-117.407
11
151.789
21
-117.33
0
LINE
8
BLACK
6
CONTINUOUS
10
151.789
20
-117.33
11
151.637
21
-117.22
0
LINE
8
BLACK
6
CONTINUOUS
10
151.637
20
-117.22
11
151.511
21
-117.08
0
LINE
8
BLACK
6
CONTINUOUS
10
151.511
20
-117.08
11
151.417
21
-116.917
0
LINE
8
BLACK
6
CONTINUOUS
10
151.417
20
-116.917
11
151.359
21
-116.738
0
LINE
8
BLACK
6
CONTINUOUS
10
151.359
20
-116.738
11
151.339
21
-116.551
0
LINE
8
BLACK
6
CONTINUOUS
10
151.339
20
-116.551
11
151.359
21
-116.364
0
LINE
8
BLACK
6
CONTINUOUS
10
151.359
20
-116.364
11
151.417
21
-116.185
0
LINE
8
BLACK
6
CONTINUOUS
10
151.417
20
-116.185
11
151.511
21
-116.022
0
LINE
8
BLACK
6
CONTINUOUS
10
151.511
20
-116.022
11
151.637
21
-115.882
0
LINE
8
BLACK
6
CONTINUOUS
10
151.637
20
-115.882
11
151.789
21
-115.772
0
LINE
8
BLACK
6
CONTINUOUS
10
151.789
20
-115.772
11
151.961
21
-115.695
0
LINE
8
BLACK
6
CONTINUOUS
10
151.961
20
-115.695
11
152.145
21
-115.656
0
LINE
8
BLACK
6
CONTINUOUS
10
152.145
20
-115.656
11
152.333
21
-115.656
0
LINE
8
BLACK
6
CONTINUOUS
10
152.333
20
-115.656
11
152.517
21
-115.695
0
LINE
8
BLACK
6
CONTINUOUS
10
101.717
20
-115.695
11
101.889
21
-115.772
0
LINE
8
BLACK
6
CONTINUOUS
10
101.889
20
-115.772
11
102.041
21
-115.882
0
LINE
8
BLACK
6
CONTINUOUS
10
102.041
20
-115.882
11
102.167
21
-116.022
0
LINE
8
BLACK
6
CONTINUOUS
10
102.167
20
-116.022
11
102.261
21
-116.185
0
LINE
8
BLACK
6
CONTINUOUS
10
102.261
20
-116.185
11
102.319
21
-116.364
0
LINE
8
BLACK
6
CONTINUOUS
10
102.319
20
-116.364
11
102.339
21
-116.551
0
LINE
8
BLACK
6
CONTINUOUS
10
102.339
20
-116.551
11
102.319
21
-116.738
0
LINE
8
BLACK
6
CONTINUOUS
10
102.319
20
-116.738
11
102.261
21
-116.917
0
LINE
8
BLACK
6
CONTINUOUS
10
102.261
20
-116.917
11
102.167
21
-117.08
0
LINE
8
BLACK
6
CONTINUOUS
10
102.167
20
-117.08
11
102.041
21
-117.22
0
LINE
8
BLACK
6
CONTINUOUS
10
102.041
20
-117.22
11
101.889
21
-117.33
0
LINE
8
BLACK
6
CONTINUOUS
10
101.889
20
-117.33
11
101.717
21
-117.407
0
LINE
8
BLACK
6
CONTINUOUS
10
101.717
20
-117.407
11
101.533
21
-117.446
0
LINE
8
BLACK
6
CONTINUOUS
10
101.533
20
-117.446
11
101.345
21
-117.446
0
LINE
8
BLACK
6
CONTINUOUS
10
101.345
20
-117.446
11
101.161
21
-117.407
0
LINE
8
BLACK
6
CONTINUOUS
10
101.161
20
-117.407
11
100.989
21
-117.33
0
LINE
8
BLACK
6
CONTINUOUS
10
100.989
20
-117.33
11
100.837
21
-117.22
0
LINE
8
BLACK
6
CONTINUOUS
10
100.837
20
-117.22
11
100.711
21
-117.08
0
LINE
8
BLACK
6
CONTINUOUS
10
100.711
20
-117.08
11
100.617
21
-116.917
0
LINE
8
BLACK
6
CONTINUOUS
10
100.617
20
-116.917
11
100.559
21
-116.738
0
LINE
8
BLACK
6
CONTINUOUS
10
100.559
20
-116.738
11
100.539
21
-116.551
0
LINE
8
BLACK
6
CONTINUOUS
10
100.539
20
-116.551
11
100.559
21
-116.364
0
LINE
8
BLACK
6
CONTINUOUS
10
100.559
20
-116.364
11
100.617
21
-116.185
0
LINE
8
BLACK
6
CONTINUOUS
10
100.617
20
-116.185
11
100.711
21
-116.022
0
LINE
8
BLACK
6
CONTINUOUS
10
100.711
20
-116.022
11
100.837
21
-115.882
0
LINE
8
BLACK
6
CONTINUOUS
10
100.837
20
-115.882
11
100.989
21
-115.772
0
LINE
8
BLACK
6
CONTINUOUS
10
100.989
20
-115.772
11
101.161
21
-115.695
0
LINE
8
BLACK
6
CONTINUOUS
10
101.161
20
-115.695
11
101.345
21
-115.656
0
LINE
8
BLACK
6
CONTINUOUS
10
101.345
20
-115.656
11
101.533
21
-115.656
0
LINE
8
BLACK
6
CONTINUOUS
10
101.533
20
-115.656
11
101.717
21
-115.695
0
LINE
8
BLACK
6
CONTINUOUS
10
127.117
20
-115.695
11
127.289
21
-115.772
0
LINE
8
BLACK
6
CONTINUOUS
10
127.289
20
-115.772
11
127.441
21
-115.882
0
LINE
8
BLACK
6
CONTINUOUS
10
127.441
20
-115.882
11
127.567
21
-116.022
0
LINE
8
BLACK
6
CONTINUOUS
10
127.567
20
-116.022
11
127.661
21
-116.185
0
LINE
8
BLACK
6
CONTINUOUS
10
127.661
20
-116.185
11
127.719
21
-116.364
0
LINE
8
BLACK
6
CONTINUOUS
10
127.719
20
-116.364
11
127.739
21
-116.551
0
LINE
8
BLACK
6
CONTINUOUS
10
127.739
20
-116.551
11
127.719
21
-116.738
0
LINE
8
BLACK
6
CONTINUOUS
10
127.719
20
-116.738
11
127.661
21
-116.917
0
LINE
8
BLACK
6
CONTINUOUS
10
127.661
20
-116.917
11
127.567
21
-117.08
0
LINE
8
BLACK
6
CONTINUOUS
10
127.567
20
-117.08
11
127.441
21
-117.22
0
LINE
8
BLACK
6
CONTINUOUS
10
127.441
20
-117.22
11
127.289
21
-117.33
0
LINE
8
BLACK
6
CONTINUOUS
10
127.289
20
-117.33
11
127.117
21
-117.407
0
LINE
8
BLACK
6
CONTINUOUS
10
127.117
20
-117.407
11
126.933
21
-117.446
0
LINE
8
BLACK
6
CONTINUOUS
10
126.933
20
-117.446
11
126.745
21
-117.446
0
LINE
8
BLACK
6
CONTINUOUS
10
126.745
20
-117.446
11
126.561
21
-117.407
0
LINE
8
BLACK
6
CONTINUOUS
10
126.561
20
-117.407
11
126.389
21
-117.33
0
LINE
8
BLACK
6
CONTINUOUS
10
126.389
20
-117.33
11
126.237
21
-117.22
0
LINE
8
BLACK
6
CONTINUOUS
10
126.237
20
-117.22
11
126.111
21
-117.08
0
LINE
8
BLACK
6
CONTINUOUS
10
126.111
20
-117.08
11
126.017
21
-116.917
0
LINE
8
BLACK
6
CONTINUOUS
10
126.017
20
-116.917
11
125.959
21
-116.738
0
LINE
8
BLACK
6
CONTINUOUS
10
125.959
20
-116.738
11
125.939
21
-116.551
0
LINE
8
BLACK
6
CONTINUOUS
10
125.939
20
-116.551
11
125.959
21
-116.364
0
LINE
8
BLACK
6
CONTINUOUS
10
125.959
20
-116.364
11
126.017
21
-116.185
0
LINE
8
BLACK
6
CONTINUOUS
10
126.017
20
-116.185
11
126.111
21
-116.022
0
LINE
8
BLACK
6
CONTINUOUS
10
126.111
20
-116.022
11
126.237
21
-115.882
0
LINE
8
BLACK
6
CONTINUOUS
10
126.237
20
-115.882
11
126.389
21
-115.772
0
LINE
8
BLACK
6
CONTINUOUS
10
126.389
20
-115.772
11
126.561
21
-115.695
0
LINE
8
BLACK
6
CONTINUOUS
10
126.561
20
-115.695
11
126.745
21
-115.656
0
LINE
8
BLACK
6
CONTINUOUS
10
126.745
20
-115.656
11
126.933
21
-115.656
0
LINE
8
BLACK
6
CONTINUOUS
10
126.933
20
-115.656
11
127.117
21
-115.695
0
LINE
8
BLACK
6
CONTINUOUS
10
228.717
20
-115.695
11
228.889
21
-115.772
0
LINE
8
BLACK
6
CONTINUOUS
10
228.889
20
-115.772
11
229.041
21
-115.882
0
LINE
8
BLACK
6
CONTINUOUS
10
229.041
20
-115.882
11
229.167
21
-116.022
0
LINE
8
BLACK
6
CONTINUOUS
10
229.167
20
-116.022
11
229.261
21
-116.185
0
LINE
8
BLACK
6
CONTINUOUS
10
229.261
20
-116.185
11
229.319
21
-116.364
0
LINE
8
BLACK
6
CONTINUOUS
10
229.319
20
-116.364
11
229.339
21
-116.551
0
LINE
8
BLACK
6
CONTINUOUS
10
229.339
20
-116.551
11
229.319
21
-116.738
0
LINE
8
BLACK
6
CONTINUOUS
10
229.319
20
-116.738
11
229.261
21
-116.917
0
LINE
8
BLACK
6
CONTINUOUS
10
229.261
20
-116.917
11
229.167
21
-117.08
0
LINE
8
BLACK
6
CONTINUOUS
10
229.167
20
-117.08
11
229.041
21
-117.22
0
LINE
8
BLACK
6
CONTINUOUS
10
229.041
20
-117.22
11
228.889
21
-117.33
0
LINE
8
BLACK
6
CONTINUOUS
10
228.889
20
-117.33
11
228.717
21
-117.407
0
LINE
8
BLACK
6
CONTINUOUS
10
228.717
20
-117.407
11
228.533
21
-117.446
0
LINE
8
BLACK
6
CONTINUOUS
10
228.533
20
-117.446
11
228.345
21
-117.446
0
LINE
8
BLACK
6
CONTINUOUS
10
228.345
20
-117.446
11
228.161
21
-117.407
0
LINE
8
BLACK
6
CONTINUOUS
10
228.161
20
-117.407
11
227.989
21
-117.33
0
LINE
8
BLACK
6
CONTINUOUS
10
227.989
20
-117.33
11
227.837
21
-117.22
0
LINE
8
BLACK
6
CONTINUOUS
10
227.837
20
-117.22
11
227.711
21
-117.08
0
LINE
8
BLACK
6
CONTINUOUS
10
227.711
20
-117.08
11
227.617
21
-116.917
0
LINE
8
BLACK
6
CONTINUOUS
10
227.617
20
-116.917
11
227.559
21
-116.738
0
LINE
8
BLACK
6
CONTINUOUS
10
227.559
20
-116.738
11
227.539
21
-116.551
0
LINE
8
BLACK
6
CONTINUOUS
10
227.539
20
-116.551
11
227.559
21
-116.364
0
LINE
8
BLACK
6
CONTINUOUS
10
227.559
20
-116.364
11
227.617
21
-116.185
0
LINE
8
BLACK
6
CONTINUOUS
10
227.617
20
-116.185
11
227.711
21
-116.022
0
LINE
8
BLACK
6
CONTINUOUS
10
227.711
20
-116.022
11
227.837
21
-115.882
0
LINE
8
BLACK
6
CONTINUOUS
10
227.837
20
-115.882
11
227.989
21
-115.772
0
LINE
8
BLACK
6
CONTINUOUS
10
227.989
20
-115.772
11
228.161
21
-115.695
0
LINE
8
BLACK
6
CONTINUOUS
10
228.161
20
-115.695
11
228.345
21
-115.656
0
LINE
8
BLACK
6
CONTINUOUS
10
228.345
20
-115.656
11
228.533
21
-115.656
0
LINE
8
BLACK
6
CONTINUOUS
10
228.533
20
-115.656
11
228.717
21
-115.695
0
LINE
8
BLACK
6
CONTINUOUS
10
177.917
20
-115.695
11
178.089
21
-115.772
0
LINE
8
BLACK
6
CONTINUOUS
10
178.089
20
-115.772
11
178.241
21
-115.882
0
LINE
8
BLACK
6
CONTINUOUS
10
178.241
20
-115.882
11
178.367
21
-116.022
0
LINE
8
BLACK
6
CONTINUOUS
10
178.367
20
-116.022
11
178.461
21
-116.185
0
LINE
8
BLACK
6
CONTINUOUS
10
178.461
20
-116.185
11
178.519
21
-116.364
0
LINE
8
BLACK
6
CONTINUOUS
10
178.519
20
-116.364
11
178.539
21
-116.551
0
LINE
8
BLACK
6
CONTINUOUS
10
178.539
20
-116.551
11
178.519
21
-116.738
0
LINE
8
BLACK
6
CONTINUOUS
10
178.519
20
-116.738
11
178.461
21
-116.917
0
LINE
8
BLACK
6
CONTINUOUS
10
178.461
20
-116.917
11
178.367
21
-117.08
0
LINE
8
BLACK
6
CONTINUOUS
10
178.367
20
-117.08
11
178.241
21
-117.22
0
LINE
8
BLACK
6
CONTINUOUS
10
178.241
20
-117.22
11
178.089
21
-117.33
0
LINE
8
BLACK
6
CONTINUOUS
10
178.089
20
-117.33
11
177.917
21
-117.407
0
LINE
8
BLACK
6
CONTINUOUS
10
177.917
20
-117.407
11
177.733
21
-117.446
0
LINE
8
BLACK
6
CONTINUOUS
10
177.733
20
-117.446
11
177.545
21
-117.446
0
LINE
8
BLACK
6
CONTINUOUS
10
177.545
20
-117.446
11
177.361
21
-117.407
0
LINE
8
BLACK
6
CONTINUOUS
10
177.361
20
-117.407
11
177.189
21
-117.33
0
LINE
8
BLACK
6
CONTINUOUS
10
177.189
20
-117.33
11
177.037
21
-117.22
0
LINE
8
BLACK
6
CONTINUOUS
10
177.037
20
-117.22
11
176.911
21
-117.08
0
LINE
8
BLACK
6
CONTINUOUS
10
176.911
20
-117.08
11
176.817
21
-116.917
0
LINE
8
BLACK
6
CONTINUOUS
10
176.817
20
-116.917
11
176.759
21
-116.738
0
LINE
8
BLACK
6
CONTINUOUS
10
176.759
20
-116.738
11
176.739
21
-116.551
0
LINE
8
BLACK
6
CONTINUOUS
10
176.739
20
-116.551
11
176.759
21
-116.364
0
LINE
8
BLACK
6
CONTINUOUS
10
176.759
20
-116.364
11
176.817
21
-116.185
0
LINE
8
BLACK
6
CONTINUOUS
10
176.817
20
-116.185
11
176.911
21
-116.022
0
LINE
8
BLACK
6
CONTINUOUS
10
176.911
20
-116.022
11
177.037
21
-115.882
0
LINE
8
BLACK
6
CONTINUOUS
10
177.037
20
-115.882
11
177.189
21
-115.772
0
LINE
8
BLACK
6
CONTINUOUS
10
177.189
20
-115.772
11
177.361
21
-115.695
0
LINE
8
BLACK
6
CONTINUOUS
10
177.361
20
-115.695
11
177.545
21
-115.656
0
LINE
8
BLACK
6
CONTINUOUS
10
177.545
20
-115.656
11
177.733
21
-115.656
0
LINE
8
BLACK
6
CONTINUOUS
10
177.733
20
-115.656
11
177.917
21
-115.695
0
LINE
8
BLACK
6
CONTINUOUS
10
381.117
20
-115.695
11
381.289
21
-115.772
0
LINE
8
BLACK
6
CONTINUOUS
10
381.289
20
-115.772
11
381.441
21
-115.882
0
LINE
8
BLACK
6
CONTINUOUS
10
381.441
20
-115.882
11
381.567
21
-116.022
0
LINE
8
BLACK
6
CONTINUOUS
10
381.567
20
-116.022
11
381.661
21
-116.185
0
LINE
8
BLACK
6
CONTINUOUS
10
381.661
20
-116.185
11
381.719
21
-116.364
0
LINE
8
BLACK
6
CONTINUOUS
10
381.719
20
-116.364
11
381.739
21
-116.551
0
LINE
8
BLACK
6
CONTINUOUS
10
381.739
20
-116.551
11
381.719
21
-116.738
0
LINE
8
BLACK
6
CONTINUOUS
10
381.719
20
-116.738
11
381.661
21
-116.917
0
LINE
8
BLACK
6
CONTINUOUS
10
381.661
20
-116.917
11
381.567
21
-117.08
0
LINE
8
BLACK
6
CONTINUOUS
10
381.567
20
-117.08
11
381.441
21
-117.22
0
LINE
8
BLACK
6
CONTINUOUS
10
381.441
20
-117.22
11
381.289
21
-117.33
0
LINE
8
BLACK
6
CONTINUOUS
10
381.289
20
-117.33
11
381.117
21
-117.407
0
LINE
8
BLACK
6
CONTINUOUS
10
381.117
20
-117.407
11
380.933
21
-117.446
0
LINE
8
BLACK
6
CONTINUOUS
10
380.933
20
-117.446
11
380.745
21
-117.446
0
LINE
8
BLACK
6
CONTINUOUS
10
380.745
20
-117.446
11
380.561
21
-117.407
0
LINE
8
BLACK
6
CONTINUOUS
10
380.561
20
-117.407
11
380.389
21
-117.33
0
LINE
8
BLACK
6
CONTINUOUS
10
380.389
20
-117.33
11
380.237
21
-117.22
0
LINE
8
BLACK
6
CONTINUOUS
10
380.237
20
-117.22
11
380.111
21
-117.08
0
LINE
8
BLACK
6
CONTINUOUS
10
380.111
20
-117.08
11
380.017
21
-116.917
0
LINE
8
BLACK
6
CONTINUOUS
10
380.017
20
-116.917
11
379.959
21
-116.738
0
LINE
8
BLACK
6
CONTINUOUS
10
379.959
20
-116.738
11
379.939
21
-116.551
0
LINE
8
BLACK
6
CONTINUOUS
10
379.939
20
-116.551
11
379.959
21
-116.364
0
LINE
8
BLACK
6
CONTINUOUS
10
379.959
20
-116.364
11
380.017
21
-116.185
0
LINE
8
BLACK
6
CONTINUOUS
10
380.017
20
-116.185
11
380.111
21
-116.022
0
LINE
8
BLACK
6
CONTINUOUS
10
380.111
20
-116.022
11
380.237
21
-115.882
0
LINE
8
BLACK
6
CONTINUOUS
10
380.237
20
-115.882
11
380.389
21
-115.772
0
LINE
8
BLACK
6
CONTINUOUS
10
380.389
20
-115.772
11
380.561
21
-115.695
0
LINE
8
BLACK
6
CONTINUOUS
10
380.561
20
-115.695
11
380.745
21
-115.656
0
LINE
8
BLACK
6
CONTINUOUS
10
380.745
20
-115.656
11
380.933
21
-115.656
0
LINE
8
BLACK
6
CONTINUOUS
10
380.933
20
-115.656
11
381.117
21
-115.695
0
LINE
8
BLACK
6
CONTINUOUS
10
203.317
20
-115.695
11
203.489
21
-115.772
0
LINE
8
BLACK
6
CONTINUOUS
10
203.489
20
-115.772
11
203.641
21
-115.882
0
LINE
8
BLACK
6
CONTINUOUS
10
203.641
20
-115.882
11
203.767
21
-116.022
0
LINE
8
BLACK
6
CONTINUOUS
10
203.767
20
-116.022
11
203.861
21
-116.185
0
LINE
8
BLACK
6
CONTINUOUS
10
203.861
20
-116.185
11
203.919
21
-116.364
0
LINE
8
BLACK
6
CONTINUOUS
10
203.919
20
-116.364
11
203.939
21
-116.551
0
LINE
8
BLACK
6
CONTINUOUS
10
203.939
20
-116.551
11
203.919
21
-116.738
0
LINE
8
BLACK
6
CONTINUOUS
10
203.919
20
-116.738
11
203.861
21
-116.917
0
LINE
8
BLACK
6
CONTINUOUS
10
203.861
20
-116.917
11
203.767
21
-117.08
0
LINE
8
BLACK
6
CONTINUOUS
10
203.767
20
-117.08
11
203.641
21
-117.22
0
LINE
8
BLACK
6
CONTINUOUS
10
203.641
20
-117.22
11
203.489
21
-117.33
0
LINE
8
BLACK
6
CONTINUOUS
10
203.489
20
-117.33
11
203.317
21
-117.407
0
LINE
8
BLACK
6
CONTINUOUS
10
203.317
20
-117.407
11
203.133
21
-117.446
0
LINE
8
BLACK
6
CONTINUOUS
10
203.133
20
-117.446
11
202.945
21
-117.446
0
LINE
8
BLACK
6
CONTINUOUS
10
202.945
20
-117.446
11
202.761
21
-117.407
0
LINE
8
BLACK
6
CONTINUOUS
10
202.761
20
-117.407
11
202.589
21
-117.33
0
LINE
8
BLACK
6
CONTINUOUS
10
202.589
20
-117.33
11
202.437
21
-117.22
0
LINE
8
BLACK
6
CONTINUOUS
10
202.437
20
-117.22
11
202.311
21
-117.08
0
LINE
8
BLACK
6
CONTINUOUS
10
202.311
20
-117.08
11
202.217
21
-116.917
0
LINE
8
BLACK
6
CONTINUOUS
10
202.217
20
-116.917
11
202.159
21
-116.738
0
LINE
8
BLACK
6
CONTINUOUS
10
202.159
20
-116.738
11
202.139
21
-116.551
0
LINE
8
BLACK
6
CONTINUOUS
10
202.139
20
-116.551
11
202.159
21
-116.364
0
LINE
8
BLACK
6
CONTINUOUS
10
202.159
20
-116.364
11
202.217
21
-116.185
0
LINE
8
BLACK
6
CONTINUOUS
10
202.217
20
-116.185
11
202.311
21
-116.022
0
LINE
8
BLACK
6
CONTINUOUS
10
202.311
20
-116.022
11
202.437
21
-115.882
0
LINE
8
BLACK
6
CONTINUOUS
10
202.437
20
-115.882
11
202.589
21
-115.772
0
LINE
8
BLACK
6
CONTINUOUS
10
202.589
20
-115.772
11
202.761
21
-115.695
0
LINE
8
BLACK
6
CONTINUOUS
10
202.761
20
-115.695
11
202.945
21
-115.656
0
LINE
8
BLACK
6
CONTINUOUS
10
202.945
20
-115.656
11
203.133
21
-115.656
0
LINE
8
BLACK
6
CONTINUOUS
10
203.133
20
-115.656
11
203.317
21
-115.695
0
LINE
8
BLACK
6
CONTINUOUS
10
355.717
20
-115.695
11
355.889
21
-115.772
0
LINE
8
BLACK
6
CONTINUOUS
10
355.889
20
-115.772
11
356.041
21
-115.882
0
LINE
8
BLACK
6
CONTINUOUS
10
356.041
20
-115.882
11
356.167
21
-116.022
0
LINE
8
BLACK
6
CONTINUOUS
10
356.167
20
-116.022
11
356.261
21
-116.185
0
LINE
8
BLACK
6
CONTINUOUS
10
356.261
20
-116.185
11
356.319
21
-116.364
0
LINE
8
BLACK
6
CONTINUOUS
10
356.319
20
-116.364
11
356.339
21
-116.551
0
LINE
8
BLACK
6
CONTINUOUS
10
356.339
20
-116.551
11
356.319
21
-116.738
0
LINE
8
BLACK
6
CONTINUOUS
10
356.319
20
-116.738
11
356.261
21
-116.917
0
LINE
8
BLACK
6
CONTINUOUS
10
356.261
20
-116.917
11
356.167
21
-117.08
0
LINE
8
BLACK
6
CONTINUOUS
10
356.167
20
-117.08
11
356.041
21
-117.22
0
LINE
8
BLACK
6
CONTINUOUS
10
356.041
20
-117.22
11
355.889
21
-117.33
0
LINE
8
BLACK
6
CONTINUOUS
10
355.889
20
-117.33
11
355.717
21
-117.407
0
LINE
8
BLACK
6
CONTINUOUS
10
355.717
20
-117.407
11
355.533
21
-117.446
0
LINE
8
BLACK
6
CONTINUOUS
10
355.533
20
-117.446
11
355.345
21
-117.446
0
LINE
8
BLACK
6
CONTINUOUS
10
355.345
20
-117.446
11
355.161
21
-117.407
0
LINE
8
BLACK
6
CONTINUOUS
10
355.161
20
-117.407
11
354.989
21
-117.33
0
LINE
8
BLACK
6
CONTINUOUS
10
354.989
20
-117.33
11
354.837
21
-117.22
0
LINE
8
BLACK
6
CONTINUOUS
10
354.837
20
-117.22
11
354.711
21
-117.08
0
LINE
8
BLACK
6
CONTINUOUS
10
354.711
20
-117.08
11
354.617
21
-116.917
0
LINE
8
BLACK
6
CONTINUOUS
10
354.617
20
-116.917
11
354.559
21
-116.738
0
LINE
8
BLACK
6
CONTINUOUS
10
354.559
20
-116.738
11
354.539
21
-116.551
0
LINE
8
BLACK
6
CONTINUOUS
10
354.539
20
-116.551
11
354.559
21
-116.364
0
LINE
8
BLACK
6
CONTINUOUS
10
354.559
20
-116.364
11
354.617
21
-116.185
0
LINE
8
BLACK
6
CONTINUOUS
10
354.617
20
-116.185
11
354.711
21
-116.022
0
LINE
8
BLACK
6
CONTINUOUS
10
354.711
20
-116.022
11
354.837
21
-115.882
0
LINE
8
BLACK
6
CONTINUOUS
10
354.837
20
-115.882
11
354.989
21
-115.772
0
LINE
8
BLACK
6
CONTINUOUS
10
354.989
20
-115.772
11
355.161
21
-115.695
0
LINE
8
BLACK
6
CONTINUOUS
10
355.161
20
-115.695
11
355.345
21
-115.656
0
LINE
8
BLACK
6
CONTINUOUS
10
355.345
20
-115.656
11
355.533
21
-115.656
0
LINE
8
BLACK
6
CONTINUOUS
10
355.533
20
-115.656
11
355.717
21
-115.695
0
LINE
8
BLACK
6
CONTINUOUS
10
76.3171
20
-115.695
11
76.489
21
-115.772
0
LINE
8
BLACK
6
CONTINUOUS
10
76.489
20
-115.772
11
76.6412
21
-115.882
0
LINE
8
BLACK
6
CONTINUOUS
10
76.6412
20
-115.882
11
76.7671
21
-116.022
0
LINE
8
BLACK
6
CONTINUOUS
10
76.7671
20
-116.022
11
76.8612
21
-116.185
0
LINE
8
BLACK
6
CONTINUOUS
10
76.8612
20
-116.185
11
76.9194
21
-116.364
0
LINE
8
BLACK
6
CONTINUOUS
10
76.9194
20
-116.364
11
76.939
21
-116.551
0
LINE
8
BLACK
6
CONTINUOUS
10
76.939
20
-116.551
11
76.9194
21
-116.738
0
LINE
8
BLACK
6
CONTINUOUS
10
76.9194
20
-116.738
11
76.8612
21
-116.917
0
LINE
8
BLACK
6
CONTINUOUS
10
76.8612
20
-116.917
11
76.7671
21
-117.08
0
LINE
8
BLACK
6
CONTINUOUS
10
76.7671
20
-117.08
11
76.6412
21
-117.22
0
LINE
8
BLACK
6
CONTINUOUS
10
76.6412
20
-117.22
11
76.489
21
-117.33
0
LINE
8
BLACK
6
CONTINUOUS
10
76.489
20
-117.33
11
76.3171
21
-117.407
0
LINE
8
BLACK
6
CONTINUOUS
10
76.3171
20
-117.407
11
76.1331
21
-117.446
0
LINE
8
BLACK
6
CONTINUOUS
10
76.1331
20
-117.446
11
75.945
21
-117.446
0
LINE
8
BLACK
6
CONTINUOUS
10
75.945
20
-117.446
11
75.7609
21
-117.407
0
LINE
8
BLACK
6
CONTINUOUS
10
75.7609
20
-117.407
11
75.589
21
-117.33
0
LINE
8
BLACK
6
CONTINUOUS
10
75.589
20
-117.33
11
75.4368
21
-117.22
0
LINE
8
BLACK
6
CONTINUOUS
10
75.4368
20
-117.22
11
75.3109
21
-117.08
0
LINE
8
BLACK
6
CONTINUOUS
10
75.3109
20
-117.08
11
75.2168
21
-116.917
0
LINE
8
BLACK
6
CONTINUOUS
10
75.2168
20
-116.917
11
75.1587
21
-116.738
0
LINE
8
BLACK
6
CONTINUOUS
10
75.1587
20
-116.738
11
75.139
21
-116.551
0
LINE
8
BLACK
6
CONTINUOUS
10
75.139
20
-116.551
11
75.1587
21
-116.364
0
LINE
8
BLACK
6
CONTINUOUS
10
75.1587
20
-116.364
11
75.2168
21
-116.185
0
LINE
8
BLACK
6
CONTINUOUS
10
75.2168
20
-116.185
11
75.3109
21
-116.022
0
LINE
8
BLACK
6
CONTINUOUS
10
75.3109
20
-116.022
11
75.4368
21
-115.882
0
LINE
8
BLACK
6
CONTINUOUS
10
75.4368
20
-115.882
11
75.589
21
-115.772
0
LINE
8
BLACK
6
CONTINUOUS
10
75.589
20
-115.772
11
75.7609
21
-115.695
0
LINE
8
BLACK
6
CONTINUOUS
10
75.7609
20
-115.695
11
75.945
21
-115.656
0
LINE
8
BLACK
6
CONTINUOUS
10
75.945
20
-115.656
11
76.1331
21
-115.656
0
LINE
8
BLACK
6
CONTINUOUS
10
76.1331
20
-115.656
11
76.3171
21
-115.695
0
LINE
8
BLACK
6
CONTINUOUS
10
304.917
20
-115.695
11
305.089
21
-115.772
0
LINE
8
BLACK
6
CONTINUOUS
10
305.089
20
-115.772
11
305.241
21
-115.882
0
LINE
8
BLACK
6
CONTINUOUS
10
305.241
20
-115.882
11
305.367
21
-116.022
0
LINE
8
BLACK
6
CONTINUOUS
10
305.367
20
-116.022
11
305.461
21
-116.185
0
LINE
8
BLACK
6
CONTINUOUS
10
305.461
20
-116.185
11
305.519
21
-116.364
0
LINE
8
BLACK
6
CONTINUOUS
10
305.519
20
-116.364
11
305.539
21
-116.551
0
LINE
8
BLACK
6
CONTINUOUS
10
305.539
20
-116.551
11
305.519
21
-116.738
0
LINE
8
BLACK
6
CONTINUOUS
10
305.519
20
-116.738
11
305.461
21
-116.917
0
LINE
8
BLACK
6
CONTINUOUS
10
305.461
20
-116.917
11
305.367
21
-117.08
0
LINE
8
BLACK
6
CONTINUOUS
10
305.367
20
-117.08
11
305.241
21
-117.22
0
LINE
8
BLACK
6
CONTINUOUS
10
305.241
20
-117.22
11
305.089
21
-117.33
0
LINE
8
BLACK
6
CONTINUOUS
10
305.089
20
-117.33
11
304.917
21
-117.407
0
LINE
8
BLACK
6
CONTINUOUS
10
304.917
20
-117.407
11
304.733
21
-117.446
0
LINE
8
BLACK
6
CONTINUOUS
10
304.733
20
-117.446
11
304.545
21
-117.446
0
LINE
8
BLACK
6
CONTINUOUS
10
304.545
20
-117.446
11
304.361
21
-117.407
0
LINE
8
BLACK
6
CONTINUOUS
10
304.361
20
-117.407
11
304.189
21
-117.33
0
LINE
8
BLACK
6
CONTINUOUS
10
304.189
20
-117.33
11
304.037
21
-117.22
0
LINE
8
BLACK
6
CONTINUOUS
10
304.037
20
-117.22
11
303.911
21
-117.08
0
LINE
8
BLACK
6
CONTINUOUS
10
303.911
20
-117.08
11
303.817
21
-116.917
0
LINE
8
BLACK
6
CONTINUOUS
10
303.817
20
-116.917
11
303.759
21
-116.738
0
LINE
8
BLACK
6
CONTINUOUS
10
303.759
20
-116.738
11
303.739
21
-116.551
0
LINE
8
BLACK
6
CONTINUOUS
10
303.739
20
-116.551
11
303.759
21
-116.364
0
LINE
8
BLACK
6
CONTINUOUS
10
303.759
20
-116.364
11
303.817
21
-116.185
0
LINE
8
BLACK
6
CONTINUOUS
10
303.817
20
-116.185
11
303.911
21
-116.022
0
LINE
8
BLACK
6
CONTINUOUS
10
303.911
20
-116.022
11
304.037
21
-115.882
0
LINE
8
BLACK
6
CONTINUOUS
10
304.037
20
-115.882
11
304.189
21
-115.772
0
LINE
8
BLACK
6
CONTINUOUS
10
304.189
20
-115.772
11
304.361
21
-115.695
0
LINE
8
BLACK
6
CONTINUOUS
10
304.361
20
-115.695
11
304.545
21
-115.656
0
LINE
8
BLACK
6
CONTINUOUS
10
304.545
20
-115.656
11
304.733
21
-115.656
0
LINE
8
BLACK
6
CONTINUOUS
10
304.733
20
-115.656
11
304.917
21
-115.695
0
LINE
8
BLACK
6
CONTINUOUS
10
279.517
20
-115.695
11
279.689
21
-115.772
0
LINE
8
BLACK
6
CONTINUOUS
10
279.689
20
-115.772
11
279.841
21
-115.882
0
LINE
8
BLACK
6
CONTINUOUS
10
279.841
20
-115.882
11
279.967
21
-116.022
0
LINE
8
BLACK
6
CONTINUOUS
10
279.967
20
-116.022
11
280.061
21
-116.185
0
LINE
8
BLACK
6
CONTINUOUS
10
280.061
20
-116.185
11
280.119
21
-116.364
0
LINE
8
BLACK
6
CONTINUOUS
10
280.119
20
-116.364
11
280.139
21
-116.551
0
LINE
8
BLACK
6
CONTINUOUS
10
280.139
20
-116.551
11
280.119
21
-116.738
0
LINE
8
BLACK
6
CONTINUOUS
10
280.119
20
-116.738
11
280.061
21
-116.917
0
LINE
8
BLACK
6
CONTINUOUS
10
280.061
20
-116.917
11
279.967
21
-117.08
0
LINE
8
BLACK
6
CONTINUOUS
10
279.967
20
-117.08
11
279.841
21
-117.22
0
LINE
8
BLACK
6
CONTINUOUS
10
279.841
20
-117.22
11
279.689
21
-117.33
0
LINE
8
BLACK
6
CONTINUOUS
10
279.689
20
-117.33
11
279.517
21
-117.407
0
LINE
8
BLACK
6
CONTINUOUS
10
279.517
20
-117.407
11
279.333
21
-117.446
0
LINE
8
BLACK
6
CONTINUOUS
10
279.333
20
-117.446
11
279.145
21
-117.446
0
LINE
8
BLACK
6
CONTINUOUS
10
279.145
20
-117.446
11
278.961
21
-117.407
0
LINE
8
BLACK
6
CONTINUOUS
10
278.961
20
-117.407
11
278.789
21
-117.33
0
LINE
8
BLACK
6
CONTINUOUS
10
278.789
20
-117.33
11
278.637
21
-117.22
0
LINE
8
BLACK
6
CONTINUOUS
10
278.637
20
-117.22
11
278.511
21
-117.08
0
LINE
8
BLACK
6
CONTINUOUS
10
278.511
20
-117.08
11
278.417
21
-116.917
0
LINE
8
BLACK
6
CONTINUOUS
10
278.417
20
-116.917
11
278.359
21
-116.738
0
LINE
8
BLACK
6
CONTINUOUS
10
278.359
20
-116.738
11
278.339
21
-116.551
0
LINE
8
BLACK
6
CONTINUOUS
10
278.339
20
-116.551
11
278.359
21
-116.364
0
LINE
8
BLACK
6
CONTINUOUS
10
278.359
20
-116.364
11
278.417
21
-116.185
0
LINE
8
BLACK
6
CONTINUOUS
10
278.417
20
-116.185
11
278.511
21
-116.022
0
LINE
8
BLACK
6
CONTINUOUS
10
278.511
20
-116.022
11
278.637
21
-115.882
0
LINE
8
BLACK
6
CONTINUOUS
10
278.637
20
-115.882
11
278.789
21
-115.772
0
LINE
8
BLACK
6
CONTINUOUS
10
278.789
20
-115.772
11
278.961
21
-115.695
0
LINE
8
BLACK
6
CONTINUOUS
10
278.961
20
-115.695
11
279.145
21
-115.656
0
LINE
8
BLACK
6
CONTINUOUS
10
279.145
20
-115.656
11
279.333
21
-115.656
0
LINE
8
BLACK
6
CONTINUOUS
10
279.333
20
-115.656
11
279.517
21
-115.695
0
LINE
8
BLACK
6
CONTINUOUS
10
25.5171
20
-115.695
11
25.689
21
-115.772
0
LINE
8
BLACK
6
CONTINUOUS
10
25.689
20
-115.772
11
25.8412
21
-115.882
0
LINE
8
BLACK
6
CONTINUOUS
10
25.8412
20
-115.882
11
25.9671
21
-116.022
0
LINE
8
BLACK
6
CONTINUOUS
10
25.9671
20
-116.022
11
26.0612
21
-116.185
0
LINE
8
BLACK
6
CONTINUOUS
10
26.0612
20
-116.185
11
26.1194
21
-116.364
0
LINE
8
BLACK
6
CONTINUOUS
10
26.1194
20
-116.364
11
26.139
21
-116.551
0
LINE
8
BLACK
6
CONTINUOUS
10
26.139
20
-116.551
11
26.1194
21
-116.738
0
LINE
8
BLACK
6
CONTINUOUS
10
26.1194
20
-116.738
11
26.0612
21
-116.917
0
LINE
8
BLACK
6
CONTINUOUS
10
26.0612
20
-116.917
11
25.9671
21
-117.08
0
LINE
8
BLACK
6
CONTINUOUS
10
25.9671
20
-117.08
11
25.8412
21
-117.22
0
LINE
8
BLACK
6
CONTINUOUS
10
25.8412
20
-117.22
11
25.689
21
-117.33
0
LINE
8
BLACK
6
CONTINUOUS
10
25.689
20
-117.33
11
25.5171
21
-117.407
0
LINE
8
BLACK
6
CONTINUOUS
10
25.5171
20
-117.407
11
25.3331
21
-117.446
0
LINE
8
BLACK
6
CONTINUOUS
10
25.3331
20
-117.446
11
25.145
21
-117.446
0
LINE
8
BLACK
6
CONTINUOUS
10
25.145
20
-117.446
11
24.9609
21
-117.407
0
LINE
8
BLACK
6
CONTINUOUS
10
24.9609
20
-117.407
11
24.789
21
-117.33
0
LINE
8
BLACK
6
CONTINUOUS
10
24.789
20
-117.33
11
24.6368
21
-117.22
0
LINE
8
BLACK
6
CONTINUOUS
10
24.6368
20
-117.22
11
24.5109
21
-117.08
0
LINE
8
BLACK
6
CONTINUOUS
10
24.5109
20
-117.08
11
24.4168
21
-116.917
0
LINE
8
BLACK
6
CONTINUOUS
10
24.4168
20
-116.917
11
24.3587
21
-116.738
0
LINE
8
BLACK
6
CONTINUOUS
10
24.3587
20
-116.738
11
24.339
21
-116.551
0
LINE
8
BLACK
6
CONTINUOUS
10
24.339
20
-116.551
11
24.3587
21
-116.364
0
LINE
8
BLACK
6
CONTINUOUS
10
24.3587
20
-116.364
11
24.4168
21
-116.185
0
LINE
8
BLACK
6
CONTINUOUS
10
24.4168
20
-116.185
11
24.5109
21
-116.022
0
LINE
8
BLACK
6
CONTINUOUS
10
24.5109
20
-116.022
11
24.6368
21
-115.882
0
LINE
8
BLACK
6
CONTINUOUS
10
24.6368
20
-115.882
11
24.789
21
-115.772
0
LINE
8
BLACK
6
CONTINUOUS
10
24.789
20
-115.772
11
24.9609
21
-115.695
0
LINE
8
BLACK
6
CONTINUOUS
10
24.9609
20
-115.695
11
25.145
21
-115.656
0
LINE
8
BLACK
6
CONTINUOUS
10
25.145
20
-115.656
11
25.3331
21
-115.656
0
LINE
8
BLACK
6
CONTINUOUS
10
25.3331
20
-115.656
11
25.5171
21
-115.695
0
LINE
8
BLACK
6
CONTINUOUS
10
50.9171
20
-115.695
11
51.089
21
-115.772
0
LINE
8
BLACK
6
CONTINUOUS
10
51.089
20
-115.772
11
51.2413
21
-115.882
0
LINE
8
BLACK
6
CONTINUOUS
10
51.2413
20
-115.882
11
51.3671
21
-116.022
0
LINE
8
BLACK
6
CONTINUOUS
10
51.3671
20
-116.022
11
51.4612
21
-116.185
0
LINE
8
BLACK
6
CONTINUOUS
10
51.4612
20
-116.185
11
51.5194
21
-116.364
0
LINE
8
BLACK
6
CONTINUOUS
10
51.5194
20
-116.364
11
51.539
21
-116.551
0
LINE
8
BLACK
6
CONTINUOUS
10
51.539
20
-116.551
11
51.5194
21
-116.738
0
LINE
8
BLACK
6
CONTINUOUS
10
51.5194
20
-116.738
11
51.4612
21
-116.917
0
LINE
8
BLACK
6
CONTINUOUS
10
51.4612
20
-116.917
11
51.3671
21
-117.08
0
LINE
8
BLACK
6
CONTINUOUS
10
51.3671
20
-117.08
11
51.2413
21
-117.22
0
LINE
8
BLACK
6
CONTINUOUS
10
51.2413
20
-117.22
11
51.089
21
-117.33
0
LINE
8
BLACK
6
CONTINUOUS
10
51.089
20
-117.33
11
50.9171
21
-117.407
0
LINE
8
BLACK
6
CONTINUOUS
10
50.9171
20
-117.407
11
50.7331
21
-117.446
0
LINE
8
BLACK
6
CONTINUOUS
10
50.7331
20
-117.446
11
50.545
21
-117.446
0
LINE
8
BLACK
6
CONTINUOUS
10
50.545
20
-117.446
11
50.3609
21
-117.407
0
LINE
8
BLACK
6
CONTINUOUS
10
50.3609
20
-117.407
11
50.189
21
-117.33
0
LINE
8
BLACK
6
CONTINUOUS
10
50.189
20
-117.33
11
50.0368
21
-117.22
0
LINE
8
BLACK
6
CONTINUOUS
10
50.0368
20
-117.22
11
49.9109
21
-117.08
0
LINE
8
BLACK
6
CONTINUOUS
10
49.9109
20
-117.08
11
49.8168
21
-116.917
0
LINE
8
BLACK
6
CONTINUOUS
10
49.8168
20
-116.917
11
49.7587
21
-116.738
0
LINE
8
BLACK
6
CONTINUOUS
10
49.7587
20
-116.738
11
49.739
21
-116.551
0
LINE
8
BLACK
6
CONTINUOUS
10
49.739
20
-116.551
11
49.7587
21
-116.364
0
LINE
8
BLACK
6
CONTINUOUS
10
49.7587
20
-116.364
11
49.8168
21
-116.185
0
LINE
8
BLACK
6
CONTINUOUS
10
49.8168
20
-116.185
11
49.9109
21
-116.022
0
LINE
8
BLACK
6
CONTINUOUS
10
49.9109
20
-116.022
11
50.0368
21
-115.882
0
LINE
8
BLACK
6
CONTINUOUS
10
50.0368
20
-115.882
11
50.189
21
-115.772
0
LINE
8
BLACK
6
CONTINUOUS
10
50.189
20
-115.772
11
50.3609
21
-115.695
0
LINE
8
BLACK
6
CONTINUOUS
10
50.3609
20
-115.695
11
50.545
21
-115.656
0
LINE
8
BLACK
6
CONTINUOUS
10
50.545
20
-115.656
11
50.7331
21
-115.656
0
LINE
8
BLACK
6
CONTINUOUS
10
50.7331
20
-115.656
11
50.9171
21
-115.695
0
LINE
8
BLACK
6
CONTINUOUS
10
330.317
20
-115.695
11
330.489
21
-115.772
0
LINE
8
BLACK
6
CONTINUOUS
10
330.489
20
-115.772
11
330.641
21
-115.882
0
LINE
8
BLACK
6
CONTINUOUS
10
330.641
20
-115.882
11
330.767
21
-116.022
0
LINE
8
BLACK
6
CONTINUOUS
10
330.767
20
-116.022
11
330.861
21
-116.185
0
LINE
8
BLACK
6
CONTINUOUS
10
330.861
20
-116.185
11
330.919
21
-116.364
0
LINE
8
BLACK
6
CONTINUOUS
10
330.919
20
-116.364
11
330.939
21
-116.551
0
LINE
8
BLACK
6
CONTINUOUS
10
330.939
20
-116.551
11
330.919
21
-116.738
0
LINE
8
BLACK
6
CONTINUOUS
10
330.919
20
-116.738
11
330.861
21
-116.917
0
LINE
8
BLACK
6
CONTINUOUS
10
330.861
20
-116.917
11
330.767
21
-117.08
0
LINE
8
BLACK
6
CONTINUOUS
10
330.767
20
-117.08
11
330.641
21
-117.22
0
LINE
8
BLACK
6
CONTINUOUS
10
330.641
20
-117.22
11
330.489
21
-117.33
0
LINE
8
BLACK
6
CONTINUOUS
10
330.489
20
-117.33
11
330.317
21
-117.407
0
LINE
8
BLACK
6
CONTINUOUS
10
330.317
20
-117.407
11
330.133
21
-117.446
0
LINE
8
BLACK
6
CONTINUOUS
10
330.133
20
-117.446
11
329.945
21
-117.446
0
LINE
8
BLACK
6
CONTINUOUS
10
329.945
20
-117.446
11
329.761
21
-117.407
0
LINE
8
BLACK
6
CONTINUOUS
10
329.761
20
-117.407
11
329.589
21
-117.33
0
LINE
8
BLACK
6
CONTINUOUS
10
329.589
20
-117.33
11
329.437
21
-117.22
0
LINE
8
BLACK
6
CONTINUOUS
10
329.437
20
-117.22
11
329.311
21
-117.08
0
LINE
8
BLACK
6
CONTINUOUS
10
329.311
20
-117.08
11
329.217
21
-116.917
0
LINE
8
BLACK
6
CONTINUOUS
10
329.217
20
-116.917
11
329.159
21
-116.738
0
LINE
8
BLACK
6
CONTINUOUS
10
329.159
20
-116.738
11
329.139
21
-116.551
0
LINE
8
BLACK
6
CONTINUOUS
10
329.139
20
-116.551
11
329.159
21
-116.364
0
LINE
8
BLACK
6
CONTINUOUS
10
329.159
20
-116.364
11
329.217
21
-116.185
0
LINE
8
BLACK
6
CONTINUOUS
10
329.217
20
-116.185
11
329.311
21
-116.022
0
LINE
8
BLACK
6
CONTINUOUS
10
329.311
20
-116.022
11
329.437
21
-115.882
0
LINE
8
BLACK
6
CONTINUOUS
10
329.437
20
-115.882
11
329.589
21
-115.772
0
LINE
8
BLACK
6
CONTINUOUS
10
329.589
20
-115.772
11
329.761
21
-115.695
0
LINE
8
BLACK
6
CONTINUOUS
10
329.761
20
-115.695
11
329.945
21
-115.656
0
LINE
8
BLACK
6
CONTINUOUS
10
329.945
20
-115.656
11
330.133
21
-115.656
0
LINE
8
BLACK
6
CONTINUOUS
10
330.133
20
-115.656
11
330.317
21
-115.695
0
LINE
8
BLACK
6
CONTINUOUS
10
414.8
20
-113.449
11
414.881
21
-113.503
0
LINE
8
BLACK
6
CONTINUOUS
10
414.881
20
-113.503
11
414.935
21
-113.584
0
LINE
8
BLACK
6
CONTINUOUS
10
414.935
20
-113.584
11
414.954
21
-113.68
0
LINE
8
BLACK
6
CONTINUOUS
10
414.954
20
-113.68
11
414.954
21
-114.92
0
LINE
8
BLACK
6
CONTINUOUS
10
414.954
20
-114.92
11
414.935
21
-115.016
0
LINE
8
BLACK
6
CONTINUOUS
10
414.935
20
-115.016
11
414.881
21
-115.097
0
LINE
8
BLACK
6
CONTINUOUS
10
414.881
20
-115.097
11
414.8
21
-115.151
0
LINE
8
BLACK
6
CONTINUOUS
10
414.8
20
-115.151
11
414.704
21
-115.17
0
LINE
8
BLACK
6
CONTINUOUS
10
414.704
20
-115.17
11
413.014
21
-115.17
0
LINE
8
BLACK
6
CONTINUOUS
10
413.014
20
-115.17
11
412.918
21
-115.151
0
LINE
8
BLACK
6
CONTINUOUS
10
412.918
20
-115.151
11
412.837
21
-115.097
0
LINE
8
BLACK
6
CONTINUOUS
10
412.837
20
-115.097
11
412.783
21
-115.016
0
LINE
8
BLACK
6
CONTINUOUS
10
412.783
20
-115.016
11
412.764
21
-114.92
0
LINE
8
BLACK
6
CONTINUOUS
10
412.764
20
-114.92
11
412.764
21
-113.68
0
LINE
8
BLACK
6
CONTINUOUS
10
412.764
20
-113.68
11
412.783
21
-113.584
0
LINE
8
BLACK
6
CONTINUOUS
10
412.783
20
-113.584
11
412.837
21
-113.503
0
LINE
8
BLACK
6
CONTINUOUS
10
412.837
20
-113.503
11
412.918
21
-113.449
0
LINE
8
BLACK
6
CONTINUOUS
10
412.918
20
-113.449
11
413.014
21
-113.43
0
LINE
8
BLACK
6
CONTINUOUS
10
413.014
20
-113.43
11
414.704
21
-113.43
0
LINE
8
BLACK
6
CONTINUOUS
10
414.704
20
-113.43
11
414.8
21
-113.449
0
LINE
8
BLACK
6
CONTINUOUS
10
18.102
20
-113.435
11
18.2854
21
-113.476
0
LINE
8
BLACK
6
CONTINUOUS
10
18.2854
20
-113.476
11
18.4557
21
-113.556
0
LINE
8
BLACK
6
CONTINUOUS
10
18.4557
20
-113.556
11
18.605
21
-113.67
0
LINE
8
BLACK
6
CONTINUOUS
10
18.605
20
-113.67
11
18.7263
21
-113.814
0
LINE
8
BLACK
6
CONTINUOUS
10
18.7263
20
-113.814
11
18.8139
21
-113.98
0
LINE
8
BLACK
6
CONTINUOUS
10
18.8139
20
-113.98
11
18.8638
21
-114.161
0
LINE
8
BLACK
6
CONTINUOUS
10
18.8638
20
-114.161
11
18.8736
21
-114.349
0
LINE
8
BLACK
6
CONTINUOUS
10
18.8736
20
-114.349
11
18.843
21
-114.534
0
LINE
8
BLACK
6
CONTINUOUS
10
18.843
20
-114.534
11
18.7732
21
-114.708
0
LINE
8
BLACK
6
CONTINUOUS
10
18.7732
20
-114.708
11
18.6675
21
-114.864
0
LINE
8
BLACK
6
CONTINUOUS
10
18.6675
20
-114.864
11
18.531
21
-114.993
0
LINE
8
BLACK
6
CONTINUOUS
10
18.531
20
-114.993
11
18.3699
21
-115.09
0
LINE
8
BLACK
6
CONTINUOUS
10
18.3699
20
-115.09
11
18.1918
21
-115.15
0
LINE
8
BLACK
6
CONTINUOUS
10
18.1918
20
-115.15
11
18.005
21
-115.17
0
LINE
8
BLACK
6
CONTINUOUS
10
18.005
20
-115.17
11
17.555
21
-115.17
0
LINE
8
BLACK
6
CONTINUOUS
10
17.555
20
-115.17
11
17.458
21
-115.165
0
LINE
8
BLACK
6
CONTINUOUS
10
17.458
20
-115.165
11
17.2746
21
-115.124
0
LINE
8
BLACK
6
CONTINUOUS
10
17.2746
20
-115.124
11
17.1043
21
-115.044
0
LINE
8
BLACK
6
CONTINUOUS
10
17.1043
20
-115.044
11
16.955
21
-114.93
0
LINE
8
BLACK
6
CONTINUOUS
10
16.955
20
-114.93
11
16.8337
21
-114.786
0
LINE
8
BLACK
6
CONTINUOUS
10
16.8337
20
-114.786
11
16.7461
21
-114.62
0
LINE
8
BLACK
6
CONTINUOUS
10
16.7461
20
-114.62
11
16.6962
21
-114.439
0
LINE
8
BLACK
6
CONTINUOUS
10
16.6962
20
-114.439
11
16.6864
21
-114.251
0
LINE
8
BLACK
6
CONTINUOUS
10
16.6864
20
-114.251
11
16.717
21
-114.066
0
LINE
8
BLACK
6
CONTINUOUS
10
16.717
20
-114.066
11
16.7868
21
-113.892
0
LINE
8
BLACK
6
CONTINUOUS
10
16.7868
20
-113.892
11
16.8925
21
-113.736
0
LINE
8
BLACK
6
CONTINUOUS
10
16.8925
20
-113.736
11
17.029
21
-113.607
0
LINE
8
BLACK
6
CONTINUOUS
10
17.029
20
-113.607
11
17.1901
21
-113.51
0
LINE
8
BLACK
6
CONTINUOUS
10
17.1901
20
-113.51
11
17.3682
21
-113.45
0
LINE
8
BLACK
6
CONTINUOUS
10
17.3682
20
-113.45
11
17.555
21
-113.43
0
LINE
8
BLACK
6
CONTINUOUS
10
17.555
20
-113.43
11
18.005
21
-113.43
0
LINE
8
BLACK
6
CONTINUOUS
10
18.005
20
-113.43
11
18.102
21
-113.435
0
LINE
8
BLACK
6
CONTINUOUS
10
241.505
20
-107.698
11
241.825
21
-107.74
0
LINE
8
BLACK
6
CONTINUOUS
10
241.825
20
-107.74
11
242.137
21
-107.818
0
LINE
8
BLACK
6
CONTINUOUS
10
242.137
20
-107.818
11
242.439
21
-107.932
0
LINE
8
BLACK
6
CONTINUOUS
10
242.439
20
-107.932
11
242.725
21
-108.08
0
LINE
8
BLACK
6
CONTINUOUS
10
242.725
20
-108.08
11
242.993
21
-108.26
0
LINE
8
BLACK
6
CONTINUOUS
10
242.993
20
-108.26
11
243.238
21
-108.469
0
LINE
8
BLACK
6
CONTINUOUS
10
243.238
20
-108.469
11
243.457
21
-108.705
0
LINE
8
BLACK
6
CONTINUOUS
10
243.457
20
-108.705
11
243.648
21
-108.965
0
LINE
8
BLACK
6
CONTINUOUS
10
243.648
20
-108.965
11
243.808
21
-109.245
0
LINE
8
BLACK
6
CONTINUOUS
10
243.808
20
-109.245
11
243.934
21
-109.542
0
LINE
8
BLACK
6
CONTINUOUS
10
243.934
20
-109.542
11
244.026
21
-109.851
0
LINE
8
BLACK
6
CONTINUOUS
10
244.026
20
-109.851
11
244.081
21
-110.168
0
LINE
8
BLACK
6
CONTINUOUS
10
244.081
20
-110.168
11
244.1
21
-110.49
0
LINE
8
BLACK
6
CONTINUOUS
10
244.1
20
-110.49
11
244.094
21
-110.666
0
LINE
8
BLACK
6
CONTINUOUS
10
244.094
20
-110.666
11
244.056
21
-110.986
0
LINE
8
BLACK
6
CONTINUOUS
10
244.056
20
-110.986
11
243.98
21
-111.299
0
LINE
8
BLACK
6
CONTINUOUS
10
243.98
20
-111.299
11
243.87
21
-111.602
0
LINE
8
BLACK
6
CONTINUOUS
10
243.87
20
-111.602
11
243.725
21
-111.89
0
LINE
8
BLACK
6
CONTINUOUS
10
243.725
20
-111.89
11
243.548
21
-112.159
0
LINE
8
BLACK
6
CONTINUOUS
10
243.548
20
-112.159
11
243.341
21
-112.407
0
LINE
8
BLACK
6
CONTINUOUS
10
243.341
20
-112.407
11
243.107
21
-112.629
0
LINE
8
BLACK
6
CONTINUOUS
10
243.107
20
-112.629
11
242.849
21
-112.822
0
LINE
8
BLACK
6
CONTINUOUS
10
242.849
20
-112.822
11
242.571
21
-112.985
0
LINE
8
BLACK
6
CONTINUOUS
10
242.571
20
-112.985
11
242.276
21
-113.114
0
LINE
8
BLACK
6
CONTINUOUS
10
242.276
20
-113.114
11
241.968
21
-113.209
0
LINE
8
BLACK
6
CONTINUOUS
10
241.968
20
-113.209
11
241.651
21
-113.268
0
LINE
8
BLACK
6
CONTINUOUS
10
241.651
20
-113.268
11
241.329
21
-113.29
0
LINE
8
BLACK
6
CONTINUOUS
10
241.329
20
-113.29
11
241.007
21
-113.275
0
LINE
8
BLACK
6
CONTINUOUS
10
241.007
20
-113.275
11
240.689
21
-113.223
0
LINE
8
BLACK
6
CONTINUOUS
10
240.689
20
-113.223
11
240.379
21
-113.134
0
LINE
8
BLACK
6
CONTINUOUS
10
240.379
20
-113.134
11
240.081
21
-113.011
0
LINE
8
BLACK
6
CONTINUOUS
10
240.081
20
-113.011
11
239.8
21
-112.854
0
LINE
8
BLACK
6
CONTINUOUS
10
239.8
20
-112.854
11
239.538
21
-112.666
0
LINE
8
BLACK
6
CONTINUOUS
10
239.538
20
-112.666
11
239.299
21
-112.449
0
LINE
8
BLACK
6
CONTINUOUS
10
239.299
20
-112.449
11
239.088
21
-112.206
0
LINE
8
BLACK
6
CONTINUOUS
10
239.088
20
-112.206
11
238.905
21
-111.94
0
LINE
8
BLACK
6
CONTINUOUS
10
238.905
20
-111.94
11
238.754
21
-111.656
0
LINE
8
BLACK
6
CONTINUOUS
10
238.754
20
-111.656
11
238.637
21
-111.355
0
LINE
8
BLACK
6
CONTINUOUS
10
238.637
20
-111.355
11
238.555
21
-111.043
0
LINE
8
BLACK
6
CONTINUOUS
10
238.555
20
-111.043
11
238.51
21
-110.724
0
LINE
8
BLACK
6
CONTINUOUS
10
238.51
20
-110.724
11
238.501
21
-110.402
0
LINE
8
BLACK
6
CONTINUOUS
10
238.501
20
-110.402
11
238.53
21
-110.081
0
LINE
8
BLACK
6
CONTINUOUS
10
238.53
20
-110.081
11
238.595
21
-109.765
0
LINE
8
BLACK
6
CONTINUOUS
10
238.595
20
-109.765
11
238.697
21
-109.459
0
LINE
8
BLACK
6
CONTINUOUS
10
238.697
20
-109.459
11
238.832
21
-109.167
0
LINE
8
BLACK
6
CONTINUOUS
10
238.832
20
-109.167
11
239.001
21
-108.892
0
LINE
8
BLACK
6
CONTINUOUS
10
239.001
20
-108.892
11
239.2
21
-108.638
0
LINE
8
BLACK
6
CONTINUOUS
10
239.2
20
-108.638
11
239.426
21
-108.409
0
LINE
8
BLACK
6
CONTINUOUS
10
239.426
20
-108.409
11
239.678
21
-108.208
0
LINE
8
BLACK
6
CONTINUOUS
10
239.678
20
-108.208
11
239.951
21
-108.036
0
LINE
8
BLACK
6
CONTINUOUS
10
239.951
20
-108.036
11
240.242
21
-107.898
0
LINE
8
BLACK
6
CONTINUOUS
10
240.242
20
-107.898
11
240.547
21
-107.793
0
LINE
8
BLACK
6
CONTINUOUS
10
240.547
20
-107.793
11
240.862
21
-107.724
0
LINE
8
BLACK
6
CONTINUOUS
10
240.862
20
-107.724
11
241.183
21
-107.692
0
LINE
8
BLACK
6
CONTINUOUS
10
241.183
20
-107.692
11
241.505
21
-107.698
0
LINE
8
BLACK
6
CONTINUOUS
10
393.905
20
-107.698
11
394.225
21
-107.74
0
LINE
8
BLACK
6
CONTINUOUS
10
394.225
20
-107.74
11
394.537
21
-107.818
0
LINE
8
BLACK
6
CONTINUOUS
10
394.537
20
-107.818
11
394.839
21
-107.932
0
LINE
8
BLACK
6
CONTINUOUS
10
394.839
20
-107.932
11
395.125
21
-108.08
0
LINE
8
BLACK
6
CONTINUOUS
10
395.125
20
-108.08
11
395.393
21
-108.26
0
LINE
8
BLACK
6
CONTINUOUS
10
395.393
20
-108.26
11
395.638
21
-108.469
0
LINE
8
BLACK
6
CONTINUOUS
10
395.638
20
-108.469
11
395.857
21
-108.705
0
LINE
8
BLACK
6
CONTINUOUS
10
395.857
20
-108.705
11
396.048
21
-108.965
0
LINE
8
BLACK
6
CONTINUOUS
10
396.048
20
-108.965
11
396.208
21
-109.245
0
LINE
8
BLACK
6
CONTINUOUS
10
396.208
20
-109.245
11
396.334
21
-109.542
0
LINE
8
BLACK
6
CONTINUOUS
10
396.334
20
-109.542
11
396.426
21
-109.851
0
LINE
8
BLACK
6
CONTINUOUS
10
396.426
20
-109.851
11
396.481
21
-110.168
0
LINE
8
BLACK
6
CONTINUOUS
10
396.481
20
-110.168
11
396.5
21
-110.49
0
LINE
8
BLACK
6
CONTINUOUS
10
396.5
20
-110.49
11
396.494
21
-110.666
0
LINE
8
BLACK
6
CONTINUOUS
10
396.494
20
-110.666
11
396.456
21
-110.986
0
LINE
8
BLACK
6
CONTINUOUS
10
396.456
20
-110.986
11
396.38
21
-111.299
0
LINE
8
BLACK
6
CONTINUOUS
10
396.38
20
-111.299
11
396.27
21
-111.602
0
LINE
8
BLACK
6
CONTINUOUS
10
396.27
20
-111.602
11
396.125
21
-111.89
0
LINE
8
BLACK
6
CONTINUOUS
10
396.125
20
-111.89
11
395.948
21
-112.159
0
LINE
8
BLACK
6
CONTINUOUS
10
395.948
20
-112.159
11
395.741
21
-112.407
0
LINE
8
BLACK
6
CONTINUOUS
10
395.741
20
-112.407
11
395.507
21
-112.629
0
LINE
8
BLACK
6
CONTINUOUS
10
395.507
20
-112.629
11
395.249
21
-112.822
0
LINE
8
BLACK
6
CONTINUOUS
10
395.249
20
-112.822
11
394.971
21
-112.985
0
LINE
8
BLACK
6
CONTINUOUS
10
394.971
20
-112.985
11
394.676
21
-113.114
0
LINE
8
BLACK
6
CONTINUOUS
10
394.676
20
-113.114
11
394.368
21
-113.209
0
LINE
8
BLACK
6
CONTINUOUS
10
394.368
20
-113.209
11
394.051
21
-113.268
0
LINE
8
BLACK
6
CONTINUOUS
10
394.051
20
-113.268
11
393.729
21
-113.29
0
LINE
8
BLACK
6
CONTINUOUS
10
393.729
20
-113.29
11
393.407
21
-113.275
0
LINE
8
BLACK
6
CONTINUOUS
10
393.407
20
-113.275
11
393.089
21
-113.223
0
LINE
8
BLACK
6
CONTINUOUS
10
393.089
20
-113.223
11
392.779
21
-113.134
0
LINE
8
BLACK
6
CONTINUOUS
10
392.779
20
-113.134
11
392.481
21
-113.011
0
LINE
8
BLACK
6
CONTINUOUS
10
392.481
20
-113.011
11
392.2
21
-112.854
0
LINE
8
BLACK
6
CONTINUOUS
10
392.2
20
-112.854
11
391.938
21
-112.666
0
LINE
8
BLACK
6
CONTINUOUS
10
391.938
20
-112.666
11
391.699
21
-112.449
0
LINE
8
BLACK
6
CONTINUOUS
10
391.699
20
-112.449
11
391.488
21
-112.206
0
LINE
8
BLACK
6
CONTINUOUS
10
391.488
20
-112.206
11
391.305
21
-111.94
0
LINE
8
BLACK
6
CONTINUOUS
10
391.305
20
-111.94
11
391.154
21
-111.656
0
LINE
8
BLACK
6
CONTINUOUS
10
391.154
20
-111.656
11
391.037
21
-111.355
0
LINE
8
BLACK
6
CONTINUOUS
10
391.037
20
-111.355
11
390.955
21
-111.043
0
LINE
8
BLACK
6
CONTINUOUS
10
390.955
20
-111.043
11
390.91
21
-110.724
0
LINE
8
BLACK
6
CONTINUOUS
10
390.91
20
-110.724
11
390.901
21
-110.402
0
LINE
8
BLACK
6
CONTINUOUS
10
390.901
20
-110.402
11
390.93
21
-110.081
0
LINE
8
BLACK
6
CONTINUOUS
10
390.93
20
-110.081
11
390.995
21
-109.765
0
LINE
8
BLACK
6
CONTINUOUS
10
390.995
20
-109.765
11
391.097
21
-109.459
0
LINE
8
BLACK
6
CONTINUOUS
10
391.097
20
-109.459
11
391.232
21
-109.167
0
LINE
8
BLACK
6
CONTINUOUS
10
391.232
20
-109.167
11
391.401
21
-108.892
0
LINE
8
BLACK
6
CONTINUOUS
10
391.401
20
-108.892
11
391.6
21
-108.638
0
LINE
8
BLACK
6
CONTINUOUS
10
391.6
20
-108.638
11
391.826
21
-108.409
0
LINE
8
BLACK
6
CONTINUOUS
10
391.826
20
-108.409
11
392.078
21
-108.208
0
LINE
8
BLACK
6
CONTINUOUS
10
392.078
20
-108.208
11
392.351
21
-108.036
0
LINE
8
BLACK
6
CONTINUOUS
10
392.351
20
-108.036
11
392.642
21
-107.898
0
LINE
8
BLACK
6
CONTINUOUS
10
392.642
20
-107.898
11
392.947
21
-107.793
0
LINE
8
BLACK
6
CONTINUOUS
10
392.947
20
-107.793
11
393.262
21
-107.724
0
LINE
8
BLACK
6
CONTINUOUS
10
393.262
20
-107.724
11
393.583
21
-107.692
0
LINE
8
BLACK
6
CONTINUOUS
10
393.583
20
-107.692
11
393.905
21
-107.698
0
LINE
8
BLACK
6
CONTINUOUS
10
89.1051
20
-107.698
11
89.4247
21
-107.74
0
LINE
8
BLACK
6
CONTINUOUS
10
89.4247
20
-107.74
11
89.7373
21
-107.818
0
LINE
8
BLACK
6
CONTINUOUS
10
89.7373
20
-107.818
11
90.0389
21
-107.932
0
LINE
8
BLACK
6
CONTINUOUS
10
90.0389
20
-107.932
11
90.3253
21
-108.08
0
LINE
8
BLACK
6
CONTINUOUS
10
90.3253
20
-108.08
11
90.5929
21
-108.26
0
LINE
8
BLACK
6
CONTINUOUS
10
90.5929
20
-108.26
11
90.838
21
-108.469
0
LINE
8
BLACK
6
CONTINUOUS
10
90.838
20
-108.469
11
91.0574
21
-108.705
0
LINE
8
BLACK
6
CONTINUOUS
10
91.0574
20
-108.705
11
91.2483
21
-108.965
0
LINE
8
BLACK
6
CONTINUOUS
10
91.2483
20
-108.965
11
91.408
21
-109.245
0
LINE
8
BLACK
6
CONTINUOUS
10
91.408
20
-109.245
11
91.5345
21
-109.542
0
LINE
8
BLACK
6
CONTINUOUS
10
91.5345
20
-109.542
11
91.626
21
-109.851
0
LINE
8
BLACK
6
CONTINUOUS
10
91.626
20
-109.851
11
91.6814
21
-110.168
0
LINE
8
BLACK
6
CONTINUOUS
10
91.6814
20
-110.168
11
91.7
21
-110.49
0
LINE
8
BLACK
6
CONTINUOUS
10
91.7
20
-110.49
11
91.6945
21
-110.666
0
LINE
8
BLACK
6
CONTINUOUS
10
91.6945
20
-110.666
11
91.6557
21
-110.986
0
LINE
8
BLACK
6
CONTINUOUS
10
91.6557
20
-110.986
11
91.5805
21
-111.299
0
LINE
8
BLACK
6
CONTINUOUS
10
91.5805
20
-111.299
11
91.4697
21
-111.602
0
LINE
8
BLACK
6
CONTINUOUS
10
91.4697
20
-111.602
11
91.3249
21
-111.89
0
LINE
8
BLACK
6
CONTINUOUS
10
91.3249
20
-111.89
11
91.1479
21
-112.159
0
LINE
8
BLACK
6
CONTINUOUS
10
91.1479
20
-112.159
11
90.9411
21
-112.407
0
LINE
8
BLACK
6
CONTINUOUS
10
90.9411
20
-112.407
11
90.7073
21
-112.629
0
LINE
8
BLACK
6
CONTINUOUS
10
90.7073
20
-112.629
11
90.4495
21
-112.822
0
LINE
8
BLACK
6
CONTINUOUS
10
90.4495
20
-112.822
11
90.1712
21
-112.985
0
LINE
8
BLACK
6
CONTINUOUS
10
90.1712
20
-112.985
11
89.876
21
-113.114
0
LINE
8
BLACK
6
CONTINUOUS
10
89.876
20
-113.114
11
89.5679
21
-113.209
0
LINE
8
BLACK
6
CONTINUOUS
10
89.5679
20
-113.209
11
89.2509
21
-113.268
0
LINE
8
BLACK
6
CONTINUOUS
10
89.2509
20
-113.268
11
88.9293
21
-113.29
0
LINE
8
BLACK
6
CONTINUOUS
10
88.9293
20
-113.29
11
88.6073
21
-113.275
0
LINE
8
BLACK
6
CONTINUOUS
10
88.6073
20
-113.275
11
88.2892
21
-113.223
0
LINE
8
BLACK
6
CONTINUOUS
10
88.2892
20
-113.223
11
87.9792
21
-113.134
0
LINE
8
BLACK
6
CONTINUOUS
10
87.9792
20
-113.134
11
87.6814
21
-113.011
0
LINE
8
BLACK
6
CONTINUOUS
10
87.6814
20
-113.011
11
87.3997
21
-112.854
0
LINE
8
BLACK
6
CONTINUOUS
10
87.3997
20
-112.854
11
87.1379
21
-112.666
0
LINE
8
BLACK
6
CONTINUOUS
10
87.1379
20
-112.666
11
86.8995
21
-112.449
0
LINE
8
BLACK
6
CONTINUOUS
10
86.8995
20
-112.449
11
86.6876
21
-112.206
0
LINE
8
BLACK
6
CONTINUOUS
10
86.6876
20
-112.206
11
86.505
21
-111.94
0
LINE
8
BLACK
6
CONTINUOUS
10
86.505
20
-111.94
11
86.3541
21
-111.656
0
LINE
8
BLACK
6
CONTINUOUS
10
86.3541
20
-111.656
11
86.237
21
-111.355
0
LINE
8
BLACK
6
CONTINUOUS
10
86.237
20
-111.355
11
86.1552
21
-111.043
0
LINE
8
BLACK
6
CONTINUOUS
10
86.1552
20
-111.043
11
86.1098
21
-110.724
0
LINE
8
BLACK
6
CONTINUOUS
10
86.1098
20
-110.724
11
86.1014
21
-110.402
0
LINE
8
BLACK
6
CONTINUOUS
10
86.1014
20
-110.402
11
86.13
21
-110.081
0
LINE
8
BLACK
6
CONTINUOUS
10
86.13
20
-110.081
11
86.1954
21
-109.765
0
LINE
8
BLACK
6
CONTINUOUS
10
86.1954
20
-109.765
11
86.2966
21
-109.459
0
LINE
8
BLACK
6
CONTINUOUS
10
86.2966
20
-109.459
11
86.4323
21
-109.167
0
LINE
8
BLACK
6
CONTINUOUS
10
86.4323
20
-109.167
11
86.6008
21
-108.892
0
LINE
8
BLACK
6
CONTINUOUS
10
86.6008
20
-108.892
11
86.7997
21
-108.638
0
LINE
8
BLACK
6
CONTINUOUS
10
86.7997
20
-108.638
11
87.0264
21
-108.409
0
LINE
8
BLACK
6
CONTINUOUS
10
87.0264
20
-108.409
11
87.278
21
-108.208
0
LINE
8
BLACK
6
CONTINUOUS
10
87.278
20
-108.208
11
87.5511
21
-108.036
0
LINE
8
BLACK
6
CONTINUOUS
10
87.5511
20
-108.036
11
87.842
21
-107.898
0
LINE
8
BLACK
6
CONTINUOUS
10
87.842
20
-107.898
11
88.147
21
-107.793
0
LINE
8
BLACK
6
CONTINUOUS
10
88.147
20
-107.793
11
88.462
21
-107.724
0
LINE
8
BLACK
6
CONTINUOUS
10
88.462
20
-107.724
11
88.7827
21
-107.692
0
LINE
8
BLACK
6
CONTINUOUS
10
88.7827
20
-107.692
11
89.1051
21
-107.698
0
LINE
8
BLACK
6
CONTINUOUS
10
38.3051
20
-107.698
11
38.6247
21
-107.74
0
LINE
8
BLACK
6
CONTINUOUS
10
38.6247
20
-107.74
11
38.9373
21
-107.818
0
LINE
8
BLACK
6
CONTINUOUS
10
38.9373
20
-107.818
11
39.2389
21
-107.932
0
LINE
8
BLACK
6
CONTINUOUS
10
39.2389
20
-107.932
11
39.5253
21
-108.08
0
LINE
8
BLACK
6
CONTINUOUS
10
39.5253
20
-108.08
11
39.7929
21
-108.26
0
LINE
8
BLACK
6
CONTINUOUS
10
39.7929
20
-108.26
11
40.038
21
-108.469
0
LINE
8
BLACK
6
CONTINUOUS
10
40.038
20
-108.469
11
40.2574
21
-108.705
0
LINE
8
BLACK
6
CONTINUOUS
10
40.2574
20
-108.705
11
40.4483
21
-108.965
0
LINE
8
BLACK
6
CONTINUOUS
10
40.4483
20
-108.965
11
40.608
21
-109.245
0
LINE
8
BLACK
6
CONTINUOUS
10
40.608
20
-109.245
11
40.7345
21
-109.542
0
LINE
8
BLACK
6
CONTINUOUS
10
40.7345
20
-109.542
11
40.826
21
-109.851
0
LINE
8
BLACK
6
CONTINUOUS
10
40.826
20
-109.851
11
40.8814
21
-110.168
0
LINE
8
BLACK
6
CONTINUOUS
10
40.8814
20
-110.168
11
40.9
21
-110.49
0
LINE
8
BLACK
6
CONTINUOUS
10
40.9
20
-110.49
11
40.8945
21
-110.666
0
LINE
8
BLACK
6
CONTINUOUS
10
40.8945
20
-110.666
11
40.8557
21
-110.986
0
LINE
8
BLACK
6
CONTINUOUS
10
40.8557
20
-110.986
11
40.7805
21
-111.299
0
LINE
8
BLACK
6
CONTINUOUS
10
40.7805
20
-111.299
11
40.6697
21
-111.602
0
LINE
8
BLACK
6
CONTINUOUS
10
40.6697
20
-111.602
11
40.5249
21
-111.89
0
LINE
8
BLACK
6
CONTINUOUS
10
40.5249
20
-111.89
11
40.3479
21
-112.159
0
LINE
8
BLACK
6
CONTINUOUS
10
40.3479
20
-112.159
11
40.1411
21
-112.407
0
LINE
8
BLACK
6
CONTINUOUS
10
40.1411
20
-112.407
11
39.9073
21
-112.629
0
LINE
8
BLACK
6
CONTINUOUS
10
39.9073
20
-112.629
11
39.6495
21
-112.822
0
LINE
8
BLACK
6
CONTINUOUS
10
39.6495
20
-112.822
11
39.3712
21
-112.985
0
LINE
8
BLACK
6
CONTINUOUS
10
39.3712
20
-112.985
11
39.076
21
-113.114
0
LINE
8
BLACK
6
CONTINUOUS
10
39.076
20
-113.114
11
38.7679
21
-113.209
0
LINE
8
BLACK
6
CONTINUOUS
10
38.7679
20
-113.209
11
38.4509
21
-113.268
0
LINE
8
BLACK
6
CONTINUOUS
10
38.4509
20
-113.268
11
38.1293
21
-113.29
0
LINE
8
BLACK
6
CONTINUOUS
10
38.1293
20
-113.29
11
37.8073
21
-113.275
0
LINE
8
BLACK
6
CONTINUOUS
10
37.8073
20
-113.275
11
37.4892
21
-113.223
0
LINE
8
BLACK
6
CONTINUOUS
10
37.4892
20
-113.223
11
37.1792
21
-113.134
0
LINE
8
BLACK
6
CONTINUOUS
10
37.1792
20
-113.134
11
36.8814
21
-113.011
0
LINE
8
BLACK
6
CONTINUOUS
10
36.8814
20
-113.011
11
36.5997
21
-112.854
0
LINE
8
BLACK
6
CONTINUOUS
10
36.5997
20
-112.854
11
36.3379
21
-112.666
0
LINE
8
BLACK
6
CONTINUOUS
10
36.3379
20
-112.666
11
36.0995
21
-112.449
0
LINE
8
BLACK
6
CONTINUOUS
10
36.0995
20
-112.449
11
35.8876
21
-112.206
0
LINE
8
BLACK
6
CONTINUOUS
10
35.8876
20
-112.206
11
35.705
21
-111.94
0
LINE
8
BLACK
6
CONTINUOUS
10
35.705
20
-111.94
11
35.5541
21
-111.656
0
LINE
8
BLACK
6
CONTINUOUS
10
35.5541
20
-111.656
11
35.437
21
-111.355
0
LINE
8
BLACK
6
CONTINUOUS
10
35.437
20
-111.355
11
35.3552
21
-111.043
0
LINE
8
BLACK
6
CONTINUOUS
10
35.3552
20
-111.043
11
35.3098
21
-110.724
0
LINE
8
BLACK
6
CONTINUOUS
10
35.3098
20
-110.724
11
35.3014
21
-110.402
0
LINE
8
BLACK
6
CONTINUOUS
10
35.3014
20
-110.402
11
35.33
21
-110.081
0
LINE
8
BLACK
6
CONTINUOUS
10
35.33
20
-110.081
11
35.3954
21
-109.765
0
LINE
8
BLACK
6
CONTINUOUS
10
35.3954
20
-109.765
11
35.4966
21
-109.459
0
LINE
8
BLACK
6
CONTINUOUS
10
35.4966
20
-109.459
11
35.6323
21
-109.167
0
LINE
8
BLACK
6
CONTINUOUS
10
35.6323
20
-109.167
11
35.8008
21
-108.892
0
LINE
8
BLACK
6
CONTINUOUS
10
35.8008
20
-108.892
11
35.9997
21
-108.638
0
LINE
8
BLACK
6
CONTINUOUS
10
35.9997
20
-108.638
11
36.2264
21
-108.409
0
LINE
8
BLACK
6
CONTINUOUS
10
36.2264
20
-108.409
11
36.478
21
-108.208
0
LINE
8
BLACK
6
CONTINUOUS
10
36.478
20
-108.208
11
36.7511
21
-108.036
0
LINE
8
BLACK
6
CONTINUOUS
10
36.7511
20
-108.036
11
37.042
21
-107.898
0
LINE
8
BLACK
6
CONTINUOUS
10
37.042
20
-107.898
11
37.347
21
-107.793
0
LINE
8
BLACK
6
CONTINUOUS
10
37.347
20
-107.793
11
37.662
21
-107.724
0
LINE
8
BLACK
6
CONTINUOUS
10
37.662
20
-107.724
11
37.9827
21
-107.692
0
LINE
8
BLACK
6
CONTINUOUS
10
37.9827
20
-107.692
11
38.3051
21
-107.698
0
LINE
8
BLACK
6
CONTINUOUS
10
343.105
20
-107.698
11
343.425
21
-107.74
0
LINE
8
BLACK
6
CONTINUOUS
10
343.425
20
-107.74
11
343.737
21
-107.818
0
LINE
8
BLACK
6
CONTINUOUS
10
343.737
20
-107.818
11
344.039
21
-107.932
0
LINE
8
BLACK
6
CONTINUOUS
10
344.039
20
-107.932
11
344.325
21
-108.08
0
LINE
8
BLACK
6
CONTINUOUS
10
344.325
20
-108.08
11
344.593
21
-108.26
0
LINE
8
BLACK
6
CONTINUOUS
10
344.593
20
-108.26
11
344.838
21
-108.469
0
LINE
8
BLACK
6
CONTINUOUS
10
344.838
20
-108.469
11
345.057
21
-108.705
0
LINE
8
BLACK
6
CONTINUOUS
10
345.057
20
-108.705
11
345.248
21
-108.965
0
LINE
8
BLACK
6
CONTINUOUS
10
345.248
20
-108.965
11
345.408
21
-109.245
0
LINE
8
BLACK
6
CONTINUOUS
10
345.408
20
-109.245
11
345.534
21
-109.542
0
LINE
8
BLACK
6
CONTINUOUS
10
345.534
20
-109.542
11
345.626
21
-109.851
0
LINE
8
BLACK
6
CONTINUOUS
10
345.626
20
-109.851
11
345.681
21
-110.168
0
LINE
8
BLACK
6
CONTINUOUS
10
345.681
20
-110.168
11
345.7
21
-110.49
0
LINE
8
BLACK
6
CONTINUOUS
10
345.7
20
-110.49
11
345.694
21
-110.666
0
LINE
8
BLACK
6
CONTINUOUS
10
345.694
20
-110.666
11
345.656
21
-110.986
0
LINE
8
BLACK
6
CONTINUOUS
10
345.656
20
-110.986
11
345.58
21
-111.299
0
LINE
8
BLACK
6
CONTINUOUS
10
345.58
20
-111.299
11
345.47
21
-111.602
0
LINE
8
BLACK
6
CONTINUOUS
10
345.47
20
-111.602
11
345.325
21
-111.89
0
LINE
8
BLACK
6
CONTINUOUS
10
345.325
20
-111.89
11
345.148
21
-112.159
0
LINE
8
BLACK
6
CONTINUOUS
10
345.148
20
-112.159
11
344.941
21
-112.407
0
LINE
8
BLACK
6
CONTINUOUS
10
344.941
20
-112.407
11
344.707
21
-112.629
0
LINE
8
BLACK
6
CONTINUOUS
10
344.707
20
-112.629
11
344.449
21
-112.822
0
LINE
8
BLACK
6
CONTINUOUS
10
344.449
20
-112.822
11
344.171
21
-112.985
0
LINE
8
BLACK
6
CONTINUOUS
10
344.171
20
-112.985
11
343.876
21
-113.114
0
LINE
8
BLACK
6
CONTINUOUS
10
343.876
20
-113.114
11
343.568
21
-113.209
0
LINE
8
BLACK
6
CONTINUOUS
10
343.568
20
-113.209
11
343.251
21
-113.268
0
LINE
8
BLACK
6
CONTINUOUS
10
343.251
20
-113.268
11
342.929
21
-113.29
0
LINE
8
BLACK
6
CONTINUOUS
10
342.929
20
-113.29
11
342.607
21
-113.275
0
LINE
8
BLACK
6
CONTINUOUS
10
342.607
20
-113.275
11
342.289
21
-113.223
0
LINE
8
BLACK
6
CONTINUOUS
10
342.289
20
-113.223
11
341.979
21
-113.134
0
LINE
8
BLACK
6
CONTINUOUS
10
341.979
20
-113.134
11
341.681
21
-113.011
0
LINE
8
BLACK
6
CONTINUOUS
10
341.681
20
-113.011
11
341.4
21
-112.854
0
LINE
8
BLACK
6
CONTINUOUS
10
341.4
20
-112.854
11
341.138
21
-112.666
0
LINE
8
BLACK
6
CONTINUOUS
10
341.138
20
-112.666
11
340.899
21
-112.449
0
LINE
8
BLACK
6
CONTINUOUS
10
340.899
20
-112.449
11
340.688
21
-112.206
0
LINE
8
BLACK
6
CONTINUOUS
10
340.688
20
-112.206
11
340.505
21
-111.94
0
LINE
8
BLACK
6
CONTINUOUS
10
340.505
20
-111.94
11
340.354
21
-111.656
0
LINE
8
BLACK
6
CONTINUOUS
10
340.354
20
-111.656
11
340.237
21
-111.355
0
LINE
8
BLACK
6
CONTINUOUS
10
340.237
20
-111.355
11
340.155
21
-111.043
0
LINE
8
BLACK
6
CONTINUOUS
10
340.155
20
-111.043
11
340.11
21
-110.724
0
LINE
8
BLACK
6
CONTINUOUS
10
340.11
20
-110.724
11
340.101
21
-110.402
0
LINE
8
BLACK
6
CONTINUOUS
10
340.101
20
-110.402
11
340.13
21
-110.081
0
LINE
8
BLACK
6
CONTINUOUS
10
340.13
20
-110.081
11
340.195
21
-109.765
0
LINE
8
BLACK
6
CONTINUOUS
10
340.195
20
-109.765
11
340.297
21
-109.459
0
LINE
8
BLACK
6
CONTINUOUS
10
340.297
20
-109.459
11
340.432
21
-109.167
0
LINE
8
BLACK
6
CONTINUOUS
10
340.432
20
-109.167
11
340.601
21
-108.892
0
LINE
8
BLACK
6
CONTINUOUS
10
340.601
20
-108.892
11
340.8
21
-108.638
0
LINE
8
BLACK
6
CONTINUOUS
10
340.8
20
-108.638
11
341.026
21
-108.409
0
LINE
8
BLACK
6
CONTINUOUS
10
341.026
20
-108.409
11
341.278
21
-108.208
0
LINE
8
BLACK
6
CONTINUOUS
10
341.278
20
-108.208
11
341.551
21
-108.036
0
LINE
8
BLACK
6
CONTINUOUS
10
341.551
20
-108.036
11
341.842
21
-107.898
0
LINE
8
BLACK
6
CONTINUOUS
10
341.842
20
-107.898
11
342.147
21
-107.793
0
LINE
8
BLACK
6
CONTINUOUS
10
342.147
20
-107.793
11
342.462
21
-107.724
0
LINE
8
BLACK
6
CONTINUOUS
10
342.462
20
-107.724
11
342.783
21
-107.692
0
LINE
8
BLACK
6
CONTINUOUS
10
342.783
20
-107.692
11
343.105
21
-107.698
0
LINE
8
BLACK
6
CONTINUOUS
10
190.705
20
-107.698
11
191.025
21
-107.74
0
LINE
8
BLACK
6
CONTINUOUS
10
191.025
20
-107.74
11
191.337
21
-107.818
0
LINE
8
BLACK
6
CONTINUOUS
10
191.337
20
-107.818
11
191.639
21
-107.932
0
LINE
8
BLACK
6
CONTINUOUS
10
191.639
20
-107.932
11
191.925
21
-108.08
0
LINE
8
BLACK
6
CONTINUOUS
10
191.925
20
-108.08
11
192.193
21
-108.26
0
LINE
8
BLACK
6
CONTINUOUS
10
192.193
20
-108.26
11
192.438
21
-108.469
0
LINE
8
BLACK
6
CONTINUOUS
10
192.438
20
-108.469
11
192.657
21
-108.705
0
LINE
8
BLACK
6
CONTINUOUS
10
192.657
20
-108.705
11
192.848
21
-108.965
0
LINE
8
BLACK
6
CONTINUOUS
10
192.848
20
-108.965
11
193.008
21
-109.245
0
LINE
8
BLACK
6
CONTINUOUS
10
193.008
20
-109.245
11
193.134
21
-109.542
0
LINE
8
BLACK
6
CONTINUOUS
10
193.134
20
-109.542
11
193.226
21
-109.851
0
LINE
8
BLACK
6
CONTINUOUS
10
193.226
20
-109.851
11
193.281
21
-110.168
0
LINE
8
BLACK
6
CONTINUOUS
10
193.281
20
-110.168
11
193.3
21
-110.49
0
LINE
8
BLACK
6
CONTINUOUS
10
193.3
20
-110.49
11
193.294
21
-110.666
0
LINE
8
BLACK
6
CONTINUOUS
10
193.294
20
-110.666
11
193.256
21
-110.986
0
LINE
8
BLACK
6
CONTINUOUS
10
193.256
20
-110.986
11
193.18
21
-111.299
0
LINE
8
BLACK
6
CONTINUOUS
10
193.18
20
-111.299
11
193.07
21
-111.602
0
LINE
8
BLACK
6
CONTINUOUS
10
193.07
20
-111.602
11
192.925
21
-111.89
0
LINE
8
BLACK
6
CONTINUOUS
10
192.925
20
-111.89
11
192.748
21
-112.159
0
LINE
8
BLACK
6
CONTINUOUS
10
192.748
20
-112.159
11
192.541
21
-112.407
0
LINE
8
BLACK
6
CONTINUOUS
10
192.541
20
-112.407
11
192.307
21
-112.629
0
LINE
8
BLACK
6
CONTINUOUS
10
192.307
20
-112.629
11
192.049
21
-112.822
0
LINE
8
BLACK
6
CONTINUOUS
10
192.049
20
-112.822
11
191.771
21
-112.985
0
LINE
8
BLACK
6
CONTINUOUS
10
191.771
20
-112.985
11
191.476
21
-113.114
0
LINE
8
BLACK
6
CONTINUOUS
10
191.476
20
-113.114
11
191.168
21
-113.209
0
LINE
8
BLACK
6
CONTINUOUS
10
191.168
20
-113.209
11
190.851
21
-113.268
0
LINE
8
BLACK
6
CONTINUOUS
10
190.851
20
-113.268
11
190.529
21
-113.29
0
LINE
8
BLACK
6
CONTINUOUS
10
190.529
20
-113.29
11
190.207
21
-113.275
0
LINE
8
BLACK
6
CONTINUOUS
10
190.207
20
-113.275
11
189.889
21
-113.223
0
LINE
8
BLACK
6
CONTINUOUS
10
189.889
20
-113.223
11
189.579
21
-113.134
0
LINE
8
BLACK
6
CONTINUOUS
10
189.579
20
-113.134
11
189.281
21
-113.011
0
LINE
8
BLACK
6
CONTINUOUS
10
189.281
20
-113.011
11
189
21
-112.854
0
LINE
8
BLACK
6
CONTINUOUS
10
189
20
-112.854
11
188.738
21
-112.666
0
LINE
8
BLACK
6
CONTINUOUS
10
188.738
20
-112.666
11
188.499
21
-112.449
0
LINE
8
BLACK
6
CONTINUOUS
10
188.499
20
-112.449
11
188.288
21
-112.206
0
LINE
8
BLACK
6
CONTINUOUS
10
188.288
20
-112.206
11
188.105
21
-111.94
0
LINE
8
BLACK
6
CONTINUOUS
10
188.105
20
-111.94
11
187.954
21
-111.656
0
LINE
8
BLACK
6
CONTINUOUS
10
187.954
20
-111.656
11
187.837
21
-111.355
0
LINE
8
BLACK
6
CONTINUOUS
10
187.837
20
-111.355
11
187.755
21
-111.043
0
LINE
8
BLACK
6
CONTINUOUS
10
187.755
20
-111.043
11
187.71
21
-110.724
0
LINE
8
BLACK
6
CONTINUOUS
10
187.71
20
-110.724
11
187.701
21
-110.402
0
LINE
8
BLACK
6
CONTINUOUS
10
187.701
20
-110.402
11
187.73
21
-110.081
0
LINE
8
BLACK
6
CONTINUOUS
10
187.73
20
-110.081
11
187.795
21
-109.765
0
LINE
8
BLACK
6
CONTINUOUS
10
187.795
20
-109.765
11
187.897
21
-109.459
0
LINE
8
BLACK
6
CONTINUOUS
10
187.897
20
-109.459
11
188.032
21
-109.167
0
LINE
8
BLACK
6
CONTINUOUS
10
188.032
20
-109.167
11
188.201
21
-108.892
0
LINE
8
BLACK
6
CONTINUOUS
10
188.201
20
-108.892
11
188.4
21
-108.638
0
LINE
8
BLACK
6
CONTINUOUS
10
188.4
20
-108.638
11
188.626
21
-108.409
0
LINE
8
BLACK
6
CONTINUOUS
10
188.626
20
-108.409
11
188.878
21
-108.208
0
LINE
8
BLACK
6
CONTINUOUS
10
188.878
20
-108.208
11
189.151
21
-108.036
0
LINE
8
BLACK
6
CONTINUOUS
10
189.151
20
-108.036
11
189.442
21
-107.898
0
LINE
8
BLACK
6
CONTINUOUS
10
189.442
20
-107.898
11
189.747
21
-107.793
0
LINE
8
BLACK
6
CONTINUOUS
10
189.747
20
-107.793
11
190.062
21
-107.724
0
LINE
8
BLACK
6
CONTINUOUS
10
190.062
20
-107.724
11
190.383
21
-107.692
0
LINE
8
BLACK
6
CONTINUOUS
10
190.383
20
-107.692
11
190.705
21
-107.698
0
LINE
8
BLACK
6
CONTINUOUS
10
139.905
20
-107.698
11
140.225
21
-107.74
0
LINE
8
BLACK
6
CONTINUOUS
10
140.225
20
-107.74
11
140.537
21
-107.818
0
LINE
8
BLACK
6
CONTINUOUS
10
140.537
20
-107.818
11
140.839
21
-107.932
0
LINE
8
BLACK
6
CONTINUOUS
10
140.839
20
-107.932
11
141.125
21
-108.08
0
LINE
8
BLACK
6
CONTINUOUS
10
141.125
20
-108.08
11
141.393
21
-108.26
0
LINE
8
BLACK
6
CONTINUOUS
10
141.393
20
-108.26
11
141.638
21
-108.469
0
LINE
8
BLACK
6
CONTINUOUS
10
141.638
20
-108.469
11
141.857
21
-108.705
0
LINE
8
BLACK
6
CONTINUOUS
10
141.857
20
-108.705
11
142.048
21
-108.965
0
LINE
8
BLACK
6
CONTINUOUS
10
142.048
20
-108.965
11
142.208
21
-109.245
0
LINE
8
BLACK
6
CONTINUOUS
10
142.208
20
-109.245
11
142.334
21
-109.542
0
LINE
8
BLACK
6
CONTINUOUS
10
142.334
20
-109.542
11
142.426
21
-109.851
0
LINE
8
BLACK
6
CONTINUOUS
10
142.426
20
-109.851
11
142.481
21
-110.168
0
LINE
8
BLACK
6
CONTINUOUS
10
142.481
20
-110.168
11
142.5
21
-110.49
0
LINE
8
BLACK
6
CONTINUOUS
10
142.5
20
-110.49
11
142.494
21
-110.666
0
LINE
8
BLACK
6
CONTINUOUS
10
142.494
20
-110.666
11
142.456
21
-110.986
0
LINE
8
BLACK
6
CONTINUOUS
10
142.456
20
-110.986
11
142.38
21
-111.299
0
LINE
8
BLACK
6
CONTINUOUS
10
142.38
20
-111.299
11
142.27
21
-111.602
0
LINE
8
BLACK
6
CONTINUOUS
10
142.27
20
-111.602
11
142.125
21
-111.89
0
LINE
8
BLACK
6
CONTINUOUS
10
142.125
20
-111.89
11
141.948
21
-112.159
0
LINE
8
BLACK
6
CONTINUOUS
10
141.948
20
-112.159
11
141.741
21
-112.407
0
LINE
8
BLACK
6
CONTINUOUS
10
141.741
20
-112.407
11
141.507
21
-112.629
0
LINE
8
BLACK
6
CONTINUOUS
10
141.507
20
-112.629
11
141.249
21
-112.822
0
LINE
8
BLACK
6
CONTINUOUS
10
141.249
20
-112.822
11
140.971
21
-112.985
0
LINE
8
BLACK
6
CONTINUOUS
10
140.971
20
-112.985
11
140.676
21
-113.114
0
LINE
8
BLACK
6
CONTINUOUS
10
140.676
20
-113.114
11
140.368
21
-113.209
0
LINE
8
BLACK
6
CONTINUOUS
10
140.368
20
-113.209
11
140.051
21
-113.268
0
LINE
8
BLACK
6
CONTINUOUS
10
140.051
20
-113.268
11
139.729
21
-113.29
0
LINE
8
BLACK
6
CONTINUOUS
10
139.729
20
-113.29
11
139.407
21
-113.275
0
LINE
8
BLACK
6
CONTINUOUS
10
139.407
20
-113.275
11
139.089
21
-113.223
0
LINE
8
BLACK
6
CONTINUOUS
10
139.089
20
-113.223
11
138.779
21
-113.134
0
LINE
8
BLACK
6
CONTINUOUS
10
138.779
20
-113.134
11
138.481
21
-113.011
0
LINE
8
BLACK
6
CONTINUOUS
10
138.481
20
-113.011
11
138.2
21
-112.854
0
LINE
8
BLACK
6
CONTINUOUS
10
138.2
20
-112.854
11
137.938
21
-112.666
0
LINE
8
BLACK
6
CONTINUOUS
10
137.938
20
-112.666
11
137.699
21
-112.449
0
LINE
8
BLACK
6
CONTINUOUS
10
137.699
20
-112.449
11
137.488
21
-112.206
0
LINE
8
BLACK
6
CONTINUOUS
10
137.488
20
-112.206
11
137.305
21
-111.94
0
LINE
8
BLACK
6
CONTINUOUS
10
137.305
20
-111.94
11
137.154
21
-111.656
0
LINE
8
BLACK
6
CONTINUOUS
10
137.154
20
-111.656
11
137.037
21
-111.355
0
LINE
8
BLACK
6
CONTINUOUS
10
137.037
20
-111.355
11
136.955
21
-111.043
0
LINE
8
BLACK
6
CONTINUOUS
10
136.955
20
-111.043
11
136.91
21
-110.724
0
LINE
8
BLACK
6
CONTINUOUS
10
136.91
20
-110.724
11
136.901
21
-110.402
0
LINE
8
BLACK
6
CONTINUOUS
10
136.901
20
-110.402
11
136.93
21
-110.081
0
LINE
8
BLACK
6
CONTINUOUS
10
136.93
20
-110.081
11
136.995
21
-109.765
0
LINE
8
BLACK
6
CONTINUOUS
10
136.995
20
-109.765
11
137.097
21
-109.459
0
LINE
8
BLACK
6
CONTINUOUS
10
137.097
20
-109.459
11
137.232
21
-109.167
0
LINE
8
BLACK
6
CONTINUOUS
10
137.232
20
-109.167
11
137.401
21
-108.892
0
LINE
8
BLACK
6
CONTINUOUS
10
137.401
20
-108.892
11
137.6
21
-108.638
0
LINE
8
BLACK
6
CONTINUOUS
10
137.6
20
-108.638
11
137.826
21
-108.409
0
LINE
8
BLACK
6
CONTINUOUS
10
137.826
20
-108.409
11
138.078
21
-108.208
0
LINE
8
BLACK
6
CONTINUOUS
10
138.078
20
-108.208
11
138.351
21
-108.036
0
LINE
8
BLACK
6
CONTINUOUS
10
138.351
20
-108.036
11
138.642
21
-107.898
0
LINE
8
BLACK
6
CONTINUOUS
10
138.642
20
-107.898
11
138.947
21
-107.793
0
LINE
8
BLACK
6
CONTINUOUS
10
138.947
20
-107.793
11
139.262
21
-107.724
0
LINE
8
BLACK
6
CONTINUOUS
10
139.262
20
-107.724
11
139.583
21
-107.692
0
LINE
8
BLACK
6
CONTINUOUS
10
139.583
20
-107.692
11
139.905
21
-107.698
0
LINE
8
BLACK
6
CONTINUOUS
10
292.305
20
-107.698
11
292.625
21
-107.74
0
LINE
8
BLACK
6
CONTINUOUS
10
292.625
20
-107.74
11
292.937
21
-107.818
0
LINE
8
BLACK
6
CONTINUOUS
10
292.937
20
-107.818
11
293.239
21
-107.932
0
LINE
8
BLACK
6
CONTINUOUS
10
293.239
20
-107.932
11
293.525
21
-108.08
0
LINE
8
BLACK
6
CONTINUOUS
10
293.525
20
-108.08
11
293.793
21
-108.26
0
LINE
8
BLACK
6
CONTINUOUS
10
293.793
20
-108.26
11
294.038
21
-108.469
0
LINE
8
BLACK
6
CONTINUOUS
10
294.038
20
-108.469
11
294.257
21
-108.705
0
LINE
8
BLACK
6
CONTINUOUS
10
294.257
20
-108.705
11
294.448
21
-108.965
0
LINE
8
BLACK
6
CONTINUOUS
10
294.448
20
-108.965
11
294.608
21
-109.245
0
LINE
8
BLACK
6
CONTINUOUS
10
294.608
20
-109.245
11
294.734
21
-109.542
0
LINE
8
BLACK
6
CONTINUOUS
10
294.734
20
-109.542
11
294.826
21
-109.851
0
LINE
8
BLACK
6
CONTINUOUS
10
294.826
20
-109.851
11
294.881
21
-110.168
0
LINE
8
BLACK
6
CONTINUOUS
10
294.881
20
-110.168
11
294.9
21
-110.49
0
LINE
8
BLACK
6
CONTINUOUS
10
294.9
20
-110.49
11
294.894
21
-110.666
0
LINE
8
BLACK
6
CONTINUOUS
10
294.894
20
-110.666
11
294.856
21
-110.986
0
LINE
8
BLACK
6
CONTINUOUS
10
294.856
20
-110.986
11
294.78
21
-111.299
0
LINE
8
BLACK
6
CONTINUOUS
10
294.78
20
-111.299
11
294.67
21
-111.602
0
LINE
8
BLACK
6
CONTINUOUS
10
294.67
20
-111.602
11
294.525
21
-111.89
0
LINE
8
BLACK
6
CONTINUOUS
10
294.525
20
-111.89
11
294.348
21
-112.159
0
LINE
8
BLACK
6
CONTINUOUS
10
294.348
20
-112.159
11
294.141
21
-112.407
0
LINE
8
BLACK
6
CONTINUOUS
10
294.141
20
-112.407
11
293.907
21
-112.629
0
LINE
8
BLACK
6
CONTINUOUS
10
293.907
20
-112.629
11
293.649
21
-112.822
0
LINE
8
BLACK
6
CONTINUOUS
10
293.649
20
-112.822
11
293.371
21
-112.985
0
LINE
8
BLACK
6
CONTINUOUS
10
293.371
20
-112.985
11
293.076
21
-113.114
0
LINE
8
BLACK
6
CONTINUOUS
10
293.076
20
-113.114
11
292.768
21
-113.209
0
LINE
8
BLACK
6
CONTINUOUS
10
292.768
20
-113.209
11
292.451
21
-113.268
0
LINE
8
BLACK
6
CONTINUOUS
10
292.451
20
-113.268
11
292.129
21
-113.29
0
LINE
8
BLACK
6
CONTINUOUS
10
292.129
20
-113.29
11
291.807
21
-113.275
0
LINE
8
BLACK
6
CONTINUOUS
10
291.807
20
-113.275
11
291.489
21
-113.223
0
LINE
8
BLACK
6
CONTINUOUS
10
291.489
20
-113.223
11
291.179
21
-113.134
0
LINE
8
BLACK
6
CONTINUOUS
10
291.179
20
-113.134
11
290.881
21
-113.011
0
LINE
8
BLACK
6
CONTINUOUS
10
290.881
20
-113.011
11
290.6
21
-112.854
0
LINE
8
BLACK
6
CONTINUOUS
10
290.6
20
-112.854
11
290.338
21
-112.666
0
LINE
8
BLACK
6
CONTINUOUS
10
290.338
20
-112.666
11
290.099
21
-112.449
0
LINE
8
BLACK
6
CONTINUOUS
10
290.099
20
-112.449
11
289.888
21
-112.206
0
LINE
8
BLACK
6
CONTINUOUS
10
289.888
20
-112.206
11
289.705
21
-111.94
0
LINE
8
BLACK
6
CONTINUOUS
10
289.705
20
-111.94
11
289.554
21
-111.656
0
LINE
8
BLACK
6
CONTINUOUS
10
289.554
20
-111.656
11
289.437
21
-111.355
0
LINE
8
BLACK
6
CONTINUOUS
10
289.437
20
-111.355
11
289.355
21
-111.043
0
LINE
8
BLACK
6
CONTINUOUS
10
289.355
20
-111.043
11
289.31
21
-110.724
0
LINE
8
BLACK
6
CONTINUOUS
10
289.31
20
-110.724
11
289.301
21
-110.402
0
LINE
8
BLACK
6
CONTINUOUS
10
289.301
20
-110.402
11
289.33
21
-110.081
0
LINE
8
BLACK
6
CONTINUOUS
10
289.33
20
-110.081
11
289.395
21
-109.765
0
LINE
8
BLACK
6
CONTINUOUS
10
289.395
20
-109.765
11
289.497
21
-109.459
0
LINE
8
BLACK
6
CONTINUOUS
10
289.497
20
-109.459
11
289.632
21
-109.167
0
LINE
8
BLACK
6
CONTINUOUS
10
289.632
20
-109.167
11
289.801
21
-108.892
0
LINE
8
BLACK
6
CONTINUOUS
10
289.801
20
-108.892
11
290
21
-108.638
0
LINE
8
BLACK
6
CONTINUOUS
10
290
20
-108.638
11
290.226
21
-108.409
0
LINE
8
BLACK
6
CONTINUOUS
10
290.226
20
-108.409
11
290.478
21
-108.208
0
LINE
8
BLACK
6
CONTINUOUS
10
290.478
20
-108.208
11
290.751
21
-108.036
0
LINE
8
BLACK
6
CONTINUOUS
10
290.751
20
-108.036
11
291.042
21
-107.898
0
LINE
8
BLACK
6
CONTINUOUS
10
291.042
20
-107.898
11
291.347
21
-107.793
0
LINE
8
BLACK
6
CONTINUOUS
10
291.347
20
-107.793
11
291.662
21
-107.724
0
LINE
8
BLACK
6
CONTINUOUS
10
291.662
20
-107.724
11
291.983
21
-107.692
0
LINE
8
BLACK
6
CONTINUOUS
10
291.983
20
-107.692
11
292.305
21
-107.698
0
LINE
8
BLACK
6
CONTINUOUS
10
388.066
20
-110.684
11
388.147
21
-110.738
0
LINE
8
BLACK
6
CONTINUOUS
10
388.147
20
-110.738
11
388.201
21
-110.819
0
LINE
8
BLACK
6
CONTINUOUS
10
388.201
20
-110.819
11
388.22
21
-110.915
0
LINE
8
BLACK
6
CONTINUOUS
10
388.22
20
-110.915
11
388.22
21
-112.605
0
LINE
8
BLACK
6
CONTINUOUS
10
388.22
20
-112.605
11
388.201
21
-112.701
0
LINE
8
BLACK
6
CONTINUOUS
10
388.201
20
-112.701
11
388.147
21
-112.782
0
LINE
8
BLACK
6
CONTINUOUS
10
388.147
20
-112.782
11
388.066
21
-112.836
0
LINE
8
BLACK
6
CONTINUOUS
10
388.066
20
-112.836
11
387.97
21
-112.855
0
LINE
8
BLACK
6
CONTINUOUS
10
387.97
20
-112.855
11
386.73
21
-112.855
0
LINE
8
BLACK
6
CONTINUOUS
10
386.73
20
-112.855
11
386.634
21
-112.836
0
LINE
8
BLACK
6
CONTINUOUS
10
386.634
20
-112.836
11
386.553
21
-112.782
0
LINE
8
BLACK
6
CONTINUOUS
10
386.553
20
-112.782
11
386.499
21
-112.701
0
LINE
8
BLACK
6
CONTINUOUS
10
386.499
20
-112.701
11
386.48
21
-112.605
0
LINE
8
BLACK
6
CONTINUOUS
10
386.48
20
-112.605
11
386.48
21
-110.915
0
LINE
8
BLACK
6
CONTINUOUS
10
386.48
20
-110.915
11
386.499
21
-110.819
0
LINE
8
BLACK
6
CONTINUOUS
10
386.499
20
-110.819
11
386.553
21
-110.738
0
LINE
8
BLACK
6
CONTINUOUS
10
386.553
20
-110.738
11
386.634
21
-110.684
0
LINE
8
BLACK
6
CONTINUOUS
10
386.634
20
-110.684
11
386.73
21
-110.665
0
LINE
8
BLACK
6
CONTINUOUS
10
386.73
20
-110.665
11
387.97
21
-110.665
0
LINE
8
BLACK
6
CONTINUOUS
10
387.97
20
-110.665
11
388.066
21
-110.684
0
LINE
8
BLACK
6
CONTINUOUS
10
374.096
20
-110.684
11
374.177
21
-110.738
0
LINE
8
BLACK
6
CONTINUOUS
10
374.177
20
-110.738
11
374.231
21
-110.819
0
LINE
8
BLACK
6
CONTINUOUS
10
374.231
20
-110.819
11
374.25
21
-110.915
0
LINE
8
BLACK
6
CONTINUOUS
10
374.25
20
-110.915
11
374.25
21
-112.605
0
LINE
8
BLACK
6
CONTINUOUS
10
374.25
20
-112.605
11
374.231
21
-112.701
0
LINE
8
BLACK
6
CONTINUOUS
10
374.231
20
-112.701
11
374.177
21
-112.782
0
LINE
8
BLACK
6
CONTINUOUS
10
374.177
20
-112.782
11
374.096
21
-112.836
0
LINE
8
BLACK
6
CONTINUOUS
10
374.096
20
-112.836
11
374
21
-112.855
0
LINE
8
BLACK
6
CONTINUOUS
10
374
20
-112.855
11
372.76
21
-112.855
0
LINE
8
BLACK
6
CONTINUOUS
10
372.76
20
-112.855
11
372.664
21
-112.836
0
LINE
8
BLACK
6
CONTINUOUS
10
372.664
20
-112.836
11
372.583
21
-112.782
0
LINE
8
BLACK
6
CONTINUOUS
10
372.583
20
-112.782
11
372.529
21
-112.701
0
LINE
8
BLACK
6
CONTINUOUS
10
372.529
20
-112.701
11
372.51
21
-112.605
0
LINE
8
BLACK
6
CONTINUOUS
10
372.51
20
-112.605
11
372.51
21
-110.915
0
LINE
8
BLACK
6
CONTINUOUS
10
372.51
20
-110.915
11
372.529
21
-110.819
0
LINE
8
BLACK
6
CONTINUOUS
10
372.529
20
-110.819
11
372.583
21
-110.738
0
LINE
8
BLACK
6
CONTINUOUS
10
372.583
20
-110.738
11
372.664
21
-110.684
0
LINE
8
BLACK
6
CONTINUOUS
10
372.664
20
-110.684
11
372.76
21
-110.665
0
LINE
8
BLACK
6
CONTINUOUS
10
372.76
20
-110.665
11
374
21
-110.665
0
LINE
8
BLACK
6
CONTINUOUS
10
374
20
-110.665
11
374.096
21
-110.684
0
LINE
8
BLACK
6
CONTINUOUS
10
385.044
20
-110.697
11
385.218
21
-110.767
0
LINE
8
BLACK
6
CONTINUOUS
10
385.218
20
-110.767
11
385.374
21
-110.872
0
LINE
8
BLACK
6
CONTINUOUS
10
385.374
20
-110.872
11
385.503
21
-111.009
0
LINE
8
BLACK
6
CONTINUOUS
10
385.503
20
-111.009
11
385.6
21
-111.17
0
LINE
8
BLACK
6
CONTINUOUS
10
385.6
20
-111.17
11
385.66
21
-111.348
0
LINE
8
BLACK
6
CONTINUOUS
10
385.66
20
-111.348
11
385.68
21
-111.535
0
LINE
8
BLACK
6
CONTINUOUS
10
385.68
20
-111.535
11
385.68
21
-111.985
0
LINE
8
BLACK
6
CONTINUOUS
10
385.68
20
-111.985
11
385.675
21
-112.082
0
LINE
8
BLACK
6
CONTINUOUS
10
385.675
20
-112.082
11
385.634
21
-112.265
0
LINE
8
BLACK
6
CONTINUOUS
10
385.634
20
-112.265
11
385.554
21
-112.436
0
LINE
8
BLACK
6
CONTINUOUS
10
385.554
20
-112.436
11
385.44
21
-112.585
0
LINE
8
BLACK
6
CONTINUOUS
10
385.44
20
-112.585
11
385.296
21
-112.706
0
LINE
8
BLACK
6
CONTINUOUS
10
385.296
20
-112.706
11
385.13
21
-112.794
0
LINE
8
BLACK
6
CONTINUOUS
10
385.13
20
-112.794
11
384.949
21
-112.844
0
LINE
8
BLACK
6
CONTINUOUS
10
384.949
20
-112.844
11
384.761
21
-112.854
0
LINE
8
BLACK
6
CONTINUOUS
10
384.761
20
-112.854
11
384.576
21
-112.823
0
LINE
8
BLACK
6
CONTINUOUS
10
384.576
20
-112.823
11
384.402
21
-112.753
0
LINE
8
BLACK
6
CONTINUOUS
10
384.402
20
-112.753
11
384.246
21
-112.648
0
LINE
8
BLACK
6
CONTINUOUS
10
384.246
20
-112.648
11
384.117
21
-112.511
0
LINE
8
BLACK
6
CONTINUOUS
10
384.117
20
-112.511
11
384.02
21
-112.35
0
LINE
8
BLACK
6
CONTINUOUS
10
384.02
20
-112.35
11
383.96
21
-112.172
0
LINE
8
BLACK
6
CONTINUOUS
10
383.96
20
-112.172
11
383.94
21
-111.985
0
LINE
8
BLACK
6
CONTINUOUS
10
383.94
20
-111.985
11
383.94
21
-111.535
0
LINE
8
BLACK
6
CONTINUOUS
10
383.94
20
-111.535
11
383.945
21
-111.438
0
LINE
8
BLACK
6
CONTINUOUS
10
383.945
20
-111.438
11
383.986
21
-111.255
0
LINE
8
BLACK
6
CONTINUOUS
10
383.986
20
-111.255
11
384.066
21
-111.084
0
LINE
8
BLACK
6
CONTINUOUS
10
384.066
20
-111.084
11
384.18
21
-110.935
0
LINE
8
BLACK
6
CONTINUOUS
10
384.18
20
-110.935
11
384.324
21
-110.814
0
LINE
8
BLACK
6
CONTINUOUS
10
384.324
20
-110.814
11
384.49
21
-110.726
0
LINE
8
BLACK
6
CONTINUOUS
10
384.49
20
-110.726
11
384.671
21
-110.676
0
LINE
8
BLACK
6
CONTINUOUS
10
384.671
20
-110.676
11
384.859
21
-110.666
0
LINE
8
BLACK
6
CONTINUOUS
10
384.859
20
-110.666
11
385.044
21
-110.697
0
LINE
8
BLACK
6
CONTINUOUS
10
371.074
20
-110.697
11
371.248
21
-110.767
0
LINE
8
BLACK
6
CONTINUOUS
10
371.248
20
-110.767
11
371.404
21
-110.872
0
LINE
8
BLACK
6
CONTINUOUS
10
371.404
20
-110.872
11
371.533
21
-111.009
0
LINE
8
BLACK
6
CONTINUOUS
10
371.533
20
-111.009
11
371.63
21
-111.17
0
LINE
8
BLACK
6
CONTINUOUS
10
371.63
20
-111.17
11
371.69
21
-111.348
0
LINE
8
BLACK
6
CONTINUOUS
10
371.69
20
-111.348
11
371.71
21
-111.535
0
LINE
8
BLACK
6
CONTINUOUS
10
371.71
20
-111.535
11
371.71
21
-111.985
0
LINE
8
BLACK
6
CONTINUOUS
10
371.71
20
-111.985
11
371.705
21
-112.082
0
LINE
8
BLACK
6
CONTINUOUS
10
371.705
20
-112.082
11
371.664
21
-112.265
0
LINE
8
BLACK
6
CONTINUOUS
10
371.664
20
-112.265
11
371.584
21
-112.436
0
LINE
8
BLACK
6
CONTINUOUS
10
371.584
20
-112.436
11
371.47
21
-112.585
0
LINE
8
BLACK
6
CONTINUOUS
10
371.47
20
-112.585
11
371.326
21
-112.706
0
LINE
8
BLACK
6
CONTINUOUS
10
371.326
20
-112.706
11
371.16
21
-112.794
0
LINE
8
BLACK
6
CONTINUOUS
10
371.16
20
-112.794
11
370.979
21
-112.844
0
LINE
8
BLACK
6
CONTINUOUS
10
370.979
20
-112.844
11
370.791
21
-112.854
0
LINE
8
BLACK
6
CONTINUOUS
10
370.791
20
-112.854
11
370.606
21
-112.823
0
LINE
8
BLACK
6
CONTINUOUS
10
370.606
20
-112.823
11
370.432
21
-112.753
0
LINE
8
BLACK
6
CONTINUOUS
10
370.432
20
-112.753
11
370.276
21
-112.648
0
LINE
8
BLACK
6
CONTINUOUS
10
370.276
20
-112.648
11
370.147
21
-112.511
0
LINE
8
BLACK
6
CONTINUOUS
10
370.147
20
-112.511
11
370.05
21
-112.35
0
LINE
8
BLACK
6
CONTINUOUS
10
370.05
20
-112.35
11
369.99
21
-112.172
0
LINE
8
BLACK
6
CONTINUOUS
10
369.99
20
-112.172
11
369.97
21
-111.985
0
LINE
8
BLACK
6
CONTINUOUS
10
369.97
20
-111.985
11
369.97
21
-111.535
0
LINE
8
BLACK
6
CONTINUOUS
10
369.97
20
-111.535
11
369.975
21
-111.438
0
LINE
8
BLACK
6
CONTINUOUS
10
369.975
20
-111.438
11
370.016
21
-111.255
0
LINE
8
BLACK
6
CONTINUOUS
10
370.016
20
-111.255
11
370.096
21
-111.084
0
LINE
8
BLACK
6
CONTINUOUS
10
370.096
20
-111.084
11
370.21
21
-110.935
0
LINE
8
BLACK
6
CONTINUOUS
10
370.21
20
-110.935
11
370.354
21
-110.814
0
LINE
8
BLACK
6
CONTINUOUS
10
370.354
20
-110.814
11
370.52
21
-110.726
0
LINE
8
BLACK
6
CONTINUOUS
10
370.52
20
-110.726
11
370.701
21
-110.676
0
LINE
8
BLACK
6
CONTINUOUS
10
370.701
20
-110.676
11
370.889
21
-110.666
0
LINE
8
BLACK
6
CONTINUOUS
10
370.889
20
-110.666
11
371.074
21
-110.697
0
LINE
8
BLACK
6
CONTINUOUS
10
18.7207
20
-110.909
11
18.8018
21
-110.963
0
LINE
8
BLACK
6
CONTINUOUS
10
18.8018
20
-110.963
11
18.856
21
-111.044
0
LINE
8
BLACK
6
CONTINUOUS
10
18.856
20
-111.044
11
18.875
21
-111.14
0
LINE
8
BLACK
6
CONTINUOUS
10
18.875
20
-111.14
11
18.875
21
-112.38
0
LINE
8
BLACK
6
CONTINUOUS
10
18.875
20
-112.38
11
18.856
21
-112.476
0
LINE
8
BLACK
6
CONTINUOUS
10
18.856
20
-112.476
11
18.8018
21
-112.557
0
LINE
8
BLACK
6
CONTINUOUS
10
18.8018
20
-112.557
11
18.7207
21
-112.611
0
LINE
8
BLACK
6
CONTINUOUS
10
18.7207
20
-112.611
11
18.625
21
-112.63
0
LINE
8
BLACK
6
CONTINUOUS
10
18.625
20
-112.63
11
16.935
21
-112.63
0
LINE
8
BLACK
6
CONTINUOUS
10
16.935
20
-112.63
11
16.8393
21
-112.611
0
LINE
8
BLACK
6
CONTINUOUS
10
16.8393
20
-112.611
11
16.7582
21
-112.557
0
LINE
8
BLACK
6
CONTINUOUS
10
16.7582
20
-112.557
11
16.704
21
-112.476
0
LINE
8
BLACK
6
CONTINUOUS
10
16.704
20
-112.476
11
16.685
21
-112.38
0
LINE
8
BLACK
6
CONTINUOUS
10
16.685
20
-112.38
11
16.685
21
-111.14
0
LINE
8
BLACK
6
CONTINUOUS
10
16.685
20
-111.14
11
16.704
21
-111.044
0
LINE
8
BLACK
6
CONTINUOUS
10
16.704
20
-111.044
11
16.7582
21
-110.963
0
LINE
8
BLACK
6
CONTINUOUS
10
16.7582
20
-110.963
11
16.8393
21
-110.909
0
LINE
8
BLACK
6
CONTINUOUS
10
16.8393
20
-110.909
11
16.935
21
-110.89
0
LINE
8
BLACK
6
CONTINUOUS
10
16.935
20
-110.89
11
18.625
21
-110.89
0
LINE
8
BLACK
6
CONTINUOUS
10
18.625
20
-110.89
11
18.7207
21
-110.909
0
LINE
8
BLACK
6
CONTINUOUS
10
414.181
20
-110.895
11
414.364
21
-110.936
0
LINE
8
BLACK
6
CONTINUOUS
10
414.364
20
-110.936
11
414.535
21
-111.016
0
LINE
8
BLACK
6
CONTINUOUS
10
414.535
20
-111.016
11
414.684
21
-111.13
0
LINE
8
BLACK
6
CONTINUOUS
10
414.684
20
-111.13
11
414.805
21
-111.274
0
LINE
8
BLACK
6
CONTINUOUS
10
414.805
20
-111.274
11
414.893
21
-111.44
0
LINE
8
BLACK
6
CONTINUOUS
10
414.893
20
-111.44
11
414.943
21
-111.621
0
LINE
8
BLACK
6
CONTINUOUS
10
414.943
20
-111.621
11
414.953
21
-111.809
0
LINE
8
BLACK
6
CONTINUOUS
10
414.953
20
-111.809
11
414.922
21
-111.994
0
LINE
8
BLACK
6
CONTINUOUS
10
414.922
20
-111.994
11
414.852
21
-112.168
0
LINE
8
BLACK
6
CONTINUOUS
10
414.852
20
-112.168
11
414.747
21
-112.324
0
LINE
8
BLACK
6
CONTINUOUS
10
414.747
20
-112.324
11
414.61
21
-112.453
0
LINE
8
BLACK
6
CONTINUOUS
10
414.61
20
-112.453
11
414.449
21
-112.55
0
LINE
8
BLACK
6
CONTINUOUS
10
414.449
20
-112.55
11
414.271
21
-112.61
0
LINE
8
BLACK
6
CONTINUOUS
10
414.271
20
-112.61
11
414.084
21
-112.63
0
LINE
8
BLACK
6
CONTINUOUS
10
414.084
20
-112.63
11
413.634
21
-112.63
0
LINE
8
BLACK
6
CONTINUOUS
10
413.634
20
-112.63
11
413.537
21
-112.625
0
LINE
8
BLACK
6
CONTINUOUS
10
413.537
20
-112.625
11
413.354
21
-112.584
0
LINE
8
BLACK
6
CONTINUOUS
10
413.354
20
-112.584
11
413.183
21
-112.504
0
LINE
8
BLACK
6
CONTINUOUS
10
413.183
20
-112.504
11
413.034
21
-112.39
0
LINE
8
BLACK
6
CONTINUOUS
10
413.034
20
-112.39
11
412.913
21
-112.246
0
LINE
8
BLACK
6
CONTINUOUS
10
412.913
20
-112.246
11
412.825
21
-112.08
0
LINE
8
BLACK
6
CONTINUOUS
10
412.825
20
-112.08
11
412.775
21
-111.899
0
LINE
8
BLACK
6
CONTINUOUS
10
412.775
20
-111.899
11
412.765
21
-111.711
0
LINE
8
BLACK
6
CONTINUOUS
10
412.765
20
-111.711
11
412.796
21
-111.526
0
LINE
8
BLACK
6
CONTINUOUS
10
412.796
20
-111.526
11
412.866
21
-111.352
0
LINE
8
BLACK
6
CONTINUOUS
10
412.866
20
-111.352
11
412.971
21
-111.196
0
LINE
8
BLACK
6
CONTINUOUS
10
412.971
20
-111.196
11
413.108
21
-111.067
0
LINE
8
BLACK
6
CONTINUOUS
10
413.108
20
-111.067
11
413.269
21
-110.97
0
LINE
8
BLACK
6
CONTINUOUS
10
413.269
20
-110.97
11
413.447
21
-110.91
0
LINE
8
BLACK
6
CONTINUOUS
10
413.447
20
-110.91
11
413.634
21
-110.89
0
LINE
8
BLACK
6
CONTINUOUS
10
413.634
20
-110.89
11
414.084
21
-110.89
0
LINE
8
BLACK
6
CONTINUOUS
10
414.084
20
-110.89
11
414.181
21
-110.895
  0
ENDSEC
  0
EOF
