M48
; DRILL file {KiCad 6.0.6-3a73a75311~116~ubuntu22.04.1} date Thu 23 Jun 2022 08:47:55 PM EDT
; FORMAT={-:-/ absolute / metric / decimal}
; #@! TF.CreationDate,2022-06-23T20:47:55-04:00
; #@! TF.GenerationSoftware,Kicad,Pcbnew,6.0.6-3a73a75311~116~ubuntu22.04.1
; #@! TF.FileFunction,Plated,1,2,PTH
FMAT,2
METRIC
; #@! TA.AperFunction,Plated,PTH,ViaDrill
T1C0.400
; #@! TA.AperFunction,Plated,PTH,ComponentDrill
T2C1.000
; #@! TA.AperFunction,Plated,PTH,ComponentDrill
T3C3.200
%
G90
G05
T1
X124.689Y-101.549
X126.365Y-113.792
X126.365Y-121.412
X127.965Y-117.831
X129.54Y-113.792
X129.54Y-121.361
X129.921Y-109.728
X131.826Y-106.299
X132.22Y-101.422
X132.715Y-121.412
X132.842Y-74.981
X132.969Y-109.22
X132.969Y-113.792
X133.299Y-107.34
X134.95Y-95.25
X135.052Y-121.463
X136.779Y-83.185
X136.779Y-84.455
X136.779Y-85.725
X136.779Y-86.995
X136.779Y-88.265
X136.779Y-89.535
X136.779Y-90.805
X136.779Y-92.075
X136.779Y-109.855
X136.779Y-111.125
X136.779Y-112.395
X136.779Y-113.665
X136.779Y-114.935
X136.779Y-116.205
X136.779Y-117.475
X136.779Y-118.745
X138.43Y-130.175
X139.7Y-96.418
X140.132Y-74.981
X141.351Y-101.727
X141.427Y-121.666
X142.621Y-80.645
X142.621Y-81.915
X146.812Y-84.582
X146.812Y-86.995
X146.812Y-89.535
X146.812Y-92.075
X147.32Y-83.185
X147.574Y-85.725
X147.574Y-88.392
X147.574Y-90.805
T2
X125.73Y-82.55
X125.73Y-85.09
X125.73Y-87.63
X125.73Y-90.17
X125.73Y-92.71
X125.73Y-95.25
X160.02Y-78.74
X160.02Y-81.28
X160.02Y-83.82
X160.02Y-86.36
X160.02Y-88.9
X160.02Y-91.44
X160.02Y-93.98
X160.02Y-96.52
X160.02Y-99.06
X160.02Y-101.6
X160.02Y-104.14
X160.02Y-106.68
X160.02Y-109.22
X160.02Y-111.76
X160.02Y-114.3
X160.02Y-116.84
X160.02Y-119.38
X160.02Y-121.92
X160.02Y-124.46
X160.02Y-127.0
X162.56Y-78.74
X162.56Y-81.28
X162.56Y-83.82
X162.56Y-86.36
X162.56Y-88.9
X162.56Y-91.44
X162.56Y-93.98
X162.56Y-96.52
X162.56Y-99.06
X162.56Y-101.6
X162.56Y-104.14
X162.56Y-106.68
X162.56Y-109.22
X162.56Y-111.76
X162.56Y-114.3
X162.56Y-116.84
X162.56Y-119.38
X162.56Y-121.92
X162.56Y-124.46
X162.56Y-127.0
T3
X125.73Y-73.66
X125.73Y-130.81
X170.18Y-73.66
X170.18Y-130.81
T0
M30
