G04 #@! TF.GenerationSoftware,KiCad,Pcbnew,6.0.6-3a73a75311~116~ubuntu22.04.1*
G04 #@! TF.CreationDate,2022-06-23T20:47:55-04:00*
G04 #@! TF.ProjectId,switch_mux_breakout,73776974-6368-45f6-9d75-785f62726561,0*
G04 #@! TF.SameCoordinates,Original*
G04 #@! TF.FileFunction,Legend,Bot*
G04 #@! TF.FilePolarity,Positive*
%FSLAX46Y46*%
G04 Gerber Fmt 4.6, Leading zero omitted, Abs format (unit mm)*
G04 Created by KiCad (PCBNEW 6.0.6-3a73a75311~116~ubuntu22.04.1) date 2022-06-23 20:47:55*
%MOMM*%
%LPD*%
G01*
G04 APERTURE LIST*
%ADD10R,1.700000X1.700000*%
%ADD11O,1.700000X1.700000*%
%ADD12C,5.600000*%
G04 APERTURE END LIST*
%LPC*%
D10*
X125730001Y-82550001D03*
D11*
X125730001Y-85090001D03*
X125730001Y-87630001D03*
X125730001Y-90170001D03*
X125730001Y-92710001D03*
X125730001Y-95250001D03*
D12*
X170180001Y-73660001D03*
X170180001Y-130810001D03*
X125730001Y-130810001D03*
D10*
X160020001Y-78740001D03*
D11*
X162560001Y-78740001D03*
X160020001Y-81280001D03*
X162560001Y-81280001D03*
X160020001Y-83820001D03*
X162560001Y-83820001D03*
X160020001Y-86360001D03*
X162560001Y-86360001D03*
X160020001Y-88900001D03*
X162560001Y-88900001D03*
X160020001Y-91440001D03*
X162560001Y-91440001D03*
X160020001Y-93980001D03*
X162560001Y-93980001D03*
X160020001Y-96520001D03*
X162560001Y-96520001D03*
X160020001Y-99060001D03*
X162560001Y-99060001D03*
X160020001Y-101600001D03*
X162560001Y-101600001D03*
X160020001Y-104140001D03*
X162560001Y-104140001D03*
X160020001Y-106680001D03*
X162560001Y-106680001D03*
X160020001Y-109220001D03*
X162560001Y-109220001D03*
X160020001Y-111760001D03*
X162560001Y-111760001D03*
X160020001Y-114300001D03*
X162560001Y-114300001D03*
X160020001Y-116840001D03*
X162560001Y-116840001D03*
X160020001Y-119380001D03*
X162560001Y-119380001D03*
X160020001Y-121920001D03*
X162560001Y-121920001D03*
X160020001Y-124460001D03*
X162560001Y-124460001D03*
X160020001Y-127000001D03*
X162560001Y-127000001D03*
D12*
X125730001Y-73660001D03*
M02*
