G04 #@! TF.GenerationSoftware,KiCad,Pcbnew,6.0.6-3a73a75311~116~ubuntu22.04.1*
G04 #@! TF.CreationDate,2022-06-23T20:47:55-04:00*
G04 #@! TF.ProjectId,switch_mux_breakout,73776974-6368-45f6-9d75-785f62726561,0*
G04 #@! TF.SameCoordinates,Original*
G04 #@! TF.FileFunction,Copper,L1,Top*
G04 #@! TF.FilePolarity,Positive*
%FSLAX46Y46*%
G04 Gerber Fmt 4.6, Leading zero omitted, Abs format (unit mm)*
G04 Created by KiCad (PCBNEW 6.0.6-3a73a75311~116~ubuntu22.04.1) date 2022-06-23 20:47:55*
%MOMM*%
%LPD*%
G01*
G04 APERTURE LIST*
G04 #@! TA.AperFunction,SMDPad,CuDef*
%ADD10R,1.500000X1.000000*%
G04 #@! TD*
G04 #@! TA.AperFunction,ComponentPad*
%ADD11R,1.700000X1.700000*%
G04 #@! TD*
G04 #@! TA.AperFunction,ComponentPad*
%ADD12O,1.700000X1.700000*%
G04 #@! TD*
G04 #@! TA.AperFunction,ComponentPad*
%ADD13C,5.600000*%
G04 #@! TD*
G04 #@! TA.AperFunction,ViaPad*
%ADD14C,0.800000*%
G04 #@! TD*
G04 #@! TA.AperFunction,Conductor*
%ADD15C,0.300000*%
G04 #@! TD*
G04 #@! TA.AperFunction,Conductor*
%ADD16C,0.500000*%
G04 #@! TD*
G04 #@! TA.AperFunction,Conductor*
%ADD17C,0.400000*%
G04 #@! TD*
G04 APERTURE END LIST*
D10*
X131114801Y-115092001D03*
X131114801Y-113792001D03*
X131114801Y-112492001D03*
G04 #@! TA.AperFunction,SMDPad,CuDef*
G36*
G01*
X135552201Y-77330001D02*
X134602201Y-77330001D01*
G75*
G02*
X134352201Y-77080001I0J250000D01*
G01*
X134352201Y-76580001D01*
G75*
G02*
X134602201Y-76330001I250000J0D01*
G01*
X135552201Y-76330001D01*
G75*
G02*
X135802201Y-76580001I0J-250000D01*
G01*
X135802201Y-77080001D01*
G75*
G02*
X135552201Y-77330001I-250000J0D01*
G01*
G37*
G04 #@! TD.AperFunction*
G04 #@! TA.AperFunction,SMDPad,CuDef*
G36*
G01*
X135552201Y-75430001D02*
X134602201Y-75430001D01*
G75*
G02*
X134352201Y-75180001I0J250000D01*
G01*
X134352201Y-74680001D01*
G75*
G02*
X134602201Y-74430001I250000J0D01*
G01*
X135552201Y-74430001D01*
G75*
G02*
X135802201Y-74680001I0J-250000D01*
G01*
X135802201Y-75180001D01*
G75*
G02*
X135552201Y-75430001I-250000J0D01*
G01*
G37*
G04 #@! TD.AperFunction*
G04 #@! TA.AperFunction,SMDPad,CuDef*
G36*
G01*
X134161851Y-130634801D02*
X133249351Y-130634801D01*
G75*
G02*
X133005601Y-130391051I0J243750D01*
G01*
X133005601Y-129903551D01*
G75*
G02*
X133249351Y-129659801I243750J0D01*
G01*
X134161851Y-129659801D01*
G75*
G02*
X134405601Y-129903551I0J-243750D01*
G01*
X134405601Y-130391051D01*
G75*
G02*
X134161851Y-130634801I-243750J0D01*
G01*
G37*
G04 #@! TD.AperFunction*
G04 #@! TA.AperFunction,SMDPad,CuDef*
G36*
G01*
X134161851Y-128759801D02*
X133249351Y-128759801D01*
G75*
G02*
X133005601Y-128516051I0J243750D01*
G01*
X133005601Y-128028551D01*
G75*
G02*
X133249351Y-127784801I243750J0D01*
G01*
X134161851Y-127784801D01*
G75*
G02*
X134405601Y-128028551I0J-243750D01*
G01*
X134405601Y-128516051D01*
G75*
G02*
X134161851Y-128759801I-243750J0D01*
G01*
G37*
G04 #@! TD.AperFunction*
G04 #@! TA.AperFunction,SMDPad,CuDef*
G36*
G01*
X128425001Y-98610001D02*
X128425001Y-99510001D01*
G75*
G02*
X128175001Y-99760001I-250000J0D01*
G01*
X127650001Y-99760001D01*
G75*
G02*
X127400001Y-99510001I0J250000D01*
G01*
X127400001Y-98610001D01*
G75*
G02*
X127650001Y-98360001I250000J0D01*
G01*
X128175001Y-98360001D01*
G75*
G02*
X128425001Y-98610001I0J-250000D01*
G01*
G37*
G04 #@! TD.AperFunction*
G04 #@! TA.AperFunction,SMDPad,CuDef*
G36*
G01*
X126600001Y-98610001D02*
X126600001Y-99510001D01*
G75*
G02*
X126350001Y-99760001I-250000J0D01*
G01*
X125825001Y-99760001D01*
G75*
G02*
X125575001Y-99510001I0J250000D01*
G01*
X125575001Y-98610001D01*
G75*
G02*
X125825001Y-98360001I250000J0D01*
G01*
X126350001Y-98360001D01*
G75*
G02*
X126600001Y-98610001I0J-250000D01*
G01*
G37*
G04 #@! TD.AperFunction*
X127939801Y-115092001D03*
X127939801Y-113792001D03*
X127939801Y-112492001D03*
D11*
X125730001Y-82550001D03*
D12*
X125730001Y-85090001D03*
X125730001Y-87630001D03*
X125730001Y-90170001D03*
X125730001Y-92710001D03*
X125730001Y-95250001D03*
G04 #@! TA.AperFunction,SMDPad,CuDef*
G36*
G01*
X134025001Y-106195001D02*
X134025001Y-105895001D01*
G75*
G02*
X134175001Y-105745001I150000J0D01*
G01*
X135925001Y-105745001D01*
G75*
G02*
X136075001Y-105895001I0J-150000D01*
G01*
X136075001Y-106195001D01*
G75*
G02*
X135925001Y-106345001I-150000J0D01*
G01*
X134175001Y-106345001D01*
G75*
G02*
X134025001Y-106195001I0J150000D01*
G01*
G37*
G04 #@! TD.AperFunction*
G04 #@! TA.AperFunction,SMDPad,CuDef*
G36*
G01*
X134025001Y-107465001D02*
X134025001Y-107165001D01*
G75*
G02*
X134175001Y-107015001I150000J0D01*
G01*
X135925001Y-107015001D01*
G75*
G02*
X136075001Y-107165001I0J-150000D01*
G01*
X136075001Y-107465001D01*
G75*
G02*
X135925001Y-107615001I-150000J0D01*
G01*
X134175001Y-107615001D01*
G75*
G02*
X134025001Y-107465001I0J150000D01*
G01*
G37*
G04 #@! TD.AperFunction*
G04 #@! TA.AperFunction,SMDPad,CuDef*
G36*
G01*
X134025001Y-108735001D02*
X134025001Y-108435001D01*
G75*
G02*
X134175001Y-108285001I150000J0D01*
G01*
X135925001Y-108285001D01*
G75*
G02*
X136075001Y-108435001I0J-150000D01*
G01*
X136075001Y-108735001D01*
G75*
G02*
X135925001Y-108885001I-150000J0D01*
G01*
X134175001Y-108885001D01*
G75*
G02*
X134025001Y-108735001I0J150000D01*
G01*
G37*
G04 #@! TD.AperFunction*
G04 #@! TA.AperFunction,SMDPad,CuDef*
G36*
G01*
X134025001Y-110005001D02*
X134025001Y-109705001D01*
G75*
G02*
X134175001Y-109555001I150000J0D01*
G01*
X135925001Y-109555001D01*
G75*
G02*
X136075001Y-109705001I0J-150000D01*
G01*
X136075001Y-110005001D01*
G75*
G02*
X135925001Y-110155001I-150000J0D01*
G01*
X134175001Y-110155001D01*
G75*
G02*
X134025001Y-110005001I0J150000D01*
G01*
G37*
G04 #@! TD.AperFunction*
G04 #@! TA.AperFunction,SMDPad,CuDef*
G36*
G01*
X134025001Y-111275001D02*
X134025001Y-110975001D01*
G75*
G02*
X134175001Y-110825001I150000J0D01*
G01*
X135925001Y-110825001D01*
G75*
G02*
X136075001Y-110975001I0J-150000D01*
G01*
X136075001Y-111275001D01*
G75*
G02*
X135925001Y-111425001I-150000J0D01*
G01*
X134175001Y-111425001D01*
G75*
G02*
X134025001Y-111275001I0J150000D01*
G01*
G37*
G04 #@! TD.AperFunction*
G04 #@! TA.AperFunction,SMDPad,CuDef*
G36*
G01*
X134025001Y-112545001D02*
X134025001Y-112245001D01*
G75*
G02*
X134175001Y-112095001I150000J0D01*
G01*
X135925001Y-112095001D01*
G75*
G02*
X136075001Y-112245001I0J-150000D01*
G01*
X136075001Y-112545001D01*
G75*
G02*
X135925001Y-112695001I-150000J0D01*
G01*
X134175001Y-112695001D01*
G75*
G02*
X134025001Y-112545001I0J150000D01*
G01*
G37*
G04 #@! TD.AperFunction*
G04 #@! TA.AperFunction,SMDPad,CuDef*
G36*
G01*
X134025001Y-113815001D02*
X134025001Y-113515001D01*
G75*
G02*
X134175001Y-113365001I150000J0D01*
G01*
X135925001Y-113365001D01*
G75*
G02*
X136075001Y-113515001I0J-150000D01*
G01*
X136075001Y-113815001D01*
G75*
G02*
X135925001Y-113965001I-150000J0D01*
G01*
X134175001Y-113965001D01*
G75*
G02*
X134025001Y-113815001I0J150000D01*
G01*
G37*
G04 #@! TD.AperFunction*
G04 #@! TA.AperFunction,SMDPad,CuDef*
G36*
G01*
X134025001Y-115085001D02*
X134025001Y-114785001D01*
G75*
G02*
X134175001Y-114635001I150000J0D01*
G01*
X135925001Y-114635001D01*
G75*
G02*
X136075001Y-114785001I0J-150000D01*
G01*
X136075001Y-115085001D01*
G75*
G02*
X135925001Y-115235001I-150000J0D01*
G01*
X134175001Y-115235001D01*
G75*
G02*
X134025001Y-115085001I0J150000D01*
G01*
G37*
G04 #@! TD.AperFunction*
G04 #@! TA.AperFunction,SMDPad,CuDef*
G36*
G01*
X134025001Y-116355001D02*
X134025001Y-116055001D01*
G75*
G02*
X134175001Y-115905001I150000J0D01*
G01*
X135925001Y-115905001D01*
G75*
G02*
X136075001Y-116055001I0J-150000D01*
G01*
X136075001Y-116355001D01*
G75*
G02*
X135925001Y-116505001I-150000J0D01*
G01*
X134175001Y-116505001D01*
G75*
G02*
X134025001Y-116355001I0J150000D01*
G01*
G37*
G04 #@! TD.AperFunction*
G04 #@! TA.AperFunction,SMDPad,CuDef*
G36*
G01*
X134025001Y-117625001D02*
X134025001Y-117325001D01*
G75*
G02*
X134175001Y-117175001I150000J0D01*
G01*
X135925001Y-117175001D01*
G75*
G02*
X136075001Y-117325001I0J-150000D01*
G01*
X136075001Y-117625001D01*
G75*
G02*
X135925001Y-117775001I-150000J0D01*
G01*
X134175001Y-117775001D01*
G75*
G02*
X134025001Y-117625001I0J150000D01*
G01*
G37*
G04 #@! TD.AperFunction*
G04 #@! TA.AperFunction,SMDPad,CuDef*
G36*
G01*
X134025001Y-118895001D02*
X134025001Y-118595001D01*
G75*
G02*
X134175001Y-118445001I150000J0D01*
G01*
X135925001Y-118445001D01*
G75*
G02*
X136075001Y-118595001I0J-150000D01*
G01*
X136075001Y-118895001D01*
G75*
G02*
X135925001Y-119045001I-150000J0D01*
G01*
X134175001Y-119045001D01*
G75*
G02*
X134025001Y-118895001I0J150000D01*
G01*
G37*
G04 #@! TD.AperFunction*
G04 #@! TA.AperFunction,SMDPad,CuDef*
G36*
G01*
X134025001Y-120165001D02*
X134025001Y-119865001D01*
G75*
G02*
X134175001Y-119715001I150000J0D01*
G01*
X135925001Y-119715001D01*
G75*
G02*
X136075001Y-119865001I0J-150000D01*
G01*
X136075001Y-120165001D01*
G75*
G02*
X135925001Y-120315001I-150000J0D01*
G01*
X134175001Y-120315001D01*
G75*
G02*
X134025001Y-120165001I0J150000D01*
G01*
G37*
G04 #@! TD.AperFunction*
G04 #@! TA.AperFunction,SMDPad,CuDef*
G36*
G01*
X143325001Y-120165001D02*
X143325001Y-119865001D01*
G75*
G02*
X143475001Y-119715001I150000J0D01*
G01*
X145225001Y-119715001D01*
G75*
G02*
X145375001Y-119865001I0J-150000D01*
G01*
X145375001Y-120165001D01*
G75*
G02*
X145225001Y-120315001I-150000J0D01*
G01*
X143475001Y-120315001D01*
G75*
G02*
X143325001Y-120165001I0J150000D01*
G01*
G37*
G04 #@! TD.AperFunction*
G04 #@! TA.AperFunction,SMDPad,CuDef*
G36*
G01*
X143325001Y-118895001D02*
X143325001Y-118595001D01*
G75*
G02*
X143475001Y-118445001I150000J0D01*
G01*
X145225001Y-118445001D01*
G75*
G02*
X145375001Y-118595001I0J-150000D01*
G01*
X145375001Y-118895001D01*
G75*
G02*
X145225001Y-119045001I-150000J0D01*
G01*
X143475001Y-119045001D01*
G75*
G02*
X143325001Y-118895001I0J150000D01*
G01*
G37*
G04 #@! TD.AperFunction*
G04 #@! TA.AperFunction,SMDPad,CuDef*
G36*
G01*
X143325001Y-117625001D02*
X143325001Y-117325001D01*
G75*
G02*
X143475001Y-117175001I150000J0D01*
G01*
X145225001Y-117175001D01*
G75*
G02*
X145375001Y-117325001I0J-150000D01*
G01*
X145375001Y-117625001D01*
G75*
G02*
X145225001Y-117775001I-150000J0D01*
G01*
X143475001Y-117775001D01*
G75*
G02*
X143325001Y-117625001I0J150000D01*
G01*
G37*
G04 #@! TD.AperFunction*
G04 #@! TA.AperFunction,SMDPad,CuDef*
G36*
G01*
X143325001Y-116355001D02*
X143325001Y-116055001D01*
G75*
G02*
X143475001Y-115905001I150000J0D01*
G01*
X145225001Y-115905001D01*
G75*
G02*
X145375001Y-116055001I0J-150000D01*
G01*
X145375001Y-116355001D01*
G75*
G02*
X145225001Y-116505001I-150000J0D01*
G01*
X143475001Y-116505001D01*
G75*
G02*
X143325001Y-116355001I0J150000D01*
G01*
G37*
G04 #@! TD.AperFunction*
G04 #@! TA.AperFunction,SMDPad,CuDef*
G36*
G01*
X143325001Y-115085001D02*
X143325001Y-114785001D01*
G75*
G02*
X143475001Y-114635001I150000J0D01*
G01*
X145225001Y-114635001D01*
G75*
G02*
X145375001Y-114785001I0J-150000D01*
G01*
X145375001Y-115085001D01*
G75*
G02*
X145225001Y-115235001I-150000J0D01*
G01*
X143475001Y-115235001D01*
G75*
G02*
X143325001Y-115085001I0J150000D01*
G01*
G37*
G04 #@! TD.AperFunction*
G04 #@! TA.AperFunction,SMDPad,CuDef*
G36*
G01*
X143325001Y-113815001D02*
X143325001Y-113515001D01*
G75*
G02*
X143475001Y-113365001I150000J0D01*
G01*
X145225001Y-113365001D01*
G75*
G02*
X145375001Y-113515001I0J-150000D01*
G01*
X145375001Y-113815001D01*
G75*
G02*
X145225001Y-113965001I-150000J0D01*
G01*
X143475001Y-113965001D01*
G75*
G02*
X143325001Y-113815001I0J150000D01*
G01*
G37*
G04 #@! TD.AperFunction*
G04 #@! TA.AperFunction,SMDPad,CuDef*
G36*
G01*
X143325001Y-112545001D02*
X143325001Y-112245001D01*
G75*
G02*
X143475001Y-112095001I150000J0D01*
G01*
X145225001Y-112095001D01*
G75*
G02*
X145375001Y-112245001I0J-150000D01*
G01*
X145375001Y-112545001D01*
G75*
G02*
X145225001Y-112695001I-150000J0D01*
G01*
X143475001Y-112695001D01*
G75*
G02*
X143325001Y-112545001I0J150000D01*
G01*
G37*
G04 #@! TD.AperFunction*
G04 #@! TA.AperFunction,SMDPad,CuDef*
G36*
G01*
X143325001Y-111275001D02*
X143325001Y-110975001D01*
G75*
G02*
X143475001Y-110825001I150000J0D01*
G01*
X145225001Y-110825001D01*
G75*
G02*
X145375001Y-110975001I0J-150000D01*
G01*
X145375001Y-111275001D01*
G75*
G02*
X145225001Y-111425001I-150000J0D01*
G01*
X143475001Y-111425001D01*
G75*
G02*
X143325001Y-111275001I0J150000D01*
G01*
G37*
G04 #@! TD.AperFunction*
G04 #@! TA.AperFunction,SMDPad,CuDef*
G36*
G01*
X143325001Y-110005001D02*
X143325001Y-109705001D01*
G75*
G02*
X143475001Y-109555001I150000J0D01*
G01*
X145225001Y-109555001D01*
G75*
G02*
X145375001Y-109705001I0J-150000D01*
G01*
X145375001Y-110005001D01*
G75*
G02*
X145225001Y-110155001I-150000J0D01*
G01*
X143475001Y-110155001D01*
G75*
G02*
X143325001Y-110005001I0J150000D01*
G01*
G37*
G04 #@! TD.AperFunction*
G04 #@! TA.AperFunction,SMDPad,CuDef*
G36*
G01*
X143325001Y-108735001D02*
X143325001Y-108435001D01*
G75*
G02*
X143475001Y-108285001I150000J0D01*
G01*
X145225001Y-108285001D01*
G75*
G02*
X145375001Y-108435001I0J-150000D01*
G01*
X145375001Y-108735001D01*
G75*
G02*
X145225001Y-108885001I-150000J0D01*
G01*
X143475001Y-108885001D01*
G75*
G02*
X143325001Y-108735001I0J150000D01*
G01*
G37*
G04 #@! TD.AperFunction*
G04 #@! TA.AperFunction,SMDPad,CuDef*
G36*
G01*
X143325001Y-107465001D02*
X143325001Y-107165001D01*
G75*
G02*
X143475001Y-107015001I150000J0D01*
G01*
X145225001Y-107015001D01*
G75*
G02*
X145375001Y-107165001I0J-150000D01*
G01*
X145375001Y-107465001D01*
G75*
G02*
X145225001Y-107615001I-150000J0D01*
G01*
X143475001Y-107615001D01*
G75*
G02*
X143325001Y-107465001I0J150000D01*
G01*
G37*
G04 #@! TD.AperFunction*
G04 #@! TA.AperFunction,SMDPad,CuDef*
G36*
G01*
X143325001Y-106195001D02*
X143325001Y-105895001D01*
G75*
G02*
X143475001Y-105745001I150000J0D01*
G01*
X145225001Y-105745001D01*
G75*
G02*
X145375001Y-105895001I0J-150000D01*
G01*
X145375001Y-106195001D01*
G75*
G02*
X145225001Y-106345001I-150000J0D01*
G01*
X143475001Y-106345001D01*
G75*
G02*
X143325001Y-106195001I0J150000D01*
G01*
G37*
G04 #@! TD.AperFunction*
D10*
X131114801Y-122682001D03*
X131114801Y-121382001D03*
X131114801Y-120082001D03*
D13*
X170180001Y-73660001D03*
G04 #@! TA.AperFunction,SMDPad,CuDef*
G36*
G01*
X128425001Y-101150001D02*
X128425001Y-102050001D01*
G75*
G02*
X128175001Y-102300001I-250000J0D01*
G01*
X127650001Y-102300001D01*
G75*
G02*
X127400001Y-102050001I0J250000D01*
G01*
X127400001Y-101150001D01*
G75*
G02*
X127650001Y-100900001I250000J0D01*
G01*
X128175001Y-100900001D01*
G75*
G02*
X128425001Y-101150001I0J-250000D01*
G01*
G37*
G04 #@! TD.AperFunction*
G04 #@! TA.AperFunction,SMDPad,CuDef*
G36*
G01*
X126600001Y-101150001D02*
X126600001Y-102050001D01*
G75*
G02*
X126350001Y-102300001I-250000J0D01*
G01*
X125825001Y-102300001D01*
G75*
G02*
X125575001Y-102050001I0J250000D01*
G01*
X125575001Y-101150001D01*
G75*
G02*
X125825001Y-100900001I250000J0D01*
G01*
X126350001Y-100900001D01*
G75*
G02*
X126600001Y-101150001I0J-250000D01*
G01*
G37*
G04 #@! TD.AperFunction*
G04 #@! TA.AperFunction,SMDPad,CuDef*
G36*
G01*
X144843201Y-102928401D02*
X144843201Y-103878401D01*
G75*
G02*
X144593201Y-104128401I-250000J0D01*
G01*
X144093201Y-104128401D01*
G75*
G02*
X143843201Y-103878401I0J250000D01*
G01*
X143843201Y-102928401D01*
G75*
G02*
X144093201Y-102678401I250000J0D01*
G01*
X144593201Y-102678401D01*
G75*
G02*
X144843201Y-102928401I0J-250000D01*
G01*
G37*
G04 #@! TD.AperFunction*
G04 #@! TA.AperFunction,SMDPad,CuDef*
G36*
G01*
X142943201Y-102928401D02*
X142943201Y-103878401D01*
G75*
G02*
X142693201Y-104128401I-250000J0D01*
G01*
X142193201Y-104128401D01*
G75*
G02*
X141943201Y-103878401I0J250000D01*
G01*
X141943201Y-102928401D01*
G75*
G02*
X142193201Y-102678401I250000J0D01*
G01*
X142693201Y-102678401D01*
G75*
G02*
X142943201Y-102928401I0J-250000D01*
G01*
G37*
G04 #@! TD.AperFunction*
X170180001Y-130810001D03*
D10*
X124764801Y-115092001D03*
X124764801Y-113792001D03*
X124764801Y-112492001D03*
G04 #@! TA.AperFunction,SMDPad,CuDef*
G36*
G01*
X135795601Y-127787101D02*
X136695601Y-127787101D01*
G75*
G02*
X136945601Y-128037101I0J-250000D01*
G01*
X136945601Y-128562101D01*
G75*
G02*
X136695601Y-128812101I-250000J0D01*
G01*
X135795601Y-128812101D01*
G75*
G02*
X135545601Y-128562101I0J250000D01*
G01*
X135545601Y-128037101D01*
G75*
G02*
X135795601Y-127787101I250000J0D01*
G01*
G37*
G04 #@! TD.AperFunction*
G04 #@! TA.AperFunction,SMDPad,CuDef*
G36*
G01*
X135795601Y-129612101D02*
X136695601Y-129612101D01*
G75*
G02*
X136945601Y-129862101I0J-250000D01*
G01*
X136945601Y-130387101D01*
G75*
G02*
X136695601Y-130637101I-250000J0D01*
G01*
X135795601Y-130637101D01*
G75*
G02*
X135545601Y-130387101I0J250000D01*
G01*
X135545601Y-129862101D01*
G75*
G02*
X135795601Y-129612101I250000J0D01*
G01*
G37*
G04 #@! TD.AperFunction*
G04 #@! TA.AperFunction,SMDPad,CuDef*
G36*
G01*
X128378001Y-106230001D02*
X128378001Y-107130001D01*
G75*
G02*
X128128001Y-107380001I-250000J0D01*
G01*
X127603001Y-107380001D01*
G75*
G02*
X127353001Y-107130001I0J250000D01*
G01*
X127353001Y-106230001D01*
G75*
G02*
X127603001Y-105980001I250000J0D01*
G01*
X128128001Y-105980001D01*
G75*
G02*
X128378001Y-106230001I0J-250000D01*
G01*
G37*
G04 #@! TD.AperFunction*
G04 #@! TA.AperFunction,SMDPad,CuDef*
G36*
G01*
X126553001Y-106230001D02*
X126553001Y-107130001D01*
G75*
G02*
X126303001Y-107380001I-250000J0D01*
G01*
X125778001Y-107380001D01*
G75*
G02*
X125528001Y-107130001I0J250000D01*
G01*
X125528001Y-106230001D01*
G75*
G02*
X125778001Y-105980001I250000J0D01*
G01*
X126303001Y-105980001D01*
G75*
G02*
X126553001Y-106230001I0J-250000D01*
G01*
G37*
G04 #@! TD.AperFunction*
D13*
X125730001Y-130810001D03*
G04 #@! TA.AperFunction,SMDPad,CuDef*
G36*
G01*
X138193801Y-77330001D02*
X137243801Y-77330001D01*
G75*
G02*
X136993801Y-77080001I0J250000D01*
G01*
X136993801Y-76580001D01*
G75*
G02*
X137243801Y-76330001I250000J0D01*
G01*
X138193801Y-76330001D01*
G75*
G02*
X138443801Y-76580001I0J-250000D01*
G01*
X138443801Y-77080001D01*
G75*
G02*
X138193801Y-77330001I-250000J0D01*
G01*
G37*
G04 #@! TD.AperFunction*
G04 #@! TA.AperFunction,SMDPad,CuDef*
G36*
G01*
X138193801Y-75430001D02*
X137243801Y-75430001D01*
G75*
G02*
X136993801Y-75180001I0J250000D01*
G01*
X136993801Y-74680001D01*
G75*
G02*
X137243801Y-74430001I250000J0D01*
G01*
X138193801Y-74430001D01*
G75*
G02*
X138443801Y-74680001I0J-250000D01*
G01*
X138443801Y-75180001D01*
G75*
G02*
X138193801Y-75430001I-250000J0D01*
G01*
G37*
G04 #@! TD.AperFunction*
G04 #@! TA.AperFunction,SMDPad,CuDef*
G36*
G01*
X128401501Y-103690001D02*
X128401501Y-104590001D01*
G75*
G02*
X128151501Y-104840001I-250000J0D01*
G01*
X127626501Y-104840001D01*
G75*
G02*
X127376501Y-104590001I0J250000D01*
G01*
X127376501Y-103690001D01*
G75*
G02*
X127626501Y-103440001I250000J0D01*
G01*
X128151501Y-103440001D01*
G75*
G02*
X128401501Y-103690001I0J-250000D01*
G01*
G37*
G04 #@! TD.AperFunction*
G04 #@! TA.AperFunction,SMDPad,CuDef*
G36*
G01*
X126576501Y-103690001D02*
X126576501Y-104590001D01*
G75*
G02*
X126326501Y-104840001I-250000J0D01*
G01*
X125801501Y-104840001D01*
G75*
G02*
X125551501Y-104590001I0J250000D01*
G01*
X125551501Y-103690001D01*
G75*
G02*
X125801501Y-103440001I250000J0D01*
G01*
X126326501Y-103440001D01*
G75*
G02*
X126576501Y-103690001I0J-250000D01*
G01*
G37*
G04 #@! TD.AperFunction*
D10*
X124764801Y-122682001D03*
X124764801Y-121382001D03*
X124764801Y-120082001D03*
G04 #@! TA.AperFunction,SMDPad,CuDef*
G36*
G01*
X134025001Y-79525001D02*
X134025001Y-79225001D01*
G75*
G02*
X134175001Y-79075001I150000J0D01*
G01*
X135925001Y-79075001D01*
G75*
G02*
X136075001Y-79225001I0J-150000D01*
G01*
X136075001Y-79525001D01*
G75*
G02*
X135925001Y-79675001I-150000J0D01*
G01*
X134175001Y-79675001D01*
G75*
G02*
X134025001Y-79525001I0J150000D01*
G01*
G37*
G04 #@! TD.AperFunction*
G04 #@! TA.AperFunction,SMDPad,CuDef*
G36*
G01*
X134025001Y-80795001D02*
X134025001Y-80495001D01*
G75*
G02*
X134175001Y-80345001I150000J0D01*
G01*
X135925001Y-80345001D01*
G75*
G02*
X136075001Y-80495001I0J-150000D01*
G01*
X136075001Y-80795001D01*
G75*
G02*
X135925001Y-80945001I-150000J0D01*
G01*
X134175001Y-80945001D01*
G75*
G02*
X134025001Y-80795001I0J150000D01*
G01*
G37*
G04 #@! TD.AperFunction*
G04 #@! TA.AperFunction,SMDPad,CuDef*
G36*
G01*
X134025001Y-82065001D02*
X134025001Y-81765001D01*
G75*
G02*
X134175001Y-81615001I150000J0D01*
G01*
X135925001Y-81615001D01*
G75*
G02*
X136075001Y-81765001I0J-150000D01*
G01*
X136075001Y-82065001D01*
G75*
G02*
X135925001Y-82215001I-150000J0D01*
G01*
X134175001Y-82215001D01*
G75*
G02*
X134025001Y-82065001I0J150000D01*
G01*
G37*
G04 #@! TD.AperFunction*
G04 #@! TA.AperFunction,SMDPad,CuDef*
G36*
G01*
X134025001Y-83335001D02*
X134025001Y-83035001D01*
G75*
G02*
X134175001Y-82885001I150000J0D01*
G01*
X135925001Y-82885001D01*
G75*
G02*
X136075001Y-83035001I0J-150000D01*
G01*
X136075001Y-83335001D01*
G75*
G02*
X135925001Y-83485001I-150000J0D01*
G01*
X134175001Y-83485001D01*
G75*
G02*
X134025001Y-83335001I0J150000D01*
G01*
G37*
G04 #@! TD.AperFunction*
G04 #@! TA.AperFunction,SMDPad,CuDef*
G36*
G01*
X134025001Y-84605001D02*
X134025001Y-84305001D01*
G75*
G02*
X134175001Y-84155001I150000J0D01*
G01*
X135925001Y-84155001D01*
G75*
G02*
X136075001Y-84305001I0J-150000D01*
G01*
X136075001Y-84605001D01*
G75*
G02*
X135925001Y-84755001I-150000J0D01*
G01*
X134175001Y-84755001D01*
G75*
G02*
X134025001Y-84605001I0J150000D01*
G01*
G37*
G04 #@! TD.AperFunction*
G04 #@! TA.AperFunction,SMDPad,CuDef*
G36*
G01*
X134025001Y-85875001D02*
X134025001Y-85575001D01*
G75*
G02*
X134175001Y-85425001I150000J0D01*
G01*
X135925001Y-85425001D01*
G75*
G02*
X136075001Y-85575001I0J-150000D01*
G01*
X136075001Y-85875001D01*
G75*
G02*
X135925001Y-86025001I-150000J0D01*
G01*
X134175001Y-86025001D01*
G75*
G02*
X134025001Y-85875001I0J150000D01*
G01*
G37*
G04 #@! TD.AperFunction*
G04 #@! TA.AperFunction,SMDPad,CuDef*
G36*
G01*
X134025001Y-87145001D02*
X134025001Y-86845001D01*
G75*
G02*
X134175001Y-86695001I150000J0D01*
G01*
X135925001Y-86695001D01*
G75*
G02*
X136075001Y-86845001I0J-150000D01*
G01*
X136075001Y-87145001D01*
G75*
G02*
X135925001Y-87295001I-150000J0D01*
G01*
X134175001Y-87295001D01*
G75*
G02*
X134025001Y-87145001I0J150000D01*
G01*
G37*
G04 #@! TD.AperFunction*
G04 #@! TA.AperFunction,SMDPad,CuDef*
G36*
G01*
X134025001Y-88415001D02*
X134025001Y-88115001D01*
G75*
G02*
X134175001Y-87965001I150000J0D01*
G01*
X135925001Y-87965001D01*
G75*
G02*
X136075001Y-88115001I0J-150000D01*
G01*
X136075001Y-88415001D01*
G75*
G02*
X135925001Y-88565001I-150000J0D01*
G01*
X134175001Y-88565001D01*
G75*
G02*
X134025001Y-88415001I0J150000D01*
G01*
G37*
G04 #@! TD.AperFunction*
G04 #@! TA.AperFunction,SMDPad,CuDef*
G36*
G01*
X134025001Y-89685001D02*
X134025001Y-89385001D01*
G75*
G02*
X134175001Y-89235001I150000J0D01*
G01*
X135925001Y-89235001D01*
G75*
G02*
X136075001Y-89385001I0J-150000D01*
G01*
X136075001Y-89685001D01*
G75*
G02*
X135925001Y-89835001I-150000J0D01*
G01*
X134175001Y-89835001D01*
G75*
G02*
X134025001Y-89685001I0J150000D01*
G01*
G37*
G04 #@! TD.AperFunction*
G04 #@! TA.AperFunction,SMDPad,CuDef*
G36*
G01*
X134025001Y-90955001D02*
X134025001Y-90655001D01*
G75*
G02*
X134175001Y-90505001I150000J0D01*
G01*
X135925001Y-90505001D01*
G75*
G02*
X136075001Y-90655001I0J-150000D01*
G01*
X136075001Y-90955001D01*
G75*
G02*
X135925001Y-91105001I-150000J0D01*
G01*
X134175001Y-91105001D01*
G75*
G02*
X134025001Y-90955001I0J150000D01*
G01*
G37*
G04 #@! TD.AperFunction*
G04 #@! TA.AperFunction,SMDPad,CuDef*
G36*
G01*
X134025001Y-92225001D02*
X134025001Y-91925001D01*
G75*
G02*
X134175001Y-91775001I150000J0D01*
G01*
X135925001Y-91775001D01*
G75*
G02*
X136075001Y-91925001I0J-150000D01*
G01*
X136075001Y-92225001D01*
G75*
G02*
X135925001Y-92375001I-150000J0D01*
G01*
X134175001Y-92375001D01*
G75*
G02*
X134025001Y-92225001I0J150000D01*
G01*
G37*
G04 #@! TD.AperFunction*
G04 #@! TA.AperFunction,SMDPad,CuDef*
G36*
G01*
X134025001Y-93495001D02*
X134025001Y-93195001D01*
G75*
G02*
X134175001Y-93045001I150000J0D01*
G01*
X135925001Y-93045001D01*
G75*
G02*
X136075001Y-93195001I0J-150000D01*
G01*
X136075001Y-93495001D01*
G75*
G02*
X135925001Y-93645001I-150000J0D01*
G01*
X134175001Y-93645001D01*
G75*
G02*
X134025001Y-93495001I0J150000D01*
G01*
G37*
G04 #@! TD.AperFunction*
G04 #@! TA.AperFunction,SMDPad,CuDef*
G36*
G01*
X143325001Y-93495001D02*
X143325001Y-93195001D01*
G75*
G02*
X143475001Y-93045001I150000J0D01*
G01*
X145225001Y-93045001D01*
G75*
G02*
X145375001Y-93195001I0J-150000D01*
G01*
X145375001Y-93495001D01*
G75*
G02*
X145225001Y-93645001I-150000J0D01*
G01*
X143475001Y-93645001D01*
G75*
G02*
X143325001Y-93495001I0J150000D01*
G01*
G37*
G04 #@! TD.AperFunction*
G04 #@! TA.AperFunction,SMDPad,CuDef*
G36*
G01*
X143325001Y-92225001D02*
X143325001Y-91925001D01*
G75*
G02*
X143475001Y-91775001I150000J0D01*
G01*
X145225001Y-91775001D01*
G75*
G02*
X145375001Y-91925001I0J-150000D01*
G01*
X145375001Y-92225001D01*
G75*
G02*
X145225001Y-92375001I-150000J0D01*
G01*
X143475001Y-92375001D01*
G75*
G02*
X143325001Y-92225001I0J150000D01*
G01*
G37*
G04 #@! TD.AperFunction*
G04 #@! TA.AperFunction,SMDPad,CuDef*
G36*
G01*
X143325001Y-90955001D02*
X143325001Y-90655001D01*
G75*
G02*
X143475001Y-90505001I150000J0D01*
G01*
X145225001Y-90505001D01*
G75*
G02*
X145375001Y-90655001I0J-150000D01*
G01*
X145375001Y-90955001D01*
G75*
G02*
X145225001Y-91105001I-150000J0D01*
G01*
X143475001Y-91105001D01*
G75*
G02*
X143325001Y-90955001I0J150000D01*
G01*
G37*
G04 #@! TD.AperFunction*
G04 #@! TA.AperFunction,SMDPad,CuDef*
G36*
G01*
X143325001Y-89685001D02*
X143325001Y-89385001D01*
G75*
G02*
X143475001Y-89235001I150000J0D01*
G01*
X145225001Y-89235001D01*
G75*
G02*
X145375001Y-89385001I0J-150000D01*
G01*
X145375001Y-89685001D01*
G75*
G02*
X145225001Y-89835001I-150000J0D01*
G01*
X143475001Y-89835001D01*
G75*
G02*
X143325001Y-89685001I0J150000D01*
G01*
G37*
G04 #@! TD.AperFunction*
G04 #@! TA.AperFunction,SMDPad,CuDef*
G36*
G01*
X143325001Y-88415001D02*
X143325001Y-88115001D01*
G75*
G02*
X143475001Y-87965001I150000J0D01*
G01*
X145225001Y-87965001D01*
G75*
G02*
X145375001Y-88115001I0J-150000D01*
G01*
X145375001Y-88415001D01*
G75*
G02*
X145225001Y-88565001I-150000J0D01*
G01*
X143475001Y-88565001D01*
G75*
G02*
X143325001Y-88415001I0J150000D01*
G01*
G37*
G04 #@! TD.AperFunction*
G04 #@! TA.AperFunction,SMDPad,CuDef*
G36*
G01*
X143325001Y-87145001D02*
X143325001Y-86845001D01*
G75*
G02*
X143475001Y-86695001I150000J0D01*
G01*
X145225001Y-86695001D01*
G75*
G02*
X145375001Y-86845001I0J-150000D01*
G01*
X145375001Y-87145001D01*
G75*
G02*
X145225001Y-87295001I-150000J0D01*
G01*
X143475001Y-87295001D01*
G75*
G02*
X143325001Y-87145001I0J150000D01*
G01*
G37*
G04 #@! TD.AperFunction*
G04 #@! TA.AperFunction,SMDPad,CuDef*
G36*
G01*
X143325001Y-85875001D02*
X143325001Y-85575001D01*
G75*
G02*
X143475001Y-85425001I150000J0D01*
G01*
X145225001Y-85425001D01*
G75*
G02*
X145375001Y-85575001I0J-150000D01*
G01*
X145375001Y-85875001D01*
G75*
G02*
X145225001Y-86025001I-150000J0D01*
G01*
X143475001Y-86025001D01*
G75*
G02*
X143325001Y-85875001I0J150000D01*
G01*
G37*
G04 #@! TD.AperFunction*
G04 #@! TA.AperFunction,SMDPad,CuDef*
G36*
G01*
X143325001Y-84605001D02*
X143325001Y-84305001D01*
G75*
G02*
X143475001Y-84155001I150000J0D01*
G01*
X145225001Y-84155001D01*
G75*
G02*
X145375001Y-84305001I0J-150000D01*
G01*
X145375001Y-84605001D01*
G75*
G02*
X145225001Y-84755001I-150000J0D01*
G01*
X143475001Y-84755001D01*
G75*
G02*
X143325001Y-84605001I0J150000D01*
G01*
G37*
G04 #@! TD.AperFunction*
G04 #@! TA.AperFunction,SMDPad,CuDef*
G36*
G01*
X143325001Y-83335001D02*
X143325001Y-83035001D01*
G75*
G02*
X143475001Y-82885001I150000J0D01*
G01*
X145225001Y-82885001D01*
G75*
G02*
X145375001Y-83035001I0J-150000D01*
G01*
X145375001Y-83335001D01*
G75*
G02*
X145225001Y-83485001I-150000J0D01*
G01*
X143475001Y-83485001D01*
G75*
G02*
X143325001Y-83335001I0J150000D01*
G01*
G37*
G04 #@! TD.AperFunction*
G04 #@! TA.AperFunction,SMDPad,CuDef*
G36*
G01*
X143325001Y-82065001D02*
X143325001Y-81765001D01*
G75*
G02*
X143475001Y-81615001I150000J0D01*
G01*
X145225001Y-81615001D01*
G75*
G02*
X145375001Y-81765001I0J-150000D01*
G01*
X145375001Y-82065001D01*
G75*
G02*
X145225001Y-82215001I-150000J0D01*
G01*
X143475001Y-82215001D01*
G75*
G02*
X143325001Y-82065001I0J150000D01*
G01*
G37*
G04 #@! TD.AperFunction*
G04 #@! TA.AperFunction,SMDPad,CuDef*
G36*
G01*
X143325001Y-80795001D02*
X143325001Y-80495001D01*
G75*
G02*
X143475001Y-80345001I150000J0D01*
G01*
X145225001Y-80345001D01*
G75*
G02*
X145375001Y-80495001I0J-150000D01*
G01*
X145375001Y-80795001D01*
G75*
G02*
X145225001Y-80945001I-150000J0D01*
G01*
X143475001Y-80945001D01*
G75*
G02*
X143325001Y-80795001I0J150000D01*
G01*
G37*
G04 #@! TD.AperFunction*
G04 #@! TA.AperFunction,SMDPad,CuDef*
G36*
G01*
X143325001Y-79525001D02*
X143325001Y-79225001D01*
G75*
G02*
X143475001Y-79075001I150000J0D01*
G01*
X145225001Y-79075001D01*
G75*
G02*
X145375001Y-79225001I0J-150000D01*
G01*
X145375001Y-79525001D01*
G75*
G02*
X145225001Y-79675001I-150000J0D01*
G01*
X143475001Y-79675001D01*
G75*
G02*
X143325001Y-79525001I0J150000D01*
G01*
G37*
G04 #@! TD.AperFunction*
X127939801Y-122682001D03*
X127939801Y-121382001D03*
X127939801Y-120082001D03*
D11*
X160020001Y-78740001D03*
D12*
X162560001Y-78740001D03*
X160020001Y-81280001D03*
X162560001Y-81280001D03*
X160020001Y-83820001D03*
X162560001Y-83820001D03*
X160020001Y-86360001D03*
X162560001Y-86360001D03*
X160020001Y-88900001D03*
X162560001Y-88900001D03*
X160020001Y-91440001D03*
X162560001Y-91440001D03*
X160020001Y-93980001D03*
X162560001Y-93980001D03*
X160020001Y-96520001D03*
X162560001Y-96520001D03*
X160020001Y-99060001D03*
X162560001Y-99060001D03*
X160020001Y-101600001D03*
X162560001Y-101600001D03*
X160020001Y-104140001D03*
X162560001Y-104140001D03*
X160020001Y-106680001D03*
X162560001Y-106680001D03*
X160020001Y-109220001D03*
X162560001Y-109220001D03*
X160020001Y-111760001D03*
X162560001Y-111760001D03*
X160020001Y-114300001D03*
X162560001Y-114300001D03*
X160020001Y-116840001D03*
X162560001Y-116840001D03*
X160020001Y-119380001D03*
X162560001Y-119380001D03*
X160020001Y-121920001D03*
X162560001Y-121920001D03*
X160020001Y-124460001D03*
X162560001Y-124460001D03*
X160020001Y-127000001D03*
X162560001Y-127000001D03*
D13*
X125730001Y-73660001D03*
D14*
X142621001Y-81915001D03*
X142621001Y-80645001D03*
X124688601Y-101549201D03*
X132219901Y-101422201D03*
X132969001Y-113792001D03*
X139700001Y-96418401D03*
X129921001Y-109728001D03*
X129540001Y-113792001D03*
X126365001Y-113792001D03*
X131826001Y-106299001D03*
X141427201Y-121666001D03*
X132715001Y-121412001D03*
X147320001Y-83185001D03*
X136779001Y-83185001D03*
X136779001Y-109855001D03*
X146812001Y-84582001D03*
X136779001Y-84455001D03*
X136779001Y-111125001D03*
X147574001Y-85725001D03*
X136779001Y-85725001D03*
X136779001Y-112395001D03*
X146812001Y-86995001D03*
X136779001Y-86995001D03*
X136779001Y-113665001D03*
X147574001Y-88392001D03*
X136779001Y-88265001D03*
X136779001Y-114935001D03*
X146812001Y-89535001D03*
X136779001Y-89535001D03*
X136779001Y-116205001D03*
X136779001Y-90805001D03*
X147574001Y-90805001D03*
X136779001Y-117475001D03*
X146812001Y-92075001D03*
X136779001Y-92075001D03*
X136779001Y-118745001D03*
X133299201Y-107340401D03*
X129540001Y-121361201D03*
X126365001Y-121412001D03*
X132969001Y-109220001D03*
X135051801Y-121462801D03*
X138430001Y-130175001D03*
X140131801Y-74980801D03*
X141351001Y-101727001D03*
X127965201Y-117830601D03*
X134950201Y-95250001D03*
X132842001Y-74980801D03*
D15*
X134397901Y-130147301D02*
X136245601Y-128299601D01*
X133705601Y-130147301D02*
X134397901Y-130147301D01*
X144350001Y-81915001D02*
X142621001Y-81915001D01*
X126929512Y-86289512D02*
X126929512Y-88267834D01*
X146224041Y-107750561D02*
X145389601Y-108585001D01*
X139389542Y-97167912D02*
X140906712Y-97167912D01*
X123410162Y-90793474D02*
X123410162Y-101486162D01*
X140906712Y-97167912D02*
X146224041Y-102485241D01*
X126929512Y-88267834D02*
X126226856Y-88970490D01*
X145389601Y-108585001D02*
X144350001Y-108585001D01*
X146224041Y-102485241D02*
X146224041Y-107750561D01*
X142621001Y-81915001D02*
X138817841Y-85718161D01*
X125233146Y-88970490D02*
X123410162Y-90793474D01*
X123410162Y-101486162D02*
X126064001Y-104140001D01*
X126226856Y-88970490D02*
X125233146Y-88970490D01*
X125730001Y-85090001D02*
X126929512Y-86289512D01*
X138817841Y-96596211D02*
X139389542Y-97167912D01*
X138817841Y-85718161D02*
X138817841Y-96596211D01*
X138318321Y-84947681D02*
X142621001Y-80645001D01*
X138318321Y-96803118D02*
X138318321Y-84947681D01*
X145724521Y-102692149D02*
X140699803Y-97667431D01*
X122910642Y-90449360D02*
X125730001Y-87630001D01*
X139182633Y-97667431D02*
X138318321Y-96803118D01*
X122910642Y-103550142D02*
X122910642Y-90449360D01*
X144350001Y-107315001D02*
X145338801Y-107315001D01*
X144350001Y-80645001D02*
X142621001Y-80645001D01*
X140699803Y-97667431D02*
X139182633Y-97667431D01*
X145338801Y-107315001D02*
X145724521Y-106929281D01*
X126040501Y-106680001D02*
X122910642Y-103550142D01*
X145724521Y-106929281D02*
X145724521Y-102692149D01*
X125730001Y-90170001D02*
X126492001Y-90170001D01*
X130784601Y-79375001D02*
X135050001Y-79375001D01*
X123909681Y-98306481D02*
X123909681Y-91990321D01*
X128016001Y-82143601D02*
X130784601Y-79375001D01*
X124663201Y-99060001D02*
X123909681Y-98306481D01*
X126492001Y-90170001D02*
X128016001Y-88646001D01*
X126087501Y-99060001D02*
X124663201Y-99060001D01*
X123909681Y-91990321D02*
X125730001Y-90170001D01*
X128016001Y-88646001D02*
X128016001Y-82143601D01*
X132219901Y-104508501D02*
X133756401Y-106045001D01*
X126598330Y-98010481D02*
X125086881Y-98010481D01*
X124409201Y-97332801D02*
X124409201Y-94030801D01*
X124688601Y-101549201D02*
X126036701Y-101549201D01*
X126036701Y-101549201D02*
X126087501Y-101600001D01*
X132219901Y-101422201D02*
X132219901Y-104508501D01*
X126949521Y-98361672D02*
X126598330Y-98010481D01*
X125086881Y-98010481D02*
X124409201Y-97332801D01*
X133756401Y-106045001D02*
X135050001Y-106045001D01*
X126087501Y-101600001D02*
X126949521Y-100737981D01*
X126949521Y-100737981D02*
X126949521Y-98361672D01*
X124409201Y-94030801D02*
X125730001Y-92710001D01*
X139446001Y-86715601D02*
X142976601Y-83185001D01*
X132969001Y-113792001D02*
X131114801Y-113792001D01*
X139446001Y-86715601D02*
X139446001Y-96164401D01*
X139446001Y-96164401D02*
X139700001Y-96418401D01*
X144350001Y-83185001D02*
X142976601Y-83185001D01*
X127939801Y-113792001D02*
X129540001Y-113792001D01*
X130911601Y-83566001D02*
X133832601Y-80645001D01*
X133832601Y-80645001D02*
X135050001Y-80645001D01*
X129921001Y-109728001D02*
X130911601Y-108737401D01*
X130911601Y-108737401D02*
X130911601Y-83566001D01*
X131470390Y-105943390D02*
X131470390Y-84531212D01*
X131470390Y-84531212D02*
X134086601Y-81915001D01*
X134086601Y-81915001D02*
X135050001Y-81915001D01*
X124764801Y-113792001D02*
X126365001Y-113792001D01*
X131826001Y-106299001D02*
X131470390Y-105943390D01*
X144273801Y-109778801D02*
X144350001Y-109855001D01*
X132715001Y-121412001D02*
X131144801Y-121412001D01*
X131144801Y-121412001D02*
X131114801Y-121382001D01*
X142900401Y-109778801D02*
X144273801Y-109778801D01*
X141427201Y-121666001D02*
X141427201Y-111252001D01*
X141427201Y-111252001D02*
X142900401Y-109778801D01*
X158115001Y-83185001D02*
X147320001Y-83185001D01*
X136779001Y-83185001D02*
X135050001Y-83185001D01*
X160020001Y-81280001D02*
X158115001Y-83185001D01*
X135050001Y-109855001D02*
X136779001Y-109855001D01*
X136779001Y-84455001D02*
X135050001Y-84455001D01*
X160020001Y-83820001D02*
X159258001Y-84582001D01*
X159258001Y-84582001D02*
X146812001Y-84582001D01*
X135050001Y-111125001D02*
X136779001Y-111125001D01*
X147574001Y-85725001D02*
X159385001Y-85725001D01*
X159385001Y-85725001D02*
X160020001Y-86360001D01*
X136779001Y-85725001D02*
X135050001Y-85725001D01*
X135050001Y-112395001D02*
X136779001Y-112395001D01*
X146812001Y-86995001D02*
X158115001Y-86995001D01*
X136779001Y-86995001D02*
X135050001Y-86995001D01*
X158115001Y-86995001D02*
X160020001Y-88900001D01*
X135050001Y-113665001D02*
X136779001Y-113665001D01*
X156972001Y-88392001D02*
X147574001Y-88392001D01*
X160020001Y-91440001D02*
X156972001Y-88392001D01*
X136779001Y-88265001D02*
X135050001Y-88265001D01*
X135050001Y-114935001D02*
X136779001Y-114935001D01*
X160020001Y-93980001D02*
X155575001Y-89535001D01*
X155575001Y-89535001D02*
X146812001Y-89535001D01*
X136779001Y-89535001D02*
X135050001Y-89535001D01*
X135050001Y-116205001D02*
X136779001Y-116205001D01*
X154305001Y-90805001D02*
X160020001Y-96520001D01*
X136779001Y-90805001D02*
X135050001Y-90805001D01*
X147574001Y-90805001D02*
X154305001Y-90805001D01*
X135050001Y-117475001D02*
X136779001Y-117475001D01*
X160020001Y-99060001D02*
X153035001Y-92075001D01*
X136779001Y-92075001D02*
X135050001Y-92075001D01*
X153035001Y-92075001D02*
X146812001Y-92075001D01*
X135050001Y-118745001D02*
X136779001Y-118745001D01*
X144350001Y-93345001D02*
X144350001Y-94788289D01*
X144350001Y-94788289D02*
X156241713Y-106680001D01*
X156241713Y-106680001D02*
X160020001Y-106680001D01*
X150622001Y-120904001D02*
X149733001Y-120015001D01*
X162560001Y-106680001D02*
X167326578Y-111446578D01*
X149733001Y-120015001D02*
X144350001Y-120015001D01*
X164262336Y-132274573D02*
X156785573Y-132274573D01*
X167326578Y-111446578D02*
X167326578Y-129210331D01*
X156785573Y-132274573D02*
X150622001Y-126111001D01*
X167326578Y-129210331D02*
X164262336Y-132274573D01*
X150622001Y-126111001D02*
X150622001Y-120904001D01*
X142975481Y-94120197D02*
X158075285Y-109220001D01*
X144350001Y-92075001D02*
X143129001Y-92075001D01*
X158075285Y-109220001D02*
X160020001Y-109220001D01*
X143129001Y-92075001D02*
X142975481Y-92228521D01*
X142975481Y-92228521D02*
X142975481Y-94120197D01*
X144350001Y-118745001D02*
X149169416Y-118745001D01*
X151130001Y-125912585D02*
X156992478Y-131775062D01*
X151130001Y-120705586D02*
X151130001Y-125912585D01*
X149169416Y-118745001D02*
X151130001Y-120705586D01*
X166827067Y-113487067D02*
X162560001Y-109220001D01*
X166827067Y-129003424D02*
X166827067Y-113487067D01*
X164055430Y-131775063D02*
X166827067Y-129003424D01*
X156992478Y-131775062D02*
X164055430Y-131775063D01*
X159908857Y-111760001D02*
X160020001Y-111760001D01*
X142475961Y-91585041D02*
X142475961Y-94327105D01*
X142475961Y-94327105D02*
X159908857Y-111760001D01*
X143256001Y-90805001D02*
X142475961Y-91585041D01*
X144350001Y-90805001D02*
X143256001Y-90805001D01*
X151638001Y-125714169D02*
X157199383Y-131275551D01*
X166327556Y-128796520D02*
X166327556Y-115527556D01*
X151638001Y-120396001D02*
X151638001Y-125714169D01*
X144350001Y-117475001D02*
X148717001Y-117475001D01*
X163848525Y-131275553D02*
X166327556Y-128796520D01*
X166327556Y-115527556D02*
X162560001Y-111760001D01*
X157199383Y-131275551D02*
X163848525Y-131275553D01*
X148717001Y-117475001D02*
X151638001Y-120396001D01*
X158750001Y-113030001D02*
X160020001Y-114300001D01*
X141976441Y-90687561D02*
X141976441Y-94534013D01*
X141976441Y-94534013D02*
X158750001Y-111307573D01*
X144350001Y-89535001D02*
X143129001Y-89535001D01*
X158750001Y-111307573D02*
X158750001Y-113030001D01*
X143129001Y-89535001D02*
X141976441Y-90687561D01*
X165828045Y-128589616D02*
X165828045Y-117568045D01*
X163641620Y-130776043D02*
X165828045Y-128589616D01*
X144350001Y-116205001D02*
X148209001Y-116205001D01*
X165828045Y-117568045D02*
X162560001Y-114300001D01*
X157406288Y-130776040D02*
X163641620Y-130776043D01*
X152146001Y-120142001D02*
X152146001Y-125515753D01*
X148209001Y-116205001D02*
X152146001Y-120142001D01*
X152146001Y-125515753D02*
X157406288Y-130776040D01*
X141476921Y-94740921D02*
X158242001Y-111506001D01*
X143129001Y-88265001D02*
X141476921Y-89917081D01*
X158242001Y-115062001D02*
X160020001Y-116840001D01*
X141476921Y-89917081D02*
X141476921Y-94740921D01*
X158242001Y-111506001D02*
X158242001Y-115062001D01*
X144350001Y-88265001D02*
X143129001Y-88265001D01*
X144350001Y-114935001D02*
X147701001Y-114935001D01*
X152654001Y-125317337D02*
X157613193Y-130276529D01*
X163434715Y-130276533D02*
X165328534Y-128382712D01*
X147701001Y-114935001D02*
X152654001Y-119888001D01*
X165328534Y-119608534D02*
X162560001Y-116840001D01*
X165328534Y-128382712D02*
X165328534Y-119608534D01*
X157613193Y-130276529D02*
X163434715Y-130276533D01*
X152654001Y-119888001D02*
X152654001Y-125317337D01*
X140977401Y-94947839D02*
X157734001Y-111704439D01*
X157734001Y-117094001D02*
X160020001Y-119380001D01*
X157734001Y-111704439D02*
X157734001Y-117094001D01*
X143057573Y-86995001D02*
X140977401Y-89075173D01*
X144350001Y-86995001D02*
X143057573Y-86995001D01*
X140977401Y-89075173D02*
X140977401Y-94947839D01*
X164829023Y-128175809D02*
X164829023Y-121649023D01*
X153162001Y-119634001D02*
X153162001Y-125118921D01*
X164829023Y-121649023D02*
X162560001Y-119380001D01*
X153162001Y-125118921D02*
X157820098Y-129777018D01*
X147193001Y-113665001D02*
X153162001Y-119634001D01*
X163227811Y-129777022D02*
X164829023Y-128175809D01*
X157820098Y-129777018D02*
X163227811Y-129777022D01*
X144350001Y-113665001D02*
X147193001Y-113665001D01*
X157226001Y-119126001D02*
X160020001Y-121920001D01*
X144350001Y-85725001D02*
X143129001Y-85725001D01*
X140477882Y-88376120D02*
X140477882Y-95154736D01*
X140477882Y-95154736D02*
X157226001Y-111902855D01*
X143129001Y-85725001D02*
X140477882Y-88376120D01*
X157226001Y-111902855D02*
X157226001Y-119126001D01*
X163020906Y-129277512D02*
X164329512Y-127968905D01*
X164329512Y-127968905D02*
X164329512Y-123689512D01*
X158035097Y-129277512D02*
X163020906Y-129277512D01*
X144350001Y-112395001D02*
X146685001Y-112395001D01*
X164329512Y-123689512D02*
X162560001Y-121920001D01*
X153670001Y-119380001D02*
X153670001Y-124912417D01*
X146685001Y-112395001D02*
X153670001Y-119380001D01*
X153670001Y-124912417D02*
X158035097Y-129277512D01*
X143256001Y-84455001D02*
X144350001Y-84455001D01*
X160020001Y-124460001D02*
X156718001Y-121158001D01*
X156718001Y-112101282D02*
X139978363Y-95361644D01*
X139978363Y-87732639D02*
X143256001Y-84455001D01*
X156718001Y-121158001D02*
X156718001Y-112101282D01*
X139978363Y-95361644D02*
X139978363Y-87732639D01*
X162814001Y-128778001D02*
X163830001Y-127762001D01*
X163830001Y-127762001D02*
X163830001Y-125730001D01*
X146177001Y-111125001D02*
X154169512Y-119117512D01*
X144350001Y-111125001D02*
X146177001Y-111125001D01*
X163830001Y-125730001D02*
X162560001Y-124460001D01*
X154169512Y-119117512D02*
X154169512Y-124705512D01*
X158242001Y-128778001D02*
X162814001Y-128778001D01*
X154169512Y-124705512D02*
X158242001Y-128778001D01*
X135024601Y-107340401D02*
X135050001Y-107315001D01*
X127939801Y-121382001D02*
X129519201Y-121382001D01*
X133299201Y-107340401D02*
X135024601Y-107340401D01*
X129519201Y-121382001D02*
X129540001Y-121361201D01*
X124794801Y-121412001D02*
X124764801Y-121382001D01*
X126365001Y-121412001D02*
X124794801Y-121412001D01*
X133604001Y-108585001D02*
X132969001Y-109220001D01*
X135050001Y-108585001D02*
X133604001Y-108585001D01*
X126334352Y-108534201D02*
X125178481Y-107378330D01*
D16*
X137718801Y-99364801D02*
X137718801Y-124259101D01*
X134066201Y-76830001D02*
X132359401Y-78536801D01*
X135077201Y-76830001D02*
X134066201Y-76830001D01*
D15*
X144350001Y-79375001D02*
X144350001Y-77030001D01*
D16*
X126339601Y-82550001D02*
X125730001Y-82550001D01*
D15*
X141274801Y-99364801D02*
X137718801Y-99364801D01*
X125178481Y-107347681D02*
X122411123Y-104580323D01*
X127912501Y-106633001D02*
X127865501Y-106680001D01*
D16*
X137718801Y-124259101D02*
X133705601Y-128272301D01*
D15*
X127939801Y-108585001D02*
X127939801Y-112492001D01*
X144343201Y-103403401D02*
X144343201Y-102433201D01*
X123012201Y-119380001D02*
X123714201Y-120082001D01*
X131114801Y-112492001D02*
X124764801Y-112492001D01*
X144350001Y-77030001D02*
X144150001Y-76830001D01*
X123012201Y-113157001D02*
X123012201Y-119380001D01*
D16*
X137718801Y-76830001D02*
X135077201Y-76830001D01*
D15*
X123714201Y-120082001D02*
X124764801Y-120082001D01*
D17*
X160020001Y-78740001D02*
X161290001Y-78740001D01*
D15*
X124764801Y-112492001D02*
X123677201Y-112492001D01*
X144343201Y-106038201D02*
X144350001Y-106045001D01*
X144343201Y-102433201D02*
X141274801Y-99364801D01*
D17*
X160020001Y-104140001D02*
X161290001Y-104140001D01*
D15*
X123677201Y-112492001D02*
X123012201Y-113157001D01*
D16*
X137718801Y-99364801D02*
X137718801Y-76830001D01*
D15*
X144343201Y-103403401D02*
X144343201Y-106038201D01*
X127912501Y-99060001D02*
X127912501Y-106633001D01*
X122411123Y-104580323D02*
X122411123Y-85868879D01*
D17*
X161290001Y-104140001D02*
X162560001Y-104140001D01*
D16*
X144150001Y-76830001D02*
X158110001Y-76830001D01*
D15*
X122411123Y-85868879D02*
X125730001Y-82550001D01*
D16*
X130352801Y-78536801D02*
X126339601Y-82550001D01*
D15*
X127939801Y-106754301D02*
X127939801Y-108585001D01*
X125178481Y-107378330D02*
X125178481Y-107347681D01*
X127865501Y-106680001D02*
X127939801Y-106754301D01*
D16*
X137718801Y-76830001D02*
X144150001Y-76830001D01*
D17*
X161290001Y-104140001D02*
X161290001Y-78740001D01*
D15*
X127889001Y-108534201D02*
X126334352Y-108534201D01*
D16*
X158110001Y-76830001D02*
X160020001Y-78740001D01*
D15*
X131114801Y-120082001D02*
X124764801Y-120082001D01*
D17*
X161290001Y-78740001D02*
X162560001Y-78740001D01*
D15*
X127939801Y-108585001D02*
X127889001Y-108534201D01*
D16*
X132359401Y-78536801D02*
X130352801Y-78536801D01*
G04 #@! TA.AperFunction,Conductor*
G36*
X141017972Y-100043303D02*
G01*
X141038946Y-100060206D01*
X142944884Y-101966144D01*
X142978910Y-102028456D01*
X142973845Y-102099271D01*
X142931298Y-102156107D01*
X142864778Y-102180918D01*
X142842947Y-102180583D01*
X142746764Y-102170729D01*
X142740346Y-102170401D01*
X142715316Y-102170401D01*
X142700077Y-102174876D01*
X142698872Y-102176266D01*
X142697201Y-102183949D01*
X142697201Y-104618285D01*
X142701676Y-104633524D01*
X142703066Y-104634729D01*
X142710749Y-104636400D01*
X142740296Y-104636400D01*
X142746815Y-104636063D01*
X142842407Y-104626144D01*
X142855801Y-104623252D01*
X143009985Y-104571813D01*
X143023163Y-104565640D01*
X143161008Y-104480338D01*
X143172409Y-104471302D01*
X143286939Y-104356573D01*
X143293995Y-104347639D01*
X143351913Y-104306578D01*
X143422836Y-104303348D01*
X143484247Y-104338975D01*
X143491047Y-104346808D01*
X143494723Y-104352749D01*
X143619898Y-104477706D01*
X143626129Y-104481547D01*
X143631874Y-104486084D01*
X143630824Y-104487414D01*
X143672309Y-104533508D01*
X143684701Y-104587998D01*
X143684701Y-105110501D01*
X143664699Y-105178622D01*
X143611043Y-105225115D01*
X143558701Y-105236501D01*
X143408499Y-105236501D01*
X143406051Y-105236694D01*
X143406043Y-105236694D01*
X143377580Y-105238934D01*
X143377575Y-105238935D01*
X143371170Y-105239439D01*
X143275264Y-105267302D01*
X143219013Y-105283644D01*
X143219011Y-105283645D01*
X143211400Y-105285856D01*
X143204573Y-105289893D01*
X143204574Y-105289893D01*
X143075021Y-105366510D01*
X143075018Y-105366512D01*
X143068194Y-105370548D01*
X142950548Y-105488194D01*
X142946512Y-105495018D01*
X142946510Y-105495021D01*
X142911657Y-105553955D01*
X142865856Y-105631400D01*
X142819439Y-105791170D01*
X142818935Y-105797575D01*
X142818934Y-105797580D01*
X142816694Y-105826043D01*
X142816501Y-105828499D01*
X142816501Y-106261503D01*
X142819439Y-106298832D01*
X142846684Y-106392610D01*
X142860489Y-106440127D01*
X142865856Y-106458602D01*
X142950548Y-106601808D01*
X142953230Y-106604490D01*
X142978503Y-106668862D01*
X142964601Y-106738485D01*
X142954429Y-106754313D01*
X142950548Y-106758194D01*
X142865856Y-106901400D01*
X142819439Y-107061170D01*
X142818935Y-107067575D01*
X142818934Y-107067580D01*
X142816694Y-107096043D01*
X142816501Y-107098499D01*
X142816501Y-107531503D01*
X142816694Y-107533951D01*
X142816694Y-107533959D01*
X142818240Y-107553596D01*
X142819439Y-107568832D01*
X142821234Y-107575009D01*
X142862352Y-107716540D01*
X142865856Y-107728602D01*
X142950548Y-107871808D01*
X142953230Y-107874490D01*
X142978503Y-107938862D01*
X142964601Y-108008485D01*
X142954429Y-108024313D01*
X142950548Y-108028194D01*
X142865856Y-108171400D01*
X142863645Y-108179011D01*
X142863644Y-108179013D01*
X142860539Y-108189700D01*
X142819439Y-108331170D01*
X142818935Y-108337575D01*
X142818934Y-108337580D01*
X142816694Y-108366043D01*
X142816501Y-108368499D01*
X142816501Y-108801503D01*
X142816694Y-108803951D01*
X142816694Y-108803959D01*
X142818608Y-108828269D01*
X142819439Y-108838832D01*
X142821233Y-108845008D01*
X142821234Y-108845012D01*
X142858558Y-108973484D01*
X142858355Y-109044480D01*
X142819801Y-109104096D01*
X142753354Y-109133642D01*
X142743202Y-109134925D01*
X142743198Y-109134926D01*
X142735337Y-109135919D01*
X142727972Y-109138835D01*
X142727968Y-109138836D01*
X142692383Y-109152925D01*
X142681153Y-109156770D01*
X142636800Y-109169656D01*
X142629976Y-109173692D01*
X142618344Y-109180571D01*
X142600588Y-109189270D01*
X142580645Y-109197166D01*
X142567725Y-109206553D01*
X142543269Y-109224321D01*
X142533350Y-109230836D01*
X142500424Y-109250309D01*
X142500420Y-109250312D01*
X142493594Y-109254349D01*
X142478433Y-109269510D01*
X142463401Y-109282349D01*
X142446044Y-109294960D01*
X142440991Y-109301068D01*
X142416595Y-109330558D01*
X142408605Y-109339338D01*
X141019597Y-110728346D01*
X141010814Y-110736338D01*
X141004121Y-110740585D01*
X140998695Y-110746363D01*
X140955596Y-110792259D01*
X140952841Y-110795101D01*
X140932274Y-110815668D01*
X140929557Y-110819171D01*
X140921849Y-110828196D01*
X140890229Y-110861868D01*
X140886408Y-110868819D01*
X140886407Y-110868820D01*
X140879898Y-110880659D01*
X140869044Y-110897183D01*
X140862172Y-110906043D01*
X140855897Y-110914133D01*
X140852750Y-110921405D01*
X140852749Y-110921407D01*
X140837547Y-110956536D01*
X140832325Y-110967196D01*
X140825234Y-110980095D01*
X140810077Y-111007664D01*
X140804742Y-111028442D01*
X140798343Y-111047132D01*
X140789821Y-111066825D01*
X140788581Y-111074656D01*
X140782595Y-111112449D01*
X140780188Y-111124072D01*
X140768701Y-111168813D01*
X140768701Y-111190260D01*
X140767150Y-111209970D01*
X140763795Y-111231153D01*
X140764541Y-111239044D01*
X140768142Y-111277139D01*
X140768701Y-111288997D01*
X140768701Y-120991242D01*
X140748699Y-121059363D01*
X140736337Y-121075552D01*
X140711209Y-121103460D01*
X140688161Y-121129057D01*
X140592674Y-121294445D01*
X140533659Y-121476073D01*
X140532969Y-121482634D01*
X140532969Y-121482636D01*
X140514387Y-121659436D01*
X140513697Y-121666001D01*
X140533659Y-121855929D01*
X140592674Y-122037557D01*
X140688161Y-122202945D01*
X140692579Y-122207852D01*
X140692580Y-122207853D01*
X140771114Y-122295074D01*
X140815948Y-122344867D01*
X140970449Y-122457119D01*
X140976477Y-122459803D01*
X140976479Y-122459804D01*
X141138882Y-122532110D01*
X141144913Y-122534795D01*
X141238313Y-122554648D01*
X141325257Y-122573129D01*
X141325262Y-122573129D01*
X141331714Y-122574501D01*
X141522688Y-122574501D01*
X141529140Y-122573129D01*
X141529145Y-122573129D01*
X141616089Y-122554648D01*
X141709489Y-122534795D01*
X141715520Y-122532110D01*
X141877923Y-122459804D01*
X141877925Y-122459803D01*
X141883953Y-122457119D01*
X142038454Y-122344867D01*
X142083288Y-122295074D01*
X142161822Y-122207853D01*
X142161823Y-122207852D01*
X142166241Y-122202945D01*
X142261728Y-122037557D01*
X142320743Y-121855929D01*
X142340705Y-121666001D01*
X142340015Y-121659436D01*
X142321433Y-121482636D01*
X142321433Y-121482634D01*
X142320743Y-121476073D01*
X142261728Y-121294445D01*
X142166241Y-121129057D01*
X142143194Y-121103460D01*
X142118065Y-121075552D01*
X142087347Y-121011545D01*
X142085701Y-120991242D01*
X142085701Y-111576951D01*
X142105703Y-111508830D01*
X142122606Y-111487856D01*
X142601406Y-111009056D01*
X142663718Y-110975030D01*
X142734533Y-110980095D01*
X142791369Y-111022642D01*
X142816180Y-111089162D01*
X142816501Y-111098151D01*
X142816501Y-111341503D01*
X142816694Y-111343951D01*
X142816694Y-111343959D01*
X142817223Y-111350672D01*
X142819439Y-111378832D01*
X142833033Y-111425622D01*
X142857207Y-111508830D01*
X142865856Y-111538602D01*
X142950548Y-111681808D01*
X142953230Y-111684490D01*
X142978503Y-111748862D01*
X142964601Y-111818485D01*
X142954429Y-111834313D01*
X142950548Y-111838194D01*
X142865856Y-111981400D01*
X142863645Y-111989011D01*
X142863644Y-111989013D01*
X142856307Y-112014269D01*
X142819439Y-112141170D01*
X142816501Y-112178499D01*
X142816501Y-112611503D01*
X142816694Y-112613951D01*
X142816694Y-112613959D01*
X142817829Y-112628374D01*
X142819439Y-112648832D01*
X142865856Y-112808602D01*
X142950548Y-112951808D01*
X142953230Y-112954490D01*
X142978503Y-113018862D01*
X142964601Y-113088485D01*
X142954429Y-113104313D01*
X142950548Y-113108194D01*
X142865856Y-113251400D01*
X142819439Y-113411170D01*
X142818935Y-113417575D01*
X142818934Y-113417580D01*
X142816694Y-113446043D01*
X142816501Y-113448499D01*
X142816501Y-113881503D01*
X142819439Y-113918832D01*
X142865856Y-114078602D01*
X142950548Y-114221808D01*
X142953230Y-114224490D01*
X142978503Y-114288862D01*
X142964601Y-114358485D01*
X142954429Y-114374313D01*
X142950548Y-114378194D01*
X142865856Y-114521400D01*
X142819439Y-114681170D01*
X142818935Y-114687575D01*
X142818934Y-114687580D01*
X142816772Y-114715056D01*
X142816501Y-114718499D01*
X142816501Y-115151503D01*
X142819439Y-115188832D01*
X142865856Y-115348602D01*
X142950548Y-115491808D01*
X142953230Y-115494490D01*
X142978503Y-115558862D01*
X142964601Y-115628485D01*
X142954429Y-115644313D01*
X142950548Y-115648194D01*
X142865856Y-115791400D01*
X142819439Y-115951170D01*
X142818935Y-115957575D01*
X142818934Y-115957580D01*
X142816694Y-115986043D01*
X142816501Y-115988499D01*
X142816501Y-116421503D01*
X142816694Y-116423951D01*
X142816694Y-116423959D01*
X142818583Y-116447951D01*
X142819439Y-116458832D01*
X142841896Y-116536129D01*
X142857462Y-116589708D01*
X142865856Y-116618602D01*
X142950548Y-116761808D01*
X142953230Y-116764490D01*
X142978503Y-116828862D01*
X142964601Y-116898485D01*
X142954429Y-116914313D01*
X142950548Y-116918194D01*
X142865856Y-117061400D01*
X142819439Y-117221170D01*
X142816501Y-117258499D01*
X142816501Y-117691503D01*
X142819439Y-117728832D01*
X142865856Y-117888602D01*
X142950548Y-118031808D01*
X142953230Y-118034490D01*
X142978503Y-118098862D01*
X142964601Y-118168485D01*
X142954429Y-118184313D01*
X142950548Y-118188194D01*
X142865856Y-118331400D01*
X142819439Y-118491170D01*
X142818935Y-118497575D01*
X142818934Y-118497580D01*
X142816694Y-118526043D01*
X142816501Y-118528499D01*
X142816501Y-118961503D01*
X142816694Y-118963951D01*
X142816694Y-118963959D01*
X142818437Y-118986099D01*
X142819439Y-118998832D01*
X142840607Y-119071693D01*
X142857462Y-119129708D01*
X142865856Y-119158602D01*
X142950548Y-119301808D01*
X142953230Y-119304490D01*
X142978503Y-119368862D01*
X142964601Y-119438485D01*
X142954429Y-119454313D01*
X142950548Y-119458194D01*
X142865856Y-119601400D01*
X142863645Y-119609011D01*
X142863644Y-119609013D01*
X142850719Y-119653501D01*
X142819439Y-119761170D01*
X142816501Y-119798499D01*
X142816501Y-120231503D01*
X142816694Y-120233951D01*
X142816694Y-120233959D01*
X142818318Y-120254584D01*
X142819439Y-120268832D01*
X142843030Y-120350032D01*
X142863587Y-120420791D01*
X142865856Y-120428602D01*
X142869893Y-120435428D01*
X142946510Y-120564981D01*
X142946512Y-120564984D01*
X142950548Y-120571808D01*
X143068194Y-120689454D01*
X143075018Y-120693490D01*
X143075021Y-120693492D01*
X143150358Y-120738046D01*
X143211400Y-120774146D01*
X143219011Y-120776357D01*
X143219013Y-120776358D01*
X143258401Y-120787801D01*
X143371170Y-120820563D01*
X143377575Y-120821067D01*
X143377580Y-120821068D01*
X143406043Y-120823308D01*
X143406051Y-120823308D01*
X143408499Y-120823501D01*
X145291503Y-120823501D01*
X145293951Y-120823308D01*
X145293959Y-120823308D01*
X145322422Y-120821068D01*
X145322427Y-120821067D01*
X145328832Y-120820563D01*
X145441601Y-120787801D01*
X145480989Y-120776358D01*
X145480991Y-120776357D01*
X145488602Y-120774146D01*
X145602268Y-120706924D01*
X145629113Y-120691048D01*
X145693252Y-120673501D01*
X149408051Y-120673501D01*
X149476172Y-120693503D01*
X149497146Y-120710406D01*
X149926596Y-121139856D01*
X149960622Y-121202168D01*
X149963501Y-121228951D01*
X149963501Y-126028945D01*
X149962942Y-126040801D01*
X149961213Y-126048538D01*
X149961462Y-126056460D01*
X149963439Y-126119370D01*
X149963501Y-126123328D01*
X149963501Y-126152433D01*
X149964057Y-126156833D01*
X149964989Y-126168665D01*
X149966439Y-126214832D01*
X149968651Y-126222445D01*
X149968651Y-126222446D01*
X149972420Y-126235417D01*
X149976431Y-126254783D01*
X149979119Y-126276065D01*
X149982035Y-126283430D01*
X149982036Y-126283434D01*
X149996127Y-126319022D01*
X149999966Y-126330232D01*
X150012856Y-126374601D01*
X150023776Y-126393066D01*
X150032467Y-126410806D01*
X150040366Y-126430757D01*
X150067517Y-126468127D01*
X150074034Y-126478049D01*
X150093508Y-126510978D01*
X150093511Y-126510982D01*
X150097548Y-126517808D01*
X150112712Y-126532972D01*
X150125552Y-126548005D01*
X150138160Y-126565358D01*
X150173753Y-126594803D01*
X150182533Y-126602793D01*
X156261918Y-132682178D01*
X156269908Y-132690958D01*
X156274157Y-132697653D01*
X156279935Y-132703079D01*
X156279936Y-132703080D01*
X156325830Y-132746177D01*
X156328672Y-132748932D01*
X156349240Y-132769500D01*
X156352743Y-132772217D01*
X156361768Y-132779925D01*
X156395440Y-132811545D01*
X156402391Y-132815366D01*
X156402392Y-132815367D01*
X156414231Y-132821876D01*
X156430755Y-132832730D01*
X156440844Y-132840555D01*
X156447705Y-132845877D01*
X156454977Y-132849024D01*
X156454979Y-132849025D01*
X156490108Y-132864227D01*
X156500768Y-132869449D01*
X156530741Y-132885927D01*
X156541236Y-132891697D01*
X156562014Y-132897032D01*
X156580704Y-132903431D01*
X156600397Y-132911953D01*
X156635136Y-132917455D01*
X156646021Y-132919179D01*
X156657644Y-132921586D01*
X156682327Y-132927923D01*
X156702385Y-132933073D01*
X156723832Y-132933073D01*
X156743542Y-132934624D01*
X156764725Y-132937979D01*
X156810714Y-132933632D01*
X156822569Y-132933073D01*
X164180280Y-132933073D01*
X164192136Y-132933632D01*
X164192139Y-132933632D01*
X164199873Y-132935361D01*
X164270705Y-132933135D01*
X164274663Y-132933073D01*
X164303768Y-132933073D01*
X164308168Y-132932517D01*
X164320000Y-132931585D01*
X164366167Y-132930135D01*
X164386757Y-132924153D01*
X164406118Y-132920143D01*
X164413752Y-132919179D01*
X164419540Y-132918448D01*
X164419541Y-132918448D01*
X164427400Y-132917455D01*
X164434765Y-132914539D01*
X164434769Y-132914538D01*
X164470357Y-132900447D01*
X164481567Y-132896608D01*
X164525936Y-132883718D01*
X164544401Y-132872798D01*
X164562141Y-132864107D01*
X164582092Y-132856208D01*
X164619465Y-132829055D01*
X164629384Y-132822540D01*
X164662313Y-132803066D01*
X164662317Y-132803063D01*
X164669143Y-132799026D01*
X164684307Y-132783862D01*
X164699341Y-132771021D01*
X164716693Y-132758414D01*
X164746139Y-132722820D01*
X164754128Y-132714041D01*
X166656585Y-130811584D01*
X166718897Y-130777558D01*
X166789712Y-130782623D01*
X166846548Y-130825170D01*
X166871519Y-130894303D01*
X166884793Y-131156341D01*
X166885330Y-131159696D01*
X166885331Y-131159702D01*
X166924583Y-131404758D01*
X166941471Y-131510196D01*
X167036034Y-131855860D01*
X167167375Y-132189289D01*
X167198152Y-132247910D01*
X167263136Y-132371686D01*
X167333958Y-132506583D01*
X167335859Y-132509412D01*
X167335865Y-132509422D01*
X167499077Y-132752305D01*
X167533835Y-132804030D01*
X167764666Y-133078151D01*
X168023752Y-133325739D01*
X168308062Y-133543898D01*
X168340057Y-133563351D01*
X168611356Y-133728304D01*
X168611361Y-133728307D01*
X168614271Y-133730076D01*
X168617359Y-133731522D01*
X168617358Y-133731522D01*
X168915959Y-133871397D01*
X168969162Y-133918407D01*
X168988504Y-133986718D01*
X168967844Y-134054642D01*
X168913741Y-134100614D01*
X168862510Y-134111499D01*
X148027645Y-134111499D01*
X127044059Y-134111498D01*
X126975938Y-134091496D01*
X126929445Y-134037840D01*
X126919341Y-133967566D01*
X126948835Y-133902986D01*
X126991808Y-133870843D01*
X127261955Y-133747730D01*
X127265067Y-133746312D01*
X127359053Y-133690507D01*
X127570263Y-133565100D01*
X127570268Y-133565097D01*
X127573208Y-133563351D01*
X127859787Y-133348181D01*
X128121452Y-133103320D01*
X128355141Y-132831631D01*
X128461751Y-132676513D01*
X128556191Y-132539102D01*
X128556196Y-132539095D01*
X128558121Y-132536293D01*
X128559733Y-132533299D01*
X128559738Y-132533291D01*
X128726396Y-132223773D01*
X128728018Y-132220761D01*
X128862843Y-131888725D01*
X128873143Y-131852569D01*
X128943845Y-131604367D01*
X128961021Y-131544071D01*
X129021402Y-131190829D01*
X129023512Y-131156341D01*
X129041608Y-130860454D01*
X129043279Y-130833132D01*
X129043360Y-130810001D01*
X129023980Y-130452160D01*
X128966067Y-130098506D01*
X128870298Y-129753174D01*
X128869022Y-129749966D01*
X128739053Y-129423370D01*
X128737794Y-129420206D01*
X128626421Y-129209859D01*
X128571703Y-129106514D01*
X128571699Y-129106507D01*
X128570104Y-129103495D01*
X128369191Y-128806747D01*
X128137404Y-128533433D01*
X127877455Y-128286751D01*
X127631666Y-128099510D01*
X127595092Y-128071648D01*
X127595090Y-128071647D01*
X127592385Y-128069586D01*
X127589473Y-128067829D01*
X127589468Y-128067826D01*
X127288444Y-127886237D01*
X127288438Y-127886234D01*
X127285529Y-127884479D01*
X126960476Y-127733594D01*
X126739733Y-127658877D01*
X126624256Y-127619790D01*
X126624251Y-127619789D01*
X126621029Y-127618698D01*
X126352419Y-127559148D01*
X126274494Y-127541872D01*
X126274488Y-127541871D01*
X126271159Y-127541133D01*
X126267770Y-127540759D01*
X126267765Y-127540758D01*
X125918339Y-127502181D01*
X125918334Y-127502181D01*
X125914958Y-127501808D01*
X125911559Y-127501802D01*
X125911558Y-127501802D01*
X125742081Y-127501506D01*
X125556593Y-127501183D01*
X125443414Y-127513278D01*
X125203640Y-127538902D01*
X125203632Y-127538903D01*
X125200257Y-127539264D01*
X124850118Y-127615607D01*
X124510272Y-127729318D01*
X124507179Y-127730740D01*
X124507178Y-127730741D01*
X124325091Y-127814492D01*
X124184695Y-127879067D01*
X124181761Y-127880823D01*
X124181759Y-127880824D01*
X123906002Y-128045861D01*
X123877194Y-128063102D01*
X123874468Y-128065164D01*
X123874466Y-128065165D01*
X123703844Y-128194206D01*
X123591368Y-128279271D01*
X123330560Y-128525044D01*
X123097820Y-128797547D01*
X123095901Y-128800359D01*
X123095898Y-128800364D01*
X123070684Y-128837327D01*
X122895872Y-129093592D01*
X122727078Y-129409715D01*
X122725807Y-129412876D01*
X122725804Y-129412883D01*
X122671405Y-129548205D01*
X122627439Y-129603950D01*
X122560314Y-129627075D01*
X122491342Y-129610238D01*
X122442422Y-129558786D01*
X122428498Y-129501209D01*
X122428498Y-123226670D01*
X123506802Y-123226670D01*
X123507172Y-123233491D01*
X123512696Y-123284353D01*
X123516322Y-123299605D01*
X123561477Y-123420055D01*
X123570015Y-123435650D01*
X123646516Y-123537725D01*
X123659077Y-123550286D01*
X123761152Y-123626787D01*
X123776747Y-123635325D01*
X123897195Y-123680479D01*
X123912450Y-123684106D01*
X123963315Y-123689632D01*
X123970129Y-123690001D01*
X124492686Y-123690001D01*
X124507925Y-123685526D01*
X124509130Y-123684136D01*
X124510801Y-123676453D01*
X124510801Y-123671885D01*
X125018801Y-123671885D01*
X125023276Y-123687124D01*
X125024666Y-123688329D01*
X125032349Y-123690000D01*
X125559470Y-123690000D01*
X125566291Y-123689630D01*
X125617153Y-123684106D01*
X125632405Y-123680480D01*
X125752855Y-123635325D01*
X125768450Y-123626787D01*
X125870525Y-123550286D01*
X125883086Y-123537725D01*
X125959587Y-123435650D01*
X125968125Y-123420055D01*
X126013279Y-123299607D01*
X126016906Y-123284352D01*
X126022432Y-123233487D01*
X126022801Y-123226673D01*
X126022801Y-123226670D01*
X126681802Y-123226670D01*
X126682172Y-123233491D01*
X126687696Y-123284353D01*
X126691322Y-123299605D01*
X126736477Y-123420055D01*
X126745015Y-123435650D01*
X126821516Y-123537725D01*
X126834077Y-123550286D01*
X126936152Y-123626787D01*
X126951747Y-123635325D01*
X127072195Y-123680479D01*
X127087450Y-123684106D01*
X127138315Y-123689632D01*
X127145129Y-123690001D01*
X127667686Y-123690001D01*
X127682925Y-123685526D01*
X127684130Y-123684136D01*
X127685801Y-123676453D01*
X127685801Y-123671885D01*
X128193801Y-123671885D01*
X128198276Y-123687124D01*
X128199666Y-123688329D01*
X128207349Y-123690000D01*
X128734470Y-123690000D01*
X128741291Y-123689630D01*
X128792153Y-123684106D01*
X128807405Y-123680480D01*
X128927855Y-123635325D01*
X128943450Y-123626787D01*
X129045525Y-123550286D01*
X129058086Y-123537725D01*
X129134587Y-123435650D01*
X129143125Y-123420055D01*
X129188279Y-123299607D01*
X129191906Y-123284352D01*
X129197432Y-123233487D01*
X129197801Y-123226673D01*
X129197801Y-123226670D01*
X129856802Y-123226670D01*
X129857172Y-123233491D01*
X129862696Y-123284353D01*
X129866322Y-123299605D01*
X129911477Y-123420055D01*
X129920015Y-123435650D01*
X129996516Y-123537725D01*
X130009077Y-123550286D01*
X130111152Y-123626787D01*
X130126747Y-123635325D01*
X130247195Y-123680479D01*
X130262450Y-123684106D01*
X130313315Y-123689632D01*
X130320129Y-123690001D01*
X130842686Y-123690001D01*
X130857925Y-123685526D01*
X130859130Y-123684136D01*
X130860801Y-123676453D01*
X130860801Y-123671885D01*
X131368801Y-123671885D01*
X131373276Y-123687124D01*
X131374666Y-123688329D01*
X131382349Y-123690000D01*
X131909470Y-123690000D01*
X131916291Y-123689630D01*
X131967153Y-123684106D01*
X131982405Y-123680480D01*
X132102855Y-123635325D01*
X132118450Y-123626787D01*
X132220525Y-123550286D01*
X132233086Y-123537725D01*
X132309587Y-123435650D01*
X132318125Y-123420055D01*
X132363279Y-123299607D01*
X132366906Y-123284352D01*
X132372432Y-123233487D01*
X132372801Y-123226673D01*
X132372801Y-122954116D01*
X132368326Y-122938877D01*
X132366936Y-122937672D01*
X132359253Y-122936001D01*
X131386916Y-122936001D01*
X131371677Y-122940476D01*
X131370472Y-122941866D01*
X131368801Y-122949549D01*
X131368801Y-123671885D01*
X130860801Y-123671885D01*
X130860801Y-122954116D01*
X130856326Y-122938877D01*
X130854936Y-122937672D01*
X130847253Y-122936001D01*
X129874917Y-122936001D01*
X129859678Y-122940476D01*
X129858473Y-122941866D01*
X129856802Y-122949549D01*
X129856802Y-123226670D01*
X129197801Y-123226670D01*
X129197801Y-122954116D01*
X129193326Y-122938877D01*
X129191936Y-122937672D01*
X129184253Y-122936001D01*
X128211916Y-122936001D01*
X128196677Y-122940476D01*
X128195472Y-122941866D01*
X128193801Y-122949549D01*
X128193801Y-123671885D01*
X127685801Y-123671885D01*
X127685801Y-122954116D01*
X127681326Y-122938877D01*
X127679936Y-122937672D01*
X127672253Y-122936001D01*
X126699917Y-122936001D01*
X126684678Y-122940476D01*
X126683473Y-122941866D01*
X126681802Y-122949549D01*
X126681802Y-123226670D01*
X126022801Y-123226670D01*
X126022801Y-122954116D01*
X126018326Y-122938877D01*
X126016936Y-122937672D01*
X126009253Y-122936001D01*
X125036916Y-122936001D01*
X125021677Y-122940476D01*
X125020472Y-122941866D01*
X125018801Y-122949549D01*
X125018801Y-123671885D01*
X124510801Y-123671885D01*
X124510801Y-122954116D01*
X124506326Y-122938877D01*
X124504936Y-122937672D01*
X124497253Y-122936001D01*
X123524917Y-122936001D01*
X123509678Y-122940476D01*
X123508473Y-122941866D01*
X123506802Y-122949549D01*
X123506802Y-123226670D01*
X122428498Y-123226670D01*
X122428498Y-120031748D01*
X122448500Y-119963627D01*
X122502156Y-119917134D01*
X122572430Y-119907030D01*
X122637010Y-119936524D01*
X122643593Y-119942653D01*
X123190546Y-120489606D01*
X123198536Y-120498386D01*
X123202785Y-120505081D01*
X123208563Y-120510507D01*
X123208564Y-120510508D01*
X123254458Y-120553605D01*
X123257300Y-120556360D01*
X123277868Y-120576928D01*
X123281371Y-120579645D01*
X123290396Y-120587353D01*
X123324068Y-120618973D01*
X123331019Y-120622794D01*
X123331020Y-120622795D01*
X123342859Y-120629304D01*
X123359383Y-120640158D01*
X123369472Y-120647983D01*
X123376333Y-120653305D01*
X123383605Y-120656452D01*
X123383607Y-120656453D01*
X123418736Y-120671655D01*
X123429395Y-120676877D01*
X123444422Y-120685138D01*
X123494481Y-120735483D01*
X123508985Y-120809161D01*
X123506301Y-120833867D01*
X123506301Y-121930135D01*
X123513056Y-121992317D01*
X123515830Y-121999717D01*
X123516835Y-122003943D01*
X123516835Y-122062240D01*
X123512696Y-122079647D01*
X123507170Y-122130515D01*
X123506801Y-122137329D01*
X123506801Y-122409886D01*
X123511276Y-122425125D01*
X123512666Y-122426330D01*
X123520349Y-122428001D01*
X126004685Y-122428001D01*
X126019924Y-122423526D01*
X126021129Y-122422136D01*
X126025679Y-122401218D01*
X126029166Y-122401977D01*
X126042802Y-122355537D01*
X126096458Y-122309044D01*
X126166732Y-122298940D01*
X126174997Y-122300411D01*
X126263057Y-122319129D01*
X126263062Y-122319129D01*
X126269514Y-122320501D01*
X126460488Y-122320501D01*
X126466940Y-122319129D01*
X126466945Y-122319129D01*
X126529896Y-122305748D01*
X126600687Y-122311150D01*
X126657320Y-122353967D01*
X126676989Y-122393497D01*
X126686276Y-122425125D01*
X126687666Y-122426330D01*
X126695349Y-122428001D01*
X129179685Y-122428001D01*
X129194924Y-122423526D01*
X129196129Y-122422136D01*
X129197800Y-122414453D01*
X129197800Y-122372858D01*
X129217802Y-122304737D01*
X129271458Y-122258244D01*
X129341732Y-122248140D01*
X129349997Y-122249611D01*
X129438057Y-122268329D01*
X129438062Y-122268329D01*
X129444514Y-122269701D01*
X129635488Y-122269701D01*
X129641940Y-122268329D01*
X129641945Y-122268329D01*
X129704604Y-122255010D01*
X129775395Y-122260412D01*
X129832028Y-122303229D01*
X129856521Y-122369867D01*
X129856801Y-122378257D01*
X129856801Y-122409886D01*
X129861276Y-122425125D01*
X129862666Y-122426330D01*
X129870349Y-122428001D01*
X132354685Y-122428001D01*
X132369924Y-122423526D01*
X132371129Y-122422136D01*
X132375679Y-122401218D01*
X132379166Y-122401977D01*
X132392802Y-122355537D01*
X132446458Y-122309044D01*
X132516732Y-122298940D01*
X132524997Y-122300411D01*
X132613057Y-122319129D01*
X132613062Y-122319129D01*
X132619514Y-122320501D01*
X132810488Y-122320501D01*
X132816940Y-122319129D01*
X132816945Y-122319129D01*
X132911924Y-122298940D01*
X132997289Y-122280795D01*
X133022207Y-122269701D01*
X133165723Y-122205804D01*
X133165725Y-122205803D01*
X133171753Y-122203119D01*
X133177471Y-122198965D01*
X133274173Y-122128706D01*
X133326254Y-122090867D01*
X133352030Y-122062240D01*
X133449622Y-121953853D01*
X133449623Y-121953852D01*
X133454041Y-121948945D01*
X133549528Y-121783557D01*
X133608543Y-121601929D01*
X133613163Y-121557978D01*
X133627815Y-121418566D01*
X133628505Y-121412001D01*
X133624253Y-121371543D01*
X133609233Y-121228636D01*
X133609233Y-121228634D01*
X133608543Y-121222073D01*
X133549528Y-121040445D01*
X133454041Y-120875057D01*
X133416954Y-120833867D01*
X133330676Y-120738046D01*
X133330675Y-120738045D01*
X133326254Y-120733135D01*
X133214304Y-120651798D01*
X133177095Y-120624764D01*
X133177094Y-120624763D01*
X133171753Y-120620883D01*
X133165725Y-120618199D01*
X133165723Y-120618198D01*
X133003320Y-120545892D01*
X133003319Y-120545892D01*
X132997289Y-120543207D01*
X132879091Y-120518083D01*
X132816945Y-120504873D01*
X132816940Y-120504873D01*
X132810488Y-120503501D01*
X132619514Y-120503501D01*
X132613062Y-120504873D01*
X132613057Y-120504873D01*
X132550911Y-120518083D01*
X132525497Y-120523485D01*
X132454707Y-120518083D01*
X132398075Y-120475266D01*
X132373581Y-120408629D01*
X132373301Y-120400238D01*
X132373301Y-120280872D01*
X133523457Y-120280872D01*
X133564108Y-120420791D01*
X133570353Y-120435222D01*
X133646912Y-120564679D01*
X133656552Y-120577105D01*
X133762897Y-120683450D01*
X133775323Y-120693090D01*
X133904780Y-120769649D01*
X133919211Y-120775894D01*
X134065066Y-120818270D01*
X134077668Y-120820571D01*
X134106085Y-120822808D01*
X134111015Y-120823001D01*
X134777886Y-120823001D01*
X134793125Y-120818526D01*
X134794330Y-120817136D01*
X134796001Y-120809453D01*
X134796001Y-120804885D01*
X135304001Y-120804885D01*
X135308476Y-120820124D01*
X135309866Y-120821329D01*
X135317549Y-120823000D01*
X135988985Y-120823000D01*
X135993921Y-120822806D01*
X136022337Y-120820571D01*
X136034932Y-120818271D01*
X136180791Y-120775894D01*
X136195222Y-120769649D01*
X136324679Y-120693090D01*
X136337105Y-120683450D01*
X136443450Y-120577105D01*
X136453090Y-120564679D01*
X136529649Y-120435222D01*
X136535894Y-120420791D01*
X136574940Y-120286396D01*
X136574900Y-120272295D01*
X136567631Y-120269001D01*
X135322116Y-120269001D01*
X135306877Y-120273476D01*
X135305672Y-120274866D01*
X135304001Y-120282549D01*
X135304001Y-120804885D01*
X134796001Y-120804885D01*
X134796001Y-120287116D01*
X134791526Y-120271877D01*
X134790136Y-120270672D01*
X134782453Y-120269001D01*
X133538123Y-120269001D01*
X133524592Y-120272974D01*
X133523457Y-120280872D01*
X132373301Y-120280872D01*
X132373301Y-119533867D01*
X132366546Y-119471685D01*
X132315416Y-119335296D01*
X132228062Y-119218740D01*
X132111506Y-119131386D01*
X131975117Y-119080256D01*
X131912935Y-119073501D01*
X130316667Y-119073501D01*
X130254485Y-119080256D01*
X130118096Y-119131386D01*
X130001540Y-119218740D01*
X129914186Y-119335296D01*
X129911034Y-119343704D01*
X129906724Y-119351576D01*
X129905060Y-119350665D01*
X129869138Y-119398491D01*
X129802577Y-119423194D01*
X129793792Y-119423501D01*
X129260810Y-119423501D01*
X129192689Y-119403499D01*
X129146196Y-119349843D01*
X129143898Y-119344307D01*
X129143568Y-119343704D01*
X129140416Y-119335296D01*
X129053062Y-119218740D01*
X128936506Y-119131386D01*
X128800117Y-119080256D01*
X128737935Y-119073501D01*
X127141667Y-119073501D01*
X127079485Y-119080256D01*
X126943096Y-119131386D01*
X126826540Y-119218740D01*
X126739186Y-119335296D01*
X126736034Y-119343704D01*
X126731724Y-119351576D01*
X126730060Y-119350665D01*
X126694138Y-119398491D01*
X126627577Y-119423194D01*
X126618792Y-119423501D01*
X126085810Y-119423501D01*
X126017689Y-119403499D01*
X125971196Y-119349843D01*
X125968898Y-119344307D01*
X125968568Y-119343704D01*
X125965416Y-119335296D01*
X125878062Y-119218740D01*
X125761506Y-119131386D01*
X125625117Y-119080256D01*
X125562935Y-119073501D01*
X123966667Y-119073501D01*
X123904485Y-119080256D01*
X123897089Y-119083028D01*
X123897083Y-119083030D01*
X123840930Y-119104081D01*
X123770123Y-119109264D01*
X123707754Y-119075343D01*
X123673625Y-119013087D01*
X123670701Y-118986099D01*
X123670701Y-116187369D01*
X123690703Y-116119248D01*
X123744359Y-116072755D01*
X123814633Y-116062651D01*
X123840930Y-116069387D01*
X123897192Y-116090479D01*
X123912450Y-116094106D01*
X123963315Y-116099632D01*
X123970129Y-116100001D01*
X124492686Y-116100001D01*
X124507925Y-116095526D01*
X124509130Y-116094136D01*
X124510801Y-116086453D01*
X124510801Y-116081885D01*
X125018801Y-116081885D01*
X125023276Y-116097124D01*
X125024666Y-116098329D01*
X125032349Y-116100000D01*
X125559470Y-116100000D01*
X125566291Y-116099630D01*
X125617153Y-116094106D01*
X125632405Y-116090480D01*
X125752855Y-116045325D01*
X125768450Y-116036787D01*
X125870525Y-115960286D01*
X125883086Y-115947725D01*
X125959587Y-115845650D01*
X125968125Y-115830055D01*
X126013279Y-115709607D01*
X126016906Y-115694352D01*
X126022432Y-115643487D01*
X126022801Y-115636673D01*
X126022801Y-115636670D01*
X126681802Y-115636670D01*
X126682172Y-115643491D01*
X126687696Y-115694353D01*
X126691322Y-115709605D01*
X126736477Y-115830055D01*
X126745015Y-115845650D01*
X126821516Y-115947725D01*
X126834077Y-115960286D01*
X126936152Y-116036787D01*
X126951747Y-116045325D01*
X127072195Y-116090479D01*
X127087450Y-116094106D01*
X127138315Y-116099632D01*
X127145129Y-116100001D01*
X127667686Y-116100001D01*
X127682925Y-116095526D01*
X127684130Y-116094136D01*
X127685801Y-116086453D01*
X127685801Y-116081885D01*
X128193801Y-116081885D01*
X128198276Y-116097124D01*
X128199666Y-116098329D01*
X128207349Y-116100000D01*
X128734470Y-116100000D01*
X128741291Y-116099630D01*
X128792153Y-116094106D01*
X128807405Y-116090480D01*
X128927855Y-116045325D01*
X128943450Y-116036787D01*
X129045525Y-115960286D01*
X129058086Y-115947725D01*
X129134587Y-115845650D01*
X129143125Y-115830055D01*
X129188279Y-115709607D01*
X129191906Y-115694352D01*
X129197432Y-115643487D01*
X129197801Y-115636673D01*
X129197801Y-115636670D01*
X129856802Y-115636670D01*
X129857172Y-115643491D01*
X129862696Y-115694353D01*
X129866322Y-115709605D01*
X129911477Y-115830055D01*
X129920015Y-115845650D01*
X129996516Y-115947725D01*
X130009077Y-115960286D01*
X130111152Y-116036787D01*
X130126747Y-116045325D01*
X130247195Y-116090479D01*
X130262450Y-116094106D01*
X130313315Y-116099632D01*
X130320129Y-116100001D01*
X130842686Y-116100001D01*
X130857925Y-116095526D01*
X130859130Y-116094136D01*
X130860801Y-116086453D01*
X130860801Y-116081885D01*
X131368801Y-116081885D01*
X131373276Y-116097124D01*
X131374666Y-116098329D01*
X131382349Y-116100000D01*
X131909470Y-116100000D01*
X131916291Y-116099630D01*
X131967153Y-116094106D01*
X131982405Y-116090480D01*
X132102855Y-116045325D01*
X132118450Y-116036787D01*
X132220525Y-115960286D01*
X132233086Y-115947725D01*
X132309587Y-115845650D01*
X132318125Y-115830055D01*
X132363279Y-115709607D01*
X132366906Y-115694352D01*
X132372432Y-115643487D01*
X132372801Y-115636673D01*
X132372801Y-115364116D01*
X132368326Y-115348877D01*
X132366936Y-115347672D01*
X132359253Y-115346001D01*
X131386916Y-115346001D01*
X131371677Y-115350476D01*
X131370472Y-115351866D01*
X131368801Y-115359549D01*
X131368801Y-116081885D01*
X130860801Y-116081885D01*
X130860801Y-115364116D01*
X130856326Y-115348877D01*
X130854936Y-115347672D01*
X130847253Y-115346001D01*
X129874917Y-115346001D01*
X129859678Y-115350476D01*
X129858473Y-115351866D01*
X129856802Y-115359549D01*
X129856802Y-115636670D01*
X129197801Y-115636670D01*
X129197801Y-115364116D01*
X129193326Y-115348877D01*
X129191936Y-115347672D01*
X129184253Y-115346001D01*
X128211916Y-115346001D01*
X128196677Y-115350476D01*
X128195472Y-115351866D01*
X128193801Y-115359549D01*
X128193801Y-116081885D01*
X127685801Y-116081885D01*
X127685801Y-115364116D01*
X127681326Y-115348877D01*
X127679936Y-115347672D01*
X127672253Y-115346001D01*
X126699917Y-115346001D01*
X126684678Y-115350476D01*
X126683473Y-115351866D01*
X126681802Y-115359549D01*
X126681802Y-115636670D01*
X126022801Y-115636670D01*
X126022801Y-115364116D01*
X126018326Y-115348877D01*
X126016936Y-115347672D01*
X126009253Y-115346001D01*
X125036916Y-115346001D01*
X125021677Y-115350476D01*
X125020472Y-115351866D01*
X125018801Y-115359549D01*
X125018801Y-116081885D01*
X124510801Y-116081885D01*
X124510801Y-114964001D01*
X124530803Y-114895880D01*
X124584459Y-114849387D01*
X124636801Y-114838001D01*
X126004685Y-114838001D01*
X126019924Y-114833526D01*
X126021129Y-114832136D01*
X126022800Y-114824453D01*
X126022800Y-114803658D01*
X126042802Y-114735537D01*
X126096458Y-114689044D01*
X126166732Y-114678940D01*
X126174997Y-114680411D01*
X126263057Y-114699129D01*
X126263062Y-114699129D01*
X126269514Y-114700501D01*
X126460488Y-114700501D01*
X126466940Y-114699129D01*
X126466945Y-114699129D01*
X126529604Y-114685810D01*
X126600395Y-114691212D01*
X126657028Y-114734029D01*
X126681521Y-114800667D01*
X126681801Y-114809057D01*
X126681801Y-114819886D01*
X126686276Y-114835125D01*
X126687666Y-114836330D01*
X126695349Y-114838001D01*
X129179685Y-114838001D01*
X129194924Y-114833526D01*
X129196129Y-114832136D01*
X129197800Y-114824453D01*
X129197800Y-114803658D01*
X129217802Y-114735537D01*
X129271458Y-114689044D01*
X129341732Y-114678940D01*
X129349997Y-114680411D01*
X129438057Y-114699129D01*
X129438062Y-114699129D01*
X129444514Y-114700501D01*
X129635488Y-114700501D01*
X129641940Y-114699129D01*
X129641945Y-114699129D01*
X129704604Y-114685810D01*
X129775395Y-114691212D01*
X129832028Y-114734029D01*
X129856521Y-114800667D01*
X129856801Y-114809057D01*
X129856801Y-114819886D01*
X129861276Y-114835125D01*
X129862666Y-114836330D01*
X129870349Y-114838001D01*
X132354685Y-114838001D01*
X132369924Y-114833526D01*
X132371129Y-114832136D01*
X132372800Y-114824453D01*
X132372800Y-114715056D01*
X132392802Y-114646935D01*
X132446458Y-114600442D01*
X132516732Y-114590338D01*
X132550048Y-114599949D01*
X132680678Y-114658109D01*
X132680686Y-114658112D01*
X132686713Y-114660795D01*
X132772078Y-114678940D01*
X132867057Y-114699129D01*
X132867062Y-114699129D01*
X132873514Y-114700501D01*
X133064488Y-114700501D01*
X133070940Y-114699129D01*
X133070945Y-114699129D01*
X133165924Y-114678940D01*
X133251289Y-114660795D01*
X133257316Y-114658112D01*
X133257324Y-114658109D01*
X133339253Y-114621632D01*
X133409620Y-114612198D01*
X133473917Y-114642305D01*
X133511730Y-114702394D01*
X133516501Y-114736739D01*
X133516501Y-115151503D01*
X133519439Y-115188832D01*
X133565856Y-115348602D01*
X133650548Y-115491808D01*
X133653230Y-115494490D01*
X133678503Y-115558862D01*
X133664601Y-115628485D01*
X133654429Y-115644313D01*
X133650548Y-115648194D01*
X133565856Y-115791400D01*
X133519439Y-115951170D01*
X133518935Y-115957575D01*
X133518934Y-115957580D01*
X133516694Y-115986043D01*
X133516501Y-115988499D01*
X133516501Y-116421503D01*
X133516694Y-116423951D01*
X133516694Y-116423959D01*
X133518583Y-116447951D01*
X133519439Y-116458832D01*
X133541896Y-116536129D01*
X133557462Y-116589708D01*
X133565856Y-116618602D01*
X133650548Y-116761808D01*
X133653230Y-116764490D01*
X133678503Y-116828862D01*
X133664601Y-116898485D01*
X133654429Y-116914313D01*
X133650548Y-116918194D01*
X133565856Y-117061400D01*
X133519439Y-117221170D01*
X133516501Y-117258499D01*
X133516501Y-117691503D01*
X133519439Y-117728832D01*
X133565856Y-117888602D01*
X133650548Y-118031808D01*
X133653230Y-118034490D01*
X133678503Y-118098862D01*
X133664601Y-118168485D01*
X133654429Y-118184313D01*
X133650548Y-118188194D01*
X133565856Y-118331400D01*
X133519439Y-118491170D01*
X133518935Y-118497575D01*
X133518934Y-118497580D01*
X133516694Y-118526043D01*
X133516501Y-118528499D01*
X133516501Y-118961503D01*
X133516694Y-118963951D01*
X133516694Y-118963959D01*
X133518437Y-118986099D01*
X133519439Y-118998832D01*
X133540607Y-119071693D01*
X133557462Y-119129708D01*
X133565856Y-119158602D01*
X133650548Y-119301808D01*
X133653488Y-119304748D01*
X133678821Y-119369267D01*
X133664922Y-119438890D01*
X133652875Y-119457637D01*
X133646911Y-119465325D01*
X133570353Y-119594780D01*
X133564108Y-119609211D01*
X133525062Y-119743606D01*
X133525102Y-119757707D01*
X133532371Y-119761001D01*
X136561879Y-119761001D01*
X136577050Y-119756546D01*
X136604250Y-119696988D01*
X136663977Y-119658605D01*
X136699474Y-119653501D01*
X136834301Y-119653501D01*
X136902422Y-119673503D01*
X136948915Y-119727159D01*
X136960301Y-119779501D01*
X136960301Y-123892730D01*
X136940299Y-123960851D01*
X136923396Y-123981825D01*
X133665824Y-127239397D01*
X133603512Y-127273423D01*
X133576729Y-127276302D01*
X133199371Y-127276302D01*
X133094472Y-127287185D01*
X133087941Y-127289364D01*
X133087936Y-127289365D01*
X132939790Y-127338791D01*
X132928075Y-127342699D01*
X132778912Y-127435004D01*
X132654984Y-127559148D01*
X132562940Y-127708472D01*
X132560635Y-127715420D01*
X132560635Y-127715421D01*
X132529696Y-127808700D01*
X132507716Y-127874966D01*
X132497101Y-127978570D01*
X132497102Y-128566031D01*
X132507985Y-128670930D01*
X132510164Y-128677461D01*
X132510165Y-128677466D01*
X132523342Y-128716962D01*
X132563499Y-128837327D01*
X132655804Y-128986490D01*
X132779948Y-129110418D01*
X132782871Y-129112220D01*
X132823009Y-129168830D01*
X132826243Y-129239753D01*
X132790619Y-129301165D01*
X132784223Y-129306717D01*
X132778912Y-129310004D01*
X132654984Y-129434148D01*
X132562940Y-129583472D01*
X132560635Y-129590420D01*
X132560635Y-129590421D01*
X132510286Y-129742219D01*
X132507716Y-129749966D01*
X132497101Y-129853570D01*
X132497102Y-130441031D01*
X132507985Y-130545930D01*
X132510164Y-130552461D01*
X132510165Y-130552466D01*
X132546243Y-130660604D01*
X132563499Y-130712327D01*
X132655804Y-130861490D01*
X132779948Y-130985418D01*
X132929272Y-131077462D01*
X132936220Y-131079767D01*
X132936221Y-131079767D01*
X133089235Y-131130520D01*
X133089237Y-131130520D01*
X133095766Y-131132686D01*
X133199370Y-131143301D01*
X133701697Y-131143301D01*
X134211831Y-131143300D01*
X134316730Y-131132417D01*
X134323261Y-131130238D01*
X134323266Y-131130237D01*
X134476179Y-131079221D01*
X134483127Y-131076903D01*
X134632290Y-130984598D01*
X134756218Y-130860454D01*
X134774310Y-130831104D01*
X134843683Y-130718558D01*
X134848262Y-130711130D01*
X134856816Y-130685341D01*
X134897247Y-130626981D01*
X134962812Y-130599745D01*
X135032693Y-130612279D01*
X135084705Y-130660604D01*
X135095933Y-130685134D01*
X135102188Y-130703883D01*
X135108362Y-130717063D01*
X135193664Y-130854908D01*
X135202700Y-130866309D01*
X135317430Y-130980840D01*
X135328841Y-130989852D01*
X135466844Y-131074917D01*
X135480025Y-131081064D01*
X135634311Y-131132239D01*
X135647687Y-131135106D01*
X135742039Y-131144773D01*
X135748455Y-131145101D01*
X135973486Y-131145101D01*
X135988725Y-131140626D01*
X135989930Y-131139236D01*
X135991601Y-131131553D01*
X135991601Y-131126985D01*
X136499601Y-131126985D01*
X136504076Y-131142224D01*
X136505466Y-131143429D01*
X136513149Y-131145100D01*
X136742696Y-131145100D01*
X136749215Y-131144763D01*
X136844807Y-131134844D01*
X136858201Y-131131952D01*
X137012385Y-131080513D01*
X137025563Y-131074340D01*
X137163408Y-130989038D01*
X137174809Y-130980002D01*
X137289340Y-130865272D01*
X137298352Y-130853861D01*
X137383417Y-130715858D01*
X137389564Y-130702677D01*
X137440739Y-130548391D01*
X137443606Y-130535015D01*
X137453273Y-130440663D01*
X137453601Y-130434247D01*
X137453601Y-130396716D01*
X137449126Y-130381477D01*
X137447736Y-130380272D01*
X137440053Y-130378601D01*
X136517716Y-130378601D01*
X136502477Y-130383076D01*
X136501272Y-130384466D01*
X136499601Y-130392149D01*
X136499601Y-131126985D01*
X135991601Y-131126985D01*
X135991601Y-129996601D01*
X136011603Y-129928480D01*
X136065259Y-129881987D01*
X136117601Y-129870601D01*
X137435485Y-129870601D01*
X137450724Y-129866126D01*
X137451929Y-129864736D01*
X137453600Y-129857053D01*
X137453600Y-129815006D01*
X137453263Y-129808487D01*
X137443344Y-129712895D01*
X137440452Y-129699501D01*
X137389013Y-129545317D01*
X137382840Y-129532139D01*
X137297538Y-129394294D01*
X137288502Y-129382893D01*
X137207139Y-129301671D01*
X137173060Y-129239388D01*
X137178063Y-129168568D01*
X137206984Y-129123481D01*
X137289731Y-129040589D01*
X137289735Y-129040584D01*
X137294906Y-129035404D01*
X137298747Y-129029173D01*
X137383876Y-128891069D01*
X137383877Y-128891067D01*
X137387716Y-128884839D01*
X137443398Y-128716962D01*
X137454101Y-128612501D01*
X137454101Y-127986701D01*
X137453591Y-127981787D01*
X137443839Y-127887793D01*
X137443838Y-127887789D01*
X137443127Y-127880935D01*
X137419028Y-127808700D01*
X137389469Y-127720103D01*
X137387151Y-127713155D01*
X137294079Y-127562753D01*
X137168904Y-127437796D01*
X137018339Y-127344986D01*
X136938596Y-127318537D01*
X136856990Y-127291469D01*
X136856988Y-127291469D01*
X136850462Y-127289304D01*
X136843626Y-127288604D01*
X136843623Y-127288603D01*
X136800570Y-127284192D01*
X136746001Y-127278601D01*
X136076172Y-127278601D01*
X136008051Y-127258599D01*
X135961558Y-127204943D01*
X135951454Y-127134669D01*
X135980948Y-127070089D01*
X135987077Y-127063506D01*
X138207712Y-124842871D01*
X138222124Y-124830485D01*
X138233719Y-124821952D01*
X138233724Y-124821947D01*
X138239619Y-124817609D01*
X138244358Y-124812031D01*
X138244361Y-124812028D01*
X138273836Y-124777333D01*
X138280766Y-124769817D01*
X138286461Y-124764122D01*
X138304082Y-124741850D01*
X138306873Y-124738446D01*
X138349392Y-124688398D01*
X138349393Y-124688396D01*
X138354134Y-124682816D01*
X138357462Y-124676300D01*
X138360829Y-124671251D01*
X138363996Y-124666122D01*
X138368535Y-124660385D01*
X138399456Y-124594226D01*
X138401362Y-124590326D01*
X138434570Y-124525293D01*
X138436309Y-124518184D01*
X138438405Y-124512550D01*
X138440324Y-124506780D01*
X138443423Y-124500151D01*
X138458292Y-124428666D01*
X138459262Y-124424383D01*
X138475274Y-124358945D01*
X138476609Y-124353491D01*
X138477301Y-124342337D01*
X138477336Y-124342339D01*
X138477576Y-124338367D01*
X138477953Y-124334146D01*
X138479442Y-124326986D01*
X138477347Y-124249559D01*
X138477301Y-124246151D01*
X138477301Y-103925496D01*
X141435202Y-103925496D01*
X141435539Y-103932015D01*
X141445458Y-104027607D01*
X141448350Y-104041001D01*
X141499789Y-104195185D01*
X141505962Y-104208363D01*
X141591264Y-104346208D01*
X141600300Y-104357609D01*
X141715030Y-104472140D01*
X141726441Y-104481152D01*
X141864444Y-104566217D01*
X141877625Y-104572364D01*
X142031911Y-104623539D01*
X142045287Y-104626406D01*
X142139639Y-104636073D01*
X142146055Y-104636401D01*
X142171086Y-104636401D01*
X142186325Y-104631926D01*
X142187530Y-104630536D01*
X142189201Y-104622853D01*
X142189201Y-103675516D01*
X142184726Y-103660277D01*
X142183336Y-103659072D01*
X142175653Y-103657401D01*
X141453317Y-103657401D01*
X141438078Y-103661876D01*
X141436873Y-103663266D01*
X141435202Y-103670949D01*
X141435202Y-103925496D01*
X138477301Y-103925496D01*
X138477301Y-103131286D01*
X141435201Y-103131286D01*
X141439676Y-103146525D01*
X141441066Y-103147730D01*
X141448749Y-103149401D01*
X142171086Y-103149401D01*
X142186325Y-103144926D01*
X142187530Y-103143536D01*
X142189201Y-103135853D01*
X142189201Y-102188517D01*
X142184726Y-102173278D01*
X142183336Y-102172073D01*
X142175653Y-102170402D01*
X142146106Y-102170402D01*
X142139587Y-102170739D01*
X142043995Y-102180658D01*
X142030601Y-102183550D01*
X141876417Y-102234989D01*
X141863239Y-102241162D01*
X141725394Y-102326464D01*
X141713993Y-102335500D01*
X141599462Y-102450230D01*
X141590450Y-102461641D01*
X141505385Y-102599644D01*
X141499238Y-102612825D01*
X141448063Y-102767111D01*
X141445196Y-102780487D01*
X141435529Y-102874839D01*
X141435201Y-102881256D01*
X141435201Y-103131286D01*
X138477301Y-103131286D01*
X138477301Y-100149301D01*
X138497303Y-100081180D01*
X138550959Y-100034687D01*
X138603301Y-100023301D01*
X140949851Y-100023301D01*
X141017972Y-100043303D01*
G37*
G04 #@! TD.AperFunction*
G04 #@! TA.AperFunction,Conductor*
G36*
X168864886Y-70358502D02*
G01*
X168933007Y-70378504D01*
X168979500Y-70432160D01*
X168989604Y-70502434D01*
X168960110Y-70567014D01*
X168917537Y-70598974D01*
X168634695Y-70729067D01*
X168327194Y-70913102D01*
X168324468Y-70915164D01*
X168324466Y-70915165D01*
X168139913Y-71054742D01*
X168041368Y-71129271D01*
X167780560Y-71375044D01*
X167778348Y-71377634D01*
X167778346Y-71377636D01*
X167771172Y-71386036D01*
X167547820Y-71647547D01*
X167545901Y-71650359D01*
X167545898Y-71650364D01*
X167452625Y-71787098D01*
X167345872Y-71943592D01*
X167177078Y-72259715D01*
X167043412Y-72592219D01*
X167042492Y-72595493D01*
X167042490Y-72595498D01*
X167040333Y-72603174D01*
X166946438Y-72937214D01*
X166887291Y-73290664D01*
X166866662Y-73648435D01*
X166866834Y-73651830D01*
X166866834Y-73651831D01*
X166880537Y-73922329D01*
X166884793Y-74006341D01*
X166885330Y-74009696D01*
X166885331Y-74009702D01*
X166896281Y-74078064D01*
X166941471Y-74360196D01*
X167036034Y-74705860D01*
X167167375Y-75039289D01*
X167198152Y-75097910D01*
X167325930Y-75341291D01*
X167333958Y-75356583D01*
X167335859Y-75359412D01*
X167335865Y-75359422D01*
X167519570Y-75632801D01*
X167533835Y-75654030D01*
X167764666Y-75928151D01*
X168023752Y-76175739D01*
X168308062Y-76393898D01*
X168340057Y-76413351D01*
X168611356Y-76578304D01*
X168611361Y-76578307D01*
X168614271Y-76580076D01*
X168617359Y-76581522D01*
X168617358Y-76581522D01*
X168935711Y-76730650D01*
X168935721Y-76730654D01*
X168938795Y-76732094D01*
X168942013Y-76733196D01*
X168942016Y-76733197D01*
X169274616Y-76847072D01*
X169274624Y-76847074D01*
X169277839Y-76848175D01*
X169627436Y-76926960D01*
X169679729Y-76932918D01*
X169980115Y-76967143D01*
X169980123Y-76967143D01*
X169983498Y-76967528D01*
X169986902Y-76967546D01*
X169986905Y-76967546D01*
X170181228Y-76968563D01*
X170341858Y-76969404D01*
X170345244Y-76969054D01*
X170345246Y-76969054D01*
X170694933Y-76932918D01*
X170694942Y-76932917D01*
X170698325Y-76932567D01*
X170701658Y-76931853D01*
X170701661Y-76931852D01*
X170874187Y-76894865D01*
X171048728Y-76857447D01*
X171388969Y-76744923D01*
X171715067Y-76596312D01*
X171809053Y-76540507D01*
X172020263Y-76415100D01*
X172020268Y-76415097D01*
X172023208Y-76413351D01*
X172309787Y-76198181D01*
X172571452Y-75953320D01*
X172805141Y-75681631D01*
X172933012Y-75495577D01*
X173006191Y-75389102D01*
X173006196Y-75389095D01*
X173008121Y-75386293D01*
X173009733Y-75383299D01*
X173009738Y-75383291D01*
X173176396Y-75073773D01*
X173178018Y-75070761D01*
X173238758Y-74921176D01*
X173282919Y-74865585D01*
X173350125Y-74842695D01*
X173419037Y-74859772D01*
X173467777Y-74911395D01*
X173481501Y-74968580D01*
X173481500Y-84064034D01*
X173481498Y-129500853D01*
X173461496Y-129568974D01*
X173407840Y-129615467D01*
X173337566Y-129625571D01*
X173272986Y-129596077D01*
X173238427Y-129547441D01*
X173189053Y-129423370D01*
X173187794Y-129420206D01*
X173076421Y-129209859D01*
X173021703Y-129106514D01*
X173021699Y-129106507D01*
X173020104Y-129103495D01*
X172819191Y-128806747D01*
X172587404Y-128533433D01*
X172327455Y-128286751D01*
X172081666Y-128099510D01*
X172045092Y-128071648D01*
X172045090Y-128071647D01*
X172042385Y-128069586D01*
X172039473Y-128067829D01*
X172039468Y-128067826D01*
X171738444Y-127886237D01*
X171738438Y-127886234D01*
X171735529Y-127884479D01*
X171410476Y-127733594D01*
X171189733Y-127658877D01*
X171074256Y-127619790D01*
X171074251Y-127619789D01*
X171071029Y-127618698D01*
X170802419Y-127559148D01*
X170724494Y-127541872D01*
X170724488Y-127541871D01*
X170721159Y-127541133D01*
X170717770Y-127540759D01*
X170717765Y-127540758D01*
X170368339Y-127502181D01*
X170368334Y-127502181D01*
X170364958Y-127501808D01*
X170361559Y-127501802D01*
X170361558Y-127501802D01*
X170192081Y-127501506D01*
X170006593Y-127501183D01*
X169893414Y-127513278D01*
X169653640Y-127538902D01*
X169653632Y-127538903D01*
X169650257Y-127539264D01*
X169300118Y-127615607D01*
X168960272Y-127729318D01*
X168957179Y-127730740D01*
X168957178Y-127730741D01*
X168775091Y-127814492D01*
X168634695Y-127879067D01*
X168631761Y-127880823D01*
X168631759Y-127880824D01*
X168356002Y-128045861D01*
X168327194Y-128063102D01*
X168187080Y-128169070D01*
X168120685Y-128194206D01*
X168051237Y-128179456D01*
X168000789Y-128129502D01*
X167985078Y-128068573D01*
X167985078Y-111528637D01*
X167985637Y-111516781D01*
X167987367Y-111509041D01*
X167985140Y-111438189D01*
X167985078Y-111434231D01*
X167985078Y-111405146D01*
X167984524Y-111400757D01*
X167983591Y-111388915D01*
X167983469Y-111385009D01*
X167982140Y-111342747D01*
X167976158Y-111322157D01*
X167972148Y-111302794D01*
X167970453Y-111289374D01*
X167970453Y-111289373D01*
X167969460Y-111281514D01*
X167966544Y-111274149D01*
X167966543Y-111274145D01*
X167952452Y-111238557D01*
X167948613Y-111227347D01*
X167935723Y-111182978D01*
X167924803Y-111164513D01*
X167916112Y-111146773D01*
X167908213Y-111126822D01*
X167881060Y-111089449D01*
X167874545Y-111079530D01*
X167855071Y-111046601D01*
X167855068Y-111046597D01*
X167851031Y-111039771D01*
X167835867Y-111024607D01*
X167823026Y-111009573D01*
X167815079Y-110998635D01*
X167810419Y-110992221D01*
X167774825Y-110962775D01*
X167766046Y-110954786D01*
X163919458Y-107108198D01*
X163885432Y-107045886D01*
X163887995Y-106982474D01*
X163892371Y-106968070D01*
X163921530Y-106746591D01*
X163923157Y-106680001D01*
X163904853Y-106457362D01*
X163850432Y-106240703D01*
X163761355Y-106035841D01*
X163716500Y-105966505D01*
X163642823Y-105852618D01*
X163642821Y-105852615D01*
X163640015Y-105848278D01*
X163489671Y-105683052D01*
X163485620Y-105679853D01*
X163485616Y-105679849D01*
X163318415Y-105547801D01*
X163318411Y-105547799D01*
X163314360Y-105544599D01*
X163273054Y-105521797D01*
X163223085Y-105471365D01*
X163208313Y-105401922D01*
X163233429Y-105335517D01*
X163260781Y-105308910D01*
X163327933Y-105261011D01*
X163439861Y-105181174D01*
X163598097Y-105023490D01*
X163628575Y-104981076D01*
X163725436Y-104846278D01*
X163728454Y-104842078D01*
X163763954Y-104770250D01*
X163825137Y-104646454D01*
X163825138Y-104646452D01*
X163827431Y-104641812D01*
X163877290Y-104477706D01*
X163890866Y-104433024D01*
X163890866Y-104433022D01*
X163892371Y-104428070D01*
X163921530Y-104206591D01*
X163923157Y-104140001D01*
X163904853Y-103917362D01*
X163850432Y-103700703D01*
X163761355Y-103495841D01*
X163684185Y-103376554D01*
X163642823Y-103312618D01*
X163642821Y-103312615D01*
X163640015Y-103308278D01*
X163489671Y-103143052D01*
X163485620Y-103139853D01*
X163485616Y-103139849D01*
X163318415Y-103007801D01*
X163318411Y-103007799D01*
X163314360Y-103004599D01*
X163302200Y-102997886D01*
X163272570Y-102981530D01*
X163222599Y-102931098D01*
X163207827Y-102861655D01*
X163232943Y-102795249D01*
X163260295Y-102768642D01*
X163435329Y-102643793D01*
X163443201Y-102637140D01*
X163594053Y-102486813D01*
X163600731Y-102478966D01*
X163725004Y-102306021D01*
X163730314Y-102297184D01*
X163824671Y-102106268D01*
X163828470Y-102096673D01*
X163890378Y-101892911D01*
X163892556Y-101882838D01*
X163893987Y-101871963D01*
X163891776Y-101857779D01*
X163878618Y-101854001D01*
X162124501Y-101854001D01*
X162056380Y-101833999D01*
X162009887Y-101780343D01*
X161998501Y-101728001D01*
X161998501Y-101472001D01*
X162018503Y-101403880D01*
X162072159Y-101357387D01*
X162124501Y-101346001D01*
X163878345Y-101346001D01*
X163891876Y-101342028D01*
X163893181Y-101332948D01*
X163851215Y-101165876D01*
X163847895Y-101156125D01*
X163762973Y-100960815D01*
X163758106Y-100951740D01*
X163642427Y-100772927D01*
X163636137Y-100764758D01*
X163492807Y-100607241D01*
X163485274Y-100600216D01*
X163318140Y-100468223D01*
X163309557Y-100462521D01*
X163272603Y-100442121D01*
X163222632Y-100391688D01*
X163207860Y-100322246D01*
X163232976Y-100255840D01*
X163260328Y-100229233D01*
X163303728Y-100198276D01*
X163439861Y-100101174D01*
X163480973Y-100060206D01*
X163594436Y-99947138D01*
X163598097Y-99943490D01*
X163657595Y-99860690D01*
X163725436Y-99766278D01*
X163728454Y-99762078D01*
X163740106Y-99738503D01*
X163825137Y-99566454D01*
X163825138Y-99566452D01*
X163827431Y-99561812D01*
X163892371Y-99348070D01*
X163921530Y-99126591D01*
X163923157Y-99060001D01*
X163904853Y-98837362D01*
X163850432Y-98620703D01*
X163761355Y-98415841D01*
X163703190Y-98325931D01*
X163642823Y-98232618D01*
X163642821Y-98232615D01*
X163640015Y-98228278D01*
X163489671Y-98063052D01*
X163485620Y-98059853D01*
X163485616Y-98059849D01*
X163318415Y-97927801D01*
X163318411Y-97927799D01*
X163314360Y-97924599D01*
X163273054Y-97901797D01*
X163223085Y-97851365D01*
X163208313Y-97781922D01*
X163233429Y-97715517D01*
X163260781Y-97688910D01*
X163304604Y-97657651D01*
X163439861Y-97561174D01*
X163598097Y-97403490D01*
X163610983Y-97385558D01*
X163725436Y-97226278D01*
X163728454Y-97222078D01*
X163827431Y-97021812D01*
X163892371Y-96808070D01*
X163921530Y-96586591D01*
X163921616Y-96583084D01*
X163923075Y-96523366D01*
X163923075Y-96523362D01*
X163923157Y-96520001D01*
X163904853Y-96297362D01*
X163850432Y-96080703D01*
X163761355Y-95875841D01*
X163684000Y-95756268D01*
X163642823Y-95692618D01*
X163642821Y-95692615D01*
X163640015Y-95688278D01*
X163489671Y-95523052D01*
X163485620Y-95519853D01*
X163485616Y-95519849D01*
X163318415Y-95387801D01*
X163318411Y-95387799D01*
X163314360Y-95384599D01*
X163273054Y-95361797D01*
X163223085Y-95311365D01*
X163208313Y-95241922D01*
X163233429Y-95175517D01*
X163260781Y-95148910D01*
X163304604Y-95117651D01*
X163439861Y-95021174D01*
X163598097Y-94863490D01*
X163728454Y-94682078D01*
X163768160Y-94601740D01*
X163825137Y-94486454D01*
X163825138Y-94486452D01*
X163827431Y-94481812D01*
X163892371Y-94268070D01*
X163921530Y-94046591D01*
X163921650Y-94041688D01*
X163923075Y-93983366D01*
X163923075Y-93983362D01*
X163923157Y-93980001D01*
X163904853Y-93757362D01*
X163850432Y-93540703D01*
X163761355Y-93335841D01*
X163640015Y-93148278D01*
X163489671Y-92983052D01*
X163485620Y-92979853D01*
X163485616Y-92979849D01*
X163318415Y-92847801D01*
X163318411Y-92847799D01*
X163314360Y-92844599D01*
X163273054Y-92821797D01*
X163223085Y-92771365D01*
X163208313Y-92701922D01*
X163233429Y-92635517D01*
X163260781Y-92608910D01*
X163418077Y-92496712D01*
X163439861Y-92481174D01*
X163451440Y-92469636D01*
X163521210Y-92400108D01*
X163598097Y-92323490D01*
X163728454Y-92142078D01*
X163761606Y-92075001D01*
X163825137Y-91946454D01*
X163825138Y-91946452D01*
X163827431Y-91941812D01*
X163892371Y-91728070D01*
X163921530Y-91506591D01*
X163923157Y-91440001D01*
X163904853Y-91217362D01*
X163850432Y-91000703D01*
X163761355Y-90795841D01*
X163677912Y-90666858D01*
X163642823Y-90612618D01*
X163642821Y-90612615D01*
X163640015Y-90608278D01*
X163489671Y-90443052D01*
X163485620Y-90439853D01*
X163485616Y-90439849D01*
X163318415Y-90307801D01*
X163318411Y-90307799D01*
X163314360Y-90304599D01*
X163273054Y-90281797D01*
X163223085Y-90231365D01*
X163208313Y-90161922D01*
X163233429Y-90095517D01*
X163260781Y-90068910D01*
X163418077Y-89956712D01*
X163439861Y-89941174D01*
X163451440Y-89929636D01*
X163521210Y-89860108D01*
X163598097Y-89783490D01*
X163728454Y-89602078D01*
X163761606Y-89535001D01*
X163825137Y-89406454D01*
X163825138Y-89406452D01*
X163827431Y-89401812D01*
X163892371Y-89188070D01*
X163921530Y-88966591D01*
X163922359Y-88932652D01*
X163923075Y-88903366D01*
X163923075Y-88903362D01*
X163923157Y-88900001D01*
X163904853Y-88677362D01*
X163850432Y-88460703D01*
X163761355Y-88255841D01*
X163640015Y-88068278D01*
X163489671Y-87903052D01*
X163485620Y-87899853D01*
X163485616Y-87899849D01*
X163318415Y-87767801D01*
X163318411Y-87767799D01*
X163314360Y-87764599D01*
X163273054Y-87741797D01*
X163223085Y-87691365D01*
X163208313Y-87621922D01*
X163233429Y-87555517D01*
X163260781Y-87528910D01*
X163418077Y-87416712D01*
X163439861Y-87401174D01*
X163451440Y-87389636D01*
X163521210Y-87320108D01*
X163598097Y-87243490D01*
X163728454Y-87062078D01*
X163761606Y-86995001D01*
X163825137Y-86866454D01*
X163825138Y-86866452D01*
X163827431Y-86861812D01*
X163892371Y-86648070D01*
X163921530Y-86426591D01*
X163923157Y-86360001D01*
X163904853Y-86137362D01*
X163850432Y-85920703D01*
X163761355Y-85715841D01*
X163640015Y-85528278D01*
X163489671Y-85363052D01*
X163485620Y-85359853D01*
X163485616Y-85359849D01*
X163318415Y-85227801D01*
X163318411Y-85227799D01*
X163314360Y-85224599D01*
X163273054Y-85201797D01*
X163223085Y-85151365D01*
X163208313Y-85081922D01*
X163233429Y-85015517D01*
X163260781Y-84988910D01*
X163310344Y-84953557D01*
X163439861Y-84861174D01*
X163486414Y-84814784D01*
X163567371Y-84734109D01*
X163598097Y-84703490D01*
X163660927Y-84616053D01*
X163725436Y-84526278D01*
X163728454Y-84522078D01*
X163766133Y-84445841D01*
X163825137Y-84326454D01*
X163825138Y-84326452D01*
X163827431Y-84321812D01*
X163892371Y-84108070D01*
X163921530Y-83886591D01*
X163922655Y-83840563D01*
X163923075Y-83823366D01*
X163923075Y-83823362D01*
X163923157Y-83820001D01*
X163904853Y-83597362D01*
X163850432Y-83380703D01*
X163761355Y-83175841D01*
X163674993Y-83042346D01*
X163642823Y-82992618D01*
X163642821Y-82992615D01*
X163640015Y-82988278D01*
X163489671Y-82823052D01*
X163485620Y-82819853D01*
X163485616Y-82819849D01*
X163318415Y-82687801D01*
X163318411Y-82687799D01*
X163314360Y-82684599D01*
X163273054Y-82661797D01*
X163223085Y-82611365D01*
X163208313Y-82541922D01*
X163233429Y-82475517D01*
X163260781Y-82448910D01*
X163306413Y-82416361D01*
X163439861Y-82321174D01*
X163444846Y-82316207D01*
X163558606Y-82202843D01*
X163598097Y-82163490D01*
X163607431Y-82150501D01*
X163725436Y-81986278D01*
X163728454Y-81982078D01*
X163827431Y-81781812D01*
X163892371Y-81568070D01*
X163921530Y-81346591D01*
X163923157Y-81280001D01*
X163904853Y-81057362D01*
X163850432Y-80840703D01*
X163761355Y-80635841D01*
X163640015Y-80448278D01*
X163489671Y-80283052D01*
X163485620Y-80279853D01*
X163485616Y-80279849D01*
X163318415Y-80147801D01*
X163318411Y-80147799D01*
X163314360Y-80144599D01*
X163273054Y-80121797D01*
X163223085Y-80071365D01*
X163208313Y-80001922D01*
X163233429Y-79935517D01*
X163260781Y-79908910D01*
X163351933Y-79843892D01*
X163439861Y-79781174D01*
X163444846Y-79776207D01*
X163583401Y-79638135D01*
X163598097Y-79623490D01*
X163619314Y-79593964D01*
X163725436Y-79446278D01*
X163728454Y-79442078D01*
X163827431Y-79241812D01*
X163892371Y-79028070D01*
X163921530Y-78806591D01*
X163923157Y-78740001D01*
X163904853Y-78517362D01*
X163850432Y-78300703D01*
X163761355Y-78095841D01*
X163667618Y-77950945D01*
X163642823Y-77912618D01*
X163642821Y-77912615D01*
X163640015Y-77908278D01*
X163489671Y-77743052D01*
X163485620Y-77739853D01*
X163485616Y-77739849D01*
X163318415Y-77607801D01*
X163318411Y-77607799D01*
X163314360Y-77604599D01*
X163285199Y-77588501D01*
X163262137Y-77575770D01*
X163118790Y-77496639D01*
X163113921Y-77494915D01*
X163113917Y-77494913D01*
X162913088Y-77423796D01*
X162913084Y-77423795D01*
X162908213Y-77422070D01*
X162903120Y-77421163D01*
X162903117Y-77421162D01*
X162693374Y-77383801D01*
X162693368Y-77383800D01*
X162688285Y-77382895D01*
X162614453Y-77381993D01*
X162470082Y-77380229D01*
X162470080Y-77380229D01*
X162464912Y-77380166D01*
X162244092Y-77413956D01*
X162031757Y-77483358D01*
X161833608Y-77586508D01*
X161829475Y-77589611D01*
X161829472Y-77589613D01*
X161663137Y-77714501D01*
X161654966Y-77720636D01*
X161591215Y-77787348D01*
X161574284Y-77805065D01*
X161512760Y-77840495D01*
X161441847Y-77837038D01*
X161384061Y-77795792D01*
X161365208Y-77762244D01*
X161323768Y-77651704D01*
X161320616Y-77643296D01*
X161233262Y-77526740D01*
X161116706Y-77439386D01*
X160980317Y-77388256D01*
X160918135Y-77381501D01*
X159786372Y-77381501D01*
X159718251Y-77361499D01*
X159697277Y-77344596D01*
X158693771Y-76341090D01*
X158681385Y-76326678D01*
X158672852Y-76315083D01*
X158672847Y-76315078D01*
X158668509Y-76309183D01*
X158662931Y-76304444D01*
X158662928Y-76304441D01*
X158628233Y-76274966D01*
X158620717Y-76268036D01*
X158615022Y-76262341D01*
X158598737Y-76249457D01*
X158592750Y-76244720D01*
X158589346Y-76241929D01*
X158539298Y-76199410D01*
X158539296Y-76199409D01*
X158533716Y-76194668D01*
X158527200Y-76191340D01*
X158522151Y-76187973D01*
X158517022Y-76184806D01*
X158511285Y-76180267D01*
X158445126Y-76149346D01*
X158441226Y-76147440D01*
X158376193Y-76114232D01*
X158369085Y-76112493D01*
X158363442Y-76110394D01*
X158357679Y-76108477D01*
X158351051Y-76105379D01*
X158279584Y-76090514D01*
X158275300Y-76089544D01*
X158204391Y-76072193D01*
X158198789Y-76071845D01*
X158198786Y-76071845D01*
X158193237Y-76071501D01*
X158193239Y-76071465D01*
X158189246Y-76071226D01*
X158185054Y-76070852D01*
X158177886Y-76069361D01*
X158111676Y-76071152D01*
X158100480Y-76071455D01*
X158097073Y-76071501D01*
X138810194Y-76071501D01*
X138742073Y-76051499D01*
X138721176Y-76034674D01*
X138672286Y-75985869D01*
X138667104Y-75980696D01*
X138662566Y-75977899D01*
X138621977Y-75920648D01*
X138618747Y-75849725D01*
X138654373Y-75788314D01*
X138662869Y-75780939D01*
X138673008Y-75772903D01*
X138787540Y-75658172D01*
X138796552Y-75646761D01*
X138881617Y-75508758D01*
X138887764Y-75495577D01*
X138938939Y-75341291D01*
X138941806Y-75327915D01*
X138951473Y-75233563D01*
X138951801Y-75227147D01*
X138951801Y-75202116D01*
X138947326Y-75186877D01*
X138945936Y-75185672D01*
X138938253Y-75184001D01*
X137590801Y-75184001D01*
X137522680Y-75163999D01*
X137476187Y-75110343D01*
X137464801Y-75058001D01*
X137464801Y-74657886D01*
X137972801Y-74657886D01*
X137977276Y-74673125D01*
X137978666Y-74674330D01*
X137986349Y-74676001D01*
X138933685Y-74676001D01*
X138948924Y-74671526D01*
X138950129Y-74670136D01*
X138951800Y-74662453D01*
X138951800Y-74632906D01*
X138951463Y-74626387D01*
X138941544Y-74530795D01*
X138938652Y-74517401D01*
X138887213Y-74363217D01*
X138881040Y-74350039D01*
X138795738Y-74212194D01*
X138786702Y-74200793D01*
X138671972Y-74086262D01*
X138660561Y-74077250D01*
X138522558Y-73992185D01*
X138509377Y-73986038D01*
X138355091Y-73934863D01*
X138341715Y-73931996D01*
X138247363Y-73922329D01*
X138240946Y-73922001D01*
X137990916Y-73922001D01*
X137975677Y-73926476D01*
X137974472Y-73927866D01*
X137972801Y-73935549D01*
X137972801Y-74657886D01*
X137464801Y-74657886D01*
X137464801Y-73940117D01*
X137460326Y-73924878D01*
X137458936Y-73923673D01*
X137451253Y-73922002D01*
X137196706Y-73922002D01*
X137190187Y-73922339D01*
X137094595Y-73932258D01*
X137081201Y-73935150D01*
X136927017Y-73986589D01*
X136913839Y-73992762D01*
X136775994Y-74078064D01*
X136764593Y-74087100D01*
X136650062Y-74201830D01*
X136641050Y-74213241D01*
X136555985Y-74351244D01*
X136549838Y-74364425D01*
X136517614Y-74461576D01*
X136477183Y-74519936D01*
X136411619Y-74547172D01*
X136341737Y-74534638D01*
X136289725Y-74486313D01*
X136278497Y-74461784D01*
X136245613Y-74363217D01*
X136239440Y-74350039D01*
X136154138Y-74212194D01*
X136145102Y-74200793D01*
X136030372Y-74086262D01*
X136018961Y-74077250D01*
X135880958Y-73992185D01*
X135867777Y-73986038D01*
X135713491Y-73934863D01*
X135700115Y-73931996D01*
X135605763Y-73922329D01*
X135599346Y-73922001D01*
X135349316Y-73922001D01*
X135334077Y-73926476D01*
X135332872Y-73927866D01*
X135331201Y-73935549D01*
X135331201Y-75058001D01*
X135311199Y-75126122D01*
X135257543Y-75172615D01*
X135205201Y-75184001D01*
X133862317Y-75184001D01*
X133847078Y-75188476D01*
X133845873Y-75189866D01*
X133844202Y-75197549D01*
X133844202Y-75227096D01*
X133844539Y-75233615D01*
X133854458Y-75329207D01*
X133857350Y-75342601D01*
X133908789Y-75496785D01*
X133914962Y-75509963D01*
X134000264Y-75647808D01*
X134009300Y-75659209D01*
X134124029Y-75773739D01*
X134132963Y-75780795D01*
X134174024Y-75838713D01*
X134177254Y-75909636D01*
X134141627Y-75971047D01*
X134133794Y-75977847D01*
X134127853Y-75981523D01*
X134074795Y-76034674D01*
X134071154Y-76038321D01*
X134008872Y-76072400D01*
X133996589Y-76074453D01*
X133993641Y-76074796D01*
X133989333Y-76075222D01*
X133916565Y-76081141D01*
X133909604Y-76083396D01*
X133903664Y-76084583D01*
X133897789Y-76085972D01*
X133890520Y-76086819D01*
X133821871Y-76111737D01*
X133817743Y-76113154D01*
X133755265Y-76133394D01*
X133755263Y-76133395D01*
X133748302Y-76135650D01*
X133742047Y-76139446D01*
X133736573Y-76141952D01*
X133731143Y-76144671D01*
X133724264Y-76147168D01*
X133718144Y-76151181D01*
X133718143Y-76151181D01*
X133663225Y-76187187D01*
X133659521Y-76189524D01*
X133597094Y-76227406D01*
X133588717Y-76234804D01*
X133588693Y-76234777D01*
X133585701Y-76237430D01*
X133582468Y-76240133D01*
X133576349Y-76244145D01*
X133547152Y-76274966D01*
X133523073Y-76300384D01*
X133520695Y-76302826D01*
X132082125Y-77741396D01*
X132019813Y-77775422D01*
X131993030Y-77778301D01*
X130419871Y-77778301D01*
X130400921Y-77776868D01*
X130386686Y-77774702D01*
X130386682Y-77774702D01*
X130379452Y-77773602D01*
X130372160Y-77774195D01*
X130372157Y-77774195D01*
X130326783Y-77777886D01*
X130316568Y-77778301D01*
X130308508Y-77778301D01*
X130304874Y-77778725D01*
X130304868Y-77778725D01*
X130291843Y-77780244D01*
X130280281Y-77781592D01*
X130275933Y-77782022D01*
X130203165Y-77787941D01*
X130196204Y-77790196D01*
X130190264Y-77791383D01*
X130184389Y-77792772D01*
X130177120Y-77793619D01*
X130108471Y-77818537D01*
X130104343Y-77819954D01*
X130041865Y-77840194D01*
X130041863Y-77840195D01*
X130034902Y-77842450D01*
X130028647Y-77846246D01*
X130023173Y-77848752D01*
X130017743Y-77851471D01*
X130010864Y-77853968D01*
X130004744Y-77857981D01*
X130004743Y-77857981D01*
X129949825Y-77893987D01*
X129946121Y-77896324D01*
X129883694Y-77934206D01*
X129875317Y-77941604D01*
X129875293Y-77941577D01*
X129872301Y-77944230D01*
X129869068Y-77946933D01*
X129862949Y-77950945D01*
X129857917Y-77956257D01*
X129809673Y-78007184D01*
X129807295Y-78009626D01*
X126662325Y-81154596D01*
X126600013Y-81188622D01*
X126573230Y-81191501D01*
X124831867Y-81191501D01*
X124769685Y-81198256D01*
X124633296Y-81249386D01*
X124516740Y-81336740D01*
X124429386Y-81453296D01*
X124378256Y-81589685D01*
X124371501Y-81651867D01*
X124371501Y-82925052D01*
X124351499Y-82993173D01*
X124334596Y-83014147D01*
X122643595Y-84705148D01*
X122581283Y-84739174D01*
X122510468Y-84734109D01*
X122453632Y-84691562D01*
X122428821Y-84625042D01*
X122428500Y-84616053D01*
X122428500Y-74969599D01*
X122448502Y-74901478D01*
X122502158Y-74854985D01*
X122572432Y-74844881D01*
X122637012Y-74874375D01*
X122671733Y-74923420D01*
X122717375Y-75039289D01*
X122748152Y-75097910D01*
X122875930Y-75341291D01*
X122883958Y-75356583D01*
X122885859Y-75359412D01*
X122885865Y-75359422D01*
X123069570Y-75632801D01*
X123083835Y-75654030D01*
X123314666Y-75928151D01*
X123573752Y-76175739D01*
X123858062Y-76393898D01*
X123890057Y-76413351D01*
X124161356Y-76578304D01*
X124161361Y-76578307D01*
X124164271Y-76580076D01*
X124167359Y-76581522D01*
X124167358Y-76581522D01*
X124485711Y-76730650D01*
X124485721Y-76730654D01*
X124488795Y-76732094D01*
X124492013Y-76733196D01*
X124492016Y-76733197D01*
X124824616Y-76847072D01*
X124824624Y-76847074D01*
X124827839Y-76848175D01*
X125177436Y-76926960D01*
X125229729Y-76932918D01*
X125530115Y-76967143D01*
X125530123Y-76967143D01*
X125533498Y-76967528D01*
X125536902Y-76967546D01*
X125536905Y-76967546D01*
X125731228Y-76968563D01*
X125891858Y-76969404D01*
X125895244Y-76969054D01*
X125895246Y-76969054D01*
X126244933Y-76932918D01*
X126244942Y-76932917D01*
X126248325Y-76932567D01*
X126251658Y-76931853D01*
X126251661Y-76931852D01*
X126424187Y-76894865D01*
X126598728Y-76857447D01*
X126938969Y-76744923D01*
X127265067Y-76596312D01*
X127359053Y-76540507D01*
X127570263Y-76415100D01*
X127570268Y-76415097D01*
X127573208Y-76413351D01*
X127859787Y-76198181D01*
X128121452Y-75953320D01*
X128355141Y-75681631D01*
X128483012Y-75495577D01*
X128556191Y-75389102D01*
X128556196Y-75389095D01*
X128558121Y-75386293D01*
X128559733Y-75383299D01*
X128559738Y-75383291D01*
X128726396Y-75073773D01*
X128728018Y-75070761D01*
X128862843Y-74738725D01*
X128873143Y-74702569D01*
X128885871Y-74657886D01*
X133844201Y-74657886D01*
X133848676Y-74673125D01*
X133850066Y-74674330D01*
X133857749Y-74676001D01*
X134805086Y-74676001D01*
X134820325Y-74671526D01*
X134821530Y-74670136D01*
X134823201Y-74662453D01*
X134823201Y-73940117D01*
X134818726Y-73924878D01*
X134817336Y-73923673D01*
X134809653Y-73922002D01*
X134555106Y-73922002D01*
X134548587Y-73922339D01*
X134452995Y-73932258D01*
X134439601Y-73935150D01*
X134285417Y-73986589D01*
X134272239Y-73992762D01*
X134134394Y-74078064D01*
X134122993Y-74087100D01*
X134008462Y-74201830D01*
X133999450Y-74213241D01*
X133914385Y-74351244D01*
X133908238Y-74364425D01*
X133857063Y-74518711D01*
X133854196Y-74532087D01*
X133844529Y-74626439D01*
X133844201Y-74632856D01*
X133844201Y-74657886D01*
X128885871Y-74657886D01*
X128941732Y-74461784D01*
X128961021Y-74394071D01*
X128992110Y-74212194D01*
X129020830Y-74044176D01*
X129020830Y-74044174D01*
X129021402Y-74040829D01*
X129023512Y-74006341D01*
X129043169Y-73684929D01*
X129043279Y-73683132D01*
X129043360Y-73660001D01*
X129023980Y-73302160D01*
X128966067Y-72948506D01*
X128870298Y-72603174D01*
X128867244Y-72595498D01*
X128739053Y-72273370D01*
X128737794Y-72270206D01*
X128646780Y-72098311D01*
X128571703Y-71956514D01*
X128571699Y-71956507D01*
X128570104Y-71953495D01*
X128369191Y-71656747D01*
X128137404Y-71383433D01*
X127877455Y-71136751D01*
X127592385Y-70919586D01*
X127589473Y-70917829D01*
X127589468Y-70917826D01*
X127288444Y-70736237D01*
X127288438Y-70736234D01*
X127285529Y-70734479D01*
X127116497Y-70656017D01*
X126993209Y-70598788D01*
X126939842Y-70551964D01*
X126920262Y-70483721D01*
X126940686Y-70415725D01*
X126994628Y-70369566D01*
X127046260Y-70358501D01*
X147930771Y-70358501D01*
X168864886Y-70358502D01*
G37*
G04 #@! TD.AperFunction*
G04 #@! TA.AperFunction,Conductor*
G36*
X147091053Y-103406048D02*
G01*
X147097636Y-103412177D01*
X156022596Y-112337137D01*
X156056622Y-112399449D01*
X156059501Y-112426232D01*
X156059501Y-121075945D01*
X156058942Y-121087801D01*
X156057213Y-121095538D01*
X156057462Y-121103460D01*
X156059439Y-121166370D01*
X156059501Y-121170328D01*
X156059501Y-121199433D01*
X156060057Y-121203833D01*
X156060989Y-121215665D01*
X156062439Y-121261832D01*
X156065624Y-121272793D01*
X156068420Y-121282417D01*
X156072431Y-121301783D01*
X156075119Y-121323065D01*
X156078035Y-121330430D01*
X156078036Y-121330434D01*
X156092127Y-121366022D01*
X156095966Y-121377232D01*
X156108856Y-121421601D01*
X156119776Y-121440066D01*
X156128467Y-121457806D01*
X156136366Y-121477757D01*
X156147704Y-121493362D01*
X156163517Y-121515127D01*
X156170034Y-121525049D01*
X156189508Y-121557978D01*
X156189511Y-121557982D01*
X156193548Y-121564808D01*
X156208712Y-121579972D01*
X156221552Y-121595005D01*
X156234160Y-121612358D01*
X156269753Y-121641803D01*
X156278533Y-121649793D01*
X158662102Y-124033362D01*
X158696128Y-124095674D01*
X158694425Y-124156126D01*
X158680990Y-124204571D01*
X158657252Y-124426696D01*
X158657549Y-124431849D01*
X158657549Y-124431852D01*
X158669813Y-124644548D01*
X158670111Y-124649716D01*
X158671248Y-124654762D01*
X158671249Y-124654768D01*
X158695244Y-124761240D01*
X158719223Y-124867640D01*
X158803267Y-125074617D01*
X158854943Y-125158945D01*
X158917292Y-125260689D01*
X158919988Y-125265089D01*
X159066251Y-125433939D01*
X159238127Y-125576633D01*
X159311956Y-125619775D01*
X159360680Y-125671413D01*
X159373751Y-125741196D01*
X159347020Y-125806968D01*
X159306563Y-125840328D01*
X159298458Y-125844547D01*
X159289739Y-125850037D01*
X159119434Y-125977906D01*
X159111727Y-125984749D01*
X158964591Y-126138718D01*
X158958105Y-126146728D01*
X158838099Y-126322650D01*
X158833001Y-126331624D01*
X158743339Y-126524784D01*
X158739776Y-126534471D01*
X158684390Y-126734184D01*
X158685913Y-126742608D01*
X158698293Y-126746001D01*
X162688001Y-126746001D01*
X162756122Y-126766003D01*
X162802615Y-126819659D01*
X162814001Y-126872001D01*
X162814001Y-127128001D01*
X162793999Y-127196122D01*
X162740343Y-127242615D01*
X162688001Y-127254001D01*
X158703226Y-127254001D01*
X158689695Y-127257974D01*
X158688258Y-127267967D01*
X158718566Y-127402447D01*
X158721646Y-127412276D01*
X158801771Y-127609604D01*
X158806414Y-127618795D01*
X158917695Y-127800389D01*
X158923778Y-127808700D01*
X159012397Y-127911004D01*
X159041880Y-127975589D01*
X159031765Y-128045861D01*
X158985264Y-128099510D01*
X158917160Y-128119501D01*
X158566950Y-128119501D01*
X158498829Y-128099499D01*
X158477855Y-128082596D01*
X154864917Y-124469657D01*
X154830891Y-124407345D01*
X154828012Y-124380562D01*
X154828012Y-119199568D01*
X154828571Y-119187712D01*
X154828571Y-119187709D01*
X154830300Y-119179975D01*
X154828074Y-119109143D01*
X154828012Y-119105185D01*
X154828012Y-119076080D01*
X154827456Y-119071680D01*
X154826524Y-119059842D01*
X154825323Y-119021606D01*
X154825074Y-119013681D01*
X154819092Y-118993091D01*
X154815082Y-118973728D01*
X154813387Y-118960308D01*
X154813387Y-118960307D01*
X154812394Y-118952448D01*
X154809478Y-118945083D01*
X154809477Y-118945079D01*
X154795388Y-118909494D01*
X154791543Y-118898265D01*
X154780868Y-118861522D01*
X154778657Y-118853911D01*
X154767742Y-118835455D01*
X154759043Y-118817699D01*
X154758694Y-118816819D01*
X154751147Y-118797756D01*
X154723992Y-118760380D01*
X154717477Y-118750461D01*
X154698002Y-118717532D01*
X154698000Y-118717530D01*
X154693964Y-118710705D01*
X154678798Y-118695538D01*
X154665967Y-118680515D01*
X154658013Y-118669568D01*
X154658011Y-118669566D01*
X154653353Y-118663155D01*
X154617753Y-118633704D01*
X154608974Y-118625715D01*
X146700656Y-110717396D01*
X146692666Y-110708616D01*
X146692664Y-110708614D01*
X146688417Y-110701921D01*
X146636743Y-110653396D01*
X146633902Y-110650642D01*
X146613334Y-110630074D01*
X146609827Y-110627354D01*
X146600805Y-110619648D01*
X146584268Y-110604119D01*
X146567134Y-110588029D01*
X146560182Y-110584207D01*
X146548343Y-110577698D01*
X146531819Y-110566844D01*
X146521133Y-110558556D01*
X146514869Y-110553697D01*
X146507597Y-110550550D01*
X146507595Y-110550549D01*
X146472466Y-110535347D01*
X146461806Y-110530125D01*
X146428285Y-110511696D01*
X146428283Y-110511695D01*
X146421338Y-110507877D01*
X146400560Y-110502542D01*
X146381870Y-110496143D01*
X146362177Y-110487621D01*
X146316553Y-110480395D01*
X146304930Y-110477988D01*
X146276929Y-110470799D01*
X146260189Y-110466501D01*
X146238742Y-110466501D01*
X146219032Y-110464950D01*
X146205678Y-110462835D01*
X146197849Y-110461595D01*
X146151860Y-110465942D01*
X146140005Y-110466501D01*
X145938010Y-110466501D01*
X145869889Y-110446499D01*
X145823396Y-110392843D01*
X145813292Y-110322569D01*
X145827278Y-110282834D01*
X145826963Y-110282698D01*
X145828905Y-110278210D01*
X145829554Y-110276366D01*
X145834146Y-110268602D01*
X145880563Y-110108832D01*
X145882352Y-110086110D01*
X145883308Y-110073959D01*
X145883308Y-110073951D01*
X145883501Y-110071503D01*
X145883501Y-109638499D01*
X145880563Y-109601170D01*
X145834146Y-109441400D01*
X145749454Y-109298194D01*
X145749330Y-109298070D01*
X145724644Y-109235197D01*
X145738545Y-109165574D01*
X145783357Y-109118397D01*
X145783319Y-109118349D01*
X145783637Y-109118103D01*
X145786010Y-109115604D01*
X145789578Y-109113494D01*
X145789582Y-109113491D01*
X145796408Y-109109454D01*
X145811572Y-109094290D01*
X145826606Y-109081449D01*
X145837544Y-109073502D01*
X145843958Y-109068842D01*
X145873399Y-109033254D01*
X145881388Y-109024474D01*
X146631645Y-108274216D01*
X146640426Y-108266226D01*
X146640428Y-108266225D01*
X146647121Y-108261977D01*
X146695661Y-108210287D01*
X146698415Y-108207446D01*
X146718967Y-108186894D01*
X146721679Y-108183398D01*
X146729390Y-108174369D01*
X146755585Y-108146474D01*
X146761013Y-108140694D01*
X146771342Y-108121906D01*
X146782199Y-108105377D01*
X146790488Y-108094692D01*
X146790489Y-108094690D01*
X146795345Y-108088430D01*
X146813698Y-108046017D01*
X146818909Y-108035380D01*
X146841165Y-107994898D01*
X146846498Y-107974127D01*
X146852900Y-107955425D01*
X146861420Y-107935738D01*
X146868646Y-107890113D01*
X146871054Y-107878487D01*
X146880570Y-107841426D01*
X146880570Y-107841425D01*
X146882541Y-107833749D01*
X146882541Y-107812303D01*
X146884092Y-107792592D01*
X146886207Y-107779239D01*
X146887447Y-107771410D01*
X146883100Y-107725425D01*
X146882541Y-107713567D01*
X146882541Y-103501272D01*
X146902543Y-103433151D01*
X146956199Y-103386658D01*
X147026473Y-103376554D01*
X147091053Y-103406048D01*
G37*
G04 #@! TD.AperFunction*
G04 #@! TA.AperFunction,Conductor*
G36*
X133276772Y-80053503D02*
G01*
X133323265Y-80107159D01*
X133333369Y-80177433D01*
X133303875Y-80242013D01*
X133297746Y-80248596D01*
X130503996Y-83042346D01*
X130495216Y-83050336D01*
X130495214Y-83050338D01*
X130488521Y-83054585D01*
X130483095Y-83060363D01*
X130483094Y-83060364D01*
X130439997Y-83106258D01*
X130437242Y-83109100D01*
X130416674Y-83129668D01*
X130413957Y-83133171D01*
X130406249Y-83142196D01*
X130374629Y-83175868D01*
X130370808Y-83182819D01*
X130370807Y-83182820D01*
X130364298Y-83194659D01*
X130353444Y-83211183D01*
X130345619Y-83221272D01*
X130340297Y-83228133D01*
X130337150Y-83235405D01*
X130337149Y-83235407D01*
X130321947Y-83270536D01*
X130316725Y-83281196D01*
X130294477Y-83321664D01*
X130289142Y-83342442D01*
X130282743Y-83361132D01*
X130274221Y-83380825D01*
X130267288Y-83424597D01*
X130266995Y-83426449D01*
X130264588Y-83438072D01*
X130257399Y-83466073D01*
X130253101Y-83482813D01*
X130253101Y-83504260D01*
X130251550Y-83523970D01*
X130248195Y-83545153D01*
X130250289Y-83567300D01*
X130252542Y-83591139D01*
X130253101Y-83602997D01*
X130253101Y-108412451D01*
X130233099Y-108480572D01*
X130216196Y-108501546D01*
X129935146Y-108782596D01*
X129872834Y-108816622D01*
X129846051Y-108819501D01*
X129825514Y-108819501D01*
X129819062Y-108820873D01*
X129819057Y-108820873D01*
X129734569Y-108838832D01*
X129638713Y-108859207D01*
X129632683Y-108861892D01*
X129632682Y-108861892D01*
X129470279Y-108934198D01*
X129470277Y-108934199D01*
X129464249Y-108936883D01*
X129458908Y-108940763D01*
X129458907Y-108940764D01*
X129425906Y-108964741D01*
X129309748Y-109049135D01*
X129305327Y-109054045D01*
X129305326Y-109054046D01*
X129190824Y-109181214D01*
X129181961Y-109191057D01*
X129142180Y-109259960D01*
X129108266Y-109318701D01*
X129086474Y-109356445D01*
X129027459Y-109538073D01*
X129026769Y-109544634D01*
X129026769Y-109544636D01*
X129009633Y-109707681D01*
X129007497Y-109728001D01*
X129008187Y-109734566D01*
X129025864Y-109902750D01*
X129027459Y-109917929D01*
X129086474Y-110099557D01*
X129181961Y-110264945D01*
X129186379Y-110269852D01*
X129186380Y-110269853D01*
X129297121Y-110392843D01*
X129309748Y-110406867D01*
X129464249Y-110519119D01*
X129470277Y-110521803D01*
X129470279Y-110521804D01*
X129632682Y-110594110D01*
X129638713Y-110596795D01*
X129699017Y-110609613D01*
X129819057Y-110635129D01*
X129819062Y-110635129D01*
X129825514Y-110636501D01*
X130016488Y-110636501D01*
X130022940Y-110635129D01*
X130022945Y-110635129D01*
X130142985Y-110609613D01*
X130203289Y-110596795D01*
X130209320Y-110594110D01*
X130371723Y-110521804D01*
X130371725Y-110521803D01*
X130377753Y-110519119D01*
X130532254Y-110406867D01*
X130544881Y-110392843D01*
X130655622Y-110269853D01*
X130655623Y-110269852D01*
X130660041Y-110264945D01*
X130755528Y-110099557D01*
X130783391Y-110013804D01*
X130812503Y-109924208D01*
X130812503Y-109924206D01*
X130814543Y-109917929D01*
X130827756Y-109792214D01*
X130854769Y-109726559D01*
X130863971Y-109716291D01*
X131319206Y-109261056D01*
X131327986Y-109253066D01*
X131327988Y-109253064D01*
X131334681Y-109248817D01*
X131383206Y-109197143D01*
X131385960Y-109194302D01*
X131406528Y-109173734D01*
X131409248Y-109170227D01*
X131416954Y-109161205D01*
X131443145Y-109133314D01*
X131448573Y-109127534D01*
X131453596Y-109118397D01*
X131458904Y-109108743D01*
X131469758Y-109092219D01*
X131478046Y-109081533D01*
X131482905Y-109075269D01*
X131486053Y-109067995D01*
X131501255Y-109032866D01*
X131506477Y-109022206D01*
X131524906Y-108988685D01*
X131524907Y-108988683D01*
X131528725Y-108981738D01*
X131534060Y-108960960D01*
X131540459Y-108942270D01*
X131548981Y-108922577D01*
X131556207Y-108876953D01*
X131558614Y-108865330D01*
X131568129Y-108828269D01*
X131570101Y-108820589D01*
X131570101Y-108799142D01*
X131571652Y-108779432D01*
X131573767Y-108766078D01*
X131575007Y-108758249D01*
X131570660Y-108712260D01*
X131570101Y-108700405D01*
X131570101Y-107329002D01*
X131590103Y-107260881D01*
X131643759Y-107214388D01*
X131714033Y-107204284D01*
X131722293Y-107205754D01*
X131724054Y-107206128D01*
X131724055Y-107206128D01*
X131730514Y-107207501D01*
X131921488Y-107207501D01*
X131927940Y-107206129D01*
X131927945Y-107206129D01*
X132033937Y-107183599D01*
X132108289Y-107167795D01*
X132114316Y-107165112D01*
X132114324Y-107165109D01*
X132218978Y-107118514D01*
X132289345Y-107109080D01*
X132353642Y-107139187D01*
X132391455Y-107199276D01*
X132395536Y-107246790D01*
X132385697Y-107340401D01*
X132405659Y-107530329D01*
X132464674Y-107711957D01*
X132467977Y-107717679D01*
X132467978Y-107717680D01*
X132469995Y-107721174D01*
X132560161Y-107877345D01*
X132564579Y-107882252D01*
X132564580Y-107882253D01*
X132659091Y-107987218D01*
X132687948Y-108019267D01*
X132693290Y-108023148D01*
X132693292Y-108023150D01*
X132717280Y-108040578D01*
X132812183Y-108109529D01*
X132855536Y-108165750D01*
X132861611Y-108236486D01*
X132828480Y-108299278D01*
X132764319Y-108334710D01*
X132693177Y-108349832D01*
X132693168Y-108349835D01*
X132686713Y-108351207D01*
X132680683Y-108353892D01*
X132680682Y-108353892D01*
X132518279Y-108426198D01*
X132518277Y-108426199D01*
X132512249Y-108428883D01*
X132506908Y-108432763D01*
X132506907Y-108432764D01*
X132456844Y-108469137D01*
X132357748Y-108541135D01*
X132353327Y-108546045D01*
X132353326Y-108546046D01*
X132252793Y-108657700D01*
X132229961Y-108683057D01*
X132226660Y-108688775D01*
X132150608Y-108820501D01*
X132134474Y-108848445D01*
X132075459Y-109030073D01*
X132074769Y-109036634D01*
X132074769Y-109036636D01*
X132058727Y-109189270D01*
X132055497Y-109220001D01*
X132056187Y-109226566D01*
X132067598Y-109335132D01*
X132075459Y-109409929D01*
X132134474Y-109591557D01*
X132229961Y-109756945D01*
X132234379Y-109761852D01*
X132234380Y-109761853D01*
X132340632Y-109879858D01*
X132357748Y-109898867D01*
X132512249Y-110011119D01*
X132518277Y-110013803D01*
X132518279Y-110013804D01*
X132680682Y-110086110D01*
X132686713Y-110088795D01*
X132773010Y-110107138D01*
X132867057Y-110127129D01*
X132867062Y-110127129D01*
X132873514Y-110128501D01*
X133064488Y-110128501D01*
X133070940Y-110127129D01*
X133070945Y-110127129D01*
X133164992Y-110107138D01*
X133251289Y-110088795D01*
X133284612Y-110073959D01*
X133351622Y-110044124D01*
X133421989Y-110034690D01*
X133486286Y-110064796D01*
X133523868Y-110124078D01*
X133545124Y-110197241D01*
X133565856Y-110268602D01*
X133650548Y-110411808D01*
X133653230Y-110414490D01*
X133678503Y-110478862D01*
X133664601Y-110548485D01*
X133654429Y-110564313D01*
X133650548Y-110568194D01*
X133565856Y-110711400D01*
X133519439Y-110871170D01*
X133518935Y-110877575D01*
X133518934Y-110877580D01*
X133516694Y-110906043D01*
X133516501Y-110908499D01*
X133516501Y-111341503D01*
X133516694Y-111343951D01*
X133516694Y-111343959D01*
X133517223Y-111350672D01*
X133519439Y-111378832D01*
X133533033Y-111425622D01*
X133557207Y-111508830D01*
X133565856Y-111538602D01*
X133650548Y-111681808D01*
X133653230Y-111684490D01*
X133678503Y-111748862D01*
X133664601Y-111818485D01*
X133654429Y-111834313D01*
X133650548Y-111838194D01*
X133565856Y-111981400D01*
X133563645Y-111989011D01*
X133563644Y-111989013D01*
X133556307Y-112014269D01*
X133519439Y-112141170D01*
X133516501Y-112178499D01*
X133516501Y-112611503D01*
X133516694Y-112613951D01*
X133516694Y-112613959D01*
X133517829Y-112628374D01*
X133519439Y-112648832D01*
X133565856Y-112808602D01*
X133569892Y-112815427D01*
X133573039Y-112822698D01*
X133571569Y-112823334D01*
X133586775Y-112883268D01*
X133564257Y-112950600D01*
X133508913Y-112995068D01*
X133438312Y-113002556D01*
X133409613Y-112993697D01*
X133257320Y-112925892D01*
X133257319Y-112925892D01*
X133251289Y-112923207D01*
X133156543Y-112903068D01*
X133070945Y-112884873D01*
X133070940Y-112884873D01*
X133064488Y-112883501D01*
X132873514Y-112883501D01*
X132867062Y-112884873D01*
X132867057Y-112884873D01*
X132781459Y-112903068D01*
X132686713Y-112923207D01*
X132680686Y-112925890D01*
X132680678Y-112925893D01*
X132550549Y-112983830D01*
X132480182Y-112993264D01*
X132415885Y-112963157D01*
X132378072Y-112903068D01*
X132373301Y-112868723D01*
X132373301Y-111943867D01*
X132366546Y-111881685D01*
X132315416Y-111745296D01*
X132228062Y-111628740D01*
X132111506Y-111541386D01*
X131975117Y-111490256D01*
X131912935Y-111483501D01*
X130316667Y-111483501D01*
X130254485Y-111490256D01*
X130118096Y-111541386D01*
X130001540Y-111628740D01*
X129914186Y-111745296D01*
X129911034Y-111753704D01*
X129906724Y-111761576D01*
X129905060Y-111760665D01*
X129869138Y-111808491D01*
X129802577Y-111833194D01*
X129793792Y-111833501D01*
X129260810Y-111833501D01*
X129192689Y-111813499D01*
X129146196Y-111759843D01*
X129143898Y-111754307D01*
X129143568Y-111753704D01*
X129140416Y-111745296D01*
X129053062Y-111628740D01*
X128936506Y-111541386D01*
X128800117Y-111490256D01*
X128737935Y-111483501D01*
X128724301Y-111483501D01*
X128656180Y-111463499D01*
X128609687Y-111409843D01*
X128598301Y-111357501D01*
X128598301Y-108667057D01*
X128598860Y-108655201D01*
X128598860Y-108655198D01*
X128600589Y-108647464D01*
X128598363Y-108576632D01*
X128598301Y-108572674D01*
X128598301Y-107784661D01*
X128618303Y-107716540D01*
X128635128Y-107695643D01*
X128722135Y-107608484D01*
X128727306Y-107603304D01*
X128731147Y-107597073D01*
X128816276Y-107458969D01*
X128816277Y-107458967D01*
X128820116Y-107452739D01*
X128859554Y-107333837D01*
X128873633Y-107291390D01*
X128873633Y-107291388D01*
X128875798Y-107284862D01*
X128886501Y-107180401D01*
X128886501Y-106179601D01*
X128885616Y-106171073D01*
X128876239Y-106080693D01*
X128876238Y-106080689D01*
X128875527Y-106073835D01*
X128845755Y-105984596D01*
X128821869Y-105913003D01*
X128819551Y-105906055D01*
X128726479Y-105755653D01*
X128657577Y-105686871D01*
X128607983Y-105637363D01*
X128573904Y-105575080D01*
X128571001Y-105548190D01*
X128571001Y-105291780D01*
X128591003Y-105223659D01*
X128618737Y-105193034D01*
X128619623Y-105192332D01*
X128625849Y-105188479D01*
X128750806Y-105063304D01*
X128843616Y-104912739D01*
X128894602Y-104759021D01*
X128897133Y-104751390D01*
X128897133Y-104751388D01*
X128899298Y-104744862D01*
X128910001Y-104640401D01*
X128910001Y-103639601D01*
X128899027Y-103533835D01*
X128843051Y-103366055D01*
X128749979Y-103215653D01*
X128624804Y-103090696D01*
X128618836Y-103087017D01*
X128577847Y-103029206D01*
X128571001Y-102988239D01*
X128571001Y-102767166D01*
X128591003Y-102699045D01*
X128630696Y-102660023D01*
X128643124Y-102652332D01*
X128643129Y-102652328D01*
X128649349Y-102648479D01*
X128774306Y-102523304D01*
X128793446Y-102492253D01*
X128863276Y-102378969D01*
X128863277Y-102378967D01*
X128867116Y-102372739D01*
X128910758Y-102241162D01*
X128920633Y-102211390D01*
X128920633Y-102211388D01*
X128922798Y-102204862D01*
X128933501Y-102100401D01*
X128933501Y-101099601D01*
X128929074Y-101056930D01*
X128923239Y-101000693D01*
X128923238Y-101000689D01*
X128922527Y-100993835D01*
X128866551Y-100826055D01*
X128773479Y-100675653D01*
X128648304Y-100550696D01*
X128630885Y-100539959D01*
X128583392Y-100487188D01*
X128571001Y-100432699D01*
X128571001Y-100227166D01*
X128591003Y-100159045D01*
X128630696Y-100120023D01*
X128643124Y-100112332D01*
X128643129Y-100112328D01*
X128649349Y-100108479D01*
X128774306Y-99983304D01*
X128867116Y-99832739D01*
X128904492Y-99720052D01*
X128920633Y-99671390D01*
X128920633Y-99671388D01*
X128922798Y-99664862D01*
X128926739Y-99626403D01*
X128932537Y-99569806D01*
X128933501Y-99560401D01*
X128933501Y-98559601D01*
X128922527Y-98453835D01*
X128866551Y-98286055D01*
X128773479Y-98135653D01*
X128648304Y-98010696D01*
X128513824Y-97927801D01*
X128503969Y-97921726D01*
X128503967Y-97921725D01*
X128497739Y-97917886D01*
X128412878Y-97889739D01*
X128336390Y-97864369D01*
X128336388Y-97864369D01*
X128329862Y-97862204D01*
X128323026Y-97861504D01*
X128323023Y-97861503D01*
X128279970Y-97857092D01*
X128225401Y-97851501D01*
X127599601Y-97851501D01*
X127596355Y-97851838D01*
X127596351Y-97851838D01*
X127566418Y-97854944D01*
X127493835Y-97862475D01*
X127483554Y-97865905D01*
X127481103Y-97865994D01*
X127480558Y-97866112D01*
X127480537Y-97866015D01*
X127412607Y-97868489D01*
X127354585Y-97835476D01*
X127121985Y-97602876D01*
X127113995Y-97594096D01*
X127113993Y-97594094D01*
X127109746Y-97587401D01*
X127058072Y-97538876D01*
X127055231Y-97536122D01*
X127034663Y-97515554D01*
X127031156Y-97512834D01*
X127022134Y-97505128D01*
X126994243Y-97478937D01*
X126988463Y-97473509D01*
X126981511Y-97469687D01*
X126969672Y-97463178D01*
X126953148Y-97452324D01*
X126942462Y-97444036D01*
X126936198Y-97439177D01*
X126928926Y-97436030D01*
X126928924Y-97436029D01*
X126893795Y-97420827D01*
X126883135Y-97415605D01*
X126849614Y-97397176D01*
X126849612Y-97397175D01*
X126842667Y-97393357D01*
X126821889Y-97388022D01*
X126803199Y-97381623D01*
X126783506Y-97373101D01*
X126737882Y-97365875D01*
X126726259Y-97363468D01*
X126698258Y-97356279D01*
X126681518Y-97351981D01*
X126660071Y-97351981D01*
X126640361Y-97350430D01*
X126627007Y-97348315D01*
X126619178Y-97347075D01*
X126573189Y-97351422D01*
X126561334Y-97351981D01*
X125411831Y-97351981D01*
X125343710Y-97331979D01*
X125322735Y-97315076D01*
X125104605Y-97096945D01*
X125070580Y-97034633D01*
X125067701Y-97007850D01*
X125067701Y-96633803D01*
X125087703Y-96565682D01*
X125141359Y-96519189D01*
X125211633Y-96509085D01*
X125238649Y-96516093D01*
X125344997Y-96556703D01*
X125354900Y-96559580D01*
X125458251Y-96580607D01*
X125472300Y-96579411D01*
X125476001Y-96569066D01*
X125476001Y-96568518D01*
X125984001Y-96568518D01*
X125988065Y-96582360D01*
X126001479Y-96584394D01*
X126008185Y-96583535D01*
X126018263Y-96581393D01*
X126222256Y-96520192D01*
X126231843Y-96516434D01*
X126423096Y-96422740D01*
X126431946Y-96417465D01*
X126605329Y-96293793D01*
X126613201Y-96287140D01*
X126764053Y-96136813D01*
X126770731Y-96128966D01*
X126895004Y-95956021D01*
X126900314Y-95947184D01*
X126994671Y-95756268D01*
X126998470Y-95746673D01*
X127060378Y-95542911D01*
X127062556Y-95532838D01*
X127063987Y-95521963D01*
X127061776Y-95507779D01*
X127048618Y-95504001D01*
X126002116Y-95504001D01*
X125986877Y-95508476D01*
X125985672Y-95509866D01*
X125984001Y-95517549D01*
X125984001Y-96568518D01*
X125476001Y-96568518D01*
X125476001Y-95122001D01*
X125496003Y-95053880D01*
X125549659Y-95007387D01*
X125602001Y-94996001D01*
X127048345Y-94996001D01*
X127061876Y-94992028D01*
X127063181Y-94982948D01*
X127021215Y-94815876D01*
X127017895Y-94806125D01*
X126932973Y-94610815D01*
X126928106Y-94601740D01*
X126812427Y-94422927D01*
X126806137Y-94414758D01*
X126662807Y-94257241D01*
X126655274Y-94250216D01*
X126488140Y-94118223D01*
X126479557Y-94112521D01*
X126442603Y-94092121D01*
X126392632Y-94041688D01*
X126377860Y-93972246D01*
X126402976Y-93905840D01*
X126430328Y-93879233D01*
X126453798Y-93862492D01*
X126609861Y-93751174D01*
X126768097Y-93593490D01*
X126898454Y-93412078D01*
X126936133Y-93335841D01*
X126995137Y-93216454D01*
X126995138Y-93216452D01*
X126997431Y-93211812D01*
X127062371Y-92998070D01*
X127091530Y-92776591D01*
X127091718Y-92768890D01*
X127093075Y-92713366D01*
X127093075Y-92713362D01*
X127093157Y-92710001D01*
X127074853Y-92487362D01*
X127072384Y-92477530D01*
X127057900Y-92419869D01*
X127020432Y-92270703D01*
X126931355Y-92065841D01*
X126810015Y-91878278D01*
X126659671Y-91713052D01*
X126655620Y-91709853D01*
X126655616Y-91709849D01*
X126488415Y-91577801D01*
X126488411Y-91577799D01*
X126484360Y-91574599D01*
X126443054Y-91551797D01*
X126393085Y-91501365D01*
X126378313Y-91431922D01*
X126403429Y-91365517D01*
X126430781Y-91338910D01*
X126511690Y-91281198D01*
X126609861Y-91211174D01*
X126614846Y-91206207D01*
X126691210Y-91130108D01*
X126768097Y-91053490D01*
X126805665Y-91001209D01*
X126895436Y-90876278D01*
X126898454Y-90872078D01*
X126931606Y-90805001D01*
X126995137Y-90676454D01*
X126995138Y-90676452D01*
X126997431Y-90671812D01*
X127021425Y-90592840D01*
X127052888Y-90540374D01*
X128423600Y-89169661D01*
X128432381Y-89161671D01*
X128432392Y-89161662D01*
X128439081Y-89157417D01*
X128487622Y-89105727D01*
X128490344Y-89102918D01*
X128510927Y-89082334D01*
X128513639Y-89078838D01*
X128521350Y-89069809D01*
X128547545Y-89041914D01*
X128552973Y-89036134D01*
X128563302Y-89017346D01*
X128574159Y-89000817D01*
X128582448Y-88990132D01*
X128582449Y-88990130D01*
X128587305Y-88983870D01*
X128605658Y-88941457D01*
X128610869Y-88930820D01*
X128633125Y-88890338D01*
X128638458Y-88869567D01*
X128644860Y-88850865D01*
X128653380Y-88831178D01*
X128660606Y-88785553D01*
X128663014Y-88773927D01*
X128672530Y-88736866D01*
X128672530Y-88736865D01*
X128674501Y-88729189D01*
X128674501Y-88707743D01*
X128676052Y-88688032D01*
X128676465Y-88685428D01*
X128679407Y-88666850D01*
X128675060Y-88620865D01*
X128674501Y-88609007D01*
X128674501Y-82468551D01*
X128694503Y-82400430D01*
X128711406Y-82379456D01*
X131020456Y-80070406D01*
X131082768Y-80036380D01*
X131109551Y-80033501D01*
X133208651Y-80033501D01*
X133276772Y-80053503D01*
G37*
G04 #@! TD.AperFunction*
G04 #@! TA.AperFunction,Conductor*
G36*
X133498689Y-83538339D02*
G01*
X133555525Y-83580886D01*
X133565813Y-83598628D01*
X133565856Y-83598602D01*
X133650548Y-83741808D01*
X133653230Y-83744490D01*
X133678503Y-83808862D01*
X133664601Y-83878485D01*
X133654429Y-83894313D01*
X133650548Y-83898194D01*
X133565856Y-84041400D01*
X133519439Y-84201170D01*
X133516501Y-84238499D01*
X133516501Y-84671503D01*
X133516694Y-84673951D01*
X133516694Y-84673959D01*
X133518080Y-84691562D01*
X133519439Y-84708832D01*
X133565856Y-84868602D01*
X133650548Y-85011808D01*
X133653230Y-85014490D01*
X133678503Y-85078862D01*
X133664601Y-85148485D01*
X133654429Y-85164313D01*
X133650548Y-85168194D01*
X133565856Y-85311400D01*
X133519439Y-85471170D01*
X133518935Y-85477575D01*
X133518934Y-85477580D01*
X133516979Y-85502426D01*
X133516501Y-85508499D01*
X133516501Y-85941503D01*
X133519439Y-85978832D01*
X133521234Y-85985009D01*
X133556017Y-86104734D01*
X133565856Y-86138602D01*
X133650548Y-86281808D01*
X133653230Y-86284490D01*
X133678503Y-86348862D01*
X133664601Y-86418485D01*
X133654429Y-86434313D01*
X133650548Y-86438194D01*
X133565856Y-86581400D01*
X133563645Y-86589011D01*
X133563644Y-86589013D01*
X133558264Y-86607531D01*
X133519439Y-86741170D01*
X133518935Y-86747575D01*
X133518934Y-86747580D01*
X133516694Y-86776043D01*
X133516501Y-86778499D01*
X133516501Y-87211503D01*
X133519439Y-87248832D01*
X133521234Y-87255009D01*
X133557462Y-87379708D01*
X133565856Y-87408602D01*
X133650548Y-87551808D01*
X133653230Y-87554490D01*
X133678503Y-87618862D01*
X133664601Y-87688485D01*
X133654429Y-87704313D01*
X133650548Y-87708194D01*
X133565856Y-87851400D01*
X133519439Y-88011170D01*
X133516501Y-88048499D01*
X133516501Y-88481503D01*
X133519439Y-88518832D01*
X133524332Y-88535674D01*
X133557462Y-88649708D01*
X133565856Y-88678602D01*
X133650548Y-88821808D01*
X133653230Y-88824490D01*
X133678503Y-88888862D01*
X133664601Y-88958485D01*
X133654429Y-88974313D01*
X133650548Y-88978194D01*
X133565856Y-89121400D01*
X133563645Y-89129011D01*
X133563644Y-89129013D01*
X133559283Y-89144024D01*
X133519439Y-89281170D01*
X133516501Y-89318499D01*
X133516501Y-89751503D01*
X133519439Y-89788832D01*
X133565856Y-89948602D01*
X133650548Y-90091808D01*
X133653230Y-90094490D01*
X133678503Y-90158862D01*
X133664601Y-90228485D01*
X133654429Y-90244313D01*
X133650548Y-90248194D01*
X133565856Y-90391400D01*
X133519439Y-90551170D01*
X133518935Y-90557575D01*
X133518934Y-90557580D01*
X133517130Y-90580507D01*
X133516501Y-90588499D01*
X133516501Y-91021503D01*
X133519439Y-91058832D01*
X133524332Y-91075674D01*
X133557462Y-91189708D01*
X133565856Y-91218602D01*
X133650548Y-91361808D01*
X133653230Y-91364490D01*
X133678503Y-91428862D01*
X133664601Y-91498485D01*
X133654429Y-91514313D01*
X133650548Y-91518194D01*
X133565856Y-91661400D01*
X133563645Y-91669011D01*
X133563644Y-91669013D01*
X133553641Y-91703445D01*
X133519439Y-91821170D01*
X133516501Y-91858499D01*
X133516501Y-92291503D01*
X133519439Y-92328832D01*
X133565856Y-92488602D01*
X133569893Y-92495428D01*
X133641704Y-92616853D01*
X133650548Y-92631808D01*
X133653488Y-92634748D01*
X133678821Y-92699267D01*
X133664922Y-92768890D01*
X133652875Y-92787637D01*
X133646911Y-92795325D01*
X133570353Y-92924780D01*
X133564108Y-92939211D01*
X133525062Y-93073606D01*
X133525102Y-93087707D01*
X133532371Y-93091001D01*
X136561879Y-93091001D01*
X136577050Y-93086546D01*
X136604250Y-93026988D01*
X136663977Y-92988605D01*
X136699474Y-92983501D01*
X136834301Y-92983501D01*
X136902422Y-93003503D01*
X136948915Y-93057159D01*
X136960301Y-93109501D01*
X136960301Y-108820501D01*
X136940299Y-108888622D01*
X136886643Y-108935115D01*
X136834301Y-108946501D01*
X136708396Y-108946501D01*
X136640275Y-108926499D01*
X136593782Y-108872843D01*
X136582784Y-108810617D01*
X136583307Y-108803964D01*
X136583501Y-108801503D01*
X136583501Y-108368499D01*
X136583308Y-108366043D01*
X136581068Y-108337580D01*
X136581067Y-108337575D01*
X136580563Y-108331170D01*
X136539463Y-108189700D01*
X136536358Y-108179013D01*
X136536357Y-108179011D01*
X136534146Y-108171400D01*
X136449454Y-108028194D01*
X136446772Y-108025512D01*
X136421499Y-107961140D01*
X136435401Y-107891517D01*
X136445573Y-107875689D01*
X136449454Y-107871808D01*
X136534146Y-107728602D01*
X136537651Y-107716540D01*
X136578768Y-107575009D01*
X136580563Y-107568832D01*
X136581763Y-107553596D01*
X136583308Y-107533959D01*
X136583308Y-107533951D01*
X136583501Y-107531503D01*
X136583501Y-107098499D01*
X136583308Y-107096043D01*
X136581068Y-107067580D01*
X136581067Y-107067575D01*
X136580563Y-107061170D01*
X136534146Y-106901400D01*
X136449454Y-106758194D01*
X136446772Y-106755512D01*
X136421499Y-106691140D01*
X136435401Y-106621517D01*
X136445573Y-106605689D01*
X136449454Y-106601808D01*
X136534146Y-106458602D01*
X136539514Y-106440127D01*
X136553318Y-106392610D01*
X136580563Y-106298832D01*
X136583501Y-106261503D01*
X136583501Y-105828499D01*
X136583308Y-105826043D01*
X136581068Y-105797580D01*
X136581067Y-105797575D01*
X136580563Y-105791170D01*
X136534146Y-105631400D01*
X136488345Y-105553955D01*
X136453492Y-105495021D01*
X136453490Y-105495018D01*
X136449454Y-105488194D01*
X136331808Y-105370548D01*
X136324984Y-105366512D01*
X136324981Y-105366510D01*
X136195428Y-105289893D01*
X136195429Y-105289893D01*
X136188602Y-105285856D01*
X136180991Y-105283645D01*
X136180989Y-105283644D01*
X136124738Y-105267302D01*
X136028832Y-105239439D01*
X136022427Y-105238935D01*
X136022422Y-105238934D01*
X135993959Y-105236694D01*
X135993951Y-105236694D01*
X135991503Y-105236501D01*
X134108499Y-105236501D01*
X134106051Y-105236694D01*
X134106043Y-105236694D01*
X134077580Y-105238934D01*
X134077575Y-105238935D01*
X134071170Y-105239439D01*
X134064998Y-105241232D01*
X134064993Y-105241233D01*
X134008394Y-105257677D01*
X133996919Y-105261011D01*
X133996220Y-105261214D01*
X133925224Y-105261011D01*
X133871972Y-105229312D01*
X132915306Y-104272646D01*
X132881280Y-104210334D01*
X132878401Y-104183551D01*
X132878401Y-102096960D01*
X132898403Y-102028839D01*
X132910765Y-102012650D01*
X132954522Y-101964053D01*
X132954523Y-101964052D01*
X132958941Y-101959145D01*
X133054428Y-101793757D01*
X133113443Y-101612129D01*
X133133405Y-101422201D01*
X133113443Y-101232273D01*
X133054428Y-101050645D01*
X132958941Y-100885257D01*
X132954192Y-100879982D01*
X132835576Y-100748246D01*
X132835575Y-100748245D01*
X132831154Y-100743335D01*
X132730878Y-100670480D01*
X132681995Y-100634964D01*
X132681994Y-100634963D01*
X132676653Y-100631083D01*
X132670625Y-100628399D01*
X132670623Y-100628398D01*
X132508220Y-100556092D01*
X132508219Y-100556092D01*
X132502189Y-100553407D01*
X132408788Y-100533554D01*
X132321845Y-100515073D01*
X132321840Y-100515073D01*
X132315388Y-100513701D01*
X132254890Y-100513701D01*
X132186769Y-100493699D01*
X132140276Y-100440043D01*
X132128890Y-100387701D01*
X132128890Y-93610872D01*
X133523457Y-93610872D01*
X133564108Y-93750791D01*
X133570353Y-93765222D01*
X133646912Y-93894679D01*
X133656552Y-93907105D01*
X133762897Y-94013450D01*
X133775323Y-94023090D01*
X133904780Y-94099649D01*
X133919211Y-94105894D01*
X134065066Y-94148270D01*
X134077668Y-94150571D01*
X134106085Y-94152808D01*
X134111015Y-94153001D01*
X134777886Y-94153001D01*
X134793125Y-94148526D01*
X134794330Y-94147136D01*
X134796001Y-94139453D01*
X134796001Y-94134885D01*
X135304001Y-94134885D01*
X135308476Y-94150124D01*
X135309866Y-94151329D01*
X135317549Y-94153000D01*
X135988985Y-94153000D01*
X135993921Y-94152806D01*
X136022337Y-94150571D01*
X136034932Y-94148271D01*
X136180791Y-94105894D01*
X136195222Y-94099649D01*
X136324679Y-94023090D01*
X136337105Y-94013450D01*
X136443450Y-93907105D01*
X136453090Y-93894679D01*
X136529649Y-93765222D01*
X136535894Y-93750791D01*
X136574940Y-93616396D01*
X136574900Y-93602295D01*
X136567631Y-93599001D01*
X135322116Y-93599001D01*
X135306877Y-93603476D01*
X135305672Y-93604866D01*
X135304001Y-93612549D01*
X135304001Y-94134885D01*
X134796001Y-94134885D01*
X134796001Y-93617116D01*
X134791526Y-93601877D01*
X134790136Y-93600672D01*
X134782453Y-93599001D01*
X133538123Y-93599001D01*
X133524592Y-93602974D01*
X133523457Y-93610872D01*
X132128890Y-93610872D01*
X132128890Y-84856162D01*
X132148892Y-84788041D01*
X132165795Y-84767067D01*
X133365562Y-83567300D01*
X133427874Y-83533274D01*
X133498689Y-83538339D01*
G37*
G04 #@! TD.AperFunction*
G04 #@! TA.AperFunction,Conductor*
G36*
X145996568Y-92496712D02*
G01*
X146026766Y-92531933D01*
X146072961Y-92611945D01*
X146077379Y-92616852D01*
X146077380Y-92616853D01*
X146182410Y-92733501D01*
X146200748Y-92753867D01*
X146247995Y-92788194D01*
X146330037Y-92847801D01*
X146355249Y-92866119D01*
X146361277Y-92868803D01*
X146361279Y-92868804D01*
X146487004Y-92924780D01*
X146529713Y-92943795D01*
X146623114Y-92963648D01*
X146710057Y-92982129D01*
X146710062Y-92982129D01*
X146716514Y-92983501D01*
X146907488Y-92983501D01*
X146913940Y-92982129D01*
X146913945Y-92982129D01*
X147000888Y-92963648D01*
X147094289Y-92943795D01*
X147136998Y-92924780D01*
X147262723Y-92868804D01*
X147262725Y-92868803D01*
X147268753Y-92866119D01*
X147293966Y-92847801D01*
X147402577Y-92768890D01*
X147418164Y-92757565D01*
X147485032Y-92733707D01*
X147492225Y-92733501D01*
X152710051Y-92733501D01*
X152778172Y-92753503D01*
X152799146Y-92770406D01*
X158662102Y-98633362D01*
X158696128Y-98695674D01*
X158694425Y-98756126D01*
X158680990Y-98804571D01*
X158657252Y-99026696D01*
X158657549Y-99031849D01*
X158657549Y-99031852D01*
X158663012Y-99126591D01*
X158670111Y-99249716D01*
X158671248Y-99254762D01*
X158671249Y-99254768D01*
X158691120Y-99342940D01*
X158719223Y-99467640D01*
X158803267Y-99674617D01*
X158842416Y-99738503D01*
X158903982Y-99838969D01*
X158919988Y-99865089D01*
X159066251Y-100033939D01*
X159238127Y-100176633D01*
X159275165Y-100198276D01*
X159311956Y-100219775D01*
X159360680Y-100271413D01*
X159373751Y-100341196D01*
X159347020Y-100406968D01*
X159306563Y-100440328D01*
X159298458Y-100444547D01*
X159289739Y-100450037D01*
X159119434Y-100577906D01*
X159111727Y-100584749D01*
X158964591Y-100738718D01*
X158958105Y-100746728D01*
X158838099Y-100922650D01*
X158833001Y-100931624D01*
X158743339Y-101124784D01*
X158739776Y-101134471D01*
X158684390Y-101334184D01*
X158685913Y-101342608D01*
X158698293Y-101346001D01*
X160455501Y-101346001D01*
X160523622Y-101366003D01*
X160570115Y-101419659D01*
X160581501Y-101472001D01*
X160581501Y-101728001D01*
X160561499Y-101796122D01*
X160507843Y-101842615D01*
X160455501Y-101854001D01*
X158703226Y-101854001D01*
X158689695Y-101857974D01*
X158688258Y-101867967D01*
X158718566Y-102002447D01*
X158721646Y-102012276D01*
X158801771Y-102209604D01*
X158806414Y-102218795D01*
X158917695Y-102400389D01*
X158923778Y-102408700D01*
X159063214Y-102569668D01*
X159070581Y-102576884D01*
X159234435Y-102712917D01*
X159242882Y-102718832D01*
X159311970Y-102759204D01*
X159360694Y-102810843D01*
X159373765Y-102880626D01*
X159347034Y-102946397D01*
X159306585Y-102979753D01*
X159293608Y-102986508D01*
X159289475Y-102989611D01*
X159289472Y-102989613D01*
X159146839Y-103096705D01*
X159114966Y-103120636D01*
X158960630Y-103282139D01*
X158834744Y-103466681D01*
X158806607Y-103527297D01*
X158743493Y-103663266D01*
X158740689Y-103669306D01*
X158680990Y-103884571D01*
X158657252Y-104106696D01*
X158657549Y-104111849D01*
X158657549Y-104111852D01*
X158666820Y-104272646D01*
X158670111Y-104329716D01*
X158671248Y-104334762D01*
X158671249Y-104334768D01*
X158691120Y-104422940D01*
X158719223Y-104547640D01*
X158803267Y-104754617D01*
X158805966Y-104759021D01*
X158903982Y-104918969D01*
X158919988Y-104945089D01*
X159066251Y-105113939D01*
X159238127Y-105256633D01*
X159295045Y-105289893D01*
X159311446Y-105299477D01*
X159360170Y-105351115D01*
X159373241Y-105420898D01*
X159346510Y-105486670D01*
X159306056Y-105520028D01*
X159293608Y-105526508D01*
X159289475Y-105529611D01*
X159289472Y-105529613D01*
X159143765Y-105639013D01*
X159114966Y-105660636D01*
X159111394Y-105664374D01*
X158996128Y-105784993D01*
X158960630Y-105822139D01*
X158957721Y-105826404D01*
X158957715Y-105826412D01*
X158862150Y-105966505D01*
X158807239Y-106011508D01*
X158758062Y-106021501D01*
X156566662Y-106021501D01*
X156498541Y-106001499D01*
X156477567Y-105984596D01*
X145045406Y-94552434D01*
X145011380Y-94490122D01*
X145008501Y-94463339D01*
X145008501Y-94279501D01*
X145028503Y-94211380D01*
X145082159Y-94164887D01*
X145134501Y-94153501D01*
X145291503Y-94153501D01*
X145293951Y-94153308D01*
X145293959Y-94153308D01*
X145322422Y-94151068D01*
X145322427Y-94151067D01*
X145328832Y-94150563D01*
X145459775Y-94112521D01*
X145480989Y-94106358D01*
X145480991Y-94106357D01*
X145488602Y-94104146D01*
X145543374Y-94071754D01*
X145624981Y-94023492D01*
X145624984Y-94023490D01*
X145631808Y-94019454D01*
X145749454Y-93901808D01*
X145753490Y-93894984D01*
X145753492Y-93894981D01*
X145830109Y-93765428D01*
X145834146Y-93758602D01*
X145836416Y-93750791D01*
X145875670Y-93615674D01*
X145880563Y-93598832D01*
X145883501Y-93561503D01*
X145883501Y-93128499D01*
X145880563Y-93091170D01*
X145848222Y-92979849D01*
X145836358Y-92939013D01*
X145836357Y-92939011D01*
X145834146Y-92931400D01*
X145749454Y-92788194D01*
X145746772Y-92785512D01*
X145721499Y-92721140D01*
X145735401Y-92651517D01*
X145745573Y-92635689D01*
X145749454Y-92631808D01*
X145809195Y-92530792D01*
X145861087Y-92482341D01*
X145930937Y-92469636D01*
X145996568Y-92496712D01*
G37*
G04 #@! TD.AperFunction*
M02*
