  0
SECTION
  2
HEADER
  9
$ANGBASE
  50
0.0
  9
$ANGDIR
  70
1
  9
$MEASUREMENT
  70
1
  0
ENDSEC
  0
SECTION
  2
TABLES
  0
TABLE
  2
LTYPE
  70
4
  0
LTYPE
  5
40F
  2
CONTINUOUS
  70
0
  3
Solid line
  72
65
  73
0
  40
0.0
  0
LTYPE
  5
410
  2
DASHDOT
 70
0
  3
Dash Dot ____ _ ____ _
 72
65
 73
4
 40
2.0
 49
1.25
 49
-0.25
 49
0.25
 49
-0.25
  0
LTYPE
  5
411
  2
DASHED
 70
0
  3
Dashed __ __ __ __ __
 72
65
 73
2
 40
0.75
 49
0.5
 49
-0.25
  0
LTYPE
  5
43B
  2
DOTTED
 70
0
  3
Dotted .  .  .  .
 72
65
 73
2
 40
0.2
 49
0.0
 49
-0.2
  0
ENDTAB
  0
TABLE
  2
STYLE
  70
4
  0
STYLE
  2
KICAD
  70
0
  40
0
  41
1
  42
1
  50
0
  71
0
  3
isocp.shx
  0
STYLE
  2
KICADB
  70
0
  40
0
  41
1
  42
1
  50
0
  71
0
  3
isocp.shx
  0
STYLE
  2
KICADI
  70
0
  40
0
  41
1
  42
1
  50
15
  71
0
  3
isocp.shx
  0
STYLE
  2
KICADBI
  70
0
  40
0
  41
1
  42
1
  50
15
  71
0
  3
isocp.shx
  0
ENDTAB
  0
TABLE
  2
LAYER
  70
1
  0
LAYER
  2
BLACK
  70
0
  62
7
  6
CONTINUOUS
  0
ENDTAB
  0
ENDSEC
  0
SECTION
  2
ENTITIES
0
CIRCLE
8
BLACK
10
125.73
20
-82.55
40
0.5
0
CIRCLE
8
BLACK
10
125.73
20
-85.09
40
0.5
0
CIRCLE
8
BLACK
10
125.73
20
-87.63
40
0.5
0
CIRCLE
8
BLACK
10
125.73
20
-90.17
40
0.5
0
CIRCLE
8
BLACK
10
125.73
20
-92.71
40
0.5
0
CIRCLE
8
BLACK
10
125.73
20
-95.25
40
0.5
0
CIRCLE
8
BLACK
10
170.18
20
-73.66
40
1.6
0
CIRCLE
8
BLACK
10
170.18
20
-130.81
40
1.6
0
CIRCLE
8
BLACK
10
125.73
20
-130.81
40
1.6
0
CIRCLE
8
BLACK
10
160.02
20
-78.74
40
0.5
0
CIRCLE
8
BLACK
10
162.56
20
-78.74
40
0.5
0
CIRCLE
8
BLACK
10
160.02
20
-81.28
40
0.5
0
CIRCLE
8
BLACK
10
162.56
20
-81.28
40
0.5
0
CIRCLE
8
BLACK
10
160.02
20
-83.82
40
0.5
0
CIRCLE
8
BLACK
10
162.56
20
-83.82
40
0.5
0
CIRCLE
8
BLACK
10
160.02
20
-86.36
40
0.5
0
CIRCLE
8
BLACK
10
162.56
20
-86.36
40
0.5
0
CIRCLE
8
BLACK
10
160.02
20
-88.9
40
0.5
0
CIRCLE
8
BLACK
10
162.56
20
-88.9
40
0.5
0
CIRCLE
8
BLACK
10
160.02
20
-91.44
40
0.5
0
CIRCLE
8
BLACK
10
162.56
20
-91.44
40
0.5
0
CIRCLE
8
BLACK
10
160.02
20
-93.98
40
0.5
0
CIRCLE
8
BLACK
10
162.56
20
-93.98
40
0.5
0
CIRCLE
8
BLACK
10
160.02
20
-96.52
40
0.5
0
CIRCLE
8
BLACK
10
162.56
20
-96.52
40
0.5
0
CIRCLE
8
BLACK
10
160.02
20
-99.06
40
0.5
0
CIRCLE
8
BLACK
10
162.56
20
-99.06
40
0.5
0
CIRCLE
8
BLACK
10
160.02
20
-101.6
40
0.5
0
CIRCLE
8
BLACK
10
162.56
20
-101.6
40
0.5
0
CIRCLE
8
BLACK
10
160.02
20
-104.14
40
0.5
0
CIRCLE
8
BLACK
10
162.56
20
-104.14
40
0.5
0
CIRCLE
8
BLACK
10
160.02
20
-106.68
40
0.5
0
CIRCLE
8
BLACK
10
162.56
20
-106.68
40
0.5
0
CIRCLE
8
BLACK
10
160.02
20
-109.22
40
0.5
0
CIRCLE
8
BLACK
10
162.56
20
-109.22
40
0.5
0
CIRCLE
8
BLACK
10
160.02
20
-111.76
40
0.5
0
CIRCLE
8
BLACK
10
162.56
20
-111.76
40
0.5
0
CIRCLE
8
BLACK
10
160.02
20
-114.3
40
0.5
0
CIRCLE
8
BLACK
10
162.56
20
-114.3
40
0.5
0
CIRCLE
8
BLACK
10
160.02
20
-116.84
40
0.5
0
CIRCLE
8
BLACK
10
162.56
20
-116.84
40
0.5
0
CIRCLE
8
BLACK
10
160.02
20
-119.38
40
0.5
0
CIRCLE
8
BLACK
10
162.56
20
-119.38
40
0.5
0
CIRCLE
8
BLACK
10
160.02
20
-121.92
40
0.5
0
CIRCLE
8
BLACK
10
162.56
20
-121.92
40
0.5
0
CIRCLE
8
BLACK
10
160.02
20
-124.46
40
0.5
0
CIRCLE
8
BLACK
10
162.56
20
-124.46
40
0.5
0
CIRCLE
8
BLACK
10
160.02
20
-127
40
0.5
0
CIRCLE
8
BLACK
10
162.56
20
-127
40
0.5
0
CIRCLE
8
BLACK
10
125.73
20
-73.66
40
1.6
  0
ENDSEC
  0
EOF
