  0
SECTION
  2
HEADER
  9
$ANGBASE
  50
0.0
  9
$ANGDIR
  70
1
  9
$MEASUREMENT
  70
1
  0
ENDSEC
  0
SECTION
  2
TABLES
  0
TABLE
  2
LTYPE
  70
4
  0
LTYPE
  5
40F
  2
CONTINUOUS
  70
0
  3
Solid line
  72
65
  73
0
  40
0.0
  0
LTYPE
  5
410
  2
DASHDOT
 70
0
  3
Dash Dot ____ _ ____ _
 72
65
 73
4
 40
2.0
 49
1.25
 49
-0.25
 49
0.25
 49
-0.25
  0
LTYPE
  5
411
  2
DASHED
 70
0
  3
Dashed __ __ __ __ __
 72
65
 73
2
 40
0.75
 49
0.5
 49
-0.25
  0
LTYPE
  5
43B
  2
DOTTED
 70
0
  3
Dotted .  .  .  .
 72
65
 73
2
 40
0.2
 49
0.0
 49
-0.2
  0
ENDTAB
  0
TABLE
  2
STYLE
  70
4
  0
STYLE
  2
KICAD
  70
0
  40
0
  41
1
  42
1
  50
0
  71
0
  3
isocp.shx
  0
STYLE
  2
KICADB
  70
0
  40
0
  41
1
  42
1
  50
0
  71
0
  3
isocp.shx
  0
STYLE
  2
KICADI
  70
0
  40
0
  41
1
  42
1
  50
15
  71
0
  3
isocp.shx
  0
STYLE
  2
KICADBI
  70
0
  40
0
  41
1
  42
1
  50
15
  71
0
  3
isocp.shx
  0
ENDTAB
  0
TABLE
  2
LAYER
  70
1
  0
LAYER
  2
BLACK
  70
0
  62
7
  6
CONTINUOUS
  0
ENDTAB
  0
ENDSEC
  0
SECTION
  2
ENTITIES
0
LINE
8
BLACK
6
CONTINUOUS
10
124.977
20
-134.596
11
124.609
21
-134.504
0
LINE
8
BLACK
6
CONTINUOUS
10
124.609
20
-134.504
11
124.253
21
-134.376
0
LINE
8
BLACK
6
CONTINUOUS
10
124.253
20
-134.376
11
123.91
21
-134.214
0
LINE
8
BLACK
6
CONTINUOUS
10
123.91
20
-134.214
11
123.585
21
-134.019
0
LINE
8
BLACK
6
CONTINUOUS
10
123.585
20
-134.019
11
123.281
21
-133.794
0
LINE
8
BLACK
6
CONTINUOUS
10
123.281
20
-133.794
11
123.001
21
-133.539
0
LINE
8
BLACK
6
CONTINUOUS
10
123.001
20
-133.539
11
122.746
21
-133.259
0
LINE
8
BLACK
6
CONTINUOUS
10
122.746
20
-133.259
11
122.521
21
-132.954
0
LINE
8
BLACK
6
CONTINUOUS
10
122.521
20
-132.954
11
122.326
21
-132.63
0
LINE
8
BLACK
6
CONTINUOUS
10
122.326
20
-132.63
11
122.164
21
-132.287
0
LINE
8
BLACK
6
CONTINUOUS
10
122.164
20
-132.287
11
122.036
21
-131.93
0
LINE
8
BLACK
6
CONTINUOUS
10
122.036
20
-131.93
11
121.944
21
-131.563
0
LINE
8
BLACK
6
CONTINUOUS
10
121.944
20
-131.563
11
121.889
21
-131.188
0
LINE
8
BLACK
6
CONTINUOUS
10
121.889
20
-131.188
11
121.87
21
-130.81
0
LINE
8
BLACK
6
CONTINUOUS
10
121.87
20
-130.81
11
121.87
21
-130.81
0
LINE
8
BLACK
6
CONTINUOUS
10
121.87
20
-130.81
11
121.87
21
-73.66
0
LINE
8
BLACK
6
CONTINUOUS
10
121.87
20
-73.66
11
121.889
21
-73.2817
0
LINE
8
BLACK
6
CONTINUOUS
10
121.889
20
-73.2817
11
121.944
21
-72.907
0
LINE
8
BLACK
6
CONTINUOUS
10
121.944
20
-72.907
11
122.036
21
-72.5395
0
LINE
8
BLACK
6
CONTINUOUS
10
122.036
20
-72.5395
11
122.164
21
-72.1828
0
LINE
8
BLACK
6
CONTINUOUS
10
122.164
20
-72.1828
11
122.326
21
-71.8404
0
LINE
8
BLACK
6
CONTINUOUS
10
122.326
20
-71.8404
11
122.521
21
-71.5155
0
LINE
8
BLACK
6
CONTINUOUS
10
122.521
20
-71.5155
11
122.746
21
-71.2112
0
LINE
8
BLACK
6
CONTINUOUS
10
122.746
20
-71.2112
11
123.001
21
-70.9306
0
LINE
8
BLACK
6
CONTINUOUS
10
123.001
20
-70.9306
11
123.281
21
-70.6762
0
LINE
8
BLACK
6
CONTINUOUS
10
123.281
20
-70.6762
11
123.585
21
-70.4505
0
LINE
8
BLACK
6
CONTINUOUS
10
123.585
20
-70.4505
11
123.91
21
-70.2558
0
LINE
8
BLACK
6
CONTINUOUS
10
123.91
20
-70.2558
11
124.253
21
-70.0938
0
LINE
8
BLACK
6
CONTINUOUS
10
124.253
20
-70.0938
11
124.61
21
-69.9662
0
LINE
8
BLACK
6
CONTINUOUS
10
124.61
20
-69.9662
11
124.977
21
-69.8742
0
LINE
8
BLACK
6
CONTINUOUS
10
124.977
20
-69.8742
11
125.352
21
-69.8186
0
LINE
8
BLACK
6
CONTINUOUS
10
125.352
20
-69.8186
11
125.73
21
-69.8
0
LINE
8
BLACK
6
CONTINUOUS
10
125.73
20
-69.8
11
125.73
21
-69.8
0
LINE
8
BLACK
6
CONTINUOUS
10
125.73
20
-69.8
11
170.18
21
-69.8
0
LINE
8
BLACK
6
CONTINUOUS
10
170.18
20
-69.8
11
170.18
21
-69.8
0
LINE
8
BLACK
6
CONTINUOUS
10
170.18
20
-69.8
11
170.558
21
-69.8186
0
LINE
8
BLACK
6
CONTINUOUS
10
170.558
20
-69.8186
11
170.933
21
-69.8742
0
LINE
8
BLACK
6
CONTINUOUS
10
170.933
20
-69.8742
11
171.3
21
-69.9662
0
LINE
8
BLACK
6
CONTINUOUS
10
171.3
20
-69.9662
11
171.657
21
-70.0938
0
LINE
8
BLACK
6
CONTINUOUS
10
171.657
20
-70.0938
11
172
21
-70.2558
0
LINE
8
BLACK
6
CONTINUOUS
10
172
20
-70.2558
11
172.325
21
-70.4505
0
LINE
8
BLACK
6
CONTINUOUS
10
172.325
20
-70.4505
11
172.629
21
-70.6762
0
LINE
8
BLACK
6
CONTINUOUS
10
172.629
20
-70.6762
11
172.909
21
-70.9306
0
LINE
8
BLACK
6
CONTINUOUS
10
172.909
20
-70.9306
11
173.164
21
-71.2112
0
LINE
8
BLACK
6
CONTINUOUS
10
173.164
20
-71.2112
11
173.389
21
-71.5155
0
LINE
8
BLACK
6
CONTINUOUS
10
173.389
20
-71.5155
11
173.584
21
-71.8404
0
LINE
8
BLACK
6
CONTINUOUS
10
173.584
20
-71.8404
11
173.746
21
-72.1828
0
LINE
8
BLACK
6
CONTINUOUS
10
173.746
20
-72.1828
11
173.874
21
-72.5395
0
LINE
8
BLACK
6
CONTINUOUS
10
173.874
20
-72.5395
11
173.966
21
-72.907
0
LINE
8
BLACK
6
CONTINUOUS
10
173.966
20
-72.907
11
174.021
21
-73.2817
0
LINE
8
BLACK
6
CONTINUOUS
10
174.021
20
-73.2817
11
174.04
21
-73.66
0
LINE
8
BLACK
6
CONTINUOUS
10
174.04
20
-73.66
11
174.04
21
-73.66
0
LINE
8
BLACK
6
CONTINUOUS
10
174.04
20
-73.66
11
174.04
21
-130.81
0
LINE
8
BLACK
6
CONTINUOUS
10
174.04
20
-130.81
11
174.021
21
-131.188
0
LINE
8
BLACK
6
CONTINUOUS
10
174.021
20
-131.188
11
173.966
21
-131.563
0
LINE
8
BLACK
6
CONTINUOUS
10
173.966
20
-131.563
11
173.874
21
-131.93
0
LINE
8
BLACK
6
CONTINUOUS
10
173.874
20
-131.93
11
173.746
21
-132.287
0
LINE
8
BLACK
6
CONTINUOUS
10
173.746
20
-132.287
11
173.584
21
-132.63
0
LINE
8
BLACK
6
CONTINUOUS
10
173.584
20
-132.63
11
173.389
21
-132.955
0
LINE
8
BLACK
6
CONTINUOUS
10
173.389
20
-132.955
11
173.164
21
-133.259
0
LINE
8
BLACK
6
CONTINUOUS
10
173.164
20
-133.259
11
172.909
21
-133.539
0
LINE
8
BLACK
6
CONTINUOUS
10
172.909
20
-133.539
11
172.629
21
-133.794
0
LINE
8
BLACK
6
CONTINUOUS
10
172.629
20
-133.794
11
172.324
21
-134.019
0
LINE
8
BLACK
6
CONTINUOUS
10
172.324
20
-134.019
11
172
21
-134.214
0
LINE
8
BLACK
6
CONTINUOUS
10
172
20
-134.214
11
171.657
21
-134.376
0
LINE
8
BLACK
6
CONTINUOUS
10
171.657
20
-134.376
11
171.3
21
-134.504
0
LINE
8
BLACK
6
CONTINUOUS
10
171.3
20
-134.504
11
170.933
21
-134.596
0
LINE
8
BLACK
6
CONTINUOUS
10
170.933
20
-134.596
11
170.558
21
-134.651
0
LINE
8
BLACK
6
CONTINUOUS
10
170.558
20
-134.651
11
170.18
21
-134.67
0
LINE
8
BLACK
6
CONTINUOUS
10
170.18
20
-134.67
11
170.18
21
-134.67
0
LINE
8
BLACK
6
CONTINUOUS
10
170.18
20
-134.67
11
170.18
21
-134.67
0
LINE
8
BLACK
6
CONTINUOUS
10
170.18
20
-134.67
11
125.73
21
-134.67
0
LINE
8
BLACK
6
CONTINUOUS
10
125.73
20
-134.67
11
125.352
21
-134.651
0
LINE
8
BLACK
6
CONTINUOUS
10
125.352
20
-134.651
11
124.977
21
-134.596
0
LINE
8
BLACK
6
CONTINUOUS
10
170.19
20
-134.574
11
170.549
21
-134.556
0
LINE
8
BLACK
6
CONTINUOUS
10
170.549
20
-134.556
11
170.914
21
-134.502
0
LINE
8
BLACK
6
CONTINUOUS
10
170.914
20
-134.502
11
171.273
21
-134.412
0
LINE
8
BLACK
6
CONTINUOUS
10
171.273
20
-134.412
11
171.621
21
-134.288
0
LINE
8
BLACK
6
CONTINUOUS
10
171.621
20
-134.288
11
171.955
21
-134.13
0
LINE
8
BLACK
6
CONTINUOUS
10
171.955
20
-134.13
11
172.271
21
-133.94
0
LINE
8
BLACK
6
CONTINUOUS
10
172.271
20
-133.94
11
172.568
21
-133.72
0
LINE
8
BLACK
6
CONTINUOUS
10
172.568
20
-133.72
11
172.842
21
-133.472
0
LINE
8
BLACK
6
CONTINUOUS
10
172.842
20
-133.472
11
173.09
21
-133.198
0
LINE
8
BLACK
6
CONTINUOUS
10
173.09
20
-133.198
11
173.31
21
-132.901
0
LINE
8
BLACK
6
CONTINUOUS
10
173.31
20
-132.901
11
173.5
21
-132.585
0
LINE
8
BLACK
6
CONTINUOUS
10
173.5
20
-132.585
11
173.658
21
-132.251
0
LINE
8
BLACK
6
CONTINUOUS
10
173.658
20
-132.251
11
173.782
21
-131.903
0
LINE
8
BLACK
6
CONTINUOUS
10
173.782
20
-131.903
11
173.872
21
-131.544
0
LINE
8
BLACK
6
CONTINUOUS
10
173.872
20
-131.544
11
173.926
21
-131.179
0
LINE
8
BLACK
6
CONTINUOUS
10
173.926
20
-131.179
11
173.944
21
-130.82
0
LINE
8
BLACK
6
CONTINUOUS
10
173.944
20
-130.82
11
173.94
21
-130.81
0
LINE
8
BLACK
6
CONTINUOUS
10
173.94
20
-130.81
11
173.94
21
-73.66
0
LINE
8
BLACK
6
CONTINUOUS
10
173.94
20
-73.66
11
173.944
21
-73.6502
0
LINE
8
BLACK
6
CONTINUOUS
10
173.944
20
-73.6502
11
173.926
21
-73.291
0
LINE
8
BLACK
6
CONTINUOUS
10
173.926
20
-73.291
11
173.872
21
-72.9256
0
LINE
8
BLACK
6
CONTINUOUS
10
173.872
20
-72.9256
11
173.782
21
-72.5672
0
LINE
8
BLACK
6
CONTINUOUS
10
173.782
20
-72.5672
11
173.658
21
-72.2194
0
LINE
8
BLACK
6
CONTINUOUS
10
173.658
20
-72.2194
11
173.5
21
-71.8854
0
LINE
8
BLACK
6
CONTINUOUS
10
173.5
20
-71.8854
11
173.31
21
-71.5685
0
LINE
8
BLACK
6
CONTINUOUS
10
173.31
20
-71.5685
11
173.09
21
-71.2718
0
LINE
8
BLACK
6
CONTINUOUS
10
173.09
20
-71.2718
11
172.842
21
-70.9981
0
LINE
8
BLACK
6
CONTINUOUS
10
172.842
20
-70.9981
11
172.568
21
-70.75
0
LINE
8
BLACK
6
CONTINUOUS
10
172.568
20
-70.75
11
172.271
21
-70.5299
0
LINE
8
BLACK
6
CONTINUOUS
10
172.271
20
-70.5299
11
171.955
21
-70.34
0
LINE
8
BLACK
6
CONTINUOUS
10
171.955
20
-70.34
11
171.621
21
-70.182
0
LINE
8
BLACK
6
CONTINUOUS
10
171.621
20
-70.182
11
171.273
21
-70.0576
0
LINE
8
BLACK
6
CONTINUOUS
10
171.273
20
-70.0576
11
170.914
21
-69.9678
0
LINE
8
BLACK
6
CONTINUOUS
10
170.914
20
-69.9678
11
170.549
21
-69.9136
0
LINE
8
BLACK
6
CONTINUOUS
10
170.549
20
-69.9136
11
170.19
21
-69.8959
0
LINE
8
BLACK
6
CONTINUOUS
10
170.19
20
-69.8959
11
170.18
21
-69.9
0
LINE
8
BLACK
6
CONTINUOUS
10
170.18
20
-69.9
11
125.73
21
-69.9
0
LINE
8
BLACK
6
CONTINUOUS
10
125.73
20
-69.9
11
125.72
21
-69.8959
0
LINE
8
BLACK
6
CONTINUOUS
10
125.72
20
-69.8959
11
125.361
21
-69.9136
0
LINE
8
BLACK
6
CONTINUOUS
10
125.361
20
-69.9136
11
124.996
21
-69.9678
0
LINE
8
BLACK
6
CONTINUOUS
10
124.996
20
-69.9678
11
124.637
21
-70.0576
0
LINE
8
BLACK
6
CONTINUOUS
10
124.637
20
-70.0576
11
124.289
21
-70.182
0
LINE
8
BLACK
6
CONTINUOUS
10
124.289
20
-70.182
11
123.955
21
-70.34
0
LINE
8
BLACK
6
CONTINUOUS
10
123.955
20
-70.34
11
123.639
21
-70.5299
0
LINE
8
BLACK
6
CONTINUOUS
10
123.639
20
-70.5299
11
123.342
21
-70.75
0
LINE
8
BLACK
6
CONTINUOUS
10
123.342
20
-70.75
11
123.068
21
-70.9981
0
LINE
8
BLACK
6
CONTINUOUS
10
123.068
20
-70.9981
11
122.82
21
-71.2718
0
LINE
8
BLACK
6
CONTINUOUS
10
122.82
20
-71.2718
11
122.6
21
-71.5685
0
LINE
8
BLACK
6
CONTINUOUS
10
122.6
20
-71.5685
11
122.41
21
-71.8854
0
LINE
8
BLACK
6
CONTINUOUS
10
122.41
20
-71.8854
11
122.252
21
-72.2194
0
LINE
8
BLACK
6
CONTINUOUS
10
122.252
20
-72.2194
11
122.128
21
-72.5672
0
LINE
8
BLACK
6
CONTINUOUS
10
122.128
20
-72.5672
11
122.038
21
-72.9256
0
LINE
8
BLACK
6
CONTINUOUS
10
122.038
20
-72.9256
11
121.984
21
-73.291
0
LINE
8
BLACK
6
CONTINUOUS
10
121.984
20
-73.291
11
121.966
21
-73.6502
0
LINE
8
BLACK
6
CONTINUOUS
10
121.966
20
-73.6502
11
121.97
21
-73.66
0
LINE
8
BLACK
6
CONTINUOUS
10
121.97
20
-73.66
11
121.97
21
-130.81
0
LINE
8
BLACK
6
CONTINUOUS
10
121.97
20
-130.81
11
121.966
21
-130.82
0
LINE
8
BLACK
6
CONTINUOUS
10
121.966
20
-130.82
11
121.984
21
-131.179
0
LINE
8
BLACK
6
CONTINUOUS
10
121.984
20
-131.179
11
122.038
21
-131.544
0
LINE
8
BLACK
6
CONTINUOUS
10
122.038
20
-131.544
11
122.128
21
-131.903
0
LINE
8
BLACK
6
CONTINUOUS
10
122.128
20
-131.903
11
122.252
21
-132.251
0
LINE
8
BLACK
6
CONTINUOUS
10
122.252
20
-132.251
11
122.41
21
-132.585
0
LINE
8
BLACK
6
CONTINUOUS
10
122.41
20
-132.585
11
122.6
21
-132.901
0
LINE
8
BLACK
6
CONTINUOUS
10
122.6
20
-132.901
11
122.82
21
-133.198
0
LINE
8
BLACK
6
CONTINUOUS
10
122.82
20
-133.198
11
123.068
21
-133.472
0
LINE
8
BLACK
6
CONTINUOUS
10
123.068
20
-133.472
11
123.342
21
-133.72
0
LINE
8
BLACK
6
CONTINUOUS
10
123.342
20
-133.72
11
123.639
21
-133.94
0
LINE
8
BLACK
6
CONTINUOUS
10
123.639
20
-133.94
11
123.955
21
-134.13
0
LINE
8
BLACK
6
CONTINUOUS
10
123.955
20
-134.13
11
124.289
21
-134.288
0
LINE
8
BLACK
6
CONTINUOUS
10
124.289
20
-134.288
11
124.637
21
-134.412
0
LINE
8
BLACK
6
CONTINUOUS
10
124.637
20
-134.412
11
124.996
21
-134.502
0
LINE
8
BLACK
6
CONTINUOUS
10
124.996
20
-134.502
11
125.361
21
-134.556
0
LINE
8
BLACK
6
CONTINUOUS
10
125.361
20
-134.556
11
125.72
21
-134.574
0
LINE
8
BLACK
6
CONTINUOUS
10
125.72
20
-134.574
11
125.73
21
-134.57
0
LINE
8
BLACK
6
CONTINUOUS
10
125.73
20
-134.57
11
170.18
21
-134.57
0
LINE
8
BLACK
6
CONTINUOUS
10
170.18
20
-134.57
11
170.19
21
-134.574
  0
ENDSEC
  0
EOF
