  0
SECTION
  2
HEADER
  9
$ANGBASE
  50
0.0
  9
$ANGDIR
  70
1
  9
$MEASUREMENT
  70
1
  0
ENDSEC
  0
SECTION
  2
TABLES
  0
TABLE
  2
LTYPE
  70
4
  0
LTYPE
  5
40F
  2
CONTINUOUS
  70
0
  3
Solid line
  72
65
  73
0
  40
0.0
  0
LTYPE
  5
410
  2
DASHDOT
 70
0
  3
Dash Dot ____ _ ____ _
 72
65
 73
4
 40
2.0
 49
1.25
 49
-0.25
 49
0.25
 49
-0.25
  0
LTYPE
  5
411
  2
DASHED
 70
0
  3
Dashed __ __ __ __ __
 72
65
 73
2
 40
0.75
 49
0.5
 49
-0.25
  0
LTYPE
  5
43B
  2
DOTTED
 70
0
  3
Dotted .  .  .  .
 72
65
 73
2
 40
0.2
 49
0.0
 49
-0.2
  0
ENDTAB
  0
TABLE
  2
STYLE
  70
4
  0
STYLE
  2
KICAD
  70
0
  40
0
  41
1
  42
1
  50
0
  71
0
  3
isocp.shx
  0
STYLE
  2
KICADB
  70
0
  40
0
  41
1
  42
1
  50
0
  71
0
  3
isocp.shx
  0
STYLE
  2
KICADI
  70
0
  40
0
  41
1
  42
1
  50
15
  71
0
  3
isocp.shx
  0
STYLE
  2
KICADBI
  70
0
  40
0
  41
1
  42
1
  50
15
  71
0
  3
isocp.shx
  0
ENDTAB
  0
TABLE
  2
LAYER
  70
1
  0
LAYER
  2
BLACK
  70
0
  62
7
  6
CONTINUOUS
  0
ENDTAB
  0
ENDSEC
  0
SECTION
  2
ENTITIES
0
LINE
8
BLACK
6
CONTINUOUS
10
170.385
20
-128.018
11
170.705
21
-128.06
0
LINE
8
BLACK
6
CONTINUOUS
10
170.705
20
-128.06
11
171.017
21
-128.138
0
LINE
8
BLACK
6
CONTINUOUS
10
171.017
20
-128.138
11
171.319
21
-128.252
0
LINE
8
BLACK
6
CONTINUOUS
10
171.319
20
-128.252
11
171.605
21
-128.4
0
LINE
8
BLACK
6
CONTINUOUS
10
171.605
20
-128.4
11
171.873
21
-128.58
0
LINE
8
BLACK
6
CONTINUOUS
10
171.873
20
-128.58
11
172.118
21
-128.789
0
LINE
8
BLACK
6
CONTINUOUS
10
172.118
20
-128.789
11
172.337
21
-129.025
0
LINE
8
BLACK
6
CONTINUOUS
10
172.337
20
-129.025
11
172.528
21
-129.285
0
LINE
8
BLACK
6
CONTINUOUS
10
172.528
20
-129.285
11
172.688
21
-129.565
0
LINE
8
BLACK
6
CONTINUOUS
10
172.688
20
-129.565
11
172.814
21
-129.862
0
LINE
8
BLACK
6
CONTINUOUS
10
172.814
20
-129.862
11
172.906
21
-130.171
0
LINE
8
BLACK
6
CONTINUOUS
10
172.906
20
-130.171
11
172.961
21
-130.488
0
LINE
8
BLACK
6
CONTINUOUS
10
172.961
20
-130.488
11
172.98
21
-130.81
0
LINE
8
BLACK
6
CONTINUOUS
10
172.98
20
-130.81
11
172.974
21
-130.986
0
LINE
8
BLACK
6
CONTINUOUS
10
172.974
20
-130.986
11
172.936
21
-131.306
0
LINE
8
BLACK
6
CONTINUOUS
10
172.936
20
-131.306
11
172.86
21
-131.619
0
LINE
8
BLACK
6
CONTINUOUS
10
172.86
20
-131.619
11
172.75
21
-131.922
0
LINE
8
BLACK
6
CONTINUOUS
10
172.75
20
-131.922
11
172.605
21
-132.21
0
LINE
8
BLACK
6
CONTINUOUS
10
172.605
20
-132.21
11
172.428
21
-132.479
0
LINE
8
BLACK
6
CONTINUOUS
10
172.428
20
-132.479
11
172.221
21
-132.727
0
LINE
8
BLACK
6
CONTINUOUS
10
172.221
20
-132.727
11
171.987
21
-132.949
0
LINE
8
BLACK
6
CONTINUOUS
10
171.987
20
-132.949
11
171.729
21
-133.142
0
LINE
8
BLACK
6
CONTINUOUS
10
171.729
20
-133.142
11
171.451
21
-133.305
0
LINE
8
BLACK
6
CONTINUOUS
10
171.451
20
-133.305
11
171.156
21
-133.434
0
LINE
8
BLACK
6
CONTINUOUS
10
171.156
20
-133.434
11
170.848
21
-133.529
0
LINE
8
BLACK
6
CONTINUOUS
10
170.848
20
-133.529
11
170.531
21
-133.588
0
LINE
8
BLACK
6
CONTINUOUS
10
170.531
20
-133.588
11
170.209
21
-133.61
0
LINE
8
BLACK
6
CONTINUOUS
10
170.209
20
-133.61
11
169.887
21
-133.595
0
LINE
8
BLACK
6
CONTINUOUS
10
169.887
20
-133.595
11
169.569
21
-133.543
0
LINE
8
BLACK
6
CONTINUOUS
10
169.569
20
-133.543
11
169.259
21
-133.454
0
LINE
8
BLACK
6
CONTINUOUS
10
169.259
20
-133.454
11
168.961
21
-133.331
0
LINE
8
BLACK
6
CONTINUOUS
10
168.961
20
-133.331
11
168.68
21
-133.174
0
LINE
8
BLACK
6
CONTINUOUS
10
168.68
20
-133.174
11
168.418
21
-132.986
0
LINE
8
BLACK
6
CONTINUOUS
10
168.418
20
-132.986
11
168.179
21
-132.769
0
LINE
8
BLACK
6
CONTINUOUS
10
168.179
20
-132.769
11
167.968
21
-132.526
0
LINE
8
BLACK
6
CONTINUOUS
10
167.968
20
-132.526
11
167.785
21
-132.26
0
LINE
8
BLACK
6
CONTINUOUS
10
167.785
20
-132.26
11
167.634
21
-131.976
0
LINE
8
BLACK
6
CONTINUOUS
10
167.634
20
-131.976
11
167.517
21
-131.675
0
LINE
8
BLACK
6
CONTINUOUS
10
167.517
20
-131.675
11
167.435
21
-131.363
0
LINE
8
BLACK
6
CONTINUOUS
10
167.435
20
-131.363
11
167.39
21
-131.044
0
LINE
8
BLACK
6
CONTINUOUS
10
167.39
20
-131.044
11
167.381
21
-130.722
0
LINE
8
BLACK
6
CONTINUOUS
10
167.381
20
-130.722
11
167.41
21
-130.401
0
LINE
8
BLACK
6
CONTINUOUS
10
167.41
20
-130.401
11
167.475
21
-130.085
0
LINE
8
BLACK
6
CONTINUOUS
10
167.475
20
-130.085
11
167.577
21
-129.779
0
LINE
8
BLACK
6
CONTINUOUS
10
167.577
20
-129.779
11
167.712
21
-129.487
0
LINE
8
BLACK
6
CONTINUOUS
10
167.712
20
-129.487
11
167.881
21
-129.212
0
LINE
8
BLACK
6
CONTINUOUS
10
167.881
20
-129.212
11
168.08
21
-128.958
0
LINE
8
BLACK
6
CONTINUOUS
10
168.08
20
-128.958
11
168.306
21
-128.729
0
LINE
8
BLACK
6
CONTINUOUS
10
168.306
20
-128.729
11
168.558
21
-128.528
0
LINE
8
BLACK
6
CONTINUOUS
10
168.558
20
-128.528
11
168.831
21
-128.356
0
LINE
8
BLACK
6
CONTINUOUS
10
168.831
20
-128.356
11
169.122
21
-128.218
0
LINE
8
BLACK
6
CONTINUOUS
10
169.122
20
-128.218
11
169.427
21
-128.113
0
LINE
8
BLACK
6
CONTINUOUS
10
169.427
20
-128.113
11
169.742
21
-128.044
0
LINE
8
BLACK
6
CONTINUOUS
10
169.742
20
-128.044
11
170.063
21
-128.012
0
LINE
8
BLACK
6
CONTINUOUS
10
170.063
20
-128.012
11
170.385
21
-128.018
0
LINE
8
BLACK
6
CONTINUOUS
10
125.935
20
-128.018
11
126.255
21
-128.06
0
LINE
8
BLACK
6
CONTINUOUS
10
126.255
20
-128.06
11
126.567
21
-128.138
0
LINE
8
BLACK
6
CONTINUOUS
10
126.567
20
-128.138
11
126.869
21
-128.252
0
LINE
8
BLACK
6
CONTINUOUS
10
126.869
20
-128.252
11
127.155
21
-128.4
0
LINE
8
BLACK
6
CONTINUOUS
10
127.155
20
-128.4
11
127.423
21
-128.58
0
LINE
8
BLACK
6
CONTINUOUS
10
127.423
20
-128.58
11
127.668
21
-128.789
0
LINE
8
BLACK
6
CONTINUOUS
10
127.668
20
-128.789
11
127.887
21
-129.025
0
LINE
8
BLACK
6
CONTINUOUS
10
127.887
20
-129.025
11
128.078
21
-129.285
0
LINE
8
BLACK
6
CONTINUOUS
10
128.078
20
-129.285
11
128.238
21
-129.565
0
LINE
8
BLACK
6
CONTINUOUS
10
128.238
20
-129.565
11
128.364
21
-129.862
0
LINE
8
BLACK
6
CONTINUOUS
10
128.364
20
-129.862
11
128.456
21
-130.171
0
LINE
8
BLACK
6
CONTINUOUS
10
128.456
20
-130.171
11
128.511
21
-130.488
0
LINE
8
BLACK
6
CONTINUOUS
10
128.511
20
-130.488
11
128.53
21
-130.81
0
LINE
8
BLACK
6
CONTINUOUS
10
128.53
20
-130.81
11
128.524
21
-130.986
0
LINE
8
BLACK
6
CONTINUOUS
10
128.524
20
-130.986
11
128.486
21
-131.306
0
LINE
8
BLACK
6
CONTINUOUS
10
128.486
20
-131.306
11
128.41
21
-131.619
0
LINE
8
BLACK
6
CONTINUOUS
10
128.41
20
-131.619
11
128.3
21
-131.922
0
LINE
8
BLACK
6
CONTINUOUS
10
128.3
20
-131.922
11
128.155
21
-132.21
0
LINE
8
BLACK
6
CONTINUOUS
10
128.155
20
-132.21
11
127.978
21
-132.479
0
LINE
8
BLACK
6
CONTINUOUS
10
127.978
20
-132.479
11
127.771
21
-132.727
0
LINE
8
BLACK
6
CONTINUOUS
10
127.771
20
-132.727
11
127.537
21
-132.949
0
LINE
8
BLACK
6
CONTINUOUS
10
127.537
20
-132.949
11
127.279
21
-133.142
0
LINE
8
BLACK
6
CONTINUOUS
10
127.279
20
-133.142
11
127.001
21
-133.305
0
LINE
8
BLACK
6
CONTINUOUS
10
127.001
20
-133.305
11
126.706
21
-133.434
0
LINE
8
BLACK
6
CONTINUOUS
10
126.706
20
-133.434
11
126.398
21
-133.529
0
LINE
8
BLACK
6
CONTINUOUS
10
126.398
20
-133.529
11
126.081
21
-133.588
0
LINE
8
BLACK
6
CONTINUOUS
10
126.081
20
-133.588
11
125.759
21
-133.61
0
LINE
8
BLACK
6
CONTINUOUS
10
125.759
20
-133.61
11
125.437
21
-133.595
0
LINE
8
BLACK
6
CONTINUOUS
10
125.437
20
-133.595
11
125.119
21
-133.543
0
LINE
8
BLACK
6
CONTINUOUS
10
125.119
20
-133.543
11
124.809
21
-133.454
0
LINE
8
BLACK
6
CONTINUOUS
10
124.809
20
-133.454
11
124.511
21
-133.331
0
LINE
8
BLACK
6
CONTINUOUS
10
124.511
20
-133.331
11
124.23
21
-133.174
0
LINE
8
BLACK
6
CONTINUOUS
10
124.23
20
-133.174
11
123.968
21
-132.986
0
LINE
8
BLACK
6
CONTINUOUS
10
123.968
20
-132.986
11
123.729
21
-132.769
0
LINE
8
BLACK
6
CONTINUOUS
10
123.729
20
-132.769
11
123.518
21
-132.526
0
LINE
8
BLACK
6
CONTINUOUS
10
123.518
20
-132.526
11
123.335
21
-132.26
0
LINE
8
BLACK
6
CONTINUOUS
10
123.335
20
-132.26
11
123.184
21
-131.976
0
LINE
8
BLACK
6
CONTINUOUS
10
123.184
20
-131.976
11
123.067
21
-131.675
0
LINE
8
BLACK
6
CONTINUOUS
10
123.067
20
-131.675
11
122.985
21
-131.363
0
LINE
8
BLACK
6
CONTINUOUS
10
122.985
20
-131.363
11
122.94
21
-131.044
0
LINE
8
BLACK
6
CONTINUOUS
10
122.94
20
-131.044
11
122.931
21
-130.722
0
LINE
8
BLACK
6
CONTINUOUS
10
122.931
20
-130.722
11
122.96
21
-130.401
0
LINE
8
BLACK
6
CONTINUOUS
10
122.96
20
-130.401
11
123.025
21
-130.085
0
LINE
8
BLACK
6
CONTINUOUS
10
123.025
20
-130.085
11
123.127
21
-129.779
0
LINE
8
BLACK
6
CONTINUOUS
10
123.127
20
-129.779
11
123.262
21
-129.487
0
LINE
8
BLACK
6
CONTINUOUS
10
123.262
20
-129.487
11
123.431
21
-129.212
0
LINE
8
BLACK
6
CONTINUOUS
10
123.431
20
-129.212
11
123.63
21
-128.958
0
LINE
8
BLACK
6
CONTINUOUS
10
123.63
20
-128.958
11
123.856
21
-128.729
0
LINE
8
BLACK
6
CONTINUOUS
10
123.856
20
-128.729
11
124.108
21
-128.528
0
LINE
8
BLACK
6
CONTINUOUS
10
124.108
20
-128.528
11
124.381
21
-128.356
0
LINE
8
BLACK
6
CONTINUOUS
10
124.381
20
-128.356
11
124.672
21
-128.218
0
LINE
8
BLACK
6
CONTINUOUS
10
124.672
20
-128.218
11
124.977
21
-128.113
0
LINE
8
BLACK
6
CONTINUOUS
10
124.977
20
-128.113
11
125.292
21
-128.044
0
LINE
8
BLACK
6
CONTINUOUS
10
125.292
20
-128.044
11
125.613
21
-128.012
0
LINE
8
BLACK
6
CONTINUOUS
10
125.613
20
-128.012
11
125.935
21
-128.018
0
LINE
8
BLACK
6
CONTINUOUS
10
162.823
20
-126.192
11
162.985
21
-126.264
0
LINE
8
BLACK
6
CONTINUOUS
10
162.985
20
-126.264
11
163.129
21
-126.368
0
LINE
8
BLACK
6
CONTINUOUS
10
163.129
20
-126.368
11
163.248
21
-126.5
0
LINE
8
BLACK
6
CONTINUOUS
10
163.248
20
-126.5
11
163.337
21
-126.654
0
LINE
8
BLACK
6
CONTINUOUS
10
163.337
20
-126.654
11
163.391
21
-126.823
0
LINE
8
BLACK
6
CONTINUOUS
10
163.391
20
-126.823
11
163.41
21
-127
0
LINE
8
BLACK
6
CONTINUOUS
10
163.41
20
-127
11
163.391
21
-127.177
0
LINE
8
BLACK
6
CONTINUOUS
10
163.391
20
-127.177
11
163.337
21
-127.346
0
LINE
8
BLACK
6
CONTINUOUS
10
163.337
20
-127.346
11
163.248
21
-127.5
0
LINE
8
BLACK
6
CONTINUOUS
10
163.248
20
-127.5
11
163.129
21
-127.632
0
LINE
8
BLACK
6
CONTINUOUS
10
163.129
20
-127.632
11
162.985
21
-127.736
0
LINE
8
BLACK
6
CONTINUOUS
10
162.985
20
-127.736
11
162.823
21
-127.808
0
LINE
8
BLACK
6
CONTINUOUS
10
162.823
20
-127.808
11
162.649
21
-127.845
0
LINE
8
BLACK
6
CONTINUOUS
10
162.649
20
-127.845
11
162.471
21
-127.845
0
LINE
8
BLACK
6
CONTINUOUS
10
162.471
20
-127.845
11
162.297
21
-127.808
0
LINE
8
BLACK
6
CONTINUOUS
10
162.297
20
-127.808
11
162.135
21
-127.736
0
LINE
8
BLACK
6
CONTINUOUS
10
162.135
20
-127.736
11
161.991
21
-127.632
0
LINE
8
BLACK
6
CONTINUOUS
10
161.991
20
-127.632
11
161.872
21
-127.5
0
LINE
8
BLACK
6
CONTINUOUS
10
161.872
20
-127.5
11
161.783
21
-127.346
0
LINE
8
BLACK
6
CONTINUOUS
10
161.783
20
-127.346
11
161.729
21
-127.177
0
LINE
8
BLACK
6
CONTINUOUS
10
161.729
20
-127.177
11
161.71
21
-127
0
LINE
8
BLACK
6
CONTINUOUS
10
161.71
20
-127
11
161.729
21
-126.823
0
LINE
8
BLACK
6
CONTINUOUS
10
161.729
20
-126.823
11
161.783
21
-126.654
0
LINE
8
BLACK
6
CONTINUOUS
10
161.783
20
-126.654
11
161.872
21
-126.5
0
LINE
8
BLACK
6
CONTINUOUS
10
161.872
20
-126.5
11
161.991
21
-126.368
0
LINE
8
BLACK
6
CONTINUOUS
10
161.991
20
-126.368
11
162.135
21
-126.264
0
LINE
8
BLACK
6
CONTINUOUS
10
162.135
20
-126.264
11
162.297
21
-126.192
0
LINE
8
BLACK
6
CONTINUOUS
10
162.297
20
-126.192
11
162.471
21
-126.155
0
LINE
8
BLACK
6
CONTINUOUS
10
162.471
20
-126.155
11
162.649
21
-126.155
0
LINE
8
BLACK
6
CONTINUOUS
10
162.649
20
-126.155
11
162.823
21
-126.192
0
LINE
8
BLACK
6
CONTINUOUS
10
160.283
20
-126.192
11
160.445
21
-126.264
0
LINE
8
BLACK
6
CONTINUOUS
10
160.445
20
-126.264
11
160.589
21
-126.368
0
LINE
8
BLACK
6
CONTINUOUS
10
160.589
20
-126.368
11
160.708
21
-126.5
0
LINE
8
BLACK
6
CONTINUOUS
10
160.708
20
-126.5
11
160.797
21
-126.654
0
LINE
8
BLACK
6
CONTINUOUS
10
160.797
20
-126.654
11
160.851
21
-126.823
0
LINE
8
BLACK
6
CONTINUOUS
10
160.851
20
-126.823
11
160.87
21
-127
0
LINE
8
BLACK
6
CONTINUOUS
10
160.87
20
-127
11
160.851
21
-127.177
0
LINE
8
BLACK
6
CONTINUOUS
10
160.851
20
-127.177
11
160.797
21
-127.346
0
LINE
8
BLACK
6
CONTINUOUS
10
160.797
20
-127.346
11
160.708
21
-127.5
0
LINE
8
BLACK
6
CONTINUOUS
10
160.708
20
-127.5
11
160.589
21
-127.632
0
LINE
8
BLACK
6
CONTINUOUS
10
160.589
20
-127.632
11
160.445
21
-127.736
0
LINE
8
BLACK
6
CONTINUOUS
10
160.445
20
-127.736
11
160.283
21
-127.808
0
LINE
8
BLACK
6
CONTINUOUS
10
160.283
20
-127.808
11
160.109
21
-127.845
0
LINE
8
BLACK
6
CONTINUOUS
10
160.109
20
-127.845
11
159.931
21
-127.845
0
LINE
8
BLACK
6
CONTINUOUS
10
159.931
20
-127.845
11
159.757
21
-127.808
0
LINE
8
BLACK
6
CONTINUOUS
10
159.757
20
-127.808
11
159.595
21
-127.736
0
LINE
8
BLACK
6
CONTINUOUS
10
159.595
20
-127.736
11
159.451
21
-127.632
0
LINE
8
BLACK
6
CONTINUOUS
10
159.451
20
-127.632
11
159.332
21
-127.5
0
LINE
8
BLACK
6
CONTINUOUS
10
159.332
20
-127.5
11
159.243
21
-127.346
0
LINE
8
BLACK
6
CONTINUOUS
10
159.243
20
-127.346
11
159.189
21
-127.177
0
LINE
8
BLACK
6
CONTINUOUS
10
159.189
20
-127.177
11
159.17
21
-127
0
LINE
8
BLACK
6
CONTINUOUS
10
159.17
20
-127
11
159.189
21
-126.823
0
LINE
8
BLACK
6
CONTINUOUS
10
159.189
20
-126.823
11
159.243
21
-126.654
0
LINE
8
BLACK
6
CONTINUOUS
10
159.243
20
-126.654
11
159.332
21
-126.5
0
LINE
8
BLACK
6
CONTINUOUS
10
159.332
20
-126.5
11
159.451
21
-126.368
0
LINE
8
BLACK
6
CONTINUOUS
10
159.451
20
-126.368
11
159.595
21
-126.264
0
LINE
8
BLACK
6
CONTINUOUS
10
159.595
20
-126.264
11
159.757
21
-126.192
0
LINE
8
BLACK
6
CONTINUOUS
10
159.757
20
-126.192
11
159.931
21
-126.155
0
LINE
8
BLACK
6
CONTINUOUS
10
159.931
20
-126.155
11
160.109
21
-126.155
0
LINE
8
BLACK
6
CONTINUOUS
10
160.109
20
-126.155
11
160.283
21
-126.192
0
LINE
8
BLACK
6
CONTINUOUS
10
162.823
20
-123.652
11
162.985
21
-123.724
0
LINE
8
BLACK
6
CONTINUOUS
10
162.985
20
-123.724
11
163.129
21
-123.828
0
LINE
8
BLACK
6
CONTINUOUS
10
163.129
20
-123.828
11
163.248
21
-123.96
0
LINE
8
BLACK
6
CONTINUOUS
10
163.248
20
-123.96
11
163.337
21
-124.114
0
LINE
8
BLACK
6
CONTINUOUS
10
163.337
20
-124.114
11
163.391
21
-124.283
0
LINE
8
BLACK
6
CONTINUOUS
10
163.391
20
-124.283
11
163.41
21
-124.46
0
LINE
8
BLACK
6
CONTINUOUS
10
163.41
20
-124.46
11
163.391
21
-124.637
0
LINE
8
BLACK
6
CONTINUOUS
10
163.391
20
-124.637
11
163.337
21
-124.806
0
LINE
8
BLACK
6
CONTINUOUS
10
163.337
20
-124.806
11
163.248
21
-124.96
0
LINE
8
BLACK
6
CONTINUOUS
10
163.248
20
-124.96
11
163.129
21
-125.092
0
LINE
8
BLACK
6
CONTINUOUS
10
163.129
20
-125.092
11
162.985
21
-125.196
0
LINE
8
BLACK
6
CONTINUOUS
10
162.985
20
-125.196
11
162.823
21
-125.268
0
LINE
8
BLACK
6
CONTINUOUS
10
162.823
20
-125.268
11
162.649
21
-125.305
0
LINE
8
BLACK
6
CONTINUOUS
10
162.649
20
-125.305
11
162.471
21
-125.305
0
LINE
8
BLACK
6
CONTINUOUS
10
162.471
20
-125.305
11
162.297
21
-125.268
0
LINE
8
BLACK
6
CONTINUOUS
10
162.297
20
-125.268
11
162.135
21
-125.196
0
LINE
8
BLACK
6
CONTINUOUS
10
162.135
20
-125.196
11
161.991
21
-125.092
0
LINE
8
BLACK
6
CONTINUOUS
10
161.991
20
-125.092
11
161.872
21
-124.96
0
LINE
8
BLACK
6
CONTINUOUS
10
161.872
20
-124.96
11
161.783
21
-124.806
0
LINE
8
BLACK
6
CONTINUOUS
10
161.783
20
-124.806
11
161.729
21
-124.637
0
LINE
8
BLACK
6
CONTINUOUS
10
161.729
20
-124.637
11
161.71
21
-124.46
0
LINE
8
BLACK
6
CONTINUOUS
10
161.71
20
-124.46
11
161.729
21
-124.283
0
LINE
8
BLACK
6
CONTINUOUS
10
161.729
20
-124.283
11
161.783
21
-124.114
0
LINE
8
BLACK
6
CONTINUOUS
10
161.783
20
-124.114
11
161.872
21
-123.96
0
LINE
8
BLACK
6
CONTINUOUS
10
161.872
20
-123.96
11
161.991
21
-123.828
0
LINE
8
BLACK
6
CONTINUOUS
10
161.991
20
-123.828
11
162.135
21
-123.724
0
LINE
8
BLACK
6
CONTINUOUS
10
162.135
20
-123.724
11
162.297
21
-123.652
0
LINE
8
BLACK
6
CONTINUOUS
10
162.297
20
-123.652
11
162.471
21
-123.615
0
LINE
8
BLACK
6
CONTINUOUS
10
162.471
20
-123.615
11
162.649
21
-123.615
0
LINE
8
BLACK
6
CONTINUOUS
10
162.649
20
-123.615
11
162.823
21
-123.652
0
LINE
8
BLACK
6
CONTINUOUS
10
160.283
20
-123.652
11
160.445
21
-123.724
0
LINE
8
BLACK
6
CONTINUOUS
10
160.445
20
-123.724
11
160.589
21
-123.828
0
LINE
8
BLACK
6
CONTINUOUS
10
160.589
20
-123.828
11
160.708
21
-123.96
0
LINE
8
BLACK
6
CONTINUOUS
10
160.708
20
-123.96
11
160.797
21
-124.114
0
LINE
8
BLACK
6
CONTINUOUS
10
160.797
20
-124.114
11
160.851
21
-124.283
0
LINE
8
BLACK
6
CONTINUOUS
10
160.851
20
-124.283
11
160.87
21
-124.46
0
LINE
8
BLACK
6
CONTINUOUS
10
160.87
20
-124.46
11
160.851
21
-124.637
0
LINE
8
BLACK
6
CONTINUOUS
10
160.851
20
-124.637
11
160.797
21
-124.806
0
LINE
8
BLACK
6
CONTINUOUS
10
160.797
20
-124.806
11
160.708
21
-124.96
0
LINE
8
BLACK
6
CONTINUOUS
10
160.708
20
-124.96
11
160.589
21
-125.092
0
LINE
8
BLACK
6
CONTINUOUS
10
160.589
20
-125.092
11
160.445
21
-125.196
0
LINE
8
BLACK
6
CONTINUOUS
10
160.445
20
-125.196
11
160.283
21
-125.268
0
LINE
8
BLACK
6
CONTINUOUS
10
160.283
20
-125.268
11
160.109
21
-125.305
0
LINE
8
BLACK
6
CONTINUOUS
10
160.109
20
-125.305
11
159.931
21
-125.305
0
LINE
8
BLACK
6
CONTINUOUS
10
159.931
20
-125.305
11
159.757
21
-125.268
0
LINE
8
BLACK
6
CONTINUOUS
10
159.757
20
-125.268
11
159.595
21
-125.196
0
LINE
8
BLACK
6
CONTINUOUS
10
159.595
20
-125.196
11
159.451
21
-125.092
0
LINE
8
BLACK
6
CONTINUOUS
10
159.451
20
-125.092
11
159.332
21
-124.96
0
LINE
8
BLACK
6
CONTINUOUS
10
159.332
20
-124.96
11
159.243
21
-124.806
0
LINE
8
BLACK
6
CONTINUOUS
10
159.243
20
-124.806
11
159.189
21
-124.637
0
LINE
8
BLACK
6
CONTINUOUS
10
159.189
20
-124.637
11
159.17
21
-124.46
0
LINE
8
BLACK
6
CONTINUOUS
10
159.17
20
-124.46
11
159.189
21
-124.283
0
LINE
8
BLACK
6
CONTINUOUS
10
159.189
20
-124.283
11
159.243
21
-124.114
0
LINE
8
BLACK
6
CONTINUOUS
10
159.243
20
-124.114
11
159.332
21
-123.96
0
LINE
8
BLACK
6
CONTINUOUS
10
159.332
20
-123.96
11
159.451
21
-123.828
0
LINE
8
BLACK
6
CONTINUOUS
10
159.451
20
-123.828
11
159.595
21
-123.724
0
LINE
8
BLACK
6
CONTINUOUS
10
159.595
20
-123.724
11
159.757
21
-123.652
0
LINE
8
BLACK
6
CONTINUOUS
10
159.757
20
-123.652
11
159.931
21
-123.615
0
LINE
8
BLACK
6
CONTINUOUS
10
159.931
20
-123.615
11
160.109
21
-123.615
0
LINE
8
BLACK
6
CONTINUOUS
10
160.109
20
-123.615
11
160.283
21
-123.652
0
LINE
8
BLACK
6
CONTINUOUS
10
160.283
20
-121.112
11
160.445
21
-121.184
0
LINE
8
BLACK
6
CONTINUOUS
10
160.445
20
-121.184
11
160.589
21
-121.288
0
LINE
8
BLACK
6
CONTINUOUS
10
160.589
20
-121.288
11
160.708
21
-121.42
0
LINE
8
BLACK
6
CONTINUOUS
10
160.708
20
-121.42
11
160.797
21
-121.574
0
LINE
8
BLACK
6
CONTINUOUS
10
160.797
20
-121.574
11
160.851
21
-121.743
0
LINE
8
BLACK
6
CONTINUOUS
10
160.851
20
-121.743
11
160.87
21
-121.92
0
LINE
8
BLACK
6
CONTINUOUS
10
160.87
20
-121.92
11
160.851
21
-122.097
0
LINE
8
BLACK
6
CONTINUOUS
10
160.851
20
-122.097
11
160.797
21
-122.266
0
LINE
8
BLACK
6
CONTINUOUS
10
160.797
20
-122.266
11
160.708
21
-122.42
0
LINE
8
BLACK
6
CONTINUOUS
10
160.708
20
-122.42
11
160.589
21
-122.552
0
LINE
8
BLACK
6
CONTINUOUS
10
160.589
20
-122.552
11
160.445
21
-122.656
0
LINE
8
BLACK
6
CONTINUOUS
10
160.445
20
-122.656
11
160.283
21
-122.728
0
LINE
8
BLACK
6
CONTINUOUS
10
160.283
20
-122.728
11
160.109
21
-122.765
0
LINE
8
BLACK
6
CONTINUOUS
10
160.109
20
-122.765
11
159.931
21
-122.765
0
LINE
8
BLACK
6
CONTINUOUS
10
159.931
20
-122.765
11
159.757
21
-122.728
0
LINE
8
BLACK
6
CONTINUOUS
10
159.757
20
-122.728
11
159.595
21
-122.656
0
LINE
8
BLACK
6
CONTINUOUS
10
159.595
20
-122.656
11
159.451
21
-122.552
0
LINE
8
BLACK
6
CONTINUOUS
10
159.451
20
-122.552
11
159.332
21
-122.42
0
LINE
8
BLACK
6
CONTINUOUS
10
159.332
20
-122.42
11
159.243
21
-122.266
0
LINE
8
BLACK
6
CONTINUOUS
10
159.243
20
-122.266
11
159.189
21
-122.097
0
LINE
8
BLACK
6
CONTINUOUS
10
159.189
20
-122.097
11
159.17
21
-121.92
0
LINE
8
BLACK
6
CONTINUOUS
10
159.17
20
-121.92
11
159.189
21
-121.743
0
LINE
8
BLACK
6
CONTINUOUS
10
159.189
20
-121.743
11
159.243
21
-121.574
0
LINE
8
BLACK
6
CONTINUOUS
10
159.243
20
-121.574
11
159.332
21
-121.42
0
LINE
8
BLACK
6
CONTINUOUS
10
159.332
20
-121.42
11
159.451
21
-121.288
0
LINE
8
BLACK
6
CONTINUOUS
10
159.451
20
-121.288
11
159.595
21
-121.184
0
LINE
8
BLACK
6
CONTINUOUS
10
159.595
20
-121.184
11
159.757
21
-121.112
0
LINE
8
BLACK
6
CONTINUOUS
10
159.757
20
-121.112
11
159.931
21
-121.075
0
LINE
8
BLACK
6
CONTINUOUS
10
159.931
20
-121.075
11
160.109
21
-121.075
0
LINE
8
BLACK
6
CONTINUOUS
10
160.109
20
-121.075
11
160.283
21
-121.112
0
LINE
8
BLACK
6
CONTINUOUS
10
162.823
20
-121.112
11
162.985
21
-121.184
0
LINE
8
BLACK
6
CONTINUOUS
10
162.985
20
-121.184
11
163.129
21
-121.288
0
LINE
8
BLACK
6
CONTINUOUS
10
163.129
20
-121.288
11
163.248
21
-121.42
0
LINE
8
BLACK
6
CONTINUOUS
10
163.248
20
-121.42
11
163.337
21
-121.574
0
LINE
8
BLACK
6
CONTINUOUS
10
163.337
20
-121.574
11
163.391
21
-121.743
0
LINE
8
BLACK
6
CONTINUOUS
10
163.391
20
-121.743
11
163.41
21
-121.92
0
LINE
8
BLACK
6
CONTINUOUS
10
163.41
20
-121.92
11
163.391
21
-122.097
0
LINE
8
BLACK
6
CONTINUOUS
10
163.391
20
-122.097
11
163.337
21
-122.266
0
LINE
8
BLACK
6
CONTINUOUS
10
163.337
20
-122.266
11
163.248
21
-122.42
0
LINE
8
BLACK
6
CONTINUOUS
10
163.248
20
-122.42
11
163.129
21
-122.552
0
LINE
8
BLACK
6
CONTINUOUS
10
163.129
20
-122.552
11
162.985
21
-122.656
0
LINE
8
BLACK
6
CONTINUOUS
10
162.985
20
-122.656
11
162.823
21
-122.728
0
LINE
8
BLACK
6
CONTINUOUS
10
162.823
20
-122.728
11
162.649
21
-122.765
0
LINE
8
BLACK
6
CONTINUOUS
10
162.649
20
-122.765
11
162.471
21
-122.765
0
LINE
8
BLACK
6
CONTINUOUS
10
162.471
20
-122.765
11
162.297
21
-122.728
0
LINE
8
BLACK
6
CONTINUOUS
10
162.297
20
-122.728
11
162.135
21
-122.656
0
LINE
8
BLACK
6
CONTINUOUS
10
162.135
20
-122.656
11
161.991
21
-122.552
0
LINE
8
BLACK
6
CONTINUOUS
10
161.991
20
-122.552
11
161.872
21
-122.42
0
LINE
8
BLACK
6
CONTINUOUS
10
161.872
20
-122.42
11
161.783
21
-122.266
0
LINE
8
BLACK
6
CONTINUOUS
10
161.783
20
-122.266
11
161.729
21
-122.097
0
LINE
8
BLACK
6
CONTINUOUS
10
161.729
20
-122.097
11
161.71
21
-121.92
0
LINE
8
BLACK
6
CONTINUOUS
10
161.71
20
-121.92
11
161.729
21
-121.743
0
LINE
8
BLACK
6
CONTINUOUS
10
161.729
20
-121.743
11
161.783
21
-121.574
0
LINE
8
BLACK
6
CONTINUOUS
10
161.783
20
-121.574
11
161.872
21
-121.42
0
LINE
8
BLACK
6
CONTINUOUS
10
161.872
20
-121.42
11
161.991
21
-121.288
0
LINE
8
BLACK
6
CONTINUOUS
10
161.991
20
-121.288
11
162.135
21
-121.184
0
LINE
8
BLACK
6
CONTINUOUS
10
162.135
20
-121.184
11
162.297
21
-121.112
0
LINE
8
BLACK
6
CONTINUOUS
10
162.297
20
-121.112
11
162.471
21
-121.075
0
LINE
8
BLACK
6
CONTINUOUS
10
162.471
20
-121.075
11
162.649
21
-121.075
0
LINE
8
BLACK
6
CONTINUOUS
10
162.649
20
-121.075
11
162.823
21
-121.112
0
LINE
8
BLACK
6
CONTINUOUS
10
160.283
20
-118.572
11
160.445
21
-118.644
0
LINE
8
BLACK
6
CONTINUOUS
10
160.445
20
-118.644
11
160.589
21
-118.748
0
LINE
8
BLACK
6
CONTINUOUS
10
160.589
20
-118.748
11
160.708
21
-118.88
0
LINE
8
BLACK
6
CONTINUOUS
10
160.708
20
-118.88
11
160.797
21
-119.034
0
LINE
8
BLACK
6
CONTINUOUS
10
160.797
20
-119.034
11
160.851
21
-119.203
0
LINE
8
BLACK
6
CONTINUOUS
10
160.851
20
-119.203
11
160.87
21
-119.38
0
LINE
8
BLACK
6
CONTINUOUS
10
160.87
20
-119.38
11
160.851
21
-119.557
0
LINE
8
BLACK
6
CONTINUOUS
10
160.851
20
-119.557
11
160.797
21
-119.726
0
LINE
8
BLACK
6
CONTINUOUS
10
160.797
20
-119.726
11
160.708
21
-119.88
0
LINE
8
BLACK
6
CONTINUOUS
10
160.708
20
-119.88
11
160.589
21
-120.012
0
LINE
8
BLACK
6
CONTINUOUS
10
160.589
20
-120.012
11
160.445
21
-120.116
0
LINE
8
BLACK
6
CONTINUOUS
10
160.445
20
-120.116
11
160.283
21
-120.188
0
LINE
8
BLACK
6
CONTINUOUS
10
160.283
20
-120.188
11
160.109
21
-120.225
0
LINE
8
BLACK
6
CONTINUOUS
10
160.109
20
-120.225
11
159.931
21
-120.225
0
LINE
8
BLACK
6
CONTINUOUS
10
159.931
20
-120.225
11
159.757
21
-120.188
0
LINE
8
BLACK
6
CONTINUOUS
10
159.757
20
-120.188
11
159.595
21
-120.116
0
LINE
8
BLACK
6
CONTINUOUS
10
159.595
20
-120.116
11
159.451
21
-120.012
0
LINE
8
BLACK
6
CONTINUOUS
10
159.451
20
-120.012
11
159.332
21
-119.88
0
LINE
8
BLACK
6
CONTINUOUS
10
159.332
20
-119.88
11
159.243
21
-119.726
0
LINE
8
BLACK
6
CONTINUOUS
10
159.243
20
-119.726
11
159.189
21
-119.557
0
LINE
8
BLACK
6
CONTINUOUS
10
159.189
20
-119.557
11
159.17
21
-119.38
0
LINE
8
BLACK
6
CONTINUOUS
10
159.17
20
-119.38
11
159.189
21
-119.203
0
LINE
8
BLACK
6
CONTINUOUS
10
159.189
20
-119.203
11
159.243
21
-119.034
0
LINE
8
BLACK
6
CONTINUOUS
10
159.243
20
-119.034
11
159.332
21
-118.88
0
LINE
8
BLACK
6
CONTINUOUS
10
159.332
20
-118.88
11
159.451
21
-118.748
0
LINE
8
BLACK
6
CONTINUOUS
10
159.451
20
-118.748
11
159.595
21
-118.644
0
LINE
8
BLACK
6
CONTINUOUS
10
159.595
20
-118.644
11
159.757
21
-118.572
0
LINE
8
BLACK
6
CONTINUOUS
10
159.757
20
-118.572
11
159.931
21
-118.535
0
LINE
8
BLACK
6
CONTINUOUS
10
159.931
20
-118.535
11
160.109
21
-118.535
0
LINE
8
BLACK
6
CONTINUOUS
10
160.109
20
-118.535
11
160.283
21
-118.572
0
LINE
8
BLACK
6
CONTINUOUS
10
162.823
20
-118.572
11
162.985
21
-118.644
0
LINE
8
BLACK
6
CONTINUOUS
10
162.985
20
-118.644
11
163.129
21
-118.748
0
LINE
8
BLACK
6
CONTINUOUS
10
163.129
20
-118.748
11
163.248
21
-118.88
0
LINE
8
BLACK
6
CONTINUOUS
10
163.248
20
-118.88
11
163.337
21
-119.034
0
LINE
8
BLACK
6
CONTINUOUS
10
163.337
20
-119.034
11
163.391
21
-119.203
0
LINE
8
BLACK
6
CONTINUOUS
10
163.391
20
-119.203
11
163.41
21
-119.38
0
LINE
8
BLACK
6
CONTINUOUS
10
163.41
20
-119.38
11
163.391
21
-119.557
0
LINE
8
BLACK
6
CONTINUOUS
10
163.391
20
-119.557
11
163.337
21
-119.726
0
LINE
8
BLACK
6
CONTINUOUS
10
163.337
20
-119.726
11
163.248
21
-119.88
0
LINE
8
BLACK
6
CONTINUOUS
10
163.248
20
-119.88
11
163.129
21
-120.012
0
LINE
8
BLACK
6
CONTINUOUS
10
163.129
20
-120.012
11
162.985
21
-120.116
0
LINE
8
BLACK
6
CONTINUOUS
10
162.985
20
-120.116
11
162.823
21
-120.188
0
LINE
8
BLACK
6
CONTINUOUS
10
162.823
20
-120.188
11
162.649
21
-120.225
0
LINE
8
BLACK
6
CONTINUOUS
10
162.649
20
-120.225
11
162.471
21
-120.225
0
LINE
8
BLACK
6
CONTINUOUS
10
162.471
20
-120.225
11
162.297
21
-120.188
0
LINE
8
BLACK
6
CONTINUOUS
10
162.297
20
-120.188
11
162.135
21
-120.116
0
LINE
8
BLACK
6
CONTINUOUS
10
162.135
20
-120.116
11
161.991
21
-120.012
0
LINE
8
BLACK
6
CONTINUOUS
10
161.991
20
-120.012
11
161.872
21
-119.88
0
LINE
8
BLACK
6
CONTINUOUS
10
161.872
20
-119.88
11
161.783
21
-119.726
0
LINE
8
BLACK
6
CONTINUOUS
10
161.783
20
-119.726
11
161.729
21
-119.557
0
LINE
8
BLACK
6
CONTINUOUS
10
161.729
20
-119.557
11
161.71
21
-119.38
0
LINE
8
BLACK
6
CONTINUOUS
10
161.71
20
-119.38
11
161.729
21
-119.203
0
LINE
8
BLACK
6
CONTINUOUS
10
161.729
20
-119.203
11
161.783
21
-119.034
0
LINE
8
BLACK
6
CONTINUOUS
10
161.783
20
-119.034
11
161.872
21
-118.88
0
LINE
8
BLACK
6
CONTINUOUS
10
161.872
20
-118.88
11
161.991
21
-118.748
0
LINE
8
BLACK
6
CONTINUOUS
10
161.991
20
-118.748
11
162.135
21
-118.644
0
LINE
8
BLACK
6
CONTINUOUS
10
162.135
20
-118.644
11
162.297
21
-118.572
0
LINE
8
BLACK
6
CONTINUOUS
10
162.297
20
-118.572
11
162.471
21
-118.535
0
LINE
8
BLACK
6
CONTINUOUS
10
162.471
20
-118.535
11
162.649
21
-118.535
0
LINE
8
BLACK
6
CONTINUOUS
10
162.649
20
-118.535
11
162.823
21
-118.572
0
LINE
8
BLACK
6
CONTINUOUS
10
162.823
20
-116.032
11
162.985
21
-116.104
0
LINE
8
BLACK
6
CONTINUOUS
10
162.985
20
-116.104
11
163.129
21
-116.208
0
LINE
8
BLACK
6
CONTINUOUS
10
163.129
20
-116.208
11
163.248
21
-116.34
0
LINE
8
BLACK
6
CONTINUOUS
10
163.248
20
-116.34
11
163.337
21
-116.494
0
LINE
8
BLACK
6
CONTINUOUS
10
163.337
20
-116.494
11
163.391
21
-116.663
0
LINE
8
BLACK
6
CONTINUOUS
10
163.391
20
-116.663
11
163.41
21
-116.84
0
LINE
8
BLACK
6
CONTINUOUS
10
163.41
20
-116.84
11
163.391
21
-117.017
0
LINE
8
BLACK
6
CONTINUOUS
10
163.391
20
-117.017
11
163.337
21
-117.186
0
LINE
8
BLACK
6
CONTINUOUS
10
163.337
20
-117.186
11
163.248
21
-117.34
0
LINE
8
BLACK
6
CONTINUOUS
10
163.248
20
-117.34
11
163.129
21
-117.472
0
LINE
8
BLACK
6
CONTINUOUS
10
163.129
20
-117.472
11
162.985
21
-117.576
0
LINE
8
BLACK
6
CONTINUOUS
10
162.985
20
-117.576
11
162.823
21
-117.648
0
LINE
8
BLACK
6
CONTINUOUS
10
162.823
20
-117.648
11
162.649
21
-117.685
0
LINE
8
BLACK
6
CONTINUOUS
10
162.649
20
-117.685
11
162.471
21
-117.685
0
LINE
8
BLACK
6
CONTINUOUS
10
162.471
20
-117.685
11
162.297
21
-117.648
0
LINE
8
BLACK
6
CONTINUOUS
10
162.297
20
-117.648
11
162.135
21
-117.576
0
LINE
8
BLACK
6
CONTINUOUS
10
162.135
20
-117.576
11
161.991
21
-117.472
0
LINE
8
BLACK
6
CONTINUOUS
10
161.991
20
-117.472
11
161.872
21
-117.34
0
LINE
8
BLACK
6
CONTINUOUS
10
161.872
20
-117.34
11
161.783
21
-117.186
0
LINE
8
BLACK
6
CONTINUOUS
10
161.783
20
-117.186
11
161.729
21
-117.017
0
LINE
8
BLACK
6
CONTINUOUS
10
161.729
20
-117.017
11
161.71
21
-116.84
0
LINE
8
BLACK
6
CONTINUOUS
10
161.71
20
-116.84
11
161.729
21
-116.663
0
LINE
8
BLACK
6
CONTINUOUS
10
161.729
20
-116.663
11
161.783
21
-116.494
0
LINE
8
BLACK
6
CONTINUOUS
10
161.783
20
-116.494
11
161.872
21
-116.34
0
LINE
8
BLACK
6
CONTINUOUS
10
161.872
20
-116.34
11
161.991
21
-116.208
0
LINE
8
BLACK
6
CONTINUOUS
10
161.991
20
-116.208
11
162.135
21
-116.104
0
LINE
8
BLACK
6
CONTINUOUS
10
162.135
20
-116.104
11
162.297
21
-116.032
0
LINE
8
BLACK
6
CONTINUOUS
10
162.297
20
-116.032
11
162.471
21
-115.995
0
LINE
8
BLACK
6
CONTINUOUS
10
162.471
20
-115.995
11
162.649
21
-115.995
0
LINE
8
BLACK
6
CONTINUOUS
10
162.649
20
-115.995
11
162.823
21
-116.032
0
LINE
8
BLACK
6
CONTINUOUS
10
160.283
20
-116.032
11
160.445
21
-116.104
0
LINE
8
BLACK
6
CONTINUOUS
10
160.445
20
-116.104
11
160.589
21
-116.208
0
LINE
8
BLACK
6
CONTINUOUS
10
160.589
20
-116.208
11
160.708
21
-116.34
0
LINE
8
BLACK
6
CONTINUOUS
10
160.708
20
-116.34
11
160.797
21
-116.494
0
LINE
8
BLACK
6
CONTINUOUS
10
160.797
20
-116.494
11
160.851
21
-116.663
0
LINE
8
BLACK
6
CONTINUOUS
10
160.851
20
-116.663
11
160.87
21
-116.84
0
LINE
8
BLACK
6
CONTINUOUS
10
160.87
20
-116.84
11
160.851
21
-117.017
0
LINE
8
BLACK
6
CONTINUOUS
10
160.851
20
-117.017
11
160.797
21
-117.186
0
LINE
8
BLACK
6
CONTINUOUS
10
160.797
20
-117.186
11
160.708
21
-117.34
0
LINE
8
BLACK
6
CONTINUOUS
10
160.708
20
-117.34
11
160.589
21
-117.472
0
LINE
8
BLACK
6
CONTINUOUS
10
160.589
20
-117.472
11
160.445
21
-117.576
0
LINE
8
BLACK
6
CONTINUOUS
10
160.445
20
-117.576
11
160.283
21
-117.648
0
LINE
8
BLACK
6
CONTINUOUS
10
160.283
20
-117.648
11
160.109
21
-117.685
0
LINE
8
BLACK
6
CONTINUOUS
10
160.109
20
-117.685
11
159.931
21
-117.685
0
LINE
8
BLACK
6
CONTINUOUS
10
159.931
20
-117.685
11
159.757
21
-117.648
0
LINE
8
BLACK
6
CONTINUOUS
10
159.757
20
-117.648
11
159.595
21
-117.576
0
LINE
8
BLACK
6
CONTINUOUS
10
159.595
20
-117.576
11
159.451
21
-117.472
0
LINE
8
BLACK
6
CONTINUOUS
10
159.451
20
-117.472
11
159.332
21
-117.34
0
LINE
8
BLACK
6
CONTINUOUS
10
159.332
20
-117.34
11
159.243
21
-117.186
0
LINE
8
BLACK
6
CONTINUOUS
10
159.243
20
-117.186
11
159.189
21
-117.017
0
LINE
8
BLACK
6
CONTINUOUS
10
159.189
20
-117.017
11
159.17
21
-116.84
0
LINE
8
BLACK
6
CONTINUOUS
10
159.17
20
-116.84
11
159.189
21
-116.663
0
LINE
8
BLACK
6
CONTINUOUS
10
159.189
20
-116.663
11
159.243
21
-116.494
0
LINE
8
BLACK
6
CONTINUOUS
10
159.243
20
-116.494
11
159.332
21
-116.34
0
LINE
8
BLACK
6
CONTINUOUS
10
159.332
20
-116.34
11
159.451
21
-116.208
0
LINE
8
BLACK
6
CONTINUOUS
10
159.451
20
-116.208
11
159.595
21
-116.104
0
LINE
8
BLACK
6
CONTINUOUS
10
159.595
20
-116.104
11
159.757
21
-116.032
0
LINE
8
BLACK
6
CONTINUOUS
10
159.757
20
-116.032
11
159.931
21
-115.995
0
LINE
8
BLACK
6
CONTINUOUS
10
159.931
20
-115.995
11
160.109
21
-115.995
0
LINE
8
BLACK
6
CONTINUOUS
10
160.109
20
-115.995
11
160.283
21
-116.032
0
LINE
8
BLACK
6
CONTINUOUS
10
162.823
20
-113.492
11
162.985
21
-113.564
0
LINE
8
BLACK
6
CONTINUOUS
10
162.985
20
-113.564
11
163.129
21
-113.668
0
LINE
8
BLACK
6
CONTINUOUS
10
163.129
20
-113.668
11
163.248
21
-113.8
0
LINE
8
BLACK
6
CONTINUOUS
10
163.248
20
-113.8
11
163.337
21
-113.954
0
LINE
8
BLACK
6
CONTINUOUS
10
163.337
20
-113.954
11
163.391
21
-114.123
0
LINE
8
BLACK
6
CONTINUOUS
10
163.391
20
-114.123
11
163.41
21
-114.3
0
LINE
8
BLACK
6
CONTINUOUS
10
163.41
20
-114.3
11
163.391
21
-114.477
0
LINE
8
BLACK
6
CONTINUOUS
10
163.391
20
-114.477
11
163.337
21
-114.646
0
LINE
8
BLACK
6
CONTINUOUS
10
163.337
20
-114.646
11
163.248
21
-114.8
0
LINE
8
BLACK
6
CONTINUOUS
10
163.248
20
-114.8
11
163.129
21
-114.932
0
LINE
8
BLACK
6
CONTINUOUS
10
163.129
20
-114.932
11
162.985
21
-115.036
0
LINE
8
BLACK
6
CONTINUOUS
10
162.985
20
-115.036
11
162.823
21
-115.108
0
LINE
8
BLACK
6
CONTINUOUS
10
162.823
20
-115.108
11
162.649
21
-115.145
0
LINE
8
BLACK
6
CONTINUOUS
10
162.649
20
-115.145
11
162.471
21
-115.145
0
LINE
8
BLACK
6
CONTINUOUS
10
162.471
20
-115.145
11
162.297
21
-115.108
0
LINE
8
BLACK
6
CONTINUOUS
10
162.297
20
-115.108
11
162.135
21
-115.036
0
LINE
8
BLACK
6
CONTINUOUS
10
162.135
20
-115.036
11
161.991
21
-114.932
0
LINE
8
BLACK
6
CONTINUOUS
10
161.991
20
-114.932
11
161.872
21
-114.8
0
LINE
8
BLACK
6
CONTINUOUS
10
161.872
20
-114.8
11
161.783
21
-114.646
0
LINE
8
BLACK
6
CONTINUOUS
10
161.783
20
-114.646
11
161.729
21
-114.477
0
LINE
8
BLACK
6
CONTINUOUS
10
161.729
20
-114.477
11
161.71
21
-114.3
0
LINE
8
BLACK
6
CONTINUOUS
10
161.71
20
-114.3
11
161.729
21
-114.123
0
LINE
8
BLACK
6
CONTINUOUS
10
161.729
20
-114.123
11
161.783
21
-113.954
0
LINE
8
BLACK
6
CONTINUOUS
10
161.783
20
-113.954
11
161.872
21
-113.8
0
LINE
8
BLACK
6
CONTINUOUS
10
161.872
20
-113.8
11
161.991
21
-113.668
0
LINE
8
BLACK
6
CONTINUOUS
10
161.991
20
-113.668
11
162.135
21
-113.564
0
LINE
8
BLACK
6
CONTINUOUS
10
162.135
20
-113.564
11
162.297
21
-113.492
0
LINE
8
BLACK
6
CONTINUOUS
10
162.297
20
-113.492
11
162.471
21
-113.455
0
LINE
8
BLACK
6
CONTINUOUS
10
162.471
20
-113.455
11
162.649
21
-113.455
0
LINE
8
BLACK
6
CONTINUOUS
10
162.649
20
-113.455
11
162.823
21
-113.492
0
LINE
8
BLACK
6
CONTINUOUS
10
160.283
20
-113.492
11
160.445
21
-113.564
0
LINE
8
BLACK
6
CONTINUOUS
10
160.445
20
-113.564
11
160.589
21
-113.668
0
LINE
8
BLACK
6
CONTINUOUS
10
160.589
20
-113.668
11
160.708
21
-113.8
0
LINE
8
BLACK
6
CONTINUOUS
10
160.708
20
-113.8
11
160.797
21
-113.954
0
LINE
8
BLACK
6
CONTINUOUS
10
160.797
20
-113.954
11
160.851
21
-114.123
0
LINE
8
BLACK
6
CONTINUOUS
10
160.851
20
-114.123
11
160.87
21
-114.3
0
LINE
8
BLACK
6
CONTINUOUS
10
160.87
20
-114.3
11
160.851
21
-114.477
0
LINE
8
BLACK
6
CONTINUOUS
10
160.851
20
-114.477
11
160.797
21
-114.646
0
LINE
8
BLACK
6
CONTINUOUS
10
160.797
20
-114.646
11
160.708
21
-114.8
0
LINE
8
BLACK
6
CONTINUOUS
10
160.708
20
-114.8
11
160.589
21
-114.932
0
LINE
8
BLACK
6
CONTINUOUS
10
160.589
20
-114.932
11
160.445
21
-115.036
0
LINE
8
BLACK
6
CONTINUOUS
10
160.445
20
-115.036
11
160.283
21
-115.108
0
LINE
8
BLACK
6
CONTINUOUS
10
160.283
20
-115.108
11
160.109
21
-115.145
0
LINE
8
BLACK
6
CONTINUOUS
10
160.109
20
-115.145
11
159.931
21
-115.145
0
LINE
8
BLACK
6
CONTINUOUS
10
159.931
20
-115.145
11
159.757
21
-115.108
0
LINE
8
BLACK
6
CONTINUOUS
10
159.757
20
-115.108
11
159.595
21
-115.036
0
LINE
8
BLACK
6
CONTINUOUS
10
159.595
20
-115.036
11
159.451
21
-114.932
0
LINE
8
BLACK
6
CONTINUOUS
10
159.451
20
-114.932
11
159.332
21
-114.8
0
LINE
8
BLACK
6
CONTINUOUS
10
159.332
20
-114.8
11
159.243
21
-114.646
0
LINE
8
BLACK
6
CONTINUOUS
10
159.243
20
-114.646
11
159.189
21
-114.477
0
LINE
8
BLACK
6
CONTINUOUS
10
159.189
20
-114.477
11
159.17
21
-114.3
0
LINE
8
BLACK
6
CONTINUOUS
10
159.17
20
-114.3
11
159.189
21
-114.123
0
LINE
8
BLACK
6
CONTINUOUS
10
159.189
20
-114.123
11
159.243
21
-113.954
0
LINE
8
BLACK
6
CONTINUOUS
10
159.243
20
-113.954
11
159.332
21
-113.8
0
LINE
8
BLACK
6
CONTINUOUS
10
159.332
20
-113.8
11
159.451
21
-113.668
0
LINE
8
BLACK
6
CONTINUOUS
10
159.451
20
-113.668
11
159.595
21
-113.564
0
LINE
8
BLACK
6
CONTINUOUS
10
159.595
20
-113.564
11
159.757
21
-113.492
0
LINE
8
BLACK
6
CONTINUOUS
10
159.757
20
-113.492
11
159.931
21
-113.455
0
LINE
8
BLACK
6
CONTINUOUS
10
159.931
20
-113.455
11
160.109
21
-113.455
0
LINE
8
BLACK
6
CONTINUOUS
10
160.109
20
-113.455
11
160.283
21
-113.492
0
LINE
8
BLACK
6
CONTINUOUS
10
162.823
20
-110.952
11
162.985
21
-111.024
0
LINE
8
BLACK
6
CONTINUOUS
10
162.985
20
-111.024
11
163.129
21
-111.128
0
LINE
8
BLACK
6
CONTINUOUS
10
163.129
20
-111.128
11
163.248
21
-111.26
0
LINE
8
BLACK
6
CONTINUOUS
10
163.248
20
-111.26
11
163.337
21
-111.414
0
LINE
8
BLACK
6
CONTINUOUS
10
163.337
20
-111.414
11
163.391
21
-111.583
0
LINE
8
BLACK
6
CONTINUOUS
10
163.391
20
-111.583
11
163.41
21
-111.76
0
LINE
8
BLACK
6
CONTINUOUS
10
163.41
20
-111.76
11
163.391
21
-111.937
0
LINE
8
BLACK
6
CONTINUOUS
10
163.391
20
-111.937
11
163.337
21
-112.106
0
LINE
8
BLACK
6
CONTINUOUS
10
163.337
20
-112.106
11
163.248
21
-112.26
0
LINE
8
BLACK
6
CONTINUOUS
10
163.248
20
-112.26
11
163.129
21
-112.392
0
LINE
8
BLACK
6
CONTINUOUS
10
163.129
20
-112.392
11
162.985
21
-112.496
0
LINE
8
BLACK
6
CONTINUOUS
10
162.985
20
-112.496
11
162.823
21
-112.568
0
LINE
8
BLACK
6
CONTINUOUS
10
162.823
20
-112.568
11
162.649
21
-112.605
0
LINE
8
BLACK
6
CONTINUOUS
10
162.649
20
-112.605
11
162.471
21
-112.605
0
LINE
8
BLACK
6
CONTINUOUS
10
162.471
20
-112.605
11
162.297
21
-112.568
0
LINE
8
BLACK
6
CONTINUOUS
10
162.297
20
-112.568
11
162.135
21
-112.496
0
LINE
8
BLACK
6
CONTINUOUS
10
162.135
20
-112.496
11
161.991
21
-112.392
0
LINE
8
BLACK
6
CONTINUOUS
10
161.991
20
-112.392
11
161.872
21
-112.26
0
LINE
8
BLACK
6
CONTINUOUS
10
161.872
20
-112.26
11
161.783
21
-112.106
0
LINE
8
BLACK
6
CONTINUOUS
10
161.783
20
-112.106
11
161.729
21
-111.937
0
LINE
8
BLACK
6
CONTINUOUS
10
161.729
20
-111.937
11
161.71
21
-111.76
0
LINE
8
BLACK
6
CONTINUOUS
10
161.71
20
-111.76
11
161.729
21
-111.583
0
LINE
8
BLACK
6
CONTINUOUS
10
161.729
20
-111.583
11
161.783
21
-111.414
0
LINE
8
BLACK
6
CONTINUOUS
10
161.783
20
-111.414
11
161.872
21
-111.26
0
LINE
8
BLACK
6
CONTINUOUS
10
161.872
20
-111.26
11
161.991
21
-111.128
0
LINE
8
BLACK
6
CONTINUOUS
10
161.991
20
-111.128
11
162.135
21
-111.024
0
LINE
8
BLACK
6
CONTINUOUS
10
162.135
20
-111.024
11
162.297
21
-110.952
0
LINE
8
BLACK
6
CONTINUOUS
10
162.297
20
-110.952
11
162.471
21
-110.915
0
LINE
8
BLACK
6
CONTINUOUS
10
162.471
20
-110.915
11
162.649
21
-110.915
0
LINE
8
BLACK
6
CONTINUOUS
10
162.649
20
-110.915
11
162.823
21
-110.952
0
LINE
8
BLACK
6
CONTINUOUS
10
160.283
20
-110.952
11
160.445
21
-111.024
0
LINE
8
BLACK
6
CONTINUOUS
10
160.445
20
-111.024
11
160.589
21
-111.128
0
LINE
8
BLACK
6
CONTINUOUS
10
160.589
20
-111.128
11
160.708
21
-111.26
0
LINE
8
BLACK
6
CONTINUOUS
10
160.708
20
-111.26
11
160.797
21
-111.414
0
LINE
8
BLACK
6
CONTINUOUS
10
160.797
20
-111.414
11
160.851
21
-111.583
0
LINE
8
BLACK
6
CONTINUOUS
10
160.851
20
-111.583
11
160.87
21
-111.76
0
LINE
8
BLACK
6
CONTINUOUS
10
160.87
20
-111.76
11
160.851
21
-111.937
0
LINE
8
BLACK
6
CONTINUOUS
10
160.851
20
-111.937
11
160.797
21
-112.106
0
LINE
8
BLACK
6
CONTINUOUS
10
160.797
20
-112.106
11
160.708
21
-112.26
0
LINE
8
BLACK
6
CONTINUOUS
10
160.708
20
-112.26
11
160.589
21
-112.392
0
LINE
8
BLACK
6
CONTINUOUS
10
160.589
20
-112.392
11
160.445
21
-112.496
0
LINE
8
BLACK
6
CONTINUOUS
10
160.445
20
-112.496
11
160.283
21
-112.568
0
LINE
8
BLACK
6
CONTINUOUS
10
160.283
20
-112.568
11
160.109
21
-112.605
0
LINE
8
BLACK
6
CONTINUOUS
10
160.109
20
-112.605
11
159.931
21
-112.605
0
LINE
8
BLACK
6
CONTINUOUS
10
159.931
20
-112.605
11
159.757
21
-112.568
0
LINE
8
BLACK
6
CONTINUOUS
10
159.757
20
-112.568
11
159.595
21
-112.496
0
LINE
8
BLACK
6
CONTINUOUS
10
159.595
20
-112.496
11
159.451
21
-112.392
0
LINE
8
BLACK
6
CONTINUOUS
10
159.451
20
-112.392
11
159.332
21
-112.26
0
LINE
8
BLACK
6
CONTINUOUS
10
159.332
20
-112.26
11
159.243
21
-112.106
0
LINE
8
BLACK
6
CONTINUOUS
10
159.243
20
-112.106
11
159.189
21
-111.937
0
LINE
8
BLACK
6
CONTINUOUS
10
159.189
20
-111.937
11
159.17
21
-111.76
0
LINE
8
BLACK
6
CONTINUOUS
10
159.17
20
-111.76
11
159.189
21
-111.583
0
LINE
8
BLACK
6
CONTINUOUS
10
159.189
20
-111.583
11
159.243
21
-111.414
0
LINE
8
BLACK
6
CONTINUOUS
10
159.243
20
-111.414
11
159.332
21
-111.26
0
LINE
8
BLACK
6
CONTINUOUS
10
159.332
20
-111.26
11
159.451
21
-111.128
0
LINE
8
BLACK
6
CONTINUOUS
10
159.451
20
-111.128
11
159.595
21
-111.024
0
LINE
8
BLACK
6
CONTINUOUS
10
159.595
20
-111.024
11
159.757
21
-110.952
0
LINE
8
BLACK
6
CONTINUOUS
10
159.757
20
-110.952
11
159.931
21
-110.915
0
LINE
8
BLACK
6
CONTINUOUS
10
159.931
20
-110.915
11
160.109
21
-110.915
0
LINE
8
BLACK
6
CONTINUOUS
10
160.109
20
-110.915
11
160.283
21
-110.952
0
LINE
8
BLACK
6
CONTINUOUS
10
162.823
20
-108.412
11
162.985
21
-108.484
0
LINE
8
BLACK
6
CONTINUOUS
10
162.985
20
-108.484
11
163.129
21
-108.588
0
LINE
8
BLACK
6
CONTINUOUS
10
163.129
20
-108.588
11
163.248
21
-108.72
0
LINE
8
BLACK
6
CONTINUOUS
10
163.248
20
-108.72
11
163.337
21
-108.874
0
LINE
8
BLACK
6
CONTINUOUS
10
163.337
20
-108.874
11
163.391
21
-109.043
0
LINE
8
BLACK
6
CONTINUOUS
10
163.391
20
-109.043
11
163.41
21
-109.22
0
LINE
8
BLACK
6
CONTINUOUS
10
163.41
20
-109.22
11
163.391
21
-109.397
0
LINE
8
BLACK
6
CONTINUOUS
10
163.391
20
-109.397
11
163.337
21
-109.566
0
LINE
8
BLACK
6
CONTINUOUS
10
163.337
20
-109.566
11
163.248
21
-109.72
0
LINE
8
BLACK
6
CONTINUOUS
10
163.248
20
-109.72
11
163.129
21
-109.852
0
LINE
8
BLACK
6
CONTINUOUS
10
163.129
20
-109.852
11
162.985
21
-109.956
0
LINE
8
BLACK
6
CONTINUOUS
10
162.985
20
-109.956
11
162.823
21
-110.028
0
LINE
8
BLACK
6
CONTINUOUS
10
162.823
20
-110.028
11
162.649
21
-110.065
0
LINE
8
BLACK
6
CONTINUOUS
10
162.649
20
-110.065
11
162.471
21
-110.065
0
LINE
8
BLACK
6
CONTINUOUS
10
162.471
20
-110.065
11
162.297
21
-110.028
0
LINE
8
BLACK
6
CONTINUOUS
10
162.297
20
-110.028
11
162.135
21
-109.956
0
LINE
8
BLACK
6
CONTINUOUS
10
162.135
20
-109.956
11
161.991
21
-109.852
0
LINE
8
BLACK
6
CONTINUOUS
10
161.991
20
-109.852
11
161.872
21
-109.72
0
LINE
8
BLACK
6
CONTINUOUS
10
161.872
20
-109.72
11
161.783
21
-109.566
0
LINE
8
BLACK
6
CONTINUOUS
10
161.783
20
-109.566
11
161.729
21
-109.397
0
LINE
8
BLACK
6
CONTINUOUS
10
161.729
20
-109.397
11
161.71
21
-109.22
0
LINE
8
BLACK
6
CONTINUOUS
10
161.71
20
-109.22
11
161.729
21
-109.043
0
LINE
8
BLACK
6
CONTINUOUS
10
161.729
20
-109.043
11
161.783
21
-108.874
0
LINE
8
BLACK
6
CONTINUOUS
10
161.783
20
-108.874
11
161.872
21
-108.72
0
LINE
8
BLACK
6
CONTINUOUS
10
161.872
20
-108.72
11
161.991
21
-108.588
0
LINE
8
BLACK
6
CONTINUOUS
10
161.991
20
-108.588
11
162.135
21
-108.484
0
LINE
8
BLACK
6
CONTINUOUS
10
162.135
20
-108.484
11
162.297
21
-108.412
0
LINE
8
BLACK
6
CONTINUOUS
10
162.297
20
-108.412
11
162.471
21
-108.375
0
LINE
8
BLACK
6
CONTINUOUS
10
162.471
20
-108.375
11
162.649
21
-108.375
0
LINE
8
BLACK
6
CONTINUOUS
10
162.649
20
-108.375
11
162.823
21
-108.412
0
LINE
8
BLACK
6
CONTINUOUS
10
160.283
20
-108.412
11
160.445
21
-108.484
0
LINE
8
BLACK
6
CONTINUOUS
10
160.445
20
-108.484
11
160.589
21
-108.588
0
LINE
8
BLACK
6
CONTINUOUS
10
160.589
20
-108.588
11
160.708
21
-108.72
0
LINE
8
BLACK
6
CONTINUOUS
10
160.708
20
-108.72
11
160.797
21
-108.874
0
LINE
8
BLACK
6
CONTINUOUS
10
160.797
20
-108.874
11
160.851
21
-109.043
0
LINE
8
BLACK
6
CONTINUOUS
10
160.851
20
-109.043
11
160.87
21
-109.22
0
LINE
8
BLACK
6
CONTINUOUS
10
160.87
20
-109.22
11
160.851
21
-109.397
0
LINE
8
BLACK
6
CONTINUOUS
10
160.851
20
-109.397
11
160.797
21
-109.566
0
LINE
8
BLACK
6
CONTINUOUS
10
160.797
20
-109.566
11
160.708
21
-109.72
0
LINE
8
BLACK
6
CONTINUOUS
10
160.708
20
-109.72
11
160.589
21
-109.852
0
LINE
8
BLACK
6
CONTINUOUS
10
160.589
20
-109.852
11
160.445
21
-109.956
0
LINE
8
BLACK
6
CONTINUOUS
10
160.445
20
-109.956
11
160.283
21
-110.028
0
LINE
8
BLACK
6
CONTINUOUS
10
160.283
20
-110.028
11
160.109
21
-110.065
0
LINE
8
BLACK
6
CONTINUOUS
10
160.109
20
-110.065
11
159.931
21
-110.065
0
LINE
8
BLACK
6
CONTINUOUS
10
159.931
20
-110.065
11
159.757
21
-110.028
0
LINE
8
BLACK
6
CONTINUOUS
10
159.757
20
-110.028
11
159.595
21
-109.956
0
LINE
8
BLACK
6
CONTINUOUS
10
159.595
20
-109.956
11
159.451
21
-109.852
0
LINE
8
BLACK
6
CONTINUOUS
10
159.451
20
-109.852
11
159.332
21
-109.72
0
LINE
8
BLACK
6
CONTINUOUS
10
159.332
20
-109.72
11
159.243
21
-109.566
0
LINE
8
BLACK
6
CONTINUOUS
10
159.243
20
-109.566
11
159.189
21
-109.397
0
LINE
8
BLACK
6
CONTINUOUS
10
159.189
20
-109.397
11
159.17
21
-109.22
0
LINE
8
BLACK
6
CONTINUOUS
10
159.17
20
-109.22
11
159.189
21
-109.043
0
LINE
8
BLACK
6
CONTINUOUS
10
159.189
20
-109.043
11
159.243
21
-108.874
0
LINE
8
BLACK
6
CONTINUOUS
10
159.243
20
-108.874
11
159.332
21
-108.72
0
LINE
8
BLACK
6
CONTINUOUS
10
159.332
20
-108.72
11
159.451
21
-108.588
0
LINE
8
BLACK
6
CONTINUOUS
10
159.451
20
-108.588
11
159.595
21
-108.484
0
LINE
8
BLACK
6
CONTINUOUS
10
159.595
20
-108.484
11
159.757
21
-108.412
0
LINE
8
BLACK
6
CONTINUOUS
10
159.757
20
-108.412
11
159.931
21
-108.375
0
LINE
8
BLACK
6
CONTINUOUS
10
159.931
20
-108.375
11
160.109
21
-108.375
0
LINE
8
BLACK
6
CONTINUOUS
10
160.109
20
-108.375
11
160.283
21
-108.412
0
LINE
8
BLACK
6
CONTINUOUS
10
160.283
20
-105.872
11
160.445
21
-105.944
0
LINE
8
BLACK
6
CONTINUOUS
10
160.445
20
-105.944
11
160.589
21
-106.048
0
LINE
8
BLACK
6
CONTINUOUS
10
160.589
20
-106.048
11
160.708
21
-106.18
0
LINE
8
BLACK
6
CONTINUOUS
10
160.708
20
-106.18
11
160.797
21
-106.334
0
LINE
8
BLACK
6
CONTINUOUS
10
160.797
20
-106.334
11
160.851
21
-106.503
0
LINE
8
BLACK
6
CONTINUOUS
10
160.851
20
-106.503
11
160.87
21
-106.68
0
LINE
8
BLACK
6
CONTINUOUS
10
160.87
20
-106.68
11
160.851
21
-106.857
0
LINE
8
BLACK
6
CONTINUOUS
10
160.851
20
-106.857
11
160.797
21
-107.026
0
LINE
8
BLACK
6
CONTINUOUS
10
160.797
20
-107.026
11
160.708
21
-107.18
0
LINE
8
BLACK
6
CONTINUOUS
10
160.708
20
-107.18
11
160.589
21
-107.312
0
LINE
8
BLACK
6
CONTINUOUS
10
160.589
20
-107.312
11
160.445
21
-107.416
0
LINE
8
BLACK
6
CONTINUOUS
10
160.445
20
-107.416
11
160.283
21
-107.488
0
LINE
8
BLACK
6
CONTINUOUS
10
160.283
20
-107.488
11
160.109
21
-107.525
0
LINE
8
BLACK
6
CONTINUOUS
10
160.109
20
-107.525
11
159.931
21
-107.525
0
LINE
8
BLACK
6
CONTINUOUS
10
159.931
20
-107.525
11
159.757
21
-107.488
0
LINE
8
BLACK
6
CONTINUOUS
10
159.757
20
-107.488
11
159.595
21
-107.416
0
LINE
8
BLACK
6
CONTINUOUS
10
159.595
20
-107.416
11
159.451
21
-107.312
0
LINE
8
BLACK
6
CONTINUOUS
10
159.451
20
-107.312
11
159.332
21
-107.18
0
LINE
8
BLACK
6
CONTINUOUS
10
159.332
20
-107.18
11
159.243
21
-107.026
0
LINE
8
BLACK
6
CONTINUOUS
10
159.243
20
-107.026
11
159.189
21
-106.857
0
LINE
8
BLACK
6
CONTINUOUS
10
159.189
20
-106.857
11
159.17
21
-106.68
0
LINE
8
BLACK
6
CONTINUOUS
10
159.17
20
-106.68
11
159.189
21
-106.503
0
LINE
8
BLACK
6
CONTINUOUS
10
159.189
20
-106.503
11
159.243
21
-106.334
0
LINE
8
BLACK
6
CONTINUOUS
10
159.243
20
-106.334
11
159.332
21
-106.18
0
LINE
8
BLACK
6
CONTINUOUS
10
159.332
20
-106.18
11
159.451
21
-106.048
0
LINE
8
BLACK
6
CONTINUOUS
10
159.451
20
-106.048
11
159.595
21
-105.944
0
LINE
8
BLACK
6
CONTINUOUS
10
159.595
20
-105.944
11
159.757
21
-105.872
0
LINE
8
BLACK
6
CONTINUOUS
10
159.757
20
-105.872
11
159.931
21
-105.835
0
LINE
8
BLACK
6
CONTINUOUS
10
159.931
20
-105.835
11
160.109
21
-105.835
0
LINE
8
BLACK
6
CONTINUOUS
10
160.109
20
-105.835
11
160.283
21
-105.872
0
LINE
8
BLACK
6
CONTINUOUS
10
162.823
20
-105.872
11
162.985
21
-105.944
0
LINE
8
BLACK
6
CONTINUOUS
10
162.985
20
-105.944
11
163.129
21
-106.048
0
LINE
8
BLACK
6
CONTINUOUS
10
163.129
20
-106.048
11
163.248
21
-106.18
0
LINE
8
BLACK
6
CONTINUOUS
10
163.248
20
-106.18
11
163.337
21
-106.334
0
LINE
8
BLACK
6
CONTINUOUS
10
163.337
20
-106.334
11
163.391
21
-106.503
0
LINE
8
BLACK
6
CONTINUOUS
10
163.391
20
-106.503
11
163.41
21
-106.68
0
LINE
8
BLACK
6
CONTINUOUS
10
163.41
20
-106.68
11
163.391
21
-106.857
0
LINE
8
BLACK
6
CONTINUOUS
10
163.391
20
-106.857
11
163.337
21
-107.026
0
LINE
8
BLACK
6
CONTINUOUS
10
163.337
20
-107.026
11
163.248
21
-107.18
0
LINE
8
BLACK
6
CONTINUOUS
10
163.248
20
-107.18
11
163.129
21
-107.312
0
LINE
8
BLACK
6
CONTINUOUS
10
163.129
20
-107.312
11
162.985
21
-107.416
0
LINE
8
BLACK
6
CONTINUOUS
10
162.985
20
-107.416
11
162.823
21
-107.488
0
LINE
8
BLACK
6
CONTINUOUS
10
162.823
20
-107.488
11
162.649
21
-107.525
0
LINE
8
BLACK
6
CONTINUOUS
10
162.649
20
-107.525
11
162.471
21
-107.525
0
LINE
8
BLACK
6
CONTINUOUS
10
162.471
20
-107.525
11
162.297
21
-107.488
0
LINE
8
BLACK
6
CONTINUOUS
10
162.297
20
-107.488
11
162.135
21
-107.416
0
LINE
8
BLACK
6
CONTINUOUS
10
162.135
20
-107.416
11
161.991
21
-107.312
0
LINE
8
BLACK
6
CONTINUOUS
10
161.991
20
-107.312
11
161.872
21
-107.18
0
LINE
8
BLACK
6
CONTINUOUS
10
161.872
20
-107.18
11
161.783
21
-107.026
0
LINE
8
BLACK
6
CONTINUOUS
10
161.783
20
-107.026
11
161.729
21
-106.857
0
LINE
8
BLACK
6
CONTINUOUS
10
161.729
20
-106.857
11
161.71
21
-106.68
0
LINE
8
BLACK
6
CONTINUOUS
10
161.71
20
-106.68
11
161.729
21
-106.503
0
LINE
8
BLACK
6
CONTINUOUS
10
161.729
20
-106.503
11
161.783
21
-106.334
0
LINE
8
BLACK
6
CONTINUOUS
10
161.783
20
-106.334
11
161.872
21
-106.18
0
LINE
8
BLACK
6
CONTINUOUS
10
161.872
20
-106.18
11
161.991
21
-106.048
0
LINE
8
BLACK
6
CONTINUOUS
10
161.991
20
-106.048
11
162.135
21
-105.944
0
LINE
8
BLACK
6
CONTINUOUS
10
162.135
20
-105.944
11
162.297
21
-105.872
0
LINE
8
BLACK
6
CONTINUOUS
10
162.297
20
-105.872
11
162.471
21
-105.835
0
LINE
8
BLACK
6
CONTINUOUS
10
162.471
20
-105.835
11
162.649
21
-105.835
0
LINE
8
BLACK
6
CONTINUOUS
10
162.649
20
-105.835
11
162.823
21
-105.872
0
LINE
8
BLACK
6
CONTINUOUS
10
162.823
20
-103.332
11
162.985
21
-103.404
0
LINE
8
BLACK
6
CONTINUOUS
10
162.985
20
-103.404
11
163.129
21
-103.508
0
LINE
8
BLACK
6
CONTINUOUS
10
163.129
20
-103.508
11
163.248
21
-103.64
0
LINE
8
BLACK
6
CONTINUOUS
10
163.248
20
-103.64
11
163.337
21
-103.794
0
LINE
8
BLACK
6
CONTINUOUS
10
163.337
20
-103.794
11
163.391
21
-103.963
0
LINE
8
BLACK
6
CONTINUOUS
10
163.391
20
-103.963
11
163.41
21
-104.14
0
LINE
8
BLACK
6
CONTINUOUS
10
163.41
20
-104.14
11
163.391
21
-104.317
0
LINE
8
BLACK
6
CONTINUOUS
10
163.391
20
-104.317
11
163.337
21
-104.486
0
LINE
8
BLACK
6
CONTINUOUS
10
163.337
20
-104.486
11
163.248
21
-104.64
0
LINE
8
BLACK
6
CONTINUOUS
10
163.248
20
-104.64
11
163.129
21
-104.772
0
LINE
8
BLACK
6
CONTINUOUS
10
163.129
20
-104.772
11
162.985
21
-104.876
0
LINE
8
BLACK
6
CONTINUOUS
10
162.985
20
-104.876
11
162.823
21
-104.948
0
LINE
8
BLACK
6
CONTINUOUS
10
162.823
20
-104.948
11
162.649
21
-104.985
0
LINE
8
BLACK
6
CONTINUOUS
10
162.649
20
-104.985
11
162.471
21
-104.985
0
LINE
8
BLACK
6
CONTINUOUS
10
162.471
20
-104.985
11
162.297
21
-104.948
0
LINE
8
BLACK
6
CONTINUOUS
10
162.297
20
-104.948
11
162.135
21
-104.876
0
LINE
8
BLACK
6
CONTINUOUS
10
162.135
20
-104.876
11
161.991
21
-104.772
0
LINE
8
BLACK
6
CONTINUOUS
10
161.991
20
-104.772
11
161.872
21
-104.64
0
LINE
8
BLACK
6
CONTINUOUS
10
161.872
20
-104.64
11
161.783
21
-104.486
0
LINE
8
BLACK
6
CONTINUOUS
10
161.783
20
-104.486
11
161.729
21
-104.317
0
LINE
8
BLACK
6
CONTINUOUS
10
161.729
20
-104.317
11
161.71
21
-104.14
0
LINE
8
BLACK
6
CONTINUOUS
10
161.71
20
-104.14
11
161.729
21
-103.963
0
LINE
8
BLACK
6
CONTINUOUS
10
161.729
20
-103.963
11
161.783
21
-103.794
0
LINE
8
BLACK
6
CONTINUOUS
10
161.783
20
-103.794
11
161.872
21
-103.64
0
LINE
8
BLACK
6
CONTINUOUS
10
161.872
20
-103.64
11
161.991
21
-103.508
0
LINE
8
BLACK
6
CONTINUOUS
10
161.991
20
-103.508
11
162.135
21
-103.404
0
LINE
8
BLACK
6
CONTINUOUS
10
162.135
20
-103.404
11
162.297
21
-103.332
0
LINE
8
BLACK
6
CONTINUOUS
10
162.297
20
-103.332
11
162.471
21
-103.295
0
LINE
8
BLACK
6
CONTINUOUS
10
162.471
20
-103.295
11
162.649
21
-103.295
0
LINE
8
BLACK
6
CONTINUOUS
10
162.649
20
-103.295
11
162.823
21
-103.332
0
LINE
8
BLACK
6
CONTINUOUS
10
160.283
20
-103.332
11
160.445
21
-103.404
0
LINE
8
BLACK
6
CONTINUOUS
10
160.445
20
-103.404
11
160.589
21
-103.508
0
LINE
8
BLACK
6
CONTINUOUS
10
160.589
20
-103.508
11
160.708
21
-103.64
0
LINE
8
BLACK
6
CONTINUOUS
10
160.708
20
-103.64
11
160.797
21
-103.794
0
LINE
8
BLACK
6
CONTINUOUS
10
160.797
20
-103.794
11
160.851
21
-103.963
0
LINE
8
BLACK
6
CONTINUOUS
10
160.851
20
-103.963
11
160.87
21
-104.14
0
LINE
8
BLACK
6
CONTINUOUS
10
160.87
20
-104.14
11
160.851
21
-104.317
0
LINE
8
BLACK
6
CONTINUOUS
10
160.851
20
-104.317
11
160.797
21
-104.486
0
LINE
8
BLACK
6
CONTINUOUS
10
160.797
20
-104.486
11
160.708
21
-104.64
0
LINE
8
BLACK
6
CONTINUOUS
10
160.708
20
-104.64
11
160.589
21
-104.772
0
LINE
8
BLACK
6
CONTINUOUS
10
160.589
20
-104.772
11
160.445
21
-104.876
0
LINE
8
BLACK
6
CONTINUOUS
10
160.445
20
-104.876
11
160.283
21
-104.948
0
LINE
8
BLACK
6
CONTINUOUS
10
160.283
20
-104.948
11
160.109
21
-104.985
0
LINE
8
BLACK
6
CONTINUOUS
10
160.109
20
-104.985
11
159.931
21
-104.985
0
LINE
8
BLACK
6
CONTINUOUS
10
159.931
20
-104.985
11
159.757
21
-104.948
0
LINE
8
BLACK
6
CONTINUOUS
10
159.757
20
-104.948
11
159.595
21
-104.876
0
LINE
8
BLACK
6
CONTINUOUS
10
159.595
20
-104.876
11
159.451
21
-104.772
0
LINE
8
BLACK
6
CONTINUOUS
10
159.451
20
-104.772
11
159.332
21
-104.64
0
LINE
8
BLACK
6
CONTINUOUS
10
159.332
20
-104.64
11
159.243
21
-104.486
0
LINE
8
BLACK
6
CONTINUOUS
10
159.243
20
-104.486
11
159.189
21
-104.317
0
LINE
8
BLACK
6
CONTINUOUS
10
159.189
20
-104.317
11
159.17
21
-104.14
0
LINE
8
BLACK
6
CONTINUOUS
10
159.17
20
-104.14
11
159.189
21
-103.963
0
LINE
8
BLACK
6
CONTINUOUS
10
159.189
20
-103.963
11
159.243
21
-103.794
0
LINE
8
BLACK
6
CONTINUOUS
10
159.243
20
-103.794
11
159.332
21
-103.64
0
LINE
8
BLACK
6
CONTINUOUS
10
159.332
20
-103.64
11
159.451
21
-103.508
0
LINE
8
BLACK
6
CONTINUOUS
10
159.451
20
-103.508
11
159.595
21
-103.404
0
LINE
8
BLACK
6
CONTINUOUS
10
159.595
20
-103.404
11
159.757
21
-103.332
0
LINE
8
BLACK
6
CONTINUOUS
10
159.757
20
-103.332
11
159.931
21
-103.295
0
LINE
8
BLACK
6
CONTINUOUS
10
159.931
20
-103.295
11
160.109
21
-103.295
0
LINE
8
BLACK
6
CONTINUOUS
10
160.109
20
-103.295
11
160.283
21
-103.332
0
LINE
8
BLACK
6
CONTINUOUS
10
160.283
20
-100.792
11
160.445
21
-100.864
0
LINE
8
BLACK
6
CONTINUOUS
10
160.445
20
-100.864
11
160.589
21
-100.968
0
LINE
8
BLACK
6
CONTINUOUS
10
160.589
20
-100.968
11
160.708
21
-101.1
0
LINE
8
BLACK
6
CONTINUOUS
10
160.708
20
-101.1
11
160.797
21
-101.254
0
LINE
8
BLACK
6
CONTINUOUS
10
160.797
20
-101.254
11
160.851
21
-101.423
0
LINE
8
BLACK
6
CONTINUOUS
10
160.851
20
-101.423
11
160.87
21
-101.6
0
LINE
8
BLACK
6
CONTINUOUS
10
160.87
20
-101.6
11
160.851
21
-101.777
0
LINE
8
BLACK
6
CONTINUOUS
10
160.851
20
-101.777
11
160.797
21
-101.946
0
LINE
8
BLACK
6
CONTINUOUS
10
160.797
20
-101.946
11
160.708
21
-102.1
0
LINE
8
BLACK
6
CONTINUOUS
10
160.708
20
-102.1
11
160.589
21
-102.232
0
LINE
8
BLACK
6
CONTINUOUS
10
160.589
20
-102.232
11
160.445
21
-102.336
0
LINE
8
BLACK
6
CONTINUOUS
10
160.445
20
-102.336
11
160.283
21
-102.408
0
LINE
8
BLACK
6
CONTINUOUS
10
160.283
20
-102.408
11
160.109
21
-102.445
0
LINE
8
BLACK
6
CONTINUOUS
10
160.109
20
-102.445
11
159.931
21
-102.445
0
LINE
8
BLACK
6
CONTINUOUS
10
159.931
20
-102.445
11
159.757
21
-102.408
0
LINE
8
BLACK
6
CONTINUOUS
10
159.757
20
-102.408
11
159.595
21
-102.336
0
LINE
8
BLACK
6
CONTINUOUS
10
159.595
20
-102.336
11
159.451
21
-102.232
0
LINE
8
BLACK
6
CONTINUOUS
10
159.451
20
-102.232
11
159.332
21
-102.1
0
LINE
8
BLACK
6
CONTINUOUS
10
159.332
20
-102.1
11
159.243
21
-101.946
0
LINE
8
BLACK
6
CONTINUOUS
10
159.243
20
-101.946
11
159.189
21
-101.777
0
LINE
8
BLACK
6
CONTINUOUS
10
159.189
20
-101.777
11
159.17
21
-101.6
0
LINE
8
BLACK
6
CONTINUOUS
10
159.17
20
-101.6
11
159.189
21
-101.423
0
LINE
8
BLACK
6
CONTINUOUS
10
159.189
20
-101.423
11
159.243
21
-101.254
0
LINE
8
BLACK
6
CONTINUOUS
10
159.243
20
-101.254
11
159.332
21
-101.1
0
LINE
8
BLACK
6
CONTINUOUS
10
159.332
20
-101.1
11
159.451
21
-100.968
0
LINE
8
BLACK
6
CONTINUOUS
10
159.451
20
-100.968
11
159.595
21
-100.864
0
LINE
8
BLACK
6
CONTINUOUS
10
159.595
20
-100.864
11
159.757
21
-100.792
0
LINE
8
BLACK
6
CONTINUOUS
10
159.757
20
-100.792
11
159.931
21
-100.755
0
LINE
8
BLACK
6
CONTINUOUS
10
159.931
20
-100.755
11
160.109
21
-100.755
0
LINE
8
BLACK
6
CONTINUOUS
10
160.109
20
-100.755
11
160.283
21
-100.792
0
LINE
8
BLACK
6
CONTINUOUS
10
162.823
20
-100.792
11
162.985
21
-100.864
0
LINE
8
BLACK
6
CONTINUOUS
10
162.985
20
-100.864
11
163.129
21
-100.968
0
LINE
8
BLACK
6
CONTINUOUS
10
163.129
20
-100.968
11
163.248
21
-101.1
0
LINE
8
BLACK
6
CONTINUOUS
10
163.248
20
-101.1
11
163.337
21
-101.254
0
LINE
8
BLACK
6
CONTINUOUS
10
163.337
20
-101.254
11
163.391
21
-101.423
0
LINE
8
BLACK
6
CONTINUOUS
10
163.391
20
-101.423
11
163.41
21
-101.6
0
LINE
8
BLACK
6
CONTINUOUS
10
163.41
20
-101.6
11
163.391
21
-101.777
0
LINE
8
BLACK
6
CONTINUOUS
10
163.391
20
-101.777
11
163.337
21
-101.946
0
LINE
8
BLACK
6
CONTINUOUS
10
163.337
20
-101.946
11
163.248
21
-102.1
0
LINE
8
BLACK
6
CONTINUOUS
10
163.248
20
-102.1
11
163.129
21
-102.232
0
LINE
8
BLACK
6
CONTINUOUS
10
163.129
20
-102.232
11
162.985
21
-102.336
0
LINE
8
BLACK
6
CONTINUOUS
10
162.985
20
-102.336
11
162.823
21
-102.408
0
LINE
8
BLACK
6
CONTINUOUS
10
162.823
20
-102.408
11
162.649
21
-102.445
0
LINE
8
BLACK
6
CONTINUOUS
10
162.649
20
-102.445
11
162.471
21
-102.445
0
LINE
8
BLACK
6
CONTINUOUS
10
162.471
20
-102.445
11
162.297
21
-102.408
0
LINE
8
BLACK
6
CONTINUOUS
10
162.297
20
-102.408
11
162.135
21
-102.336
0
LINE
8
BLACK
6
CONTINUOUS
10
162.135
20
-102.336
11
161.991
21
-102.232
0
LINE
8
BLACK
6
CONTINUOUS
10
161.991
20
-102.232
11
161.872
21
-102.1
0
LINE
8
BLACK
6
CONTINUOUS
10
161.872
20
-102.1
11
161.783
21
-101.946
0
LINE
8
BLACK
6
CONTINUOUS
10
161.783
20
-101.946
11
161.729
21
-101.777
0
LINE
8
BLACK
6
CONTINUOUS
10
161.729
20
-101.777
11
161.71
21
-101.6
0
LINE
8
BLACK
6
CONTINUOUS
10
161.71
20
-101.6
11
161.729
21
-101.423
0
LINE
8
BLACK
6
CONTINUOUS
10
161.729
20
-101.423
11
161.783
21
-101.254
0
LINE
8
BLACK
6
CONTINUOUS
10
161.783
20
-101.254
11
161.872
21
-101.1
0
LINE
8
BLACK
6
CONTINUOUS
10
161.872
20
-101.1
11
161.991
21
-100.968
0
LINE
8
BLACK
6
CONTINUOUS
10
161.991
20
-100.968
11
162.135
21
-100.864
0
LINE
8
BLACK
6
CONTINUOUS
10
162.135
20
-100.864
11
162.297
21
-100.792
0
LINE
8
BLACK
6
CONTINUOUS
10
162.297
20
-100.792
11
162.471
21
-100.755
0
LINE
8
BLACK
6
CONTINUOUS
10
162.471
20
-100.755
11
162.649
21
-100.755
0
LINE
8
BLACK
6
CONTINUOUS
10
162.649
20
-100.755
11
162.823
21
-100.792
0
LINE
8
BLACK
6
CONTINUOUS
10
160.283
20
-98.2516
11
160.445
21
-98.3239
0
LINE
8
BLACK
6
CONTINUOUS
10
160.445
20
-98.3239
11
160.589
21
-98.4283
0
LINE
8
BLACK
6
CONTINUOUS
10
160.589
20
-98.4283
11
160.708
21
-98.5604
0
LINE
8
BLACK
6
CONTINUOUS
10
160.708
20
-98.5604
11
160.797
21
-98.7143
0
LINE
8
BLACK
6
CONTINUOUS
10
160.797
20
-98.7143
11
160.851
21
-98.8833
0
LINE
8
BLACK
6
CONTINUOUS
10
160.851
20
-98.8833
11
160.87
21
-99.06
0
LINE
8
BLACK
6
CONTINUOUS
10
160.87
20
-99.06
11
160.851
21
-99.2367
0
LINE
8
BLACK
6
CONTINUOUS
10
160.851
20
-99.2367
11
160.797
21
-99.4057
0
LINE
8
BLACK
6
CONTINUOUS
10
160.797
20
-99.4057
11
160.708
21
-99.5596
0
LINE
8
BLACK
6
CONTINUOUS
10
160.708
20
-99.5596
11
160.589
21
-99.6917
0
LINE
8
BLACK
6
CONTINUOUS
10
160.589
20
-99.6917
11
160.445
21
-99.7961
0
LINE
8
BLACK
6
CONTINUOUS
10
160.445
20
-99.7961
11
160.283
21
-99.8684
0
LINE
8
BLACK
6
CONTINUOUS
10
160.283
20
-99.8684
11
160.109
21
-99.9053
0
LINE
8
BLACK
6
CONTINUOUS
10
160.109
20
-99.9053
11
159.931
21
-99.9053
0
LINE
8
BLACK
6
CONTINUOUS
10
159.931
20
-99.9053
11
159.757
21
-99.8684
0
LINE
8
BLACK
6
CONTINUOUS
10
159.757
20
-99.8684
11
159.595
21
-99.7961
0
LINE
8
BLACK
6
CONTINUOUS
10
159.595
20
-99.7961
11
159.451
21
-99.6917
0
LINE
8
BLACK
6
CONTINUOUS
10
159.451
20
-99.6917
11
159.332
21
-99.5596
0
LINE
8
BLACK
6
CONTINUOUS
10
159.332
20
-99.5596
11
159.243
21
-99.4057
0
LINE
8
BLACK
6
CONTINUOUS
10
159.243
20
-99.4057
11
159.189
21
-99.2367
0
LINE
8
BLACK
6
CONTINUOUS
10
159.189
20
-99.2367
11
159.17
21
-99.06
0
LINE
8
BLACK
6
CONTINUOUS
10
159.17
20
-99.06
11
159.189
21
-98.8833
0
LINE
8
BLACK
6
CONTINUOUS
10
159.189
20
-98.8833
11
159.243
21
-98.7143
0
LINE
8
BLACK
6
CONTINUOUS
10
159.243
20
-98.7143
11
159.332
21
-98.5604
0
LINE
8
BLACK
6
CONTINUOUS
10
159.332
20
-98.5604
11
159.451
21
-98.4283
0
LINE
8
BLACK
6
CONTINUOUS
10
159.451
20
-98.4283
11
159.595
21
-98.3239
0
LINE
8
BLACK
6
CONTINUOUS
10
159.595
20
-98.3239
11
159.757
21
-98.2516
0
LINE
8
BLACK
6
CONTINUOUS
10
159.757
20
-98.2516
11
159.931
21
-98.2147
0
LINE
8
BLACK
6
CONTINUOUS
10
159.931
20
-98.2147
11
160.109
21
-98.2147
0
LINE
8
BLACK
6
CONTINUOUS
10
160.109
20
-98.2147
11
160.283
21
-98.2516
0
LINE
8
BLACK
6
CONTINUOUS
10
162.823
20
-98.2516
11
162.985
21
-98.3239
0
LINE
8
BLACK
6
CONTINUOUS
10
162.985
20
-98.3239
11
163.129
21
-98.4283
0
LINE
8
BLACK
6
CONTINUOUS
10
163.129
20
-98.4283
11
163.248
21
-98.5604
0
LINE
8
BLACK
6
CONTINUOUS
10
163.248
20
-98.5604
11
163.337
21
-98.7143
0
LINE
8
BLACK
6
CONTINUOUS
10
163.337
20
-98.7143
11
163.391
21
-98.8833
0
LINE
8
BLACK
6
CONTINUOUS
10
163.391
20
-98.8833
11
163.41
21
-99.06
0
LINE
8
BLACK
6
CONTINUOUS
10
163.41
20
-99.06
11
163.391
21
-99.2367
0
LINE
8
BLACK
6
CONTINUOUS
10
163.391
20
-99.2367
11
163.337
21
-99.4057
0
LINE
8
BLACK
6
CONTINUOUS
10
163.337
20
-99.4057
11
163.248
21
-99.5596
0
LINE
8
BLACK
6
CONTINUOUS
10
163.248
20
-99.5596
11
163.129
21
-99.6917
0
LINE
8
BLACK
6
CONTINUOUS
10
163.129
20
-99.6917
11
162.985
21
-99.7961
0
LINE
8
BLACK
6
CONTINUOUS
10
162.985
20
-99.7961
11
162.823
21
-99.8684
0
LINE
8
BLACK
6
CONTINUOUS
10
162.823
20
-99.8684
11
162.649
21
-99.9053
0
LINE
8
BLACK
6
CONTINUOUS
10
162.649
20
-99.9053
11
162.471
21
-99.9053
0
LINE
8
BLACK
6
CONTINUOUS
10
162.471
20
-99.9053
11
162.297
21
-99.8684
0
LINE
8
BLACK
6
CONTINUOUS
10
162.297
20
-99.8684
11
162.135
21
-99.7961
0
LINE
8
BLACK
6
CONTINUOUS
10
162.135
20
-99.7961
11
161.991
21
-99.6917
0
LINE
8
BLACK
6
CONTINUOUS
10
161.991
20
-99.6917
11
161.872
21
-99.5596
0
LINE
8
BLACK
6
CONTINUOUS
10
161.872
20
-99.5596
11
161.783
21
-99.4057
0
LINE
8
BLACK
6
CONTINUOUS
10
161.783
20
-99.4057
11
161.729
21
-99.2367
0
LINE
8
BLACK
6
CONTINUOUS
10
161.729
20
-99.2367
11
161.71
21
-99.06
0
LINE
8
BLACK
6
CONTINUOUS
10
161.71
20
-99.06
11
161.729
21
-98.8833
0
LINE
8
BLACK
6
CONTINUOUS
10
161.729
20
-98.8833
11
161.783
21
-98.7143
0
LINE
8
BLACK
6
CONTINUOUS
10
161.783
20
-98.7143
11
161.872
21
-98.5604
0
LINE
8
BLACK
6
CONTINUOUS
10
161.872
20
-98.5604
11
161.991
21
-98.4283
0
LINE
8
BLACK
6
CONTINUOUS
10
161.991
20
-98.4283
11
162.135
21
-98.3239
0
LINE
8
BLACK
6
CONTINUOUS
10
162.135
20
-98.3239
11
162.297
21
-98.2516
0
LINE
8
BLACK
6
CONTINUOUS
10
162.297
20
-98.2516
11
162.471
21
-98.2147
0
LINE
8
BLACK
6
CONTINUOUS
10
162.471
20
-98.2147
11
162.649
21
-98.2147
0
LINE
8
BLACK
6
CONTINUOUS
10
162.649
20
-98.2147
11
162.823
21
-98.2516
0
LINE
8
BLACK
6
CONTINUOUS
10
160.283
20
-95.7116
11
160.445
21
-95.7839
0
LINE
8
BLACK
6
CONTINUOUS
10
160.445
20
-95.7839
11
160.589
21
-95.8883
0
LINE
8
BLACK
6
CONTINUOUS
10
160.589
20
-95.8883
11
160.708
21
-96.0204
0
LINE
8
BLACK
6
CONTINUOUS
10
160.708
20
-96.0204
11
160.797
21
-96.1743
0
LINE
8
BLACK
6
CONTINUOUS
10
160.797
20
-96.1743
11
160.851
21
-96.3433
0
LINE
8
BLACK
6
CONTINUOUS
10
160.851
20
-96.3433
11
160.87
21
-96.52
0
LINE
8
BLACK
6
CONTINUOUS
10
160.87
20
-96.52
11
160.851
21
-96.6967
0
LINE
8
BLACK
6
CONTINUOUS
10
160.851
20
-96.6967
11
160.797
21
-96.8657
0
LINE
8
BLACK
6
CONTINUOUS
10
160.797
20
-96.8657
11
160.708
21
-97.0196
0
LINE
8
BLACK
6
CONTINUOUS
10
160.708
20
-97.0196
11
160.589
21
-97.1517
0
LINE
8
BLACK
6
CONTINUOUS
10
160.589
20
-97.1517
11
160.445
21
-97.2561
0
LINE
8
BLACK
6
CONTINUOUS
10
160.445
20
-97.2561
11
160.283
21
-97.3284
0
LINE
8
BLACK
6
CONTINUOUS
10
160.283
20
-97.3284
11
160.109
21
-97.3653
0
LINE
8
BLACK
6
CONTINUOUS
10
160.109
20
-97.3653
11
159.931
21
-97.3653
0
LINE
8
BLACK
6
CONTINUOUS
10
159.931
20
-97.3653
11
159.757
21
-97.3284
0
LINE
8
BLACK
6
CONTINUOUS
10
159.757
20
-97.3284
11
159.595
21
-97.2561
0
LINE
8
BLACK
6
CONTINUOUS
10
159.595
20
-97.2561
11
159.451
21
-97.1517
0
LINE
8
BLACK
6
CONTINUOUS
10
159.451
20
-97.1517
11
159.332
21
-97.0196
0
LINE
8
BLACK
6
CONTINUOUS
10
159.332
20
-97.0196
11
159.243
21
-96.8657
0
LINE
8
BLACK
6
CONTINUOUS
10
159.243
20
-96.8657
11
159.189
21
-96.6967
0
LINE
8
BLACK
6
CONTINUOUS
10
159.189
20
-96.6967
11
159.17
21
-96.52
0
LINE
8
BLACK
6
CONTINUOUS
10
159.17
20
-96.52
11
159.189
21
-96.3433
0
LINE
8
BLACK
6
CONTINUOUS
10
159.189
20
-96.3433
11
159.243
21
-96.1743
0
LINE
8
BLACK
6
CONTINUOUS
10
159.243
20
-96.1743
11
159.332
21
-96.0204
0
LINE
8
BLACK
6
CONTINUOUS
10
159.332
20
-96.0204
11
159.451
21
-95.8883
0
LINE
8
BLACK
6
CONTINUOUS
10
159.451
20
-95.8883
11
159.595
21
-95.7839
0
LINE
8
BLACK
6
CONTINUOUS
10
159.595
20
-95.7839
11
159.757
21
-95.7116
0
LINE
8
BLACK
6
CONTINUOUS
10
159.757
20
-95.7116
11
159.931
21
-95.6747
0
LINE
8
BLACK
6
CONTINUOUS
10
159.931
20
-95.6747
11
160.109
21
-95.6747
0
LINE
8
BLACK
6
CONTINUOUS
10
160.109
20
-95.6747
11
160.283
21
-95.7116
0
LINE
8
BLACK
6
CONTINUOUS
10
162.823
20
-95.7116
11
162.985
21
-95.7839
0
LINE
8
BLACK
6
CONTINUOUS
10
162.985
20
-95.7839
11
163.129
21
-95.8883
0
LINE
8
BLACK
6
CONTINUOUS
10
163.129
20
-95.8883
11
163.248
21
-96.0204
0
LINE
8
BLACK
6
CONTINUOUS
10
163.248
20
-96.0204
11
163.337
21
-96.1743
0
LINE
8
BLACK
6
CONTINUOUS
10
163.337
20
-96.1743
11
163.391
21
-96.3433
0
LINE
8
BLACK
6
CONTINUOUS
10
163.391
20
-96.3433
11
163.41
21
-96.52
0
LINE
8
BLACK
6
CONTINUOUS
10
163.41
20
-96.52
11
163.391
21
-96.6967
0
LINE
8
BLACK
6
CONTINUOUS
10
163.391
20
-96.6967
11
163.337
21
-96.8657
0
LINE
8
BLACK
6
CONTINUOUS
10
163.337
20
-96.8657
11
163.248
21
-97.0196
0
LINE
8
BLACK
6
CONTINUOUS
10
163.248
20
-97.0196
11
163.129
21
-97.1517
0
LINE
8
BLACK
6
CONTINUOUS
10
163.129
20
-97.1517
11
162.985
21
-97.2561
0
LINE
8
BLACK
6
CONTINUOUS
10
162.985
20
-97.2561
11
162.823
21
-97.3284
0
LINE
8
BLACK
6
CONTINUOUS
10
162.823
20
-97.3284
11
162.649
21
-97.3653
0
LINE
8
BLACK
6
CONTINUOUS
10
162.649
20
-97.3653
11
162.471
21
-97.3653
0
LINE
8
BLACK
6
CONTINUOUS
10
162.471
20
-97.3653
11
162.297
21
-97.3284
0
LINE
8
BLACK
6
CONTINUOUS
10
162.297
20
-97.3284
11
162.135
21
-97.2561
0
LINE
8
BLACK
6
CONTINUOUS
10
162.135
20
-97.2561
11
161.991
21
-97.1517
0
LINE
8
BLACK
6
CONTINUOUS
10
161.991
20
-97.1517
11
161.872
21
-97.0196
0
LINE
8
BLACK
6
CONTINUOUS
10
161.872
20
-97.0196
11
161.783
21
-96.8657
0
LINE
8
BLACK
6
CONTINUOUS
10
161.783
20
-96.8657
11
161.729
21
-96.6967
0
LINE
8
BLACK
6
CONTINUOUS
10
161.729
20
-96.6967
11
161.71
21
-96.52
0
LINE
8
BLACK
6
CONTINUOUS
10
161.71
20
-96.52
11
161.729
21
-96.3433
0
LINE
8
BLACK
6
CONTINUOUS
10
161.729
20
-96.3433
11
161.783
21
-96.1743
0
LINE
8
BLACK
6
CONTINUOUS
10
161.783
20
-96.1743
11
161.872
21
-96.0204
0
LINE
8
BLACK
6
CONTINUOUS
10
161.872
20
-96.0204
11
161.991
21
-95.8883
0
LINE
8
BLACK
6
CONTINUOUS
10
161.991
20
-95.8883
11
162.135
21
-95.7839
0
LINE
8
BLACK
6
CONTINUOUS
10
162.135
20
-95.7839
11
162.297
21
-95.7116
0
LINE
8
BLACK
6
CONTINUOUS
10
162.297
20
-95.7116
11
162.471
21
-95.6747
0
LINE
8
BLACK
6
CONTINUOUS
10
162.471
20
-95.6747
11
162.649
21
-95.6747
0
LINE
8
BLACK
6
CONTINUOUS
10
162.649
20
-95.6747
11
162.823
21
-95.7116
0
LINE
8
BLACK
6
CONTINUOUS
10
125.993
20
-94.4416
11
126.155
21
-94.5139
0
LINE
8
BLACK
6
CONTINUOUS
10
126.155
20
-94.5139
11
126.299
21
-94.6183
0
LINE
8
BLACK
6
CONTINUOUS
10
126.299
20
-94.6183
11
126.418
21
-94.7504
0
LINE
8
BLACK
6
CONTINUOUS
10
126.418
20
-94.7504
11
126.507
21
-94.9043
0
LINE
8
BLACK
6
CONTINUOUS
10
126.507
20
-94.9043
11
126.561
21
-95.0733
0
LINE
8
BLACK
6
CONTINUOUS
10
126.561
20
-95.0733
11
126.58
21
-95.25
0
LINE
8
BLACK
6
CONTINUOUS
10
126.58
20
-95.25
11
126.561
21
-95.4267
0
LINE
8
BLACK
6
CONTINUOUS
10
126.561
20
-95.4267
11
126.507
21
-95.5957
0
LINE
8
BLACK
6
CONTINUOUS
10
126.507
20
-95.5957
11
126.418
21
-95.7496
0
LINE
8
BLACK
6
CONTINUOUS
10
126.418
20
-95.7496
11
126.299
21
-95.8817
0
LINE
8
BLACK
6
CONTINUOUS
10
126.299
20
-95.8817
11
126.155
21
-95.9861
0
LINE
8
BLACK
6
CONTINUOUS
10
126.155
20
-95.9861
11
125.993
21
-96.0584
0
LINE
8
BLACK
6
CONTINUOUS
10
125.993
20
-96.0584
11
125.819
21
-96.0953
0
LINE
8
BLACK
6
CONTINUOUS
10
125.819
20
-96.0953
11
125.641
21
-96.0953
0
LINE
8
BLACK
6
CONTINUOUS
10
125.641
20
-96.0953
11
125.467
21
-96.0584
0
LINE
8
BLACK
6
CONTINUOUS
10
125.467
20
-96.0584
11
125.305
21
-95.9861
0
LINE
8
BLACK
6
CONTINUOUS
10
125.305
20
-95.9861
11
125.161
21
-95.8817
0
LINE
8
BLACK
6
CONTINUOUS
10
125.161
20
-95.8817
11
125.042
21
-95.7496
0
LINE
8
BLACK
6
CONTINUOUS
10
125.042
20
-95.7496
11
124.953
21
-95.5957
0
LINE
8
BLACK
6
CONTINUOUS
10
124.953
20
-95.5957
11
124.899
21
-95.4267
0
LINE
8
BLACK
6
CONTINUOUS
10
124.899
20
-95.4267
11
124.88
21
-95.25
0
LINE
8
BLACK
6
CONTINUOUS
10
124.88
20
-95.25
11
124.899
21
-95.0733
0
LINE
8
BLACK
6
CONTINUOUS
10
124.899
20
-95.0733
11
124.953
21
-94.9043
0
LINE
8
BLACK
6
CONTINUOUS
10
124.953
20
-94.9043
11
125.042
21
-94.7504
0
LINE
8
BLACK
6
CONTINUOUS
10
125.042
20
-94.7504
11
125.161
21
-94.6183
0
LINE
8
BLACK
6
CONTINUOUS
10
125.161
20
-94.6183
11
125.305
21
-94.5139
0
LINE
8
BLACK
6
CONTINUOUS
10
125.305
20
-94.5139
11
125.467
21
-94.4416
0
LINE
8
BLACK
6
CONTINUOUS
10
125.467
20
-94.4416
11
125.641
21
-94.4047
0
LINE
8
BLACK
6
CONTINUOUS
10
125.641
20
-94.4047
11
125.819
21
-94.4047
0
LINE
8
BLACK
6
CONTINUOUS
10
125.819
20
-94.4047
11
125.993
21
-94.4416
0
LINE
8
BLACK
6
CONTINUOUS
10
162.823
20
-93.1716
11
162.985
21
-93.2439
0
LINE
8
BLACK
6
CONTINUOUS
10
162.985
20
-93.2439
11
163.129
21
-93.3483
0
LINE
8
BLACK
6
CONTINUOUS
10
163.129
20
-93.3483
11
163.248
21
-93.4804
0
LINE
8
BLACK
6
CONTINUOUS
10
163.248
20
-93.4804
11
163.337
21
-93.6343
0
LINE
8
BLACK
6
CONTINUOUS
10
163.337
20
-93.6343
11
163.391
21
-93.8033
0
LINE
8
BLACK
6
CONTINUOUS
10
163.391
20
-93.8033
11
163.41
21
-93.98
0
LINE
8
BLACK
6
CONTINUOUS
10
163.41
20
-93.98
11
163.391
21
-94.1567
0
LINE
8
BLACK
6
CONTINUOUS
10
163.391
20
-94.1567
11
163.337
21
-94.3257
0
LINE
8
BLACK
6
CONTINUOUS
10
163.337
20
-94.3257
11
163.248
21
-94.4796
0
LINE
8
BLACK
6
CONTINUOUS
10
163.248
20
-94.4796
11
163.129
21
-94.6117
0
LINE
8
BLACK
6
CONTINUOUS
10
163.129
20
-94.6117
11
162.985
21
-94.7161
0
LINE
8
BLACK
6
CONTINUOUS
10
162.985
20
-94.7161
11
162.823
21
-94.7884
0
LINE
8
BLACK
6
CONTINUOUS
10
162.823
20
-94.7884
11
162.649
21
-94.8253
0
LINE
8
BLACK
6
CONTINUOUS
10
162.649
20
-94.8253
11
162.471
21
-94.8253
0
LINE
8
BLACK
6
CONTINUOUS
10
162.471
20
-94.8253
11
162.297
21
-94.7884
0
LINE
8
BLACK
6
CONTINUOUS
10
162.297
20
-94.7884
11
162.135
21
-94.7161
0
LINE
8
BLACK
6
CONTINUOUS
10
162.135
20
-94.7161
11
161.991
21
-94.6117
0
LINE
8
BLACK
6
CONTINUOUS
10
161.991
20
-94.6117
11
161.872
21
-94.4796
0
LINE
8
BLACK
6
CONTINUOUS
10
161.872
20
-94.4796
11
161.783
21
-94.3257
0
LINE
8
BLACK
6
CONTINUOUS
10
161.783
20
-94.3257
11
161.729
21
-94.1567
0
LINE
8
BLACK
6
CONTINUOUS
10
161.729
20
-94.1567
11
161.71
21
-93.98
0
LINE
8
BLACK
6
CONTINUOUS
10
161.71
20
-93.98
11
161.729
21
-93.8033
0
LINE
8
BLACK
6
CONTINUOUS
10
161.729
20
-93.8033
11
161.783
21
-93.6343
0
LINE
8
BLACK
6
CONTINUOUS
10
161.783
20
-93.6343
11
161.872
21
-93.4804
0
LINE
8
BLACK
6
CONTINUOUS
10
161.872
20
-93.4804
11
161.991
21
-93.3483
0
LINE
8
BLACK
6
CONTINUOUS
10
161.991
20
-93.3483
11
162.135
21
-93.2439
0
LINE
8
BLACK
6
CONTINUOUS
10
162.135
20
-93.2439
11
162.297
21
-93.1716
0
LINE
8
BLACK
6
CONTINUOUS
10
162.297
20
-93.1716
11
162.471
21
-93.1347
0
LINE
8
BLACK
6
CONTINUOUS
10
162.471
20
-93.1347
11
162.649
21
-93.1347
0
LINE
8
BLACK
6
CONTINUOUS
10
162.649
20
-93.1347
11
162.823
21
-93.1716
0
LINE
8
BLACK
6
CONTINUOUS
10
160.283
20
-93.1716
11
160.445
21
-93.2439
0
LINE
8
BLACK
6
CONTINUOUS
10
160.445
20
-93.2439
11
160.589
21
-93.3483
0
LINE
8
BLACK
6
CONTINUOUS
10
160.589
20
-93.3483
11
160.708
21
-93.4804
0
LINE
8
BLACK
6
CONTINUOUS
10
160.708
20
-93.4804
11
160.797
21
-93.6343
0
LINE
8
BLACK
6
CONTINUOUS
10
160.797
20
-93.6343
11
160.851
21
-93.8033
0
LINE
8
BLACK
6
CONTINUOUS
10
160.851
20
-93.8033
11
160.87
21
-93.98
0
LINE
8
BLACK
6
CONTINUOUS
10
160.87
20
-93.98
11
160.851
21
-94.1567
0
LINE
8
BLACK
6
CONTINUOUS
10
160.851
20
-94.1567
11
160.797
21
-94.3257
0
LINE
8
BLACK
6
CONTINUOUS
10
160.797
20
-94.3257
11
160.708
21
-94.4796
0
LINE
8
BLACK
6
CONTINUOUS
10
160.708
20
-94.4796
11
160.589
21
-94.6117
0
LINE
8
BLACK
6
CONTINUOUS
10
160.589
20
-94.6117
11
160.445
21
-94.7161
0
LINE
8
BLACK
6
CONTINUOUS
10
160.445
20
-94.7161
11
160.283
21
-94.7884
0
LINE
8
BLACK
6
CONTINUOUS
10
160.283
20
-94.7884
11
160.109
21
-94.8253
0
LINE
8
BLACK
6
CONTINUOUS
10
160.109
20
-94.8253
11
159.931
21
-94.8253
0
LINE
8
BLACK
6
CONTINUOUS
10
159.931
20
-94.8253
11
159.757
21
-94.7884
0
LINE
8
BLACK
6
CONTINUOUS
10
159.757
20
-94.7884
11
159.595
21
-94.7161
0
LINE
8
BLACK
6
CONTINUOUS
10
159.595
20
-94.7161
11
159.451
21
-94.6117
0
LINE
8
BLACK
6
CONTINUOUS
10
159.451
20
-94.6117
11
159.332
21
-94.4796
0
LINE
8
BLACK
6
CONTINUOUS
10
159.332
20
-94.4796
11
159.243
21
-94.3257
0
LINE
8
BLACK
6
CONTINUOUS
10
159.243
20
-94.3257
11
159.189
21
-94.1567
0
LINE
8
BLACK
6
CONTINUOUS
10
159.189
20
-94.1567
11
159.17
21
-93.98
0
LINE
8
BLACK
6
CONTINUOUS
10
159.17
20
-93.98
11
159.189
21
-93.8033
0
LINE
8
BLACK
6
CONTINUOUS
10
159.189
20
-93.8033
11
159.243
21
-93.6343
0
LINE
8
BLACK
6
CONTINUOUS
10
159.243
20
-93.6343
11
159.332
21
-93.4804
0
LINE
8
BLACK
6
CONTINUOUS
10
159.332
20
-93.4804
11
159.451
21
-93.3483
0
LINE
8
BLACK
6
CONTINUOUS
10
159.451
20
-93.3483
11
159.595
21
-93.2439
0
LINE
8
BLACK
6
CONTINUOUS
10
159.595
20
-93.2439
11
159.757
21
-93.1716
0
LINE
8
BLACK
6
CONTINUOUS
10
159.757
20
-93.1716
11
159.931
21
-93.1347
0
LINE
8
BLACK
6
CONTINUOUS
10
159.931
20
-93.1347
11
160.109
21
-93.1347
0
LINE
8
BLACK
6
CONTINUOUS
10
160.109
20
-93.1347
11
160.283
21
-93.1716
0
LINE
8
BLACK
6
CONTINUOUS
10
125.993
20
-91.9016
11
126.155
21
-91.9739
0
LINE
8
BLACK
6
CONTINUOUS
10
126.155
20
-91.9739
11
126.299
21
-92.0783
0
LINE
8
BLACK
6
CONTINUOUS
10
126.299
20
-92.0783
11
126.418
21
-92.2104
0
LINE
8
BLACK
6
CONTINUOUS
10
126.418
20
-92.2104
11
126.507
21
-92.3643
0
LINE
8
BLACK
6
CONTINUOUS
10
126.507
20
-92.3643
11
126.561
21
-92.5333
0
LINE
8
BLACK
6
CONTINUOUS
10
126.561
20
-92.5333
11
126.58
21
-92.71
0
LINE
8
BLACK
6
CONTINUOUS
10
126.58
20
-92.71
11
126.561
21
-92.8867
0
LINE
8
BLACK
6
CONTINUOUS
10
126.561
20
-92.8867
11
126.507
21
-93.0557
0
LINE
8
BLACK
6
CONTINUOUS
10
126.507
20
-93.0557
11
126.418
21
-93.2096
0
LINE
8
BLACK
6
CONTINUOUS
10
126.418
20
-93.2096
11
126.299
21
-93.3417
0
LINE
8
BLACK
6
CONTINUOUS
10
126.299
20
-93.3417
11
126.155
21
-93.4461
0
LINE
8
BLACK
6
CONTINUOUS
10
126.155
20
-93.4461
11
125.993
21
-93.5184
0
LINE
8
BLACK
6
CONTINUOUS
10
125.993
20
-93.5184
11
125.819
21
-93.5553
0
LINE
8
BLACK
6
CONTINUOUS
10
125.819
20
-93.5553
11
125.641
21
-93.5553
0
LINE
8
BLACK
6
CONTINUOUS
10
125.641
20
-93.5553
11
125.467
21
-93.5184
0
LINE
8
BLACK
6
CONTINUOUS
10
125.467
20
-93.5184
11
125.305
21
-93.4461
0
LINE
8
BLACK
6
CONTINUOUS
10
125.305
20
-93.4461
11
125.161
21
-93.3417
0
LINE
8
BLACK
6
CONTINUOUS
10
125.161
20
-93.3417
11
125.042
21
-93.2096
0
LINE
8
BLACK
6
CONTINUOUS
10
125.042
20
-93.2096
11
124.953
21
-93.0557
0
LINE
8
BLACK
6
CONTINUOUS
10
124.953
20
-93.0557
11
124.899
21
-92.8867
0
LINE
8
BLACK
6
CONTINUOUS
10
124.899
20
-92.8867
11
124.88
21
-92.71
0
LINE
8
BLACK
6
CONTINUOUS
10
124.88
20
-92.71
11
124.899
21
-92.5333
0
LINE
8
BLACK
6
CONTINUOUS
10
124.899
20
-92.5333
11
124.953
21
-92.3643
0
LINE
8
BLACK
6
CONTINUOUS
10
124.953
20
-92.3643
11
125.042
21
-92.2104
0
LINE
8
BLACK
6
CONTINUOUS
10
125.042
20
-92.2104
11
125.161
21
-92.0783
0
LINE
8
BLACK
6
CONTINUOUS
10
125.161
20
-92.0783
11
125.305
21
-91.9739
0
LINE
8
BLACK
6
CONTINUOUS
10
125.305
20
-91.9739
11
125.467
21
-91.9016
0
LINE
8
BLACK
6
CONTINUOUS
10
125.467
20
-91.9016
11
125.641
21
-91.8647
0
LINE
8
BLACK
6
CONTINUOUS
10
125.641
20
-91.8647
11
125.819
21
-91.8647
0
LINE
8
BLACK
6
CONTINUOUS
10
125.819
20
-91.8647
11
125.993
21
-91.9016
0
LINE
8
BLACK
6
CONTINUOUS
10
162.823
20
-90.6316
11
162.985
21
-90.7039
0
LINE
8
BLACK
6
CONTINUOUS
10
162.985
20
-90.7039
11
163.129
21
-90.8083
0
LINE
8
BLACK
6
CONTINUOUS
10
163.129
20
-90.8083
11
163.248
21
-90.9404
0
LINE
8
BLACK
6
CONTINUOUS
10
163.248
20
-90.9404
11
163.337
21
-91.0943
0
LINE
8
BLACK
6
CONTINUOUS
10
163.337
20
-91.0943
11
163.391
21
-91.2633
0
LINE
8
BLACK
6
CONTINUOUS
10
163.391
20
-91.2633
11
163.41
21
-91.44
0
LINE
8
BLACK
6
CONTINUOUS
10
163.41
20
-91.44
11
163.391
21
-91.6167
0
LINE
8
BLACK
6
CONTINUOUS
10
163.391
20
-91.6167
11
163.337
21
-91.7857
0
LINE
8
BLACK
6
CONTINUOUS
10
163.337
20
-91.7857
11
163.248
21
-91.9396
0
LINE
8
BLACK
6
CONTINUOUS
10
163.248
20
-91.9396
11
163.129
21
-92.0717
0
LINE
8
BLACK
6
CONTINUOUS
10
163.129
20
-92.0717
11
162.985
21
-92.1761
0
LINE
8
BLACK
6
CONTINUOUS
10
162.985
20
-92.1761
11
162.823
21
-92.2484
0
LINE
8
BLACK
6
CONTINUOUS
10
162.823
20
-92.2484
11
162.649
21
-92.2853
0
LINE
8
BLACK
6
CONTINUOUS
10
162.649
20
-92.2853
11
162.471
21
-92.2853
0
LINE
8
BLACK
6
CONTINUOUS
10
162.471
20
-92.2853
11
162.297
21
-92.2484
0
LINE
8
BLACK
6
CONTINUOUS
10
162.297
20
-92.2484
11
162.135
21
-92.1761
0
LINE
8
BLACK
6
CONTINUOUS
10
162.135
20
-92.1761
11
161.991
21
-92.0717
0
LINE
8
BLACK
6
CONTINUOUS
10
161.991
20
-92.0717
11
161.872
21
-91.9396
0
LINE
8
BLACK
6
CONTINUOUS
10
161.872
20
-91.9396
11
161.783
21
-91.7857
0
LINE
8
BLACK
6
CONTINUOUS
10
161.783
20
-91.7857
11
161.729
21
-91.6167
0
LINE
8
BLACK
6
CONTINUOUS
10
161.729
20
-91.6167
11
161.71
21
-91.44
0
LINE
8
BLACK
6
CONTINUOUS
10
161.71
20
-91.44
11
161.729
21
-91.2633
0
LINE
8
BLACK
6
CONTINUOUS
10
161.729
20
-91.2633
11
161.783
21
-91.0943
0
LINE
8
BLACK
6
CONTINUOUS
10
161.783
20
-91.0943
11
161.872
21
-90.9404
0
LINE
8
BLACK
6
CONTINUOUS
10
161.872
20
-90.9404
11
161.991
21
-90.8083
0
LINE
8
BLACK
6
CONTINUOUS
10
161.991
20
-90.8083
11
162.135
21
-90.7039
0
LINE
8
BLACK
6
CONTINUOUS
10
162.135
20
-90.7039
11
162.297
21
-90.6316
0
LINE
8
BLACK
6
CONTINUOUS
10
162.297
20
-90.6316
11
162.471
21
-90.5947
0
LINE
8
BLACK
6
CONTINUOUS
10
162.471
20
-90.5947
11
162.649
21
-90.5947
0
LINE
8
BLACK
6
CONTINUOUS
10
162.649
20
-90.5947
11
162.823
21
-90.6316
0
LINE
8
BLACK
6
CONTINUOUS
10
160.283
20
-90.6316
11
160.445
21
-90.7039
0
LINE
8
BLACK
6
CONTINUOUS
10
160.445
20
-90.7039
11
160.589
21
-90.8083
0
LINE
8
BLACK
6
CONTINUOUS
10
160.589
20
-90.8083
11
160.708
21
-90.9404
0
LINE
8
BLACK
6
CONTINUOUS
10
160.708
20
-90.9404
11
160.797
21
-91.0943
0
LINE
8
BLACK
6
CONTINUOUS
10
160.797
20
-91.0943
11
160.851
21
-91.2633
0
LINE
8
BLACK
6
CONTINUOUS
10
160.851
20
-91.2633
11
160.87
21
-91.44
0
LINE
8
BLACK
6
CONTINUOUS
10
160.87
20
-91.44
11
160.851
21
-91.6167
0
LINE
8
BLACK
6
CONTINUOUS
10
160.851
20
-91.6167
11
160.797
21
-91.7857
0
LINE
8
BLACK
6
CONTINUOUS
10
160.797
20
-91.7857
11
160.708
21
-91.9396
0
LINE
8
BLACK
6
CONTINUOUS
10
160.708
20
-91.9396
11
160.589
21
-92.0717
0
LINE
8
BLACK
6
CONTINUOUS
10
160.589
20
-92.0717
11
160.445
21
-92.1761
0
LINE
8
BLACK
6
CONTINUOUS
10
160.445
20
-92.1761
11
160.283
21
-92.2484
0
LINE
8
BLACK
6
CONTINUOUS
10
160.283
20
-92.2484
11
160.109
21
-92.2853
0
LINE
8
BLACK
6
CONTINUOUS
10
160.109
20
-92.2853
11
159.931
21
-92.2853
0
LINE
8
BLACK
6
CONTINUOUS
10
159.931
20
-92.2853
11
159.757
21
-92.2484
0
LINE
8
BLACK
6
CONTINUOUS
10
159.757
20
-92.2484
11
159.595
21
-92.1761
0
LINE
8
BLACK
6
CONTINUOUS
10
159.595
20
-92.1761
11
159.451
21
-92.0717
0
LINE
8
BLACK
6
CONTINUOUS
10
159.451
20
-92.0717
11
159.332
21
-91.9396
0
LINE
8
BLACK
6
CONTINUOUS
10
159.332
20
-91.9396
11
159.243
21
-91.7857
0
LINE
8
BLACK
6
CONTINUOUS
10
159.243
20
-91.7857
11
159.189
21
-91.6167
0
LINE
8
BLACK
6
CONTINUOUS
10
159.189
20
-91.6167
11
159.17
21
-91.44
0
LINE
8
BLACK
6
CONTINUOUS
10
159.17
20
-91.44
11
159.189
21
-91.2633
0
LINE
8
BLACK
6
CONTINUOUS
10
159.189
20
-91.2633
11
159.243
21
-91.0943
0
LINE
8
BLACK
6
CONTINUOUS
10
159.243
20
-91.0943
11
159.332
21
-90.9404
0
LINE
8
BLACK
6
CONTINUOUS
10
159.332
20
-90.9404
11
159.451
21
-90.8083
0
LINE
8
BLACK
6
CONTINUOUS
10
159.451
20
-90.8083
11
159.595
21
-90.7039
0
LINE
8
BLACK
6
CONTINUOUS
10
159.595
20
-90.7039
11
159.757
21
-90.6316
0
LINE
8
BLACK
6
CONTINUOUS
10
159.757
20
-90.6316
11
159.931
21
-90.5947
0
LINE
8
BLACK
6
CONTINUOUS
10
159.931
20
-90.5947
11
160.109
21
-90.5947
0
LINE
8
BLACK
6
CONTINUOUS
10
160.109
20
-90.5947
11
160.283
21
-90.6316
0
LINE
8
BLACK
6
CONTINUOUS
10
125.993
20
-89.3616
11
126.155
21
-89.4339
0
LINE
8
BLACK
6
CONTINUOUS
10
126.155
20
-89.4339
11
126.299
21
-89.5383
0
LINE
8
BLACK
6
CONTINUOUS
10
126.299
20
-89.5383
11
126.418
21
-89.6704
0
LINE
8
BLACK
6
CONTINUOUS
10
126.418
20
-89.6704
11
126.507
21
-89.8243
0
LINE
8
BLACK
6
CONTINUOUS
10
126.507
20
-89.8243
11
126.561
21
-89.9933
0
LINE
8
BLACK
6
CONTINUOUS
10
126.561
20
-89.9933
11
126.58
21
-90.17
0
LINE
8
BLACK
6
CONTINUOUS
10
126.58
20
-90.17
11
126.561
21
-90.3467
0
LINE
8
BLACK
6
CONTINUOUS
10
126.561
20
-90.3467
11
126.507
21
-90.5157
0
LINE
8
BLACK
6
CONTINUOUS
10
126.507
20
-90.5157
11
126.418
21
-90.6696
0
LINE
8
BLACK
6
CONTINUOUS
10
126.418
20
-90.6696
11
126.299
21
-90.8017
0
LINE
8
BLACK
6
CONTINUOUS
10
126.299
20
-90.8017
11
126.155
21
-90.9061
0
LINE
8
BLACK
6
CONTINUOUS
10
126.155
20
-90.9061
11
125.993
21
-90.9784
0
LINE
8
BLACK
6
CONTINUOUS
10
125.993
20
-90.9784
11
125.819
21
-91.0153
0
LINE
8
BLACK
6
CONTINUOUS
10
125.819
20
-91.0153
11
125.641
21
-91.0153
0
LINE
8
BLACK
6
CONTINUOUS
10
125.641
20
-91.0153
11
125.467
21
-90.9784
0
LINE
8
BLACK
6
CONTINUOUS
10
125.467
20
-90.9784
11
125.305
21
-90.9061
0
LINE
8
BLACK
6
CONTINUOUS
10
125.305
20
-90.9061
11
125.161
21
-90.8017
0
LINE
8
BLACK
6
CONTINUOUS
10
125.161
20
-90.8017
11
125.042
21
-90.6696
0
LINE
8
BLACK
6
CONTINUOUS
10
125.042
20
-90.6696
11
124.953
21
-90.5157
0
LINE
8
BLACK
6
CONTINUOUS
10
124.953
20
-90.5157
11
124.899
21
-90.3467
0
LINE
8
BLACK
6
CONTINUOUS
10
124.899
20
-90.3467
11
124.88
21
-90.17
0
LINE
8
BLACK
6
CONTINUOUS
10
124.88
20
-90.17
11
124.899
21
-89.9933
0
LINE
8
BLACK
6
CONTINUOUS
10
124.899
20
-89.9933
11
124.953
21
-89.8243
0
LINE
8
BLACK
6
CONTINUOUS
10
124.953
20
-89.8243
11
125.042
21
-89.6704
0
LINE
8
BLACK
6
CONTINUOUS
10
125.042
20
-89.6704
11
125.161
21
-89.5383
0
LINE
8
BLACK
6
CONTINUOUS
10
125.161
20
-89.5383
11
125.305
21
-89.4339
0
LINE
8
BLACK
6
CONTINUOUS
10
125.305
20
-89.4339
11
125.467
21
-89.3616
0
LINE
8
BLACK
6
CONTINUOUS
10
125.467
20
-89.3616
11
125.641
21
-89.3247
0
LINE
8
BLACK
6
CONTINUOUS
10
125.641
20
-89.3247
11
125.819
21
-89.3247
0
LINE
8
BLACK
6
CONTINUOUS
10
125.819
20
-89.3247
11
125.993
21
-89.3616
0
LINE
8
BLACK
6
CONTINUOUS
10
162.823
20
-88.0916
11
162.985
21
-88.1639
0
LINE
8
BLACK
6
CONTINUOUS
10
162.985
20
-88.1639
11
163.129
21
-88.2683
0
LINE
8
BLACK
6
CONTINUOUS
10
163.129
20
-88.2683
11
163.248
21
-88.4004
0
LINE
8
BLACK
6
CONTINUOUS
10
163.248
20
-88.4004
11
163.337
21
-88.5543
0
LINE
8
BLACK
6
CONTINUOUS
10
163.337
20
-88.5543
11
163.391
21
-88.7233
0
LINE
8
BLACK
6
CONTINUOUS
10
163.391
20
-88.7233
11
163.41
21
-88.9
0
LINE
8
BLACK
6
CONTINUOUS
10
163.41
20
-88.9
11
163.391
21
-89.0767
0
LINE
8
BLACK
6
CONTINUOUS
10
163.391
20
-89.0767
11
163.337
21
-89.2457
0
LINE
8
BLACK
6
CONTINUOUS
10
163.337
20
-89.2457
11
163.248
21
-89.3996
0
LINE
8
BLACK
6
CONTINUOUS
10
163.248
20
-89.3996
11
163.129
21
-89.5317
0
LINE
8
BLACK
6
CONTINUOUS
10
163.129
20
-89.5317
11
162.985
21
-89.6361
0
LINE
8
BLACK
6
CONTINUOUS
10
162.985
20
-89.6361
11
162.823
21
-89.7084
0
LINE
8
BLACK
6
CONTINUOUS
10
162.823
20
-89.7084
11
162.649
21
-89.7453
0
LINE
8
BLACK
6
CONTINUOUS
10
162.649
20
-89.7453
11
162.471
21
-89.7453
0
LINE
8
BLACK
6
CONTINUOUS
10
162.471
20
-89.7453
11
162.297
21
-89.7084
0
LINE
8
BLACK
6
CONTINUOUS
10
162.297
20
-89.7084
11
162.135
21
-89.6361
0
LINE
8
BLACK
6
CONTINUOUS
10
162.135
20
-89.6361
11
161.991
21
-89.5317
0
LINE
8
BLACK
6
CONTINUOUS
10
161.991
20
-89.5317
11
161.872
21
-89.3996
0
LINE
8
BLACK
6
CONTINUOUS
10
161.872
20
-89.3996
11
161.783
21
-89.2457
0
LINE
8
BLACK
6
CONTINUOUS
10
161.783
20
-89.2457
11
161.729
21
-89.0767
0
LINE
8
BLACK
6
CONTINUOUS
10
161.729
20
-89.0767
11
161.71
21
-88.9
0
LINE
8
BLACK
6
CONTINUOUS
10
161.71
20
-88.9
11
161.729
21
-88.7233
0
LINE
8
BLACK
6
CONTINUOUS
10
161.729
20
-88.7233
11
161.783
21
-88.5543
0
LINE
8
BLACK
6
CONTINUOUS
10
161.783
20
-88.5543
11
161.872
21
-88.4004
0
LINE
8
BLACK
6
CONTINUOUS
10
161.872
20
-88.4004
11
161.991
21
-88.2683
0
LINE
8
BLACK
6
CONTINUOUS
10
161.991
20
-88.2683
11
162.135
21
-88.1639
0
LINE
8
BLACK
6
CONTINUOUS
10
162.135
20
-88.1639
11
162.297
21
-88.0916
0
LINE
8
BLACK
6
CONTINUOUS
10
162.297
20
-88.0916
11
162.471
21
-88.0547
0
LINE
8
BLACK
6
CONTINUOUS
10
162.471
20
-88.0547
11
162.649
21
-88.0547
0
LINE
8
BLACK
6
CONTINUOUS
10
162.649
20
-88.0547
11
162.823
21
-88.0916
0
LINE
8
BLACK
6
CONTINUOUS
10
160.283
20
-88.0916
11
160.445
21
-88.1639
0
LINE
8
BLACK
6
CONTINUOUS
10
160.445
20
-88.1639
11
160.589
21
-88.2683
0
LINE
8
BLACK
6
CONTINUOUS
10
160.589
20
-88.2683
11
160.708
21
-88.4004
0
LINE
8
BLACK
6
CONTINUOUS
10
160.708
20
-88.4004
11
160.797
21
-88.5543
0
LINE
8
BLACK
6
CONTINUOUS
10
160.797
20
-88.5543
11
160.851
21
-88.7233
0
LINE
8
BLACK
6
CONTINUOUS
10
160.851
20
-88.7233
11
160.87
21
-88.9
0
LINE
8
BLACK
6
CONTINUOUS
10
160.87
20
-88.9
11
160.851
21
-89.0767
0
LINE
8
BLACK
6
CONTINUOUS
10
160.851
20
-89.0767
11
160.797
21
-89.2457
0
LINE
8
BLACK
6
CONTINUOUS
10
160.797
20
-89.2457
11
160.708
21
-89.3996
0
LINE
8
BLACK
6
CONTINUOUS
10
160.708
20
-89.3996
11
160.589
21
-89.5317
0
LINE
8
BLACK
6
CONTINUOUS
10
160.589
20
-89.5317
11
160.445
21
-89.6361
0
LINE
8
BLACK
6
CONTINUOUS
10
160.445
20
-89.6361
11
160.283
21
-89.7084
0
LINE
8
BLACK
6
CONTINUOUS
10
160.283
20
-89.7084
11
160.109
21
-89.7453
0
LINE
8
BLACK
6
CONTINUOUS
10
160.109
20
-89.7453
11
159.931
21
-89.7453
0
LINE
8
BLACK
6
CONTINUOUS
10
159.931
20
-89.7453
11
159.757
21
-89.7084
0
LINE
8
BLACK
6
CONTINUOUS
10
159.757
20
-89.7084
11
159.595
21
-89.6361
0
LINE
8
BLACK
6
CONTINUOUS
10
159.595
20
-89.6361
11
159.451
21
-89.5317
0
LINE
8
BLACK
6
CONTINUOUS
10
159.451
20
-89.5317
11
159.332
21
-89.3996
0
LINE
8
BLACK
6
CONTINUOUS
10
159.332
20
-89.3996
11
159.243
21
-89.2457
0
LINE
8
BLACK
6
CONTINUOUS
10
159.243
20
-89.2457
11
159.189
21
-89.0767
0
LINE
8
BLACK
6
CONTINUOUS
10
159.189
20
-89.0767
11
159.17
21
-88.9
0
LINE
8
BLACK
6
CONTINUOUS
10
159.17
20
-88.9
11
159.189
21
-88.7233
0
LINE
8
BLACK
6
CONTINUOUS
10
159.189
20
-88.7233
11
159.243
21
-88.5543
0
LINE
8
BLACK
6
CONTINUOUS
10
159.243
20
-88.5543
11
159.332
21
-88.4004
0
LINE
8
BLACK
6
CONTINUOUS
10
159.332
20
-88.4004
11
159.451
21
-88.2683
0
LINE
8
BLACK
6
CONTINUOUS
10
159.451
20
-88.2683
11
159.595
21
-88.1639
0
LINE
8
BLACK
6
CONTINUOUS
10
159.595
20
-88.1639
11
159.757
21
-88.0916
0
LINE
8
BLACK
6
CONTINUOUS
10
159.757
20
-88.0916
11
159.931
21
-88.0547
0
LINE
8
BLACK
6
CONTINUOUS
10
159.931
20
-88.0547
11
160.109
21
-88.0547
0
LINE
8
BLACK
6
CONTINUOUS
10
160.109
20
-88.0547
11
160.283
21
-88.0916
0
LINE
8
BLACK
6
CONTINUOUS
10
125.993
20
-86.8216
11
126.155
21
-86.8939
0
LINE
8
BLACK
6
CONTINUOUS
10
126.155
20
-86.8939
11
126.299
21
-86.9983
0
LINE
8
BLACK
6
CONTINUOUS
10
126.299
20
-86.9983
11
126.418
21
-87.1304
0
LINE
8
BLACK
6
CONTINUOUS
10
126.418
20
-87.1304
11
126.507
21
-87.2843
0
LINE
8
BLACK
6
CONTINUOUS
10
126.507
20
-87.2843
11
126.561
21
-87.4533
0
LINE
8
BLACK
6
CONTINUOUS
10
126.561
20
-87.4533
11
126.58
21
-87.63
0
LINE
8
BLACK
6
CONTINUOUS
10
126.58
20
-87.63
11
126.561
21
-87.8067
0
LINE
8
BLACK
6
CONTINUOUS
10
126.561
20
-87.8067
11
126.507
21
-87.9757
0
LINE
8
BLACK
6
CONTINUOUS
10
126.507
20
-87.9757
11
126.418
21
-88.1296
0
LINE
8
BLACK
6
CONTINUOUS
10
126.418
20
-88.1296
11
126.299
21
-88.2617
0
LINE
8
BLACK
6
CONTINUOUS
10
126.299
20
-88.2617
11
126.155
21
-88.3661
0
LINE
8
BLACK
6
CONTINUOUS
10
126.155
20
-88.3661
11
125.993
21
-88.4384
0
LINE
8
BLACK
6
CONTINUOUS
10
125.993
20
-88.4384
11
125.819
21
-88.4753
0
LINE
8
BLACK
6
CONTINUOUS
10
125.819
20
-88.4753
11
125.641
21
-88.4753
0
LINE
8
BLACK
6
CONTINUOUS
10
125.641
20
-88.4753
11
125.467
21
-88.4384
0
LINE
8
BLACK
6
CONTINUOUS
10
125.467
20
-88.4384
11
125.305
21
-88.3661
0
LINE
8
BLACK
6
CONTINUOUS
10
125.305
20
-88.3661
11
125.161
21
-88.2617
0
LINE
8
BLACK
6
CONTINUOUS
10
125.161
20
-88.2617
11
125.042
21
-88.1296
0
LINE
8
BLACK
6
CONTINUOUS
10
125.042
20
-88.1296
11
124.953
21
-87.9757
0
LINE
8
BLACK
6
CONTINUOUS
10
124.953
20
-87.9757
11
124.899
21
-87.8067
0
LINE
8
BLACK
6
CONTINUOUS
10
124.899
20
-87.8067
11
124.88
21
-87.63
0
LINE
8
BLACK
6
CONTINUOUS
10
124.88
20
-87.63
11
124.899
21
-87.4533
0
LINE
8
BLACK
6
CONTINUOUS
10
124.899
20
-87.4533
11
124.953
21
-87.2843
0
LINE
8
BLACK
6
CONTINUOUS
10
124.953
20
-87.2843
11
125.042
21
-87.1304
0
LINE
8
BLACK
6
CONTINUOUS
10
125.042
20
-87.1304
11
125.161
21
-86.9983
0
LINE
8
BLACK
6
CONTINUOUS
10
125.161
20
-86.9983
11
125.305
21
-86.8939
0
LINE
8
BLACK
6
CONTINUOUS
10
125.305
20
-86.8939
11
125.467
21
-86.8216
0
LINE
8
BLACK
6
CONTINUOUS
10
125.467
20
-86.8216
11
125.641
21
-86.7847
0
LINE
8
BLACK
6
CONTINUOUS
10
125.641
20
-86.7847
11
125.819
21
-86.7847
0
LINE
8
BLACK
6
CONTINUOUS
10
125.819
20
-86.7847
11
125.993
21
-86.8216
0
LINE
8
BLACK
6
CONTINUOUS
10
162.823
20
-85.5516
11
162.985
21
-85.6239
0
LINE
8
BLACK
6
CONTINUOUS
10
162.985
20
-85.6239
11
163.129
21
-85.7283
0
LINE
8
BLACK
6
CONTINUOUS
10
163.129
20
-85.7283
11
163.248
21
-85.8604
0
LINE
8
BLACK
6
CONTINUOUS
10
163.248
20
-85.8604
11
163.337
21
-86.0143
0
LINE
8
BLACK
6
CONTINUOUS
10
163.337
20
-86.0143
11
163.391
21
-86.1833
0
LINE
8
BLACK
6
CONTINUOUS
10
163.391
20
-86.1833
11
163.41
21
-86.36
0
LINE
8
BLACK
6
CONTINUOUS
10
163.41
20
-86.36
11
163.391
21
-86.5367
0
LINE
8
BLACK
6
CONTINUOUS
10
163.391
20
-86.5367
11
163.337
21
-86.7057
0
LINE
8
BLACK
6
CONTINUOUS
10
163.337
20
-86.7057
11
163.248
21
-86.8596
0
LINE
8
BLACK
6
CONTINUOUS
10
163.248
20
-86.8596
11
163.129
21
-86.9917
0
LINE
8
BLACK
6
CONTINUOUS
10
163.129
20
-86.9917
11
162.985
21
-87.0961
0
LINE
8
BLACK
6
CONTINUOUS
10
162.985
20
-87.0961
11
162.823
21
-87.1684
0
LINE
8
BLACK
6
CONTINUOUS
10
162.823
20
-87.1684
11
162.649
21
-87.2053
0
LINE
8
BLACK
6
CONTINUOUS
10
162.649
20
-87.2053
11
162.471
21
-87.2053
0
LINE
8
BLACK
6
CONTINUOUS
10
162.471
20
-87.2053
11
162.297
21
-87.1684
0
LINE
8
BLACK
6
CONTINUOUS
10
162.297
20
-87.1684
11
162.135
21
-87.0961
0
LINE
8
BLACK
6
CONTINUOUS
10
162.135
20
-87.0961
11
161.991
21
-86.9917
0
LINE
8
BLACK
6
CONTINUOUS
10
161.991
20
-86.9917
11
161.872
21
-86.8596
0
LINE
8
BLACK
6
CONTINUOUS
10
161.872
20
-86.8596
11
161.783
21
-86.7057
0
LINE
8
BLACK
6
CONTINUOUS
10
161.783
20
-86.7057
11
161.729
21
-86.5367
0
LINE
8
BLACK
6
CONTINUOUS
10
161.729
20
-86.5367
11
161.71
21
-86.36
0
LINE
8
BLACK
6
CONTINUOUS
10
161.71
20
-86.36
11
161.729
21
-86.1833
0
LINE
8
BLACK
6
CONTINUOUS
10
161.729
20
-86.1833
11
161.783
21
-86.0143
0
LINE
8
BLACK
6
CONTINUOUS
10
161.783
20
-86.0143
11
161.872
21
-85.8604
0
LINE
8
BLACK
6
CONTINUOUS
10
161.872
20
-85.8604
11
161.991
21
-85.7283
0
LINE
8
BLACK
6
CONTINUOUS
10
161.991
20
-85.7283
11
162.135
21
-85.6239
0
LINE
8
BLACK
6
CONTINUOUS
10
162.135
20
-85.6239
11
162.297
21
-85.5516
0
LINE
8
BLACK
6
CONTINUOUS
10
162.297
20
-85.5516
11
162.471
21
-85.5147
0
LINE
8
BLACK
6
CONTINUOUS
10
162.471
20
-85.5147
11
162.649
21
-85.5147
0
LINE
8
BLACK
6
CONTINUOUS
10
162.649
20
-85.5147
11
162.823
21
-85.5516
0
LINE
8
BLACK
6
CONTINUOUS
10
160.283
20
-85.5516
11
160.445
21
-85.6239
0
LINE
8
BLACK
6
CONTINUOUS
10
160.445
20
-85.6239
11
160.589
21
-85.7283
0
LINE
8
BLACK
6
CONTINUOUS
10
160.589
20
-85.7283
11
160.708
21
-85.8604
0
LINE
8
BLACK
6
CONTINUOUS
10
160.708
20
-85.8604
11
160.797
21
-86.0143
0
LINE
8
BLACK
6
CONTINUOUS
10
160.797
20
-86.0143
11
160.851
21
-86.1833
0
LINE
8
BLACK
6
CONTINUOUS
10
160.851
20
-86.1833
11
160.87
21
-86.36
0
LINE
8
BLACK
6
CONTINUOUS
10
160.87
20
-86.36
11
160.851
21
-86.5367
0
LINE
8
BLACK
6
CONTINUOUS
10
160.851
20
-86.5367
11
160.797
21
-86.7057
0
LINE
8
BLACK
6
CONTINUOUS
10
160.797
20
-86.7057
11
160.708
21
-86.8596
0
LINE
8
BLACK
6
CONTINUOUS
10
160.708
20
-86.8596
11
160.589
21
-86.9917
0
LINE
8
BLACK
6
CONTINUOUS
10
160.589
20
-86.9917
11
160.445
21
-87.0961
0
LINE
8
BLACK
6
CONTINUOUS
10
160.445
20
-87.0961
11
160.283
21
-87.1684
0
LINE
8
BLACK
6
CONTINUOUS
10
160.283
20
-87.1684
11
160.109
21
-87.2053
0
LINE
8
BLACK
6
CONTINUOUS
10
160.109
20
-87.2053
11
159.931
21
-87.2053
0
LINE
8
BLACK
6
CONTINUOUS
10
159.931
20
-87.2053
11
159.757
21
-87.1684
0
LINE
8
BLACK
6
CONTINUOUS
10
159.757
20
-87.1684
11
159.595
21
-87.0961
0
LINE
8
BLACK
6
CONTINUOUS
10
159.595
20
-87.0961
11
159.451
21
-86.9917
0
LINE
8
BLACK
6
CONTINUOUS
10
159.451
20
-86.9917
11
159.332
21
-86.8596
0
LINE
8
BLACK
6
CONTINUOUS
10
159.332
20
-86.8596
11
159.243
21
-86.7057
0
LINE
8
BLACK
6
CONTINUOUS
10
159.243
20
-86.7057
11
159.189
21
-86.5367
0
LINE
8
BLACK
6
CONTINUOUS
10
159.189
20
-86.5367
11
159.17
21
-86.36
0
LINE
8
BLACK
6
CONTINUOUS
10
159.17
20
-86.36
11
159.189
21
-86.1833
0
LINE
8
BLACK
6
CONTINUOUS
10
159.189
20
-86.1833
11
159.243
21
-86.0143
0
LINE
8
BLACK
6
CONTINUOUS
10
159.243
20
-86.0143
11
159.332
21
-85.8604
0
LINE
8
BLACK
6
CONTINUOUS
10
159.332
20
-85.8604
11
159.451
21
-85.7283
0
LINE
8
BLACK
6
CONTINUOUS
10
159.451
20
-85.7283
11
159.595
21
-85.6239
0
LINE
8
BLACK
6
CONTINUOUS
10
159.595
20
-85.6239
11
159.757
21
-85.5516
0
LINE
8
BLACK
6
CONTINUOUS
10
159.757
20
-85.5516
11
159.931
21
-85.5147
0
LINE
8
BLACK
6
CONTINUOUS
10
159.931
20
-85.5147
11
160.109
21
-85.5147
0
LINE
8
BLACK
6
CONTINUOUS
10
160.109
20
-85.5147
11
160.283
21
-85.5516
0
LINE
8
BLACK
6
CONTINUOUS
10
125.993
20
-84.2816
11
126.155
21
-84.3539
0
LINE
8
BLACK
6
CONTINUOUS
10
126.155
20
-84.3539
11
126.299
21
-84.4583
0
LINE
8
BLACK
6
CONTINUOUS
10
126.299
20
-84.4583
11
126.418
21
-84.5904
0
LINE
8
BLACK
6
CONTINUOUS
10
126.418
20
-84.5904
11
126.507
21
-84.7443
0
LINE
8
BLACK
6
CONTINUOUS
10
126.507
20
-84.7443
11
126.561
21
-84.9133
0
LINE
8
BLACK
6
CONTINUOUS
10
126.561
20
-84.9133
11
126.58
21
-85.09
0
LINE
8
BLACK
6
CONTINUOUS
10
126.58
20
-85.09
11
126.561
21
-85.2667
0
LINE
8
BLACK
6
CONTINUOUS
10
126.561
20
-85.2667
11
126.507
21
-85.4357
0
LINE
8
BLACK
6
CONTINUOUS
10
126.507
20
-85.4357
11
126.418
21
-85.5896
0
LINE
8
BLACK
6
CONTINUOUS
10
126.418
20
-85.5896
11
126.299
21
-85.7217
0
LINE
8
BLACK
6
CONTINUOUS
10
126.299
20
-85.7217
11
126.155
21
-85.8261
0
LINE
8
BLACK
6
CONTINUOUS
10
126.155
20
-85.8261
11
125.993
21
-85.8984
0
LINE
8
BLACK
6
CONTINUOUS
10
125.993
20
-85.8984
11
125.819
21
-85.9353
0
LINE
8
BLACK
6
CONTINUOUS
10
125.819
20
-85.9353
11
125.641
21
-85.9353
0
LINE
8
BLACK
6
CONTINUOUS
10
125.641
20
-85.9353
11
125.467
21
-85.8984
0
LINE
8
BLACK
6
CONTINUOUS
10
125.467
20
-85.8984
11
125.305
21
-85.8261
0
LINE
8
BLACK
6
CONTINUOUS
10
125.305
20
-85.8261
11
125.161
21
-85.7217
0
LINE
8
BLACK
6
CONTINUOUS
10
125.161
20
-85.7217
11
125.042
21
-85.5896
0
LINE
8
BLACK
6
CONTINUOUS
10
125.042
20
-85.5896
11
124.953
21
-85.4357
0
LINE
8
BLACK
6
CONTINUOUS
10
124.953
20
-85.4357
11
124.899
21
-85.2667
0
LINE
8
BLACK
6
CONTINUOUS
10
124.899
20
-85.2667
11
124.88
21
-85.09
0
LINE
8
BLACK
6
CONTINUOUS
10
124.88
20
-85.09
11
124.899
21
-84.9133
0
LINE
8
BLACK
6
CONTINUOUS
10
124.899
20
-84.9133
11
124.953
21
-84.7443
0
LINE
8
BLACK
6
CONTINUOUS
10
124.953
20
-84.7443
11
125.042
21
-84.5904
0
LINE
8
BLACK
6
CONTINUOUS
10
125.042
20
-84.5904
11
125.161
21
-84.4583
0
LINE
8
BLACK
6
CONTINUOUS
10
125.161
20
-84.4583
11
125.305
21
-84.3539
0
LINE
8
BLACK
6
CONTINUOUS
10
125.305
20
-84.3539
11
125.467
21
-84.2816
0
LINE
8
BLACK
6
CONTINUOUS
10
125.467
20
-84.2816
11
125.641
21
-84.2447
0
LINE
8
BLACK
6
CONTINUOUS
10
125.641
20
-84.2447
11
125.819
21
-84.2447
0
LINE
8
BLACK
6
CONTINUOUS
10
125.819
20
-84.2447
11
125.993
21
-84.2816
0
LINE
8
BLACK
6
CONTINUOUS
10
162.823
20
-83.0116
11
162.985
21
-83.0839
0
LINE
8
BLACK
6
CONTINUOUS
10
162.985
20
-83.0839
11
163.129
21
-83.1883
0
LINE
8
BLACK
6
CONTINUOUS
10
163.129
20
-83.1883
11
163.248
21
-83.3204
0
LINE
8
BLACK
6
CONTINUOUS
10
163.248
20
-83.3204
11
163.337
21
-83.4743
0
LINE
8
BLACK
6
CONTINUOUS
10
163.337
20
-83.4743
11
163.391
21
-83.6433
0
LINE
8
BLACK
6
CONTINUOUS
10
163.391
20
-83.6433
11
163.41
21
-83.82
0
LINE
8
BLACK
6
CONTINUOUS
10
163.41
20
-83.82
11
163.391
21
-83.9967
0
LINE
8
BLACK
6
CONTINUOUS
10
163.391
20
-83.9967
11
163.337
21
-84.1657
0
LINE
8
BLACK
6
CONTINUOUS
10
163.337
20
-84.1657
11
163.248
21
-84.3196
0
LINE
8
BLACK
6
CONTINUOUS
10
163.248
20
-84.3196
11
163.129
21
-84.4517
0
LINE
8
BLACK
6
CONTINUOUS
10
163.129
20
-84.4517
11
162.985
21
-84.5561
0
LINE
8
BLACK
6
CONTINUOUS
10
162.985
20
-84.5561
11
162.823
21
-84.6284
0
LINE
8
BLACK
6
CONTINUOUS
10
162.823
20
-84.6284
11
162.649
21
-84.6653
0
LINE
8
BLACK
6
CONTINUOUS
10
162.649
20
-84.6653
11
162.471
21
-84.6653
0
LINE
8
BLACK
6
CONTINUOUS
10
162.471
20
-84.6653
11
162.297
21
-84.6284
0
LINE
8
BLACK
6
CONTINUOUS
10
162.297
20
-84.6284
11
162.135
21
-84.5561
0
LINE
8
BLACK
6
CONTINUOUS
10
162.135
20
-84.5561
11
161.991
21
-84.4517
0
LINE
8
BLACK
6
CONTINUOUS
10
161.991
20
-84.4517
11
161.872
21
-84.3196
0
LINE
8
BLACK
6
CONTINUOUS
10
161.872
20
-84.3196
11
161.783
21
-84.1657
0
LINE
8
BLACK
6
CONTINUOUS
10
161.783
20
-84.1657
11
161.729
21
-83.9967
0
LINE
8
BLACK
6
CONTINUOUS
10
161.729
20
-83.9967
11
161.71
21
-83.82
0
LINE
8
BLACK
6
CONTINUOUS
10
161.71
20
-83.82
11
161.729
21
-83.6433
0
LINE
8
BLACK
6
CONTINUOUS
10
161.729
20
-83.6433
11
161.783
21
-83.4743
0
LINE
8
BLACK
6
CONTINUOUS
10
161.783
20
-83.4743
11
161.872
21
-83.3204
0
LINE
8
BLACK
6
CONTINUOUS
10
161.872
20
-83.3204
11
161.991
21
-83.1883
0
LINE
8
BLACK
6
CONTINUOUS
10
161.991
20
-83.1883
11
162.135
21
-83.0839
0
LINE
8
BLACK
6
CONTINUOUS
10
162.135
20
-83.0839
11
162.297
21
-83.0116
0
LINE
8
BLACK
6
CONTINUOUS
10
162.297
20
-83.0116
11
162.471
21
-82.9747
0
LINE
8
BLACK
6
CONTINUOUS
10
162.471
20
-82.9747
11
162.649
21
-82.9747
0
LINE
8
BLACK
6
CONTINUOUS
10
162.649
20
-82.9747
11
162.823
21
-83.0116
0
LINE
8
BLACK
6
CONTINUOUS
10
160.283
20
-83.0116
11
160.445
21
-83.0839
0
LINE
8
BLACK
6
CONTINUOUS
10
160.445
20
-83.0839
11
160.589
21
-83.1883
0
LINE
8
BLACK
6
CONTINUOUS
10
160.589
20
-83.1883
11
160.708
21
-83.3204
0
LINE
8
BLACK
6
CONTINUOUS
10
160.708
20
-83.3204
11
160.797
21
-83.4743
0
LINE
8
BLACK
6
CONTINUOUS
10
160.797
20
-83.4743
11
160.851
21
-83.6433
0
LINE
8
BLACK
6
CONTINUOUS
10
160.851
20
-83.6433
11
160.87
21
-83.82
0
LINE
8
BLACK
6
CONTINUOUS
10
160.87
20
-83.82
11
160.851
21
-83.9967
0
LINE
8
BLACK
6
CONTINUOUS
10
160.851
20
-83.9967
11
160.797
21
-84.1657
0
LINE
8
BLACK
6
CONTINUOUS
10
160.797
20
-84.1657
11
160.708
21
-84.3196
0
LINE
8
BLACK
6
CONTINUOUS
10
160.708
20
-84.3196
11
160.589
21
-84.4517
0
LINE
8
BLACK
6
CONTINUOUS
10
160.589
20
-84.4517
11
160.445
21
-84.5561
0
LINE
8
BLACK
6
CONTINUOUS
10
160.445
20
-84.5561
11
160.283
21
-84.6284
0
LINE
8
BLACK
6
CONTINUOUS
10
160.283
20
-84.6284
11
160.109
21
-84.6653
0
LINE
8
BLACK
6
CONTINUOUS
10
160.109
20
-84.6653
11
159.931
21
-84.6653
0
LINE
8
BLACK
6
CONTINUOUS
10
159.931
20
-84.6653
11
159.757
21
-84.6284
0
LINE
8
BLACK
6
CONTINUOUS
10
159.757
20
-84.6284
11
159.595
21
-84.5561
0
LINE
8
BLACK
6
CONTINUOUS
10
159.595
20
-84.5561
11
159.451
21
-84.4517
0
LINE
8
BLACK
6
CONTINUOUS
10
159.451
20
-84.4517
11
159.332
21
-84.3196
0
LINE
8
BLACK
6
CONTINUOUS
10
159.332
20
-84.3196
11
159.243
21
-84.1657
0
LINE
8
BLACK
6
CONTINUOUS
10
159.243
20
-84.1657
11
159.189
21
-83.9967
0
LINE
8
BLACK
6
CONTINUOUS
10
159.189
20
-83.9967
11
159.17
21
-83.82
0
LINE
8
BLACK
6
CONTINUOUS
10
159.17
20
-83.82
11
159.189
21
-83.6433
0
LINE
8
BLACK
6
CONTINUOUS
10
159.189
20
-83.6433
11
159.243
21
-83.4743
0
LINE
8
BLACK
6
CONTINUOUS
10
159.243
20
-83.4743
11
159.332
21
-83.3204
0
LINE
8
BLACK
6
CONTINUOUS
10
159.332
20
-83.3204
11
159.451
21
-83.1883
0
LINE
8
BLACK
6
CONTINUOUS
10
159.451
20
-83.1883
11
159.595
21
-83.0839
0
LINE
8
BLACK
6
CONTINUOUS
10
159.595
20
-83.0839
11
159.757
21
-83.0116
0
LINE
8
BLACK
6
CONTINUOUS
10
159.757
20
-83.0116
11
159.931
21
-82.9747
0
LINE
8
BLACK
6
CONTINUOUS
10
159.931
20
-82.9747
11
160.109
21
-82.9747
0
LINE
8
BLACK
6
CONTINUOUS
10
160.109
20
-82.9747
11
160.283
21
-83.0116
0
LINE
8
BLACK
6
CONTINUOUS
10
126.58
20
-83.4
11
124.88
21
-83.4
0
LINE
8
BLACK
6
CONTINUOUS
10
124.88
20
-83.4
11
124.88
21
-81.7
0
LINE
8
BLACK
6
CONTINUOUS
10
124.88
20
-81.7
11
126.58
21
-81.7
0
LINE
8
BLACK
6
CONTINUOUS
10
126.58
20
-81.7
11
126.58
21
-83.4
0
LINE
8
BLACK
6
CONTINUOUS
10
162.823
20
-80.4716
11
162.985
21
-80.5439
0
LINE
8
BLACK
6
CONTINUOUS
10
162.985
20
-80.5439
11
163.129
21
-80.6483
0
LINE
8
BLACK
6
CONTINUOUS
10
163.129
20
-80.6483
11
163.248
21
-80.7804
0
LINE
8
BLACK
6
CONTINUOUS
10
163.248
20
-80.7804
11
163.337
21
-80.9343
0
LINE
8
BLACK
6
CONTINUOUS
10
163.337
20
-80.9343
11
163.391
21
-81.1033
0
LINE
8
BLACK
6
CONTINUOUS
10
163.391
20
-81.1033
11
163.41
21
-81.28
0
LINE
8
BLACK
6
CONTINUOUS
10
163.41
20
-81.28
11
163.391
21
-81.4567
0
LINE
8
BLACK
6
CONTINUOUS
10
163.391
20
-81.4567
11
163.337
21
-81.6257
0
LINE
8
BLACK
6
CONTINUOUS
10
163.337
20
-81.6257
11
163.248
21
-81.7796
0
LINE
8
BLACK
6
CONTINUOUS
10
163.248
20
-81.7796
11
163.129
21
-81.9117
0
LINE
8
BLACK
6
CONTINUOUS
10
163.129
20
-81.9117
11
162.985
21
-82.0161
0
LINE
8
BLACK
6
CONTINUOUS
10
162.985
20
-82.0161
11
162.823
21
-82.0884
0
LINE
8
BLACK
6
CONTINUOUS
10
162.823
20
-82.0884
11
162.649
21
-82.1253
0
LINE
8
BLACK
6
CONTINUOUS
10
162.649
20
-82.1253
11
162.471
21
-82.1253
0
LINE
8
BLACK
6
CONTINUOUS
10
162.471
20
-82.1253
11
162.297
21
-82.0884
0
LINE
8
BLACK
6
CONTINUOUS
10
162.297
20
-82.0884
11
162.135
21
-82.0161
0
LINE
8
BLACK
6
CONTINUOUS
10
162.135
20
-82.0161
11
161.991
21
-81.9117
0
LINE
8
BLACK
6
CONTINUOUS
10
161.991
20
-81.9117
11
161.872
21
-81.7796
0
LINE
8
BLACK
6
CONTINUOUS
10
161.872
20
-81.7796
11
161.783
21
-81.6257
0
LINE
8
BLACK
6
CONTINUOUS
10
161.783
20
-81.6257
11
161.729
21
-81.4567
0
LINE
8
BLACK
6
CONTINUOUS
10
161.729
20
-81.4567
11
161.71
21
-81.28
0
LINE
8
BLACK
6
CONTINUOUS
10
161.71
20
-81.28
11
161.729
21
-81.1033
0
LINE
8
BLACK
6
CONTINUOUS
10
161.729
20
-81.1033
11
161.783
21
-80.9343
0
LINE
8
BLACK
6
CONTINUOUS
10
161.783
20
-80.9343
11
161.872
21
-80.7804
0
LINE
8
BLACK
6
CONTINUOUS
10
161.872
20
-80.7804
11
161.991
21
-80.6483
0
LINE
8
BLACK
6
CONTINUOUS
10
161.991
20
-80.6483
11
162.135
21
-80.5439
0
LINE
8
BLACK
6
CONTINUOUS
10
162.135
20
-80.5439
11
162.297
21
-80.4716
0
LINE
8
BLACK
6
CONTINUOUS
10
162.297
20
-80.4716
11
162.471
21
-80.4347
0
LINE
8
BLACK
6
CONTINUOUS
10
162.471
20
-80.4347
11
162.649
21
-80.4347
0
LINE
8
BLACK
6
CONTINUOUS
10
162.649
20
-80.4347
11
162.823
21
-80.4716
0
LINE
8
BLACK
6
CONTINUOUS
10
160.283
20
-80.4716
11
160.445
21
-80.5439
0
LINE
8
BLACK
6
CONTINUOUS
10
160.445
20
-80.5439
11
160.589
21
-80.6483
0
LINE
8
BLACK
6
CONTINUOUS
10
160.589
20
-80.6483
11
160.708
21
-80.7804
0
LINE
8
BLACK
6
CONTINUOUS
10
160.708
20
-80.7804
11
160.797
21
-80.9343
0
LINE
8
BLACK
6
CONTINUOUS
10
160.797
20
-80.9343
11
160.851
21
-81.1033
0
LINE
8
BLACK
6
CONTINUOUS
10
160.851
20
-81.1033
11
160.87
21
-81.28
0
LINE
8
BLACK
6
CONTINUOUS
10
160.87
20
-81.28
11
160.851
21
-81.4567
0
LINE
8
BLACK
6
CONTINUOUS
10
160.851
20
-81.4567
11
160.797
21
-81.6257
0
LINE
8
BLACK
6
CONTINUOUS
10
160.797
20
-81.6257
11
160.708
21
-81.7796
0
LINE
8
BLACK
6
CONTINUOUS
10
160.708
20
-81.7796
11
160.589
21
-81.9117
0
LINE
8
BLACK
6
CONTINUOUS
10
160.589
20
-81.9117
11
160.445
21
-82.0161
0
LINE
8
BLACK
6
CONTINUOUS
10
160.445
20
-82.0161
11
160.283
21
-82.0884
0
LINE
8
BLACK
6
CONTINUOUS
10
160.283
20
-82.0884
11
160.109
21
-82.1253
0
LINE
8
BLACK
6
CONTINUOUS
10
160.109
20
-82.1253
11
159.931
21
-82.1253
0
LINE
8
BLACK
6
CONTINUOUS
10
159.931
20
-82.1253
11
159.757
21
-82.0884
0
LINE
8
BLACK
6
CONTINUOUS
10
159.757
20
-82.0884
11
159.595
21
-82.0161
0
LINE
8
BLACK
6
CONTINUOUS
10
159.595
20
-82.0161
11
159.451
21
-81.9117
0
LINE
8
BLACK
6
CONTINUOUS
10
159.451
20
-81.9117
11
159.332
21
-81.7796
0
LINE
8
BLACK
6
CONTINUOUS
10
159.332
20
-81.7796
11
159.243
21
-81.6257
0
LINE
8
BLACK
6
CONTINUOUS
10
159.243
20
-81.6257
11
159.189
21
-81.4567
0
LINE
8
BLACK
6
CONTINUOUS
10
159.189
20
-81.4567
11
159.17
21
-81.28
0
LINE
8
BLACK
6
CONTINUOUS
10
159.17
20
-81.28
11
159.189
21
-81.1033
0
LINE
8
BLACK
6
CONTINUOUS
10
159.189
20
-81.1033
11
159.243
21
-80.9343
0
LINE
8
BLACK
6
CONTINUOUS
10
159.243
20
-80.9343
11
159.332
21
-80.7804
0
LINE
8
BLACK
6
CONTINUOUS
10
159.332
20
-80.7804
11
159.451
21
-80.6483
0
LINE
8
BLACK
6
CONTINUOUS
10
159.451
20
-80.6483
11
159.595
21
-80.5439
0
LINE
8
BLACK
6
CONTINUOUS
10
159.595
20
-80.5439
11
159.757
21
-80.4716
0
LINE
8
BLACK
6
CONTINUOUS
10
159.757
20
-80.4716
11
159.931
21
-80.4347
0
LINE
8
BLACK
6
CONTINUOUS
10
159.931
20
-80.4347
11
160.109
21
-80.4347
0
LINE
8
BLACK
6
CONTINUOUS
10
160.109
20
-80.4347
11
160.283
21
-80.4716
0
LINE
8
BLACK
6
CONTINUOUS
10
160.87
20
-79.59
11
159.17
21
-79.59
0
LINE
8
BLACK
6
CONTINUOUS
10
159.17
20
-79.59
11
159.17
21
-77.89
0
LINE
8
BLACK
6
CONTINUOUS
10
159.17
20
-77.89
11
160.87
21
-77.89
0
LINE
8
BLACK
6
CONTINUOUS
10
160.87
20
-77.89
11
160.87
21
-79.59
0
LINE
8
BLACK
6
CONTINUOUS
10
162.823
20
-77.9316
11
162.985
21
-78.0039
0
LINE
8
BLACK
6
CONTINUOUS
10
162.985
20
-78.0039
11
163.129
21
-78.1083
0
LINE
8
BLACK
6
CONTINUOUS
10
163.129
20
-78.1083
11
163.248
21
-78.2404
0
LINE
8
BLACK
6
CONTINUOUS
10
163.248
20
-78.2404
11
163.337
21
-78.3943
0
LINE
8
BLACK
6
CONTINUOUS
10
163.337
20
-78.3943
11
163.391
21
-78.5633
0
LINE
8
BLACK
6
CONTINUOUS
10
163.391
20
-78.5633
11
163.41
21
-78.74
0
LINE
8
BLACK
6
CONTINUOUS
10
163.41
20
-78.74
11
163.391
21
-78.9167
0
LINE
8
BLACK
6
CONTINUOUS
10
163.391
20
-78.9167
11
163.337
21
-79.0857
0
LINE
8
BLACK
6
CONTINUOUS
10
163.337
20
-79.0857
11
163.248
21
-79.2396
0
LINE
8
BLACK
6
CONTINUOUS
10
163.248
20
-79.2396
11
163.129
21
-79.3717
0
LINE
8
BLACK
6
CONTINUOUS
10
163.129
20
-79.3717
11
162.985
21
-79.4761
0
LINE
8
BLACK
6
CONTINUOUS
10
162.985
20
-79.4761
11
162.823
21
-79.5484
0
LINE
8
BLACK
6
CONTINUOUS
10
162.823
20
-79.5484
11
162.649
21
-79.5853
0
LINE
8
BLACK
6
CONTINUOUS
10
162.649
20
-79.5853
11
162.471
21
-79.5853
0
LINE
8
BLACK
6
CONTINUOUS
10
162.471
20
-79.5853
11
162.297
21
-79.5484
0
LINE
8
BLACK
6
CONTINUOUS
10
162.297
20
-79.5484
11
162.135
21
-79.4761
0
LINE
8
BLACK
6
CONTINUOUS
10
162.135
20
-79.4761
11
161.991
21
-79.3717
0
LINE
8
BLACK
6
CONTINUOUS
10
161.991
20
-79.3717
11
161.872
21
-79.2396
0
LINE
8
BLACK
6
CONTINUOUS
10
161.872
20
-79.2396
11
161.783
21
-79.0857
0
LINE
8
BLACK
6
CONTINUOUS
10
161.783
20
-79.0857
11
161.729
21
-78.9167
0
LINE
8
BLACK
6
CONTINUOUS
10
161.729
20
-78.9167
11
161.71
21
-78.74
0
LINE
8
BLACK
6
CONTINUOUS
10
161.71
20
-78.74
11
161.729
21
-78.5633
0
LINE
8
BLACK
6
CONTINUOUS
10
161.729
20
-78.5633
11
161.783
21
-78.3943
0
LINE
8
BLACK
6
CONTINUOUS
10
161.783
20
-78.3943
11
161.872
21
-78.2404
0
LINE
8
BLACK
6
CONTINUOUS
10
161.872
20
-78.2404
11
161.991
21
-78.1083
0
LINE
8
BLACK
6
CONTINUOUS
10
161.991
20
-78.1083
11
162.135
21
-78.0039
0
LINE
8
BLACK
6
CONTINUOUS
10
162.135
20
-78.0039
11
162.297
21
-77.9316
0
LINE
8
BLACK
6
CONTINUOUS
10
162.297
20
-77.9316
11
162.471
21
-77.8947
0
LINE
8
BLACK
6
CONTINUOUS
10
162.471
20
-77.8947
11
162.649
21
-77.8947
0
LINE
8
BLACK
6
CONTINUOUS
10
162.649
20
-77.8947
11
162.823
21
-77.9316
0
LINE
8
BLACK
6
CONTINUOUS
10
170.385
20
-70.8675
11
170.705
21
-70.9096
0
LINE
8
BLACK
6
CONTINUOUS
10
170.705
20
-70.9096
11
171.017
21
-70.9881
0
LINE
8
BLACK
6
CONTINUOUS
10
171.017
20
-70.9881
11
171.319
21
-71.1021
0
LINE
8
BLACK
6
CONTINUOUS
10
171.319
20
-71.1021
11
171.605
21
-71.2499
0
LINE
8
BLACK
6
CONTINUOUS
10
171.605
20
-71.2499
11
171.873
21
-71.4297
0
LINE
8
BLACK
6
CONTINUOUS
10
171.873
20
-71.4297
11
172.118
21
-71.6391
0
LINE
8
BLACK
6
CONTINUOUS
10
172.118
20
-71.6391
11
172.337
21
-71.8752
0
LINE
8
BLACK
6
CONTINUOUS
10
172.337
20
-71.8752
11
172.528
21
-72.135
0
LINE
8
BLACK
6
CONTINUOUS
10
172.528
20
-72.135
11
172.688
21
-72.415
0
LINE
8
BLACK
6
CONTINUOUS
10
172.688
20
-72.415
11
172.814
21
-72.7115
0
LINE
8
BLACK
6
CONTINUOUS
10
172.814
20
-72.7115
11
172.906
21
-73.0206
0
LINE
8
BLACK
6
CONTINUOUS
10
172.906
20
-73.0206
11
172.961
21
-73.3382
0
LINE
8
BLACK
6
CONTINUOUS
10
172.961
20
-73.3382
11
172.98
21
-73.66
0
LINE
8
BLACK
6
CONTINUOUS
10
172.98
20
-73.66
11
172.974
21
-73.8358
0
LINE
8
BLACK
6
CONTINUOUS
10
172.974
20
-73.8358
11
172.936
21
-74.1558
0
LINE
8
BLACK
6
CONTINUOUS
10
172.936
20
-74.1558
11
172.86
21
-74.4693
0
LINE
8
BLACK
6
CONTINUOUS
10
172.86
20
-74.4693
11
172.75
21
-74.772
0
LINE
8
BLACK
6
CONTINUOUS
10
172.75
20
-74.772
11
172.605
21
-75.06
0
LINE
8
BLACK
6
CONTINUOUS
10
172.605
20
-75.06
11
172.428
21
-75.3294
0
LINE
8
BLACK
6
CONTINUOUS
10
172.428
20
-75.3294
11
172.221
21
-75.5767
0
LINE
8
BLACK
6
CONTINUOUS
10
172.221
20
-75.5767
11
171.987
21
-75.7986
0
LINE
8
BLACK
6
CONTINUOUS
10
171.987
20
-75.7986
11
171.729
21
-75.9922
0
LINE
8
BLACK
6
CONTINUOUS
10
171.729
20
-75.9922
11
171.451
21
-76.1548
0
LINE
8
BLACK
6
CONTINUOUS
10
171.451
20
-76.1548
11
171.156
21
-76.2844
0
LINE
8
BLACK
6
CONTINUOUS
10
171.156
20
-76.2844
11
170.848
21
-76.3792
0
LINE
8
BLACK
6
CONTINUOUS
10
170.848
20
-76.3792
11
170.531
21
-76.4379
0
LINE
8
BLACK
6
CONTINUOUS
10
170.531
20
-76.4379
11
170.209
21
-76.4598
0
LINE
8
BLACK
6
CONTINUOUS
10
170.209
20
-76.4598
11
169.887
21
-76.4447
0
LINE
8
BLACK
6
CONTINUOUS
10
169.887
20
-76.4447
11
169.569
21
-76.3926
0
LINE
8
BLACK
6
CONTINUOUS
10
169.569
20
-76.3926
11
169.259
21
-76.3043
0
LINE
8
BLACK
6
CONTINUOUS
10
169.259
20
-76.3043
11
168.961
21
-76.1809
0
LINE
8
BLACK
6
CONTINUOUS
10
168.961
20
-76.1809
11
168.68
21
-76.0241
0
LINE
8
BLACK
6
CONTINUOUS
10
168.68
20
-76.0241
11
168.418
21
-75.836
0
LINE
8
BLACK
6
CONTINUOUS
10
168.418
20
-75.836
11
168.179
21
-75.6191
0
LINE
8
BLACK
6
CONTINUOUS
10
168.179
20
-75.6191
11
167.968
21
-75.3761
0
LINE
8
BLACK
6
CONTINUOUS
10
167.968
20
-75.3761
11
167.785
21
-75.1105
0
LINE
8
BLACK
6
CONTINUOUS
10
167.785
20
-75.1105
11
167.634
21
-74.8256
0
LINE
8
BLACK
6
CONTINUOUS
10
167.634
20
-74.8256
11
167.517
21
-74.5252
0
LINE
8
BLACK
6
CONTINUOUS
10
167.517
20
-74.5252
11
167.435
21
-74.2134
0
LINE
8
BLACK
6
CONTINUOUS
10
167.435
20
-74.2134
11
167.39
21
-73.8943
0
LINE
8
BLACK
6
CONTINUOUS
10
167.39
20
-73.8943
11
167.381
21
-73.5721
0
LINE
8
BLACK
6
CONTINUOUS
10
167.381
20
-73.5721
11
167.41
21
-73.251
0
LINE
8
BLACK
6
CONTINUOUS
10
167.41
20
-73.251
11
167.475
21
-72.9353
0
LINE
8
BLACK
6
CONTINUOUS
10
167.475
20
-72.9353
11
167.577
21
-72.6293
0
LINE
8
BLACK
6
CONTINUOUS
10
167.577
20
-72.6293
11
167.712
21
-72.3369
0
LINE
8
BLACK
6
CONTINUOUS
10
167.712
20
-72.3369
11
167.881
21
-72.062
0
LINE
8
BLACK
6
CONTINUOUS
10
167.881
20
-72.062
11
168.08
21
-71.8083
0
LINE
8
BLACK
6
CONTINUOUS
10
168.08
20
-71.8083
11
168.306
21
-71.5792
0
LINE
8
BLACK
6
CONTINUOUS
10
168.306
20
-71.5792
11
168.558
21
-71.3776
0
LINE
8
BLACK
6
CONTINUOUS
10
168.558
20
-71.3776
11
168.831
21
-71.2063
0
LINE
8
BLACK
6
CONTINUOUS
10
168.831
20
-71.2063
11
169.122
21
-71.0676
0
LINE
8
BLACK
6
CONTINUOUS
10
169.122
20
-71.0676
11
169.427
21
-70.9631
0
LINE
8
BLACK
6
CONTINUOUS
10
169.427
20
-70.9631
11
169.742
21
-70.8945
0
LINE
8
BLACK
6
CONTINUOUS
10
169.742
20
-70.8945
11
170.063
21
-70.8625
0
LINE
8
BLACK
6
CONTINUOUS
10
170.063
20
-70.8625
11
170.385
21
-70.8675
0
LINE
8
BLACK
6
CONTINUOUS
10
125.935
20
-70.8675
11
126.255
21
-70.9096
0
LINE
8
BLACK
6
CONTINUOUS
10
126.255
20
-70.9096
11
126.567
21
-70.9881
0
LINE
8
BLACK
6
CONTINUOUS
10
126.567
20
-70.9881
11
126.869
21
-71.1021
0
LINE
8
BLACK
6
CONTINUOUS
10
126.869
20
-71.1021
11
127.155
21
-71.2499
0
LINE
8
BLACK
6
CONTINUOUS
10
127.155
20
-71.2499
11
127.423
21
-71.4297
0
LINE
8
BLACK
6
CONTINUOUS
10
127.423
20
-71.4297
11
127.668
21
-71.6391
0
LINE
8
BLACK
6
CONTINUOUS
10
127.668
20
-71.6391
11
127.887
21
-71.8752
0
LINE
8
BLACK
6
CONTINUOUS
10
127.887
20
-71.8752
11
128.078
21
-72.135
0
LINE
8
BLACK
6
CONTINUOUS
10
128.078
20
-72.135
11
128.238
21
-72.415
0
LINE
8
BLACK
6
CONTINUOUS
10
128.238
20
-72.415
11
128.364
21
-72.7115
0
LINE
8
BLACK
6
CONTINUOUS
10
128.364
20
-72.7115
11
128.456
21
-73.0206
0
LINE
8
BLACK
6
CONTINUOUS
10
128.456
20
-73.0206
11
128.511
21
-73.3382
0
LINE
8
BLACK
6
CONTINUOUS
10
128.511
20
-73.3382
11
128.53
21
-73.66
0
LINE
8
BLACK
6
CONTINUOUS
10
128.53
20
-73.66
11
128.524
21
-73.8358
0
LINE
8
BLACK
6
CONTINUOUS
10
128.524
20
-73.8358
11
128.486
21
-74.1558
0
LINE
8
BLACK
6
CONTINUOUS
10
128.486
20
-74.1558
11
128.41
21
-74.4693
0
LINE
8
BLACK
6
CONTINUOUS
10
128.41
20
-74.4693
11
128.3
21
-74.772
0
LINE
8
BLACK
6
CONTINUOUS
10
128.3
20
-74.772
11
128.155
21
-75.06
0
LINE
8
BLACK
6
CONTINUOUS
10
128.155
20
-75.06
11
127.978
21
-75.3294
0
LINE
8
BLACK
6
CONTINUOUS
10
127.978
20
-75.3294
11
127.771
21
-75.5767
0
LINE
8
BLACK
6
CONTINUOUS
10
127.771
20
-75.5767
11
127.537
21
-75.7986
0
LINE
8
BLACK
6
CONTINUOUS
10
127.537
20
-75.7986
11
127.279
21
-75.9922
0
LINE
8
BLACK
6
CONTINUOUS
10
127.279
20
-75.9922
11
127.001
21
-76.1548
0
LINE
8
BLACK
6
CONTINUOUS
10
127.001
20
-76.1548
11
126.706
21
-76.2844
0
LINE
8
BLACK
6
CONTINUOUS
10
126.706
20
-76.2844
11
126.398
21
-76.3792
0
LINE
8
BLACK
6
CONTINUOUS
10
126.398
20
-76.3792
11
126.081
21
-76.4379
0
LINE
8
BLACK
6
CONTINUOUS
10
126.081
20
-76.4379
11
125.759
21
-76.4598
0
LINE
8
BLACK
6
CONTINUOUS
10
125.759
20
-76.4598
11
125.437
21
-76.4447
0
LINE
8
BLACK
6
CONTINUOUS
10
125.437
20
-76.4447
11
125.119
21
-76.3926
0
LINE
8
BLACK
6
CONTINUOUS
10
125.119
20
-76.3926
11
124.809
21
-76.3043
0
LINE
8
BLACK
6
CONTINUOUS
10
124.809
20
-76.3043
11
124.511
21
-76.1809
0
LINE
8
BLACK
6
CONTINUOUS
10
124.511
20
-76.1809
11
124.23
21
-76.0241
0
LINE
8
BLACK
6
CONTINUOUS
10
124.23
20
-76.0241
11
123.968
21
-75.836
0
LINE
8
BLACK
6
CONTINUOUS
10
123.968
20
-75.836
11
123.729
21
-75.6191
0
LINE
8
BLACK
6
CONTINUOUS
10
123.729
20
-75.6191
11
123.518
21
-75.3761
0
LINE
8
BLACK
6
CONTINUOUS
10
123.518
20
-75.3761
11
123.335
21
-75.1105
0
LINE
8
BLACK
6
CONTINUOUS
10
123.335
20
-75.1105
11
123.184
21
-74.8256
0
LINE
8
BLACK
6
CONTINUOUS
10
123.184
20
-74.8256
11
123.067
21
-74.5252
0
LINE
8
BLACK
6
CONTINUOUS
10
123.067
20
-74.5252
11
122.985
21
-74.2134
0
LINE
8
BLACK
6
CONTINUOUS
10
122.985
20
-74.2134
11
122.94
21
-73.8943
0
LINE
8
BLACK
6
CONTINUOUS
10
122.94
20
-73.8943
11
122.931
21
-73.5721
0
LINE
8
BLACK
6
CONTINUOUS
10
122.931
20
-73.5721
11
122.96
21
-73.251
0
LINE
8
BLACK
6
CONTINUOUS
10
122.96
20
-73.251
11
123.025
21
-72.9353
0
LINE
8
BLACK
6
CONTINUOUS
10
123.025
20
-72.9353
11
123.127
21
-72.6293
0
LINE
8
BLACK
6
CONTINUOUS
10
123.127
20
-72.6293
11
123.262
21
-72.3369
0
LINE
8
BLACK
6
CONTINUOUS
10
123.262
20
-72.3369
11
123.431
21
-72.062
0
LINE
8
BLACK
6
CONTINUOUS
10
123.431
20
-72.062
11
123.63
21
-71.8083
0
LINE
8
BLACK
6
CONTINUOUS
10
123.63
20
-71.8083
11
123.856
21
-71.5792
0
LINE
8
BLACK
6
CONTINUOUS
10
123.856
20
-71.5792
11
124.108
21
-71.3776
0
LINE
8
BLACK
6
CONTINUOUS
10
124.108
20
-71.3776
11
124.381
21
-71.2063
0
LINE
8
BLACK
6
CONTINUOUS
10
124.381
20
-71.2063
11
124.672
21
-71.0676
0
LINE
8
BLACK
6
CONTINUOUS
10
124.672
20
-71.0676
11
124.977
21
-70.9631
0
LINE
8
BLACK
6
CONTINUOUS
10
124.977
20
-70.9631
11
125.292
21
-70.8945
0
LINE
8
BLACK
6
CONTINUOUS
10
125.292
20
-70.8945
11
125.613
21
-70.8625
0
LINE
8
BLACK
6
CONTINUOUS
10
125.613
20
-70.8625
11
125.935
21
-70.8675
  0
ENDSEC
  0
EOF
