M48
; DRILL file {KiCad 6.0.5+dfsg-1~bpo11+1} date Sat Aug 13 15:25:21 2022
; FORMAT={-:-/ absolute / metric / decimal}
; #@! TF.CreationDate,2022-08-13T15:25:21+00:00
; #@! TF.GenerationSoftware,Kicad,Pcbnew,6.0.5+dfsg-1~bpo11+1
; #@! TF.FileFunction,Plated,1,2,PTH
FMAT,2
METRIC
; #@! TA.AperFunction,Plated,PTH,ViaDrill
T1C0.500
; #@! TA.AperFunction,Plated,PTH,ComponentDrill
T2C0.900
; #@! TA.AperFunction,Plated,PTH,ComponentDrill
T3C1.000
; #@! TA.AperFunction,Plated,PTH,ComponentDrill
T4C1.190
; #@! TA.AperFunction,Plated,PTH,ComponentDrill
T5C3.200
%
G90
G05
T1
X63.5Y-137.16
X73.66Y-137.16
X83.82Y-137.16
X93.98Y-137.16
X96.52Y-128.554
X104.14Y-137.16
X106.68Y-127.754
X114.3Y-137.16
X116.882Y-129.353
X124.46Y-137.16
X134.62Y-137.16
X144.78Y-137.16
X154.94Y-137.16
X165.1Y-137.16
X175.26Y-137.16
X185.42Y-137.16
X195.58Y-137.16
X203.962Y-128.249
X205.74Y-138.43
X209.55Y-130.048
X211.074Y-130.048
X212.374Y-130.061
X212.852Y-132.478
X213.542Y-130.374
X215.646Y-127.762
X215.9Y-138.43
X216.408Y-129.032
X217.872Y-128.949
X218.186Y-119.126
X219.119Y-129.226
X220.609Y-129.677
X221.803Y-128.992
X223.421Y-127.897
X224.911Y-125.118
X226.06Y-138.43
X236.22Y-138.43
X246.38Y-137.16
X256.54Y-137.16
X266.7Y-137.16
X276.86Y-137.16
X287.02Y-137.16
X297.18Y-137.16
X307.34Y-137.16
X317.5Y-137.16
X327.66Y-137.16
X337.82Y-137.16
X347.98Y-137.16
X358.14Y-137.16
X368.3Y-137.16
X378.46Y-137.16
X388.62Y-137.16
T2
X25.239Y-116.551
X25.239Y-119.091
X50.639Y-116.551
X50.639Y-119.091
X76.039Y-116.551
X76.039Y-119.091
X101.439Y-116.551
X101.439Y-119.091
X126.839Y-116.551
X126.839Y-119.091
X152.239Y-116.551
X152.239Y-119.091
X177.639Y-116.551
X177.639Y-119.091
X203.039Y-116.551
X203.039Y-119.091
X228.439Y-116.551
X228.439Y-119.091
X253.839Y-116.551
X253.839Y-119.091
X279.239Y-116.551
X279.239Y-119.091
X304.639Y-116.551
X304.639Y-119.091
X330.039Y-116.551
X330.039Y-119.091
X355.439Y-116.551
X355.439Y-119.091
X380.839Y-116.551
X380.839Y-119.091
X406.239Y-116.551
X406.239Y-119.091
T3
X96.52Y-133.985
X106.68Y-133.985
X116.84Y-133.985
X127.0Y-133.985
T4
X17.78Y-111.76
X17.78Y-114.3
X17.78Y-121.92
X17.78Y-124.46
X17.78Y-127.0
X17.78Y-129.54
X17.78Y-132.08
X17.78Y-134.62
X370.84Y-111.76
X373.38Y-111.76
X384.81Y-111.76
X387.35Y-111.76
X413.859Y-111.76
X413.859Y-114.3
X413.859Y-121.92
X413.859Y-124.46
X413.859Y-127.0
X413.859Y-129.54
X413.859Y-132.08
X413.859Y-134.62
T5
X38.1Y-110.49
X38.1Y-135.89
X88.9Y-110.49
X88.9Y-135.89
X139.7Y-110.49
X139.7Y-135.89
X190.5Y-110.49
X190.5Y-135.89
X241.3Y-110.49
X241.3Y-135.89
X292.1Y-110.49
X292.1Y-135.89
X342.9Y-110.49
X342.9Y-135.89
X393.7Y-110.49
X393.7Y-135.89
T0
M30
