G04 #@! TF.GenerationSoftware,KiCad,Pcbnew,6.0.5+dfsg-1~bpo11+1*
G04 #@! TF.CreationDate,2022-08-13T15:25:21+00:00*
G04 #@! TF.ProjectId,led_breakout,6c65645f-6272-4656-916b-6f75742e6b69,0.1*
G04 #@! TF.SameCoordinates,Original*
G04 #@! TF.FileFunction,Legend,Top*
G04 #@! TF.FilePolarity,Positive*
%FSLAX46Y46*%
G04 Gerber Fmt 4.6, Leading zero omitted, Abs format (unit mm)*
G04 Created by KiCad (PCBNEW 6.0.5+dfsg-1~bpo11+1) date 2022-08-13 15:25:21*
%MOMM*%
%LPD*%
G01*
G04 APERTURE LIST*
%ADD10C,0.150000*%
%ADD11C,0.120000*%
%ADD12C,5.600000*%
%ADD13R,1.800000X1.800000*%
%ADD14C,1.800000*%
%ADD15C,2.000000*%
%ADD16O,2.190000X1.740000*%
%ADD17O,1.740000X2.190000*%
G04 APERTURE END LIST*
D10*
X223543904Y-118273359D02*
X223543904Y-117273359D01*
X223782000Y-117273359D01*
X223924857Y-117320979D01*
X224020095Y-117416217D01*
X224067714Y-117511455D01*
X224115333Y-117701931D01*
X224115333Y-117844788D01*
X224067714Y-118035264D01*
X224020095Y-118130502D01*
X223924857Y-118225740D01*
X223782000Y-118273359D01*
X223543904Y-118273359D01*
X224686761Y-117701931D02*
X224591523Y-117654312D01*
X224543904Y-117606693D01*
X224496285Y-117511455D01*
X224496285Y-117463836D01*
X224543904Y-117368598D01*
X224591523Y-117320979D01*
X224686761Y-117273359D01*
X224877238Y-117273359D01*
X224972476Y-117320979D01*
X225020095Y-117368598D01*
X225067714Y-117463836D01*
X225067714Y-117511455D01*
X225020095Y-117606693D01*
X224972476Y-117654312D01*
X224877238Y-117701931D01*
X224686761Y-117701931D01*
X224591523Y-117749550D01*
X224543904Y-117797169D01*
X224496285Y-117892407D01*
X224496285Y-118082883D01*
X224543904Y-118178121D01*
X224591523Y-118225740D01*
X224686761Y-118273359D01*
X224877238Y-118273359D01*
X224972476Y-118225740D01*
X225020095Y-118178121D01*
X225067714Y-118082883D01*
X225067714Y-117892407D01*
X225020095Y-117797169D01*
X224972476Y-117749550D01*
X224877238Y-117701931D01*
X147343904Y-118273359D02*
X147343904Y-117273359D01*
X147582000Y-117273359D01*
X147724857Y-117320979D01*
X147820095Y-117416217D01*
X147867714Y-117511455D01*
X147915333Y-117701931D01*
X147915333Y-117844788D01*
X147867714Y-118035264D01*
X147820095Y-118130502D01*
X147724857Y-118225740D01*
X147582000Y-118273359D01*
X147343904Y-118273359D01*
X148820095Y-117273359D02*
X148343904Y-117273359D01*
X148296285Y-117749550D01*
X148343904Y-117701931D01*
X148439142Y-117654312D01*
X148677238Y-117654312D01*
X148772476Y-117701931D01*
X148820095Y-117749550D01*
X148867714Y-117844788D01*
X148867714Y-118082883D01*
X148820095Y-118178121D01*
X148772476Y-118225740D01*
X148677238Y-118273359D01*
X148439142Y-118273359D01*
X148343904Y-118225740D01*
X148296285Y-118178121D01*
X400359714Y-118273359D02*
X400359714Y-117273359D01*
X400597809Y-117273359D01*
X400740666Y-117320979D01*
X400835904Y-117416217D01*
X400883523Y-117511455D01*
X400931142Y-117701931D01*
X400931142Y-117844788D01*
X400883523Y-118035264D01*
X400835904Y-118130502D01*
X400740666Y-118225740D01*
X400597809Y-118273359D01*
X400359714Y-118273359D01*
X401883523Y-118273359D02*
X401312095Y-118273359D01*
X401597809Y-118273359D02*
X401597809Y-117273359D01*
X401502571Y-117416217D01*
X401407333Y-117511455D01*
X401312095Y-117559074D01*
X402788285Y-117273359D02*
X402312095Y-117273359D01*
X402264476Y-117749550D01*
X402312095Y-117701931D01*
X402407333Y-117654312D01*
X402645428Y-117654312D01*
X402740666Y-117701931D01*
X402788285Y-117749550D01*
X402835904Y-117844788D01*
X402835904Y-118082883D01*
X402788285Y-118178121D01*
X402740666Y-118225740D01*
X402645428Y-118273359D01*
X402407333Y-118273359D01*
X402312095Y-118225740D01*
X402264476Y-118178121D01*
X96543904Y-118308380D02*
X96543904Y-117308380D01*
X96782000Y-117308380D01*
X96924857Y-117356000D01*
X97020095Y-117451238D01*
X97067714Y-117546476D01*
X97115333Y-117736952D01*
X97115333Y-117879809D01*
X97067714Y-118070285D01*
X97020095Y-118165523D01*
X96924857Y-118260761D01*
X96782000Y-118308380D01*
X96543904Y-118308380D01*
X97448666Y-117308380D02*
X98067714Y-117308380D01*
X97734380Y-117689333D01*
X97877238Y-117689333D01*
X97972476Y-117736952D01*
X98020095Y-117784571D01*
X98067714Y-117879809D01*
X98067714Y-118117904D01*
X98020095Y-118213142D01*
X97972476Y-118260761D01*
X97877238Y-118308380D01*
X97591523Y-118308380D01*
X97496285Y-118260761D01*
X97448666Y-118213142D01*
X121943904Y-118273359D02*
X121943904Y-117273359D01*
X122182000Y-117273359D01*
X122324857Y-117320979D01*
X122420095Y-117416217D01*
X122467714Y-117511455D01*
X122515333Y-117701931D01*
X122515333Y-117844788D01*
X122467714Y-118035264D01*
X122420095Y-118130502D01*
X122324857Y-118225740D01*
X122182000Y-118273359D01*
X121943904Y-118273359D01*
X123372476Y-117606693D02*
X123372476Y-118273359D01*
X123134380Y-117225740D02*
X122896285Y-117940026D01*
X123515333Y-117940026D01*
X248943904Y-118273359D02*
X248943904Y-117273359D01*
X249182000Y-117273359D01*
X249324857Y-117320979D01*
X249420095Y-117416217D01*
X249467714Y-117511455D01*
X249515333Y-117701931D01*
X249515333Y-117844788D01*
X249467714Y-118035264D01*
X249420095Y-118130502D01*
X249324857Y-118225740D01*
X249182000Y-118273359D01*
X248943904Y-118273359D01*
X249991523Y-118273359D02*
X250182000Y-118273359D01*
X250277238Y-118225740D01*
X250324857Y-118178121D01*
X250420095Y-118035264D01*
X250467714Y-117844788D01*
X250467714Y-117463836D01*
X250420095Y-117368598D01*
X250372476Y-117320979D01*
X250277238Y-117273359D01*
X250086761Y-117273359D01*
X249991523Y-117320979D01*
X249943904Y-117368598D01*
X249896285Y-117463836D01*
X249896285Y-117701931D01*
X249943904Y-117797169D01*
X249991523Y-117844788D01*
X250086761Y-117892407D01*
X250277238Y-117892407D01*
X250372476Y-117844788D01*
X250420095Y-117797169D01*
X250467714Y-117701931D01*
X172743904Y-118273359D02*
X172743904Y-117273359D01*
X172982000Y-117273359D01*
X173124857Y-117320979D01*
X173220095Y-117416217D01*
X173267714Y-117511455D01*
X173315333Y-117701931D01*
X173315333Y-117844788D01*
X173267714Y-118035264D01*
X173220095Y-118130502D01*
X173124857Y-118225740D01*
X172982000Y-118273359D01*
X172743904Y-118273359D01*
X174172476Y-117273359D02*
X173982000Y-117273359D01*
X173886761Y-117320979D01*
X173839142Y-117368598D01*
X173743904Y-117511455D01*
X173696285Y-117701931D01*
X173696285Y-118082883D01*
X173743904Y-118178121D01*
X173791523Y-118225740D01*
X173886761Y-118273359D01*
X174077238Y-118273359D01*
X174172476Y-118225740D01*
X174220095Y-118178121D01*
X174267714Y-118082883D01*
X174267714Y-117844788D01*
X174220095Y-117749550D01*
X174172476Y-117701931D01*
X174077238Y-117654312D01*
X173886761Y-117654312D01*
X173791523Y-117701931D01*
X173743904Y-117749550D01*
X173696285Y-117844788D01*
X349559714Y-118273359D02*
X349559714Y-117273359D01*
X349797809Y-117273359D01*
X349940666Y-117320979D01*
X350035904Y-117416217D01*
X350083523Y-117511455D01*
X350131142Y-117701931D01*
X350131142Y-117844788D01*
X350083523Y-118035264D01*
X350035904Y-118130502D01*
X349940666Y-118225740D01*
X349797809Y-118273359D01*
X349559714Y-118273359D01*
X351083523Y-118273359D02*
X350512095Y-118273359D01*
X350797809Y-118273359D02*
X350797809Y-117273359D01*
X350702571Y-117416217D01*
X350607333Y-117511455D01*
X350512095Y-117559074D01*
X351416857Y-117273359D02*
X352035904Y-117273359D01*
X351702571Y-117654312D01*
X351845428Y-117654312D01*
X351940666Y-117701931D01*
X351988285Y-117749550D01*
X352035904Y-117844788D01*
X352035904Y-118082883D01*
X351988285Y-118178121D01*
X351940666Y-118225740D01*
X351845428Y-118273359D01*
X351559714Y-118273359D01*
X351464476Y-118225740D01*
X351416857Y-118178121D01*
X298759714Y-118308380D02*
X298759714Y-117308380D01*
X298997809Y-117308380D01*
X299140666Y-117356000D01*
X299235904Y-117451238D01*
X299283523Y-117546476D01*
X299331142Y-117736952D01*
X299331142Y-117879809D01*
X299283523Y-118070285D01*
X299235904Y-118165523D01*
X299140666Y-118260761D01*
X298997809Y-118308380D01*
X298759714Y-118308380D01*
X300283523Y-118308380D02*
X299712095Y-118308380D01*
X299997809Y-118308380D02*
X299997809Y-117308380D01*
X299902571Y-117451238D01*
X299807333Y-117546476D01*
X299712095Y-117594095D01*
X301235904Y-118308380D02*
X300664476Y-118308380D01*
X300950190Y-118308380D02*
X300950190Y-117308380D01*
X300854952Y-117451238D01*
X300759714Y-117546476D01*
X300664476Y-117594095D01*
X45743904Y-118273359D02*
X45743904Y-117273359D01*
X45982000Y-117273359D01*
X46124857Y-117320979D01*
X46220095Y-117416217D01*
X46267714Y-117511455D01*
X46315333Y-117701931D01*
X46315333Y-117844788D01*
X46267714Y-118035264D01*
X46220095Y-118130502D01*
X46124857Y-118225740D01*
X45982000Y-118273359D01*
X45743904Y-118273359D01*
X47267714Y-118273359D02*
X46696285Y-118273359D01*
X46982000Y-118273359D02*
X46982000Y-117273359D01*
X46886761Y-117416217D01*
X46791523Y-117511455D01*
X46696285Y-117559074D01*
X324159714Y-118273359D02*
X324159714Y-117273359D01*
X324397809Y-117273359D01*
X324540666Y-117320979D01*
X324635904Y-117416217D01*
X324683523Y-117511455D01*
X324731142Y-117701931D01*
X324731142Y-117844788D01*
X324683523Y-118035264D01*
X324635904Y-118130502D01*
X324540666Y-118225740D01*
X324397809Y-118273359D01*
X324159714Y-118273359D01*
X325683523Y-118273359D02*
X325112095Y-118273359D01*
X325397809Y-118273359D02*
X325397809Y-117273359D01*
X325302571Y-117416217D01*
X325207333Y-117511455D01*
X325112095Y-117559074D01*
X326064476Y-117368598D02*
X326112095Y-117320979D01*
X326207333Y-117273359D01*
X326445428Y-117273359D01*
X326540666Y-117320979D01*
X326588285Y-117368598D01*
X326635904Y-117463836D01*
X326635904Y-117559074D01*
X326588285Y-117701931D01*
X326016857Y-118273359D01*
X326635904Y-118273359D01*
X20343904Y-118273359D02*
X20343904Y-117273359D01*
X20582000Y-117273359D01*
X20724857Y-117320979D01*
X20820095Y-117416217D01*
X20867714Y-117511455D01*
X20915333Y-117701931D01*
X20915333Y-117844788D01*
X20867714Y-118035264D01*
X20820095Y-118130502D01*
X20724857Y-118225740D01*
X20582000Y-118273359D01*
X20343904Y-118273359D01*
X21534380Y-117273359D02*
X21629619Y-117273359D01*
X21724857Y-117320979D01*
X21772476Y-117368598D01*
X21820095Y-117463836D01*
X21867714Y-117654312D01*
X21867714Y-117892407D01*
X21820095Y-118082883D01*
X21772476Y-118178121D01*
X21724857Y-118225740D01*
X21629619Y-118273359D01*
X21534380Y-118273359D01*
X21439142Y-118225740D01*
X21391523Y-118178121D01*
X21343904Y-118082883D01*
X21296285Y-117892407D01*
X21296285Y-117654312D01*
X21343904Y-117463836D01*
X21391523Y-117368598D01*
X21439142Y-117320979D01*
X21534380Y-117273359D01*
X273359714Y-118273359D02*
X273359714Y-117273359D01*
X273597809Y-117273359D01*
X273740666Y-117320979D01*
X273835904Y-117416217D01*
X273883523Y-117511455D01*
X273931142Y-117701931D01*
X273931142Y-117844788D01*
X273883523Y-118035264D01*
X273835904Y-118130502D01*
X273740666Y-118225740D01*
X273597809Y-118273359D01*
X273359714Y-118273359D01*
X274883523Y-118273359D02*
X274312095Y-118273359D01*
X274597809Y-118273359D02*
X274597809Y-117273359D01*
X274502571Y-117416217D01*
X274407333Y-117511455D01*
X274312095Y-117559074D01*
X275502571Y-117273359D02*
X275597809Y-117273359D01*
X275693047Y-117320979D01*
X275740666Y-117368598D01*
X275788285Y-117463836D01*
X275835904Y-117654312D01*
X275835904Y-117892407D01*
X275788285Y-118082883D01*
X275740666Y-118178121D01*
X275693047Y-118225740D01*
X275597809Y-118273359D01*
X275502571Y-118273359D01*
X275407333Y-118225740D01*
X275359714Y-118178121D01*
X275312095Y-118082883D01*
X275264476Y-117892407D01*
X275264476Y-117654312D01*
X275312095Y-117463836D01*
X275359714Y-117368598D01*
X275407333Y-117320979D01*
X275502571Y-117273359D01*
X71143904Y-118273359D02*
X71143904Y-117273359D01*
X71382000Y-117273359D01*
X71524857Y-117320979D01*
X71620095Y-117416217D01*
X71667714Y-117511455D01*
X71715333Y-117701931D01*
X71715333Y-117844788D01*
X71667714Y-118035264D01*
X71620095Y-118130502D01*
X71524857Y-118225740D01*
X71382000Y-118273359D01*
X71143904Y-118273359D01*
X72096285Y-117368598D02*
X72143904Y-117320979D01*
X72239142Y-117273359D01*
X72477238Y-117273359D01*
X72572476Y-117320979D01*
X72620095Y-117368598D01*
X72667714Y-117463836D01*
X72667714Y-117559074D01*
X72620095Y-117701931D01*
X72048666Y-118273359D01*
X72667714Y-118273359D01*
X198143904Y-118273359D02*
X198143904Y-117273359D01*
X198382000Y-117273359D01*
X198524857Y-117320979D01*
X198620095Y-117416217D01*
X198667714Y-117511455D01*
X198715333Y-117701931D01*
X198715333Y-117844788D01*
X198667714Y-118035264D01*
X198620095Y-118130502D01*
X198524857Y-118225740D01*
X198382000Y-118273359D01*
X198143904Y-118273359D01*
X199048666Y-117273359D02*
X199715333Y-117273359D01*
X199286761Y-118273359D01*
X374705714Y-118273359D02*
X374705714Y-117273359D01*
X374943809Y-117273359D01*
X375086666Y-117320979D01*
X375181904Y-117416217D01*
X375229523Y-117511455D01*
X375277142Y-117701931D01*
X375277142Y-117844788D01*
X375229523Y-118035264D01*
X375181904Y-118130502D01*
X375086666Y-118225740D01*
X374943809Y-118273359D01*
X374705714Y-118273359D01*
X376229523Y-118273359D02*
X375658095Y-118273359D01*
X375943809Y-118273359D02*
X375943809Y-117273359D01*
X375848571Y-117416217D01*
X375753333Y-117511455D01*
X375658095Y-117559074D01*
X377086666Y-117606693D02*
X377086666Y-118273359D01*
X376848571Y-117225740D02*
X376610476Y-117940026D01*
X377229523Y-117940026D01*
D11*
X226894032Y-120380979D02*
X229984032Y-120380979D01*
X229983862Y-120380979D02*
G75*
G03*
X228438570Y-114830979I-1544830J2560000D01*
G01*
X228439494Y-114830979D02*
G75*
G03*
X226894202Y-120380979I-462J-2990000D01*
G01*
X230939032Y-117820979D02*
G75*
G03*
X230939032Y-117820979I-2500000J0D01*
G01*
X150694032Y-120380979D02*
X153784032Y-120380979D01*
X153783862Y-120380979D02*
G75*
G03*
X152238570Y-114830979I-1544830J2560000D01*
G01*
X152239494Y-114830979D02*
G75*
G03*
X150694202Y-120380979I-462J-2990000D01*
G01*
X154739032Y-117820979D02*
G75*
G03*
X154739032Y-117820979I-2500000J0D01*
G01*
X404694032Y-120380979D02*
X407784032Y-120380979D01*
X406239494Y-114830979D02*
G75*
G03*
X404694202Y-120380979I-462J-2990000D01*
G01*
X407783862Y-120380979D02*
G75*
G03*
X406238570Y-114830979I-1544830J2560000D01*
G01*
X408739032Y-117820979D02*
G75*
G03*
X408739032Y-117820979I-2500000J0D01*
G01*
X99894032Y-120380979D02*
X102984032Y-120380979D01*
X101439494Y-114830979D02*
G75*
G03*
X99894202Y-120380979I-462J-2990000D01*
G01*
X102983862Y-120380979D02*
G75*
G03*
X101438570Y-114830979I-1544830J2560000D01*
G01*
X103939032Y-117820979D02*
G75*
G03*
X103939032Y-117820979I-2500000J0D01*
G01*
X125294032Y-120380979D02*
X128384032Y-120380979D01*
X128383862Y-120380979D02*
G75*
G03*
X126838570Y-114830979I-1544830J2560000D01*
G01*
X126839494Y-114830979D02*
G75*
G03*
X125294202Y-120380979I-462J-2990000D01*
G01*
X129339032Y-117820979D02*
G75*
G03*
X129339032Y-117820979I-2500000J0D01*
G01*
X252294032Y-120380979D02*
X255384032Y-120380979D01*
X253839494Y-114830979D02*
G75*
G03*
X252294202Y-120380979I-462J-2990000D01*
G01*
X255383862Y-120380979D02*
G75*
G03*
X253838570Y-114830979I-1544830J2560000D01*
G01*
X256339032Y-117820979D02*
G75*
G03*
X256339032Y-117820979I-2500000J0D01*
G01*
X176094032Y-120380979D02*
X179184032Y-120380979D01*
X177639494Y-114830979D02*
G75*
G03*
X176094202Y-120380979I-462J-2990000D01*
G01*
X179183862Y-120380979D02*
G75*
G03*
X177638570Y-114830979I-1544830J2560000D01*
G01*
X180139032Y-117820979D02*
G75*
G03*
X180139032Y-117820979I-2500000J0D01*
G01*
X353894032Y-120380979D02*
X356984032Y-120380979D01*
X356983862Y-120380979D02*
G75*
G03*
X355438570Y-114830979I-1544830J2560000D01*
G01*
X355439494Y-114830979D02*
G75*
G03*
X353894202Y-120380979I-462J-2990000D01*
G01*
X357939032Y-117820979D02*
G75*
G03*
X357939032Y-117820979I-2500000J0D01*
G01*
X303094032Y-120380979D02*
X306184032Y-120380979D01*
X306183862Y-120380979D02*
G75*
G03*
X304638570Y-114830979I-1544830J2560000D01*
G01*
X304639494Y-114830979D02*
G75*
G03*
X303094202Y-120380979I-462J-2990000D01*
G01*
X307139032Y-117820979D02*
G75*
G03*
X307139032Y-117820979I-2500000J0D01*
G01*
X49094032Y-120380979D02*
X52184032Y-120380979D01*
X52183862Y-120380979D02*
G75*
G03*
X50638570Y-114830979I-1544830J2560000D01*
G01*
X50639494Y-114830979D02*
G75*
G03*
X49094202Y-120380979I-462J-2990000D01*
G01*
X53139032Y-117820979D02*
G75*
G03*
X53139032Y-117820979I-2500000J0D01*
G01*
X328494032Y-120380979D02*
X331584032Y-120380979D01*
X330039494Y-114830979D02*
G75*
G03*
X328494202Y-120380979I-462J-2990000D01*
G01*
X331583862Y-120380979D02*
G75*
G03*
X330038570Y-114830979I-1544830J2560000D01*
G01*
X332539032Y-117820979D02*
G75*
G03*
X332539032Y-117820979I-2500000J0D01*
G01*
X23694032Y-120380979D02*
X26784032Y-120380979D01*
X25239494Y-114830979D02*
G75*
G03*
X23694202Y-120380979I-462J-2990000D01*
G01*
X26783862Y-120380979D02*
G75*
G03*
X25238570Y-114830979I-1544830J2560000D01*
G01*
X27739032Y-117820979D02*
G75*
G03*
X27739032Y-117820979I-2500000J0D01*
G01*
X277694032Y-120380979D02*
X280784032Y-120380979D01*
X279239494Y-114830979D02*
G75*
G03*
X277694202Y-120380979I-462J-2990000D01*
G01*
X280783862Y-120380979D02*
G75*
G03*
X279238570Y-114830979I-1544830J2560000D01*
G01*
X281739032Y-117820979D02*
G75*
G03*
X281739032Y-117820979I-2500000J0D01*
G01*
X74494032Y-120380979D02*
X77584032Y-120380979D01*
X76039494Y-114830979D02*
G75*
G03*
X74494202Y-120380979I-462J-2990000D01*
G01*
X77583862Y-120380979D02*
G75*
G03*
X76038570Y-114830979I-1544830J2560000D01*
G01*
X78539032Y-117820979D02*
G75*
G03*
X78539032Y-117820979I-2500000J0D01*
G01*
X201494032Y-120380979D02*
X204584032Y-120380979D01*
X203039494Y-114830979D02*
G75*
G03*
X201494202Y-120380979I-462J-2990000D01*
G01*
X204583862Y-120380979D02*
G75*
G03*
X203038570Y-114830979I-1544830J2560000D01*
G01*
X205539032Y-117820979D02*
G75*
G03*
X205539032Y-117820979I-2500000J0D01*
G01*
X379294032Y-120380979D02*
X382384032Y-120380979D01*
X382383862Y-120380979D02*
G75*
G03*
X380838570Y-114830979I-1544830J2560000D01*
G01*
X380839494Y-114830979D02*
G75*
G03*
X379294202Y-120380979I-462J-2990000D01*
G01*
X383339032Y-117820979D02*
G75*
G03*
X383339032Y-117820979I-2500000J0D01*
G01*
%LPC*%
D12*
X190500000Y-135890000D03*
X139700000Y-135890000D03*
D13*
X228439032Y-119090979D03*
D14*
X228439032Y-116550979D03*
D13*
X152239032Y-119090979D03*
D14*
X152239032Y-116550979D03*
D12*
X38100000Y-135890000D03*
X292100000Y-135890000D03*
D13*
X406239032Y-119090979D03*
D14*
X406239032Y-116550979D03*
D12*
X393700000Y-135890000D03*
X88900000Y-110490000D03*
X88900000Y-135890000D03*
X38100000Y-110490000D03*
X241300000Y-110490000D03*
D13*
X101439032Y-119090979D03*
D14*
X101439032Y-116550979D03*
D12*
X241300000Y-135890000D03*
X190500000Y-110490000D03*
X342900000Y-135890000D03*
D13*
X126839032Y-119090979D03*
D14*
X126839032Y-116550979D03*
D13*
X253839032Y-119090979D03*
D14*
X253839032Y-116550979D03*
D13*
X177639032Y-119090979D03*
D14*
X177639032Y-116550979D03*
D13*
X355439032Y-119090979D03*
D14*
X355439032Y-116550979D03*
D13*
X304639032Y-119090979D03*
D14*
X304639032Y-116550979D03*
D13*
X50639032Y-119090979D03*
D14*
X50639032Y-116550979D03*
D12*
X393700000Y-110490000D03*
D13*
X330039032Y-119090979D03*
D14*
X330039032Y-116550979D03*
D13*
X25239032Y-119090979D03*
D14*
X25239032Y-116550979D03*
D13*
X279239032Y-119090979D03*
D14*
X279239032Y-116550979D03*
D13*
X76039032Y-119090979D03*
D14*
X76039032Y-116550979D03*
D12*
X139700000Y-110490000D03*
D13*
X203039032Y-119090979D03*
D14*
X203039032Y-116550979D03*
D13*
X380839032Y-119090979D03*
D14*
X380839032Y-116550979D03*
D12*
X342900000Y-110490000D03*
X292100000Y-110490000D03*
D15*
X106680000Y-133985000D03*
G36*
G01*
X16935000Y-121050000D02*
X18625000Y-121050000D01*
G75*
G02*
X18875000Y-121300000I0J-250000D01*
G01*
X18875000Y-122540000D01*
G75*
G02*
X18625000Y-122790000I-250000J0D01*
G01*
X16935000Y-122790000D01*
G75*
G02*
X16685000Y-122540000I0J250000D01*
G01*
X16685000Y-121300000D01*
G75*
G02*
X16935000Y-121050000I250000J0D01*
G01*
G37*
D16*
X17780000Y-124460000D03*
X17780000Y-127000000D03*
X17780000Y-129540000D03*
X17780000Y-132080000D03*
X17780000Y-134620000D03*
G36*
G01*
X414704032Y-115170000D02*
X413014032Y-115170000D01*
G75*
G02*
X412764032Y-114920000I0J250000D01*
G01*
X412764032Y-113680000D01*
G75*
G02*
X413014032Y-113430000I250000J0D01*
G01*
X414704032Y-113430000D01*
G75*
G02*
X414954032Y-113680000I0J-250000D01*
G01*
X414954032Y-114920000D01*
G75*
G02*
X414704032Y-115170000I-250000J0D01*
G01*
G37*
X413859032Y-111760000D03*
G36*
G01*
X374250000Y-110915000D02*
X374250000Y-112605000D01*
G75*
G02*
X374000000Y-112855000I-250000J0D01*
G01*
X372760000Y-112855000D01*
G75*
G02*
X372510000Y-112605000I0J250000D01*
G01*
X372510000Y-110915000D01*
G75*
G02*
X372760000Y-110665000I250000J0D01*
G01*
X374000000Y-110665000D01*
G75*
G02*
X374250000Y-110915000I0J-250000D01*
G01*
G37*
D17*
X370840000Y-111760000D03*
D15*
X96520000Y-133985000D03*
G36*
G01*
X16935000Y-110890000D02*
X18625000Y-110890000D01*
G75*
G02*
X18875000Y-111140000I0J-250000D01*
G01*
X18875000Y-112380000D01*
G75*
G02*
X18625000Y-112630000I-250000J0D01*
G01*
X16935000Y-112630000D01*
G75*
G02*
X16685000Y-112380000I0J250000D01*
G01*
X16685000Y-111140000D01*
G75*
G02*
X16935000Y-110890000I250000J0D01*
G01*
G37*
D16*
X17780000Y-114300000D03*
G36*
G01*
X388220000Y-110915000D02*
X388220000Y-112605000D01*
G75*
G02*
X387970000Y-112855000I-250000J0D01*
G01*
X386730000Y-112855000D01*
G75*
G02*
X386480000Y-112605000I0J250000D01*
G01*
X386480000Y-110915000D01*
G75*
G02*
X386730000Y-110665000I250000J0D01*
G01*
X387970000Y-110665000D01*
G75*
G02*
X388220000Y-110915000I0J-250000D01*
G01*
G37*
D17*
X384810000Y-111760000D03*
D15*
X127000000Y-133985000D03*
X116840000Y-133985000D03*
G36*
G01*
X414704032Y-135490000D02*
X413014032Y-135490000D01*
G75*
G02*
X412764032Y-135240000I0J250000D01*
G01*
X412764032Y-134000000D01*
G75*
G02*
X413014032Y-133750000I250000J0D01*
G01*
X414704032Y-133750000D01*
G75*
G02*
X414954032Y-134000000I0J-250000D01*
G01*
X414954032Y-135240000D01*
G75*
G02*
X414704032Y-135490000I-250000J0D01*
G01*
G37*
D16*
X413859032Y-132080000D03*
X413859032Y-129540000D03*
X413859032Y-127000000D03*
X413859032Y-124460000D03*
X413859032Y-121920000D03*
M02*
