G04 #@! TF.GenerationSoftware,KiCad,Pcbnew,6.0.5+dfsg-1~bpo11+1*
G04 #@! TF.CreationDate,2022-08-13T15:25:21+00:00*
G04 #@! TF.ProjectId,led_breakout,6c65645f-6272-4656-916b-6f75742e6b69,0.1*
G04 #@! TF.SameCoordinates,Original*
G04 #@! TF.FileFunction,Soldermask,Top*
G04 #@! TF.FilePolarity,Negative*
%FSLAX46Y46*%
G04 Gerber Fmt 4.6, Leading zero omitted, Abs format (unit mm)*
G04 Created by KiCad (PCBNEW 6.0.5+dfsg-1~bpo11+1) date 2022-08-13 15:25:21*
%MOMM*%
%LPD*%
G01*
G04 APERTURE LIST*
%ADD10C,5.600000*%
%ADD11R,1.800000X1.800000*%
%ADD12C,1.800000*%
%ADD13C,2.000000*%
%ADD14O,2.190000X1.740000*%
%ADD15O,1.740000X2.190000*%
G04 APERTURE END LIST*
D10*
X190500000Y-135890000D03*
X139700000Y-135890000D03*
D11*
X228439032Y-119090979D03*
D12*
X228439032Y-116550979D03*
D11*
X152239032Y-119090979D03*
D12*
X152239032Y-116550979D03*
D10*
X38100000Y-135890000D03*
X292100000Y-135890000D03*
D11*
X406239032Y-119090979D03*
D12*
X406239032Y-116550979D03*
D10*
X393700000Y-135890000D03*
X88900000Y-110490000D03*
X88900000Y-135890000D03*
X38100000Y-110490000D03*
X241300000Y-110490000D03*
D11*
X101439032Y-119090979D03*
D12*
X101439032Y-116550979D03*
D10*
X241300000Y-135890000D03*
X190500000Y-110490000D03*
X342900000Y-135890000D03*
D11*
X126839032Y-119090979D03*
D12*
X126839032Y-116550979D03*
D11*
X253839032Y-119090979D03*
D12*
X253839032Y-116550979D03*
D11*
X177639032Y-119090979D03*
D12*
X177639032Y-116550979D03*
D11*
X355439032Y-119090979D03*
D12*
X355439032Y-116550979D03*
D11*
X304639032Y-119090979D03*
D12*
X304639032Y-116550979D03*
D11*
X50639032Y-119090979D03*
D12*
X50639032Y-116550979D03*
D10*
X393700000Y-110490000D03*
D11*
X330039032Y-119090979D03*
D12*
X330039032Y-116550979D03*
D11*
X25239032Y-119090979D03*
D12*
X25239032Y-116550979D03*
D11*
X279239032Y-119090979D03*
D12*
X279239032Y-116550979D03*
D11*
X76039032Y-119090979D03*
D12*
X76039032Y-116550979D03*
D10*
X139700000Y-110490000D03*
D11*
X203039032Y-119090979D03*
D12*
X203039032Y-116550979D03*
D11*
X380839032Y-119090979D03*
D12*
X380839032Y-116550979D03*
D10*
X342900000Y-110490000D03*
X292100000Y-110490000D03*
D13*
X106680000Y-133985000D03*
G36*
G01*
X16935000Y-121050000D02*
X18625000Y-121050000D01*
G75*
G02*
X18875000Y-121300000I0J-250000D01*
G01*
X18875000Y-122540000D01*
G75*
G02*
X18625000Y-122790000I-250000J0D01*
G01*
X16935000Y-122790000D01*
G75*
G02*
X16685000Y-122540000I0J250000D01*
G01*
X16685000Y-121300000D01*
G75*
G02*
X16935000Y-121050000I250000J0D01*
G01*
G37*
D14*
X17780000Y-124460000D03*
X17780000Y-127000000D03*
X17780000Y-129540000D03*
X17780000Y-132080000D03*
X17780000Y-134620000D03*
G36*
G01*
X414704032Y-115170000D02*
X413014032Y-115170000D01*
G75*
G02*
X412764032Y-114920000I0J250000D01*
G01*
X412764032Y-113680000D01*
G75*
G02*
X413014032Y-113430000I250000J0D01*
G01*
X414704032Y-113430000D01*
G75*
G02*
X414954032Y-113680000I0J-250000D01*
G01*
X414954032Y-114920000D01*
G75*
G02*
X414704032Y-115170000I-250000J0D01*
G01*
G37*
X413859032Y-111760000D03*
G36*
G01*
X374250000Y-110915000D02*
X374250000Y-112605000D01*
G75*
G02*
X374000000Y-112855000I-250000J0D01*
G01*
X372760000Y-112855000D01*
G75*
G02*
X372510000Y-112605000I0J250000D01*
G01*
X372510000Y-110915000D01*
G75*
G02*
X372760000Y-110665000I250000J0D01*
G01*
X374000000Y-110665000D01*
G75*
G02*
X374250000Y-110915000I0J-250000D01*
G01*
G37*
D15*
X370840000Y-111760000D03*
D13*
X96520000Y-133985000D03*
G36*
G01*
X16935000Y-110890000D02*
X18625000Y-110890000D01*
G75*
G02*
X18875000Y-111140000I0J-250000D01*
G01*
X18875000Y-112380000D01*
G75*
G02*
X18625000Y-112630000I-250000J0D01*
G01*
X16935000Y-112630000D01*
G75*
G02*
X16685000Y-112380000I0J250000D01*
G01*
X16685000Y-111140000D01*
G75*
G02*
X16935000Y-110890000I250000J0D01*
G01*
G37*
D14*
X17780000Y-114300000D03*
G36*
G01*
X388220000Y-110915000D02*
X388220000Y-112605000D01*
G75*
G02*
X387970000Y-112855000I-250000J0D01*
G01*
X386730000Y-112855000D01*
G75*
G02*
X386480000Y-112605000I0J250000D01*
G01*
X386480000Y-110915000D01*
G75*
G02*
X386730000Y-110665000I250000J0D01*
G01*
X387970000Y-110665000D01*
G75*
G02*
X388220000Y-110915000I0J-250000D01*
G01*
G37*
D15*
X384810000Y-111760000D03*
D13*
X127000000Y-133985000D03*
X116840000Y-133985000D03*
G36*
G01*
X414704032Y-135490000D02*
X413014032Y-135490000D01*
G75*
G02*
X412764032Y-135240000I0J250000D01*
G01*
X412764032Y-134000000D01*
G75*
G02*
X413014032Y-133750000I250000J0D01*
G01*
X414704032Y-133750000D01*
G75*
G02*
X414954032Y-134000000I0J-250000D01*
G01*
X414954032Y-135240000D01*
G75*
G02*
X414704032Y-135490000I-250000J0D01*
G01*
G37*
D14*
X413859032Y-132080000D03*
X413859032Y-129540000D03*
X413859032Y-127000000D03*
X413859032Y-124460000D03*
X413859032Y-121920000D03*
M02*
