%FSLAX45Y45*%
G04 Gerber Fmt 4.5, Leading zero omitted, Abs format (unit mm)*
G04 Created by KiCad (PCBNEW 6.0.5+dfsg-1~bpo11+1) date 2022-08-13 15:25:21*
%MOMM*%
%LPD*%
G01*
G04 APERTURE LIST*
%TA.AperFunction,Profile*%
%ADD10C,0.100000*%
%TD*%
%ADD11C,0.200000*%
%ADD12C,0.050000*%
%ADD13C,0.090000*%
%ADD14C,0.100000*%
%ADD15C,0.119000*%
%ADD16C,0.320000*%
G04 APERTURE END LIST*
D10*
X41783000Y-13970000D02*
X41783000Y-10668000D01*
X1397000Y-13970000D02*
X41783000Y-13970000D01*
X41783000Y-10668000D02*
X1397000Y-10668000D01*
X1397000Y-10668000D02*
X1397000Y-13970000D01*
D11*
D12*
X6325000Y-13691000D02*
X6375000Y-13741000D01*
X6375000Y-13691000D02*
X6325000Y-13741000D01*
X7341000Y-13691000D02*
X7391000Y-13741000D01*
X7391000Y-13691000D02*
X7341000Y-13741000D01*
X8357000Y-13691000D02*
X8407000Y-13741000D01*
X8407000Y-13691000D02*
X8357000Y-13741000D01*
X9373000Y-13691000D02*
X9423000Y-13741000D01*
X9423000Y-13691000D02*
X9373000Y-13741000D01*
X9627000Y-12830380D02*
X9677000Y-12880380D01*
X9677000Y-12830380D02*
X9627000Y-12880380D01*
X10389000Y-13691000D02*
X10439000Y-13741000D01*
X10439000Y-13691000D02*
X10389000Y-13741000D01*
X10643000Y-12750430D02*
X10693000Y-12800430D01*
X10693000Y-12750430D02*
X10643000Y-12800430D01*
X11405000Y-13691000D02*
X11455000Y-13741000D01*
X11455000Y-13691000D02*
X11405000Y-13741000D01*
X11663181Y-12910330D02*
X11713181Y-12960330D01*
X11713181Y-12910330D02*
X11663181Y-12960330D01*
X12421000Y-13691000D02*
X12471000Y-13741000D01*
X12471000Y-13691000D02*
X12421000Y-13741000D01*
X13437000Y-13691000D02*
X13487000Y-13741000D01*
X13487000Y-13691000D02*
X13437000Y-13741000D01*
X14453000Y-13691000D02*
X14503000Y-13741000D01*
X14503000Y-13691000D02*
X14453000Y-13741000D01*
X15469000Y-13691000D02*
X15519000Y-13741000D01*
X15519000Y-13691000D02*
X15469000Y-13741000D01*
X16485000Y-13691000D02*
X16535000Y-13741000D01*
X16535000Y-13691000D02*
X16485000Y-13741000D01*
X17501000Y-13691000D02*
X17551000Y-13741000D01*
X17551000Y-13691000D02*
X17501000Y-13741000D01*
X18517000Y-13691000D02*
X18567000Y-13741000D01*
X18567000Y-13691000D02*
X18517000Y-13741000D01*
X19533000Y-13691000D02*
X19583000Y-13741000D01*
X19583000Y-13691000D02*
X19533000Y-13741000D01*
X20371200Y-12799900D02*
X20421200Y-12849900D01*
X20421200Y-12799900D02*
X20371200Y-12849900D01*
X20549000Y-13818000D02*
X20599000Y-13868000D01*
X20599000Y-13818000D02*
X20549000Y-13868000D01*
X20930000Y-12979800D02*
X20980000Y-13029800D01*
X20980000Y-12979800D02*
X20930000Y-13029800D01*
X21082400Y-12979800D02*
X21132400Y-13029800D01*
X21132400Y-12979800D02*
X21082400Y-13029800D01*
X21212369Y-12981072D02*
X21262369Y-13031072D01*
X21262369Y-12981072D02*
X21212369Y-13031072D01*
X21260200Y-13222751D02*
X21310200Y-13272751D01*
X21310200Y-13222751D02*
X21260200Y-13272751D01*
X21329225Y-13012375D02*
X21379225Y-13062375D01*
X21379225Y-13012375D02*
X21329225Y-13062375D01*
X21539600Y-12751200D02*
X21589600Y-12801200D01*
X21589600Y-12751200D02*
X21539600Y-12801200D01*
X21565000Y-13818000D02*
X21615000Y-13868000D01*
X21615000Y-13818000D02*
X21565000Y-13868000D01*
X21615800Y-12878200D02*
X21665800Y-12928200D01*
X21665800Y-12878200D02*
X21615800Y-12928200D01*
X21762185Y-12869864D02*
X21812185Y-12919864D01*
X21812185Y-12869864D02*
X21762185Y-12919864D01*
X21793600Y-11887600D02*
X21843600Y-11937600D01*
X21843600Y-11887600D02*
X21793600Y-11937600D01*
X21886864Y-12897585D02*
X21936864Y-12947585D01*
X21936864Y-12897585D02*
X21886864Y-12947585D01*
X22035925Y-12942725D02*
X22085925Y-12992725D01*
X22085925Y-12942725D02*
X22035925Y-12992725D01*
X22155289Y-12874161D02*
X22205289Y-12924161D01*
X22205289Y-12874161D02*
X22155289Y-12924161D01*
X22317133Y-12764699D02*
X22367133Y-12814699D01*
X22367133Y-12764699D02*
X22317133Y-12814699D01*
X22466071Y-12486760D02*
X22516071Y-12536760D01*
X22516071Y-12486760D02*
X22466071Y-12536760D01*
X22581000Y-13818000D02*
X22631000Y-13868000D01*
X22631000Y-13818000D02*
X22581000Y-13868000D01*
X23597000Y-13818000D02*
X23647000Y-13868000D01*
X23647000Y-13818000D02*
X23597000Y-13868000D01*
X24613000Y-13691000D02*
X24663000Y-13741000D01*
X24663000Y-13691000D02*
X24613000Y-13741000D01*
X25629000Y-13691000D02*
X25679000Y-13741000D01*
X25679000Y-13691000D02*
X25629000Y-13741000D01*
X26645000Y-13691000D02*
X26695000Y-13741000D01*
X26695000Y-13691000D02*
X26645000Y-13741000D01*
X27661000Y-13691000D02*
X27711000Y-13741000D01*
X27711000Y-13691000D02*
X27661000Y-13741000D01*
X28677000Y-13691000D02*
X28727000Y-13741000D01*
X28727000Y-13691000D02*
X28677000Y-13741000D01*
X29693000Y-13691000D02*
X29743000Y-13741000D01*
X29743000Y-13691000D02*
X29693000Y-13741000D01*
X30709000Y-13691000D02*
X30759000Y-13741000D01*
X30759000Y-13691000D02*
X30709000Y-13741000D01*
X31725000Y-13691000D02*
X31775000Y-13741000D01*
X31775000Y-13691000D02*
X31725000Y-13741000D01*
X32741000Y-13691000D02*
X32791000Y-13741000D01*
X32791000Y-13691000D02*
X32741000Y-13741000D01*
X33757000Y-13691000D02*
X33807000Y-13741000D01*
X33807000Y-13691000D02*
X33757000Y-13741000D01*
X34773000Y-13691000D02*
X34823000Y-13741000D01*
X34823000Y-13691000D02*
X34773000Y-13741000D01*
X35789000Y-13691000D02*
X35839000Y-13741000D01*
X35839000Y-13691000D02*
X35789000Y-13741000D01*
X36805000Y-13691000D02*
X36855000Y-13741000D01*
X36855000Y-13691000D02*
X36805000Y-13741000D01*
X37821000Y-13691000D02*
X37871000Y-13741000D01*
X37871000Y-13691000D02*
X37821000Y-13741000D01*
X38837000Y-13691000D02*
X38887000Y-13741000D01*
X38887000Y-13691000D02*
X38837000Y-13741000D01*
D13*
X2568903Y-11655098D02*
G75*
G03*
X2568903Y-11655098I-45000J0D01*
G01*
X2568903Y-11909098D02*
G75*
G03*
X2568903Y-11909098I-45000J0D01*
G01*
X5108903Y-11655098D02*
G75*
G03*
X5108903Y-11655098I-45000J0D01*
G01*
X5108903Y-11909098D02*
G75*
G03*
X5108903Y-11909098I-45000J0D01*
G01*
X7648903Y-11655098D02*
G75*
G03*
X7648903Y-11655098I-45000J0D01*
G01*
X7648903Y-11909098D02*
G75*
G03*
X7648903Y-11909098I-45000J0D01*
G01*
X10188903Y-11655098D02*
G75*
G03*
X10188903Y-11655098I-45000J0D01*
G01*
X10188903Y-11909098D02*
G75*
G03*
X10188903Y-11909098I-45000J0D01*
G01*
X12728903Y-11655098D02*
G75*
G03*
X12728903Y-11655098I-45000J0D01*
G01*
X12728903Y-11909098D02*
G75*
G03*
X12728903Y-11909098I-45000J0D01*
G01*
X15268903Y-11655098D02*
G75*
G03*
X15268903Y-11655098I-45000J0D01*
G01*
X15268903Y-11909098D02*
G75*
G03*
X15268903Y-11909098I-45000J0D01*
G01*
X17808903Y-11655098D02*
G75*
G03*
X17808903Y-11655098I-45000J0D01*
G01*
X17808903Y-11909098D02*
G75*
G03*
X17808903Y-11909098I-45000J0D01*
G01*
X20348903Y-11655098D02*
G75*
G03*
X20348903Y-11655098I-45000J0D01*
G01*
X20348903Y-11909098D02*
G75*
G03*
X20348903Y-11909098I-45000J0D01*
G01*
X22888903Y-11655098D02*
G75*
G03*
X22888903Y-11655098I-45000J0D01*
G01*
X22888903Y-11909098D02*
G75*
G03*
X22888903Y-11909098I-45000J0D01*
G01*
X25428903Y-11655098D02*
G75*
G03*
X25428903Y-11655098I-45000J0D01*
G01*
X25428903Y-11909098D02*
G75*
G03*
X25428903Y-11909098I-45000J0D01*
G01*
X27968903Y-11655098D02*
G75*
G03*
X27968903Y-11655098I-45000J0D01*
G01*
X27968903Y-11909098D02*
G75*
G03*
X27968903Y-11909098I-45000J0D01*
G01*
X30508903Y-11655098D02*
G75*
G03*
X30508903Y-11655098I-45000J0D01*
G01*
X30508903Y-11909098D02*
G75*
G03*
X30508903Y-11909098I-45000J0D01*
G01*
X33048903Y-11655098D02*
G75*
G03*
X33048903Y-11655098I-45000J0D01*
G01*
X33048903Y-11909098D02*
G75*
G03*
X33048903Y-11909098I-45000J0D01*
G01*
X35588903Y-11655098D02*
G75*
G03*
X35588903Y-11655098I-45000J0D01*
G01*
X35588903Y-11909098D02*
G75*
G03*
X35588903Y-11909098I-45000J0D01*
G01*
X38128903Y-11655098D02*
G75*
G03*
X38128903Y-11655098I-45000J0D01*
G01*
X38128903Y-11909098D02*
G75*
G03*
X38128903Y-11909098I-45000J0D01*
G01*
X40668903Y-11655098D02*
G75*
G03*
X40668903Y-11655098I-45000J0D01*
G01*
X40668903Y-11909098D02*
G75*
G03*
X40668903Y-11909098I-45000J0D01*
G01*
D14*
X9652000Y-13348500D02*
X9652000Y-13448500D01*
X9602000Y-13398500D02*
X9702000Y-13398500D01*
X10668000Y-13348500D02*
X10668000Y-13448500D01*
X10618000Y-13398500D02*
X10718000Y-13398500D01*
X11684000Y-13348500D02*
X11684000Y-13448500D01*
X11634000Y-13398500D02*
X11734000Y-13398500D01*
X12700000Y-13348500D02*
X12700000Y-13448500D01*
X12650000Y-13398500D02*
X12750000Y-13398500D01*
D15*
X1820073Y-11218073D02*
X1820073Y-11133927D01*
X1735927Y-11133927D01*
X1735927Y-11218073D01*
X1820073Y-11218073D01*
X1820073Y-11472073D02*
X1820073Y-11387927D01*
X1735927Y-11387927D01*
X1735927Y-11472073D01*
X1820073Y-11472073D01*
X1820073Y-12234073D02*
X1820073Y-12149927D01*
X1735927Y-12149927D01*
X1735927Y-12234073D01*
X1820073Y-12234073D01*
X1820073Y-12488073D02*
X1820073Y-12403927D01*
X1735927Y-12403927D01*
X1735927Y-12488073D01*
X1820073Y-12488073D01*
X1820073Y-12742073D02*
X1820073Y-12657927D01*
X1735927Y-12657927D01*
X1735927Y-12742073D01*
X1820073Y-12742073D01*
X1820073Y-12996073D02*
X1820073Y-12911927D01*
X1735927Y-12911927D01*
X1735927Y-12996073D01*
X1820073Y-12996073D01*
X1820073Y-13250073D02*
X1820073Y-13165927D01*
X1735927Y-13165927D01*
X1735927Y-13250073D01*
X1820073Y-13250073D01*
X1820073Y-13504073D02*
X1820073Y-13419927D01*
X1735927Y-13419927D01*
X1735927Y-13504073D01*
X1820073Y-13504073D01*
X37126073Y-11218073D02*
X37126073Y-11133927D01*
X37041927Y-11133927D01*
X37041927Y-11218073D01*
X37126073Y-11218073D01*
X37380073Y-11218073D02*
X37380073Y-11133927D01*
X37295927Y-11133927D01*
X37295927Y-11218073D01*
X37380073Y-11218073D01*
X38523073Y-11218073D02*
X38523073Y-11133927D01*
X38438927Y-11133927D01*
X38438927Y-11218073D01*
X38523073Y-11218073D01*
X38777073Y-11218073D02*
X38777073Y-11133927D01*
X38692927Y-11133927D01*
X38692927Y-11218073D01*
X38777073Y-11218073D01*
X41427977Y-11218073D02*
X41427977Y-11133927D01*
X41343830Y-11133927D01*
X41343830Y-11218073D01*
X41427977Y-11218073D01*
X41427977Y-11472073D02*
X41427977Y-11387927D01*
X41343830Y-11387927D01*
X41343830Y-11472073D01*
X41427977Y-11472073D01*
X41427977Y-12234073D02*
X41427977Y-12149927D01*
X41343830Y-12149927D01*
X41343830Y-12234073D01*
X41427977Y-12234073D01*
X41427977Y-12488073D02*
X41427977Y-12403927D01*
X41343830Y-12403927D01*
X41343830Y-12488073D01*
X41427977Y-12488073D01*
X41427977Y-12742073D02*
X41427977Y-12657927D01*
X41343830Y-12657927D01*
X41343830Y-12742073D01*
X41427977Y-12742073D01*
X41427977Y-12996073D02*
X41427977Y-12911927D01*
X41343830Y-12911927D01*
X41343830Y-12996073D01*
X41427977Y-12996073D01*
X41427977Y-13250073D02*
X41427977Y-13165927D01*
X41343830Y-13165927D01*
X41343830Y-13250073D01*
X41427977Y-13250073D01*
X41427977Y-13504073D02*
X41427977Y-13419927D01*
X41343830Y-13419927D01*
X41343830Y-13504073D01*
X41427977Y-13504073D01*
D16*
X3810000Y-11209000D02*
X3970000Y-11049000D01*
X3810000Y-10889000D01*
X3650000Y-11049000D01*
X3810000Y-11209000D01*
X3810000Y-13749000D02*
X3970000Y-13589000D01*
X3810000Y-13429000D01*
X3650000Y-13589000D01*
X3810000Y-13749000D01*
X8890000Y-11209000D02*
X9050000Y-11049000D01*
X8890000Y-10889000D01*
X8730000Y-11049000D01*
X8890000Y-11209000D01*
X8890000Y-13749000D02*
X9050000Y-13589000D01*
X8890000Y-13429000D01*
X8730000Y-13589000D01*
X8890000Y-13749000D01*
X13970000Y-11209000D02*
X14130000Y-11049000D01*
X13970000Y-10889000D01*
X13810000Y-11049000D01*
X13970000Y-11209000D01*
X13970000Y-13749000D02*
X14130000Y-13589000D01*
X13970000Y-13429000D01*
X13810000Y-13589000D01*
X13970000Y-13749000D01*
X19050000Y-11209000D02*
X19210000Y-11049000D01*
X19050000Y-10889000D01*
X18890000Y-11049000D01*
X19050000Y-11209000D01*
X19050000Y-13749000D02*
X19210000Y-13589000D01*
X19050000Y-13429000D01*
X18890000Y-13589000D01*
X19050000Y-13749000D01*
X24130000Y-11209000D02*
X24290000Y-11049000D01*
X24130000Y-10889000D01*
X23970000Y-11049000D01*
X24130000Y-11209000D01*
X24130000Y-13749000D02*
X24290000Y-13589000D01*
X24130000Y-13429000D01*
X23970000Y-13589000D01*
X24130000Y-13749000D01*
X29210000Y-11209000D02*
X29370000Y-11049000D01*
X29210000Y-10889000D01*
X29050000Y-11049000D01*
X29210000Y-11209000D01*
X29210000Y-13749000D02*
X29370000Y-13589000D01*
X29210000Y-13429000D01*
X29050000Y-13589000D01*
X29210000Y-13749000D01*
X34290000Y-11209000D02*
X34450000Y-11049000D01*
X34290000Y-10889000D01*
X34130000Y-11049000D01*
X34290000Y-11209000D01*
X34290000Y-13749000D02*
X34450000Y-13589000D01*
X34290000Y-13429000D01*
X34130000Y-13589000D01*
X34290000Y-13749000D01*
X39370000Y-11209000D02*
X39530000Y-11049000D01*
X39370000Y-10889000D01*
X39210000Y-11049000D01*
X39370000Y-11209000D01*
X39370000Y-13749000D02*
X39530000Y-13589000D01*
X39370000Y-13429000D01*
X39210000Y-13589000D01*
X39370000Y-13749000D01*
D11*
X1649619Y-14285476D02*
X1649619Y-14085476D01*
X1697238Y-14085476D01*
X1725809Y-14095000D01*
X1744857Y-14114048D01*
X1754381Y-14133095D01*
X1763905Y-14171190D01*
X1763905Y-14199762D01*
X1754381Y-14237857D01*
X1744857Y-14256905D01*
X1725809Y-14275952D01*
X1697238Y-14285476D01*
X1649619Y-14285476D01*
X1849619Y-14285476D02*
X1849619Y-14152143D01*
X1849619Y-14190238D02*
X1859143Y-14171190D01*
X1868667Y-14161667D01*
X1887714Y-14152143D01*
X1906762Y-14152143D01*
X1973428Y-14285476D02*
X1973428Y-14152143D01*
X1973428Y-14085476D02*
X1963905Y-14095000D01*
X1973428Y-14104524D01*
X1982952Y-14095000D01*
X1973428Y-14085476D01*
X1973428Y-14104524D01*
X2097238Y-14285476D02*
X2078190Y-14275952D01*
X2068667Y-14256905D01*
X2068667Y-14085476D01*
X2202000Y-14285476D02*
X2182952Y-14275952D01*
X2173429Y-14256905D01*
X2173429Y-14085476D01*
X2430571Y-14285476D02*
X2430571Y-14085476D01*
X2497238Y-14228333D01*
X2563905Y-14085476D01*
X2563905Y-14285476D01*
X2744857Y-14285476D02*
X2744857Y-14180714D01*
X2735333Y-14161667D01*
X2716286Y-14152143D01*
X2678190Y-14152143D01*
X2659143Y-14161667D01*
X2744857Y-14275952D02*
X2725810Y-14285476D01*
X2678190Y-14285476D01*
X2659143Y-14275952D01*
X2649619Y-14256905D01*
X2649619Y-14237857D01*
X2659143Y-14218809D01*
X2678190Y-14209286D01*
X2725810Y-14209286D01*
X2744857Y-14199762D01*
X2840095Y-14152143D02*
X2840095Y-14352143D01*
X2840095Y-14161667D02*
X2859143Y-14152143D01*
X2897238Y-14152143D01*
X2916286Y-14161667D01*
X2925809Y-14171190D01*
X2935333Y-14190238D01*
X2935333Y-14247381D01*
X2925809Y-14266428D01*
X2916286Y-14275952D01*
X2897238Y-14285476D01*
X2859143Y-14285476D01*
X2840095Y-14275952D01*
X3021048Y-14266428D02*
X3030571Y-14275952D01*
X3021048Y-14285476D01*
X3011524Y-14275952D01*
X3021048Y-14266428D01*
X3021048Y-14285476D01*
X3021048Y-14161667D02*
X3030571Y-14171190D01*
X3021048Y-14180714D01*
X3011524Y-14171190D01*
X3021048Y-14161667D01*
X3021048Y-14180714D01*
D12*
X1342000Y-14590000D02*
X1392000Y-14640000D01*
X1392000Y-14590000D02*
X1342000Y-14640000D01*
D11*
X1687714Y-14505476D02*
X1706762Y-14505476D01*
X1725809Y-14515000D01*
X1735333Y-14524524D01*
X1744857Y-14543571D01*
X1754381Y-14581667D01*
X1754381Y-14629286D01*
X1744857Y-14667381D01*
X1735333Y-14686428D01*
X1725809Y-14695952D01*
X1706762Y-14705476D01*
X1687714Y-14705476D01*
X1668667Y-14695952D01*
X1659143Y-14686428D01*
X1649619Y-14667381D01*
X1640095Y-14629286D01*
X1640095Y-14581667D01*
X1649619Y-14543571D01*
X1659143Y-14524524D01*
X1668667Y-14515000D01*
X1687714Y-14505476D01*
X1840095Y-14686428D02*
X1849619Y-14695952D01*
X1840095Y-14705476D01*
X1830571Y-14695952D01*
X1840095Y-14686428D01*
X1840095Y-14705476D01*
X2030571Y-14505476D02*
X1935333Y-14505476D01*
X1925809Y-14600714D01*
X1935333Y-14591190D01*
X1954381Y-14581667D01*
X2002000Y-14581667D01*
X2021048Y-14591190D01*
X2030571Y-14600714D01*
X2040095Y-14619762D01*
X2040095Y-14667381D01*
X2030571Y-14686428D01*
X2021048Y-14695952D01*
X2002000Y-14705476D01*
X1954381Y-14705476D01*
X1935333Y-14695952D01*
X1925809Y-14686428D01*
X2163905Y-14505476D02*
X2182952Y-14505476D01*
X2202000Y-14515000D01*
X2211524Y-14524524D01*
X2221048Y-14543571D01*
X2230571Y-14581667D01*
X2230571Y-14629286D01*
X2221048Y-14667381D01*
X2211524Y-14686428D01*
X2202000Y-14695952D01*
X2182952Y-14705476D01*
X2163905Y-14705476D01*
X2144857Y-14695952D01*
X2135333Y-14686428D01*
X2125810Y-14667381D01*
X2116286Y-14629286D01*
X2116286Y-14581667D01*
X2125810Y-14543571D01*
X2135333Y-14524524D01*
X2144857Y-14515000D01*
X2163905Y-14505476D01*
X2354381Y-14505476D02*
X2373429Y-14505476D01*
X2392476Y-14515000D01*
X2402000Y-14524524D01*
X2411524Y-14543571D01*
X2421048Y-14581667D01*
X2421048Y-14629286D01*
X2411524Y-14667381D01*
X2402000Y-14686428D01*
X2392476Y-14695952D01*
X2373429Y-14705476D01*
X2354381Y-14705476D01*
X2335333Y-14695952D01*
X2325810Y-14686428D01*
X2316286Y-14667381D01*
X2306762Y-14629286D01*
X2306762Y-14581667D01*
X2316286Y-14543571D01*
X2325810Y-14524524D01*
X2335333Y-14515000D01*
X2354381Y-14505476D01*
X2506762Y-14705476D02*
X2506762Y-14572143D01*
X2506762Y-14591190D02*
X2516286Y-14581667D01*
X2535333Y-14572143D01*
X2563905Y-14572143D01*
X2582952Y-14581667D01*
X2592476Y-14600714D01*
X2592476Y-14705476D01*
X2592476Y-14600714D02*
X2602000Y-14581667D01*
X2621048Y-14572143D01*
X2649619Y-14572143D01*
X2668667Y-14581667D01*
X2678190Y-14600714D01*
X2678190Y-14705476D01*
X2773429Y-14705476D02*
X2773429Y-14572143D01*
X2773429Y-14591190D02*
X2782952Y-14581667D01*
X2802000Y-14572143D01*
X2830571Y-14572143D01*
X2849619Y-14581667D01*
X2859143Y-14600714D01*
X2859143Y-14705476D01*
X2859143Y-14600714D02*
X2868667Y-14581667D01*
X2887714Y-14572143D01*
X2916286Y-14572143D01*
X2935333Y-14581667D01*
X2944857Y-14600714D01*
X2944857Y-14705476D01*
X3335333Y-14495952D02*
X3163905Y-14753095D01*
X3592476Y-14505476D02*
X3611524Y-14505476D01*
X3630571Y-14515000D01*
X3640095Y-14524524D01*
X3649619Y-14543571D01*
X3659143Y-14581667D01*
X3659143Y-14629286D01*
X3649619Y-14667381D01*
X3640095Y-14686428D01*
X3630571Y-14695952D01*
X3611524Y-14705476D01*
X3592476Y-14705476D01*
X3573428Y-14695952D01*
X3563905Y-14686428D01*
X3554381Y-14667381D01*
X3544857Y-14629286D01*
X3544857Y-14581667D01*
X3554381Y-14543571D01*
X3563905Y-14524524D01*
X3573428Y-14515000D01*
X3592476Y-14505476D01*
X3744857Y-14686428D02*
X3754381Y-14695952D01*
X3744857Y-14705476D01*
X3735333Y-14695952D01*
X3744857Y-14686428D01*
X3744857Y-14705476D01*
X3878190Y-14505476D02*
X3897238Y-14505476D01*
X3916286Y-14515000D01*
X3925809Y-14524524D01*
X3935333Y-14543571D01*
X3944857Y-14581667D01*
X3944857Y-14629286D01*
X3935333Y-14667381D01*
X3925809Y-14686428D01*
X3916286Y-14695952D01*
X3897238Y-14705476D01*
X3878190Y-14705476D01*
X3859143Y-14695952D01*
X3849619Y-14686428D01*
X3840095Y-14667381D01*
X3830571Y-14629286D01*
X3830571Y-14581667D01*
X3840095Y-14543571D01*
X3849619Y-14524524D01*
X3859143Y-14515000D01*
X3878190Y-14505476D01*
X4135333Y-14705476D02*
X4021048Y-14705476D01*
X4078190Y-14705476D02*
X4078190Y-14505476D01*
X4059143Y-14534048D01*
X4040095Y-14553095D01*
X4021048Y-14562619D01*
X4230571Y-14705476D02*
X4268667Y-14705476D01*
X4287714Y-14695952D01*
X4297238Y-14686428D01*
X4316286Y-14657857D01*
X4325810Y-14619762D01*
X4325810Y-14543571D01*
X4316286Y-14524524D01*
X4306762Y-14515000D01*
X4287714Y-14505476D01*
X4249619Y-14505476D01*
X4230571Y-14515000D01*
X4221048Y-14524524D01*
X4211524Y-14543571D01*
X4211524Y-14591190D01*
X4221048Y-14610238D01*
X4230571Y-14619762D01*
X4249619Y-14629286D01*
X4287714Y-14629286D01*
X4306762Y-14619762D01*
X4316286Y-14610238D01*
X4325810Y-14591190D01*
X4392476Y-14505476D02*
X4525810Y-14505476D01*
X4440095Y-14705476D01*
X4592476Y-14505476D02*
X4592476Y-14543571D01*
X4668667Y-14505476D02*
X4668667Y-14543571D01*
X4963905Y-14781667D02*
X4954381Y-14772143D01*
X4935333Y-14743571D01*
X4925810Y-14724524D01*
X4916286Y-14695952D01*
X4906762Y-14648333D01*
X4906762Y-14610238D01*
X4916286Y-14562619D01*
X4925810Y-14534048D01*
X4935333Y-14515000D01*
X4954381Y-14486428D01*
X4963905Y-14476905D01*
X5135333Y-14505476D02*
X5040095Y-14505476D01*
X5030571Y-14600714D01*
X5040095Y-14591190D01*
X5059143Y-14581667D01*
X5106762Y-14581667D01*
X5125810Y-14591190D01*
X5135333Y-14600714D01*
X5144857Y-14619762D01*
X5144857Y-14667381D01*
X5135333Y-14686428D01*
X5125810Y-14695952D01*
X5106762Y-14705476D01*
X5059143Y-14705476D01*
X5040095Y-14695952D01*
X5030571Y-14686428D01*
X5335333Y-14705476D02*
X5221048Y-14705476D01*
X5278190Y-14705476D02*
X5278190Y-14505476D01*
X5259143Y-14534048D01*
X5240095Y-14553095D01*
X5221048Y-14562619D01*
X5573429Y-14705476D02*
X5573429Y-14505476D01*
X5659143Y-14705476D02*
X5659143Y-14600714D01*
X5649619Y-14581667D01*
X5630571Y-14572143D01*
X5602000Y-14572143D01*
X5582952Y-14581667D01*
X5573429Y-14591190D01*
X5782952Y-14705476D02*
X5763905Y-14695952D01*
X5754381Y-14686428D01*
X5744857Y-14667381D01*
X5744857Y-14610238D01*
X5754381Y-14591190D01*
X5763905Y-14581667D01*
X5782952Y-14572143D01*
X5811524Y-14572143D01*
X5830571Y-14581667D01*
X5840095Y-14591190D01*
X5849619Y-14610238D01*
X5849619Y-14667381D01*
X5840095Y-14686428D01*
X5830571Y-14695952D01*
X5811524Y-14705476D01*
X5782952Y-14705476D01*
X5963905Y-14705476D02*
X5944857Y-14695952D01*
X5935333Y-14676905D01*
X5935333Y-14505476D01*
X6116286Y-14695952D02*
X6097238Y-14705476D01*
X6059143Y-14705476D01*
X6040095Y-14695952D01*
X6030571Y-14676905D01*
X6030571Y-14600714D01*
X6040095Y-14581667D01*
X6059143Y-14572143D01*
X6097238Y-14572143D01*
X6116286Y-14581667D01*
X6125809Y-14600714D01*
X6125809Y-14619762D01*
X6030571Y-14638809D01*
X6202000Y-14695952D02*
X6221048Y-14705476D01*
X6259143Y-14705476D01*
X6278190Y-14695952D01*
X6287714Y-14676905D01*
X6287714Y-14667381D01*
X6278190Y-14648333D01*
X6259143Y-14638809D01*
X6230571Y-14638809D01*
X6211524Y-14629286D01*
X6202000Y-14610238D01*
X6202000Y-14600714D01*
X6211524Y-14581667D01*
X6230571Y-14572143D01*
X6259143Y-14572143D01*
X6278190Y-14581667D01*
X6354381Y-14781667D02*
X6363905Y-14772143D01*
X6382952Y-14743571D01*
X6392476Y-14724524D01*
X6402000Y-14695952D01*
X6411524Y-14648333D01*
X6411524Y-14610238D01*
X6402000Y-14562619D01*
X6392476Y-14534048D01*
X6382952Y-14515000D01*
X6363905Y-14486428D01*
X6354381Y-14476905D01*
D13*
X1392000Y-14879000D02*
G75*
G03*
X1392000Y-14879000I-45000J0D01*
G01*
D11*
X1687714Y-14769476D02*
X1706762Y-14769476D01*
X1725809Y-14779000D01*
X1735333Y-14788524D01*
X1744857Y-14807571D01*
X1754381Y-14845667D01*
X1754381Y-14893286D01*
X1744857Y-14931381D01*
X1735333Y-14950428D01*
X1725809Y-14959952D01*
X1706762Y-14969476D01*
X1687714Y-14969476D01*
X1668667Y-14959952D01*
X1659143Y-14950428D01*
X1649619Y-14931381D01*
X1640095Y-14893286D01*
X1640095Y-14845667D01*
X1649619Y-14807571D01*
X1659143Y-14788524D01*
X1668667Y-14779000D01*
X1687714Y-14769476D01*
X1840095Y-14950428D02*
X1849619Y-14959952D01*
X1840095Y-14969476D01*
X1830571Y-14959952D01*
X1840095Y-14950428D01*
X1840095Y-14969476D01*
X1944857Y-14969476D02*
X1982952Y-14969476D01*
X2002000Y-14959952D01*
X2011524Y-14950428D01*
X2030571Y-14921857D01*
X2040095Y-14883762D01*
X2040095Y-14807571D01*
X2030571Y-14788524D01*
X2021048Y-14779000D01*
X2002000Y-14769476D01*
X1963905Y-14769476D01*
X1944857Y-14779000D01*
X1935333Y-14788524D01*
X1925809Y-14807571D01*
X1925809Y-14855190D01*
X1935333Y-14874238D01*
X1944857Y-14883762D01*
X1963905Y-14893286D01*
X2002000Y-14893286D01*
X2021048Y-14883762D01*
X2030571Y-14874238D01*
X2040095Y-14855190D01*
X2163905Y-14769476D02*
X2182952Y-14769476D01*
X2202000Y-14779000D01*
X2211524Y-14788524D01*
X2221048Y-14807571D01*
X2230571Y-14845667D01*
X2230571Y-14893286D01*
X2221048Y-14931381D01*
X2211524Y-14950428D01*
X2202000Y-14959952D01*
X2182952Y-14969476D01*
X2163905Y-14969476D01*
X2144857Y-14959952D01*
X2135333Y-14950428D01*
X2125810Y-14931381D01*
X2116286Y-14893286D01*
X2116286Y-14845667D01*
X2125810Y-14807571D01*
X2135333Y-14788524D01*
X2144857Y-14779000D01*
X2163905Y-14769476D01*
X2354381Y-14769476D02*
X2373429Y-14769476D01*
X2392476Y-14779000D01*
X2402000Y-14788524D01*
X2411524Y-14807571D01*
X2421048Y-14845667D01*
X2421048Y-14893286D01*
X2411524Y-14931381D01*
X2402000Y-14950428D01*
X2392476Y-14959952D01*
X2373429Y-14969476D01*
X2354381Y-14969476D01*
X2335333Y-14959952D01*
X2325810Y-14950428D01*
X2316286Y-14931381D01*
X2306762Y-14893286D01*
X2306762Y-14845667D01*
X2316286Y-14807571D01*
X2325810Y-14788524D01*
X2335333Y-14779000D01*
X2354381Y-14769476D01*
X2506762Y-14969476D02*
X2506762Y-14836143D01*
X2506762Y-14855190D02*
X2516286Y-14845667D01*
X2535333Y-14836143D01*
X2563905Y-14836143D01*
X2582952Y-14845667D01*
X2592476Y-14864714D01*
X2592476Y-14969476D01*
X2592476Y-14864714D02*
X2602000Y-14845667D01*
X2621048Y-14836143D01*
X2649619Y-14836143D01*
X2668667Y-14845667D01*
X2678190Y-14864714D01*
X2678190Y-14969476D01*
X2773429Y-14969476D02*
X2773429Y-14836143D01*
X2773429Y-14855190D02*
X2782952Y-14845667D01*
X2802000Y-14836143D01*
X2830571Y-14836143D01*
X2849619Y-14845667D01*
X2859143Y-14864714D01*
X2859143Y-14969476D01*
X2859143Y-14864714D02*
X2868667Y-14845667D01*
X2887714Y-14836143D01*
X2916286Y-14836143D01*
X2935333Y-14845667D01*
X2944857Y-14864714D01*
X2944857Y-14969476D01*
X3335333Y-14759952D02*
X3163905Y-15017095D01*
X3592476Y-14769476D02*
X3611524Y-14769476D01*
X3630571Y-14779000D01*
X3640095Y-14788524D01*
X3649619Y-14807571D01*
X3659143Y-14845667D01*
X3659143Y-14893286D01*
X3649619Y-14931381D01*
X3640095Y-14950428D01*
X3630571Y-14959952D01*
X3611524Y-14969476D01*
X3592476Y-14969476D01*
X3573428Y-14959952D01*
X3563905Y-14950428D01*
X3554381Y-14931381D01*
X3544857Y-14893286D01*
X3544857Y-14845667D01*
X3554381Y-14807571D01*
X3563905Y-14788524D01*
X3573428Y-14779000D01*
X3592476Y-14769476D01*
X3744857Y-14950428D02*
X3754381Y-14959952D01*
X3744857Y-14969476D01*
X3735333Y-14959952D01*
X3744857Y-14950428D01*
X3744857Y-14969476D01*
X3878190Y-14769476D02*
X3897238Y-14769476D01*
X3916286Y-14779000D01*
X3925809Y-14788524D01*
X3935333Y-14807571D01*
X3944857Y-14845667D01*
X3944857Y-14893286D01*
X3935333Y-14931381D01*
X3925809Y-14950428D01*
X3916286Y-14959952D01*
X3897238Y-14969476D01*
X3878190Y-14969476D01*
X3859143Y-14959952D01*
X3849619Y-14950428D01*
X3840095Y-14931381D01*
X3830571Y-14893286D01*
X3830571Y-14845667D01*
X3840095Y-14807571D01*
X3849619Y-14788524D01*
X3859143Y-14779000D01*
X3878190Y-14769476D01*
X4011524Y-14769476D02*
X4135333Y-14769476D01*
X4068667Y-14845667D01*
X4097238Y-14845667D01*
X4116286Y-14855190D01*
X4125809Y-14864714D01*
X4135333Y-14883762D01*
X4135333Y-14931381D01*
X4125809Y-14950428D01*
X4116286Y-14959952D01*
X4097238Y-14969476D01*
X4040095Y-14969476D01*
X4021048Y-14959952D01*
X4011524Y-14950428D01*
X4316286Y-14769476D02*
X4221048Y-14769476D01*
X4211524Y-14864714D01*
X4221048Y-14855190D01*
X4240095Y-14845667D01*
X4287714Y-14845667D01*
X4306762Y-14855190D01*
X4316286Y-14864714D01*
X4325810Y-14883762D01*
X4325810Y-14931381D01*
X4316286Y-14950428D01*
X4306762Y-14959952D01*
X4287714Y-14969476D01*
X4240095Y-14969476D01*
X4221048Y-14959952D01*
X4211524Y-14950428D01*
X4497238Y-14836143D02*
X4497238Y-14969476D01*
X4449619Y-14759952D02*
X4402000Y-14902809D01*
X4525810Y-14902809D01*
X4592476Y-14769476D02*
X4592476Y-14807571D01*
X4668667Y-14769476D02*
X4668667Y-14807571D01*
X4963905Y-15045667D02*
X4954381Y-15036143D01*
X4935333Y-15007571D01*
X4925810Y-14988524D01*
X4916286Y-14959952D01*
X4906762Y-14912333D01*
X4906762Y-14874238D01*
X4916286Y-14826619D01*
X4925810Y-14798048D01*
X4935333Y-14779000D01*
X4954381Y-14750428D01*
X4963905Y-14740905D01*
X5021048Y-14769476D02*
X5144857Y-14769476D01*
X5078190Y-14845667D01*
X5106762Y-14845667D01*
X5125810Y-14855190D01*
X5135333Y-14864714D01*
X5144857Y-14883762D01*
X5144857Y-14931381D01*
X5135333Y-14950428D01*
X5125810Y-14959952D01*
X5106762Y-14969476D01*
X5049619Y-14969476D01*
X5030571Y-14959952D01*
X5021048Y-14950428D01*
X5221048Y-14788524D02*
X5230571Y-14779000D01*
X5249619Y-14769476D01*
X5297238Y-14769476D01*
X5316286Y-14779000D01*
X5325810Y-14788524D01*
X5335333Y-14807571D01*
X5335333Y-14826619D01*
X5325810Y-14855190D01*
X5211524Y-14969476D01*
X5335333Y-14969476D01*
X5573429Y-14969476D02*
X5573429Y-14769476D01*
X5659143Y-14969476D02*
X5659143Y-14864714D01*
X5649619Y-14845667D01*
X5630571Y-14836143D01*
X5602000Y-14836143D01*
X5582952Y-14845667D01*
X5573429Y-14855190D01*
X5782952Y-14969476D02*
X5763905Y-14959952D01*
X5754381Y-14950428D01*
X5744857Y-14931381D01*
X5744857Y-14874238D01*
X5754381Y-14855190D01*
X5763905Y-14845667D01*
X5782952Y-14836143D01*
X5811524Y-14836143D01*
X5830571Y-14845667D01*
X5840095Y-14855190D01*
X5849619Y-14874238D01*
X5849619Y-14931381D01*
X5840095Y-14950428D01*
X5830571Y-14959952D01*
X5811524Y-14969476D01*
X5782952Y-14969476D01*
X5963905Y-14969476D02*
X5944857Y-14959952D01*
X5935333Y-14940905D01*
X5935333Y-14769476D01*
X6116286Y-14959952D02*
X6097238Y-14969476D01*
X6059143Y-14969476D01*
X6040095Y-14959952D01*
X6030571Y-14940905D01*
X6030571Y-14864714D01*
X6040095Y-14845667D01*
X6059143Y-14836143D01*
X6097238Y-14836143D01*
X6116286Y-14845667D01*
X6125809Y-14864714D01*
X6125809Y-14883762D01*
X6030571Y-14902809D01*
X6202000Y-14959952D02*
X6221048Y-14969476D01*
X6259143Y-14969476D01*
X6278190Y-14959952D01*
X6287714Y-14940905D01*
X6287714Y-14931381D01*
X6278190Y-14912333D01*
X6259143Y-14902809D01*
X6230571Y-14902809D01*
X6211524Y-14893286D01*
X6202000Y-14874238D01*
X6202000Y-14864714D01*
X6211524Y-14845667D01*
X6230571Y-14836143D01*
X6259143Y-14836143D01*
X6278190Y-14845667D01*
X6354381Y-15045667D02*
X6363905Y-15036143D01*
X6382952Y-15007571D01*
X6392476Y-14988524D01*
X6402000Y-14959952D01*
X6411524Y-14912333D01*
X6411524Y-14874238D01*
X6402000Y-14826619D01*
X6392476Y-14798048D01*
X6382952Y-14779000D01*
X6363905Y-14750428D01*
X6354381Y-14740905D01*
D14*
X1342000Y-15093000D02*
X1342000Y-15193000D01*
X1292000Y-15143000D02*
X1392000Y-15143000D01*
D11*
X1754381Y-15233476D02*
X1640095Y-15233476D01*
X1697238Y-15233476D02*
X1697238Y-15033476D01*
X1678190Y-15062048D01*
X1659143Y-15081095D01*
X1640095Y-15090619D01*
X1840095Y-15214428D02*
X1849619Y-15223952D01*
X1840095Y-15233476D01*
X1830571Y-15223952D01*
X1840095Y-15214428D01*
X1840095Y-15233476D01*
X1973428Y-15033476D02*
X1992476Y-15033476D01*
X2011524Y-15043000D01*
X2021048Y-15052524D01*
X2030571Y-15071571D01*
X2040095Y-15109667D01*
X2040095Y-15157286D01*
X2030571Y-15195381D01*
X2021048Y-15214428D01*
X2011524Y-15223952D01*
X1992476Y-15233476D01*
X1973428Y-15233476D01*
X1954381Y-15223952D01*
X1944857Y-15214428D01*
X1935333Y-15195381D01*
X1925809Y-15157286D01*
X1925809Y-15109667D01*
X1935333Y-15071571D01*
X1944857Y-15052524D01*
X1954381Y-15043000D01*
X1973428Y-15033476D01*
X2163905Y-15033476D02*
X2182952Y-15033476D01*
X2202000Y-15043000D01*
X2211524Y-15052524D01*
X2221048Y-15071571D01*
X2230571Y-15109667D01*
X2230571Y-15157286D01*
X2221048Y-15195381D01*
X2211524Y-15214428D01*
X2202000Y-15223952D01*
X2182952Y-15233476D01*
X2163905Y-15233476D01*
X2144857Y-15223952D01*
X2135333Y-15214428D01*
X2125810Y-15195381D01*
X2116286Y-15157286D01*
X2116286Y-15109667D01*
X2125810Y-15071571D01*
X2135333Y-15052524D01*
X2144857Y-15043000D01*
X2163905Y-15033476D01*
X2354381Y-15033476D02*
X2373429Y-15033476D01*
X2392476Y-15043000D01*
X2402000Y-15052524D01*
X2411524Y-15071571D01*
X2421048Y-15109667D01*
X2421048Y-15157286D01*
X2411524Y-15195381D01*
X2402000Y-15214428D01*
X2392476Y-15223952D01*
X2373429Y-15233476D01*
X2354381Y-15233476D01*
X2335333Y-15223952D01*
X2325810Y-15214428D01*
X2316286Y-15195381D01*
X2306762Y-15157286D01*
X2306762Y-15109667D01*
X2316286Y-15071571D01*
X2325810Y-15052524D01*
X2335333Y-15043000D01*
X2354381Y-15033476D01*
X2506762Y-15233476D02*
X2506762Y-15100143D01*
X2506762Y-15119190D02*
X2516286Y-15109667D01*
X2535333Y-15100143D01*
X2563905Y-15100143D01*
X2582952Y-15109667D01*
X2592476Y-15128714D01*
X2592476Y-15233476D01*
X2592476Y-15128714D02*
X2602000Y-15109667D01*
X2621048Y-15100143D01*
X2649619Y-15100143D01*
X2668667Y-15109667D01*
X2678190Y-15128714D01*
X2678190Y-15233476D01*
X2773429Y-15233476D02*
X2773429Y-15100143D01*
X2773429Y-15119190D02*
X2782952Y-15109667D01*
X2802000Y-15100143D01*
X2830571Y-15100143D01*
X2849619Y-15109667D01*
X2859143Y-15128714D01*
X2859143Y-15233476D01*
X2859143Y-15128714D02*
X2868667Y-15109667D01*
X2887714Y-15100143D01*
X2916286Y-15100143D01*
X2935333Y-15109667D01*
X2944857Y-15128714D01*
X2944857Y-15233476D01*
X3335333Y-15023952D02*
X3163905Y-15281095D01*
X3592476Y-15033476D02*
X3611524Y-15033476D01*
X3630571Y-15043000D01*
X3640095Y-15052524D01*
X3649619Y-15071571D01*
X3659143Y-15109667D01*
X3659143Y-15157286D01*
X3649619Y-15195381D01*
X3640095Y-15214428D01*
X3630571Y-15223952D01*
X3611524Y-15233476D01*
X3592476Y-15233476D01*
X3573428Y-15223952D01*
X3563905Y-15214428D01*
X3554381Y-15195381D01*
X3544857Y-15157286D01*
X3544857Y-15109667D01*
X3554381Y-15071571D01*
X3563905Y-15052524D01*
X3573428Y-15043000D01*
X3592476Y-15033476D01*
X3744857Y-15214428D02*
X3754381Y-15223952D01*
X3744857Y-15233476D01*
X3735333Y-15223952D01*
X3744857Y-15214428D01*
X3744857Y-15233476D01*
X3878190Y-15033476D02*
X3897238Y-15033476D01*
X3916286Y-15043000D01*
X3925809Y-15052524D01*
X3935333Y-15071571D01*
X3944857Y-15109667D01*
X3944857Y-15157286D01*
X3935333Y-15195381D01*
X3925809Y-15214428D01*
X3916286Y-15223952D01*
X3897238Y-15233476D01*
X3878190Y-15233476D01*
X3859143Y-15223952D01*
X3849619Y-15214428D01*
X3840095Y-15195381D01*
X3830571Y-15157286D01*
X3830571Y-15109667D01*
X3840095Y-15071571D01*
X3849619Y-15052524D01*
X3859143Y-15043000D01*
X3878190Y-15033476D01*
X4011524Y-15033476D02*
X4135333Y-15033476D01*
X4068667Y-15109667D01*
X4097238Y-15109667D01*
X4116286Y-15119190D01*
X4125809Y-15128714D01*
X4135333Y-15147762D01*
X4135333Y-15195381D01*
X4125809Y-15214428D01*
X4116286Y-15223952D01*
X4097238Y-15233476D01*
X4040095Y-15233476D01*
X4021048Y-15223952D01*
X4011524Y-15214428D01*
X4230571Y-15233476D02*
X4268667Y-15233476D01*
X4287714Y-15223952D01*
X4297238Y-15214428D01*
X4316286Y-15185857D01*
X4325810Y-15147762D01*
X4325810Y-15071571D01*
X4316286Y-15052524D01*
X4306762Y-15043000D01*
X4287714Y-15033476D01*
X4249619Y-15033476D01*
X4230571Y-15043000D01*
X4221048Y-15052524D01*
X4211524Y-15071571D01*
X4211524Y-15119190D01*
X4221048Y-15138238D01*
X4230571Y-15147762D01*
X4249619Y-15157286D01*
X4287714Y-15157286D01*
X4306762Y-15147762D01*
X4316286Y-15138238D01*
X4325810Y-15119190D01*
X4497238Y-15100143D02*
X4497238Y-15233476D01*
X4449619Y-15023952D02*
X4402000Y-15166809D01*
X4525810Y-15166809D01*
X4592476Y-15033476D02*
X4592476Y-15071571D01*
X4668667Y-15033476D02*
X4668667Y-15071571D01*
X4963905Y-15309667D02*
X4954381Y-15300143D01*
X4935333Y-15271571D01*
X4925810Y-15252524D01*
X4916286Y-15223952D01*
X4906762Y-15176333D01*
X4906762Y-15138238D01*
X4916286Y-15090619D01*
X4925810Y-15062048D01*
X4935333Y-15043000D01*
X4954381Y-15014428D01*
X4963905Y-15004905D01*
X5125810Y-15100143D02*
X5125810Y-15233476D01*
X5078190Y-15023952D02*
X5030571Y-15166809D01*
X5154381Y-15166809D01*
X5382952Y-15233476D02*
X5382952Y-15033476D01*
X5468667Y-15233476D02*
X5468667Y-15128714D01*
X5459143Y-15109667D01*
X5440095Y-15100143D01*
X5411524Y-15100143D01*
X5392476Y-15109667D01*
X5382952Y-15119190D01*
X5592476Y-15233476D02*
X5573429Y-15223952D01*
X5563905Y-15214428D01*
X5554381Y-15195381D01*
X5554381Y-15138238D01*
X5563905Y-15119190D01*
X5573429Y-15109667D01*
X5592476Y-15100143D01*
X5621048Y-15100143D01*
X5640095Y-15109667D01*
X5649619Y-15119190D01*
X5659143Y-15138238D01*
X5659143Y-15195381D01*
X5649619Y-15214428D01*
X5640095Y-15223952D01*
X5621048Y-15233476D01*
X5592476Y-15233476D01*
X5773428Y-15233476D02*
X5754381Y-15223952D01*
X5744857Y-15204905D01*
X5744857Y-15033476D01*
X5925809Y-15223952D02*
X5906762Y-15233476D01*
X5868667Y-15233476D01*
X5849619Y-15223952D01*
X5840095Y-15204905D01*
X5840095Y-15128714D01*
X5849619Y-15109667D01*
X5868667Y-15100143D01*
X5906762Y-15100143D01*
X5925809Y-15109667D01*
X5935333Y-15128714D01*
X5935333Y-15147762D01*
X5840095Y-15166809D01*
X6011524Y-15223952D02*
X6030571Y-15233476D01*
X6068667Y-15233476D01*
X6087714Y-15223952D01*
X6097238Y-15204905D01*
X6097238Y-15195381D01*
X6087714Y-15176333D01*
X6068667Y-15166809D01*
X6040095Y-15166809D01*
X6021048Y-15157286D01*
X6011524Y-15138238D01*
X6011524Y-15128714D01*
X6021048Y-15109667D01*
X6040095Y-15100143D01*
X6068667Y-15100143D01*
X6087714Y-15109667D01*
X6163905Y-15309667D02*
X6173428Y-15300143D01*
X6192476Y-15271571D01*
X6202000Y-15252524D01*
X6211524Y-15223952D01*
X6221048Y-15176333D01*
X6221048Y-15138238D01*
X6211524Y-15090619D01*
X6202000Y-15062048D01*
X6192476Y-15043000D01*
X6173428Y-15014428D01*
X6163905Y-15004905D01*
D15*
X1374573Y-15449073D02*
X1374573Y-15364927D01*
X1290427Y-15364927D01*
X1290427Y-15449073D01*
X1374573Y-15449073D01*
D11*
X1754381Y-15497476D02*
X1640095Y-15497476D01*
X1697238Y-15497476D02*
X1697238Y-15297476D01*
X1678190Y-15326048D01*
X1659143Y-15345095D01*
X1640095Y-15354619D01*
X1840095Y-15478428D02*
X1849619Y-15487952D01*
X1840095Y-15497476D01*
X1830571Y-15487952D01*
X1840095Y-15478428D01*
X1840095Y-15497476D01*
X2040095Y-15497476D02*
X1925809Y-15497476D01*
X1982952Y-15497476D02*
X1982952Y-15297476D01*
X1963905Y-15326048D01*
X1944857Y-15345095D01*
X1925809Y-15354619D01*
X2135333Y-15497476D02*
X2173429Y-15497476D01*
X2192476Y-15487952D01*
X2202000Y-15478428D01*
X2221048Y-15449857D01*
X2230571Y-15411762D01*
X2230571Y-15335571D01*
X2221048Y-15316524D01*
X2211524Y-15307000D01*
X2192476Y-15297476D01*
X2154381Y-15297476D01*
X2135333Y-15307000D01*
X2125810Y-15316524D01*
X2116286Y-15335571D01*
X2116286Y-15383190D01*
X2125810Y-15402238D01*
X2135333Y-15411762D01*
X2154381Y-15421286D01*
X2192476Y-15421286D01*
X2211524Y-15411762D01*
X2221048Y-15402238D01*
X2230571Y-15383190D01*
X2354381Y-15297476D02*
X2373429Y-15297476D01*
X2392476Y-15307000D01*
X2402000Y-15316524D01*
X2411524Y-15335571D01*
X2421048Y-15373667D01*
X2421048Y-15421286D01*
X2411524Y-15459381D01*
X2402000Y-15478428D01*
X2392476Y-15487952D01*
X2373429Y-15497476D01*
X2354381Y-15497476D01*
X2335333Y-15487952D01*
X2325810Y-15478428D01*
X2316286Y-15459381D01*
X2306762Y-15421286D01*
X2306762Y-15373667D01*
X2316286Y-15335571D01*
X2325810Y-15316524D01*
X2335333Y-15307000D01*
X2354381Y-15297476D01*
X2506762Y-15497476D02*
X2506762Y-15364143D01*
X2506762Y-15383190D02*
X2516286Y-15373667D01*
X2535333Y-15364143D01*
X2563905Y-15364143D01*
X2582952Y-15373667D01*
X2592476Y-15392714D01*
X2592476Y-15497476D01*
X2592476Y-15392714D02*
X2602000Y-15373667D01*
X2621048Y-15364143D01*
X2649619Y-15364143D01*
X2668667Y-15373667D01*
X2678190Y-15392714D01*
X2678190Y-15497476D01*
X2773429Y-15497476D02*
X2773429Y-15364143D01*
X2773429Y-15383190D02*
X2782952Y-15373667D01*
X2802000Y-15364143D01*
X2830571Y-15364143D01*
X2849619Y-15373667D01*
X2859143Y-15392714D01*
X2859143Y-15497476D01*
X2859143Y-15392714D02*
X2868667Y-15373667D01*
X2887714Y-15364143D01*
X2916286Y-15364143D01*
X2935333Y-15373667D01*
X2944857Y-15392714D01*
X2944857Y-15497476D01*
X3335333Y-15287952D02*
X3163905Y-15545095D01*
X3592476Y-15297476D02*
X3611524Y-15297476D01*
X3630571Y-15307000D01*
X3640095Y-15316524D01*
X3649619Y-15335571D01*
X3659143Y-15373667D01*
X3659143Y-15421286D01*
X3649619Y-15459381D01*
X3640095Y-15478428D01*
X3630571Y-15487952D01*
X3611524Y-15497476D01*
X3592476Y-15497476D01*
X3573428Y-15487952D01*
X3563905Y-15478428D01*
X3554381Y-15459381D01*
X3544857Y-15421286D01*
X3544857Y-15373667D01*
X3554381Y-15335571D01*
X3563905Y-15316524D01*
X3573428Y-15307000D01*
X3592476Y-15297476D01*
X3744857Y-15478428D02*
X3754381Y-15487952D01*
X3744857Y-15497476D01*
X3735333Y-15487952D01*
X3744857Y-15478428D01*
X3744857Y-15497476D01*
X3878190Y-15297476D02*
X3897238Y-15297476D01*
X3916286Y-15307000D01*
X3925809Y-15316524D01*
X3935333Y-15335571D01*
X3944857Y-15373667D01*
X3944857Y-15421286D01*
X3935333Y-15459381D01*
X3925809Y-15478428D01*
X3916286Y-15487952D01*
X3897238Y-15497476D01*
X3878190Y-15497476D01*
X3859143Y-15487952D01*
X3849619Y-15478428D01*
X3840095Y-15459381D01*
X3830571Y-15421286D01*
X3830571Y-15373667D01*
X3840095Y-15335571D01*
X3849619Y-15316524D01*
X3859143Y-15307000D01*
X3878190Y-15297476D01*
X4116286Y-15364143D02*
X4116286Y-15497476D01*
X4068667Y-15287952D02*
X4021048Y-15430809D01*
X4144857Y-15430809D01*
X4306762Y-15297476D02*
X4268667Y-15297476D01*
X4249619Y-15307000D01*
X4240095Y-15316524D01*
X4221048Y-15345095D01*
X4211524Y-15383190D01*
X4211524Y-15459381D01*
X4221048Y-15478428D01*
X4230571Y-15487952D01*
X4249619Y-15497476D01*
X4287714Y-15497476D01*
X4306762Y-15487952D01*
X4316286Y-15478428D01*
X4325810Y-15459381D01*
X4325810Y-15411762D01*
X4316286Y-15392714D01*
X4306762Y-15383190D01*
X4287714Y-15373667D01*
X4249619Y-15373667D01*
X4230571Y-15383190D01*
X4221048Y-15392714D01*
X4211524Y-15411762D01*
X4421048Y-15497476D02*
X4459143Y-15497476D01*
X4478190Y-15487952D01*
X4487714Y-15478428D01*
X4506762Y-15449857D01*
X4516286Y-15411762D01*
X4516286Y-15335571D01*
X4506762Y-15316524D01*
X4497238Y-15307000D01*
X4478190Y-15297476D01*
X4440095Y-15297476D01*
X4421048Y-15307000D01*
X4411524Y-15316524D01*
X4402000Y-15335571D01*
X4402000Y-15383190D01*
X4411524Y-15402238D01*
X4421048Y-15411762D01*
X4440095Y-15421286D01*
X4478190Y-15421286D01*
X4497238Y-15411762D01*
X4506762Y-15402238D01*
X4516286Y-15383190D01*
X4592476Y-15297476D02*
X4592476Y-15335571D01*
X4668667Y-15297476D02*
X4668667Y-15335571D01*
X4963905Y-15573667D02*
X4954381Y-15564143D01*
X4935333Y-15535571D01*
X4925810Y-15516524D01*
X4916286Y-15487952D01*
X4906762Y-15440333D01*
X4906762Y-15402238D01*
X4916286Y-15354619D01*
X4925810Y-15326048D01*
X4935333Y-15307000D01*
X4954381Y-15278428D01*
X4963905Y-15268905D01*
X5030571Y-15316524D02*
X5040095Y-15307000D01*
X5059143Y-15297476D01*
X5106762Y-15297476D01*
X5125810Y-15307000D01*
X5135333Y-15316524D01*
X5144857Y-15335571D01*
X5144857Y-15354619D01*
X5135333Y-15383190D01*
X5021048Y-15497476D01*
X5144857Y-15497476D01*
X5268667Y-15297476D02*
X5287714Y-15297476D01*
X5306762Y-15307000D01*
X5316286Y-15316524D01*
X5325810Y-15335571D01*
X5335333Y-15373667D01*
X5335333Y-15421286D01*
X5325810Y-15459381D01*
X5316286Y-15478428D01*
X5306762Y-15487952D01*
X5287714Y-15497476D01*
X5268667Y-15497476D01*
X5249619Y-15487952D01*
X5240095Y-15478428D01*
X5230571Y-15459381D01*
X5221048Y-15421286D01*
X5221048Y-15373667D01*
X5230571Y-15335571D01*
X5240095Y-15316524D01*
X5249619Y-15307000D01*
X5268667Y-15297476D01*
X5573429Y-15497476D02*
X5573429Y-15297476D01*
X5659143Y-15497476D02*
X5659143Y-15392714D01*
X5649619Y-15373667D01*
X5630571Y-15364143D01*
X5602000Y-15364143D01*
X5582952Y-15373667D01*
X5573429Y-15383190D01*
X5782952Y-15497476D02*
X5763905Y-15487952D01*
X5754381Y-15478428D01*
X5744857Y-15459381D01*
X5744857Y-15402238D01*
X5754381Y-15383190D01*
X5763905Y-15373667D01*
X5782952Y-15364143D01*
X5811524Y-15364143D01*
X5830571Y-15373667D01*
X5840095Y-15383190D01*
X5849619Y-15402238D01*
X5849619Y-15459381D01*
X5840095Y-15478428D01*
X5830571Y-15487952D01*
X5811524Y-15497476D01*
X5782952Y-15497476D01*
X5963905Y-15497476D02*
X5944857Y-15487952D01*
X5935333Y-15468905D01*
X5935333Y-15297476D01*
X6116286Y-15487952D02*
X6097238Y-15497476D01*
X6059143Y-15497476D01*
X6040095Y-15487952D01*
X6030571Y-15468905D01*
X6030571Y-15392714D01*
X6040095Y-15373667D01*
X6059143Y-15364143D01*
X6097238Y-15364143D01*
X6116286Y-15373667D01*
X6125809Y-15392714D01*
X6125809Y-15411762D01*
X6030571Y-15430809D01*
X6202000Y-15487952D02*
X6221048Y-15497476D01*
X6259143Y-15497476D01*
X6278190Y-15487952D01*
X6287714Y-15468905D01*
X6287714Y-15459381D01*
X6278190Y-15440333D01*
X6259143Y-15430809D01*
X6230571Y-15430809D01*
X6211524Y-15421286D01*
X6202000Y-15402238D01*
X6202000Y-15392714D01*
X6211524Y-15373667D01*
X6230571Y-15364143D01*
X6259143Y-15364143D01*
X6278190Y-15373667D01*
X6354381Y-15573667D02*
X6363905Y-15564143D01*
X6382952Y-15535571D01*
X6392476Y-15516524D01*
X6402000Y-15487952D01*
X6411524Y-15440333D01*
X6411524Y-15402238D01*
X6402000Y-15354619D01*
X6392476Y-15326048D01*
X6382952Y-15307000D01*
X6363905Y-15278428D01*
X6354381Y-15268905D01*
X1292000Y-15771000D02*
X1392000Y-15671000D01*
X1292000Y-15571000D01*
X1192000Y-15671000D01*
X1292000Y-15771000D01*
X1630571Y-15561476D02*
X1754381Y-15561476D01*
X1687714Y-15637667D01*
X1716286Y-15637667D01*
X1735333Y-15647190D01*
X1744857Y-15656714D01*
X1754381Y-15675762D01*
X1754381Y-15723381D01*
X1744857Y-15742428D01*
X1735333Y-15751952D01*
X1716286Y-15761476D01*
X1659143Y-15761476D01*
X1640095Y-15751952D01*
X1630571Y-15742428D01*
X1840095Y-15742428D02*
X1849619Y-15751952D01*
X1840095Y-15761476D01*
X1830571Y-15751952D01*
X1840095Y-15742428D01*
X1840095Y-15761476D01*
X1925809Y-15580524D02*
X1935333Y-15571000D01*
X1954381Y-15561476D01*
X2002000Y-15561476D01*
X2021048Y-15571000D01*
X2030571Y-15580524D01*
X2040095Y-15599571D01*
X2040095Y-15618619D01*
X2030571Y-15647190D01*
X1916286Y-15761476D01*
X2040095Y-15761476D01*
X2163905Y-15561476D02*
X2182952Y-15561476D01*
X2202000Y-15571000D01*
X2211524Y-15580524D01*
X2221048Y-15599571D01*
X2230571Y-15637667D01*
X2230571Y-15685286D01*
X2221048Y-15723381D01*
X2211524Y-15742428D01*
X2202000Y-15751952D01*
X2182952Y-15761476D01*
X2163905Y-15761476D01*
X2144857Y-15751952D01*
X2135333Y-15742428D01*
X2125810Y-15723381D01*
X2116286Y-15685286D01*
X2116286Y-15637667D01*
X2125810Y-15599571D01*
X2135333Y-15580524D01*
X2144857Y-15571000D01*
X2163905Y-15561476D01*
X2354381Y-15561476D02*
X2373429Y-15561476D01*
X2392476Y-15571000D01*
X2402000Y-15580524D01*
X2411524Y-15599571D01*
X2421048Y-15637667D01*
X2421048Y-15685286D01*
X2411524Y-15723381D01*
X2402000Y-15742428D01*
X2392476Y-15751952D01*
X2373429Y-15761476D01*
X2354381Y-15761476D01*
X2335333Y-15751952D01*
X2325810Y-15742428D01*
X2316286Y-15723381D01*
X2306762Y-15685286D01*
X2306762Y-15637667D01*
X2316286Y-15599571D01*
X2325810Y-15580524D01*
X2335333Y-15571000D01*
X2354381Y-15561476D01*
X2506762Y-15761476D02*
X2506762Y-15628143D01*
X2506762Y-15647190D02*
X2516286Y-15637667D01*
X2535333Y-15628143D01*
X2563905Y-15628143D01*
X2582952Y-15637667D01*
X2592476Y-15656714D01*
X2592476Y-15761476D01*
X2592476Y-15656714D02*
X2602000Y-15637667D01*
X2621048Y-15628143D01*
X2649619Y-15628143D01*
X2668667Y-15637667D01*
X2678190Y-15656714D01*
X2678190Y-15761476D01*
X2773429Y-15761476D02*
X2773429Y-15628143D01*
X2773429Y-15647190D02*
X2782952Y-15637667D01*
X2802000Y-15628143D01*
X2830571Y-15628143D01*
X2849619Y-15637667D01*
X2859143Y-15656714D01*
X2859143Y-15761476D01*
X2859143Y-15656714D02*
X2868667Y-15637667D01*
X2887714Y-15628143D01*
X2916286Y-15628143D01*
X2935333Y-15637667D01*
X2944857Y-15656714D01*
X2944857Y-15761476D01*
X3335333Y-15551952D02*
X3163905Y-15809095D01*
X3592476Y-15561476D02*
X3611524Y-15561476D01*
X3630571Y-15571000D01*
X3640095Y-15580524D01*
X3649619Y-15599571D01*
X3659143Y-15637667D01*
X3659143Y-15685286D01*
X3649619Y-15723381D01*
X3640095Y-15742428D01*
X3630571Y-15751952D01*
X3611524Y-15761476D01*
X3592476Y-15761476D01*
X3573428Y-15751952D01*
X3563905Y-15742428D01*
X3554381Y-15723381D01*
X3544857Y-15685286D01*
X3544857Y-15637667D01*
X3554381Y-15599571D01*
X3563905Y-15580524D01*
X3573428Y-15571000D01*
X3592476Y-15561476D01*
X3744857Y-15742428D02*
X3754381Y-15751952D01*
X3744857Y-15761476D01*
X3735333Y-15751952D01*
X3744857Y-15742428D01*
X3744857Y-15761476D01*
X3944857Y-15761476D02*
X3830571Y-15761476D01*
X3887714Y-15761476D02*
X3887714Y-15561476D01*
X3868667Y-15590048D01*
X3849619Y-15609095D01*
X3830571Y-15618619D01*
X4021048Y-15580524D02*
X4030571Y-15571000D01*
X4049619Y-15561476D01*
X4097238Y-15561476D01*
X4116286Y-15571000D01*
X4125809Y-15580524D01*
X4135333Y-15599571D01*
X4135333Y-15618619D01*
X4125809Y-15647190D01*
X4011524Y-15761476D01*
X4135333Y-15761476D01*
X4306762Y-15561476D02*
X4268667Y-15561476D01*
X4249619Y-15571000D01*
X4240095Y-15580524D01*
X4221048Y-15609095D01*
X4211524Y-15647190D01*
X4211524Y-15723381D01*
X4221048Y-15742428D01*
X4230571Y-15751952D01*
X4249619Y-15761476D01*
X4287714Y-15761476D01*
X4306762Y-15751952D01*
X4316286Y-15742428D01*
X4325810Y-15723381D01*
X4325810Y-15675762D01*
X4316286Y-15656714D01*
X4306762Y-15647190D01*
X4287714Y-15637667D01*
X4249619Y-15637667D01*
X4230571Y-15647190D01*
X4221048Y-15656714D01*
X4211524Y-15675762D01*
X4449619Y-15561476D02*
X4468667Y-15561476D01*
X4487714Y-15571000D01*
X4497238Y-15580524D01*
X4506762Y-15599571D01*
X4516286Y-15637667D01*
X4516286Y-15685286D01*
X4506762Y-15723381D01*
X4497238Y-15742428D01*
X4487714Y-15751952D01*
X4468667Y-15761476D01*
X4449619Y-15761476D01*
X4430571Y-15751952D01*
X4421048Y-15742428D01*
X4411524Y-15723381D01*
X4402000Y-15685286D01*
X4402000Y-15637667D01*
X4411524Y-15599571D01*
X4421048Y-15580524D01*
X4430571Y-15571000D01*
X4449619Y-15561476D01*
X4592476Y-15561476D02*
X4592476Y-15599571D01*
X4668667Y-15561476D02*
X4668667Y-15599571D01*
X4963905Y-15837667D02*
X4954381Y-15828143D01*
X4935333Y-15799571D01*
X4925810Y-15780524D01*
X4916286Y-15751952D01*
X4906762Y-15704333D01*
X4906762Y-15666238D01*
X4916286Y-15618619D01*
X4925810Y-15590048D01*
X4935333Y-15571000D01*
X4954381Y-15542428D01*
X4963905Y-15532905D01*
X5144857Y-15761476D02*
X5030571Y-15761476D01*
X5087714Y-15761476D02*
X5087714Y-15561476D01*
X5068667Y-15590048D01*
X5049619Y-15609095D01*
X5030571Y-15618619D01*
X5316286Y-15561476D02*
X5278190Y-15561476D01*
X5259143Y-15571000D01*
X5249619Y-15580524D01*
X5230571Y-15609095D01*
X5221048Y-15647190D01*
X5221048Y-15723381D01*
X5230571Y-15742428D01*
X5240095Y-15751952D01*
X5259143Y-15761476D01*
X5297238Y-15761476D01*
X5316286Y-15751952D01*
X5325810Y-15742428D01*
X5335333Y-15723381D01*
X5335333Y-15675762D01*
X5325810Y-15656714D01*
X5316286Y-15647190D01*
X5297238Y-15637667D01*
X5259143Y-15637667D01*
X5240095Y-15647190D01*
X5230571Y-15656714D01*
X5221048Y-15675762D01*
X5573429Y-15761476D02*
X5573429Y-15561476D01*
X5659143Y-15761476D02*
X5659143Y-15656714D01*
X5649619Y-15637667D01*
X5630571Y-15628143D01*
X5602000Y-15628143D01*
X5582952Y-15637667D01*
X5573429Y-15647190D01*
X5782952Y-15761476D02*
X5763905Y-15751952D01*
X5754381Y-15742428D01*
X5744857Y-15723381D01*
X5744857Y-15666238D01*
X5754381Y-15647190D01*
X5763905Y-15637667D01*
X5782952Y-15628143D01*
X5811524Y-15628143D01*
X5830571Y-15637667D01*
X5840095Y-15647190D01*
X5849619Y-15666238D01*
X5849619Y-15723381D01*
X5840095Y-15742428D01*
X5830571Y-15751952D01*
X5811524Y-15761476D01*
X5782952Y-15761476D01*
X5963905Y-15761476D02*
X5944857Y-15751952D01*
X5935333Y-15732905D01*
X5935333Y-15561476D01*
X6116286Y-15751952D02*
X6097238Y-15761476D01*
X6059143Y-15761476D01*
X6040095Y-15751952D01*
X6030571Y-15732905D01*
X6030571Y-15656714D01*
X6040095Y-15637667D01*
X6059143Y-15628143D01*
X6097238Y-15628143D01*
X6116286Y-15637667D01*
X6125809Y-15656714D01*
X6125809Y-15675762D01*
X6030571Y-15694809D01*
X6202000Y-15751952D02*
X6221048Y-15761476D01*
X6259143Y-15761476D01*
X6278190Y-15751952D01*
X6287714Y-15732905D01*
X6287714Y-15723381D01*
X6278190Y-15704333D01*
X6259143Y-15694809D01*
X6230571Y-15694809D01*
X6211524Y-15685286D01*
X6202000Y-15666238D01*
X6202000Y-15656714D01*
X6211524Y-15637667D01*
X6230571Y-15628143D01*
X6259143Y-15628143D01*
X6278190Y-15637667D01*
X6354381Y-15837667D02*
X6363905Y-15828143D01*
X6382952Y-15799571D01*
X6392476Y-15780524D01*
X6402000Y-15751952D01*
X6411524Y-15704333D01*
X6411524Y-15666238D01*
X6402000Y-15618619D01*
X6392476Y-15590048D01*
X6382952Y-15571000D01*
X6363905Y-15542428D01*
X6354381Y-15532905D01*
M02*
