G04 #@! TF.GenerationSoftware,KiCad,Pcbnew,6.0.5+dfsg-1~bpo11+1*
G04 #@! TF.CreationDate,2022-08-13T15:25:21+00:00*
G04 #@! TF.ProjectId,led_breakout,6c65645f-6272-4656-916b-6f75742e6b69,0.1*
G04 #@! TF.SameCoordinates,Original*
G04 #@! TF.FileFunction,Copper,L1,Top*
G04 #@! TF.FilePolarity,Positive*
%FSLAX46Y46*%
G04 Gerber Fmt 4.6, Leading zero omitted, Abs format (unit mm)*
G04 Created by KiCad (PCBNEW 6.0.5+dfsg-1~bpo11+1) date 2022-08-13 15:25:21*
%MOMM*%
%LPD*%
G01*
G04 APERTURE LIST*
G04 #@! TA.AperFunction,ComponentPad*
%ADD10C,5.600000*%
G04 #@! TD*
G04 #@! TA.AperFunction,ComponentPad*
%ADD11R,1.800000X1.800000*%
G04 #@! TD*
G04 #@! TA.AperFunction,ComponentPad*
%ADD12C,1.800000*%
G04 #@! TD*
G04 #@! TA.AperFunction,ComponentPad*
%ADD13C,2.000000*%
G04 #@! TD*
G04 #@! TA.AperFunction,ComponentPad*
%ADD14O,2.190000X1.740000*%
G04 #@! TD*
G04 #@! TA.AperFunction,ComponentPad*
%ADD15O,1.740000X2.190000*%
G04 #@! TD*
G04 #@! TA.AperFunction,ViaPad*
%ADD16C,1.000000*%
G04 #@! TD*
G04 #@! TA.AperFunction,Conductor*
%ADD17C,0.600000*%
G04 #@! TD*
G04 #@! TA.AperFunction,Conductor*
%ADD18C,1.000000*%
G04 #@! TD*
G04 APERTURE END LIST*
D10*
X190500000Y-135890000D03*
X139700000Y-135890000D03*
D11*
X228439032Y-119090979D03*
D12*
X228439032Y-116550979D03*
D11*
X152239032Y-119090979D03*
D12*
X152239032Y-116550979D03*
D10*
X38100000Y-135890000D03*
X292100000Y-135890000D03*
D11*
X406239032Y-119090979D03*
D12*
X406239032Y-116550979D03*
D10*
X393700000Y-135890000D03*
X88900000Y-110490000D03*
X88900000Y-135890000D03*
X38100000Y-110490000D03*
X241300000Y-110490000D03*
D11*
X101439032Y-119090979D03*
D12*
X101439032Y-116550979D03*
D10*
X241300000Y-135890000D03*
X190500000Y-110490000D03*
X342900000Y-135890000D03*
D11*
X126839032Y-119090979D03*
D12*
X126839032Y-116550979D03*
D11*
X253839032Y-119090979D03*
D12*
X253839032Y-116550979D03*
D11*
X177639032Y-119090979D03*
D12*
X177639032Y-116550979D03*
D11*
X355439032Y-119090979D03*
D12*
X355439032Y-116550979D03*
D11*
X304639032Y-119090979D03*
D12*
X304639032Y-116550979D03*
D11*
X50639032Y-119090979D03*
D12*
X50639032Y-116550979D03*
D10*
X393700000Y-110490000D03*
D11*
X330039032Y-119090979D03*
D12*
X330039032Y-116550979D03*
D11*
X25239032Y-119090979D03*
D12*
X25239032Y-116550979D03*
D11*
X279239032Y-119090979D03*
D12*
X279239032Y-116550979D03*
D11*
X76039032Y-119090979D03*
D12*
X76039032Y-116550979D03*
D10*
X139700000Y-110490000D03*
D11*
X203039032Y-119090979D03*
D12*
X203039032Y-116550979D03*
D11*
X380839032Y-119090979D03*
D12*
X380839032Y-116550979D03*
D10*
X342900000Y-110490000D03*
X292100000Y-110490000D03*
D13*
X106680000Y-133985000D03*
G04 #@! TA.AperFunction,ComponentPad*
G36*
G01*
X16935000Y-121050000D02*
X18625000Y-121050000D01*
G75*
G02*
X18875000Y-121300000I0J-250000D01*
G01*
X18875000Y-122540000D01*
G75*
G02*
X18625000Y-122790000I-250000J0D01*
G01*
X16935000Y-122790000D01*
G75*
G02*
X16685000Y-122540000I0J250000D01*
G01*
X16685000Y-121300000D01*
G75*
G02*
X16935000Y-121050000I250000J0D01*
G01*
G37*
G04 #@! TD.AperFunction*
D14*
X17780000Y-124460000D03*
X17780000Y-127000000D03*
X17780000Y-129540000D03*
X17780000Y-132080000D03*
X17780000Y-134620000D03*
G04 #@! TA.AperFunction,ComponentPad*
G36*
G01*
X414704032Y-115170000D02*
X413014032Y-115170000D01*
G75*
G02*
X412764032Y-114920000I0J250000D01*
G01*
X412764032Y-113680000D01*
G75*
G02*
X413014032Y-113430000I250000J0D01*
G01*
X414704032Y-113430000D01*
G75*
G02*
X414954032Y-113680000I0J-250000D01*
G01*
X414954032Y-114920000D01*
G75*
G02*
X414704032Y-115170000I-250000J0D01*
G01*
G37*
G04 #@! TD.AperFunction*
X413859032Y-111760000D03*
G04 #@! TA.AperFunction,ComponentPad*
G36*
G01*
X374250000Y-110915000D02*
X374250000Y-112605000D01*
G75*
G02*
X374000000Y-112855000I-250000J0D01*
G01*
X372760000Y-112855000D01*
G75*
G02*
X372510000Y-112605000I0J250000D01*
G01*
X372510000Y-110915000D01*
G75*
G02*
X372760000Y-110665000I250000J0D01*
G01*
X374000000Y-110665000D01*
G75*
G02*
X374250000Y-110915000I0J-250000D01*
G01*
G37*
G04 #@! TD.AperFunction*
D15*
X370840000Y-111760000D03*
D13*
X96520000Y-133985000D03*
G04 #@! TA.AperFunction,ComponentPad*
G36*
G01*
X16935000Y-110890000D02*
X18625000Y-110890000D01*
G75*
G02*
X18875000Y-111140000I0J-250000D01*
G01*
X18875000Y-112380000D01*
G75*
G02*
X18625000Y-112630000I-250000J0D01*
G01*
X16935000Y-112630000D01*
G75*
G02*
X16685000Y-112380000I0J250000D01*
G01*
X16685000Y-111140000D01*
G75*
G02*
X16935000Y-110890000I250000J0D01*
G01*
G37*
G04 #@! TD.AperFunction*
D14*
X17780000Y-114300000D03*
G04 #@! TA.AperFunction,ComponentPad*
G36*
G01*
X388220000Y-110915000D02*
X388220000Y-112605000D01*
G75*
G02*
X387970000Y-112855000I-250000J0D01*
G01*
X386730000Y-112855000D01*
G75*
G02*
X386480000Y-112605000I0J250000D01*
G01*
X386480000Y-110915000D01*
G75*
G02*
X386730000Y-110665000I250000J0D01*
G01*
X387970000Y-110665000D01*
G75*
G02*
X388220000Y-110915000I0J-250000D01*
G01*
G37*
G04 #@! TD.AperFunction*
D15*
X384810000Y-111760000D03*
D13*
X127000000Y-133985000D03*
X116840000Y-133985000D03*
G04 #@! TA.AperFunction,ComponentPad*
G36*
G01*
X414704032Y-135490000D02*
X413014032Y-135490000D01*
G75*
G02*
X412764032Y-135240000I0J250000D01*
G01*
X412764032Y-134000000D01*
G75*
G02*
X413014032Y-133750000I250000J0D01*
G01*
X414704032Y-133750000D01*
G75*
G02*
X414954032Y-134000000I0J-250000D01*
G01*
X414954032Y-135240000D01*
G75*
G02*
X414704032Y-135490000I-250000J0D01*
G01*
G37*
G04 #@! TD.AperFunction*
D14*
X413859032Y-132080000D03*
X413859032Y-129540000D03*
X413859032Y-127000000D03*
X413859032Y-124460000D03*
X413859032Y-121920000D03*
D16*
X215646000Y-127762000D03*
X218186000Y-119126000D03*
X224910711Y-125117604D03*
X223421330Y-127896986D03*
X221802886Y-128991609D03*
X220609248Y-129677248D03*
X219118640Y-129225852D03*
X217871852Y-128948640D03*
X216408000Y-129032000D03*
X203962000Y-128248999D03*
X211074000Y-130048000D03*
X106680000Y-127754298D03*
X378460000Y-137160000D03*
X347980000Y-137160000D03*
X93980000Y-137160000D03*
X266700000Y-137160000D03*
X226060000Y-138430000D03*
X236220000Y-138430000D03*
X287020000Y-137160000D03*
X185420000Y-137160000D03*
X297180000Y-137160000D03*
X124460000Y-137160000D03*
X337820000Y-137160000D03*
X205740000Y-138430000D03*
X246380000Y-137160000D03*
X114300000Y-137160000D03*
X73660000Y-137160000D03*
X368300000Y-137160000D03*
X144780000Y-137160000D03*
X307340000Y-137160000D03*
X276860000Y-137160000D03*
X317500000Y-137160000D03*
X327660000Y-137160000D03*
X165100000Y-137160000D03*
X388620000Y-137160000D03*
X215900000Y-138430000D03*
X104140000Y-137160000D03*
X63500000Y-137160000D03*
X175260000Y-137160000D03*
X195580000Y-137160000D03*
X358140000Y-137160000D03*
X154940000Y-137160000D03*
X256540000Y-137160000D03*
X134620000Y-137160000D03*
X83820000Y-137160000D03*
X96520000Y-128553799D03*
X209550000Y-130048000D03*
X212373686Y-130060722D03*
X116881809Y-129353300D03*
X212852000Y-132477508D03*
X213542246Y-130373754D03*
D17*
X215646000Y-127762000D02*
X213825998Y-125941998D01*
X32090051Y-125941998D02*
X25239032Y-119090979D01*
X213825998Y-125941998D02*
X32090051Y-125941998D01*
X218150979Y-119090979D02*
X203039032Y-119090979D01*
X218186000Y-119126000D02*
X218150979Y-119090979D01*
X230513574Y-119735600D02*
X225131570Y-125117604D01*
X253839032Y-119090979D02*
X253194411Y-119735600D01*
X225131570Y-125117604D02*
X224910711Y-125117604D01*
X253194411Y-119735600D02*
X230513574Y-119735600D01*
X230868022Y-120573800D02*
X223544836Y-127896986D01*
X223544836Y-127896986D02*
X223421330Y-127896986D01*
X277756211Y-120573800D02*
X230868022Y-120573800D01*
X279239032Y-119090979D02*
X277756211Y-120573800D01*
X304639032Y-119090979D02*
X302356211Y-121373800D01*
X221898009Y-128896486D02*
X221802886Y-128991609D01*
X223909514Y-128896486D02*
X221898009Y-128896486D01*
X302356211Y-121373800D02*
X231432200Y-121373800D01*
X231432200Y-121373800D02*
X223909514Y-128896486D01*
X222512008Y-129695994D02*
X221922509Y-130285493D01*
X224329213Y-129695987D02*
X224178491Y-129695987D01*
X231851200Y-122174000D02*
X224329213Y-129695987D01*
X221217493Y-130285493D02*
X220609248Y-129677248D01*
X222853828Y-129695988D02*
X222853822Y-129695994D01*
X329394411Y-119735600D02*
X306654200Y-119735600D01*
X304215800Y-122174000D02*
X231851200Y-122174000D01*
X222853822Y-129695994D02*
X222512008Y-129695994D01*
X224178488Y-129695990D02*
X222853828Y-129695988D01*
X221922509Y-130285493D02*
X221217493Y-130285493D01*
X330039032Y-119090979D02*
X329394411Y-119735600D01*
X306654200Y-119735600D02*
X304215800Y-122174000D01*
X224178491Y-129695987D02*
X224178488Y-129695990D01*
X223184993Y-130495489D02*
X223184986Y-130495495D01*
X224723508Y-130495492D02*
X223184993Y-130495489D01*
X220603487Y-131084994D02*
X219118640Y-129600147D01*
X332597221Y-119090979D02*
X331153099Y-120535101D01*
X223184986Y-130495495D02*
X222843173Y-130495495D01*
X222253673Y-131084994D02*
X220603487Y-131084994D01*
X219118640Y-129600147D02*
X219118640Y-129225852D01*
X307200899Y-120535101D02*
X304749200Y-122986800D01*
X355439032Y-119090979D02*
X332597221Y-119090979D01*
X331153099Y-120535101D02*
X307200899Y-120535101D01*
X304749200Y-122986800D02*
X232232200Y-122986800D01*
X222843173Y-130495495D02*
X222253673Y-131084994D01*
X232232200Y-122986800D02*
X224723508Y-130495492D01*
X305079400Y-123850400D02*
X232613188Y-123850400D01*
X380839032Y-119090979D02*
X358225821Y-119090979D01*
X220132990Y-131884497D02*
X217871852Y-129623359D01*
X356793800Y-120523000D02*
X332409800Y-120523000D01*
X378170979Y-119090979D02*
X370840000Y-111760000D01*
X332409800Y-120523000D02*
X331597000Y-121335800D01*
X380839032Y-119090979D02*
X378170979Y-119090979D01*
X232613188Y-123850400D02*
X225116603Y-131346985D01*
X217871852Y-129623359D02*
X217871852Y-128948640D01*
X223122349Y-131346985D02*
X222584837Y-131884497D01*
X225116603Y-131346985D02*
X223122349Y-131346985D01*
X222584837Y-131884497D02*
X220132990Y-131884497D01*
X307594000Y-121335800D02*
X305079400Y-123850400D01*
X331597000Y-121335800D02*
X307594000Y-121335800D01*
X358225821Y-119090979D02*
X356793800Y-120523000D01*
X396021021Y-119090979D02*
X395950979Y-119090979D01*
X222916002Y-132683998D02*
X219801825Y-132683998D01*
X358063800Y-120497600D02*
X357149400Y-121412000D01*
X400273693Y-119090979D02*
X396021021Y-119090979D01*
X232663753Y-124930499D02*
X225447763Y-132146490D01*
X383575021Y-119090979D02*
X382168400Y-120497600D01*
X308076600Y-122174000D02*
X305460400Y-124790200D01*
X332054200Y-122174000D02*
X308076600Y-122174000D01*
X216408000Y-129290173D02*
X216408000Y-129032000D01*
X219801825Y-132683998D02*
X216408000Y-129290173D01*
X393700000Y-116840000D02*
X387350000Y-116840000D01*
X223453510Y-132146490D02*
X223453505Y-132146495D01*
X384810000Y-114300000D02*
X384810000Y-111760000D01*
X387350000Y-116840000D02*
X384810000Y-114300000D01*
X232804055Y-124790200D02*
X232663753Y-124930499D01*
X396021021Y-119090979D02*
X383575021Y-119090979D01*
X305460400Y-124790200D02*
X232804055Y-124790200D01*
X332816200Y-121412000D02*
X332054200Y-122174000D01*
X225447763Y-132146490D02*
X223453510Y-132146490D01*
X406239032Y-119090979D02*
X400273693Y-119090979D01*
X223393000Y-132207000D02*
X222916002Y-132683998D01*
X400273693Y-119090979D02*
X395950979Y-119090979D01*
X382168400Y-120497600D02*
X358063800Y-120497600D01*
X357149400Y-121412000D02*
X332816200Y-121412000D01*
X395950979Y-119090979D02*
X393700000Y-116840000D01*
D18*
X391160000Y-114554000D02*
X408970032Y-114554000D01*
X17780000Y-111760000D02*
X31242000Y-111760000D01*
X388119252Y-108966000D02*
X389636000Y-110482748D01*
X411764032Y-111760000D02*
X413859032Y-111760000D01*
X389636000Y-113030000D02*
X391160000Y-114554000D01*
X408970032Y-114554000D02*
X411764032Y-111760000D01*
X34290000Y-114808000D02*
X363474000Y-114808000D01*
X363474000Y-114808000D02*
X369316000Y-108966000D01*
X389636000Y-110482748D02*
X389636000Y-113030000D01*
X369316000Y-108966000D02*
X388119252Y-108966000D01*
X31242000Y-111760000D02*
X34290000Y-114808000D01*
X406400000Y-116840000D02*
X406400000Y-116711947D01*
X177639032Y-116550979D02*
X203039032Y-116550979D01*
X406400000Y-116711947D02*
X406239032Y-116550979D01*
X406110979Y-116550979D02*
X406400000Y-116840000D01*
X25239032Y-116550979D02*
X50639032Y-116550979D01*
X203039032Y-116550979D02*
X228439032Y-116550979D01*
D17*
X17780000Y-121920000D02*
X22601499Y-126741499D01*
X225451111Y-132945991D02*
X225451117Y-132945998D01*
X203962000Y-128248999D02*
X204157498Y-128053501D01*
X223305317Y-133558506D02*
X223449497Y-133414327D01*
X233032419Y-125692499D02*
X410086533Y-125692499D01*
X225778918Y-132945999D02*
X233032419Y-125692499D01*
X219410506Y-133558506D02*
X223305317Y-133558506D01*
X22601499Y-126741499D02*
X202454500Y-126741499D01*
X223917841Y-132945991D02*
X225451111Y-132945991D01*
X204157498Y-128053501D02*
X213905501Y-128053501D01*
X213905501Y-128053501D02*
X219410506Y-133558506D01*
X410086533Y-125692499D02*
X413859032Y-121920000D01*
X223449504Y-133414328D02*
X223917841Y-132945991D01*
X202454500Y-126741499D02*
X203962000Y-128248999D01*
X225451117Y-132945998D02*
X225778918Y-132945999D01*
X223449497Y-133414327D02*
X223449504Y-133414328D01*
X106466702Y-127541000D02*
X106680000Y-127754298D01*
X211328000Y-129032000D02*
X204867507Y-129032000D01*
X204651008Y-129248499D02*
X202400499Y-129248499D01*
X223780653Y-134213836D02*
X223780661Y-134213836D01*
X202400499Y-129248499D02*
X200706299Y-127554299D01*
X226110081Y-133745502D02*
X233363583Y-126492000D01*
X211074000Y-129286000D02*
X211328000Y-129032000D01*
X411827032Y-126492000D02*
X413859032Y-124460000D01*
X204867507Y-129032000D02*
X204651008Y-129248499D01*
X106879999Y-127554299D02*
X106680000Y-127754298D01*
X233363583Y-126492000D02*
X411827032Y-126492000D01*
X211328000Y-129032000D02*
X213614000Y-129032000D01*
X200706299Y-127554299D02*
X106879999Y-127554299D01*
X17780000Y-124460000D02*
X20861000Y-127541000D01*
X224249005Y-133745492D02*
X225119946Y-133745492D01*
X225119946Y-133745492D02*
X225119958Y-133745501D01*
X225119958Y-133745501D02*
X226110081Y-133745502D01*
X223780661Y-134213836D02*
X224249005Y-133745492D01*
X223636471Y-134358018D02*
X223780653Y-134213836D01*
X20861000Y-127541000D02*
X106466702Y-127541000D01*
X218940018Y-134358018D02*
X223636471Y-134358018D01*
X211074000Y-130048000D02*
X211074000Y-129286000D01*
X213614000Y-129032000D02*
X218940018Y-134358018D01*
X17780000Y-127000000D02*
X19533798Y-128753798D01*
X116067804Y-128753798D02*
X116467802Y-128353800D01*
X201917666Y-130048000D02*
X209550000Y-130048000D01*
X19533798Y-128753798D02*
X116067804Y-128753798D01*
X200223466Y-128353800D02*
X201917666Y-130048000D01*
X116467802Y-128353800D02*
X200223466Y-128353800D01*
X225119934Y-135344512D02*
X225119939Y-135344507D01*
X212931488Y-131176503D02*
X213128239Y-131373254D01*
X212231497Y-131176503D02*
X212931488Y-131176503D01*
X225119903Y-135344525D02*
X225119911Y-135344517D01*
X225119939Y-135344507D02*
X225782288Y-135344506D01*
X225119911Y-135344517D02*
X225119923Y-135344517D01*
X225782288Y-135344506D02*
X225782289Y-135344504D01*
X225782289Y-135344504D02*
X226110074Y-135344505D01*
X213161254Y-131373254D02*
X217670005Y-135882005D01*
X226110074Y-135344505D02*
X226110077Y-135344508D01*
X412589032Y-128270000D02*
X413859032Y-129540000D01*
X226772407Y-135344508D02*
X233846915Y-128270000D01*
X225119923Y-135344517D02*
X225119928Y-135344512D01*
X213128239Y-131373254D02*
X213161254Y-131373254D01*
X201788503Y-131176503D02*
X199965300Y-129353300D01*
X17780000Y-129540000D02*
X17793299Y-129553299D01*
X217670005Y-135911524D02*
X217715520Y-135957039D01*
X217670005Y-135882005D02*
X217670005Y-135911524D01*
X212231497Y-131176503D02*
X201788503Y-131176503D01*
X217715520Y-135957039D02*
X224298792Y-135957039D01*
X199965300Y-129353300D02*
X116881809Y-129353300D01*
X17793299Y-129553299D02*
X116681810Y-129553299D01*
X212231497Y-131176503D02*
X212231497Y-130202911D01*
X224911310Y-135344520D02*
X225119903Y-135344525D01*
X212231497Y-130202911D02*
X212373686Y-130060722D01*
X225119928Y-135344512D02*
X225119934Y-135344512D01*
X116681810Y-129553299D02*
X116881809Y-129353300D01*
X224298792Y-135957039D02*
X224911310Y-135344520D01*
X226110077Y-135344508D02*
X226772407Y-135344508D01*
X233846915Y-128270000D02*
X412589032Y-128270000D01*
X227103568Y-136144013D02*
X233961581Y-129286000D01*
X225451088Y-136144018D02*
X225451092Y-136144013D01*
X225451099Y-136144013D02*
X225451104Y-136144008D01*
X225778911Y-136144007D02*
X225778913Y-136144009D01*
X411065032Y-129286000D02*
X413859032Y-132080000D01*
X225451076Y-136144018D02*
X225451088Y-136144018D01*
X212454492Y-132080000D02*
X212852000Y-132477508D01*
X225242466Y-136144029D02*
X225451048Y-136144034D01*
X226441228Y-136144009D02*
X226441232Y-136144013D01*
X212852000Y-132477508D02*
X217131032Y-136756540D01*
X225451068Y-136144026D02*
X225451076Y-136144018D01*
X226441232Y-136144013D02*
X227103568Y-136144013D01*
X19507200Y-130352800D02*
X126974600Y-130352800D01*
X127000000Y-130378200D02*
X127000000Y-133985000D01*
X127000000Y-130378200D02*
X199720200Y-130378200D01*
X225451048Y-136144034D02*
X225451056Y-136144026D01*
X225451104Y-136144008D02*
X225778911Y-136144007D01*
X201422000Y-132080000D02*
X212454492Y-132080000D01*
X224629957Y-136756540D02*
X225242466Y-136144029D01*
X217131032Y-136756540D02*
X224629957Y-136756540D01*
X225778913Y-136144009D02*
X226441228Y-136144009D01*
X225451056Y-136144026D02*
X225451068Y-136144026D01*
X199720200Y-130378200D02*
X201422000Y-132080000D01*
X225451092Y-136144013D02*
X225451099Y-136144013D01*
X233961581Y-129286000D02*
X411065032Y-129286000D01*
X17780000Y-132080000D02*
X19507200Y-130352800D01*
X126974600Y-130352800D02*
X127000000Y-130378200D01*
X224788789Y-134545000D02*
X224788793Y-134545005D01*
X224111817Y-135013348D02*
X224111817Y-135013337D01*
X224788758Y-134545016D02*
X224788766Y-134545008D01*
X224322574Y-134802590D02*
X224580154Y-134545011D01*
X412957697Y-127508000D02*
X413351032Y-127508000D01*
X223967608Y-135157520D02*
X223967627Y-135157538D01*
X218440041Y-135157519D02*
X223967608Y-135157520D01*
X224788781Y-134545006D02*
X224788789Y-134545000D01*
X223967627Y-135157538D02*
X224111817Y-135013348D01*
X213656276Y-130373754D02*
X218440041Y-135157519D01*
X226441245Y-134545003D02*
X233515751Y-127470499D01*
X225451126Y-134545002D02*
X226441245Y-134545003D01*
X413351032Y-127508000D02*
X413859032Y-127000000D01*
X233515751Y-127470499D02*
X412920197Y-127470499D01*
X224788766Y-134545008D02*
X224788781Y-134545006D01*
X224111817Y-135013337D02*
X224322574Y-134802590D01*
X412920197Y-127470499D02*
X412957697Y-127508000D01*
X225451122Y-134545005D02*
X225451126Y-134545002D01*
X213542246Y-130373754D02*
X213656276Y-130373754D01*
X224580154Y-134545011D02*
X224788758Y-134545016D01*
X224788793Y-134545005D02*
X225451122Y-134545005D01*
G04 #@! TA.AperFunction,Conductor*
G36*
X16325041Y-127655002D02*
G01*
X16364637Y-127695632D01*
X16437159Y-127815144D01*
X16590483Y-127991834D01*
X16771386Y-128140165D01*
X16776016Y-128142801D01*
X16776021Y-128142804D01*
X16808516Y-128161301D01*
X16857822Y-128212384D01*
X16871683Y-128282015D01*
X16845699Y-128348085D01*
X16816550Y-128375323D01*
X16801104Y-128385722D01*
X16688104Y-128461798D01*
X16518832Y-128623276D01*
X16379187Y-128810965D01*
X16376771Y-128815716D01*
X16376769Y-128815720D01*
X16318756Y-128929823D01*
X16273162Y-129019500D01*
X16203790Y-129242917D01*
X16203089Y-129248204D01*
X16203089Y-129248205D01*
X16186055Y-129376727D01*
X16173052Y-129474829D01*
X16181828Y-129708604D01*
X16229868Y-129937559D01*
X16315797Y-130155146D01*
X16437159Y-130355144D01*
X16590483Y-130531834D01*
X16771386Y-130680165D01*
X16776016Y-130682801D01*
X16776021Y-130682804D01*
X16808516Y-130701301D01*
X16857822Y-130752384D01*
X16871683Y-130822015D01*
X16845699Y-130888085D01*
X16816550Y-130915323D01*
X16784061Y-130937196D01*
X16688104Y-131001798D01*
X16518832Y-131163276D01*
X16379187Y-131350965D01*
X16376771Y-131355716D01*
X16376769Y-131355720D01*
X16318756Y-131469823D01*
X16273162Y-131559500D01*
X16203790Y-131782917D01*
X16203089Y-131788204D01*
X16203089Y-131788205D01*
X16186055Y-131916727D01*
X16173052Y-132014829D01*
X16181828Y-132248604D01*
X16229868Y-132477559D01*
X16315797Y-132695146D01*
X16322065Y-132705475D01*
X16433345Y-132888858D01*
X16437159Y-132895144D01*
X16590483Y-133071834D01*
X16771386Y-133220165D01*
X16776022Y-133222804D01*
X16776025Y-133222806D01*
X16809001Y-133241577D01*
X16858307Y-133292659D01*
X16872169Y-133362289D01*
X16846186Y-133428360D01*
X16817036Y-133455599D01*
X16692845Y-133539210D01*
X16684559Y-133545871D01*
X16523070Y-133699924D01*
X16516021Y-133707892D01*
X16382797Y-133886952D01*
X16377198Y-133895982D01*
X16276047Y-134094931D01*
X16272044Y-134104792D01*
X16205862Y-134317929D01*
X16203580Y-134328309D01*
X16200964Y-134348043D01*
X16203160Y-134362207D01*
X16216345Y-134366000D01*
X19341627Y-134366000D01*
X19355158Y-134362027D01*
X19356683Y-134351420D01*
X19330748Y-134227812D01*
X19327688Y-134217616D01*
X19245716Y-134010048D01*
X19240982Y-134000511D01*
X19125204Y-133809715D01*
X19118938Y-133801122D01*
X18972667Y-133632559D01*
X18965036Y-133625139D01*
X18792458Y-133483632D01*
X18783691Y-133477607D01*
X18751022Y-133459011D01*
X18701715Y-133407929D01*
X18687854Y-133338298D01*
X18713837Y-133272227D01*
X18742987Y-133244989D01*
X18844522Y-133176631D01*
X18871896Y-133158202D01*
X18878768Y-133151647D01*
X18962433Y-133071834D01*
X19041168Y-132996724D01*
X19180813Y-132809035D01*
X19194014Y-132783072D01*
X19284420Y-132605256D01*
X19284420Y-132605255D01*
X19286838Y-132600500D01*
X19356210Y-132377083D01*
X19373239Y-132248604D01*
X19386248Y-132150455D01*
X19386248Y-132150451D01*
X19386948Y-132145171D01*
X19378172Y-131911396D01*
X19342544Y-131741597D01*
X19348131Y-131670822D01*
X19376763Y-131626629D01*
X19805186Y-131198205D01*
X19867499Y-131164180D01*
X19894282Y-131161300D01*
X126065500Y-131161300D01*
X126133621Y-131181302D01*
X126180114Y-131234958D01*
X126191500Y-131287300D01*
X126191500Y-132640676D01*
X126171498Y-132708797D01*
X126131336Y-132748107D01*
X126110584Y-132760824D01*
X126106822Y-132764037D01*
X125963273Y-132886640D01*
X125930031Y-132915031D01*
X125775824Y-133095584D01*
X125773245Y-133099792D01*
X125773241Y-133099798D01*
X125654346Y-133293817D01*
X125651760Y-133298037D01*
X125649867Y-133302607D01*
X125649865Y-133302611D01*
X125562789Y-133512833D01*
X125560895Y-133517406D01*
X125554061Y-133545871D01*
X125520798Y-133684424D01*
X125505465Y-133748289D01*
X125486835Y-133985000D01*
X125505465Y-134221711D01*
X125506619Y-134226518D01*
X125506620Y-134226524D01*
X125536605Y-134351420D01*
X125560895Y-134452594D01*
X125562788Y-134457165D01*
X125562789Y-134457167D01*
X125581927Y-134503369D01*
X125651760Y-134671963D01*
X125654346Y-134676183D01*
X125773241Y-134870202D01*
X125773245Y-134870208D01*
X125775824Y-134874416D01*
X125930031Y-135054969D01*
X126110584Y-135209176D01*
X126114792Y-135211755D01*
X126114798Y-135211759D01*
X126308817Y-135330654D01*
X126313037Y-135333240D01*
X126317607Y-135335133D01*
X126317611Y-135335135D01*
X126527833Y-135422211D01*
X126532406Y-135424105D01*
X126558148Y-135430285D01*
X126758476Y-135478380D01*
X126758482Y-135478381D01*
X126763289Y-135479535D01*
X127000000Y-135498165D01*
X127236711Y-135479535D01*
X127241518Y-135478381D01*
X127241524Y-135478380D01*
X127441852Y-135430285D01*
X127467594Y-135424105D01*
X127472167Y-135422211D01*
X127682389Y-135335135D01*
X127682393Y-135335133D01*
X127686963Y-135333240D01*
X127691183Y-135330654D01*
X127885202Y-135211759D01*
X127885208Y-135211755D01*
X127889416Y-135209176D01*
X128069969Y-135054969D01*
X128224176Y-134874416D01*
X128226755Y-134870208D01*
X128226759Y-134870202D01*
X128345654Y-134676183D01*
X128348240Y-134671963D01*
X128418074Y-134503369D01*
X128437211Y-134457167D01*
X128437212Y-134457165D01*
X128439105Y-134452594D01*
X128463395Y-134351420D01*
X128493380Y-134226524D01*
X128493381Y-134226518D01*
X128494535Y-134221711D01*
X128513165Y-133985000D01*
X128494535Y-133748289D01*
X128479203Y-133684424D01*
X128445939Y-133545871D01*
X128439105Y-133517406D01*
X128437211Y-133512833D01*
X128350135Y-133302611D01*
X128350133Y-133302607D01*
X128348240Y-133298037D01*
X128345654Y-133293817D01*
X128226759Y-133099798D01*
X128226755Y-133099792D01*
X128224176Y-133095584D01*
X128069969Y-132915031D01*
X128036728Y-132886640D01*
X127893178Y-132764037D01*
X127889416Y-132760824D01*
X127868664Y-132748107D01*
X127821034Y-132695462D01*
X127808500Y-132640676D01*
X127808500Y-131312700D01*
X127828502Y-131244579D01*
X127882158Y-131198086D01*
X127934500Y-131186700D01*
X199333118Y-131186700D01*
X199401239Y-131206702D01*
X199422213Y-131223605D01*
X200843672Y-132645063D01*
X200844601Y-132646000D01*
X200907771Y-132710507D01*
X200913690Y-132714322D01*
X200913698Y-132714328D01*
X200944214Y-132733994D01*
X200954559Y-132741427D01*
X200988443Y-132768476D01*
X200994782Y-132771540D01*
X200994783Y-132771541D01*
X201018637Y-132783072D01*
X201032054Y-132790601D01*
X201060238Y-132808765D01*
X201066855Y-132811173D01*
X201066860Y-132811176D01*
X201100973Y-132823592D01*
X201112716Y-132828553D01*
X201145400Y-132844353D01*
X201145409Y-132844356D01*
X201151749Y-132847421D01*
X201158614Y-132849006D01*
X201184428Y-132854966D01*
X201199168Y-132859332D01*
X201230685Y-132870803D01*
X201237670Y-132871685D01*
X201237677Y-132871687D01*
X201273692Y-132876237D01*
X201286243Y-132878472D01*
X201328485Y-132888225D01*
X201335529Y-132888250D01*
X201335533Y-132888250D01*
X201369074Y-132888367D01*
X201369943Y-132888396D01*
X201370769Y-132888500D01*
X201407133Y-132888500D01*
X201407573Y-132888501D01*
X201506336Y-132888846D01*
X201506342Y-132888846D01*
X201509870Y-132888858D01*
X201511073Y-132888589D01*
X201512717Y-132888500D01*
X211852373Y-132888500D01*
X211920494Y-132908502D01*
X211964439Y-132956906D01*
X211997366Y-133020976D01*
X211997369Y-133020980D01*
X212000187Y-133026464D01*
X212123035Y-133181461D01*
X212127728Y-133185455D01*
X212127729Y-133185456D01*
X212254257Y-133293139D01*
X212273650Y-133309644D01*
X212446294Y-133406132D01*
X212634392Y-133467248D01*
X212657619Y-133470018D01*
X212663684Y-133470741D01*
X212728958Y-133498669D01*
X212737860Y-133506760D01*
X216552798Y-137321698D01*
X216553726Y-137322635D01*
X216593052Y-137362793D01*
X216616803Y-137387047D01*
X216653253Y-137410538D01*
X216663578Y-137417957D01*
X216697475Y-137445016D01*
X216703816Y-137448081D01*
X216703817Y-137448082D01*
X216727669Y-137459612D01*
X216741086Y-137467141D01*
X216769270Y-137485305D01*
X216775887Y-137487713D01*
X216775892Y-137487716D01*
X216810005Y-137500132D01*
X216821748Y-137505093D01*
X216854435Y-137520894D01*
X216854440Y-137520896D01*
X216860781Y-137523961D01*
X216867639Y-137525544D01*
X216867641Y-137525545D01*
X216893458Y-137531505D01*
X216908201Y-137535872D01*
X216939717Y-137547343D01*
X216946707Y-137548226D01*
X216946715Y-137548228D01*
X216982733Y-137552778D01*
X216995285Y-137555014D01*
X217030646Y-137563178D01*
X217030649Y-137563178D01*
X217037517Y-137564764D01*
X217044563Y-137564789D01*
X217044566Y-137564789D01*
X217078088Y-137564906D01*
X217078970Y-137564935D01*
X217079801Y-137565040D01*
X217116451Y-137565040D01*
X217116891Y-137565041D01*
X217215375Y-137565385D01*
X217215380Y-137565385D01*
X217218902Y-137565397D01*
X217220102Y-137565129D01*
X217221739Y-137565040D01*
X224620794Y-137565040D01*
X224622112Y-137565047D01*
X224712179Y-137565990D01*
X224719065Y-137564501D01*
X224719067Y-137564501D01*
X224731685Y-137561773D01*
X224754547Y-137556830D01*
X224767121Y-137554770D01*
X224779707Y-137553359D01*
X224803215Y-137550722D01*
X224803217Y-137550722D01*
X224810212Y-137549937D01*
X224841884Y-137538907D01*
X224856689Y-137534746D01*
X224882582Y-137529148D01*
X224889469Y-137527659D01*
X224928758Y-137509337D01*
X224940570Y-137504541D01*
X224974858Y-137492601D01*
X224981509Y-137490285D01*
X224987484Y-137486551D01*
X224987487Y-137486550D01*
X225009952Y-137472513D01*
X225023469Y-137465174D01*
X225047476Y-137453979D01*
X225053860Y-137451002D01*
X225088114Y-137424432D01*
X225098570Y-137417138D01*
X225129359Y-137397899D01*
X225135333Y-137394166D01*
X225164137Y-137365563D01*
X225164762Y-137364978D01*
X225165428Y-137364461D01*
X225191406Y-137338483D01*
X225229393Y-137300760D01*
X225261536Y-137268841D01*
X225261539Y-137268837D01*
X225264039Y-137266355D01*
X225264698Y-137265316D01*
X225265796Y-137264093D01*
X225540475Y-136989413D01*
X225602788Y-136955388D01*
X225629570Y-136952508D01*
X225727625Y-136952507D01*
X225727653Y-136952507D01*
X225727673Y-136952508D01*
X225727682Y-136952509D01*
X225764171Y-136952509D01*
X225764610Y-136952510D01*
X225863256Y-136952854D01*
X225863261Y-136952854D01*
X225866783Y-136952866D01*
X225867983Y-136952598D01*
X225869621Y-136952509D01*
X226389937Y-136952509D01*
X226389980Y-136952510D01*
X226390001Y-136952513D01*
X226426365Y-136952513D01*
X226426805Y-136952514D01*
X226525568Y-136952859D01*
X226525574Y-136952859D01*
X226529102Y-136952871D01*
X226530305Y-136952602D01*
X226531949Y-136952513D01*
X227094354Y-136952513D01*
X227095674Y-136952520D01*
X227185789Y-136953464D01*
X227228165Y-136944302D01*
X227240731Y-136942244D01*
X227283823Y-136937410D01*
X227290474Y-136935094D01*
X227290478Y-136935093D01*
X227315498Y-136926380D01*
X227330310Y-136922217D01*
X227356187Y-136916622D01*
X227363078Y-136915132D01*
X227402381Y-136896805D01*
X227414157Y-136892023D01*
X227455120Y-136877758D01*
X227461095Y-136874024D01*
X227461098Y-136874023D01*
X227483563Y-136859986D01*
X227497080Y-136852647D01*
X227521082Y-136841454D01*
X227521083Y-136841453D01*
X227527470Y-136838475D01*
X227561721Y-136811907D01*
X227572180Y-136804611D01*
X227602972Y-136785371D01*
X227602975Y-136785369D01*
X227608944Y-136781639D01*
X227637747Y-136753037D01*
X227638372Y-136752452D01*
X227639038Y-136751935D01*
X227665028Y-136725945D01*
X227737650Y-136653828D01*
X227738308Y-136652791D01*
X227739411Y-136651562D01*
X234259568Y-130131405D01*
X234321880Y-130097379D01*
X234348663Y-130094500D01*
X410677950Y-130094500D01*
X410746071Y-130114502D01*
X410767045Y-130131405D01*
X412261184Y-131625543D01*
X412295209Y-131687855D01*
X412292422Y-131752000D01*
X412282822Y-131782917D01*
X412252084Y-132014829D01*
X412260860Y-132248604D01*
X412308900Y-132477559D01*
X412394829Y-132695146D01*
X412401097Y-132705475D01*
X412512377Y-132888858D01*
X412516191Y-132895144D01*
X412669515Y-133071834D01*
X412673647Y-133075222D01*
X412707233Y-133102761D01*
X412747228Y-133161421D01*
X412749159Y-133232391D01*
X412712415Y-133293139D01*
X412689875Y-133308220D01*
X412690300Y-133308906D01*
X412546225Y-133398063D01*
X412534824Y-133407099D01*
X412420293Y-133521829D01*
X412411281Y-133533240D01*
X412326216Y-133671243D01*
X412320069Y-133684424D01*
X412268894Y-133838710D01*
X412266027Y-133852086D01*
X412256360Y-133946438D01*
X412256032Y-133952855D01*
X412256032Y-134347885D01*
X412260507Y-134363124D01*
X412261897Y-134364329D01*
X412269580Y-134366000D01*
X415443916Y-134366000D01*
X415459155Y-134361525D01*
X415460360Y-134360135D01*
X415462031Y-134352452D01*
X415462031Y-133952905D01*
X415461694Y-133946386D01*
X415451775Y-133850794D01*
X415448883Y-133837400D01*
X415397444Y-133683216D01*
X415391271Y-133670038D01*
X415305969Y-133532193D01*
X415296933Y-133520792D01*
X415182203Y-133406261D01*
X415170792Y-133397249D01*
X415026557Y-133308342D01*
X415027849Y-133306245D01*
X414983340Y-133267044D01*
X414963888Y-133198764D01*
X414984439Y-133130807D01*
X415002910Y-133108614D01*
X415120200Y-132996724D01*
X415259845Y-132809035D01*
X415273046Y-132783072D01*
X415363452Y-132605256D01*
X415363452Y-132605255D01*
X415365870Y-132600500D01*
X415435242Y-132377083D01*
X415452271Y-132248604D01*
X415465280Y-132150455D01*
X415465280Y-132150451D01*
X415465980Y-132145171D01*
X415457204Y-131911396D01*
X415409164Y-131682441D01*
X415323235Y-131464854D01*
X415230906Y-131312700D01*
X415204641Y-131269417D01*
X415204639Y-131269414D01*
X415201873Y-131264856D01*
X415048549Y-131088166D01*
X414867646Y-130939835D01*
X414863016Y-130937199D01*
X414863011Y-130937196D01*
X414830516Y-130918699D01*
X414781210Y-130867616D01*
X414767349Y-130797985D01*
X414793333Y-130731915D01*
X414822482Y-130704677D01*
X414863917Y-130676781D01*
X414950928Y-130618202D01*
X415120200Y-130456724D01*
X415259845Y-130269035D01*
X415315430Y-130159709D01*
X415363452Y-130065256D01*
X415363452Y-130065255D01*
X415365870Y-130060500D01*
X415435242Y-129837083D01*
X415452271Y-129708604D01*
X415465280Y-129610455D01*
X415465280Y-129610451D01*
X415465980Y-129605171D01*
X415457204Y-129371396D01*
X415409164Y-129142441D01*
X415323235Y-128924854D01*
X415292715Y-128874558D01*
X415204641Y-128729417D01*
X415204639Y-128729414D01*
X415201873Y-128724856D01*
X415048549Y-128548166D01*
X414867646Y-128399835D01*
X414863016Y-128397199D01*
X414863011Y-128397196D01*
X414830516Y-128378699D01*
X414781210Y-128327616D01*
X414767349Y-128257985D01*
X414793333Y-128191915D01*
X414822482Y-128164677D01*
X414900074Y-128112439D01*
X414950928Y-128078202D01*
X414974633Y-128055589D01*
X415041465Y-127991834D01*
X415120200Y-127916724D01*
X415259845Y-127729035D01*
X415262263Y-127724279D01*
X415262268Y-127724271D01*
X415272628Y-127703895D01*
X415321331Y-127652237D01*
X415384944Y-127635000D01*
X417195500Y-127635000D01*
X417263621Y-127655002D01*
X417310114Y-127708658D01*
X417321500Y-127761000D01*
X417321500Y-139065500D01*
X417301498Y-139133621D01*
X417247842Y-139180114D01*
X417195500Y-139191500D01*
X395014051Y-139191500D01*
X394945930Y-139171498D01*
X394899437Y-139117842D01*
X394889333Y-139047568D01*
X394918827Y-138982988D01*
X394961800Y-138950845D01*
X395231954Y-138827729D01*
X395235066Y-138826311D01*
X395329052Y-138770506D01*
X395540262Y-138645099D01*
X395540267Y-138645096D01*
X395543207Y-138643350D01*
X395829786Y-138428180D01*
X396091451Y-138183319D01*
X396325140Y-137911630D01*
X396431750Y-137756512D01*
X396526190Y-137619101D01*
X396526195Y-137619094D01*
X396528120Y-137616292D01*
X396529732Y-137613298D01*
X396529737Y-137613290D01*
X396696395Y-137303772D01*
X396698017Y-137300760D01*
X396832842Y-136968724D01*
X396837360Y-136952866D01*
X396887548Y-136776678D01*
X396931020Y-136624070D01*
X396991401Y-136270828D01*
X396993511Y-136236340D01*
X397010645Y-135956181D01*
X397013278Y-135913131D01*
X397013359Y-135890000D01*
X396993979Y-135532159D01*
X396953848Y-135287095D01*
X412256033Y-135287095D01*
X412256370Y-135293614D01*
X412266289Y-135389206D01*
X412269181Y-135402600D01*
X412320620Y-135556784D01*
X412326793Y-135569962D01*
X412412095Y-135707807D01*
X412421131Y-135719208D01*
X412535861Y-135833739D01*
X412547272Y-135842751D01*
X412685275Y-135927816D01*
X412698456Y-135933963D01*
X412852742Y-135985138D01*
X412866118Y-135988005D01*
X412960470Y-135997672D01*
X412966886Y-135998000D01*
X413586917Y-135998000D01*
X413602156Y-135993525D01*
X413603361Y-135992135D01*
X413605032Y-135984452D01*
X413605032Y-135979884D01*
X414113032Y-135979884D01*
X414117507Y-135995123D01*
X414118897Y-135996328D01*
X414126580Y-135997999D01*
X414751127Y-135997999D01*
X414757646Y-135997662D01*
X414853238Y-135987743D01*
X414866632Y-135984851D01*
X415020816Y-135933412D01*
X415033994Y-135927239D01*
X415171839Y-135841937D01*
X415183240Y-135832901D01*
X415297771Y-135718171D01*
X415306783Y-135706760D01*
X415391848Y-135568757D01*
X415397995Y-135555576D01*
X415449170Y-135401290D01*
X415452037Y-135387914D01*
X415461704Y-135293562D01*
X415462032Y-135287146D01*
X415462032Y-134892115D01*
X415457557Y-134876876D01*
X415456167Y-134875671D01*
X415448484Y-134874000D01*
X414131147Y-134874000D01*
X414115908Y-134878475D01*
X414114703Y-134879865D01*
X414113032Y-134887548D01*
X414113032Y-135979884D01*
X413605032Y-135979884D01*
X413605032Y-134892115D01*
X413600557Y-134876876D01*
X413599167Y-134875671D01*
X413591484Y-134874000D01*
X412274148Y-134874000D01*
X412258909Y-134878475D01*
X412257704Y-134879865D01*
X412256033Y-134887548D01*
X412256033Y-135287095D01*
X396953848Y-135287095D01*
X396936066Y-135178505D01*
X396840297Y-134833173D01*
X396837243Y-134825497D01*
X396709052Y-134503369D01*
X396707793Y-134500205D01*
X396634727Y-134362207D01*
X396541702Y-134186513D01*
X396541698Y-134186506D01*
X396540103Y-134183494D01*
X396339190Y-133886746D01*
X396107403Y-133613432D01*
X395847454Y-133366750D01*
X395626941Y-133198764D01*
X395565091Y-133151647D01*
X395565089Y-133151646D01*
X395562384Y-133149585D01*
X395559472Y-133147828D01*
X395559467Y-133147825D01*
X395258443Y-132966236D01*
X395258437Y-132966233D01*
X395255528Y-132964478D01*
X394996742Y-132844353D01*
X394933571Y-132815030D01*
X394933569Y-132815029D01*
X394930475Y-132813593D01*
X394717287Y-132741433D01*
X394594255Y-132699789D01*
X394594250Y-132699788D01*
X394591028Y-132698697D01*
X394392681Y-132654724D01*
X394244493Y-132621871D01*
X394244487Y-132621870D01*
X394241158Y-132621132D01*
X394237769Y-132620758D01*
X394237764Y-132620757D01*
X393888338Y-132582180D01*
X393888333Y-132582180D01*
X393884957Y-132581807D01*
X393881558Y-132581801D01*
X393881557Y-132581801D01*
X393712080Y-132581505D01*
X393526592Y-132581182D01*
X393413413Y-132593277D01*
X393173639Y-132618901D01*
X393173631Y-132618902D01*
X393170256Y-132619263D01*
X392820117Y-132695606D01*
X392480271Y-132809317D01*
X392477178Y-132810739D01*
X392477177Y-132810740D01*
X392471574Y-132813317D01*
X392154694Y-132959066D01*
X392151760Y-132960822D01*
X392151758Y-132960823D01*
X391867735Y-133130807D01*
X391847193Y-133143101D01*
X391844467Y-133145163D01*
X391844465Y-133145164D01*
X391589097Y-133338298D01*
X391561367Y-133359270D01*
X391558882Y-133361612D01*
X391558877Y-133361616D01*
X391520201Y-133398063D01*
X391300559Y-133605043D01*
X391067819Y-133877546D01*
X391065900Y-133880358D01*
X391065897Y-133880363D01*
X390997882Y-133980070D01*
X390865871Y-134173591D01*
X390697077Y-134489714D01*
X390563411Y-134822218D01*
X390562491Y-134825492D01*
X390562489Y-134825497D01*
X390497086Y-135058177D01*
X390466437Y-135167213D01*
X390465875Y-135170570D01*
X390465875Y-135170571D01*
X390414108Y-135479923D01*
X390407290Y-135520663D01*
X390386661Y-135878434D01*
X390404792Y-136236340D01*
X390405329Y-136239695D01*
X390405330Y-136239701D01*
X390410316Y-136270828D01*
X390461470Y-136590195D01*
X390556033Y-136935859D01*
X390687374Y-137269288D01*
X390714890Y-137321698D01*
X390842835Y-137565397D01*
X390853957Y-137586582D01*
X390855858Y-137589411D01*
X390855864Y-137589421D01*
X391039569Y-137862800D01*
X391053834Y-137884029D01*
X391284665Y-138158150D01*
X391543751Y-138405738D01*
X391828061Y-138623897D01*
X391860056Y-138643350D01*
X392131355Y-138808303D01*
X392131360Y-138808306D01*
X392134270Y-138810075D01*
X392137358Y-138811521D01*
X392137357Y-138811521D01*
X392435963Y-138951398D01*
X392489166Y-138998408D01*
X392508508Y-139066719D01*
X392487848Y-139134643D01*
X392433745Y-139180615D01*
X392382514Y-139191500D01*
X344214051Y-139191500D01*
X344145930Y-139171498D01*
X344099437Y-139117842D01*
X344089333Y-139047568D01*
X344118827Y-138982988D01*
X344161800Y-138950845D01*
X344431954Y-138827729D01*
X344435066Y-138826311D01*
X344529052Y-138770506D01*
X344740262Y-138645099D01*
X344740267Y-138645096D01*
X344743207Y-138643350D01*
X345029786Y-138428180D01*
X345291451Y-138183319D01*
X345525140Y-137911630D01*
X345631750Y-137756512D01*
X345726190Y-137619101D01*
X345726195Y-137619094D01*
X345728120Y-137616292D01*
X345729732Y-137613298D01*
X345729737Y-137613290D01*
X345896395Y-137303772D01*
X345898017Y-137300760D01*
X346032842Y-136968724D01*
X346037360Y-136952866D01*
X346087548Y-136776678D01*
X346131020Y-136624070D01*
X346191401Y-136270828D01*
X346193511Y-136236340D01*
X346210645Y-135956181D01*
X346213278Y-135913131D01*
X346213359Y-135890000D01*
X346193979Y-135532159D01*
X346136066Y-135178505D01*
X346040297Y-134833173D01*
X346037243Y-134825497D01*
X345909052Y-134503369D01*
X345907793Y-134500205D01*
X345834727Y-134362207D01*
X345741702Y-134186513D01*
X345741698Y-134186506D01*
X345740103Y-134183494D01*
X345539190Y-133886746D01*
X345307403Y-133613432D01*
X345047454Y-133366750D01*
X344826941Y-133198764D01*
X344765091Y-133151647D01*
X344765089Y-133151646D01*
X344762384Y-133149585D01*
X344759472Y-133147828D01*
X344759467Y-133147825D01*
X344458443Y-132966236D01*
X344458437Y-132966233D01*
X344455528Y-132964478D01*
X344196742Y-132844353D01*
X344133571Y-132815030D01*
X344133569Y-132815029D01*
X344130475Y-132813593D01*
X343917287Y-132741433D01*
X343794255Y-132699789D01*
X343794250Y-132699788D01*
X343791028Y-132698697D01*
X343592681Y-132654724D01*
X343444493Y-132621871D01*
X343444487Y-132621870D01*
X343441158Y-132621132D01*
X343437769Y-132620758D01*
X343437764Y-132620757D01*
X343088338Y-132582180D01*
X343088333Y-132582180D01*
X343084957Y-132581807D01*
X343081558Y-132581801D01*
X343081557Y-132581801D01*
X342912080Y-132581505D01*
X342726592Y-132581182D01*
X342613413Y-132593277D01*
X342373639Y-132618901D01*
X342373631Y-132618902D01*
X342370256Y-132619263D01*
X342020117Y-132695606D01*
X341680271Y-132809317D01*
X341677178Y-132810739D01*
X341677177Y-132810740D01*
X341671574Y-132813317D01*
X341354694Y-132959066D01*
X341351760Y-132960822D01*
X341351758Y-132960823D01*
X341067735Y-133130807D01*
X341047193Y-133143101D01*
X341044467Y-133145163D01*
X341044465Y-133145164D01*
X340789097Y-133338298D01*
X340761367Y-133359270D01*
X340758882Y-133361612D01*
X340758877Y-133361616D01*
X340720201Y-133398063D01*
X340500559Y-133605043D01*
X340267819Y-133877546D01*
X340265900Y-133880358D01*
X340265897Y-133880363D01*
X340197882Y-133980070D01*
X340065871Y-134173591D01*
X339897077Y-134489714D01*
X339763411Y-134822218D01*
X339762491Y-134825492D01*
X339762489Y-134825497D01*
X339697086Y-135058177D01*
X339666437Y-135167213D01*
X339665875Y-135170570D01*
X339665875Y-135170571D01*
X339614108Y-135479923D01*
X339607290Y-135520663D01*
X339586661Y-135878434D01*
X339604792Y-136236340D01*
X339605329Y-136239695D01*
X339605330Y-136239701D01*
X339610316Y-136270828D01*
X339661470Y-136590195D01*
X339756033Y-136935859D01*
X339887374Y-137269288D01*
X339914890Y-137321698D01*
X340042835Y-137565397D01*
X340053957Y-137586582D01*
X340055858Y-137589411D01*
X340055864Y-137589421D01*
X340239569Y-137862800D01*
X340253834Y-137884029D01*
X340484665Y-138158150D01*
X340743751Y-138405738D01*
X341028061Y-138623897D01*
X341060056Y-138643350D01*
X341331355Y-138808303D01*
X341331360Y-138808306D01*
X341334270Y-138810075D01*
X341337358Y-138811521D01*
X341337357Y-138811521D01*
X341635963Y-138951398D01*
X341689166Y-138998408D01*
X341708508Y-139066719D01*
X341687848Y-139134643D01*
X341633745Y-139180615D01*
X341582514Y-139191500D01*
X293414051Y-139191500D01*
X293345930Y-139171498D01*
X293299437Y-139117842D01*
X293289333Y-139047568D01*
X293318827Y-138982988D01*
X293361800Y-138950845D01*
X293631954Y-138827729D01*
X293635066Y-138826311D01*
X293729052Y-138770506D01*
X293940262Y-138645099D01*
X293940267Y-138645096D01*
X293943207Y-138643350D01*
X294229786Y-138428180D01*
X294491451Y-138183319D01*
X294725140Y-137911630D01*
X294831750Y-137756512D01*
X294926190Y-137619101D01*
X294926195Y-137619094D01*
X294928120Y-137616292D01*
X294929732Y-137613298D01*
X294929737Y-137613290D01*
X295096395Y-137303772D01*
X295098017Y-137300760D01*
X295232842Y-136968724D01*
X295237360Y-136952866D01*
X295287548Y-136776678D01*
X295331020Y-136624070D01*
X295391401Y-136270828D01*
X295393511Y-136236340D01*
X295410645Y-135956181D01*
X295413278Y-135913131D01*
X295413359Y-135890000D01*
X295393979Y-135532159D01*
X295336066Y-135178505D01*
X295240297Y-134833173D01*
X295237243Y-134825497D01*
X295109052Y-134503369D01*
X295107793Y-134500205D01*
X295034727Y-134362207D01*
X294941702Y-134186513D01*
X294941698Y-134186506D01*
X294940103Y-134183494D01*
X294739190Y-133886746D01*
X294507403Y-133613432D01*
X294247454Y-133366750D01*
X294026941Y-133198764D01*
X293965091Y-133151647D01*
X293965089Y-133151646D01*
X293962384Y-133149585D01*
X293959472Y-133147828D01*
X293959467Y-133147825D01*
X293658443Y-132966236D01*
X293658437Y-132966233D01*
X293655528Y-132964478D01*
X293396742Y-132844353D01*
X293333571Y-132815030D01*
X293333569Y-132815029D01*
X293330475Y-132813593D01*
X293117287Y-132741433D01*
X292994255Y-132699789D01*
X292994250Y-132699788D01*
X292991028Y-132698697D01*
X292792681Y-132654724D01*
X292644493Y-132621871D01*
X292644487Y-132621870D01*
X292641158Y-132621132D01*
X292637769Y-132620758D01*
X292637764Y-132620757D01*
X292288338Y-132582180D01*
X292288333Y-132582180D01*
X292284957Y-132581807D01*
X292281558Y-132581801D01*
X292281557Y-132581801D01*
X292112080Y-132581505D01*
X291926592Y-132581182D01*
X291813413Y-132593277D01*
X291573639Y-132618901D01*
X291573631Y-132618902D01*
X291570256Y-132619263D01*
X291220117Y-132695606D01*
X290880271Y-132809317D01*
X290877178Y-132810739D01*
X290877177Y-132810740D01*
X290871574Y-132813317D01*
X290554694Y-132959066D01*
X290551760Y-132960822D01*
X290551758Y-132960823D01*
X290267735Y-133130807D01*
X290247193Y-133143101D01*
X290244467Y-133145163D01*
X290244465Y-133145164D01*
X289989097Y-133338298D01*
X289961367Y-133359270D01*
X289958882Y-133361612D01*
X289958877Y-133361616D01*
X289920201Y-133398063D01*
X289700559Y-133605043D01*
X289467819Y-133877546D01*
X289465900Y-133880358D01*
X289465897Y-133880363D01*
X289397882Y-133980070D01*
X289265871Y-134173591D01*
X289097077Y-134489714D01*
X288963411Y-134822218D01*
X288962491Y-134825492D01*
X288962489Y-134825497D01*
X288897086Y-135058177D01*
X288866437Y-135167213D01*
X288865875Y-135170570D01*
X288865875Y-135170571D01*
X288814108Y-135479923D01*
X288807290Y-135520663D01*
X288786661Y-135878434D01*
X288804792Y-136236340D01*
X288805329Y-136239695D01*
X288805330Y-136239701D01*
X288810316Y-136270828D01*
X288861470Y-136590195D01*
X288956033Y-136935859D01*
X289087374Y-137269288D01*
X289114890Y-137321698D01*
X289242835Y-137565397D01*
X289253957Y-137586582D01*
X289255858Y-137589411D01*
X289255864Y-137589421D01*
X289439569Y-137862800D01*
X289453834Y-137884029D01*
X289684665Y-138158150D01*
X289943751Y-138405738D01*
X290228061Y-138623897D01*
X290260056Y-138643350D01*
X290531355Y-138808303D01*
X290531360Y-138808306D01*
X290534270Y-138810075D01*
X290537358Y-138811521D01*
X290537357Y-138811521D01*
X290835963Y-138951398D01*
X290889166Y-138998408D01*
X290908508Y-139066719D01*
X290887848Y-139134643D01*
X290833745Y-139180615D01*
X290782514Y-139191500D01*
X242614051Y-139191500D01*
X242545930Y-139171498D01*
X242499437Y-139117842D01*
X242489333Y-139047568D01*
X242518827Y-138982988D01*
X242561800Y-138950845D01*
X242831954Y-138827729D01*
X242835066Y-138826311D01*
X242929052Y-138770506D01*
X243140262Y-138645099D01*
X243140267Y-138645096D01*
X243143207Y-138643350D01*
X243429786Y-138428180D01*
X243691451Y-138183319D01*
X243925140Y-137911630D01*
X244031750Y-137756512D01*
X244126190Y-137619101D01*
X244126195Y-137619094D01*
X244128120Y-137616292D01*
X244129732Y-137613298D01*
X244129737Y-137613290D01*
X244296395Y-137303772D01*
X244298017Y-137300760D01*
X244432842Y-136968724D01*
X244437360Y-136952866D01*
X244487548Y-136776678D01*
X244531020Y-136624070D01*
X244591401Y-136270828D01*
X244593511Y-136236340D01*
X244610645Y-135956181D01*
X244613278Y-135913131D01*
X244613359Y-135890000D01*
X244593979Y-135532159D01*
X244536066Y-135178505D01*
X244440297Y-134833173D01*
X244437243Y-134825497D01*
X244309052Y-134503369D01*
X244307793Y-134500205D01*
X244234727Y-134362207D01*
X244141702Y-134186513D01*
X244141698Y-134186506D01*
X244140103Y-134183494D01*
X243939190Y-133886746D01*
X243707403Y-133613432D01*
X243447454Y-133366750D01*
X243226941Y-133198764D01*
X243165091Y-133151647D01*
X243165089Y-133151646D01*
X243162384Y-133149585D01*
X243159472Y-133147828D01*
X243159467Y-133147825D01*
X242858443Y-132966236D01*
X242858437Y-132966233D01*
X242855528Y-132964478D01*
X242596742Y-132844353D01*
X242533571Y-132815030D01*
X242533569Y-132815029D01*
X242530475Y-132813593D01*
X242317287Y-132741433D01*
X242194255Y-132699789D01*
X242194250Y-132699788D01*
X242191028Y-132698697D01*
X241992681Y-132654724D01*
X241844493Y-132621871D01*
X241844487Y-132621870D01*
X241841158Y-132621132D01*
X241837769Y-132620758D01*
X241837764Y-132620757D01*
X241488338Y-132582180D01*
X241488333Y-132582180D01*
X241484957Y-132581807D01*
X241481558Y-132581801D01*
X241481557Y-132581801D01*
X241312080Y-132581505D01*
X241126592Y-132581182D01*
X241013413Y-132593277D01*
X240773639Y-132618901D01*
X240773631Y-132618902D01*
X240770256Y-132619263D01*
X240420117Y-132695606D01*
X240080271Y-132809317D01*
X240077178Y-132810739D01*
X240077177Y-132810740D01*
X240071574Y-132813317D01*
X239754694Y-132959066D01*
X239751760Y-132960822D01*
X239751758Y-132960823D01*
X239467735Y-133130807D01*
X239447193Y-133143101D01*
X239444467Y-133145163D01*
X239444465Y-133145164D01*
X239189097Y-133338298D01*
X239161367Y-133359270D01*
X239158882Y-133361612D01*
X239158877Y-133361616D01*
X239120201Y-133398063D01*
X238900559Y-133605043D01*
X238667819Y-133877546D01*
X238665900Y-133880358D01*
X238665897Y-133880363D01*
X238597882Y-133980070D01*
X238465871Y-134173591D01*
X238297077Y-134489714D01*
X238163411Y-134822218D01*
X238162491Y-134825492D01*
X238162489Y-134825497D01*
X238097086Y-135058177D01*
X238066437Y-135167213D01*
X238065875Y-135170570D01*
X238065875Y-135170571D01*
X238014108Y-135479923D01*
X238007290Y-135520663D01*
X237986661Y-135878434D01*
X238004792Y-136236340D01*
X238005329Y-136239695D01*
X238005330Y-136239701D01*
X238010316Y-136270828D01*
X238061470Y-136590195D01*
X238156033Y-136935859D01*
X238287374Y-137269288D01*
X238314890Y-137321698D01*
X238442835Y-137565397D01*
X238453957Y-137586582D01*
X238455858Y-137589411D01*
X238455864Y-137589421D01*
X238639569Y-137862800D01*
X238653834Y-137884029D01*
X238884665Y-138158150D01*
X239143751Y-138405738D01*
X239428061Y-138623897D01*
X239460056Y-138643350D01*
X239731355Y-138808303D01*
X239731360Y-138808306D01*
X239734270Y-138810075D01*
X239737358Y-138811521D01*
X239737357Y-138811521D01*
X240035963Y-138951398D01*
X240089166Y-138998408D01*
X240108508Y-139066719D01*
X240087848Y-139134643D01*
X240033745Y-139180615D01*
X239982514Y-139191500D01*
X191814051Y-139191500D01*
X191745930Y-139171498D01*
X191699437Y-139117842D01*
X191689333Y-139047568D01*
X191718827Y-138982988D01*
X191761800Y-138950845D01*
X192031954Y-138827729D01*
X192035066Y-138826311D01*
X192129052Y-138770506D01*
X192340262Y-138645099D01*
X192340267Y-138645096D01*
X192343207Y-138643350D01*
X192629786Y-138428180D01*
X192891451Y-138183319D01*
X193125140Y-137911630D01*
X193231750Y-137756512D01*
X193326190Y-137619101D01*
X193326195Y-137619094D01*
X193328120Y-137616292D01*
X193329732Y-137613298D01*
X193329737Y-137613290D01*
X193496395Y-137303772D01*
X193498017Y-137300760D01*
X193632842Y-136968724D01*
X193637360Y-136952866D01*
X193687548Y-136776678D01*
X193731020Y-136624070D01*
X193791401Y-136270828D01*
X193793511Y-136236340D01*
X193810645Y-135956181D01*
X193813278Y-135913131D01*
X193813359Y-135890000D01*
X193793979Y-135532159D01*
X193736066Y-135178505D01*
X193640297Y-134833173D01*
X193637243Y-134825497D01*
X193509052Y-134503369D01*
X193507793Y-134500205D01*
X193434727Y-134362207D01*
X193341702Y-134186513D01*
X193341698Y-134186506D01*
X193340103Y-134183494D01*
X193139190Y-133886746D01*
X192907403Y-133613432D01*
X192647454Y-133366750D01*
X192426941Y-133198764D01*
X192365091Y-133151647D01*
X192365089Y-133151646D01*
X192362384Y-133149585D01*
X192359472Y-133147828D01*
X192359467Y-133147825D01*
X192058443Y-132966236D01*
X192058437Y-132966233D01*
X192055528Y-132964478D01*
X191796742Y-132844353D01*
X191733571Y-132815030D01*
X191733569Y-132815029D01*
X191730475Y-132813593D01*
X191517287Y-132741433D01*
X191394255Y-132699789D01*
X191394250Y-132699788D01*
X191391028Y-132698697D01*
X191192681Y-132654724D01*
X191044493Y-132621871D01*
X191044487Y-132621870D01*
X191041158Y-132621132D01*
X191037769Y-132620758D01*
X191037764Y-132620757D01*
X190688338Y-132582180D01*
X190688333Y-132582180D01*
X190684957Y-132581807D01*
X190681558Y-132581801D01*
X190681557Y-132581801D01*
X190512080Y-132581505D01*
X190326592Y-132581182D01*
X190213413Y-132593277D01*
X189973639Y-132618901D01*
X189973631Y-132618902D01*
X189970256Y-132619263D01*
X189620117Y-132695606D01*
X189280271Y-132809317D01*
X189277178Y-132810739D01*
X189277177Y-132810740D01*
X189271574Y-132813317D01*
X188954694Y-132959066D01*
X188951760Y-132960822D01*
X188951758Y-132960823D01*
X188667735Y-133130807D01*
X188647193Y-133143101D01*
X188644467Y-133145163D01*
X188644465Y-133145164D01*
X188389097Y-133338298D01*
X188361367Y-133359270D01*
X188358882Y-133361612D01*
X188358877Y-133361616D01*
X188320201Y-133398063D01*
X188100559Y-133605043D01*
X187867819Y-133877546D01*
X187865900Y-133880358D01*
X187865897Y-133880363D01*
X187797882Y-133980070D01*
X187665871Y-134173591D01*
X187497077Y-134489714D01*
X187363411Y-134822218D01*
X187362491Y-134825492D01*
X187362489Y-134825497D01*
X187297086Y-135058177D01*
X187266437Y-135167213D01*
X187265875Y-135170570D01*
X187265875Y-135170571D01*
X187214108Y-135479923D01*
X187207290Y-135520663D01*
X187186661Y-135878434D01*
X187204792Y-136236340D01*
X187205329Y-136239695D01*
X187205330Y-136239701D01*
X187210316Y-136270828D01*
X187261470Y-136590195D01*
X187356033Y-136935859D01*
X187487374Y-137269288D01*
X187514890Y-137321698D01*
X187642835Y-137565397D01*
X187653957Y-137586582D01*
X187655858Y-137589411D01*
X187655864Y-137589421D01*
X187839569Y-137862800D01*
X187853834Y-137884029D01*
X188084665Y-138158150D01*
X188343751Y-138405738D01*
X188628061Y-138623897D01*
X188660056Y-138643350D01*
X188931355Y-138808303D01*
X188931360Y-138808306D01*
X188934270Y-138810075D01*
X188937358Y-138811521D01*
X188937357Y-138811521D01*
X189235963Y-138951398D01*
X189289166Y-138998408D01*
X189308508Y-139066719D01*
X189287848Y-139134643D01*
X189233745Y-139180615D01*
X189182514Y-139191500D01*
X141014051Y-139191500D01*
X140945930Y-139171498D01*
X140899437Y-139117842D01*
X140889333Y-139047568D01*
X140918827Y-138982988D01*
X140961800Y-138950845D01*
X141231954Y-138827729D01*
X141235066Y-138826311D01*
X141329052Y-138770506D01*
X141540262Y-138645099D01*
X141540267Y-138645096D01*
X141543207Y-138643350D01*
X141829786Y-138428180D01*
X142091451Y-138183319D01*
X142325140Y-137911630D01*
X142431750Y-137756512D01*
X142526190Y-137619101D01*
X142526195Y-137619094D01*
X142528120Y-137616292D01*
X142529732Y-137613298D01*
X142529737Y-137613290D01*
X142696395Y-137303772D01*
X142698017Y-137300760D01*
X142832842Y-136968724D01*
X142837360Y-136952866D01*
X142887548Y-136776678D01*
X142931020Y-136624070D01*
X142991401Y-136270828D01*
X142993511Y-136236340D01*
X143010645Y-135956181D01*
X143013278Y-135913131D01*
X143013359Y-135890000D01*
X142993979Y-135532159D01*
X142936066Y-135178505D01*
X142840297Y-134833173D01*
X142837243Y-134825497D01*
X142709052Y-134503369D01*
X142707793Y-134500205D01*
X142634727Y-134362207D01*
X142541702Y-134186513D01*
X142541698Y-134186506D01*
X142540103Y-134183494D01*
X142339190Y-133886746D01*
X142107403Y-133613432D01*
X141847454Y-133366750D01*
X141626941Y-133198764D01*
X141565091Y-133151647D01*
X141565089Y-133151646D01*
X141562384Y-133149585D01*
X141559472Y-133147828D01*
X141559467Y-133147825D01*
X141258443Y-132966236D01*
X141258437Y-132966233D01*
X141255528Y-132964478D01*
X140996742Y-132844353D01*
X140933571Y-132815030D01*
X140933569Y-132815029D01*
X140930475Y-132813593D01*
X140717287Y-132741433D01*
X140594255Y-132699789D01*
X140594250Y-132699788D01*
X140591028Y-132698697D01*
X140392681Y-132654724D01*
X140244493Y-132621871D01*
X140244487Y-132621870D01*
X140241158Y-132621132D01*
X140237769Y-132620758D01*
X140237764Y-132620757D01*
X139888338Y-132582180D01*
X139888333Y-132582180D01*
X139884957Y-132581807D01*
X139881558Y-132581801D01*
X139881557Y-132581801D01*
X139712080Y-132581505D01*
X139526592Y-132581182D01*
X139413413Y-132593277D01*
X139173639Y-132618901D01*
X139173631Y-132618902D01*
X139170256Y-132619263D01*
X138820117Y-132695606D01*
X138480271Y-132809317D01*
X138477178Y-132810739D01*
X138477177Y-132810740D01*
X138471574Y-132813317D01*
X138154694Y-132959066D01*
X138151760Y-132960822D01*
X138151758Y-132960823D01*
X137867735Y-133130807D01*
X137847193Y-133143101D01*
X137844467Y-133145163D01*
X137844465Y-133145164D01*
X137589097Y-133338298D01*
X137561367Y-133359270D01*
X137558882Y-133361612D01*
X137558877Y-133361616D01*
X137520201Y-133398063D01*
X137300559Y-133605043D01*
X137067819Y-133877546D01*
X137065900Y-133880358D01*
X137065897Y-133880363D01*
X136997882Y-133980070D01*
X136865871Y-134173591D01*
X136697077Y-134489714D01*
X136563411Y-134822218D01*
X136562491Y-134825492D01*
X136562489Y-134825497D01*
X136497086Y-135058177D01*
X136466437Y-135167213D01*
X136465875Y-135170570D01*
X136465875Y-135170571D01*
X136414108Y-135479923D01*
X136407290Y-135520663D01*
X136386661Y-135878434D01*
X136404792Y-136236340D01*
X136405329Y-136239695D01*
X136405330Y-136239701D01*
X136410316Y-136270828D01*
X136461470Y-136590195D01*
X136556033Y-136935859D01*
X136687374Y-137269288D01*
X136714890Y-137321698D01*
X136842835Y-137565397D01*
X136853957Y-137586582D01*
X136855858Y-137589411D01*
X136855864Y-137589421D01*
X137039569Y-137862800D01*
X137053834Y-137884029D01*
X137284665Y-138158150D01*
X137543751Y-138405738D01*
X137828061Y-138623897D01*
X137860056Y-138643350D01*
X138131355Y-138808303D01*
X138131360Y-138808306D01*
X138134270Y-138810075D01*
X138137358Y-138811521D01*
X138137357Y-138811521D01*
X138435963Y-138951398D01*
X138489166Y-138998408D01*
X138508508Y-139066719D01*
X138487848Y-139134643D01*
X138433745Y-139180615D01*
X138382514Y-139191500D01*
X90214051Y-139191500D01*
X90145930Y-139171498D01*
X90099437Y-139117842D01*
X90089333Y-139047568D01*
X90118827Y-138982988D01*
X90161800Y-138950845D01*
X90431954Y-138827729D01*
X90435066Y-138826311D01*
X90529052Y-138770506D01*
X90740262Y-138645099D01*
X90740267Y-138645096D01*
X90743207Y-138643350D01*
X91029786Y-138428180D01*
X91291451Y-138183319D01*
X91525140Y-137911630D01*
X91631750Y-137756512D01*
X91726190Y-137619101D01*
X91726195Y-137619094D01*
X91728120Y-137616292D01*
X91729732Y-137613298D01*
X91729737Y-137613290D01*
X91896395Y-137303772D01*
X91898017Y-137300760D01*
X92032842Y-136968724D01*
X92037360Y-136952866D01*
X92087548Y-136776678D01*
X92131020Y-136624070D01*
X92191401Y-136270828D01*
X92193511Y-136236340D01*
X92210645Y-135956181D01*
X92213278Y-135913131D01*
X92213359Y-135890000D01*
X92193979Y-135532159D01*
X92136066Y-135178505D01*
X92040297Y-134833173D01*
X92037243Y-134825497D01*
X91909052Y-134503369D01*
X91907793Y-134500205D01*
X91834727Y-134362207D01*
X91741702Y-134186513D01*
X91741698Y-134186506D01*
X91740103Y-134183494D01*
X91605713Y-133985000D01*
X95006835Y-133985000D01*
X95025465Y-134221711D01*
X95026619Y-134226518D01*
X95026620Y-134226524D01*
X95056605Y-134351420D01*
X95080895Y-134452594D01*
X95082788Y-134457165D01*
X95082789Y-134457167D01*
X95101927Y-134503369D01*
X95171760Y-134671963D01*
X95174346Y-134676183D01*
X95293241Y-134870202D01*
X95293245Y-134870208D01*
X95295824Y-134874416D01*
X95450031Y-135054969D01*
X95630584Y-135209176D01*
X95634792Y-135211755D01*
X95634798Y-135211759D01*
X95828817Y-135330654D01*
X95833037Y-135333240D01*
X95837607Y-135335133D01*
X95837611Y-135335135D01*
X96047833Y-135422211D01*
X96052406Y-135424105D01*
X96078148Y-135430285D01*
X96278476Y-135478380D01*
X96278482Y-135478381D01*
X96283289Y-135479535D01*
X96520000Y-135498165D01*
X96756711Y-135479535D01*
X96761518Y-135478381D01*
X96761524Y-135478380D01*
X96961852Y-135430285D01*
X96987594Y-135424105D01*
X96992167Y-135422211D01*
X97202389Y-135335135D01*
X97202393Y-135335133D01*
X97206963Y-135333240D01*
X97211183Y-135330654D01*
X97405202Y-135211759D01*
X97405208Y-135211755D01*
X97409416Y-135209176D01*
X97589969Y-135054969D01*
X97744176Y-134874416D01*
X97746755Y-134870208D01*
X97746759Y-134870202D01*
X97865654Y-134676183D01*
X97868240Y-134671963D01*
X97938074Y-134503369D01*
X97957211Y-134457167D01*
X97957212Y-134457165D01*
X97959105Y-134452594D01*
X97983395Y-134351420D01*
X98013380Y-134226524D01*
X98013381Y-134226518D01*
X98014535Y-134221711D01*
X98033165Y-133985000D01*
X105166835Y-133985000D01*
X105185465Y-134221711D01*
X105186619Y-134226518D01*
X105186620Y-134226524D01*
X105216605Y-134351420D01*
X105240895Y-134452594D01*
X105242788Y-134457165D01*
X105242789Y-134457167D01*
X105261927Y-134503369D01*
X105331760Y-134671963D01*
X105334346Y-134676183D01*
X105453241Y-134870202D01*
X105453245Y-134870208D01*
X105455824Y-134874416D01*
X105610031Y-135054969D01*
X105790584Y-135209176D01*
X105794792Y-135211755D01*
X105794798Y-135211759D01*
X105988817Y-135330654D01*
X105993037Y-135333240D01*
X105997607Y-135335133D01*
X105997611Y-135335135D01*
X106207833Y-135422211D01*
X106212406Y-135424105D01*
X106238148Y-135430285D01*
X106438476Y-135478380D01*
X106438482Y-135478381D01*
X106443289Y-135479535D01*
X106680000Y-135498165D01*
X106916711Y-135479535D01*
X106921518Y-135478381D01*
X106921524Y-135478380D01*
X107121852Y-135430285D01*
X107147594Y-135424105D01*
X107152167Y-135422211D01*
X107362389Y-135335135D01*
X107362393Y-135335133D01*
X107366963Y-135333240D01*
X107371183Y-135330654D01*
X107565202Y-135211759D01*
X107565208Y-135211755D01*
X107569416Y-135209176D01*
X107749969Y-135054969D01*
X107904176Y-134874416D01*
X107906755Y-134870208D01*
X107906759Y-134870202D01*
X108025654Y-134676183D01*
X108028240Y-134671963D01*
X108098074Y-134503369D01*
X108117211Y-134457167D01*
X108117212Y-134457165D01*
X108119105Y-134452594D01*
X108143395Y-134351420D01*
X108173380Y-134226524D01*
X108173381Y-134226518D01*
X108174535Y-134221711D01*
X108193165Y-133985000D01*
X115326835Y-133985000D01*
X115345465Y-134221711D01*
X115346619Y-134226518D01*
X115346620Y-134226524D01*
X115376605Y-134351420D01*
X115400895Y-134452594D01*
X115402788Y-134457165D01*
X115402789Y-134457167D01*
X115421927Y-134503369D01*
X115491760Y-134671963D01*
X115494346Y-134676183D01*
X115613241Y-134870202D01*
X115613245Y-134870208D01*
X115615824Y-134874416D01*
X115770031Y-135054969D01*
X115950584Y-135209176D01*
X115954792Y-135211755D01*
X115954798Y-135211759D01*
X116148817Y-135330654D01*
X116153037Y-135333240D01*
X116157607Y-135335133D01*
X116157611Y-135335135D01*
X116367833Y-135422211D01*
X116372406Y-135424105D01*
X116398148Y-135430285D01*
X116598476Y-135478380D01*
X116598482Y-135478381D01*
X116603289Y-135479535D01*
X116840000Y-135498165D01*
X117076711Y-135479535D01*
X117081518Y-135478381D01*
X117081524Y-135478380D01*
X117281852Y-135430285D01*
X117307594Y-135424105D01*
X117312167Y-135422211D01*
X117522389Y-135335135D01*
X117522393Y-135335133D01*
X117526963Y-135333240D01*
X117531183Y-135330654D01*
X117725202Y-135211759D01*
X117725208Y-135211755D01*
X117729416Y-135209176D01*
X117909969Y-135054969D01*
X118064176Y-134874416D01*
X118066755Y-134870208D01*
X118066759Y-134870202D01*
X118185654Y-134676183D01*
X118188240Y-134671963D01*
X118258074Y-134503369D01*
X118277211Y-134457167D01*
X118277212Y-134457165D01*
X118279105Y-134452594D01*
X118303395Y-134351420D01*
X118333380Y-134226524D01*
X118333381Y-134226518D01*
X118334535Y-134221711D01*
X118353165Y-133985000D01*
X118334535Y-133748289D01*
X118319203Y-133684424D01*
X118285939Y-133545871D01*
X118279105Y-133517406D01*
X118277211Y-133512833D01*
X118190135Y-133302611D01*
X118190133Y-133302607D01*
X118188240Y-133298037D01*
X118185654Y-133293817D01*
X118066759Y-133099798D01*
X118066755Y-133099792D01*
X118064176Y-133095584D01*
X117909969Y-132915031D01*
X117729416Y-132760824D01*
X117725208Y-132758245D01*
X117725202Y-132758241D01*
X117531183Y-132639346D01*
X117526963Y-132636760D01*
X117522393Y-132634867D01*
X117522389Y-132634865D01*
X117312167Y-132547789D01*
X117312165Y-132547788D01*
X117307594Y-132545895D01*
X117227391Y-132526640D01*
X117081524Y-132491620D01*
X117081518Y-132491619D01*
X117076711Y-132490465D01*
X116840000Y-132471835D01*
X116603289Y-132490465D01*
X116598482Y-132491619D01*
X116598476Y-132491620D01*
X116452609Y-132526640D01*
X116372406Y-132545895D01*
X116367835Y-132547788D01*
X116367833Y-132547789D01*
X116157611Y-132634865D01*
X116157607Y-132634867D01*
X116153037Y-132636760D01*
X116148817Y-132639346D01*
X115954798Y-132758241D01*
X115954792Y-132758245D01*
X115950584Y-132760824D01*
X115770031Y-132915031D01*
X115615824Y-133095584D01*
X115613245Y-133099792D01*
X115613241Y-133099798D01*
X115494346Y-133293817D01*
X115491760Y-133298037D01*
X115489867Y-133302607D01*
X115489865Y-133302611D01*
X115402789Y-133512833D01*
X115400895Y-133517406D01*
X115394061Y-133545871D01*
X115360798Y-133684424D01*
X115345465Y-133748289D01*
X115326835Y-133985000D01*
X108193165Y-133985000D01*
X108174535Y-133748289D01*
X108159203Y-133684424D01*
X108125939Y-133545871D01*
X108119105Y-133517406D01*
X108117211Y-133512833D01*
X108030135Y-133302611D01*
X108030133Y-133302607D01*
X108028240Y-133298037D01*
X108025654Y-133293817D01*
X107906759Y-133099798D01*
X107906755Y-133099792D01*
X107904176Y-133095584D01*
X107749969Y-132915031D01*
X107569416Y-132760824D01*
X107565208Y-132758245D01*
X107565202Y-132758241D01*
X107371183Y-132639346D01*
X107366963Y-132636760D01*
X107362393Y-132634867D01*
X107362389Y-132634865D01*
X107152167Y-132547789D01*
X107152165Y-132547788D01*
X107147594Y-132545895D01*
X107067391Y-132526640D01*
X106921524Y-132491620D01*
X106921518Y-132491619D01*
X106916711Y-132490465D01*
X106680000Y-132471835D01*
X106443289Y-132490465D01*
X106438482Y-132491619D01*
X106438476Y-132491620D01*
X106292609Y-132526640D01*
X106212406Y-132545895D01*
X106207835Y-132547788D01*
X106207833Y-132547789D01*
X105997611Y-132634865D01*
X105997607Y-132634867D01*
X105993037Y-132636760D01*
X105988817Y-132639346D01*
X105794798Y-132758241D01*
X105794792Y-132758245D01*
X105790584Y-132760824D01*
X105610031Y-132915031D01*
X105455824Y-133095584D01*
X105453245Y-133099792D01*
X105453241Y-133099798D01*
X105334346Y-133293817D01*
X105331760Y-133298037D01*
X105329867Y-133302607D01*
X105329865Y-133302611D01*
X105242789Y-133512833D01*
X105240895Y-133517406D01*
X105234061Y-133545871D01*
X105200798Y-133684424D01*
X105185465Y-133748289D01*
X105166835Y-133985000D01*
X98033165Y-133985000D01*
X98014535Y-133748289D01*
X97999203Y-133684424D01*
X97965939Y-133545871D01*
X97959105Y-133517406D01*
X97957211Y-133512833D01*
X97870135Y-133302611D01*
X97870133Y-133302607D01*
X97868240Y-133298037D01*
X97865654Y-133293817D01*
X97746759Y-133099798D01*
X97746755Y-133099792D01*
X97744176Y-133095584D01*
X97589969Y-132915031D01*
X97409416Y-132760824D01*
X97405208Y-132758245D01*
X97405202Y-132758241D01*
X97211183Y-132639346D01*
X97206963Y-132636760D01*
X97202393Y-132634867D01*
X97202389Y-132634865D01*
X96992167Y-132547789D01*
X96992165Y-132547788D01*
X96987594Y-132545895D01*
X96907391Y-132526640D01*
X96761524Y-132491620D01*
X96761518Y-132491619D01*
X96756711Y-132490465D01*
X96520000Y-132471835D01*
X96283289Y-132490465D01*
X96278482Y-132491619D01*
X96278476Y-132491620D01*
X96132609Y-132526640D01*
X96052406Y-132545895D01*
X96047835Y-132547788D01*
X96047833Y-132547789D01*
X95837611Y-132634865D01*
X95837607Y-132634867D01*
X95833037Y-132636760D01*
X95828817Y-132639346D01*
X95634798Y-132758241D01*
X95634792Y-132758245D01*
X95630584Y-132760824D01*
X95450031Y-132915031D01*
X95295824Y-133095584D01*
X95293245Y-133099792D01*
X95293241Y-133099798D01*
X95174346Y-133293817D01*
X95171760Y-133298037D01*
X95169867Y-133302607D01*
X95169865Y-133302611D01*
X95082789Y-133512833D01*
X95080895Y-133517406D01*
X95074061Y-133545871D01*
X95040798Y-133684424D01*
X95025465Y-133748289D01*
X95006835Y-133985000D01*
X91605713Y-133985000D01*
X91539190Y-133886746D01*
X91307403Y-133613432D01*
X91047454Y-133366750D01*
X90826941Y-133198764D01*
X90765091Y-133151647D01*
X90765089Y-133151646D01*
X90762384Y-133149585D01*
X90759472Y-133147828D01*
X90759467Y-133147825D01*
X90458443Y-132966236D01*
X90458437Y-132966233D01*
X90455528Y-132964478D01*
X90196742Y-132844353D01*
X90133571Y-132815030D01*
X90133569Y-132815029D01*
X90130475Y-132813593D01*
X89917287Y-132741433D01*
X89794255Y-132699789D01*
X89794250Y-132699788D01*
X89791028Y-132698697D01*
X89592681Y-132654724D01*
X89444493Y-132621871D01*
X89444487Y-132621870D01*
X89441158Y-132621132D01*
X89437769Y-132620758D01*
X89437764Y-132620757D01*
X89088338Y-132582180D01*
X89088333Y-132582180D01*
X89084957Y-132581807D01*
X89081558Y-132581801D01*
X89081557Y-132581801D01*
X88912080Y-132581505D01*
X88726592Y-132581182D01*
X88613413Y-132593277D01*
X88373639Y-132618901D01*
X88373631Y-132618902D01*
X88370256Y-132619263D01*
X88020117Y-132695606D01*
X87680271Y-132809317D01*
X87677178Y-132810739D01*
X87677177Y-132810740D01*
X87671574Y-132813317D01*
X87354694Y-132959066D01*
X87351760Y-132960822D01*
X87351758Y-132960823D01*
X87067735Y-133130807D01*
X87047193Y-133143101D01*
X87044467Y-133145163D01*
X87044465Y-133145164D01*
X86789097Y-133338298D01*
X86761367Y-133359270D01*
X86758882Y-133361612D01*
X86758877Y-133361616D01*
X86720201Y-133398063D01*
X86500559Y-133605043D01*
X86267819Y-133877546D01*
X86265900Y-133880358D01*
X86265897Y-133880363D01*
X86197882Y-133980070D01*
X86065871Y-134173591D01*
X85897077Y-134489714D01*
X85763411Y-134822218D01*
X85762491Y-134825492D01*
X85762489Y-134825497D01*
X85697086Y-135058177D01*
X85666437Y-135167213D01*
X85665875Y-135170570D01*
X85665875Y-135170571D01*
X85614108Y-135479923D01*
X85607290Y-135520663D01*
X85586661Y-135878434D01*
X85604792Y-136236340D01*
X85605329Y-136239695D01*
X85605330Y-136239701D01*
X85610316Y-136270828D01*
X85661470Y-136590195D01*
X85756033Y-136935859D01*
X85887374Y-137269288D01*
X85914890Y-137321698D01*
X86042835Y-137565397D01*
X86053957Y-137586582D01*
X86055858Y-137589411D01*
X86055864Y-137589421D01*
X86239569Y-137862800D01*
X86253834Y-137884029D01*
X86484665Y-138158150D01*
X86743751Y-138405738D01*
X87028061Y-138623897D01*
X87060056Y-138643350D01*
X87331355Y-138808303D01*
X87331360Y-138808306D01*
X87334270Y-138810075D01*
X87337358Y-138811521D01*
X87337357Y-138811521D01*
X87635963Y-138951398D01*
X87689166Y-138998408D01*
X87708508Y-139066719D01*
X87687848Y-139134643D01*
X87633745Y-139180615D01*
X87582514Y-139191500D01*
X39414051Y-139191500D01*
X39345930Y-139171498D01*
X39299437Y-139117842D01*
X39289333Y-139047568D01*
X39318827Y-138982988D01*
X39361800Y-138950845D01*
X39631954Y-138827729D01*
X39635066Y-138826311D01*
X39729052Y-138770506D01*
X39940262Y-138645099D01*
X39940267Y-138645096D01*
X39943207Y-138643350D01*
X40229786Y-138428180D01*
X40491451Y-138183319D01*
X40725140Y-137911630D01*
X40831750Y-137756512D01*
X40926190Y-137619101D01*
X40926195Y-137619094D01*
X40928120Y-137616292D01*
X40929732Y-137613298D01*
X40929737Y-137613290D01*
X41096395Y-137303772D01*
X41098017Y-137300760D01*
X41232842Y-136968724D01*
X41237360Y-136952866D01*
X41287548Y-136776678D01*
X41331020Y-136624070D01*
X41391401Y-136270828D01*
X41393511Y-136236340D01*
X41410645Y-135956181D01*
X41413278Y-135913131D01*
X41413359Y-135890000D01*
X41393979Y-135532159D01*
X41336066Y-135178505D01*
X41240297Y-134833173D01*
X41237243Y-134825497D01*
X41109052Y-134503369D01*
X41107793Y-134500205D01*
X41034727Y-134362207D01*
X40941702Y-134186513D01*
X40941698Y-134186506D01*
X40940103Y-134183494D01*
X40739190Y-133886746D01*
X40507403Y-133613432D01*
X40247454Y-133366750D01*
X40026941Y-133198764D01*
X39965091Y-133151647D01*
X39965089Y-133151646D01*
X39962384Y-133149585D01*
X39959472Y-133147828D01*
X39959467Y-133147825D01*
X39658443Y-132966236D01*
X39658437Y-132966233D01*
X39655528Y-132964478D01*
X39396742Y-132844353D01*
X39333571Y-132815030D01*
X39333569Y-132815029D01*
X39330475Y-132813593D01*
X39117287Y-132741433D01*
X38994255Y-132699789D01*
X38994250Y-132699788D01*
X38991028Y-132698697D01*
X38792681Y-132654724D01*
X38644493Y-132621871D01*
X38644487Y-132621870D01*
X38641158Y-132621132D01*
X38637769Y-132620758D01*
X38637764Y-132620757D01*
X38288338Y-132582180D01*
X38288333Y-132582180D01*
X38284957Y-132581807D01*
X38281558Y-132581801D01*
X38281557Y-132581801D01*
X38112080Y-132581505D01*
X37926592Y-132581182D01*
X37813413Y-132593277D01*
X37573639Y-132618901D01*
X37573631Y-132618902D01*
X37570256Y-132619263D01*
X37220117Y-132695606D01*
X36880271Y-132809317D01*
X36877178Y-132810739D01*
X36877177Y-132810740D01*
X36871574Y-132813317D01*
X36554694Y-132959066D01*
X36551760Y-132960822D01*
X36551758Y-132960823D01*
X36267735Y-133130807D01*
X36247193Y-133143101D01*
X36244467Y-133145163D01*
X36244465Y-133145164D01*
X35989097Y-133338298D01*
X35961367Y-133359270D01*
X35958882Y-133361612D01*
X35958877Y-133361616D01*
X35920201Y-133398063D01*
X35700559Y-133605043D01*
X35467819Y-133877546D01*
X35465900Y-133880358D01*
X35465897Y-133880363D01*
X35397882Y-133980070D01*
X35265871Y-134173591D01*
X35097077Y-134489714D01*
X34963411Y-134822218D01*
X34962491Y-134825492D01*
X34962489Y-134825497D01*
X34897086Y-135058177D01*
X34866437Y-135167213D01*
X34865875Y-135170570D01*
X34865875Y-135170571D01*
X34814108Y-135479923D01*
X34807290Y-135520663D01*
X34786661Y-135878434D01*
X34804792Y-136236340D01*
X34805329Y-136239695D01*
X34805330Y-136239701D01*
X34810316Y-136270828D01*
X34861470Y-136590195D01*
X34956033Y-136935859D01*
X35087374Y-137269288D01*
X35114890Y-137321698D01*
X35242835Y-137565397D01*
X35253957Y-137586582D01*
X35255858Y-137589411D01*
X35255864Y-137589421D01*
X35439569Y-137862800D01*
X35453834Y-137884029D01*
X35684665Y-138158150D01*
X35943751Y-138405738D01*
X36228061Y-138623897D01*
X36260056Y-138643350D01*
X36531355Y-138808303D01*
X36531360Y-138808306D01*
X36534270Y-138810075D01*
X36537358Y-138811521D01*
X36537357Y-138811521D01*
X36835963Y-138951398D01*
X36889166Y-138998408D01*
X36908508Y-139066719D01*
X36887848Y-139134643D01*
X36833745Y-139180615D01*
X36782514Y-139191500D01*
X14604500Y-139191500D01*
X14536379Y-139171498D01*
X14489886Y-139117842D01*
X14478500Y-139065500D01*
X14478500Y-134888580D01*
X16203317Y-134888580D01*
X16229252Y-135012188D01*
X16232312Y-135022384D01*
X16314284Y-135229952D01*
X16319018Y-135239489D01*
X16434796Y-135430285D01*
X16441062Y-135438878D01*
X16587333Y-135607441D01*
X16594964Y-135614861D01*
X16767542Y-135756368D01*
X16776309Y-135762393D01*
X16970262Y-135872797D01*
X16979926Y-135877262D01*
X17189711Y-135953410D01*
X17199979Y-135956181D01*
X17420766Y-135996106D01*
X17428995Y-135997039D01*
X17447874Y-135997930D01*
X17450849Y-135998000D01*
X17507885Y-135998000D01*
X17523124Y-135993525D01*
X17524329Y-135992135D01*
X17526000Y-135984452D01*
X17526000Y-135979885D01*
X18034000Y-135979885D01*
X18038475Y-135995124D01*
X18039865Y-135996329D01*
X18047548Y-135998000D01*
X18061054Y-135998000D01*
X18066363Y-135997775D01*
X18232707Y-135983661D01*
X18243179Y-135981871D01*
X18459202Y-135925802D01*
X18469242Y-135922266D01*
X18672732Y-135830601D01*
X18682018Y-135825432D01*
X18867155Y-135700790D01*
X18875441Y-135694129D01*
X19036930Y-135540076D01*
X19043979Y-135532108D01*
X19177203Y-135353048D01*
X19182802Y-135344018D01*
X19283953Y-135145069D01*
X19287956Y-135135208D01*
X19354138Y-134922071D01*
X19356420Y-134911691D01*
X19359036Y-134891957D01*
X19356840Y-134877793D01*
X19343655Y-134874000D01*
X18052115Y-134874000D01*
X18036876Y-134878475D01*
X18035671Y-134879865D01*
X18034000Y-134887548D01*
X18034000Y-135979885D01*
X17526000Y-135979885D01*
X17526000Y-134892115D01*
X17521525Y-134876876D01*
X17520135Y-134875671D01*
X17512452Y-134874000D01*
X16218373Y-134874000D01*
X16204842Y-134877973D01*
X16203317Y-134888580D01*
X14478500Y-134888580D01*
X14478500Y-127761000D01*
X14498502Y-127692879D01*
X14552158Y-127646386D01*
X14604500Y-127635000D01*
X16256920Y-127635000D01*
X16325041Y-127655002D01*
G37*
G04 #@! TD.AperFunction*
M02*
