%FSLAX45Y45*%
G04 Gerber Fmt 4.5, Leading zero omitted, Abs format (unit mm)*
G04 Created by KiCad (PCBNEW 6.0.6-3a73a75311~116~ubuntu22.04.1) date 2022-06-24 09:32:34*
%MOMM*%
%LPD*%
G01*
G04 APERTURE LIST*
%TA.AperFunction,Profile*%
%ADD10C,0.100000*%
%TD*%
%ADD11C,0.200000*%
%ADD12C,0.040000*%
%ADD13C,0.050000*%
%ADD14C,0.100000*%
%ADD15C,0.320000*%
G04 APERTURE END LIST*
D10*
X17763902Y-6829098D02*
G75*
G03*
X17382903Y-6448098I-381002J-2D01*
G01*
X12937903Y-12925098D02*
X17382903Y-12925098D01*
X12556903Y-12544098D02*
X12556903Y-6829098D01*
X17382903Y-12925103D02*
G75*
G03*
X17763903Y-12544098I-3J381003D01*
G01*
X17763903Y-12544098D02*
X17763903Y-6829098D01*
X12556902Y-12544098D02*
G75*
G03*
X12937903Y-12925098I380998J-2D01*
G01*
X12937903Y-6448103D02*
G75*
G03*
X12556903Y-6829098I-3J-380997D01*
G01*
X12937903Y-6448098D02*
X17382903Y-6448098D01*
D11*
D12*
X15102303Y-11711298D02*
X15142303Y-11751298D01*
X15142303Y-11711298D02*
X15102303Y-11751298D01*
X15102303Y-11838298D02*
X15142303Y-11878298D01*
X15142303Y-11838298D02*
X15102303Y-11878298D01*
X15102303Y-11965298D02*
X15142303Y-12005298D01*
X15142303Y-11965298D02*
X15102303Y-12005298D01*
X15102303Y-12272197D02*
X15142303Y-12312197D01*
X15142303Y-12272197D02*
X15102303Y-12312197D01*
X15104939Y-12172281D02*
X15144939Y-12212281D01*
X15144939Y-12172281D02*
X15104939Y-12212281D01*
X15107412Y-12068759D02*
X15147412Y-12108759D01*
X15147412Y-12068759D02*
X15107412Y-12108759D01*
D13*
X13775703Y-10410498D02*
G75*
G03*
X13775703Y-10410498I-25000J0D01*
G01*
X13801103Y-7972098D02*
G75*
G03*
X13801103Y-7972098I-25000J0D01*
G01*
X14029703Y-7963348D02*
G75*
G03*
X14029703Y-7963348I-25000J0D01*
G01*
X14108443Y-7428538D02*
G75*
G03*
X14108443Y-7428538I-25000J0D01*
G01*
X14156703Y-9851698D02*
G75*
G03*
X14156703Y-9851698I-25000J0D01*
G01*
X14207503Y-10956598D02*
G75*
G03*
X14207503Y-10956598I-25000J0D01*
G01*
X14207503Y-11083598D02*
G75*
G03*
X14207503Y-11083598I-25000J0D01*
G01*
X14207503Y-11210598D02*
G75*
G03*
X14207503Y-11210598I-25000J0D01*
G01*
X14207503Y-11337598D02*
G75*
G03*
X14207503Y-11337598I-25000J0D01*
G01*
X14207503Y-11464598D02*
G75*
G03*
X14207503Y-11464598I-25000J0D01*
G01*
X14207503Y-11591598D02*
G75*
G03*
X14207503Y-11591598I-25000J0D01*
G01*
X14207503Y-11718598D02*
G75*
G03*
X14207503Y-11718598I-25000J0D01*
G01*
X14207503Y-11845598D02*
G75*
G03*
X14207503Y-11845598I-25000J0D01*
G01*
X14220203Y-8645198D02*
G75*
G03*
X14220203Y-8645198I-25000J0D01*
G01*
X14220203Y-8784898D02*
G75*
G03*
X14220203Y-8784898I-25000J0D01*
G01*
X14220203Y-8924598D02*
G75*
G03*
X14220203Y-8924598I-25000J0D01*
G01*
X14220203Y-9051598D02*
G75*
G03*
X14220203Y-9051598I-25000J0D01*
G01*
X14220203Y-9178598D02*
G75*
G03*
X14220203Y-9178598I-25000J0D01*
G01*
X14220203Y-9305598D02*
G75*
G03*
X14220203Y-9305598I-25000J0D01*
G01*
X14220203Y-9432598D02*
G75*
G03*
X14220203Y-9432598I-25000J0D01*
G01*
X14220203Y-9559598D02*
G75*
G03*
X14220203Y-9559598I-25000J0D01*
G01*
X14257359Y-8015092D02*
G75*
G03*
X14257359Y-8015092I-25000J0D01*
G01*
X14334503Y-10258098D02*
G75*
G03*
X14334503Y-10258098I-25000J0D01*
G01*
X14512303Y-9851698D02*
G75*
G03*
X14512303Y-9851698I-25000J0D01*
G01*
X14740903Y-8276898D02*
G75*
G03*
X14740903Y-8276898I-25000J0D01*
G01*
X15248903Y-8454698D02*
G75*
G03*
X15248903Y-8454698I-25000J0D01*
G01*
X15248903Y-8607098D02*
G75*
G03*
X15248903Y-8607098I-25000J0D01*
G01*
X15248903Y-8759498D02*
G75*
G03*
X15248903Y-8759498I-25000J0D01*
G01*
X15248903Y-8911898D02*
G75*
G03*
X15248903Y-8911898I-25000J0D01*
G01*
X15248903Y-9064298D02*
G75*
G03*
X15248903Y-9064298I-25000J0D01*
G01*
X15248903Y-9216698D02*
G75*
G03*
X15248903Y-9216698I-25000J0D01*
G01*
X15248903Y-9369098D02*
G75*
G03*
X15248903Y-9369098I-25000J0D01*
G01*
X15248903Y-9521498D02*
G75*
G03*
X15248903Y-9521498I-25000J0D01*
G01*
X15299703Y-10270798D02*
G75*
G03*
X15299703Y-10270798I-25000J0D01*
G01*
X15416543Y-7791758D02*
G75*
G03*
X15416543Y-7791758I-25000J0D01*
G01*
D14*
X12937903Y-7795098D02*
X12937903Y-7895098D01*
X12887903Y-7845098D02*
X12987903Y-7845098D01*
X12937903Y-8049098D02*
X12937903Y-8149098D01*
X12887903Y-8099098D02*
X12987903Y-8099098D01*
X12937903Y-8303098D02*
X12937903Y-8403098D01*
X12887903Y-8353098D02*
X12987903Y-8353098D01*
X12937903Y-8557098D02*
X12937903Y-8657098D01*
X12887903Y-8607098D02*
X12987903Y-8607098D01*
X12937903Y-8811098D02*
X12937903Y-8911098D01*
X12887903Y-8861098D02*
X12987903Y-8861098D01*
X12937903Y-9065098D02*
X12937903Y-9165098D01*
X12887903Y-9115098D02*
X12987903Y-9115098D01*
X12937903Y-9319098D02*
X12937903Y-9419098D01*
X12887903Y-9369098D02*
X12987903Y-9369098D01*
X12937903Y-10081098D02*
X12937903Y-10181098D01*
X12887903Y-10131098D02*
X12987903Y-10131098D01*
X12937903Y-10335098D02*
X12937903Y-10435098D01*
X12887903Y-10385098D02*
X12987903Y-10385098D01*
X12937903Y-10589098D02*
X12937903Y-10689098D01*
X12887903Y-10639098D02*
X12987903Y-10639098D01*
X12937903Y-11097098D02*
X12937903Y-11197098D01*
X12887903Y-11147098D02*
X12987903Y-11147098D01*
X12937903Y-11351098D02*
X12937903Y-11451098D01*
X12887903Y-11401098D02*
X12987903Y-11401098D01*
X12937903Y-11605098D02*
X12937903Y-11705098D01*
X12887903Y-11655098D02*
X12987903Y-11655098D01*
X16239903Y-7287098D02*
X16239903Y-7387098D01*
X16189903Y-7337098D02*
X16289903Y-7337098D01*
X16239903Y-7541098D02*
X16239903Y-7641098D01*
X16189903Y-7591098D02*
X16289903Y-7591098D01*
X16239903Y-7795098D02*
X16239903Y-7895098D01*
X16189903Y-7845098D02*
X16289903Y-7845098D01*
X16239903Y-8049098D02*
X16239903Y-8149098D01*
X16189903Y-8099098D02*
X16289903Y-8099098D01*
X16239903Y-8303098D02*
X16239903Y-8403098D01*
X16189903Y-8353098D02*
X16289903Y-8353098D01*
X16239903Y-8557098D02*
X16239903Y-8657098D01*
X16189903Y-8607098D02*
X16289903Y-8607098D01*
X16239903Y-8811098D02*
X16239903Y-8911098D01*
X16189903Y-8861098D02*
X16289903Y-8861098D01*
X16239903Y-9065098D02*
X16239903Y-9165098D01*
X16189903Y-9115098D02*
X16289903Y-9115098D01*
X16239903Y-9319098D02*
X16239903Y-9419098D01*
X16189903Y-9369098D02*
X16289903Y-9369098D01*
X16239903Y-9573098D02*
X16239903Y-9673098D01*
X16189903Y-9623098D02*
X16289903Y-9623098D01*
X16239903Y-9827098D02*
X16239903Y-9927098D01*
X16189903Y-9877098D02*
X16289903Y-9877098D01*
X16239903Y-10081098D02*
X16239903Y-10181098D01*
X16189903Y-10131098D02*
X16289903Y-10131098D01*
X16239903Y-10335098D02*
X16239903Y-10435098D01*
X16189903Y-10385098D02*
X16289903Y-10385098D01*
X16239903Y-10589098D02*
X16239903Y-10689098D01*
X16189903Y-10639098D02*
X16289903Y-10639098D01*
X16239903Y-10843098D02*
X16239903Y-10943098D01*
X16189903Y-10893098D02*
X16289903Y-10893098D01*
X16239903Y-11097098D02*
X16239903Y-11197098D01*
X16189903Y-11147098D02*
X16289903Y-11147098D01*
X16239903Y-11351098D02*
X16239903Y-11451098D01*
X16189903Y-11401098D02*
X16289903Y-11401098D01*
X16239903Y-11605098D02*
X16239903Y-11705098D01*
X16189903Y-11655098D02*
X16289903Y-11655098D01*
X16239903Y-11859098D02*
X16239903Y-11959098D01*
X16189903Y-11909098D02*
X16289903Y-11909098D01*
X16239903Y-12113098D02*
X16239903Y-12213098D01*
X16189903Y-12163098D02*
X16289903Y-12163098D01*
X16493903Y-7287098D02*
X16493903Y-7387098D01*
X16443903Y-7337098D02*
X16543903Y-7337098D01*
X16493903Y-7541098D02*
X16493903Y-7641098D01*
X16443903Y-7591098D02*
X16543903Y-7591098D01*
X16493903Y-7795098D02*
X16493903Y-7895098D01*
X16443903Y-7845098D02*
X16543903Y-7845098D01*
X16493903Y-8049098D02*
X16493903Y-8149098D01*
X16443903Y-8099098D02*
X16543903Y-8099098D01*
X16493903Y-8303098D02*
X16493903Y-8403098D01*
X16443903Y-8353098D02*
X16543903Y-8353098D01*
X16493903Y-8557098D02*
X16493903Y-8657098D01*
X16443903Y-8607098D02*
X16543903Y-8607098D01*
X16493903Y-8811098D02*
X16493903Y-8911098D01*
X16443903Y-8861098D02*
X16543903Y-8861098D01*
X16493903Y-9065098D02*
X16493903Y-9165098D01*
X16443903Y-9115098D02*
X16543903Y-9115098D01*
X16493903Y-9319098D02*
X16493903Y-9419098D01*
X16443903Y-9369098D02*
X16543903Y-9369098D01*
X16493903Y-9573098D02*
X16493903Y-9673098D01*
X16443903Y-9623098D02*
X16543903Y-9623098D01*
X16493903Y-9827098D02*
X16493903Y-9927098D01*
X16443903Y-9877098D02*
X16543903Y-9877098D01*
X16493903Y-10081098D02*
X16493903Y-10181098D01*
X16443903Y-10131098D02*
X16543903Y-10131098D01*
X16493903Y-10335098D02*
X16493903Y-10435098D01*
X16443903Y-10385098D02*
X16543903Y-10385098D01*
X16493903Y-10589098D02*
X16493903Y-10689098D01*
X16443903Y-10639098D02*
X16543903Y-10639098D01*
X16493903Y-10843098D02*
X16493903Y-10943098D01*
X16443903Y-10893098D02*
X16543903Y-10893098D01*
X16493903Y-11097098D02*
X16493903Y-11197098D01*
X16443903Y-11147098D02*
X16543903Y-11147098D01*
X16493903Y-11351098D02*
X16493903Y-11451098D01*
X16443903Y-11401098D02*
X16543903Y-11401098D01*
X16493903Y-11605098D02*
X16493903Y-11705098D01*
X16443903Y-11655098D02*
X16543903Y-11655098D01*
X16493903Y-11859098D02*
X16493903Y-11959098D01*
X16443903Y-11909098D02*
X16543903Y-11909098D01*
X16493903Y-12113098D02*
X16493903Y-12213098D01*
X16443903Y-12163098D02*
X16543903Y-12163098D01*
D15*
X13051041Y-6942236D02*
X13051041Y-6715960D01*
X12824765Y-6715960D01*
X12824765Y-6942236D01*
X13051041Y-6942236D01*
X13051041Y-12657236D02*
X13051041Y-12430960D01*
X12824765Y-12430960D01*
X12824765Y-12657236D01*
X13051041Y-12657236D01*
X17496041Y-6942236D02*
X17496041Y-6715960D01*
X17269765Y-6715960D01*
X17269765Y-6942236D01*
X17496041Y-6942236D01*
X17496041Y-12657236D02*
X17496041Y-12430960D01*
X17269765Y-12430960D01*
X17269765Y-12657236D01*
X17496041Y-12657236D01*
D11*
X12809522Y-13240574D02*
X12809522Y-13040574D01*
X12857141Y-13040574D01*
X12885712Y-13050098D01*
X12904760Y-13069145D01*
X12914284Y-13088193D01*
X12923808Y-13126288D01*
X12923808Y-13154860D01*
X12914284Y-13192955D01*
X12904760Y-13212002D01*
X12885712Y-13231050D01*
X12857141Y-13240574D01*
X12809522Y-13240574D01*
X13009522Y-13240574D02*
X13009522Y-13107240D01*
X13009522Y-13145336D02*
X13019046Y-13126288D01*
X13028569Y-13116764D01*
X13047617Y-13107240D01*
X13066665Y-13107240D01*
X13133331Y-13240574D02*
X13133331Y-13107240D01*
X13133331Y-13040574D02*
X13123808Y-13050098D01*
X13133331Y-13059621D01*
X13142855Y-13050098D01*
X13133331Y-13040574D01*
X13133331Y-13059621D01*
X13257141Y-13240574D02*
X13238093Y-13231050D01*
X13228569Y-13212002D01*
X13228569Y-13040574D01*
X13361903Y-13240574D02*
X13342855Y-13231050D01*
X13333331Y-13212002D01*
X13333331Y-13040574D01*
X13590474Y-13240574D02*
X13590474Y-13040574D01*
X13657141Y-13183431D01*
X13723808Y-13040574D01*
X13723808Y-13240574D01*
X13904760Y-13240574D02*
X13904760Y-13135812D01*
X13895236Y-13116764D01*
X13876189Y-13107240D01*
X13838093Y-13107240D01*
X13819046Y-13116764D01*
X13904760Y-13231050D02*
X13885712Y-13240574D01*
X13838093Y-13240574D01*
X13819046Y-13231050D01*
X13809522Y-13212002D01*
X13809522Y-13192955D01*
X13819046Y-13173907D01*
X13838093Y-13164383D01*
X13885712Y-13164383D01*
X13904760Y-13154860D01*
X13999998Y-13107240D02*
X13999998Y-13307240D01*
X13999998Y-13116764D02*
X14019046Y-13107240D01*
X14057141Y-13107240D01*
X14076189Y-13116764D01*
X14085712Y-13126288D01*
X14095236Y-13145336D01*
X14095236Y-13202479D01*
X14085712Y-13221526D01*
X14076189Y-13231050D01*
X14057141Y-13240574D01*
X14019046Y-13240574D01*
X13999998Y-13231050D01*
X14180950Y-13221526D02*
X14190474Y-13231050D01*
X14180950Y-13240574D01*
X14171427Y-13231050D01*
X14180950Y-13221526D01*
X14180950Y-13240574D01*
X14180950Y-13116764D02*
X14190474Y-13126288D01*
X14180950Y-13135812D01*
X14171427Y-13126288D01*
X14180950Y-13116764D01*
X14180950Y-13135812D01*
D12*
X12511903Y-13550098D02*
X12551903Y-13590098D01*
X12551903Y-13550098D02*
X12511903Y-13590098D01*
D11*
X12847617Y-13460574D02*
X12866665Y-13460574D01*
X12885712Y-13470098D01*
X12895236Y-13479621D01*
X12904760Y-13498669D01*
X12914284Y-13536764D01*
X12914284Y-13584383D01*
X12904760Y-13622479D01*
X12895236Y-13641526D01*
X12885712Y-13651050D01*
X12866665Y-13660574D01*
X12847617Y-13660574D01*
X12828569Y-13651050D01*
X12819046Y-13641526D01*
X12809522Y-13622479D01*
X12799998Y-13584383D01*
X12799998Y-13536764D01*
X12809522Y-13498669D01*
X12819046Y-13479621D01*
X12828569Y-13470098D01*
X12847617Y-13460574D01*
X12999998Y-13641526D02*
X13009522Y-13651050D01*
X12999998Y-13660574D01*
X12990474Y-13651050D01*
X12999998Y-13641526D01*
X12999998Y-13660574D01*
X13180950Y-13527240D02*
X13180950Y-13660574D01*
X13133331Y-13451050D02*
X13085712Y-13593907D01*
X13209522Y-13593907D01*
X13323808Y-13460574D02*
X13342855Y-13460574D01*
X13361903Y-13470098D01*
X13371427Y-13479621D01*
X13380950Y-13498669D01*
X13390474Y-13536764D01*
X13390474Y-13584383D01*
X13380950Y-13622479D01*
X13371427Y-13641526D01*
X13361903Y-13651050D01*
X13342855Y-13660574D01*
X13323808Y-13660574D01*
X13304760Y-13651050D01*
X13295236Y-13641526D01*
X13285712Y-13622479D01*
X13276189Y-13584383D01*
X13276189Y-13536764D01*
X13285712Y-13498669D01*
X13295236Y-13479621D01*
X13304760Y-13470098D01*
X13323808Y-13460574D01*
X13514284Y-13460574D02*
X13533331Y-13460574D01*
X13552379Y-13470098D01*
X13561903Y-13479621D01*
X13571427Y-13498669D01*
X13580950Y-13536764D01*
X13580950Y-13584383D01*
X13571427Y-13622479D01*
X13561903Y-13641526D01*
X13552379Y-13651050D01*
X13533331Y-13660574D01*
X13514284Y-13660574D01*
X13495236Y-13651050D01*
X13485712Y-13641526D01*
X13476189Y-13622479D01*
X13466665Y-13584383D01*
X13466665Y-13536764D01*
X13476189Y-13498669D01*
X13485712Y-13479621D01*
X13495236Y-13470098D01*
X13514284Y-13460574D01*
X13666665Y-13660574D02*
X13666665Y-13527240D01*
X13666665Y-13546288D02*
X13676189Y-13536764D01*
X13695236Y-13527240D01*
X13723808Y-13527240D01*
X13742855Y-13536764D01*
X13752379Y-13555812D01*
X13752379Y-13660574D01*
X13752379Y-13555812D02*
X13761903Y-13536764D01*
X13780950Y-13527240D01*
X13809522Y-13527240D01*
X13828569Y-13536764D01*
X13838093Y-13555812D01*
X13838093Y-13660574D01*
X13933331Y-13660574D02*
X13933331Y-13527240D01*
X13933331Y-13546288D02*
X13942855Y-13536764D01*
X13961903Y-13527240D01*
X13990474Y-13527240D01*
X14009522Y-13536764D01*
X14019046Y-13555812D01*
X14019046Y-13660574D01*
X14019046Y-13555812D02*
X14028569Y-13536764D01*
X14047617Y-13527240D01*
X14076189Y-13527240D01*
X14095236Y-13536764D01*
X14104760Y-13555812D01*
X14104760Y-13660574D01*
X14495236Y-13451050D02*
X14323808Y-13708193D01*
X14752379Y-13460574D02*
X14771427Y-13460574D01*
X14790474Y-13470098D01*
X14799998Y-13479621D01*
X14809522Y-13498669D01*
X14819046Y-13536764D01*
X14819046Y-13584383D01*
X14809522Y-13622479D01*
X14799998Y-13641526D01*
X14790474Y-13651050D01*
X14771427Y-13660574D01*
X14752379Y-13660574D01*
X14733331Y-13651050D01*
X14723808Y-13641526D01*
X14714284Y-13622479D01*
X14704760Y-13584383D01*
X14704760Y-13536764D01*
X14714284Y-13498669D01*
X14723808Y-13479621D01*
X14733331Y-13470098D01*
X14752379Y-13460574D01*
X14904760Y-13641526D02*
X14914284Y-13651050D01*
X14904760Y-13660574D01*
X14895236Y-13651050D01*
X14904760Y-13641526D01*
X14904760Y-13660574D01*
X15038093Y-13460574D02*
X15057141Y-13460574D01*
X15076189Y-13470098D01*
X15085712Y-13479621D01*
X15095236Y-13498669D01*
X15104760Y-13536764D01*
X15104760Y-13584383D01*
X15095236Y-13622479D01*
X15085712Y-13641526D01*
X15076189Y-13651050D01*
X15057141Y-13660574D01*
X15038093Y-13660574D01*
X15019046Y-13651050D01*
X15009522Y-13641526D01*
X14999998Y-13622479D01*
X14990474Y-13584383D01*
X14990474Y-13536764D01*
X14999998Y-13498669D01*
X15009522Y-13479621D01*
X15019046Y-13470098D01*
X15038093Y-13460574D01*
X15295236Y-13660574D02*
X15180950Y-13660574D01*
X15238093Y-13660574D02*
X15238093Y-13460574D01*
X15219046Y-13489145D01*
X15199998Y-13508193D01*
X15180950Y-13517717D01*
X15476189Y-13460574D02*
X15380950Y-13460574D01*
X15371427Y-13555812D01*
X15380950Y-13546288D01*
X15399998Y-13536764D01*
X15447617Y-13536764D01*
X15466665Y-13546288D01*
X15476189Y-13555812D01*
X15485712Y-13574860D01*
X15485712Y-13622479D01*
X15476189Y-13641526D01*
X15466665Y-13651050D01*
X15447617Y-13660574D01*
X15399998Y-13660574D01*
X15380950Y-13651050D01*
X15371427Y-13641526D01*
X15552379Y-13460574D02*
X15685712Y-13460574D01*
X15599998Y-13660574D01*
X15752379Y-13460574D02*
X15752379Y-13498669D01*
X15828569Y-13460574D02*
X15828569Y-13498669D01*
X16123808Y-13736764D02*
X16114284Y-13727240D01*
X16095236Y-13698669D01*
X16085712Y-13679621D01*
X16076189Y-13651050D01*
X16066665Y-13603431D01*
X16066665Y-13565336D01*
X16076189Y-13517717D01*
X16085712Y-13489145D01*
X16095236Y-13470098D01*
X16114284Y-13441526D01*
X16123808Y-13432002D01*
X16285712Y-13460574D02*
X16247617Y-13460574D01*
X16228569Y-13470098D01*
X16219046Y-13479621D01*
X16199998Y-13508193D01*
X16190474Y-13546288D01*
X16190474Y-13622479D01*
X16199998Y-13641526D01*
X16209522Y-13651050D01*
X16228569Y-13660574D01*
X16266665Y-13660574D01*
X16285712Y-13651050D01*
X16295236Y-13641526D01*
X16304760Y-13622479D01*
X16304760Y-13574860D01*
X16295236Y-13555812D01*
X16285712Y-13546288D01*
X16266665Y-13536764D01*
X16228569Y-13536764D01*
X16209522Y-13546288D01*
X16199998Y-13555812D01*
X16190474Y-13574860D01*
X16542855Y-13660574D02*
X16542855Y-13460574D01*
X16628569Y-13660574D02*
X16628569Y-13555812D01*
X16619046Y-13536764D01*
X16599998Y-13527240D01*
X16571427Y-13527240D01*
X16552379Y-13536764D01*
X16542855Y-13546288D01*
X16752379Y-13660574D02*
X16733331Y-13651050D01*
X16723808Y-13641526D01*
X16714284Y-13622479D01*
X16714284Y-13565336D01*
X16723808Y-13546288D01*
X16733331Y-13536764D01*
X16752379Y-13527240D01*
X16780951Y-13527240D01*
X16799998Y-13536764D01*
X16809522Y-13546288D01*
X16819046Y-13565336D01*
X16819046Y-13622479D01*
X16809522Y-13641526D01*
X16799998Y-13651050D01*
X16780951Y-13660574D01*
X16752379Y-13660574D01*
X16933331Y-13660574D02*
X16914284Y-13651050D01*
X16904760Y-13632002D01*
X16904760Y-13460574D01*
X17085712Y-13651050D02*
X17066665Y-13660574D01*
X17028570Y-13660574D01*
X17009522Y-13651050D01*
X16999998Y-13632002D01*
X16999998Y-13555812D01*
X17009522Y-13536764D01*
X17028570Y-13527240D01*
X17066665Y-13527240D01*
X17085712Y-13536764D01*
X17095236Y-13555812D01*
X17095236Y-13574860D01*
X16999998Y-13593907D01*
X17171427Y-13651050D02*
X17190474Y-13660574D01*
X17228570Y-13660574D01*
X17247617Y-13651050D01*
X17257141Y-13632002D01*
X17257141Y-13622479D01*
X17247617Y-13603431D01*
X17228570Y-13593907D01*
X17199998Y-13593907D01*
X17180951Y-13584383D01*
X17171427Y-13565336D01*
X17171427Y-13555812D01*
X17180951Y-13536764D01*
X17199998Y-13527240D01*
X17228570Y-13527240D01*
X17247617Y-13536764D01*
X17323808Y-13736764D02*
X17333331Y-13727240D01*
X17352379Y-13698669D01*
X17361903Y-13679621D01*
X17371427Y-13651050D01*
X17380951Y-13603431D01*
X17380951Y-13565336D01*
X17371427Y-13517717D01*
X17361903Y-13489145D01*
X17352379Y-13470098D01*
X17333331Y-13441526D01*
X17323808Y-13432002D01*
D13*
X12551903Y-13834098D02*
G75*
G03*
X12551903Y-13834098I-25000J0D01*
G01*
D11*
X12847617Y-13724574D02*
X12866665Y-13724574D01*
X12885712Y-13734098D01*
X12895236Y-13743621D01*
X12904760Y-13762669D01*
X12914284Y-13800764D01*
X12914284Y-13848383D01*
X12904760Y-13886479D01*
X12895236Y-13905526D01*
X12885712Y-13915050D01*
X12866665Y-13924574D01*
X12847617Y-13924574D01*
X12828569Y-13915050D01*
X12819046Y-13905526D01*
X12809522Y-13886479D01*
X12799998Y-13848383D01*
X12799998Y-13800764D01*
X12809522Y-13762669D01*
X12819046Y-13743621D01*
X12828569Y-13734098D01*
X12847617Y-13724574D01*
X12999998Y-13905526D02*
X13009522Y-13915050D01*
X12999998Y-13924574D01*
X12990474Y-13915050D01*
X12999998Y-13905526D01*
X12999998Y-13924574D01*
X13190474Y-13724574D02*
X13095236Y-13724574D01*
X13085712Y-13819812D01*
X13095236Y-13810288D01*
X13114284Y-13800764D01*
X13161903Y-13800764D01*
X13180950Y-13810288D01*
X13190474Y-13819812D01*
X13199998Y-13838860D01*
X13199998Y-13886479D01*
X13190474Y-13905526D01*
X13180950Y-13915050D01*
X13161903Y-13924574D01*
X13114284Y-13924574D01*
X13095236Y-13915050D01*
X13085712Y-13905526D01*
X13323808Y-13724574D02*
X13342855Y-13724574D01*
X13361903Y-13734098D01*
X13371427Y-13743621D01*
X13380950Y-13762669D01*
X13390474Y-13800764D01*
X13390474Y-13848383D01*
X13380950Y-13886479D01*
X13371427Y-13905526D01*
X13361903Y-13915050D01*
X13342855Y-13924574D01*
X13323808Y-13924574D01*
X13304760Y-13915050D01*
X13295236Y-13905526D01*
X13285712Y-13886479D01*
X13276189Y-13848383D01*
X13276189Y-13800764D01*
X13285712Y-13762669D01*
X13295236Y-13743621D01*
X13304760Y-13734098D01*
X13323808Y-13724574D01*
X13514284Y-13724574D02*
X13533331Y-13724574D01*
X13552379Y-13734098D01*
X13561903Y-13743621D01*
X13571427Y-13762669D01*
X13580950Y-13800764D01*
X13580950Y-13848383D01*
X13571427Y-13886479D01*
X13561903Y-13905526D01*
X13552379Y-13915050D01*
X13533331Y-13924574D01*
X13514284Y-13924574D01*
X13495236Y-13915050D01*
X13485712Y-13905526D01*
X13476189Y-13886479D01*
X13466665Y-13848383D01*
X13466665Y-13800764D01*
X13476189Y-13762669D01*
X13485712Y-13743621D01*
X13495236Y-13734098D01*
X13514284Y-13724574D01*
X13666665Y-13924574D02*
X13666665Y-13791240D01*
X13666665Y-13810288D02*
X13676189Y-13800764D01*
X13695236Y-13791240D01*
X13723808Y-13791240D01*
X13742855Y-13800764D01*
X13752379Y-13819812D01*
X13752379Y-13924574D01*
X13752379Y-13819812D02*
X13761903Y-13800764D01*
X13780950Y-13791240D01*
X13809522Y-13791240D01*
X13828569Y-13800764D01*
X13838093Y-13819812D01*
X13838093Y-13924574D01*
X13933331Y-13924574D02*
X13933331Y-13791240D01*
X13933331Y-13810288D02*
X13942855Y-13800764D01*
X13961903Y-13791240D01*
X13990474Y-13791240D01*
X14009522Y-13800764D01*
X14019046Y-13819812D01*
X14019046Y-13924574D01*
X14019046Y-13819812D02*
X14028569Y-13800764D01*
X14047617Y-13791240D01*
X14076189Y-13791240D01*
X14095236Y-13800764D01*
X14104760Y-13819812D01*
X14104760Y-13924574D01*
X14495236Y-13715050D02*
X14323808Y-13972193D01*
X14752379Y-13724574D02*
X14771427Y-13724574D01*
X14790474Y-13734098D01*
X14799998Y-13743621D01*
X14809522Y-13762669D01*
X14819046Y-13800764D01*
X14819046Y-13848383D01*
X14809522Y-13886479D01*
X14799998Y-13905526D01*
X14790474Y-13915050D01*
X14771427Y-13924574D01*
X14752379Y-13924574D01*
X14733331Y-13915050D01*
X14723808Y-13905526D01*
X14714284Y-13886479D01*
X14704760Y-13848383D01*
X14704760Y-13800764D01*
X14714284Y-13762669D01*
X14723808Y-13743621D01*
X14733331Y-13734098D01*
X14752379Y-13724574D01*
X14904760Y-13905526D02*
X14914284Y-13915050D01*
X14904760Y-13924574D01*
X14895236Y-13915050D01*
X14904760Y-13905526D01*
X14904760Y-13924574D01*
X15038093Y-13724574D02*
X15057141Y-13724574D01*
X15076189Y-13734098D01*
X15085712Y-13743621D01*
X15095236Y-13762669D01*
X15104760Y-13800764D01*
X15104760Y-13848383D01*
X15095236Y-13886479D01*
X15085712Y-13905526D01*
X15076189Y-13915050D01*
X15057141Y-13924574D01*
X15038093Y-13924574D01*
X15019046Y-13915050D01*
X15009522Y-13905526D01*
X14999998Y-13886479D01*
X14990474Y-13848383D01*
X14990474Y-13800764D01*
X14999998Y-13762669D01*
X15009522Y-13743621D01*
X15019046Y-13734098D01*
X15038093Y-13724574D01*
X15295236Y-13924574D02*
X15180950Y-13924574D01*
X15238093Y-13924574D02*
X15238093Y-13724574D01*
X15219046Y-13753145D01*
X15199998Y-13772193D01*
X15180950Y-13781717D01*
X15390474Y-13924574D02*
X15428569Y-13924574D01*
X15447617Y-13915050D01*
X15457141Y-13905526D01*
X15476189Y-13876955D01*
X15485712Y-13838860D01*
X15485712Y-13762669D01*
X15476189Y-13743621D01*
X15466665Y-13734098D01*
X15447617Y-13724574D01*
X15409522Y-13724574D01*
X15390474Y-13734098D01*
X15380950Y-13743621D01*
X15371427Y-13762669D01*
X15371427Y-13810288D01*
X15380950Y-13829336D01*
X15390474Y-13838860D01*
X15409522Y-13848383D01*
X15447617Y-13848383D01*
X15466665Y-13838860D01*
X15476189Y-13829336D01*
X15485712Y-13810288D01*
X15552379Y-13724574D02*
X15685712Y-13724574D01*
X15599998Y-13924574D01*
X15752379Y-13724574D02*
X15752379Y-13762669D01*
X15828569Y-13724574D02*
X15828569Y-13762669D01*
X16123808Y-14000764D02*
X16114284Y-13991240D01*
X16095236Y-13962669D01*
X16085712Y-13943621D01*
X16076189Y-13915050D01*
X16066665Y-13867431D01*
X16066665Y-13829336D01*
X16076189Y-13781717D01*
X16085712Y-13753145D01*
X16095236Y-13734098D01*
X16114284Y-13705526D01*
X16123808Y-13696002D01*
X16180950Y-13724574D02*
X16304760Y-13724574D01*
X16238093Y-13800764D01*
X16266665Y-13800764D01*
X16285712Y-13810288D01*
X16295236Y-13819812D01*
X16304760Y-13838860D01*
X16304760Y-13886479D01*
X16295236Y-13905526D01*
X16285712Y-13915050D01*
X16266665Y-13924574D01*
X16209522Y-13924574D01*
X16190474Y-13915050D01*
X16180950Y-13905526D01*
X16485712Y-13724574D02*
X16390474Y-13724574D01*
X16380950Y-13819812D01*
X16390474Y-13810288D01*
X16409522Y-13800764D01*
X16457141Y-13800764D01*
X16476189Y-13810288D01*
X16485712Y-13819812D01*
X16495236Y-13838860D01*
X16495236Y-13886479D01*
X16485712Y-13905526D01*
X16476189Y-13915050D01*
X16457141Y-13924574D01*
X16409522Y-13924574D01*
X16390474Y-13915050D01*
X16380950Y-13905526D01*
X16733331Y-13924574D02*
X16733331Y-13724574D01*
X16819046Y-13924574D02*
X16819046Y-13819812D01*
X16809522Y-13800764D01*
X16790474Y-13791240D01*
X16761903Y-13791240D01*
X16742855Y-13800764D01*
X16733331Y-13810288D01*
X16942855Y-13924574D02*
X16923808Y-13915050D01*
X16914284Y-13905526D01*
X16904760Y-13886479D01*
X16904760Y-13829336D01*
X16914284Y-13810288D01*
X16923808Y-13800764D01*
X16942855Y-13791240D01*
X16971427Y-13791240D01*
X16990474Y-13800764D01*
X16999998Y-13810288D01*
X17009522Y-13829336D01*
X17009522Y-13886479D01*
X16999998Y-13905526D01*
X16990474Y-13915050D01*
X16971427Y-13924574D01*
X16942855Y-13924574D01*
X17123808Y-13924574D02*
X17104760Y-13915050D01*
X17095236Y-13896002D01*
X17095236Y-13724574D01*
X17276189Y-13915050D02*
X17257141Y-13924574D01*
X17219046Y-13924574D01*
X17199998Y-13915050D01*
X17190474Y-13896002D01*
X17190474Y-13819812D01*
X17199998Y-13800764D01*
X17219046Y-13791240D01*
X17257141Y-13791240D01*
X17276189Y-13800764D01*
X17285712Y-13819812D01*
X17285712Y-13838860D01*
X17190474Y-13857907D01*
X17361903Y-13915050D02*
X17380951Y-13924574D01*
X17419046Y-13924574D01*
X17438093Y-13915050D01*
X17447617Y-13896002D01*
X17447617Y-13886479D01*
X17438093Y-13867431D01*
X17419046Y-13857907D01*
X17390474Y-13857907D01*
X17371427Y-13848383D01*
X17361903Y-13829336D01*
X17361903Y-13819812D01*
X17371427Y-13800764D01*
X17390474Y-13791240D01*
X17419046Y-13791240D01*
X17438093Y-13800764D01*
X17514284Y-14000764D02*
X17523808Y-13991240D01*
X17542855Y-13962669D01*
X17552379Y-13943621D01*
X17561903Y-13915050D01*
X17571427Y-13867431D01*
X17571427Y-13829336D01*
X17561903Y-13781717D01*
X17552379Y-13753145D01*
X17542855Y-13734098D01*
X17523808Y-13705526D01*
X17514284Y-13696002D01*
D14*
X12501903Y-14048098D02*
X12501903Y-14148098D01*
X12451903Y-14098098D02*
X12551903Y-14098098D01*
D11*
X12914284Y-14188574D02*
X12799998Y-14188574D01*
X12857141Y-14188574D02*
X12857141Y-13988574D01*
X12838093Y-14017145D01*
X12819046Y-14036193D01*
X12799998Y-14045717D01*
X12999998Y-14169526D02*
X13009522Y-14179050D01*
X12999998Y-14188574D01*
X12990474Y-14179050D01*
X12999998Y-14169526D01*
X12999998Y-14188574D01*
X13133331Y-13988574D02*
X13152379Y-13988574D01*
X13171427Y-13998098D01*
X13180950Y-14007621D01*
X13190474Y-14026669D01*
X13199998Y-14064764D01*
X13199998Y-14112383D01*
X13190474Y-14150479D01*
X13180950Y-14169526D01*
X13171427Y-14179050D01*
X13152379Y-14188574D01*
X13133331Y-14188574D01*
X13114284Y-14179050D01*
X13104760Y-14169526D01*
X13095236Y-14150479D01*
X13085712Y-14112383D01*
X13085712Y-14064764D01*
X13095236Y-14026669D01*
X13104760Y-14007621D01*
X13114284Y-13998098D01*
X13133331Y-13988574D01*
X13323808Y-13988574D02*
X13342855Y-13988574D01*
X13361903Y-13998098D01*
X13371427Y-14007621D01*
X13380950Y-14026669D01*
X13390474Y-14064764D01*
X13390474Y-14112383D01*
X13380950Y-14150479D01*
X13371427Y-14169526D01*
X13361903Y-14179050D01*
X13342855Y-14188574D01*
X13323808Y-14188574D01*
X13304760Y-14179050D01*
X13295236Y-14169526D01*
X13285712Y-14150479D01*
X13276189Y-14112383D01*
X13276189Y-14064764D01*
X13285712Y-14026669D01*
X13295236Y-14007621D01*
X13304760Y-13998098D01*
X13323808Y-13988574D01*
X13514284Y-13988574D02*
X13533331Y-13988574D01*
X13552379Y-13998098D01*
X13561903Y-14007621D01*
X13571427Y-14026669D01*
X13580950Y-14064764D01*
X13580950Y-14112383D01*
X13571427Y-14150479D01*
X13561903Y-14169526D01*
X13552379Y-14179050D01*
X13533331Y-14188574D01*
X13514284Y-14188574D01*
X13495236Y-14179050D01*
X13485712Y-14169526D01*
X13476189Y-14150479D01*
X13466665Y-14112383D01*
X13466665Y-14064764D01*
X13476189Y-14026669D01*
X13485712Y-14007621D01*
X13495236Y-13998098D01*
X13514284Y-13988574D01*
X13666665Y-14188574D02*
X13666665Y-14055240D01*
X13666665Y-14074288D02*
X13676189Y-14064764D01*
X13695236Y-14055240D01*
X13723808Y-14055240D01*
X13742855Y-14064764D01*
X13752379Y-14083812D01*
X13752379Y-14188574D01*
X13752379Y-14083812D02*
X13761903Y-14064764D01*
X13780950Y-14055240D01*
X13809522Y-14055240D01*
X13828569Y-14064764D01*
X13838093Y-14083812D01*
X13838093Y-14188574D01*
X13933331Y-14188574D02*
X13933331Y-14055240D01*
X13933331Y-14074288D02*
X13942855Y-14064764D01*
X13961903Y-14055240D01*
X13990474Y-14055240D01*
X14009522Y-14064764D01*
X14019046Y-14083812D01*
X14019046Y-14188574D01*
X14019046Y-14083812D02*
X14028569Y-14064764D01*
X14047617Y-14055240D01*
X14076189Y-14055240D01*
X14095236Y-14064764D01*
X14104760Y-14083812D01*
X14104760Y-14188574D01*
X14495236Y-13979050D02*
X14323808Y-14236193D01*
X14752379Y-13988574D02*
X14771427Y-13988574D01*
X14790474Y-13998098D01*
X14799998Y-14007621D01*
X14809522Y-14026669D01*
X14819046Y-14064764D01*
X14819046Y-14112383D01*
X14809522Y-14150479D01*
X14799998Y-14169526D01*
X14790474Y-14179050D01*
X14771427Y-14188574D01*
X14752379Y-14188574D01*
X14733331Y-14179050D01*
X14723808Y-14169526D01*
X14714284Y-14150479D01*
X14704760Y-14112383D01*
X14704760Y-14064764D01*
X14714284Y-14026669D01*
X14723808Y-14007621D01*
X14733331Y-13998098D01*
X14752379Y-13988574D01*
X14904760Y-14169526D02*
X14914284Y-14179050D01*
X14904760Y-14188574D01*
X14895236Y-14179050D01*
X14904760Y-14169526D01*
X14904760Y-14188574D01*
X15038093Y-13988574D02*
X15057141Y-13988574D01*
X15076189Y-13998098D01*
X15085712Y-14007621D01*
X15095236Y-14026669D01*
X15104760Y-14064764D01*
X15104760Y-14112383D01*
X15095236Y-14150479D01*
X15085712Y-14169526D01*
X15076189Y-14179050D01*
X15057141Y-14188574D01*
X15038093Y-14188574D01*
X15019046Y-14179050D01*
X15009522Y-14169526D01*
X14999998Y-14150479D01*
X14990474Y-14112383D01*
X14990474Y-14064764D01*
X14999998Y-14026669D01*
X15009522Y-14007621D01*
X15019046Y-13998098D01*
X15038093Y-13988574D01*
X15171427Y-13988574D02*
X15295236Y-13988574D01*
X15228569Y-14064764D01*
X15257141Y-14064764D01*
X15276189Y-14074288D01*
X15285712Y-14083812D01*
X15295236Y-14102860D01*
X15295236Y-14150479D01*
X15285712Y-14169526D01*
X15276189Y-14179050D01*
X15257141Y-14188574D01*
X15199998Y-14188574D01*
X15180950Y-14179050D01*
X15171427Y-14169526D01*
X15390474Y-14188574D02*
X15428569Y-14188574D01*
X15447617Y-14179050D01*
X15457141Y-14169526D01*
X15476189Y-14140955D01*
X15485712Y-14102860D01*
X15485712Y-14026669D01*
X15476189Y-14007621D01*
X15466665Y-13998098D01*
X15447617Y-13988574D01*
X15409522Y-13988574D01*
X15390474Y-13998098D01*
X15380950Y-14007621D01*
X15371427Y-14026669D01*
X15371427Y-14074288D01*
X15380950Y-14093336D01*
X15390474Y-14102860D01*
X15409522Y-14112383D01*
X15447617Y-14112383D01*
X15466665Y-14102860D01*
X15476189Y-14093336D01*
X15485712Y-14074288D01*
X15657141Y-14055240D02*
X15657141Y-14188574D01*
X15609522Y-13979050D02*
X15561903Y-14121907D01*
X15685712Y-14121907D01*
X15752379Y-13988574D02*
X15752379Y-14026669D01*
X15828569Y-13988574D02*
X15828569Y-14026669D01*
X16123808Y-14264764D02*
X16114284Y-14255240D01*
X16095236Y-14226669D01*
X16085712Y-14207621D01*
X16076189Y-14179050D01*
X16066665Y-14131431D01*
X16066665Y-14093336D01*
X16076189Y-14045717D01*
X16085712Y-14017145D01*
X16095236Y-13998098D01*
X16114284Y-13969526D01*
X16123808Y-13960002D01*
X16295236Y-13988574D02*
X16199998Y-13988574D01*
X16190474Y-14083812D01*
X16199998Y-14074288D01*
X16219046Y-14064764D01*
X16266665Y-14064764D01*
X16285712Y-14074288D01*
X16295236Y-14083812D01*
X16304760Y-14102860D01*
X16304760Y-14150479D01*
X16295236Y-14169526D01*
X16285712Y-14179050D01*
X16266665Y-14188574D01*
X16219046Y-14188574D01*
X16199998Y-14179050D01*
X16190474Y-14169526D01*
X16371427Y-13988574D02*
X16495236Y-13988574D01*
X16428569Y-14064764D01*
X16457141Y-14064764D01*
X16476189Y-14074288D01*
X16485712Y-14083812D01*
X16495236Y-14102860D01*
X16495236Y-14150479D01*
X16485712Y-14169526D01*
X16476189Y-14179050D01*
X16457141Y-14188574D01*
X16399998Y-14188574D01*
X16380950Y-14179050D01*
X16371427Y-14169526D01*
X16733331Y-14188574D02*
X16733331Y-13988574D01*
X16819046Y-14188574D02*
X16819046Y-14083812D01*
X16809522Y-14064764D01*
X16790474Y-14055240D01*
X16761903Y-14055240D01*
X16742855Y-14064764D01*
X16733331Y-14074288D01*
X16942855Y-14188574D02*
X16923808Y-14179050D01*
X16914284Y-14169526D01*
X16904760Y-14150479D01*
X16904760Y-14093336D01*
X16914284Y-14074288D01*
X16923808Y-14064764D01*
X16942855Y-14055240D01*
X16971427Y-14055240D01*
X16990474Y-14064764D01*
X16999998Y-14074288D01*
X17009522Y-14093336D01*
X17009522Y-14150479D01*
X16999998Y-14169526D01*
X16990474Y-14179050D01*
X16971427Y-14188574D01*
X16942855Y-14188574D01*
X17123808Y-14188574D02*
X17104760Y-14179050D01*
X17095236Y-14160002D01*
X17095236Y-13988574D01*
X17276189Y-14179050D02*
X17257141Y-14188574D01*
X17219046Y-14188574D01*
X17199998Y-14179050D01*
X17190474Y-14160002D01*
X17190474Y-14083812D01*
X17199998Y-14064764D01*
X17219046Y-14055240D01*
X17257141Y-14055240D01*
X17276189Y-14064764D01*
X17285712Y-14083812D01*
X17285712Y-14102860D01*
X17190474Y-14121907D01*
X17361903Y-14179050D02*
X17380951Y-14188574D01*
X17419046Y-14188574D01*
X17438093Y-14179050D01*
X17447617Y-14160002D01*
X17447617Y-14150479D01*
X17438093Y-14131431D01*
X17419046Y-14121907D01*
X17390474Y-14121907D01*
X17371427Y-14112383D01*
X17361903Y-14093336D01*
X17361903Y-14083812D01*
X17371427Y-14064764D01*
X17390474Y-14055240D01*
X17419046Y-14055240D01*
X17438093Y-14064764D01*
X17514284Y-14264764D02*
X17523808Y-14255240D01*
X17542855Y-14226669D01*
X17552379Y-14207621D01*
X17561903Y-14179050D01*
X17571427Y-14131431D01*
X17571427Y-14093336D01*
X17561903Y-14045717D01*
X17552379Y-14017145D01*
X17542855Y-13998098D01*
X17523808Y-13969526D01*
X17514284Y-13960002D01*
X12522614Y-14432809D02*
X12522614Y-14291386D01*
X12381191Y-14291386D01*
X12381191Y-14432809D01*
X12522614Y-14432809D01*
X12790474Y-14252574D02*
X12914284Y-14252574D01*
X12847617Y-14328764D01*
X12876189Y-14328764D01*
X12895236Y-14338288D01*
X12904760Y-14347812D01*
X12914284Y-14366860D01*
X12914284Y-14414479D01*
X12904760Y-14433526D01*
X12895236Y-14443050D01*
X12876189Y-14452574D01*
X12819046Y-14452574D01*
X12799998Y-14443050D01*
X12790474Y-14433526D01*
X12999998Y-14433526D02*
X13009522Y-14443050D01*
X12999998Y-14452574D01*
X12990474Y-14443050D01*
X12999998Y-14433526D01*
X12999998Y-14452574D01*
X13085712Y-14271621D02*
X13095236Y-14262098D01*
X13114284Y-14252574D01*
X13161903Y-14252574D01*
X13180950Y-14262098D01*
X13190474Y-14271621D01*
X13199998Y-14290669D01*
X13199998Y-14309717D01*
X13190474Y-14338288D01*
X13076189Y-14452574D01*
X13199998Y-14452574D01*
X13323808Y-14252574D02*
X13342855Y-14252574D01*
X13361903Y-14262098D01*
X13371427Y-14271621D01*
X13380950Y-14290669D01*
X13390474Y-14328764D01*
X13390474Y-14376383D01*
X13380950Y-14414479D01*
X13371427Y-14433526D01*
X13361903Y-14443050D01*
X13342855Y-14452574D01*
X13323808Y-14452574D01*
X13304760Y-14443050D01*
X13295236Y-14433526D01*
X13285712Y-14414479D01*
X13276189Y-14376383D01*
X13276189Y-14328764D01*
X13285712Y-14290669D01*
X13295236Y-14271621D01*
X13304760Y-14262098D01*
X13323808Y-14252574D01*
X13514284Y-14252574D02*
X13533331Y-14252574D01*
X13552379Y-14262098D01*
X13561903Y-14271621D01*
X13571427Y-14290669D01*
X13580950Y-14328764D01*
X13580950Y-14376383D01*
X13571427Y-14414479D01*
X13561903Y-14433526D01*
X13552379Y-14443050D01*
X13533331Y-14452574D01*
X13514284Y-14452574D01*
X13495236Y-14443050D01*
X13485712Y-14433526D01*
X13476189Y-14414479D01*
X13466665Y-14376383D01*
X13466665Y-14328764D01*
X13476189Y-14290669D01*
X13485712Y-14271621D01*
X13495236Y-14262098D01*
X13514284Y-14252574D01*
X13666665Y-14452574D02*
X13666665Y-14319240D01*
X13666665Y-14338288D02*
X13676189Y-14328764D01*
X13695236Y-14319240D01*
X13723808Y-14319240D01*
X13742855Y-14328764D01*
X13752379Y-14347812D01*
X13752379Y-14452574D01*
X13752379Y-14347812D02*
X13761903Y-14328764D01*
X13780950Y-14319240D01*
X13809522Y-14319240D01*
X13828569Y-14328764D01*
X13838093Y-14347812D01*
X13838093Y-14452574D01*
X13933331Y-14452574D02*
X13933331Y-14319240D01*
X13933331Y-14338288D02*
X13942855Y-14328764D01*
X13961903Y-14319240D01*
X13990474Y-14319240D01*
X14009522Y-14328764D01*
X14019046Y-14347812D01*
X14019046Y-14452574D01*
X14019046Y-14347812D02*
X14028569Y-14328764D01*
X14047617Y-14319240D01*
X14076189Y-14319240D01*
X14095236Y-14328764D01*
X14104760Y-14347812D01*
X14104760Y-14452574D01*
X14495236Y-14243050D02*
X14323808Y-14500193D01*
X14752379Y-14252574D02*
X14771427Y-14252574D01*
X14790474Y-14262098D01*
X14799998Y-14271621D01*
X14809522Y-14290669D01*
X14819046Y-14328764D01*
X14819046Y-14376383D01*
X14809522Y-14414479D01*
X14799998Y-14433526D01*
X14790474Y-14443050D01*
X14771427Y-14452574D01*
X14752379Y-14452574D01*
X14733331Y-14443050D01*
X14723808Y-14433526D01*
X14714284Y-14414479D01*
X14704760Y-14376383D01*
X14704760Y-14328764D01*
X14714284Y-14290669D01*
X14723808Y-14271621D01*
X14733331Y-14262098D01*
X14752379Y-14252574D01*
X14904760Y-14433526D02*
X14914284Y-14443050D01*
X14904760Y-14452574D01*
X14895236Y-14443050D01*
X14904760Y-14433526D01*
X14904760Y-14452574D01*
X15104760Y-14452574D02*
X14990474Y-14452574D01*
X15047617Y-14452574D02*
X15047617Y-14252574D01*
X15028569Y-14281145D01*
X15009522Y-14300193D01*
X14990474Y-14309717D01*
X15180950Y-14271621D02*
X15190474Y-14262098D01*
X15209522Y-14252574D01*
X15257141Y-14252574D01*
X15276189Y-14262098D01*
X15285712Y-14271621D01*
X15295236Y-14290669D01*
X15295236Y-14309717D01*
X15285712Y-14338288D01*
X15171427Y-14452574D01*
X15295236Y-14452574D01*
X15466665Y-14252574D02*
X15428569Y-14252574D01*
X15409522Y-14262098D01*
X15399998Y-14271621D01*
X15380950Y-14300193D01*
X15371427Y-14338288D01*
X15371427Y-14414479D01*
X15380950Y-14433526D01*
X15390474Y-14443050D01*
X15409522Y-14452574D01*
X15447617Y-14452574D01*
X15466665Y-14443050D01*
X15476189Y-14433526D01*
X15485712Y-14414479D01*
X15485712Y-14366860D01*
X15476189Y-14347812D01*
X15466665Y-14338288D01*
X15447617Y-14328764D01*
X15409522Y-14328764D01*
X15390474Y-14338288D01*
X15380950Y-14347812D01*
X15371427Y-14366860D01*
X15609522Y-14252574D02*
X15628569Y-14252574D01*
X15647617Y-14262098D01*
X15657141Y-14271621D01*
X15666665Y-14290669D01*
X15676189Y-14328764D01*
X15676189Y-14376383D01*
X15666665Y-14414479D01*
X15657141Y-14433526D01*
X15647617Y-14443050D01*
X15628569Y-14452574D01*
X15609522Y-14452574D01*
X15590474Y-14443050D01*
X15580950Y-14433526D01*
X15571427Y-14414479D01*
X15561903Y-14376383D01*
X15561903Y-14328764D01*
X15571427Y-14290669D01*
X15580950Y-14271621D01*
X15590474Y-14262098D01*
X15609522Y-14252574D01*
X15752379Y-14252574D02*
X15752379Y-14290669D01*
X15828569Y-14252574D02*
X15828569Y-14290669D01*
X16123808Y-14528764D02*
X16114284Y-14519240D01*
X16095236Y-14490669D01*
X16085712Y-14471621D01*
X16076189Y-14443050D01*
X16066665Y-14395431D01*
X16066665Y-14357336D01*
X16076189Y-14309717D01*
X16085712Y-14281145D01*
X16095236Y-14262098D01*
X16114284Y-14233526D01*
X16123808Y-14224002D01*
X16285712Y-14319240D02*
X16285712Y-14452574D01*
X16238093Y-14243050D02*
X16190474Y-14385907D01*
X16314284Y-14385907D01*
X16542855Y-14452574D02*
X16542855Y-14252574D01*
X16628569Y-14452574D02*
X16628569Y-14347812D01*
X16619046Y-14328764D01*
X16599998Y-14319240D01*
X16571427Y-14319240D01*
X16552379Y-14328764D01*
X16542855Y-14338288D01*
X16752379Y-14452574D02*
X16733331Y-14443050D01*
X16723808Y-14433526D01*
X16714284Y-14414479D01*
X16714284Y-14357336D01*
X16723808Y-14338288D01*
X16733331Y-14328764D01*
X16752379Y-14319240D01*
X16780951Y-14319240D01*
X16799998Y-14328764D01*
X16809522Y-14338288D01*
X16819046Y-14357336D01*
X16819046Y-14414479D01*
X16809522Y-14433526D01*
X16799998Y-14443050D01*
X16780951Y-14452574D01*
X16752379Y-14452574D01*
X16933331Y-14452574D02*
X16914284Y-14443050D01*
X16904760Y-14424002D01*
X16904760Y-14252574D01*
X17085712Y-14443050D02*
X17066665Y-14452574D01*
X17028570Y-14452574D01*
X17009522Y-14443050D01*
X16999998Y-14424002D01*
X16999998Y-14347812D01*
X17009522Y-14328764D01*
X17028570Y-14319240D01*
X17066665Y-14319240D01*
X17085712Y-14328764D01*
X17095236Y-14347812D01*
X17095236Y-14366860D01*
X16999998Y-14385907D01*
X17171427Y-14443050D02*
X17190474Y-14452574D01*
X17228570Y-14452574D01*
X17247617Y-14443050D01*
X17257141Y-14424002D01*
X17257141Y-14414479D01*
X17247617Y-14395431D01*
X17228570Y-14385907D01*
X17199998Y-14385907D01*
X17180951Y-14376383D01*
X17171427Y-14357336D01*
X17171427Y-14347812D01*
X17180951Y-14328764D01*
X17199998Y-14319240D01*
X17228570Y-14319240D01*
X17247617Y-14328764D01*
X17323808Y-14528764D02*
X17333331Y-14519240D01*
X17352379Y-14490669D01*
X17361903Y-14471621D01*
X17371427Y-14443050D01*
X17380951Y-14395431D01*
X17380951Y-14357336D01*
X17371427Y-14309717D01*
X17361903Y-14281145D01*
X17352379Y-14262098D01*
X17333331Y-14233526D01*
X17323808Y-14224002D01*
M02*
