M48
; DRILL file {KiCad 6.0.6-3a73a75311~116~ubuntu22.04.1} date Fri 24 Jun 2022 09:32:34 AM EDT
; FORMAT={-:-/ absolute / metric / decimal}
; #@! TF.CreationDate,2022-06-24T09:32:34-04:00
; #@! TF.GenerationSoftware,Kicad,Pcbnew,6.0.6-3a73a75311~116~ubuntu22.04.1
; #@! TF.FileFunction,Plated,1,2,PTH
FMAT,2
METRIC
; #@! TA.AperFunction,Plated,PTH,ViaDrill
T1C0.400
; #@! TA.AperFunction,Plated,PTH,ViaDrill
T2C0.500
; #@! TA.AperFunction,Plated,PTH,ComponentDrill
T3C1.000
; #@! TA.AperFunction,Plated,PTH,ComponentDrill
T4C3.200
%
G90
G05
T1
X151.223Y-117.313
X151.223Y-118.583
X151.223Y-119.853
X151.223Y-122.922
X151.249Y-121.923
X151.274Y-120.888
T2
X137.507Y-104.105
X137.761Y-79.721
X140.047Y-79.633
X140.834Y-74.285
X141.317Y-98.517
X141.825Y-109.566
X141.825Y-110.836
X141.825Y-112.106
X141.825Y-113.376
X141.825Y-114.646
X141.825Y-115.916
X141.825Y-117.186
X141.825Y-118.456
X141.952Y-86.452
X141.952Y-87.849
X141.952Y-89.246
X141.952Y-90.516
X141.952Y-91.786
X141.952Y-93.056
X141.952Y-94.326
X141.952Y-95.596
X142.324Y-80.151
X143.095Y-102.581
X144.873Y-98.517
X147.159Y-82.769
X152.239Y-84.547
X152.239Y-86.071
X152.239Y-87.595
X152.239Y-89.119
X152.239Y-90.643
X152.239Y-92.167
X152.239Y-93.691
X152.239Y-95.215
X152.747Y-102.708
X153.915Y-77.918
T3
X129.379Y-78.451
X129.379Y-80.991
X129.379Y-83.531
X129.379Y-86.071
X129.379Y-88.611
X129.379Y-91.151
X129.379Y-93.691
X129.379Y-101.311
X129.379Y-103.851
X129.379Y-106.391
X129.379Y-111.471
X129.379Y-114.011
X129.379Y-116.551
X162.399Y-73.371
X162.399Y-75.911
X162.399Y-78.451
X162.399Y-80.991
X162.399Y-83.531
X162.399Y-86.071
X162.399Y-88.611
X162.399Y-91.151
X162.399Y-93.691
X162.399Y-96.231
X162.399Y-98.771
X162.399Y-101.311
X162.399Y-103.851
X162.399Y-106.391
X162.399Y-108.931
X162.399Y-111.471
X162.399Y-114.011
X162.399Y-116.551
X162.399Y-119.091
X162.399Y-121.631
X164.939Y-73.371
X164.939Y-75.911
X164.939Y-78.451
X164.939Y-80.991
X164.939Y-83.531
X164.939Y-86.071
X164.939Y-88.611
X164.939Y-91.151
X164.939Y-93.691
X164.939Y-96.231
X164.939Y-98.771
X164.939Y-101.311
X164.939Y-103.851
X164.939Y-106.391
X164.939Y-108.931
X164.939Y-111.471
X164.939Y-114.011
X164.939Y-116.551
X164.939Y-119.091
X164.939Y-121.631
T4
X129.379Y-68.291
X129.379Y-125.441
X173.829Y-68.291
X173.829Y-125.441
T0
M30
