G04 #@! TF.GenerationSoftware,KiCad,Pcbnew,6.0.6-3a73a75311~116~ubuntu22.04.1*
G04 #@! TF.CreationDate,2022-06-24T09:32:34-04:00*
G04 #@! TF.ProjectId,led_breakout,6c65645f-6272-4656-916b-6f75742e6b69,0*
G04 #@! TF.SameCoordinates,Original*
G04 #@! TF.FileFunction,Copper,L2,Bot*
G04 #@! TF.FilePolarity,Positive*
%FSLAX46Y46*%
G04 Gerber Fmt 4.6, Leading zero omitted, Abs format (unit mm)*
G04 Created by KiCad (PCBNEW 6.0.6-3a73a75311~116~ubuntu22.04.1) date 2022-06-24 09:32:34*
%MOMM*%
%LPD*%
G01*
G04 APERTURE LIST*
G04 #@! TA.AperFunction,ComponentPad*
%ADD10C,5.600000*%
G04 #@! TD*
G04 #@! TA.AperFunction,ComponentPad*
%ADD11R,1.700000X1.700000*%
G04 #@! TD*
G04 #@! TA.AperFunction,ComponentPad*
%ADD12O,1.700000X1.700000*%
G04 #@! TD*
G04 #@! TA.AperFunction,ViaPad*
%ADD13C,1.000000*%
G04 #@! TD*
G04 #@! TA.AperFunction,ViaPad*
%ADD14C,0.800000*%
G04 #@! TD*
G04 #@! TA.AperFunction,Conductor*
%ADD15C,0.300000*%
G04 #@! TD*
G04 APERTURE END LIST*
D10*
X129379032Y-125440979D03*
D11*
X162399032Y-73370979D03*
D12*
X164939032Y-73370979D03*
X162399032Y-75910979D03*
X164939032Y-75910979D03*
X162399032Y-78450979D03*
X164939032Y-78450979D03*
X162399032Y-80990979D03*
X164939032Y-80990979D03*
X162399032Y-83530979D03*
X164939032Y-83530979D03*
X162399032Y-86070979D03*
X164939032Y-86070979D03*
X162399032Y-88610979D03*
X164939032Y-88610979D03*
X162399032Y-91150979D03*
X164939032Y-91150979D03*
X162399032Y-93690979D03*
X164939032Y-93690979D03*
X162399032Y-96230979D03*
X164939032Y-96230979D03*
X162399032Y-98770979D03*
X164939032Y-98770979D03*
X162399032Y-101310979D03*
X164939032Y-101310979D03*
X162399032Y-103850979D03*
X164939032Y-103850979D03*
X162399032Y-106390979D03*
X164939032Y-106390979D03*
X162399032Y-108930979D03*
X164939032Y-108930979D03*
X162399032Y-111470979D03*
X164939032Y-111470979D03*
X162399032Y-114010979D03*
X164939032Y-114010979D03*
X162399032Y-116550979D03*
X164939032Y-116550979D03*
X162399032Y-119090979D03*
X164939032Y-119090979D03*
X162399032Y-121630979D03*
X164939032Y-121630979D03*
D10*
X173829032Y-68290979D03*
D11*
X129379032Y-78450979D03*
D12*
X129379032Y-80990979D03*
X129379032Y-83530979D03*
X129379032Y-86070979D03*
X129379032Y-88610979D03*
X129379032Y-91150979D03*
X129379032Y-93690979D03*
D10*
X173829032Y-125440979D03*
D11*
X129379032Y-101310979D03*
D12*
X129379032Y-103850979D03*
X129379032Y-106390979D03*
D11*
X129379032Y-111470979D03*
D12*
X129379032Y-114010979D03*
X129379032Y-116550979D03*
D10*
X129379032Y-68290979D03*
D13*
X152239032Y-84546979D03*
X141952032Y-86451979D03*
X141952032Y-87848979D03*
X152239032Y-86070979D03*
X141952032Y-89245979D03*
X152239032Y-87594979D03*
X141952032Y-90515979D03*
X152239032Y-89118979D03*
X141952032Y-91785979D03*
X152239032Y-90642979D03*
X141952032Y-93055979D03*
X152239032Y-92166979D03*
X141952032Y-94325979D03*
X152239032Y-93690979D03*
X141952032Y-95595979D03*
X152239032Y-95214979D03*
X141825032Y-109565979D03*
X141825032Y-110835979D03*
X141825032Y-112105979D03*
X141825032Y-113375979D03*
X141825032Y-114645979D03*
X141825032Y-115915979D03*
X141825032Y-117185979D03*
X141825032Y-118455979D03*
D14*
X151223032Y-117312979D03*
X151223032Y-118582979D03*
X151223032Y-119852979D03*
X151274122Y-120887587D03*
X151249394Y-121922813D03*
X151223032Y-122921968D03*
D13*
X143095032Y-102580979D03*
X137507032Y-104104979D03*
X153915432Y-77917579D03*
X140047032Y-79633479D03*
X142323594Y-80150917D03*
X140834432Y-74285379D03*
X152747032Y-102707979D03*
X141317032Y-98516979D03*
X144873032Y-98516979D03*
X147159032Y-82768979D03*
X137761032Y-79720979D03*
D15*
X152239032Y-84673979D02*
X152239032Y-84546979D01*
X150461032Y-86451979D02*
X152239032Y-84673979D01*
X141952032Y-86451979D02*
X150461032Y-86451979D01*
X141952032Y-87848979D02*
X150461032Y-87848979D01*
X150461032Y-87848979D02*
X152239032Y-86070979D01*
X150588032Y-89245979D02*
X152239032Y-87594979D01*
X141952032Y-89245979D02*
X150588032Y-89245979D01*
X150842032Y-90515979D02*
X152239032Y-89118979D01*
X141952032Y-90515979D02*
X150842032Y-90515979D01*
X151096032Y-91785979D02*
X152239032Y-90642979D01*
X141952032Y-91785979D02*
X151096032Y-91785979D01*
X151350032Y-93055979D02*
X152239032Y-92166979D01*
X141952032Y-93055979D02*
X151350032Y-93055979D01*
X141952032Y-94325979D02*
X151604032Y-94325979D01*
X151604032Y-94325979D02*
X152239032Y-93690979D01*
X141952032Y-95595979D02*
X151858032Y-95595979D01*
X151858032Y-95595979D02*
X152239032Y-95214979D01*
X147929120Y-109565979D02*
X154271032Y-103224067D01*
X163669032Y-77180979D02*
X164939032Y-75910979D01*
X160621032Y-77180979D02*
X163669032Y-77180979D01*
X154271032Y-103224067D02*
X154271032Y-83530979D01*
X154271032Y-83530979D02*
X160621032Y-77180979D01*
X141825032Y-109565979D02*
X147929120Y-109565979D01*
X160621032Y-79720979D02*
X163669032Y-79720979D01*
X154779032Y-85562979D02*
X160621032Y-79720979D01*
X147365536Y-110835979D02*
X154779032Y-103422483D01*
X154779032Y-103422483D02*
X154779032Y-85562979D01*
X141825032Y-110835979D02*
X147365536Y-110835979D01*
X163669032Y-79720979D02*
X164939032Y-78450979D01*
X155287032Y-87594979D02*
X160621032Y-82260979D01*
X155295521Y-103612410D02*
X155295521Y-95903834D01*
X141825032Y-112105979D02*
X146801952Y-112105979D01*
X146801952Y-112105979D02*
X155295521Y-103612410D01*
X163669032Y-82260979D02*
X164939032Y-80990979D01*
X155295521Y-95903834D02*
X155287032Y-95895345D01*
X155287032Y-95895345D02*
X155287032Y-87594979D01*
X160621032Y-82260979D02*
X163669032Y-82260979D01*
X146238368Y-113375979D02*
X155795032Y-103819315D01*
X155795032Y-103819315D02*
X155795032Y-89626979D01*
X160621032Y-84800979D02*
X163669032Y-84800979D01*
X163669032Y-84800979D02*
X164939032Y-83530979D01*
X155795032Y-89626979D02*
X160621032Y-84800979D01*
X141825032Y-113375979D02*
X146238368Y-113375979D01*
X163669032Y-87340979D02*
X164939032Y-86070979D01*
X145674784Y-114645979D02*
X156303032Y-104017731D01*
X160621032Y-87340979D02*
X163669032Y-87340979D01*
X141825032Y-114645979D02*
X145674784Y-114645979D01*
X156303032Y-104017731D02*
X156303032Y-91658979D01*
X156303032Y-91658979D02*
X160621032Y-87340979D01*
X156811032Y-104216147D02*
X156811032Y-93690979D01*
X145111200Y-115915979D02*
X156811032Y-104216147D01*
X156811032Y-93690979D02*
X160621032Y-89880979D01*
X160621032Y-89880979D02*
X163669032Y-89880979D01*
X163669032Y-89880979D02*
X164939032Y-88610979D01*
X141825032Y-115915979D02*
X145111200Y-115915979D01*
X144547616Y-117185979D02*
X157319032Y-104414563D01*
X157319032Y-95722979D02*
X160550543Y-92491468D01*
X163598543Y-92491468D02*
X164939032Y-91150979D01*
X157319032Y-104414563D02*
X157319032Y-95722979D01*
X141825032Y-117185979D02*
X144547616Y-117185979D01*
X160550543Y-92491468D02*
X163598543Y-92491468D01*
X163669032Y-94960979D02*
X164939032Y-93690979D01*
X157827032Y-97754979D02*
X160621032Y-94960979D01*
X141825032Y-118455979D02*
X143984032Y-118455979D01*
X143984032Y-118455979D02*
X157827032Y-104612979D01*
X157827032Y-104612979D02*
X157827032Y-97754979D01*
X160621032Y-94960979D02*
X163669032Y-94960979D01*
X159859032Y-104612979D02*
X161891032Y-102580979D01*
X152239032Y-117312979D02*
X159859032Y-109692979D01*
X163669032Y-102580979D02*
X164939032Y-101310979D01*
X161891032Y-102580979D02*
X163669032Y-102580979D01*
X159859032Y-109692979D02*
X159859032Y-104612979D01*
X151223032Y-117312979D02*
X152239032Y-117312979D01*
X151477032Y-118582979D02*
X151993521Y-118066490D01*
X161566543Y-105191468D02*
X163598543Y-105191468D01*
X160367032Y-109946979D02*
X160367032Y-106390979D01*
X151223032Y-118582979D02*
X151477032Y-118582979D01*
X163598543Y-105191468D02*
X164939032Y-103850979D01*
X160367032Y-106390979D02*
X161566543Y-105191468D01*
X151993521Y-118066490D02*
X152247521Y-118066490D01*
X152247521Y-118066490D02*
X160367032Y-109946979D01*
X151223032Y-119852979D02*
X160875032Y-110200979D01*
X163669032Y-107660979D02*
X164939032Y-106390979D01*
X160875032Y-110200979D02*
X160875032Y-108168979D01*
X160875032Y-108168979D02*
X161383032Y-107660979D01*
X161383032Y-107660979D02*
X163669032Y-107660979D01*
X163669032Y-110200979D02*
X161637032Y-110200979D01*
X153001032Y-118836979D02*
X153001032Y-119160677D01*
X153001032Y-119160677D02*
X151274122Y-120887587D01*
X161637032Y-110200979D02*
X153001032Y-118836979D01*
X164939032Y-108930979D02*
X163669032Y-110200979D01*
X160875032Y-112740979D02*
X151693198Y-121922813D01*
X151693198Y-121922813D02*
X151249394Y-121922813D01*
X164939032Y-111470979D02*
X163669032Y-112740979D01*
X163669032Y-112740979D02*
X160875032Y-112740979D01*
X164939032Y-114010979D02*
X163669032Y-115280979D01*
X159605032Y-115280979D02*
X151964043Y-122921968D01*
X163669032Y-115280979D02*
X159605032Y-115280979D01*
X151964043Y-122921968D02*
X151223032Y-122921968D01*
X127177721Y-88272290D02*
X129379032Y-86070979D01*
X127177721Y-114349668D02*
X127177721Y-88272290D01*
X129379032Y-116550979D02*
X127177721Y-114349668D01*
X141317032Y-98516979D02*
X144873032Y-98516979D01*
X139285032Y-78196979D02*
X142587032Y-78196979D01*
X137761032Y-79720979D02*
X139285032Y-78196979D01*
X142587032Y-78196979D02*
X147159032Y-82768979D01*
X127677232Y-109769179D02*
X127677232Y-90312779D01*
X129379032Y-111470979D02*
X127677232Y-109769179D01*
X127677232Y-90312779D02*
X129379032Y-88610979D01*
G04 #@! TA.AperFunction,Conductor*
G36*
X172513917Y-64989480D02*
G01*
X172582038Y-65009482D01*
X172628531Y-65063138D01*
X172638635Y-65133412D01*
X172609141Y-65197992D01*
X172566568Y-65229952D01*
X172283726Y-65360045D01*
X172280792Y-65361801D01*
X172280790Y-65361802D01*
X172252830Y-65378536D01*
X171976225Y-65544080D01*
X171973499Y-65546142D01*
X171973497Y-65546143D01*
X171788931Y-65685730D01*
X171690399Y-65760249D01*
X171429591Y-66006022D01*
X171427379Y-66008612D01*
X171427377Y-66008614D01*
X171421781Y-66015166D01*
X171196851Y-66278525D01*
X171194932Y-66281337D01*
X171194929Y-66281342D01*
X171138536Y-66364012D01*
X170994903Y-66574570D01*
X170826109Y-66890693D01*
X170692443Y-67223197D01*
X170691523Y-67226471D01*
X170691521Y-67226476D01*
X170615590Y-67496610D01*
X170595469Y-67568192D01*
X170536322Y-67921642D01*
X170515693Y-68279413D01*
X170515865Y-68282808D01*
X170515865Y-68282809D01*
X170518443Y-68333700D01*
X170533824Y-68637319D01*
X170534361Y-68640674D01*
X170534362Y-68640680D01*
X170539348Y-68671807D01*
X170590502Y-68991174D01*
X170685065Y-69336838D01*
X170816406Y-69670267D01*
X170982989Y-69987561D01*
X170984890Y-69990390D01*
X170984896Y-69990400D01*
X171168601Y-70263779D01*
X171182866Y-70285008D01*
X171413697Y-70559129D01*
X171672783Y-70806717D01*
X171957093Y-71024876D01*
X171989088Y-71044329D01*
X172260387Y-71209282D01*
X172260392Y-71209285D01*
X172263302Y-71211054D01*
X172266390Y-71212500D01*
X172266389Y-71212500D01*
X172584742Y-71361628D01*
X172584752Y-71361632D01*
X172587826Y-71363072D01*
X172591044Y-71364174D01*
X172591047Y-71364175D01*
X172923647Y-71478050D01*
X172923655Y-71478052D01*
X172926870Y-71479153D01*
X173276467Y-71557938D01*
X173328760Y-71563896D01*
X173629146Y-71598121D01*
X173629154Y-71598121D01*
X173632529Y-71598506D01*
X173635933Y-71598524D01*
X173635936Y-71598524D01*
X173830259Y-71599541D01*
X173990889Y-71600382D01*
X173994275Y-71600032D01*
X173994277Y-71600032D01*
X174343964Y-71563896D01*
X174343973Y-71563895D01*
X174347356Y-71563545D01*
X174350689Y-71562831D01*
X174350692Y-71562830D01*
X174523218Y-71525843D01*
X174697759Y-71488425D01*
X175038000Y-71375901D01*
X175364098Y-71227290D01*
X175458084Y-71171485D01*
X175669294Y-71046078D01*
X175669299Y-71046075D01*
X175672239Y-71044329D01*
X175958818Y-70829159D01*
X176220483Y-70584298D01*
X176454172Y-70312609D01*
X176560782Y-70157491D01*
X176655222Y-70020080D01*
X176655227Y-70020073D01*
X176657152Y-70017271D01*
X176658764Y-70014277D01*
X176658769Y-70014269D01*
X176825427Y-69704751D01*
X176827049Y-69701739D01*
X176887789Y-69552154D01*
X176931950Y-69496563D01*
X176999156Y-69473673D01*
X177068068Y-69490750D01*
X177116808Y-69542373D01*
X177130532Y-69599558D01*
X177130531Y-78706288D01*
X177130529Y-124131831D01*
X177110527Y-124199952D01*
X177056871Y-124246445D01*
X176986597Y-124256549D01*
X176922017Y-124227055D01*
X176887458Y-124178419D01*
X176838084Y-124054348D01*
X176836825Y-124051184D01*
X176719962Y-123830468D01*
X176670734Y-123737492D01*
X176670730Y-123737485D01*
X176669135Y-123734473D01*
X176468222Y-123437725D01*
X176456789Y-123424243D01*
X176340601Y-123287239D01*
X176236435Y-123164411D01*
X175976486Y-122917729D01*
X175691416Y-122700564D01*
X175688504Y-122698807D01*
X175688499Y-122698804D01*
X175387475Y-122517215D01*
X175387469Y-122517212D01*
X175384560Y-122515457D01*
X175059507Y-122364572D01*
X174869008Y-122300092D01*
X174723287Y-122250768D01*
X174723282Y-122250767D01*
X174720060Y-122249676D01*
X174521713Y-122205703D01*
X174373525Y-122172850D01*
X174373519Y-122172849D01*
X174370190Y-122172111D01*
X174366801Y-122171737D01*
X174366796Y-122171736D01*
X174017370Y-122133159D01*
X174017365Y-122133159D01*
X174013989Y-122132786D01*
X174010590Y-122132780D01*
X174010589Y-122132780D01*
X173841112Y-122132484D01*
X173655624Y-122132161D01*
X173542445Y-122144256D01*
X173302671Y-122169880D01*
X173302663Y-122169881D01*
X173299288Y-122170242D01*
X172949149Y-122246585D01*
X172609303Y-122360296D01*
X172606210Y-122361718D01*
X172606209Y-122361719D01*
X172424122Y-122445470D01*
X172283726Y-122510045D01*
X171976225Y-122694080D01*
X171973499Y-122696142D01*
X171973497Y-122696143D01*
X171702404Y-122901170D01*
X171690399Y-122910249D01*
X171687914Y-122912591D01*
X171687909Y-122912595D01*
X171635088Y-122962371D01*
X171429591Y-123156022D01*
X171196851Y-123428525D01*
X171194932Y-123431337D01*
X171194929Y-123431342D01*
X171105846Y-123561933D01*
X170994903Y-123724570D01*
X170826109Y-124040693D01*
X170692443Y-124373197D01*
X170691523Y-124376471D01*
X170691521Y-124376476D01*
X170689364Y-124384152D01*
X170595469Y-124718192D01*
X170536322Y-125071642D01*
X170515693Y-125429413D01*
X170533824Y-125787319D01*
X170534361Y-125790674D01*
X170534362Y-125790680D01*
X170539348Y-125821807D01*
X170590502Y-126141174D01*
X170685065Y-126486838D01*
X170816406Y-126820267D01*
X170847183Y-126878888D01*
X170912169Y-127002668D01*
X170982989Y-127137561D01*
X170984890Y-127140390D01*
X170984896Y-127140400D01*
X171137810Y-127367958D01*
X171182866Y-127435008D01*
X171413697Y-127709129D01*
X171672783Y-127956717D01*
X171957093Y-128174876D01*
X171989088Y-128194329D01*
X172260387Y-128359282D01*
X172260392Y-128359285D01*
X172263302Y-128361054D01*
X172266390Y-128362500D01*
X172266389Y-128362500D01*
X172564990Y-128502375D01*
X172618193Y-128549385D01*
X172637535Y-128617696D01*
X172616875Y-128685620D01*
X172562772Y-128731592D01*
X172511541Y-128742477D01*
X151676676Y-128742477D01*
X130693090Y-128742476D01*
X130624969Y-128722474D01*
X130578476Y-128668818D01*
X130568372Y-128598544D01*
X130597866Y-128533964D01*
X130640839Y-128501821D01*
X130910986Y-128378708D01*
X130914098Y-128377290D01*
X131008084Y-128321485D01*
X131219294Y-128196078D01*
X131219299Y-128196075D01*
X131222239Y-128194329D01*
X131508818Y-127979159D01*
X131770483Y-127734298D01*
X132004172Y-127462609D01*
X132110782Y-127307491D01*
X132205222Y-127170080D01*
X132205227Y-127170073D01*
X132207152Y-127167271D01*
X132208764Y-127164277D01*
X132208769Y-127164269D01*
X132375427Y-126854751D01*
X132377049Y-126851739D01*
X132511874Y-126519703D01*
X132522174Y-126483547D01*
X132592874Y-126235351D01*
X132610052Y-126175049D01*
X132670433Y-125821807D01*
X132672543Y-125787319D01*
X132692200Y-125465907D01*
X132692310Y-125464110D01*
X132692391Y-125440979D01*
X132673011Y-125083138D01*
X132615098Y-124729484D01*
X132519329Y-124384152D01*
X132516275Y-124376476D01*
X132388084Y-124054348D01*
X132386825Y-124051184D01*
X132269962Y-123830468D01*
X132220734Y-123737492D01*
X132220730Y-123737485D01*
X132219135Y-123734473D01*
X132018222Y-123437725D01*
X132006789Y-123424243D01*
X131890601Y-123287239D01*
X131786435Y-123164411D01*
X131530953Y-122921968D01*
X150309528Y-122921968D01*
X150329490Y-123111896D01*
X150388505Y-123293524D01*
X150483992Y-123458912D01*
X150488410Y-123463819D01*
X150488411Y-123463820D01*
X150607357Y-123595923D01*
X150611779Y-123600834D01*
X150766280Y-123713086D01*
X150772308Y-123715770D01*
X150772310Y-123715771D01*
X150934713Y-123788077D01*
X150940744Y-123790762D01*
X151034144Y-123810615D01*
X151121088Y-123829096D01*
X151121093Y-123829096D01*
X151127545Y-123830468D01*
X151318519Y-123830468D01*
X151324971Y-123829096D01*
X151324976Y-123829096D01*
X151411920Y-123810615D01*
X151505320Y-123790762D01*
X151511351Y-123788077D01*
X151673754Y-123715771D01*
X151673756Y-123715770D01*
X151679784Y-123713086D01*
X151826746Y-123606311D01*
X151893615Y-123582452D01*
X151900819Y-123582586D01*
X151901580Y-123582756D01*
X151904699Y-123582658D01*
X151972412Y-123580530D01*
X151976370Y-123580468D01*
X152005475Y-123580468D01*
X152009875Y-123579912D01*
X152021707Y-123578980D01*
X152067874Y-123577530D01*
X152088464Y-123571548D01*
X152107825Y-123567538D01*
X152114813Y-123566656D01*
X152121247Y-123565843D01*
X152121248Y-123565843D01*
X152129107Y-123564850D01*
X152136472Y-123561934D01*
X152136476Y-123561933D01*
X152172064Y-123547842D01*
X152183274Y-123544003D01*
X152227643Y-123531113D01*
X152246108Y-123520193D01*
X152263848Y-123511502D01*
X152283799Y-123503603D01*
X152321172Y-123476450D01*
X152331091Y-123469935D01*
X152364020Y-123450461D01*
X152364024Y-123450458D01*
X152370850Y-123446421D01*
X152386014Y-123431257D01*
X152401048Y-123418416D01*
X152411986Y-123410469D01*
X152418400Y-123405809D01*
X152447846Y-123370215D01*
X152455835Y-123361436D01*
X153918326Y-121898945D01*
X161067289Y-121898945D01*
X161097597Y-122033425D01*
X161100677Y-122043254D01*
X161180802Y-122240582D01*
X161185445Y-122249773D01*
X161296726Y-122431367D01*
X161302809Y-122439678D01*
X161442245Y-122600646D01*
X161449612Y-122607862D01*
X161613466Y-122743895D01*
X161621913Y-122749810D01*
X161805788Y-122857258D01*
X161815074Y-122861708D01*
X162014033Y-122937682D01*
X162023931Y-122940558D01*
X162127282Y-122961585D01*
X162141331Y-122960389D01*
X162145032Y-122950044D01*
X162145032Y-122949496D01*
X162653032Y-122949496D01*
X162657096Y-122963338D01*
X162670510Y-122965372D01*
X162677216Y-122964513D01*
X162687294Y-122962371D01*
X162891287Y-122901170D01*
X162900874Y-122897412D01*
X163092127Y-122803718D01*
X163100977Y-122798443D01*
X163274360Y-122674771D01*
X163282232Y-122668118D01*
X163433084Y-122517791D01*
X163439762Y-122509944D01*
X163567054Y-122332798D01*
X163568179Y-122333606D01*
X163615701Y-122289855D01*
X163685639Y-122277640D01*
X163751078Y-122305176D01*
X163778902Y-122337007D01*
X163836722Y-122431362D01*
X163842809Y-122439678D01*
X163982245Y-122600646D01*
X163989612Y-122607862D01*
X164153466Y-122743895D01*
X164161913Y-122749810D01*
X164345788Y-122857258D01*
X164355074Y-122861708D01*
X164554033Y-122937682D01*
X164563931Y-122940558D01*
X164667282Y-122961585D01*
X164681331Y-122960389D01*
X164685032Y-122950044D01*
X164685032Y-122949496D01*
X165193032Y-122949496D01*
X165197096Y-122963338D01*
X165210510Y-122965372D01*
X165217216Y-122964513D01*
X165227294Y-122962371D01*
X165431287Y-122901170D01*
X165440874Y-122897412D01*
X165632127Y-122803718D01*
X165640977Y-122798443D01*
X165814360Y-122674771D01*
X165822232Y-122668118D01*
X165973084Y-122517791D01*
X165979762Y-122509944D01*
X166104035Y-122336999D01*
X166109345Y-122328162D01*
X166203702Y-122137246D01*
X166207501Y-122127651D01*
X166269409Y-121923889D01*
X166271587Y-121913816D01*
X166273018Y-121902941D01*
X166270807Y-121888757D01*
X166257649Y-121884979D01*
X165211147Y-121884979D01*
X165195908Y-121889454D01*
X165194703Y-121890844D01*
X165193032Y-121898527D01*
X165193032Y-122949496D01*
X164685032Y-122949496D01*
X164685032Y-121903094D01*
X164680557Y-121887855D01*
X164679167Y-121886650D01*
X164671484Y-121884979D01*
X162671147Y-121884979D01*
X162655908Y-121889454D01*
X162654703Y-121890844D01*
X162653032Y-121898527D01*
X162653032Y-122949496D01*
X162145032Y-122949496D01*
X162145032Y-121903094D01*
X162140557Y-121887855D01*
X162139167Y-121886650D01*
X162131484Y-121884979D01*
X161082257Y-121884979D01*
X161068726Y-121888952D01*
X161067289Y-121898945D01*
X153918326Y-121898945D01*
X156147657Y-119669614D01*
X159840886Y-115976384D01*
X159903198Y-115942358D01*
X159929981Y-115939479D01*
X160993071Y-115939479D01*
X161061192Y-115959481D01*
X161107685Y-116013137D01*
X161117789Y-116083411D01*
X161114490Y-116099143D01*
X161060021Y-116295549D01*
X161036283Y-116517674D01*
X161036580Y-116522827D01*
X161036580Y-116522830D01*
X161042043Y-116617569D01*
X161049142Y-116740694D01*
X161050279Y-116745740D01*
X161050280Y-116745746D01*
X161070151Y-116833918D01*
X161098254Y-116958618D01*
X161182298Y-117165595D01*
X161233051Y-117248417D01*
X161296323Y-117351667D01*
X161299019Y-117356067D01*
X161445282Y-117524917D01*
X161617158Y-117667611D01*
X161635365Y-117678250D01*
X161690477Y-117710455D01*
X161739201Y-117762093D01*
X161752272Y-117831876D01*
X161725541Y-117897648D01*
X161685087Y-117931006D01*
X161672639Y-117937486D01*
X161668506Y-117940589D01*
X161668503Y-117940591D01*
X161498132Y-118068509D01*
X161493997Y-118071614D01*
X161339661Y-118233117D01*
X161336752Y-118237382D01*
X161336746Y-118237390D01*
X161327186Y-118251404D01*
X161213775Y-118417659D01*
X161198035Y-118451569D01*
X161140084Y-118576414D01*
X161119720Y-118620284D01*
X161060021Y-118835549D01*
X161036283Y-119057674D01*
X161036580Y-119062827D01*
X161036580Y-119062830D01*
X161048844Y-119275526D01*
X161049142Y-119280694D01*
X161050279Y-119285740D01*
X161050280Y-119285746D01*
X161058395Y-119321753D01*
X161098254Y-119498618D01*
X161182298Y-119705595D01*
X161233051Y-119788417D01*
X161296323Y-119891667D01*
X161299019Y-119896067D01*
X161445282Y-120064917D01*
X161617158Y-120207611D01*
X161635365Y-120218250D01*
X161690987Y-120250753D01*
X161739711Y-120302391D01*
X161752782Y-120372174D01*
X161726051Y-120437946D01*
X161685594Y-120471306D01*
X161677489Y-120475525D01*
X161668770Y-120481015D01*
X161498465Y-120608884D01*
X161490758Y-120615727D01*
X161343622Y-120769696D01*
X161337136Y-120777706D01*
X161217130Y-120953628D01*
X161212032Y-120962602D01*
X161122370Y-121155762D01*
X161118807Y-121165449D01*
X161063421Y-121365162D01*
X161064944Y-121373586D01*
X161077324Y-121376979D01*
X166257376Y-121376979D01*
X166270907Y-121373006D01*
X166272212Y-121363926D01*
X166230246Y-121196854D01*
X166226926Y-121187103D01*
X166142004Y-120991793D01*
X166137137Y-120982718D01*
X166021458Y-120803905D01*
X166015168Y-120795736D01*
X165871838Y-120638219D01*
X165864305Y-120631194D01*
X165697171Y-120499201D01*
X165688588Y-120493499D01*
X165651634Y-120473099D01*
X165601663Y-120422666D01*
X165586891Y-120353224D01*
X165612007Y-120286818D01*
X165639359Y-120260211D01*
X165698186Y-120218250D01*
X165818892Y-120132152D01*
X165977128Y-119974468D01*
X166036626Y-119891668D01*
X166104467Y-119797256D01*
X166107485Y-119793056D01*
X166128352Y-119750836D01*
X166204168Y-119597432D01*
X166204169Y-119597430D01*
X166206462Y-119592790D01*
X166271402Y-119379048D01*
X166300561Y-119157569D01*
X166301481Y-119119923D01*
X166302106Y-119094344D01*
X166302106Y-119094340D01*
X166302188Y-119090979D01*
X166283884Y-118868340D01*
X166229463Y-118651681D01*
X166140386Y-118446819D01*
X166019046Y-118259256D01*
X165868702Y-118094030D01*
X165864651Y-118090831D01*
X165864647Y-118090827D01*
X165697446Y-117958779D01*
X165697442Y-117958777D01*
X165693391Y-117955577D01*
X165652085Y-117932775D01*
X165602116Y-117882343D01*
X165587344Y-117812900D01*
X165612460Y-117746495D01*
X165639812Y-117719888D01*
X165698186Y-117678250D01*
X165818892Y-117592152D01*
X165977128Y-117434468D01*
X166036626Y-117351668D01*
X166104467Y-117257256D01*
X166107485Y-117253056D01*
X166128352Y-117210836D01*
X166204168Y-117057432D01*
X166204169Y-117057430D01*
X166206462Y-117052790D01*
X166271402Y-116839048D01*
X166300561Y-116617569D01*
X166302188Y-116550979D01*
X166283884Y-116328340D01*
X166229463Y-116111681D01*
X166140386Y-115906819D01*
X166019046Y-115719256D01*
X165868702Y-115554030D01*
X165864651Y-115550831D01*
X165864647Y-115550827D01*
X165697446Y-115418779D01*
X165697442Y-115418777D01*
X165693391Y-115415577D01*
X165652085Y-115392775D01*
X165602116Y-115342343D01*
X165587344Y-115272900D01*
X165612460Y-115206495D01*
X165639812Y-115179888D01*
X165683635Y-115148629D01*
X165818892Y-115052152D01*
X165977128Y-114894468D01*
X166107485Y-114713056D01*
X166143463Y-114640261D01*
X166204168Y-114517432D01*
X166204169Y-114517430D01*
X166206462Y-114512790D01*
X166240307Y-114401395D01*
X166269897Y-114304002D01*
X166269897Y-114304000D01*
X166271402Y-114299048D01*
X166300561Y-114077569D01*
X166302188Y-114010979D01*
X166283884Y-113788340D01*
X166229463Y-113571681D01*
X166140386Y-113366819D01*
X166019046Y-113179256D01*
X165868702Y-113014030D01*
X165864651Y-113010831D01*
X165864647Y-113010827D01*
X165697446Y-112878779D01*
X165697442Y-112878777D01*
X165693391Y-112875577D01*
X165652085Y-112852775D01*
X165602116Y-112802343D01*
X165587344Y-112732900D01*
X165612460Y-112666495D01*
X165639812Y-112639888D01*
X165730964Y-112574870D01*
X165818892Y-112512152D01*
X165977128Y-112354468D01*
X166107485Y-112173056D01*
X166150657Y-112085705D01*
X166204168Y-111977432D01*
X166204169Y-111977430D01*
X166206462Y-111972790D01*
X166271402Y-111759048D01*
X166300561Y-111537569D01*
X166302188Y-111470979D01*
X166283884Y-111248340D01*
X166229463Y-111031681D01*
X166140386Y-110826819D01*
X166019046Y-110639256D01*
X165868702Y-110474030D01*
X165864651Y-110470831D01*
X165864647Y-110470827D01*
X165697446Y-110338779D01*
X165697442Y-110338777D01*
X165693391Y-110335577D01*
X165652085Y-110312775D01*
X165602116Y-110262343D01*
X165587344Y-110192900D01*
X165612460Y-110126495D01*
X165639812Y-110099888D01*
X165683635Y-110068629D01*
X165818892Y-109972152D01*
X165977128Y-109814468D01*
X166107485Y-109633056D01*
X166150657Y-109545705D01*
X166204168Y-109437432D01*
X166204169Y-109437430D01*
X166206462Y-109432790D01*
X166271402Y-109219048D01*
X166300561Y-108997569D01*
X166302188Y-108930979D01*
X166283884Y-108708340D01*
X166229463Y-108491681D01*
X166140386Y-108286819D01*
X166019046Y-108099256D01*
X165868702Y-107934030D01*
X165864651Y-107930831D01*
X165864647Y-107930827D01*
X165697446Y-107798779D01*
X165697442Y-107798777D01*
X165693391Y-107795577D01*
X165652085Y-107772775D01*
X165602116Y-107722343D01*
X165587344Y-107652900D01*
X165612460Y-107586495D01*
X165639812Y-107559888D01*
X165683635Y-107528629D01*
X165818892Y-107432152D01*
X165977128Y-107274468D01*
X166107485Y-107093056D01*
X166140122Y-107027021D01*
X166204168Y-106897432D01*
X166204169Y-106897430D01*
X166206462Y-106892790D01*
X166271402Y-106679048D01*
X166300561Y-106457569D01*
X166302188Y-106390979D01*
X166283884Y-106168340D01*
X166229463Y-105951681D01*
X166140386Y-105746819D01*
X166019046Y-105559256D01*
X165868702Y-105394030D01*
X165864651Y-105390831D01*
X165864647Y-105390827D01*
X165697446Y-105258779D01*
X165697442Y-105258777D01*
X165693391Y-105255577D01*
X165652085Y-105232775D01*
X165602116Y-105182343D01*
X165587344Y-105112900D01*
X165612460Y-105046495D01*
X165639812Y-105019888D01*
X165701857Y-104975632D01*
X165818892Y-104892152D01*
X165825328Y-104885739D01*
X165959002Y-104752531D01*
X165977128Y-104734468D01*
X165992026Y-104713736D01*
X166104467Y-104557256D01*
X166107485Y-104553056D01*
X166115065Y-104537720D01*
X166204168Y-104357432D01*
X166204169Y-104357430D01*
X166206462Y-104352790D01*
X166266228Y-104156078D01*
X166269897Y-104144002D01*
X166269897Y-104144000D01*
X166271402Y-104139048D01*
X166300561Y-103917569D01*
X166302188Y-103850979D01*
X166283884Y-103628340D01*
X166229463Y-103411681D01*
X166140386Y-103206819D01*
X166019046Y-103019256D01*
X165868702Y-102854030D01*
X165864651Y-102850831D01*
X165864647Y-102850827D01*
X165697446Y-102718779D01*
X165697442Y-102718777D01*
X165693391Y-102715577D01*
X165652085Y-102692775D01*
X165602116Y-102642343D01*
X165587344Y-102572900D01*
X165612460Y-102506495D01*
X165639812Y-102479888D01*
X165730964Y-102414870D01*
X165818892Y-102352152D01*
X165977128Y-102194468D01*
X165989087Y-102177826D01*
X166104467Y-102017256D01*
X166107485Y-102013056D01*
X166206462Y-101812790D01*
X166271402Y-101599048D01*
X166300561Y-101377569D01*
X166302188Y-101310979D01*
X166283884Y-101088340D01*
X166229463Y-100871681D01*
X166140386Y-100666819D01*
X166019046Y-100479256D01*
X165868702Y-100314030D01*
X165864651Y-100310831D01*
X165864647Y-100310827D01*
X165697446Y-100178779D01*
X165697442Y-100178777D01*
X165693391Y-100175577D01*
X165652085Y-100152775D01*
X165602116Y-100102343D01*
X165587344Y-100032900D01*
X165612460Y-99966495D01*
X165639812Y-99939888D01*
X165706615Y-99892238D01*
X165818892Y-99812152D01*
X165977128Y-99654468D01*
X166036626Y-99571668D01*
X166104467Y-99477256D01*
X166107485Y-99473056D01*
X166112240Y-99463436D01*
X166204168Y-99277432D01*
X166204169Y-99277430D01*
X166206462Y-99272790D01*
X166271402Y-99059048D01*
X166300561Y-98837569D01*
X166302188Y-98770979D01*
X166283884Y-98548340D01*
X166229463Y-98331681D01*
X166140386Y-98126819D01*
X166065982Y-98011808D01*
X166021854Y-97943596D01*
X166021852Y-97943593D01*
X166019046Y-97939256D01*
X165868702Y-97774030D01*
X165864651Y-97770831D01*
X165864647Y-97770827D01*
X165697446Y-97638779D01*
X165697442Y-97638777D01*
X165693391Y-97635577D01*
X165651601Y-97612508D01*
X165601630Y-97562076D01*
X165586858Y-97492633D01*
X165611974Y-97426227D01*
X165639326Y-97399620D01*
X165814360Y-97274771D01*
X165822232Y-97268118D01*
X165973084Y-97117791D01*
X165979762Y-97109944D01*
X166104035Y-96936999D01*
X166109345Y-96928162D01*
X166203702Y-96737246D01*
X166207501Y-96727651D01*
X166269409Y-96523889D01*
X166271587Y-96513816D01*
X166273018Y-96502941D01*
X166270807Y-96488757D01*
X166257649Y-96484979D01*
X161082257Y-96484979D01*
X161068726Y-96488952D01*
X161067289Y-96498945D01*
X161097597Y-96633425D01*
X161100677Y-96643254D01*
X161180802Y-96840582D01*
X161185445Y-96849773D01*
X161296726Y-97031367D01*
X161302809Y-97039678D01*
X161442245Y-97200646D01*
X161449612Y-97207862D01*
X161613466Y-97343895D01*
X161621913Y-97349810D01*
X161691001Y-97390182D01*
X161739725Y-97441821D01*
X161752796Y-97511604D01*
X161726065Y-97577375D01*
X161685616Y-97610731D01*
X161672639Y-97617486D01*
X161668506Y-97620589D01*
X161668503Y-97620591D01*
X161498132Y-97748509D01*
X161493997Y-97751614D01*
X161339661Y-97913117D01*
X161336752Y-97917382D01*
X161336746Y-97917390D01*
X161318870Y-97943596D01*
X161213775Y-98097659D01*
X161119720Y-98300284D01*
X161060021Y-98515549D01*
X161036283Y-98737674D01*
X161036580Y-98742827D01*
X161036580Y-98742830D01*
X161045384Y-98895514D01*
X161049142Y-98960694D01*
X161050279Y-98965740D01*
X161050280Y-98965746D01*
X161070151Y-99053918D01*
X161098254Y-99178618D01*
X161136493Y-99272790D01*
X161175482Y-99368808D01*
X161182298Y-99385595D01*
X161220238Y-99447507D01*
X161296323Y-99571667D01*
X161299019Y-99576067D01*
X161445282Y-99744917D01*
X161617158Y-99887611D01*
X161687627Y-99928790D01*
X161690477Y-99930455D01*
X161739201Y-99982093D01*
X161752272Y-100051876D01*
X161725541Y-100117648D01*
X161685087Y-100151006D01*
X161672639Y-100157486D01*
X161668506Y-100160589D01*
X161668503Y-100160591D01*
X161498132Y-100288509D01*
X161493997Y-100291614D01*
X161339661Y-100453117D01*
X161213775Y-100637659D01*
X161119720Y-100840284D01*
X161060021Y-101055549D01*
X161036283Y-101277674D01*
X161036580Y-101282827D01*
X161036580Y-101282830D01*
X161042043Y-101377569D01*
X161049142Y-101500694D01*
X161050279Y-101505740D01*
X161050280Y-101505746D01*
X161070151Y-101593918D01*
X161098254Y-101718618D01*
X161182298Y-101925595D01*
X161184997Y-101929999D01*
X161294867Y-102109292D01*
X161313405Y-102177826D01*
X161291948Y-102245503D01*
X161276529Y-102264222D01*
X159451427Y-104089324D01*
X159442647Y-104097314D01*
X159442645Y-104097316D01*
X159435952Y-104101563D01*
X159430526Y-104107341D01*
X159430525Y-104107342D01*
X159387428Y-104153236D01*
X159384673Y-104156078D01*
X159364105Y-104176646D01*
X159361388Y-104180149D01*
X159353680Y-104189174D01*
X159322060Y-104222846D01*
X159318239Y-104229797D01*
X159318238Y-104229798D01*
X159311729Y-104241637D01*
X159300875Y-104258161D01*
X159293050Y-104268250D01*
X159287728Y-104275111D01*
X159284581Y-104282383D01*
X159284580Y-104282385D01*
X159269378Y-104317514D01*
X159264156Y-104328174D01*
X159241908Y-104368642D01*
X159236573Y-104389420D01*
X159230174Y-104408110D01*
X159221652Y-104427803D01*
X159214969Y-104469997D01*
X159214426Y-104473427D01*
X159212019Y-104485050D01*
X159204830Y-104513051D01*
X159200532Y-104529791D01*
X159200532Y-104551238D01*
X159198981Y-104570948D01*
X159195626Y-104592131D01*
X159199568Y-104633828D01*
X159199973Y-104638117D01*
X159200532Y-104649975D01*
X159200532Y-109368030D01*
X159180530Y-109436151D01*
X159163627Y-109457125D01*
X152003177Y-116617574D01*
X151940865Y-116651600D01*
X151914082Y-116654479D01*
X151903256Y-116654479D01*
X151835135Y-116634477D01*
X151829195Y-116630415D01*
X151828941Y-116630230D01*
X151724493Y-116554344D01*
X151685126Y-116525742D01*
X151685125Y-116525741D01*
X151679784Y-116521861D01*
X151673756Y-116519177D01*
X151673754Y-116519176D01*
X151511351Y-116446870D01*
X151511350Y-116446870D01*
X151505320Y-116444185D01*
X151411919Y-116424332D01*
X151324976Y-116405851D01*
X151324971Y-116405851D01*
X151318519Y-116404479D01*
X151127545Y-116404479D01*
X151121093Y-116405851D01*
X151121088Y-116405851D01*
X151034145Y-116424332D01*
X150940744Y-116444185D01*
X150934714Y-116446870D01*
X150934713Y-116446870D01*
X150772310Y-116519176D01*
X150772308Y-116519177D01*
X150766280Y-116521861D01*
X150611779Y-116634113D01*
X150483992Y-116776035D01*
X150388505Y-116941423D01*
X150329490Y-117123051D01*
X150328800Y-117129612D01*
X150328800Y-117129614D01*
X150318657Y-117226123D01*
X150309528Y-117312979D01*
X150329490Y-117502907D01*
X150388505Y-117684535D01*
X150391808Y-117690257D01*
X150391809Y-117690258D01*
X150420393Y-117739766D01*
X150483992Y-117849923D01*
X150496370Y-117863670D01*
X150527086Y-117927676D01*
X150518322Y-117998129D01*
X150496371Y-118032286D01*
X150483992Y-118046035D01*
X150388505Y-118211423D01*
X150329490Y-118393051D01*
X150328800Y-118399612D01*
X150328800Y-118399614D01*
X150310218Y-118576414D01*
X150309528Y-118582979D01*
X150310218Y-118589544D01*
X150313974Y-118625276D01*
X150329490Y-118772907D01*
X150388505Y-118954535D01*
X150391808Y-118960257D01*
X150391809Y-118960258D01*
X150418778Y-119006970D01*
X150483992Y-119119923D01*
X150496370Y-119133670D01*
X150527086Y-119197676D01*
X150518322Y-119268129D01*
X150496371Y-119302286D01*
X150483992Y-119316035D01*
X150388505Y-119481423D01*
X150329490Y-119663051D01*
X150328800Y-119669612D01*
X150328800Y-119669614D01*
X150318657Y-119766123D01*
X150309528Y-119852979D01*
X150329490Y-120042907D01*
X150388505Y-120224535D01*
X150391808Y-120230257D01*
X150391809Y-120230258D01*
X150461825Y-120351528D01*
X150478563Y-120420523D01*
X150461826Y-120477526D01*
X150439595Y-120516031D01*
X150380580Y-120697659D01*
X150360618Y-120887587D01*
X150361308Y-120894152D01*
X150370617Y-120982718D01*
X150380580Y-121077515D01*
X150439595Y-121259143D01*
X150442898Y-121264865D01*
X150442899Y-121264866D01*
X150475184Y-121320785D01*
X150491922Y-121389780D01*
X150475184Y-121446785D01*
X150414867Y-121551257D01*
X150355852Y-121732885D01*
X150335890Y-121922813D01*
X150355852Y-122112741D01*
X150414867Y-122294369D01*
X150418170Y-122300091D01*
X150418171Y-122300092D01*
X150439226Y-122336560D01*
X150455964Y-122405555D01*
X150439226Y-122462560D01*
X150388505Y-122550412D01*
X150329490Y-122732040D01*
X150328800Y-122738601D01*
X150328800Y-122738603D01*
X150312109Y-122897412D01*
X150309528Y-122921968D01*
X131530953Y-122921968D01*
X131526486Y-122917729D01*
X131241416Y-122700564D01*
X131238504Y-122698807D01*
X131238499Y-122698804D01*
X130937475Y-122517215D01*
X130937469Y-122517212D01*
X130934560Y-122515457D01*
X130609507Y-122364572D01*
X130419008Y-122300092D01*
X130273287Y-122250768D01*
X130273282Y-122250767D01*
X130270060Y-122249676D01*
X130071713Y-122205703D01*
X129923525Y-122172850D01*
X129923519Y-122172849D01*
X129920190Y-122172111D01*
X129916801Y-122171737D01*
X129916796Y-122171736D01*
X129567370Y-122133159D01*
X129567365Y-122133159D01*
X129563989Y-122132786D01*
X129560590Y-122132780D01*
X129560589Y-122132780D01*
X129391112Y-122132484D01*
X129205624Y-122132161D01*
X129092445Y-122144256D01*
X128852671Y-122169880D01*
X128852663Y-122169881D01*
X128849288Y-122170242D01*
X128499149Y-122246585D01*
X128159303Y-122360296D01*
X128156210Y-122361718D01*
X128156209Y-122361719D01*
X127974122Y-122445470D01*
X127833726Y-122510045D01*
X127526225Y-122694080D01*
X127523499Y-122696142D01*
X127523497Y-122696143D01*
X127252404Y-122901170D01*
X127240399Y-122910249D01*
X127237914Y-122912591D01*
X127237909Y-122912595D01*
X127185088Y-122962371D01*
X126979591Y-123156022D01*
X126746851Y-123428525D01*
X126744932Y-123431337D01*
X126744929Y-123431342D01*
X126655846Y-123561933D01*
X126544903Y-123724570D01*
X126376109Y-124040693D01*
X126374838Y-124043854D01*
X126374835Y-124043861D01*
X126320436Y-124179183D01*
X126276470Y-124234928D01*
X126209345Y-124258053D01*
X126140373Y-124241216D01*
X126091453Y-124189764D01*
X126077529Y-124132187D01*
X126077529Y-118441830D01*
X140811751Y-118441830D01*
X140812267Y-118447974D01*
X140826736Y-118620284D01*
X140828300Y-118638913D01*
X140882815Y-118829029D01*
X140973219Y-119004935D01*
X141096067Y-119159932D01*
X141246682Y-119288115D01*
X141419326Y-119384603D01*
X141607424Y-119445719D01*
X141803809Y-119469137D01*
X141809944Y-119468665D01*
X141809946Y-119468665D01*
X141994862Y-119454436D01*
X141994866Y-119454435D01*
X142001004Y-119453963D01*
X142191495Y-119400777D01*
X142196999Y-119397997D01*
X142197001Y-119397996D01*
X142362527Y-119314383D01*
X142362529Y-119314382D01*
X142368028Y-119311604D01*
X142523879Y-119189840D01*
X142551235Y-119158148D01*
X142610888Y-119119651D01*
X142646616Y-119114479D01*
X143901976Y-119114479D01*
X143913832Y-119115038D01*
X143913835Y-119115038D01*
X143921569Y-119116767D01*
X143992401Y-119114541D01*
X143996359Y-119114479D01*
X144025464Y-119114479D01*
X144029864Y-119113923D01*
X144041696Y-119112991D01*
X144087863Y-119111541D01*
X144108453Y-119105559D01*
X144127814Y-119101549D01*
X144134802Y-119100667D01*
X144141236Y-119099854D01*
X144141237Y-119099854D01*
X144149096Y-119098861D01*
X144156461Y-119095945D01*
X144156465Y-119095944D01*
X144192053Y-119081853D01*
X144203263Y-119078014D01*
X144247632Y-119065124D01*
X144266097Y-119054204D01*
X144283837Y-119045513D01*
X144303788Y-119037614D01*
X144341161Y-119010461D01*
X144351080Y-119003946D01*
X144384009Y-118984472D01*
X144384013Y-118984469D01*
X144390839Y-118980432D01*
X144406003Y-118965268D01*
X144421037Y-118952427D01*
X144431975Y-118944480D01*
X144438389Y-118939820D01*
X144467835Y-118904226D01*
X144475824Y-118895447D01*
X158234632Y-105136638D01*
X158243413Y-105128648D01*
X158243422Y-105128640D01*
X158250112Y-105124395D01*
X158298653Y-105072704D01*
X158301407Y-105069863D01*
X158321958Y-105049312D01*
X158324670Y-105045816D01*
X158332381Y-105036787D01*
X158348250Y-105019888D01*
X158364004Y-105003112D01*
X158374333Y-104984324D01*
X158385190Y-104967795D01*
X158393479Y-104957110D01*
X158393480Y-104957108D01*
X158398336Y-104950848D01*
X158416689Y-104908435D01*
X158421900Y-104897798D01*
X158444156Y-104857316D01*
X158449489Y-104836545D01*
X158455891Y-104817843D01*
X158464411Y-104798156D01*
X158471637Y-104752531D01*
X158474045Y-104740905D01*
X158483561Y-104703844D01*
X158483561Y-104703843D01*
X158485532Y-104696167D01*
X158485532Y-104674721D01*
X158487083Y-104655010D01*
X158489198Y-104641657D01*
X158490438Y-104633828D01*
X158486091Y-104587843D01*
X158485532Y-104575985D01*
X158485532Y-98079929D01*
X158505534Y-98011808D01*
X158522437Y-97990834D01*
X160856887Y-95656384D01*
X160919199Y-95622358D01*
X160945982Y-95619479D01*
X160993590Y-95619479D01*
X161061711Y-95639481D01*
X161108204Y-95693137D01*
X161118308Y-95763411D01*
X161115007Y-95779152D01*
X161063421Y-95965163D01*
X161064944Y-95973586D01*
X161077324Y-95976979D01*
X166257376Y-95976979D01*
X166270907Y-95973006D01*
X166272212Y-95963926D01*
X166230246Y-95796854D01*
X166226926Y-95787103D01*
X166142004Y-95591793D01*
X166137137Y-95582718D01*
X166021458Y-95403905D01*
X166015168Y-95395736D01*
X165871838Y-95238219D01*
X165864305Y-95231194D01*
X165697171Y-95099201D01*
X165688588Y-95093499D01*
X165651634Y-95073099D01*
X165601663Y-95022666D01*
X165586891Y-94953224D01*
X165612007Y-94886818D01*
X165639359Y-94860211D01*
X165718311Y-94803895D01*
X165818892Y-94732152D01*
X165977128Y-94574468D01*
X166029980Y-94500917D01*
X166104467Y-94397256D01*
X166107485Y-94393056D01*
X166119018Y-94369722D01*
X166204168Y-94197432D01*
X166204169Y-94197430D01*
X166206462Y-94192790D01*
X166271402Y-93979048D01*
X166300561Y-93757569D01*
X166302188Y-93690979D01*
X166283884Y-93468340D01*
X166229463Y-93251681D01*
X166140386Y-93046819D01*
X166019046Y-92859256D01*
X165868702Y-92694030D01*
X165864651Y-92690831D01*
X165864647Y-92690827D01*
X165697446Y-92558779D01*
X165697442Y-92558777D01*
X165693391Y-92555577D01*
X165652085Y-92532775D01*
X165602116Y-92482343D01*
X165587344Y-92412900D01*
X165612460Y-92346495D01*
X165639812Y-92319888D01*
X165683635Y-92288629D01*
X165818892Y-92192152D01*
X165847671Y-92163474D01*
X165900241Y-92111086D01*
X165977128Y-92034468D01*
X165992026Y-92013736D01*
X166104467Y-91857256D01*
X166107485Y-91853056D01*
X166117140Y-91833522D01*
X166204168Y-91657432D01*
X166204169Y-91657430D01*
X166206462Y-91652790D01*
X166271402Y-91439048D01*
X166300561Y-91217569D01*
X166302188Y-91150979D01*
X166283884Y-90928340D01*
X166229463Y-90711681D01*
X166140386Y-90506819D01*
X166046779Y-90362124D01*
X166021854Y-90323596D01*
X166021852Y-90323593D01*
X166019046Y-90319256D01*
X165868702Y-90154030D01*
X165864651Y-90150831D01*
X165864647Y-90150827D01*
X165697446Y-90018779D01*
X165697442Y-90018777D01*
X165693391Y-90015577D01*
X165652085Y-89992775D01*
X165602116Y-89942343D01*
X165587344Y-89872900D01*
X165612460Y-89806495D01*
X165639812Y-89779888D01*
X165683635Y-89748629D01*
X165818892Y-89652152D01*
X165977128Y-89494468D01*
X166107485Y-89313056D01*
X166145861Y-89235409D01*
X166204168Y-89117432D01*
X166204169Y-89117430D01*
X166206462Y-89112790D01*
X166271402Y-88899048D01*
X166300561Y-88677569D01*
X166302188Y-88610979D01*
X166283884Y-88388340D01*
X166229463Y-88171681D01*
X166140386Y-87966819D01*
X166055728Y-87835957D01*
X166021854Y-87783596D01*
X166021852Y-87783593D01*
X166019046Y-87779256D01*
X165868702Y-87614030D01*
X165864651Y-87610831D01*
X165864647Y-87610827D01*
X165697446Y-87478779D01*
X165697442Y-87478777D01*
X165693391Y-87475577D01*
X165652085Y-87452775D01*
X165602116Y-87402343D01*
X165587344Y-87332900D01*
X165612460Y-87266495D01*
X165639812Y-87239888D01*
X165762721Y-87152218D01*
X165818892Y-87112152D01*
X165977128Y-86954468D01*
X166029980Y-86880917D01*
X166104467Y-86777256D01*
X166107485Y-86773056D01*
X166111960Y-86764003D01*
X166204168Y-86577432D01*
X166204169Y-86577430D01*
X166206462Y-86572790D01*
X166271402Y-86359048D01*
X166300561Y-86137569D01*
X166302188Y-86070979D01*
X166283884Y-85848340D01*
X166229463Y-85631681D01*
X166140386Y-85426819D01*
X166019046Y-85239256D01*
X165868702Y-85074030D01*
X165864651Y-85070831D01*
X165864647Y-85070827D01*
X165697446Y-84938779D01*
X165697442Y-84938777D01*
X165693391Y-84935577D01*
X165652085Y-84912775D01*
X165602116Y-84862343D01*
X165587344Y-84792900D01*
X165612460Y-84726495D01*
X165639812Y-84699888D01*
X165683635Y-84668629D01*
X165818892Y-84572152D01*
X165847671Y-84543474D01*
X165973467Y-84418116D01*
X165977128Y-84414468D01*
X166027590Y-84344243D01*
X166104467Y-84237256D01*
X166107485Y-84233056D01*
X166130733Y-84186018D01*
X166204168Y-84037432D01*
X166204169Y-84037430D01*
X166206462Y-84032790D01*
X166271402Y-83819048D01*
X166300561Y-83597569D01*
X166301643Y-83553288D01*
X166302106Y-83534344D01*
X166302106Y-83534340D01*
X166302188Y-83530979D01*
X166283884Y-83308340D01*
X166229463Y-83091681D01*
X166140386Y-82886819D01*
X166064152Y-82768979D01*
X166021854Y-82703596D01*
X166021852Y-82703593D01*
X166019046Y-82699256D01*
X165868702Y-82534030D01*
X165864651Y-82530831D01*
X165864647Y-82530827D01*
X165697446Y-82398779D01*
X165697442Y-82398777D01*
X165693391Y-82395577D01*
X165652085Y-82372775D01*
X165602116Y-82322343D01*
X165587344Y-82252900D01*
X165612460Y-82186495D01*
X165639812Y-82159888D01*
X165683635Y-82128629D01*
X165818892Y-82032152D01*
X165977128Y-81874468D01*
X166003541Y-81837711D01*
X166104467Y-81697256D01*
X166107485Y-81693056D01*
X166145861Y-81615409D01*
X166204168Y-81497432D01*
X166204169Y-81497430D01*
X166206462Y-81492790D01*
X166271402Y-81279048D01*
X166300561Y-81057569D01*
X166302188Y-80990979D01*
X166283884Y-80768340D01*
X166229463Y-80551681D01*
X166140386Y-80346819D01*
X166093770Y-80274762D01*
X166021854Y-80163596D01*
X166021852Y-80163593D01*
X166019046Y-80159256D01*
X165868702Y-79994030D01*
X165864651Y-79990831D01*
X165864647Y-79990827D01*
X165697446Y-79858779D01*
X165697442Y-79858777D01*
X165693391Y-79855577D01*
X165652085Y-79832775D01*
X165602116Y-79782343D01*
X165587344Y-79712900D01*
X165612460Y-79646495D01*
X165639812Y-79619888D01*
X165730964Y-79554870D01*
X165818892Y-79492152D01*
X165977128Y-79334468D01*
X166107485Y-79153056D01*
X166145861Y-79075409D01*
X166204168Y-78957432D01*
X166204169Y-78957430D01*
X166206462Y-78952790D01*
X166258538Y-78781389D01*
X166269897Y-78744002D01*
X166269897Y-78744000D01*
X166271402Y-78739048D01*
X166300561Y-78517569D01*
X166302188Y-78450979D01*
X166283884Y-78228340D01*
X166229463Y-78011681D01*
X166140386Y-77806819D01*
X166100938Y-77745841D01*
X166021854Y-77623596D01*
X166021852Y-77623593D01*
X166019046Y-77619256D01*
X165868702Y-77454030D01*
X165864651Y-77450831D01*
X165864647Y-77450827D01*
X165697446Y-77318779D01*
X165697442Y-77318777D01*
X165693391Y-77315577D01*
X165652085Y-77292775D01*
X165602116Y-77242343D01*
X165587344Y-77172900D01*
X165612460Y-77106495D01*
X165639812Y-77079888D01*
X165683635Y-77048629D01*
X165818892Y-76952152D01*
X165977128Y-76794468D01*
X166107485Y-76613056D01*
X166145861Y-76535409D01*
X166204168Y-76417432D01*
X166204169Y-76417430D01*
X166206462Y-76412790D01*
X166271402Y-76199048D01*
X166300561Y-75977569D01*
X166302188Y-75910979D01*
X166283884Y-75688340D01*
X166229463Y-75471681D01*
X166140386Y-75266819D01*
X166019046Y-75079256D01*
X165868702Y-74914030D01*
X165864651Y-74910831D01*
X165864647Y-74910827D01*
X165697446Y-74778779D01*
X165697442Y-74778777D01*
X165693391Y-74775577D01*
X165652085Y-74752775D01*
X165602116Y-74702343D01*
X165587344Y-74632900D01*
X165612460Y-74566495D01*
X165639812Y-74539888D01*
X165683635Y-74508629D01*
X165818892Y-74412152D01*
X165977128Y-74254468D01*
X166107485Y-74073056D01*
X166206462Y-73872790D01*
X166271402Y-73659048D01*
X166300561Y-73437569D01*
X166302188Y-73370979D01*
X166283884Y-73148340D01*
X166229463Y-72931681D01*
X166140386Y-72726819D01*
X166019046Y-72539256D01*
X165868702Y-72374030D01*
X165864651Y-72370831D01*
X165864647Y-72370827D01*
X165697446Y-72238779D01*
X165697442Y-72238777D01*
X165693391Y-72235577D01*
X165497821Y-72127617D01*
X165492952Y-72125893D01*
X165492948Y-72125891D01*
X165292119Y-72054774D01*
X165292115Y-72054773D01*
X165287244Y-72053048D01*
X165282151Y-72052141D01*
X165282148Y-72052140D01*
X165072405Y-72014779D01*
X165072399Y-72014778D01*
X165067316Y-72013873D01*
X164993484Y-72012971D01*
X164849113Y-72011207D01*
X164849111Y-72011207D01*
X164843943Y-72011144D01*
X164623123Y-72044934D01*
X164410788Y-72114336D01*
X164212639Y-72217486D01*
X164208506Y-72220589D01*
X164208503Y-72220591D01*
X164038132Y-72348509D01*
X164033997Y-72351614D01*
X163977569Y-72410663D01*
X163953315Y-72436043D01*
X163891791Y-72471473D01*
X163820878Y-72468016D01*
X163763092Y-72426770D01*
X163744239Y-72393222D01*
X163702799Y-72282682D01*
X163699647Y-72274274D01*
X163612293Y-72157718D01*
X163495737Y-72070364D01*
X163359348Y-72019234D01*
X163297166Y-72012479D01*
X161500898Y-72012479D01*
X161438716Y-72019234D01*
X161302327Y-72070364D01*
X161185771Y-72157718D01*
X161098417Y-72274274D01*
X161047287Y-72410663D01*
X161040532Y-72472845D01*
X161040532Y-74269113D01*
X161047287Y-74331295D01*
X161098417Y-74467684D01*
X161185771Y-74584240D01*
X161302327Y-74671594D01*
X161310736Y-74674746D01*
X161310737Y-74674747D01*
X161419483Y-74715514D01*
X161476248Y-74758155D01*
X161500948Y-74824717D01*
X161485741Y-74894066D01*
X161466348Y-74920547D01*
X161339661Y-75053117D01*
X161213775Y-75237659D01*
X161119720Y-75440284D01*
X161060021Y-75655549D01*
X161036283Y-75877674D01*
X161036580Y-75882827D01*
X161036580Y-75882830D01*
X161042043Y-75977569D01*
X161049142Y-76100694D01*
X161050279Y-76105740D01*
X161050280Y-76105746D01*
X161070151Y-76193918D01*
X161098254Y-76318618D01*
X161100198Y-76323405D01*
X161100199Y-76323409D01*
X161110621Y-76349076D01*
X161117717Y-76419717D01*
X161085494Y-76482980D01*
X161024184Y-76518780D01*
X160993878Y-76522479D01*
X160703088Y-76522479D01*
X160691232Y-76521920D01*
X160691229Y-76521920D01*
X160683495Y-76520191D01*
X160628478Y-76521920D01*
X160612663Y-76522417D01*
X160608705Y-76522479D01*
X160579600Y-76522479D01*
X160575200Y-76523035D01*
X160563368Y-76523967D01*
X160517201Y-76525417D01*
X160496611Y-76531399D01*
X160477250Y-76535409D01*
X160470262Y-76536291D01*
X160463828Y-76537104D01*
X160463827Y-76537104D01*
X160455968Y-76538097D01*
X160448603Y-76541013D01*
X160448599Y-76541014D01*
X160413011Y-76555105D01*
X160401801Y-76558944D01*
X160357432Y-76571834D01*
X160338967Y-76582754D01*
X160321227Y-76591445D01*
X160301276Y-76599344D01*
X160263906Y-76626495D01*
X160253984Y-76633012D01*
X160221055Y-76652486D01*
X160221051Y-76652489D01*
X160214225Y-76656526D01*
X160199061Y-76671690D01*
X160184028Y-76684530D01*
X160166675Y-76697138D01*
X160137230Y-76732731D01*
X160129240Y-76741511D01*
X153863427Y-83007324D01*
X153854647Y-83015314D01*
X153854645Y-83015316D01*
X153847952Y-83019563D01*
X153842526Y-83025341D01*
X153842525Y-83025342D01*
X153799428Y-83071236D01*
X153796673Y-83074078D01*
X153776105Y-83094646D01*
X153773388Y-83098149D01*
X153765680Y-83107174D01*
X153734060Y-83140846D01*
X153730239Y-83147797D01*
X153730238Y-83147798D01*
X153723729Y-83159637D01*
X153712875Y-83176161D01*
X153705050Y-83186250D01*
X153699728Y-83193111D01*
X153696581Y-83200383D01*
X153696580Y-83200385D01*
X153681378Y-83235514D01*
X153676156Y-83246174D01*
X153660007Y-83275549D01*
X153653908Y-83286642D01*
X153648573Y-83307420D01*
X153642174Y-83326110D01*
X153633652Y-83345803D01*
X153632412Y-83353634D01*
X153626426Y-83391427D01*
X153624019Y-83403050D01*
X153612532Y-83447791D01*
X153612532Y-83469238D01*
X153610981Y-83488948D01*
X153607626Y-83510131D01*
X153611706Y-83553288D01*
X153611973Y-83556117D01*
X153612532Y-83567975D01*
X153612532Y-102899117D01*
X153592530Y-102967238D01*
X153575627Y-102988212D01*
X147693265Y-108870574D01*
X147630953Y-108904600D01*
X147604170Y-108907479D01*
X142649241Y-108907479D01*
X142581120Y-108887477D01*
X142551599Y-108861115D01*
X142547992Y-108856692D01*
X142547988Y-108856688D01*
X142544097Y-108851917D01*
X142478172Y-108797379D01*
X142396457Y-108729778D01*
X142396453Y-108729776D01*
X142391707Y-108725849D01*
X142217733Y-108631781D01*
X142028800Y-108573297D01*
X142022675Y-108572653D01*
X142022674Y-108572653D01*
X141838236Y-108553268D01*
X141838234Y-108553268D01*
X141832107Y-108552624D01*
X141749608Y-108560132D01*
X141641283Y-108569990D01*
X141641280Y-108569991D01*
X141635144Y-108570549D01*
X141629238Y-108572287D01*
X141629234Y-108572288D01*
X141524108Y-108603228D01*
X141445413Y-108626389D01*
X141439955Y-108629242D01*
X141439951Y-108629244D01*
X141349179Y-108676699D01*
X141270142Y-108718019D01*
X141116007Y-108841947D01*
X140988878Y-108993453D01*
X140985911Y-108998851D01*
X140985907Y-108998856D01*
X140907127Y-109142159D01*
X140893599Y-109166766D01*
X140891738Y-109172633D01*
X140891737Y-109172635D01*
X140835659Y-109349415D01*
X140833797Y-109355285D01*
X140811751Y-109551830D01*
X140812267Y-109557974D01*
X140818572Y-109633056D01*
X140828300Y-109748913D01*
X140882815Y-109939029D01*
X140973219Y-110114935D01*
X140977048Y-110119766D01*
X140978871Y-110122067D01*
X140979446Y-110123488D01*
X140980385Y-110124945D01*
X140980108Y-110125123D01*
X141005506Y-110187877D01*
X140992333Y-110257641D01*
X140988878Y-110263453D01*
X140893599Y-110436766D01*
X140891738Y-110442633D01*
X140891737Y-110442635D01*
X140850432Y-110572845D01*
X140833797Y-110625285D01*
X140811751Y-110821830D01*
X140812267Y-110827974D01*
X140825233Y-110982385D01*
X140828300Y-111018913D01*
X140882815Y-111209029D01*
X140973219Y-111384935D01*
X140977048Y-111389766D01*
X140978871Y-111392067D01*
X140979446Y-111393488D01*
X140980385Y-111394945D01*
X140980108Y-111395123D01*
X141005506Y-111457877D01*
X140992333Y-111527641D01*
X140988878Y-111533453D01*
X140893599Y-111706766D01*
X140891738Y-111712633D01*
X140891737Y-111712635D01*
X140839084Y-111878618D01*
X140833797Y-111895285D01*
X140811751Y-112091830D01*
X140812267Y-112097974D01*
X140818572Y-112173056D01*
X140828300Y-112288913D01*
X140882815Y-112479029D01*
X140885634Y-112484514D01*
X140952786Y-112615176D01*
X140973219Y-112654935D01*
X140977048Y-112659766D01*
X140978871Y-112662067D01*
X140979446Y-112663488D01*
X140980385Y-112664945D01*
X140980108Y-112665123D01*
X141005506Y-112727877D01*
X140992333Y-112797641D01*
X140988878Y-112803453D01*
X140893599Y-112976766D01*
X140891738Y-112982633D01*
X140891737Y-112982635D01*
X140879711Y-113020547D01*
X140833797Y-113165285D01*
X140811751Y-113361830D01*
X140812267Y-113367974D01*
X140826736Y-113540284D01*
X140828300Y-113558913D01*
X140829999Y-113564837D01*
X140865612Y-113689034D01*
X140882815Y-113749029D01*
X140973219Y-113924935D01*
X140977048Y-113929766D01*
X140978871Y-113932067D01*
X140979446Y-113933488D01*
X140980385Y-113934945D01*
X140980108Y-113935123D01*
X141005506Y-113997877D01*
X140992333Y-114067641D01*
X140988878Y-114073453D01*
X140893599Y-114246766D01*
X140891738Y-114252633D01*
X140891737Y-114252635D01*
X140842662Y-114407338D01*
X140833797Y-114435285D01*
X140811751Y-114631830D01*
X140814289Y-114662055D01*
X140825672Y-114797611D01*
X140828300Y-114828913D01*
X140882815Y-115019029D01*
X140973219Y-115194935D01*
X140977048Y-115199766D01*
X140978871Y-115202067D01*
X140979446Y-115203488D01*
X140980385Y-115204945D01*
X140980108Y-115205123D01*
X141005506Y-115267877D01*
X140992333Y-115337641D01*
X140988878Y-115343453D01*
X140893599Y-115516766D01*
X140891738Y-115522633D01*
X140891737Y-115522635D01*
X140835659Y-115699415D01*
X140833797Y-115705285D01*
X140811751Y-115901830D01*
X140812267Y-115907974D01*
X140826736Y-116080284D01*
X140828300Y-116098913D01*
X140882815Y-116289029D01*
X140973219Y-116464935D01*
X140977048Y-116469766D01*
X140978871Y-116472067D01*
X140979446Y-116473488D01*
X140980385Y-116474945D01*
X140980108Y-116475123D01*
X141005506Y-116537877D01*
X140992333Y-116607641D01*
X140988878Y-116613453D01*
X140893599Y-116786766D01*
X140891738Y-116792633D01*
X140891737Y-116792635D01*
X140846354Y-116935700D01*
X140833797Y-116975285D01*
X140811751Y-117171830D01*
X140812267Y-117177974D01*
X140818572Y-117253056D01*
X140828300Y-117368913D01*
X140829999Y-117374837D01*
X140873034Y-117524917D01*
X140882815Y-117559029D01*
X140973219Y-117734935D01*
X140977048Y-117739766D01*
X140978871Y-117742067D01*
X140979446Y-117743488D01*
X140980385Y-117744945D01*
X140980108Y-117745123D01*
X141005506Y-117807877D01*
X140992333Y-117877641D01*
X140988878Y-117883453D01*
X140893599Y-118056766D01*
X140891738Y-118062633D01*
X140891737Y-118062635D01*
X140846354Y-118205700D01*
X140833797Y-118245285D01*
X140811751Y-118441830D01*
X126077529Y-118441830D01*
X126077530Y-111043739D01*
X126077530Y-88251442D01*
X126514315Y-88251442D01*
X126515061Y-88259333D01*
X126518662Y-88297428D01*
X126519221Y-88309286D01*
X126519221Y-114267612D01*
X126518662Y-114279468D01*
X126516933Y-114287205D01*
X126517182Y-114295127D01*
X126519159Y-114358037D01*
X126519221Y-114361995D01*
X126519221Y-114391100D01*
X126519777Y-114395500D01*
X126520709Y-114407332D01*
X126522159Y-114453499D01*
X126524371Y-114461112D01*
X126524371Y-114461113D01*
X126528140Y-114474084D01*
X126532151Y-114493450D01*
X126534839Y-114514732D01*
X126537755Y-114522097D01*
X126537756Y-114522101D01*
X126551847Y-114557689D01*
X126555686Y-114568899D01*
X126568576Y-114613268D01*
X126579496Y-114631733D01*
X126588187Y-114649473D01*
X126596086Y-114669424D01*
X126623237Y-114706794D01*
X126629754Y-114716716D01*
X126649228Y-114749645D01*
X126649231Y-114749649D01*
X126653268Y-114756475D01*
X126668432Y-114771639D01*
X126681272Y-114786672D01*
X126693880Y-114804025D01*
X126729473Y-114833470D01*
X126738253Y-114841460D01*
X128021133Y-116124340D01*
X128055159Y-116186652D01*
X128053456Y-116247104D01*
X128040021Y-116295549D01*
X128016283Y-116517674D01*
X128016580Y-116522827D01*
X128016580Y-116522830D01*
X128022043Y-116617569D01*
X128029142Y-116740694D01*
X128030279Y-116745740D01*
X128030280Y-116745746D01*
X128050151Y-116833918D01*
X128078254Y-116958618D01*
X128162298Y-117165595D01*
X128213051Y-117248417D01*
X128276323Y-117351667D01*
X128279019Y-117356067D01*
X128425282Y-117524917D01*
X128597158Y-117667611D01*
X128790032Y-117780317D01*
X128998724Y-117860009D01*
X129003792Y-117861040D01*
X129003795Y-117861041D01*
X129108498Y-117882343D01*
X129217629Y-117904546D01*
X129222804Y-117904736D01*
X129222806Y-117904736D01*
X129435705Y-117912543D01*
X129435709Y-117912543D01*
X129440869Y-117912732D01*
X129445989Y-117912076D01*
X129445991Y-117912076D01*
X129657320Y-117885004D01*
X129657321Y-117885004D01*
X129662448Y-117884347D01*
X129684800Y-117877641D01*
X129871461Y-117821640D01*
X129871466Y-117821638D01*
X129876416Y-117820153D01*
X130077026Y-117721875D01*
X130258892Y-117592152D01*
X130417128Y-117434468D01*
X130476626Y-117351668D01*
X130544467Y-117257256D01*
X130547485Y-117253056D01*
X130568352Y-117210836D01*
X130644168Y-117057432D01*
X130644169Y-117057430D01*
X130646462Y-117052790D01*
X130711402Y-116839048D01*
X130740561Y-116617569D01*
X130742188Y-116550979D01*
X130723884Y-116328340D01*
X130669463Y-116111681D01*
X130580386Y-115906819D01*
X130459046Y-115719256D01*
X130308702Y-115554030D01*
X130304651Y-115550831D01*
X130304647Y-115550827D01*
X130137446Y-115418779D01*
X130137442Y-115418777D01*
X130133391Y-115415577D01*
X130092085Y-115392775D01*
X130042116Y-115342343D01*
X130027344Y-115272900D01*
X130052460Y-115206495D01*
X130079812Y-115179888D01*
X130123635Y-115148629D01*
X130258892Y-115052152D01*
X130417128Y-114894468D01*
X130547485Y-114713056D01*
X130583463Y-114640261D01*
X130644168Y-114517432D01*
X130644169Y-114517430D01*
X130646462Y-114512790D01*
X130680307Y-114401395D01*
X130709897Y-114304002D01*
X130709897Y-114304000D01*
X130711402Y-114299048D01*
X130740561Y-114077569D01*
X130742188Y-114010979D01*
X130723884Y-113788340D01*
X130669463Y-113571681D01*
X130580386Y-113366819D01*
X130459046Y-113179256D01*
X130455564Y-113175429D01*
X130311830Y-113017467D01*
X130280778Y-112953621D01*
X130289173Y-112883122D01*
X130334349Y-112828354D01*
X130360793Y-112814685D01*
X130467329Y-112774746D01*
X130475737Y-112771594D01*
X130592293Y-112684240D01*
X130679647Y-112567684D01*
X130730777Y-112431295D01*
X130737532Y-112369113D01*
X130737532Y-110572845D01*
X130730777Y-110510663D01*
X130679647Y-110374274D01*
X130592293Y-110257718D01*
X130475737Y-110170364D01*
X130339348Y-110119234D01*
X130277166Y-110112479D01*
X129003982Y-110112479D01*
X128935861Y-110092477D01*
X128914887Y-110075574D01*
X128372637Y-109533324D01*
X128338611Y-109471012D01*
X128335732Y-109444229D01*
X128335732Y-107558942D01*
X128355734Y-107490821D01*
X128409390Y-107444328D01*
X128479664Y-107434224D01*
X128542217Y-107461998D01*
X128597158Y-107507611D01*
X128790032Y-107620317D01*
X128998724Y-107700009D01*
X129003792Y-107701040D01*
X129003795Y-107701041D01*
X129108498Y-107722343D01*
X129217629Y-107744546D01*
X129222804Y-107744736D01*
X129222806Y-107744736D01*
X129435705Y-107752543D01*
X129435709Y-107752543D01*
X129440869Y-107752732D01*
X129445989Y-107752076D01*
X129445991Y-107752076D01*
X129657320Y-107725004D01*
X129657321Y-107725004D01*
X129662448Y-107724347D01*
X129669128Y-107722343D01*
X129871461Y-107661640D01*
X129871466Y-107661638D01*
X129876416Y-107660153D01*
X130077026Y-107561875D01*
X130258892Y-107432152D01*
X130417128Y-107274468D01*
X130547485Y-107093056D01*
X130580122Y-107027021D01*
X130644168Y-106897432D01*
X130644169Y-106897430D01*
X130646462Y-106892790D01*
X130711402Y-106679048D01*
X130740561Y-106457569D01*
X130742188Y-106390979D01*
X130723884Y-106168340D01*
X130669463Y-105951681D01*
X130580386Y-105746819D01*
X130459046Y-105559256D01*
X130308702Y-105394030D01*
X130304651Y-105390831D01*
X130304647Y-105390827D01*
X130137446Y-105258779D01*
X130137442Y-105258777D01*
X130133391Y-105255577D01*
X130092085Y-105232775D01*
X130042116Y-105182343D01*
X130027344Y-105112900D01*
X130052460Y-105046495D01*
X130079812Y-105019888D01*
X130141857Y-104975632D01*
X130258892Y-104892152D01*
X130265328Y-104885739D01*
X130399002Y-104752531D01*
X130417128Y-104734468D01*
X130432026Y-104713736D01*
X130544467Y-104557256D01*
X130547485Y-104553056D01*
X130555065Y-104537720D01*
X130644168Y-104357432D01*
X130644169Y-104357430D01*
X130646462Y-104352790D01*
X130706228Y-104156078D01*
X130709897Y-104144002D01*
X130709897Y-104144000D01*
X130711402Y-104139048D01*
X130740561Y-103917569D01*
X130742188Y-103850979D01*
X130723884Y-103628340D01*
X130669463Y-103411681D01*
X130580386Y-103206819D01*
X130459046Y-103019256D01*
X130419959Y-102976300D01*
X130311830Y-102857467D01*
X130280778Y-102793621D01*
X130289173Y-102723122D01*
X130334349Y-102668354D01*
X130360793Y-102654685D01*
X130467329Y-102614746D01*
X130475737Y-102611594D01*
X130592293Y-102524240D01*
X130679647Y-102407684D01*
X130730777Y-102271295D01*
X130737532Y-102209113D01*
X130737532Y-100412845D01*
X130730777Y-100350663D01*
X130679647Y-100214274D01*
X130592293Y-100097718D01*
X130475737Y-100010364D01*
X130339348Y-99959234D01*
X130277166Y-99952479D01*
X128480898Y-99952479D01*
X128475342Y-99953083D01*
X128474839Y-99952992D01*
X128474104Y-99953032D01*
X128474095Y-99952859D01*
X128405462Y-99940557D01*
X128353444Y-99892238D01*
X128335732Y-99827820D01*
X128335732Y-98502830D01*
X140303751Y-98502830D01*
X140320300Y-98699913D01*
X140321999Y-98705837D01*
X140360724Y-98840887D01*
X140374815Y-98890029D01*
X140377634Y-98895514D01*
X140461680Y-99059048D01*
X140465219Y-99065935D01*
X140588067Y-99220932D01*
X140738682Y-99349115D01*
X140911326Y-99445603D01*
X141099424Y-99506719D01*
X141295809Y-99530137D01*
X141301944Y-99529665D01*
X141301946Y-99529665D01*
X141486862Y-99515436D01*
X141486866Y-99515435D01*
X141493004Y-99514963D01*
X141683495Y-99461777D01*
X141688999Y-99458997D01*
X141689001Y-99458996D01*
X141854527Y-99375383D01*
X141854529Y-99375382D01*
X141860028Y-99372604D01*
X142015879Y-99250840D01*
X142043235Y-99219148D01*
X142102888Y-99180651D01*
X142138616Y-99175479D01*
X144047526Y-99175479D01*
X144115647Y-99195481D01*
X144138164Y-99213953D01*
X144140236Y-99216099D01*
X144144067Y-99220932D01*
X144294682Y-99349115D01*
X144467326Y-99445603D01*
X144655424Y-99506719D01*
X144851809Y-99530137D01*
X144857944Y-99529665D01*
X144857946Y-99529665D01*
X145042862Y-99515436D01*
X145042866Y-99515435D01*
X145049004Y-99514963D01*
X145239495Y-99461777D01*
X145244999Y-99458997D01*
X145245001Y-99458996D01*
X145410527Y-99375383D01*
X145410529Y-99375382D01*
X145416028Y-99372604D01*
X145571879Y-99250840D01*
X145701110Y-99101124D01*
X145798801Y-98929158D01*
X145861229Y-98741492D01*
X145886017Y-98545274D01*
X145886412Y-98516979D01*
X145867112Y-98320146D01*
X145862623Y-98305276D01*
X145811729Y-98136710D01*
X145809948Y-98130810D01*
X145717098Y-97956183D01*
X145599599Y-97812115D01*
X145595992Y-97807692D01*
X145595989Y-97807689D01*
X145592097Y-97802917D01*
X145585756Y-97797671D01*
X145444457Y-97680778D01*
X145444453Y-97680776D01*
X145439707Y-97676849D01*
X145265733Y-97582781D01*
X145076800Y-97524297D01*
X145070675Y-97523653D01*
X145070674Y-97523653D01*
X144886236Y-97504268D01*
X144886234Y-97504268D01*
X144880107Y-97503624D01*
X144797608Y-97511132D01*
X144689283Y-97520990D01*
X144689280Y-97520991D01*
X144683144Y-97521549D01*
X144677238Y-97523287D01*
X144677234Y-97523288D01*
X144572108Y-97554228D01*
X144493413Y-97577389D01*
X144487955Y-97580242D01*
X144487951Y-97580244D01*
X144429632Y-97610733D01*
X144318142Y-97669019D01*
X144164007Y-97792947D01*
X144160045Y-97797669D01*
X144146785Y-97813471D01*
X144087675Y-97852797D01*
X144050264Y-97858479D01*
X142141241Y-97858479D01*
X142073120Y-97838477D01*
X142043599Y-97812115D01*
X142039992Y-97807692D01*
X142039988Y-97807688D01*
X142036097Y-97802917D01*
X141970172Y-97748379D01*
X141888457Y-97680778D01*
X141888453Y-97680776D01*
X141883707Y-97676849D01*
X141709733Y-97582781D01*
X141520800Y-97524297D01*
X141514675Y-97523653D01*
X141514674Y-97523653D01*
X141330236Y-97504268D01*
X141330234Y-97504268D01*
X141324107Y-97503624D01*
X141241608Y-97511132D01*
X141133283Y-97520990D01*
X141133280Y-97520991D01*
X141127144Y-97521549D01*
X141121238Y-97523287D01*
X141121234Y-97523288D01*
X141016108Y-97554228D01*
X140937413Y-97577389D01*
X140931955Y-97580242D01*
X140931951Y-97580244D01*
X140873632Y-97610733D01*
X140762142Y-97669019D01*
X140608007Y-97792947D01*
X140480878Y-97944453D01*
X140477911Y-97949851D01*
X140477907Y-97949856D01*
X140435091Y-98027739D01*
X140385599Y-98117766D01*
X140383738Y-98123633D01*
X140383737Y-98123635D01*
X140329190Y-98295589D01*
X140325797Y-98306285D01*
X140303751Y-98502830D01*
X128335732Y-98502830D01*
X128335732Y-95581830D01*
X140938751Y-95581830D01*
X140942154Y-95622358D01*
X140943008Y-95632521D01*
X140955300Y-95778913D01*
X140962434Y-95803792D01*
X141006892Y-95958834D01*
X141009815Y-95969029D01*
X141100219Y-96144935D01*
X141223067Y-96299932D01*
X141373682Y-96428115D01*
X141546326Y-96524603D01*
X141734424Y-96585719D01*
X141930809Y-96609137D01*
X141936944Y-96608665D01*
X141936946Y-96608665D01*
X142121862Y-96594436D01*
X142121866Y-96594435D01*
X142128004Y-96593963D01*
X142318495Y-96540777D01*
X142323999Y-96537997D01*
X142324001Y-96537996D01*
X142489527Y-96454383D01*
X142489529Y-96454382D01*
X142495028Y-96451604D01*
X142650879Y-96329840D01*
X142678235Y-96298148D01*
X142737888Y-96259651D01*
X142773616Y-96254479D01*
X151775976Y-96254479D01*
X151787832Y-96255038D01*
X151787835Y-96255038D01*
X151795569Y-96256767D01*
X151866401Y-96254541D01*
X151870359Y-96254479D01*
X151899464Y-96254479D01*
X151903864Y-96253923D01*
X151915696Y-96252991D01*
X151961863Y-96251541D01*
X151982453Y-96245559D01*
X152001814Y-96241549D01*
X152008802Y-96240667D01*
X152015236Y-96239854D01*
X152015237Y-96239854D01*
X152023096Y-96238861D01*
X152059337Y-96224512D01*
X152120639Y-96216550D01*
X152217809Y-96228137D01*
X152223944Y-96227665D01*
X152223946Y-96227665D01*
X152408862Y-96213436D01*
X152408866Y-96213435D01*
X152415004Y-96212963D01*
X152605495Y-96159777D01*
X152610999Y-96156997D01*
X152611001Y-96156996D01*
X152776527Y-96073383D01*
X152776529Y-96073382D01*
X152782028Y-96070604D01*
X152913178Y-95968139D01*
X152933023Y-95952634D01*
X152937879Y-95948840D01*
X153067110Y-95799124D01*
X153164801Y-95627158D01*
X153227229Y-95439492D01*
X153252017Y-95243274D01*
X153252412Y-95214979D01*
X153233112Y-95018146D01*
X153230501Y-95009496D01*
X153192027Y-94882067D01*
X153175948Y-94828810D01*
X153083098Y-94654183D01*
X152983194Y-94531689D01*
X152955640Y-94466257D01*
X152967835Y-94396316D01*
X152985455Y-94369722D01*
X152987116Y-94367798D01*
X153067110Y-94275124D01*
X153164801Y-94103158D01*
X153227229Y-93915492D01*
X153252017Y-93719274D01*
X153252412Y-93690979D01*
X153233112Y-93494146D01*
X153223806Y-93463321D01*
X153177729Y-93310710D01*
X153175948Y-93304810D01*
X153083098Y-93130183D01*
X152983194Y-93007689D01*
X152955640Y-92942257D01*
X152967835Y-92872316D01*
X152985455Y-92845722D01*
X153067110Y-92751124D01*
X153164801Y-92579158D01*
X153227229Y-92391492D01*
X153252017Y-92195274D01*
X153252412Y-92166979D01*
X153233112Y-91970146D01*
X153225068Y-91943501D01*
X153197760Y-91853056D01*
X153175948Y-91780810D01*
X153083098Y-91606183D01*
X152983194Y-91483689D01*
X152955640Y-91418257D01*
X152967835Y-91348316D01*
X152985455Y-91321722D01*
X153067110Y-91227124D01*
X153164801Y-91055158D01*
X153227229Y-90867492D01*
X153252017Y-90671274D01*
X153252412Y-90642979D01*
X153233112Y-90446146D01*
X153175948Y-90256810D01*
X153083098Y-90082183D01*
X152983194Y-89959689D01*
X152955640Y-89894257D01*
X152967835Y-89824316D01*
X152985455Y-89797722D01*
X153000849Y-89779888D01*
X153067110Y-89703124D01*
X153164801Y-89531158D01*
X153227229Y-89343492D01*
X153252017Y-89147274D01*
X153252412Y-89118979D01*
X153233112Y-88922146D01*
X153224590Y-88893918D01*
X153177729Y-88738710D01*
X153175948Y-88732810D01*
X153083098Y-88558183D01*
X152983194Y-88435689D01*
X152955640Y-88370257D01*
X152967835Y-88300316D01*
X152985455Y-88273722D01*
X153067110Y-88179124D01*
X153164801Y-88007158D01*
X153227229Y-87819492D01*
X153252017Y-87623274D01*
X153252412Y-87594979D01*
X153233112Y-87398146D01*
X153175948Y-87208810D01*
X153083098Y-87034183D01*
X152983194Y-86911689D01*
X152955640Y-86846257D01*
X152967835Y-86776316D01*
X152985455Y-86749722D01*
X152991475Y-86742748D01*
X153067110Y-86655124D01*
X153164801Y-86483158D01*
X153227229Y-86295492D01*
X153252017Y-86099274D01*
X153252412Y-86070979D01*
X153233112Y-85874146D01*
X153223806Y-85843321D01*
X153194759Y-85747115D01*
X153175948Y-85684810D01*
X153083098Y-85510183D01*
X152983194Y-85387689D01*
X152955640Y-85322257D01*
X152967835Y-85252316D01*
X152985455Y-85225722D01*
X152992647Y-85217390D01*
X153067110Y-85131124D01*
X153164801Y-84959158D01*
X153227229Y-84771492D01*
X153252017Y-84575274D01*
X153252412Y-84546979D01*
X153233112Y-84350146D01*
X153230040Y-84339969D01*
X153191237Y-84211451D01*
X153175948Y-84160810D01*
X153083098Y-83986183D01*
X153012741Y-83899917D01*
X152961992Y-83837692D01*
X152961989Y-83837689D01*
X152958097Y-83832917D01*
X152947321Y-83824002D01*
X152810457Y-83710778D01*
X152810453Y-83710776D01*
X152805707Y-83706849D01*
X152631733Y-83612781D01*
X152442800Y-83554297D01*
X152436675Y-83553653D01*
X152436674Y-83553653D01*
X152252236Y-83534268D01*
X152252234Y-83534268D01*
X152246107Y-83533624D01*
X152163608Y-83541132D01*
X152055283Y-83550990D01*
X152055280Y-83550991D01*
X152049144Y-83551549D01*
X152043238Y-83553287D01*
X152043234Y-83553288D01*
X151993332Y-83567975D01*
X151859413Y-83607389D01*
X151853955Y-83610242D01*
X151853951Y-83610244D01*
X151821168Y-83627383D01*
X151684142Y-83699019D01*
X151530007Y-83822947D01*
X151402878Y-83974453D01*
X151399911Y-83979851D01*
X151399907Y-83979856D01*
X151370807Y-84032790D01*
X151307599Y-84147766D01*
X151305738Y-84153633D01*
X151305737Y-84153635D01*
X151287397Y-84211451D01*
X151247797Y-84336285D01*
X151225751Y-84532830D01*
X151226267Y-84538974D01*
X151238145Y-84680431D01*
X151223913Y-84749986D01*
X151201682Y-84780069D01*
X150225177Y-85756574D01*
X150162865Y-85790600D01*
X150136082Y-85793479D01*
X142776241Y-85793479D01*
X142708120Y-85773477D01*
X142678599Y-85747115D01*
X142674992Y-85742692D01*
X142674988Y-85742688D01*
X142671097Y-85737917D01*
X142600327Y-85679371D01*
X142523457Y-85615778D01*
X142523453Y-85615776D01*
X142518707Y-85611849D01*
X142344733Y-85517781D01*
X142155800Y-85459297D01*
X142149675Y-85458653D01*
X142149674Y-85458653D01*
X141965236Y-85439268D01*
X141965234Y-85439268D01*
X141959107Y-85438624D01*
X141876608Y-85446132D01*
X141768283Y-85455990D01*
X141768280Y-85455991D01*
X141762144Y-85456549D01*
X141756238Y-85458287D01*
X141756234Y-85458288D01*
X141651108Y-85489228D01*
X141572413Y-85512389D01*
X141566955Y-85515242D01*
X141566951Y-85515244D01*
X141476179Y-85562699D01*
X141397142Y-85604019D01*
X141243007Y-85727947D01*
X141115878Y-85879453D01*
X141112911Y-85884851D01*
X141112907Y-85884856D01*
X141111218Y-85887929D01*
X141020599Y-86052766D01*
X141018738Y-86058633D01*
X141018737Y-86058635D01*
X141005846Y-86099274D01*
X140960797Y-86241285D01*
X140938751Y-86437830D01*
X140942066Y-86477305D01*
X140950084Y-86572790D01*
X140955300Y-86634913D01*
X140969782Y-86685417D01*
X141004026Y-86804840D01*
X141009815Y-86825029D01*
X141100219Y-87000935D01*
X141156293Y-87071683D01*
X141182931Y-87137493D01*
X141169760Y-87207258D01*
X141154072Y-87230935D01*
X141115878Y-87276453D01*
X141112911Y-87281851D01*
X141112907Y-87281856D01*
X141065760Y-87367617D01*
X141020599Y-87449766D01*
X141018738Y-87455633D01*
X141018737Y-87455635D01*
X140973417Y-87598502D01*
X140960797Y-87638285D01*
X140938751Y-87834830D01*
X140939267Y-87840974D01*
X140953672Y-88012521D01*
X140955300Y-88031913D01*
X140956999Y-88037837D01*
X140987272Y-88143411D01*
X141009815Y-88222029D01*
X141024931Y-88251442D01*
X141075877Y-88350570D01*
X141100219Y-88397935D01*
X141156293Y-88468683D01*
X141182931Y-88534493D01*
X141169760Y-88604258D01*
X141154072Y-88627935D01*
X141115878Y-88673453D01*
X141112911Y-88678851D01*
X141112907Y-88678856D01*
X141048768Y-88795526D01*
X141020599Y-88846766D01*
X141018738Y-88852633D01*
X141018737Y-88852635D01*
X140996687Y-88922146D01*
X140960797Y-89035285D01*
X140938751Y-89231830D01*
X140939267Y-89237974D01*
X140952241Y-89392478D01*
X140955300Y-89428913D01*
X141009815Y-89619029D01*
X141100219Y-89794935D01*
X141104048Y-89799766D01*
X141105871Y-89802067D01*
X141106446Y-89803488D01*
X141107385Y-89804945D01*
X141107108Y-89805123D01*
X141132506Y-89867877D01*
X141119333Y-89937641D01*
X141115878Y-89943453D01*
X141020599Y-90116766D01*
X141018738Y-90122633D01*
X141018737Y-90122635D01*
X140976174Y-90256810D01*
X140960797Y-90305285D01*
X140938751Y-90501830D01*
X140939267Y-90507974D01*
X140953736Y-90680284D01*
X140955300Y-90698913D01*
X141009815Y-90889029D01*
X141100219Y-91064935D01*
X141104048Y-91069766D01*
X141105871Y-91072067D01*
X141106446Y-91073488D01*
X141107385Y-91074945D01*
X141107108Y-91075123D01*
X141132506Y-91137877D01*
X141119333Y-91207641D01*
X141115878Y-91213453D01*
X141020599Y-91386766D01*
X141018738Y-91392633D01*
X141018737Y-91392635D01*
X140989853Y-91483689D01*
X140960797Y-91575285D01*
X140938751Y-91771830D01*
X140940568Y-91793468D01*
X140952179Y-91931739D01*
X140955300Y-91968913D01*
X140959104Y-91982179D01*
X141000034Y-92124917D01*
X141009815Y-92159029D01*
X141100219Y-92334935D01*
X141104048Y-92339766D01*
X141105871Y-92342067D01*
X141106446Y-92343488D01*
X141107385Y-92344945D01*
X141107108Y-92345123D01*
X141132506Y-92407877D01*
X141119333Y-92477641D01*
X141115878Y-92483453D01*
X141020599Y-92656766D01*
X141018738Y-92662633D01*
X141018737Y-92662635D01*
X141007449Y-92698219D01*
X140960797Y-92845285D01*
X140938751Y-93041830D01*
X140939267Y-93047974D01*
X140953736Y-93220284D01*
X140955300Y-93238913D01*
X141009815Y-93429029D01*
X141100219Y-93604935D01*
X141104048Y-93609766D01*
X141105871Y-93612067D01*
X141106446Y-93613488D01*
X141107385Y-93614945D01*
X141107108Y-93615123D01*
X141132506Y-93677877D01*
X141119333Y-93747641D01*
X141115878Y-93753453D01*
X141020599Y-93926766D01*
X141018738Y-93932633D01*
X141018737Y-93932635D01*
X140992315Y-94015929D01*
X140960797Y-94115285D01*
X140938751Y-94311830D01*
X140939267Y-94317974D01*
X140954629Y-94500917D01*
X140955300Y-94508913D01*
X140975144Y-94578116D01*
X140998516Y-94659624D01*
X141009815Y-94699029D01*
X141012634Y-94704514D01*
X141091666Y-94858292D01*
X141100219Y-94874935D01*
X141104048Y-94879766D01*
X141105871Y-94882067D01*
X141106446Y-94883488D01*
X141107385Y-94884945D01*
X141107108Y-94885123D01*
X141132506Y-94947877D01*
X141119333Y-95017641D01*
X141115878Y-95023453D01*
X141020599Y-95196766D01*
X141018738Y-95202633D01*
X141018737Y-95202635D01*
X141005846Y-95243274D01*
X140960797Y-95385285D01*
X140938751Y-95581830D01*
X128335732Y-95581830D01*
X128335732Y-94858292D01*
X128355734Y-94790171D01*
X128409390Y-94743678D01*
X128479664Y-94733574D01*
X128542217Y-94761348D01*
X128593466Y-94803895D01*
X128601913Y-94809810D01*
X128785788Y-94917258D01*
X128795074Y-94921708D01*
X128994033Y-94997682D01*
X129003931Y-95000558D01*
X129107282Y-95021585D01*
X129121331Y-95020389D01*
X129125032Y-95010044D01*
X129125032Y-95009496D01*
X129633032Y-95009496D01*
X129637096Y-95023338D01*
X129650510Y-95025372D01*
X129657216Y-95024513D01*
X129667294Y-95022371D01*
X129871287Y-94961170D01*
X129880874Y-94957412D01*
X130072127Y-94863718D01*
X130080977Y-94858443D01*
X130254360Y-94734771D01*
X130262232Y-94728118D01*
X130413084Y-94577791D01*
X130419762Y-94569944D01*
X130544035Y-94396999D01*
X130549345Y-94388162D01*
X130643702Y-94197246D01*
X130647501Y-94187651D01*
X130709409Y-93983889D01*
X130711587Y-93973816D01*
X130713018Y-93962941D01*
X130710807Y-93948757D01*
X130697649Y-93944979D01*
X129651147Y-93944979D01*
X129635908Y-93949454D01*
X129634703Y-93950844D01*
X129633032Y-93958527D01*
X129633032Y-95009496D01*
X129125032Y-95009496D01*
X129125032Y-93562979D01*
X129145034Y-93494858D01*
X129198690Y-93448365D01*
X129251032Y-93436979D01*
X130697376Y-93436979D01*
X130710907Y-93433006D01*
X130712212Y-93423926D01*
X130670246Y-93256854D01*
X130666926Y-93247103D01*
X130582004Y-93051793D01*
X130577137Y-93042718D01*
X130461458Y-92863905D01*
X130455168Y-92855736D01*
X130311838Y-92698219D01*
X130304305Y-92691194D01*
X130137171Y-92559201D01*
X130128588Y-92553499D01*
X130091634Y-92533099D01*
X130041663Y-92482666D01*
X130026891Y-92413224D01*
X130052007Y-92346818D01*
X130079359Y-92320211D01*
X130102829Y-92303470D01*
X130258892Y-92192152D01*
X130287671Y-92163474D01*
X130340241Y-92111086D01*
X130417128Y-92034468D01*
X130432026Y-92013736D01*
X130544467Y-91857256D01*
X130547485Y-91853056D01*
X130557140Y-91833522D01*
X130644168Y-91657432D01*
X130644169Y-91657430D01*
X130646462Y-91652790D01*
X130711402Y-91439048D01*
X130740561Y-91217569D01*
X130742188Y-91150979D01*
X130723884Y-90928340D01*
X130669463Y-90711681D01*
X130580386Y-90506819D01*
X130486779Y-90362124D01*
X130461854Y-90323596D01*
X130461852Y-90323593D01*
X130459046Y-90319256D01*
X130308702Y-90154030D01*
X130304651Y-90150831D01*
X130304647Y-90150827D01*
X130137446Y-90018779D01*
X130137442Y-90018777D01*
X130133391Y-90015577D01*
X130092085Y-89992775D01*
X130042116Y-89942343D01*
X130027344Y-89872900D01*
X130052460Y-89806495D01*
X130079812Y-89779888D01*
X130123635Y-89748629D01*
X130258892Y-89652152D01*
X130417128Y-89494468D01*
X130547485Y-89313056D01*
X130585861Y-89235409D01*
X130644168Y-89117432D01*
X130644169Y-89117430D01*
X130646462Y-89112790D01*
X130711402Y-88899048D01*
X130740561Y-88677569D01*
X130742188Y-88610979D01*
X130723884Y-88388340D01*
X130669463Y-88171681D01*
X130580386Y-87966819D01*
X130495728Y-87835957D01*
X130461854Y-87783596D01*
X130461852Y-87783593D01*
X130459046Y-87779256D01*
X130308702Y-87614030D01*
X130304651Y-87610831D01*
X130304647Y-87610827D01*
X130137446Y-87478779D01*
X130137442Y-87478777D01*
X130133391Y-87475577D01*
X130092085Y-87452775D01*
X130042116Y-87402343D01*
X130027344Y-87332900D01*
X130052460Y-87266495D01*
X130079812Y-87239888D01*
X130202721Y-87152218D01*
X130258892Y-87112152D01*
X130417128Y-86954468D01*
X130469980Y-86880917D01*
X130544467Y-86777256D01*
X130547485Y-86773056D01*
X130551960Y-86764003D01*
X130644168Y-86577432D01*
X130644169Y-86577430D01*
X130646462Y-86572790D01*
X130711402Y-86359048D01*
X130740561Y-86137569D01*
X130742188Y-86070979D01*
X130723884Y-85848340D01*
X130669463Y-85631681D01*
X130580386Y-85426819D01*
X130459046Y-85239256D01*
X130308702Y-85074030D01*
X130304651Y-85070831D01*
X130304647Y-85070827D01*
X130137446Y-84938779D01*
X130137442Y-84938777D01*
X130133391Y-84935577D01*
X130092085Y-84912775D01*
X130042116Y-84862343D01*
X130027344Y-84792900D01*
X130052460Y-84726495D01*
X130079812Y-84699888D01*
X130123635Y-84668629D01*
X130258892Y-84572152D01*
X130287671Y-84543474D01*
X130413467Y-84418116D01*
X130417128Y-84414468D01*
X130467590Y-84344243D01*
X130544467Y-84237256D01*
X130547485Y-84233056D01*
X130570733Y-84186018D01*
X130644168Y-84037432D01*
X130644169Y-84037430D01*
X130646462Y-84032790D01*
X130711402Y-83819048D01*
X130740561Y-83597569D01*
X130741643Y-83553288D01*
X130742106Y-83534344D01*
X130742106Y-83534340D01*
X130742188Y-83530979D01*
X130723884Y-83308340D01*
X130669463Y-83091681D01*
X130580386Y-82886819D01*
X130504152Y-82768979D01*
X130461854Y-82703596D01*
X130461852Y-82703593D01*
X130459046Y-82699256D01*
X130308702Y-82534030D01*
X130304651Y-82530831D01*
X130304647Y-82530827D01*
X130137446Y-82398779D01*
X130137442Y-82398777D01*
X130133391Y-82395577D01*
X130092085Y-82372775D01*
X130042116Y-82322343D01*
X130027344Y-82252900D01*
X130052460Y-82186495D01*
X130079812Y-82159888D01*
X130123635Y-82128629D01*
X130258892Y-82032152D01*
X130417128Y-81874468D01*
X130443541Y-81837711D01*
X130544467Y-81697256D01*
X130547485Y-81693056D01*
X130585861Y-81615409D01*
X130644168Y-81497432D01*
X130644169Y-81497430D01*
X130646462Y-81492790D01*
X130711402Y-81279048D01*
X130740561Y-81057569D01*
X130742188Y-80990979D01*
X130723884Y-80768340D01*
X130669463Y-80551681D01*
X130580386Y-80346819D01*
X130533770Y-80274762D01*
X130461854Y-80163596D01*
X130461852Y-80163593D01*
X130459046Y-80159256D01*
X130440179Y-80138521D01*
X130311830Y-79997467D01*
X130280778Y-79933621D01*
X130289173Y-79863122D01*
X130334349Y-79808354D01*
X130360793Y-79794685D01*
X130467329Y-79754746D01*
X130475737Y-79751594D01*
X130535465Y-79706830D01*
X136747751Y-79706830D01*
X136748267Y-79712974D01*
X136758327Y-79832776D01*
X136764300Y-79903913D01*
X136818815Y-80094029D01*
X136909219Y-80269935D01*
X137032067Y-80424932D01*
X137036760Y-80428926D01*
X137036761Y-80428927D01*
X137144106Y-80520284D01*
X137182682Y-80553115D01*
X137355326Y-80649603D01*
X137543424Y-80710719D01*
X137739809Y-80734137D01*
X137745944Y-80733665D01*
X137745946Y-80733665D01*
X137930862Y-80719436D01*
X137930866Y-80719435D01*
X137937004Y-80718963D01*
X138127495Y-80665777D01*
X138132999Y-80662997D01*
X138133001Y-80662996D01*
X138298527Y-80579383D01*
X138298529Y-80579382D01*
X138304028Y-80576604D01*
X138459879Y-80454840D01*
X138589110Y-80305124D01*
X138686801Y-80133158D01*
X138749229Y-79945492D01*
X138774017Y-79749274D01*
X138774412Y-79720979D01*
X138772891Y-79705468D01*
X138786150Y-79635721D01*
X138809194Y-79604077D01*
X139520886Y-78892384D01*
X139583199Y-78858359D01*
X139609982Y-78855479D01*
X142262082Y-78855479D01*
X142330203Y-78875481D01*
X142351177Y-78892384D01*
X144232295Y-80773501D01*
X146109717Y-82650923D01*
X146143743Y-82713235D01*
X146145248Y-82742526D01*
X146146524Y-82742544D01*
X146146438Y-82748704D01*
X146145751Y-82754830D01*
X146146267Y-82760974D01*
X146159577Y-82919479D01*
X146162300Y-82951913D01*
X146163999Y-82957837D01*
X146206821Y-83107175D01*
X146216815Y-83142029D01*
X146219634Y-83147514D01*
X146282877Y-83270570D01*
X146307219Y-83317935D01*
X146430067Y-83472932D01*
X146434760Y-83476926D01*
X146434761Y-83476927D01*
X146541743Y-83567975D01*
X146580682Y-83601115D01*
X146753326Y-83697603D01*
X146941424Y-83758719D01*
X147137809Y-83782137D01*
X147143944Y-83781665D01*
X147143946Y-83781665D01*
X147328862Y-83767436D01*
X147328866Y-83767435D01*
X147335004Y-83766963D01*
X147525495Y-83713777D01*
X147530999Y-83710997D01*
X147531001Y-83710996D01*
X147696527Y-83627383D01*
X147696529Y-83627382D01*
X147702028Y-83624604D01*
X147857879Y-83502840D01*
X147987110Y-83353124D01*
X148084801Y-83181158D01*
X148147229Y-82993492D01*
X148172017Y-82797274D01*
X148172412Y-82768979D01*
X148153112Y-82572146D01*
X148095948Y-82382810D01*
X148003098Y-82208183D01*
X147918378Y-82104306D01*
X147881992Y-82059692D01*
X147881989Y-82059689D01*
X147878097Y-82054917D01*
X147846174Y-82028508D01*
X147730457Y-81932778D01*
X147730453Y-81932776D01*
X147725707Y-81928849D01*
X147551733Y-81834781D01*
X147362800Y-81776297D01*
X147356675Y-81775653D01*
X147356674Y-81775653D01*
X147172236Y-81756268D01*
X147172234Y-81756268D01*
X147166107Y-81755624D01*
X147143153Y-81757713D01*
X147073501Y-81743968D01*
X147042639Y-81721327D01*
X143110687Y-77789374D01*
X143102697Y-77780594D01*
X143102695Y-77780592D01*
X143098448Y-77773899D01*
X143071659Y-77748742D01*
X143046775Y-77725375D01*
X143043933Y-77722620D01*
X143023365Y-77702052D01*
X143019858Y-77699332D01*
X143010836Y-77691626D01*
X142977165Y-77660007D01*
X142970213Y-77656185D01*
X142958374Y-77649676D01*
X142941850Y-77638822D01*
X142931164Y-77630534D01*
X142924900Y-77625675D01*
X142917628Y-77622528D01*
X142917626Y-77622527D01*
X142882497Y-77607325D01*
X142871837Y-77602103D01*
X142838316Y-77583674D01*
X142838314Y-77583673D01*
X142831369Y-77579855D01*
X142810591Y-77574520D01*
X142791901Y-77568121D01*
X142772208Y-77559599D01*
X142726584Y-77552373D01*
X142714961Y-77549966D01*
X142680693Y-77541168D01*
X142670220Y-77538479D01*
X142648773Y-77538479D01*
X142629063Y-77536928D01*
X142615709Y-77534813D01*
X142607880Y-77533573D01*
X142561891Y-77537920D01*
X142550036Y-77538479D01*
X139367088Y-77538479D01*
X139355232Y-77537920D01*
X139355229Y-77537920D01*
X139347495Y-77536191D01*
X139292478Y-77537920D01*
X139276663Y-77538417D01*
X139272705Y-77538479D01*
X139243600Y-77538479D01*
X139239200Y-77539035D01*
X139227368Y-77539967D01*
X139181201Y-77541417D01*
X139160611Y-77547399D01*
X139141250Y-77551409D01*
X139134262Y-77552291D01*
X139127828Y-77553104D01*
X139127827Y-77553104D01*
X139119968Y-77554097D01*
X139112603Y-77557013D01*
X139112599Y-77557014D01*
X139077014Y-77571103D01*
X139065784Y-77574948D01*
X139021431Y-77587834D01*
X139014607Y-77591870D01*
X139002975Y-77598749D01*
X138985219Y-77607448D01*
X138965276Y-77615344D01*
X138951057Y-77625675D01*
X138927900Y-77642499D01*
X138917981Y-77649014D01*
X138885055Y-77668487D01*
X138885051Y-77668490D01*
X138878225Y-77672527D01*
X138863064Y-77687688D01*
X138848032Y-77700527D01*
X138830675Y-77713138D01*
X138825625Y-77719242D01*
X138825623Y-77719244D01*
X138801220Y-77748742D01*
X138793231Y-77757520D01*
X137878489Y-78672262D01*
X137816177Y-78706288D01*
X137780402Y-78708248D01*
X137780402Y-78708311D01*
X137779383Y-78708304D01*
X137776224Y-78708477D01*
X137774237Y-78708268D01*
X137774234Y-78708268D01*
X137768107Y-78707624D01*
X137685608Y-78715132D01*
X137577283Y-78724990D01*
X137577280Y-78724991D01*
X137571144Y-78725549D01*
X137565238Y-78727287D01*
X137565234Y-78727288D01*
X137508445Y-78744002D01*
X137381413Y-78781389D01*
X137375955Y-78784242D01*
X137375951Y-78784244D01*
X137285179Y-78831699D01*
X137206142Y-78873019D01*
X137052007Y-78996947D01*
X136924878Y-79148453D01*
X136921911Y-79153851D01*
X136921907Y-79153856D01*
X136895365Y-79202137D01*
X136829599Y-79321766D01*
X136827738Y-79327633D01*
X136827737Y-79327635D01*
X136798851Y-79418694D01*
X136769797Y-79510285D01*
X136747751Y-79706830D01*
X130535465Y-79706830D01*
X130592293Y-79664240D01*
X130679647Y-79547684D01*
X130730777Y-79411295D01*
X130737532Y-79349113D01*
X130737532Y-77552845D01*
X130730777Y-77490663D01*
X130679647Y-77354274D01*
X130592293Y-77237718D01*
X130475737Y-77150364D01*
X130339348Y-77099234D01*
X130277166Y-77092479D01*
X128480898Y-77092479D01*
X128418716Y-77099234D01*
X128282327Y-77150364D01*
X128165771Y-77237718D01*
X128078417Y-77354274D01*
X128027287Y-77490663D01*
X128020532Y-77552845D01*
X128020532Y-79349113D01*
X128027287Y-79411295D01*
X128078417Y-79547684D01*
X128165771Y-79664240D01*
X128282327Y-79751594D01*
X128290736Y-79754746D01*
X128290737Y-79754747D01*
X128399483Y-79795514D01*
X128456248Y-79838155D01*
X128480948Y-79904717D01*
X128465741Y-79974066D01*
X128446348Y-80000547D01*
X128319661Y-80133117D01*
X128316747Y-80137389D01*
X128316746Y-80137390D01*
X128304441Y-80155429D01*
X128193775Y-80317659D01*
X128099720Y-80520284D01*
X128040021Y-80735549D01*
X128016283Y-80957674D01*
X128016580Y-80962827D01*
X128016580Y-80962830D01*
X128022043Y-81057569D01*
X128029142Y-81180694D01*
X128030279Y-81185740D01*
X128030280Y-81185746D01*
X128050151Y-81273918D01*
X128078254Y-81398618D01*
X128116493Y-81492790D01*
X128160104Y-81600191D01*
X128162298Y-81605595D01*
X128205704Y-81676428D01*
X128264564Y-81772478D01*
X128279019Y-81796067D01*
X128425282Y-81964917D01*
X128597158Y-82107611D01*
X128667627Y-82148790D01*
X128670477Y-82150455D01*
X128719201Y-82202093D01*
X128732272Y-82271876D01*
X128705541Y-82337648D01*
X128665087Y-82371006D01*
X128652639Y-82377486D01*
X128648506Y-82380589D01*
X128648503Y-82380591D01*
X128624279Y-82398779D01*
X128473997Y-82511614D01*
X128319661Y-82673117D01*
X128193775Y-82857659D01*
X128150024Y-82951913D01*
X128121231Y-83013943D01*
X128099720Y-83060284D01*
X128040021Y-83275549D01*
X128016283Y-83497674D01*
X128016580Y-83502827D01*
X128016580Y-83502830D01*
X128023762Y-83627383D01*
X128029142Y-83720694D01*
X128030279Y-83725740D01*
X128030280Y-83725746D01*
X128042989Y-83782137D01*
X128078254Y-83938618D01*
X128162298Y-84145595D01*
X128205704Y-84216428D01*
X128264564Y-84312478D01*
X128279019Y-84336067D01*
X128425282Y-84504917D01*
X128597158Y-84647611D01*
X128653323Y-84680431D01*
X128670477Y-84690455D01*
X128719201Y-84742093D01*
X128732272Y-84811876D01*
X128705541Y-84877648D01*
X128665087Y-84911006D01*
X128652639Y-84917486D01*
X128648506Y-84920589D01*
X128648503Y-84920591D01*
X128624279Y-84938779D01*
X128473997Y-85051614D01*
X128470425Y-85055352D01*
X128403139Y-85125763D01*
X128319661Y-85213117D01*
X128316747Y-85217389D01*
X128316746Y-85217390D01*
X128253799Y-85309667D01*
X128193775Y-85397659D01*
X128099720Y-85600284D01*
X128040021Y-85815549D01*
X128016283Y-86037674D01*
X128016580Y-86042827D01*
X128016580Y-86042830D01*
X128022043Y-86137569D01*
X128029142Y-86260694D01*
X128030279Y-86265741D01*
X128030280Y-86265745D01*
X128035605Y-86289372D01*
X128051308Y-86359048D01*
X128055983Y-86379794D01*
X128051447Y-86450645D01*
X128022161Y-86496590D01*
X126770116Y-87748635D01*
X126761336Y-87756625D01*
X126761334Y-87756627D01*
X126754641Y-87760874D01*
X126749215Y-87766652D01*
X126749214Y-87766653D01*
X126706117Y-87812547D01*
X126703362Y-87815389D01*
X126682794Y-87835957D01*
X126680077Y-87839460D01*
X126672369Y-87848485D01*
X126640749Y-87882157D01*
X126636928Y-87889108D01*
X126636927Y-87889109D01*
X126630418Y-87900948D01*
X126619564Y-87917472D01*
X126611739Y-87927561D01*
X126606417Y-87934422D01*
X126603270Y-87941694D01*
X126603269Y-87941696D01*
X126588067Y-87976825D01*
X126582845Y-87987485D01*
X126565255Y-88019481D01*
X126560597Y-88027953D01*
X126555262Y-88048731D01*
X126548863Y-88067421D01*
X126540341Y-88087114D01*
X126539101Y-88094945D01*
X126533115Y-88132738D01*
X126530708Y-88144361D01*
X126519221Y-88189102D01*
X126519221Y-88210549D01*
X126517670Y-88230259D01*
X126514315Y-88251442D01*
X126077530Y-88251442D01*
X126077530Y-83235514D01*
X126077531Y-69600577D01*
X126097533Y-69532456D01*
X126151189Y-69485963D01*
X126221463Y-69475859D01*
X126286043Y-69505353D01*
X126320764Y-69554398D01*
X126366406Y-69670267D01*
X126532989Y-69987561D01*
X126534890Y-69990390D01*
X126534896Y-69990400D01*
X126718601Y-70263779D01*
X126732866Y-70285008D01*
X126963697Y-70559129D01*
X127222783Y-70806717D01*
X127507093Y-71024876D01*
X127539088Y-71044329D01*
X127810387Y-71209282D01*
X127810392Y-71209285D01*
X127813302Y-71211054D01*
X127816390Y-71212500D01*
X127816389Y-71212500D01*
X128134742Y-71361628D01*
X128134752Y-71361632D01*
X128137826Y-71363072D01*
X128141044Y-71364174D01*
X128141047Y-71364175D01*
X128473647Y-71478050D01*
X128473655Y-71478052D01*
X128476870Y-71479153D01*
X128826467Y-71557938D01*
X128878760Y-71563896D01*
X129179146Y-71598121D01*
X129179154Y-71598121D01*
X129182529Y-71598506D01*
X129185933Y-71598524D01*
X129185936Y-71598524D01*
X129380259Y-71599541D01*
X129540889Y-71600382D01*
X129544275Y-71600032D01*
X129544277Y-71600032D01*
X129893964Y-71563896D01*
X129893973Y-71563895D01*
X129897356Y-71563545D01*
X129900689Y-71562831D01*
X129900692Y-71562830D01*
X130073218Y-71525843D01*
X130247759Y-71488425D01*
X130588000Y-71375901D01*
X130914098Y-71227290D01*
X131008084Y-71171485D01*
X131219294Y-71046078D01*
X131219299Y-71046075D01*
X131222239Y-71044329D01*
X131508818Y-70829159D01*
X131770483Y-70584298D01*
X132004172Y-70312609D01*
X132110782Y-70157491D01*
X132205222Y-70020080D01*
X132205227Y-70020073D01*
X132207152Y-70017271D01*
X132208764Y-70014277D01*
X132208769Y-70014269D01*
X132375427Y-69704751D01*
X132377049Y-69701739D01*
X132511874Y-69369703D01*
X132522174Y-69333547D01*
X132542559Y-69261985D01*
X132610052Y-69025049D01*
X132670433Y-68671807D01*
X132672543Y-68637319D01*
X132692200Y-68315907D01*
X132692310Y-68314110D01*
X132692391Y-68290979D01*
X132673011Y-67933138D01*
X132615098Y-67579484D01*
X132519329Y-67234152D01*
X132516275Y-67226476D01*
X132388084Y-66904348D01*
X132386825Y-66901184D01*
X132356800Y-66844477D01*
X132220734Y-66587492D01*
X132220730Y-66587485D01*
X132219135Y-66584473D01*
X132018222Y-66287725D01*
X131786435Y-66014411D01*
X131526486Y-65767729D01*
X131241416Y-65550564D01*
X131238504Y-65548807D01*
X131238499Y-65548804D01*
X130937475Y-65367215D01*
X130937469Y-65367212D01*
X130934560Y-65365457D01*
X130765528Y-65286995D01*
X130642240Y-65229766D01*
X130588873Y-65182942D01*
X130569293Y-65114699D01*
X130589717Y-65046703D01*
X130643659Y-65000544D01*
X130695291Y-64989479D01*
X151579802Y-64989479D01*
X172513917Y-64989480D01*
G37*
G04 #@! TD.AperFunction*
M02*
