G04 #@! TF.GenerationSoftware,KiCad,Pcbnew,6.0.6-3a73a75311~116~ubuntu22.04.1*
G04 #@! TF.CreationDate,2022-06-24T09:32:34-04:00*
G04 #@! TF.ProjectId,led_breakout,6c65645f-6272-4656-916b-6f75742e6b69,0*
G04 #@! TF.SameCoordinates,Original*
G04 #@! TF.FileFunction,Legend,Bot*
G04 #@! TF.FilePolarity,Positive*
%FSLAX46Y46*%
G04 Gerber Fmt 4.6, Leading zero omitted, Abs format (unit mm)*
G04 Created by KiCad (PCBNEW 6.0.6-3a73a75311~116~ubuntu22.04.1) date 2022-06-24 09:32:34*
%MOMM*%
%LPD*%
G01*
G04 APERTURE LIST*
%ADD10C,0.150000*%
%ADD11C,5.600000*%
%ADD12R,1.700000X1.700000*%
%ADD13O,1.700000X1.700000*%
G04 APERTURE END LIST*
D10*
X160841055Y-104335740D02*
X160698198Y-104383359D01*
X160460103Y-104383359D01*
X160364865Y-104335740D01*
X160317246Y-104288121D01*
X160269627Y-104192883D01*
X160269627Y-104097645D01*
X160317246Y-104002407D01*
X160364865Y-103954788D01*
X160460103Y-103907169D01*
X160650579Y-103859550D01*
X160745817Y-103811931D01*
X160793436Y-103764312D01*
X160841055Y-103669074D01*
X160841055Y-103573836D01*
X160793436Y-103478598D01*
X160745817Y-103430979D01*
X160650579Y-103383359D01*
X160412484Y-103383359D01*
X160269627Y-103430979D01*
X159460103Y-104335740D02*
X159555341Y-104383359D01*
X159745817Y-104383359D01*
X159841055Y-104335740D01*
X159888674Y-104240502D01*
X159888674Y-103859550D01*
X159841055Y-103764312D01*
X159745817Y-103716693D01*
X159555341Y-103716693D01*
X159460103Y-103764312D01*
X159412484Y-103859550D01*
X159412484Y-103954788D01*
X159888674Y-104050026D01*
X159126770Y-103716693D02*
X158745817Y-103716693D01*
X158983912Y-103383359D02*
X158983912Y-104240502D01*
X158936293Y-104335740D01*
X158841055Y-104383359D01*
X158745817Y-104383359D01*
X157650579Y-103716693D02*
X157650579Y-104573836D01*
X157698198Y-104669074D01*
X157793436Y-104716693D01*
X157841055Y-104716693D01*
X157650579Y-103383359D02*
X157698198Y-103430979D01*
X157650579Y-103478598D01*
X157602960Y-103430979D01*
X157650579Y-103383359D01*
X157650579Y-103478598D01*
X156745817Y-103716693D02*
X156745817Y-104383359D01*
X157174389Y-103716693D02*
X157174389Y-104240502D01*
X157126770Y-104335740D01*
X157031532Y-104383359D01*
X156888674Y-104383359D01*
X156793436Y-104335740D01*
X156745817Y-104288121D01*
X156269627Y-104383359D02*
X156269627Y-103716693D01*
X156269627Y-103811931D02*
X156222008Y-103764312D01*
X156126770Y-103716693D01*
X155983912Y-103716693D01*
X155888674Y-103764312D01*
X155841055Y-103859550D01*
X155841055Y-104383359D01*
X155841055Y-103859550D02*
X155793436Y-103764312D01*
X155698198Y-103716693D01*
X155555341Y-103716693D01*
X155460103Y-103764312D01*
X155412484Y-103859550D01*
X155412484Y-104383359D01*
X154936293Y-103716693D02*
X154936293Y-104716693D01*
X154936293Y-103764312D02*
X154841055Y-103716693D01*
X154650579Y-103716693D01*
X154555341Y-103764312D01*
X154507722Y-103811931D01*
X154460103Y-103907169D01*
X154460103Y-104192883D01*
X154507722Y-104288121D01*
X154555341Y-104335740D01*
X154650579Y-104383359D01*
X154841055Y-104383359D01*
X154936293Y-104335740D01*
X153650579Y-104335740D02*
X153745817Y-104383359D01*
X153936293Y-104383359D01*
X154031532Y-104335740D01*
X154079151Y-104240502D01*
X154079151Y-103859550D01*
X154031532Y-103764312D01*
X153936293Y-103716693D01*
X153745817Y-103716693D01*
X153650579Y-103764312D01*
X153602960Y-103859550D01*
X153602960Y-103954788D01*
X154079151Y-104050026D01*
X153174389Y-104383359D02*
X153174389Y-103716693D01*
X153174389Y-103907169D02*
X153126770Y-103811931D01*
X153079151Y-103764312D01*
X152983912Y-103716693D01*
X152888674Y-103716693D01*
X152602960Y-104335740D02*
X152507722Y-104383359D01*
X152317246Y-104383359D01*
X152222008Y-104335740D01*
X152174389Y-104240502D01*
X152174389Y-104192883D01*
X152222008Y-104097645D01*
X152317246Y-104050026D01*
X152460103Y-104050026D01*
X152555341Y-104002407D01*
X152602960Y-103907169D01*
X152602960Y-103859550D01*
X152555341Y-103764312D01*
X152460103Y-103716693D01*
X152317246Y-103716693D01*
X152222008Y-103764312D01*
X151126770Y-103716693D02*
X150745817Y-103716693D01*
X150983912Y-103383359D02*
X150983912Y-104240502D01*
X150936293Y-104335740D01*
X150841055Y-104383359D01*
X150745817Y-104383359D01*
X150269627Y-104383359D02*
X150364865Y-104335740D01*
X150412484Y-104288121D01*
X150460103Y-104192883D01*
X150460103Y-103907169D01*
X150412484Y-103811931D01*
X150364865Y-103764312D01*
X150269627Y-103716693D01*
X150126770Y-103716693D01*
X150031532Y-103764312D01*
X149983912Y-103811931D01*
X149936293Y-103907169D01*
X149936293Y-104192883D01*
X149983912Y-104288121D01*
X150031532Y-104335740D01*
X150126770Y-104383359D01*
X150269627Y-104383359D01*
X148745817Y-104383359D02*
X148745817Y-103383359D01*
X148412484Y-104097645D01*
X148079151Y-103383359D01*
X148079151Y-104383359D01*
X147412484Y-103383359D02*
X147222008Y-103383359D01*
X147126770Y-103430979D01*
X147031532Y-103526217D01*
X146983912Y-103716693D01*
X146983912Y-104050026D01*
X147031532Y-104240502D01*
X147126770Y-104335740D01*
X147222008Y-104383359D01*
X147412484Y-104383359D01*
X147507722Y-104335740D01*
X147602960Y-104240502D01*
X147650579Y-104050026D01*
X147650579Y-103716693D01*
X147602960Y-103526217D01*
X147507722Y-103430979D01*
X147412484Y-103383359D01*
X146602960Y-104335740D02*
X146460103Y-104383359D01*
X146222008Y-104383359D01*
X146126770Y-104335740D01*
X146079151Y-104288121D01*
X146031532Y-104192883D01*
X146031532Y-104097645D01*
X146079151Y-104002407D01*
X146126770Y-103954788D01*
X146222008Y-103907169D01*
X146412484Y-103859550D01*
X146507722Y-103811931D01*
X146555341Y-103764312D01*
X146602960Y-103669074D01*
X146602960Y-103573836D01*
X146555341Y-103478598D01*
X146507722Y-103430979D01*
X146412484Y-103383359D01*
X146174389Y-103383359D01*
X146031532Y-103430979D01*
X145602960Y-104383359D02*
X145602960Y-103383359D01*
X160364865Y-105993359D02*
X160364865Y-105469550D01*
X160412484Y-105374312D01*
X160507722Y-105326693D01*
X160698198Y-105326693D01*
X160793436Y-105374312D01*
X160364865Y-105945740D02*
X160460103Y-105993359D01*
X160698198Y-105993359D01*
X160793436Y-105945740D01*
X160841055Y-105850502D01*
X160841055Y-105755264D01*
X160793436Y-105660026D01*
X160698198Y-105612407D01*
X160460103Y-105612407D01*
X160364865Y-105564788D01*
X159888674Y-105326693D02*
X159888674Y-105993359D01*
X159888674Y-105421931D02*
X159841055Y-105374312D01*
X159745817Y-105326693D01*
X159602960Y-105326693D01*
X159507722Y-105374312D01*
X159460103Y-105469550D01*
X159460103Y-105993359D01*
X158555341Y-105993359D02*
X158555341Y-104993359D01*
X158555341Y-105945740D02*
X158650579Y-105993359D01*
X158841055Y-105993359D01*
X158936293Y-105945740D01*
X158983912Y-105898121D01*
X159031532Y-105802883D01*
X159031532Y-105517169D01*
X158983912Y-105421931D01*
X158936293Y-105374312D01*
X158841055Y-105326693D01*
X158650579Y-105326693D01*
X158555341Y-105374312D01*
X156745817Y-105898121D02*
X156793436Y-105945740D01*
X156936293Y-105993359D01*
X157031532Y-105993359D01*
X157174389Y-105945740D01*
X157269627Y-105850502D01*
X157317246Y-105755264D01*
X157364865Y-105564788D01*
X157364865Y-105421931D01*
X157317246Y-105231455D01*
X157269627Y-105136217D01*
X157174389Y-105040979D01*
X157031532Y-104993359D01*
X156936293Y-104993359D01*
X156793436Y-105040979D01*
X156745817Y-105088598D01*
X156364865Y-105945740D02*
X156222008Y-105993359D01*
X155983912Y-105993359D01*
X155888674Y-105945740D01*
X155841055Y-105898121D01*
X155793436Y-105802883D01*
X155793436Y-105707645D01*
X155841055Y-105612407D01*
X155888674Y-105564788D01*
X155983912Y-105517169D01*
X156174389Y-105469550D01*
X156269627Y-105421931D01*
X156317246Y-105374312D01*
X156364865Y-105279074D01*
X156364865Y-105183836D01*
X156317246Y-105088598D01*
X156269627Y-105040979D01*
X156174389Y-104993359D01*
X155936293Y-104993359D01*
X155793436Y-105040979D01*
X154841055Y-105993359D02*
X155412484Y-105993359D01*
X155126770Y-105993359D02*
X155126770Y-104993359D01*
X155222008Y-105136217D01*
X155317246Y-105231455D01*
X155412484Y-105279074D01*
X153793436Y-105326693D02*
X153412484Y-105326693D01*
X153650579Y-105993359D02*
X153650579Y-105136217D01*
X153602960Y-105040979D01*
X153507722Y-104993359D01*
X153412484Y-104993359D01*
X152936293Y-105993359D02*
X153031532Y-105945740D01*
X153079151Y-105898121D01*
X153126770Y-105802883D01*
X153126770Y-105517169D01*
X153079151Y-105421931D01*
X153031532Y-105374312D01*
X152936293Y-105326693D01*
X152793436Y-105326693D01*
X152698198Y-105374312D01*
X152650579Y-105421931D01*
X152602960Y-105517169D01*
X152602960Y-105802883D01*
X152650579Y-105898121D01*
X152698198Y-105945740D01*
X152793436Y-105993359D01*
X152936293Y-105993359D01*
X152174389Y-105993359D02*
X152174389Y-105326693D01*
X152174389Y-105517169D02*
X152126770Y-105421931D01*
X152079151Y-105374312D01*
X151983912Y-105326693D01*
X151888674Y-105326693D01*
X150793436Y-105993359D02*
X150793436Y-105326693D01*
X150793436Y-104993359D02*
X150841055Y-105040979D01*
X150793436Y-105088598D01*
X150745817Y-105040979D01*
X150793436Y-104993359D01*
X150793436Y-105088598D01*
X150317246Y-105326693D02*
X150317246Y-105993359D01*
X150317246Y-105421931D02*
X150269627Y-105374312D01*
X150174389Y-105326693D01*
X150031532Y-105326693D01*
X149936293Y-105374312D01*
X149888674Y-105469550D01*
X149888674Y-105993359D01*
X148983912Y-105993359D02*
X148983912Y-104993359D01*
X148983912Y-105945740D02*
X149079151Y-105993359D01*
X149269627Y-105993359D01*
X149364865Y-105945740D01*
X149412484Y-105898121D01*
X149460103Y-105802883D01*
X149460103Y-105517169D01*
X149412484Y-105421931D01*
X149364865Y-105374312D01*
X149269627Y-105326693D01*
X149079151Y-105326693D01*
X148983912Y-105374312D01*
X148126770Y-105945740D02*
X148222008Y-105993359D01*
X148412484Y-105993359D01*
X148507722Y-105945740D01*
X148555341Y-105850502D01*
X148555341Y-105469550D01*
X148507722Y-105374312D01*
X148412484Y-105326693D01*
X148222008Y-105326693D01*
X148126770Y-105374312D01*
X148079151Y-105469550D01*
X148079151Y-105564788D01*
X148555341Y-105660026D01*
X147650579Y-105326693D02*
X147650579Y-106326693D01*
X147650579Y-105374312D02*
X147555341Y-105326693D01*
X147364865Y-105326693D01*
X147269627Y-105374312D01*
X147222008Y-105421931D01*
X147174389Y-105517169D01*
X147174389Y-105802883D01*
X147222008Y-105898121D01*
X147269627Y-105945740D01*
X147364865Y-105993359D01*
X147555341Y-105993359D01*
X147650579Y-105945740D01*
X146364865Y-105945740D02*
X146460103Y-105993359D01*
X146650579Y-105993359D01*
X146745817Y-105945740D01*
X146793436Y-105850502D01*
X146793436Y-105469550D01*
X146745817Y-105374312D01*
X146650579Y-105326693D01*
X146460103Y-105326693D01*
X146364865Y-105374312D01*
X146317246Y-105469550D01*
X146317246Y-105564788D01*
X146793436Y-105660026D01*
X145888674Y-105326693D02*
X145888674Y-105993359D01*
X145888674Y-105421931D02*
X145841055Y-105374312D01*
X145745817Y-105326693D01*
X145602960Y-105326693D01*
X145507722Y-105374312D01*
X145460103Y-105469550D01*
X145460103Y-105993359D01*
X144555341Y-105993359D02*
X144555341Y-104993359D01*
X144555341Y-105945740D02*
X144650579Y-105993359D01*
X144841055Y-105993359D01*
X144936293Y-105945740D01*
X144983912Y-105898121D01*
X145031532Y-105802883D01*
X145031532Y-105517169D01*
X144983912Y-105421931D01*
X144936293Y-105374312D01*
X144841055Y-105326693D01*
X144650579Y-105326693D01*
X144555341Y-105374312D01*
X143698198Y-105945740D02*
X143793436Y-105993359D01*
X143983912Y-105993359D01*
X144079151Y-105945740D01*
X144126770Y-105850502D01*
X144126770Y-105469550D01*
X144079151Y-105374312D01*
X143983912Y-105326693D01*
X143793436Y-105326693D01*
X143698198Y-105374312D01*
X143650579Y-105469550D01*
X143650579Y-105564788D01*
X144126770Y-105660026D01*
X143222008Y-105326693D02*
X143222008Y-105993359D01*
X143222008Y-105421931D02*
X143174389Y-105374312D01*
X143079151Y-105326693D01*
X142936293Y-105326693D01*
X142841055Y-105374312D01*
X142793436Y-105469550D01*
X142793436Y-105993359D01*
X142460103Y-105326693D02*
X142079151Y-105326693D01*
X142317246Y-104993359D02*
X142317246Y-105850502D01*
X142269627Y-105945740D01*
X142174389Y-105993359D01*
X142079151Y-105993359D01*
X160364865Y-107555740D02*
X160460103Y-107603359D01*
X160650579Y-107603359D01*
X160745817Y-107555740D01*
X160793436Y-107508121D01*
X160841055Y-107412883D01*
X160841055Y-107127169D01*
X160793436Y-107031931D01*
X160745817Y-106984312D01*
X160650579Y-106936693D01*
X160460103Y-106936693D01*
X160364865Y-106984312D01*
X159793436Y-107603359D02*
X159888674Y-107555740D01*
X159936293Y-107508121D01*
X159983912Y-107412883D01*
X159983912Y-107127169D01*
X159936293Y-107031931D01*
X159888674Y-106984312D01*
X159793436Y-106936693D01*
X159650579Y-106936693D01*
X159555341Y-106984312D01*
X159507722Y-107031931D01*
X159460103Y-107127169D01*
X159460103Y-107412883D01*
X159507722Y-107508121D01*
X159555341Y-107555740D01*
X159650579Y-107603359D01*
X159793436Y-107603359D01*
X159031532Y-106936693D02*
X159031532Y-107603359D01*
X159031532Y-107031931D02*
X158983912Y-106984312D01*
X158888674Y-106936693D01*
X158745817Y-106936693D01*
X158650579Y-106984312D01*
X158602960Y-107079550D01*
X158602960Y-107603359D01*
X158269627Y-106936693D02*
X157888674Y-106936693D01*
X158126770Y-106603359D02*
X158126770Y-107460502D01*
X158079151Y-107555740D01*
X157983912Y-107603359D01*
X157888674Y-107603359D01*
X157555341Y-107603359D02*
X157555341Y-106936693D01*
X157555341Y-107127169D02*
X157507722Y-107031931D01*
X157460103Y-106984312D01*
X157364865Y-106936693D01*
X157269627Y-106936693D01*
X156793436Y-107603359D02*
X156888674Y-107555740D01*
X156936293Y-107508121D01*
X156983912Y-107412883D01*
X156983912Y-107127169D01*
X156936293Y-107031931D01*
X156888674Y-106984312D01*
X156793436Y-106936693D01*
X156650579Y-106936693D01*
X156555341Y-106984312D01*
X156507722Y-107031931D01*
X156460103Y-107127169D01*
X156460103Y-107412883D01*
X156507722Y-107508121D01*
X156555341Y-107555740D01*
X156650579Y-107603359D01*
X156793436Y-107603359D01*
X155888674Y-107603359D02*
X155983912Y-107555740D01*
X156031532Y-107460502D01*
X156031532Y-106603359D01*
X154602960Y-107603359D02*
X154698198Y-107555740D01*
X154745817Y-107508121D01*
X154793436Y-107412883D01*
X154793436Y-107127169D01*
X154745817Y-107031931D01*
X154698198Y-106984312D01*
X154602960Y-106936693D01*
X154460103Y-106936693D01*
X154364865Y-106984312D01*
X154317246Y-107031931D01*
X154269627Y-107127169D01*
X154269627Y-107412883D01*
X154317246Y-107508121D01*
X154364865Y-107555740D01*
X154460103Y-107603359D01*
X154602960Y-107603359D01*
X153983912Y-106936693D02*
X153602960Y-106936693D01*
X153841055Y-107603359D02*
X153841055Y-106746217D01*
X153793436Y-106650979D01*
X153698198Y-106603359D01*
X153602960Y-106603359D01*
X152650579Y-106936693D02*
X152269627Y-106936693D01*
X152507722Y-106603359D02*
X152507722Y-107460502D01*
X152460103Y-107555740D01*
X152364865Y-107603359D01*
X152269627Y-107603359D01*
X151936293Y-107603359D02*
X151936293Y-106603359D01*
X151507722Y-107603359D02*
X151507722Y-107079550D01*
X151555341Y-106984312D01*
X151650579Y-106936693D01*
X151793436Y-106936693D01*
X151888674Y-106984312D01*
X151936293Y-107031931D01*
X150650579Y-107555740D02*
X150745817Y-107603359D01*
X150936293Y-107603359D01*
X151031532Y-107555740D01*
X151079151Y-107460502D01*
X151079151Y-107079550D01*
X151031532Y-106984312D01*
X150936293Y-106936693D01*
X150745817Y-106936693D01*
X150650579Y-106984312D01*
X150602960Y-107079550D01*
X150602960Y-107174788D01*
X151079151Y-107270026D01*
X149555341Y-106936693D02*
X149174389Y-106936693D01*
X149412484Y-106603359D02*
X149412484Y-107460502D01*
X149364865Y-107555740D01*
X149269627Y-107603359D01*
X149174389Y-107603359D01*
X148936293Y-106936693D02*
X148745817Y-107603359D01*
X148555341Y-107127169D01*
X148364865Y-107603359D01*
X148174389Y-106936693D01*
X147650579Y-107603359D02*
X147745817Y-107555740D01*
X147793436Y-107508121D01*
X147841055Y-107412883D01*
X147841055Y-107127169D01*
X147793436Y-107031931D01*
X147745817Y-106984312D01*
X147650579Y-106936693D01*
X147507722Y-106936693D01*
X147412484Y-106984312D01*
X147364865Y-107031931D01*
X147317246Y-107127169D01*
X147317246Y-107412883D01*
X147364865Y-107508121D01*
X147412484Y-107555740D01*
X147507722Y-107603359D01*
X147650579Y-107603359D01*
X145650579Y-107603359D02*
X146126770Y-107603359D01*
X146126770Y-106603359D01*
X145317246Y-107079550D02*
X144983912Y-107079550D01*
X144841055Y-107603359D02*
X145317246Y-107603359D01*
X145317246Y-106603359D01*
X144841055Y-106603359D01*
X144412484Y-107603359D02*
X144412484Y-106603359D01*
X144174389Y-106603359D01*
X144031532Y-106650979D01*
X143936293Y-106746217D01*
X143888674Y-106841455D01*
X143841055Y-107031931D01*
X143841055Y-107174788D01*
X143888674Y-107365264D01*
X143936293Y-107460502D01*
X144031532Y-107555740D01*
X144174389Y-107603359D01*
X144412484Y-107603359D01*
X160364865Y-109213359D02*
X160364865Y-108213359D01*
X160364865Y-109165740D02*
X160460103Y-109213359D01*
X160650579Y-109213359D01*
X160745817Y-109165740D01*
X160793436Y-109118121D01*
X160841055Y-109022883D01*
X160841055Y-108737169D01*
X160793436Y-108641931D01*
X160745817Y-108594312D01*
X160650579Y-108546693D01*
X160460103Y-108546693D01*
X160364865Y-108594312D01*
X159888674Y-109213359D02*
X159888674Y-108546693D01*
X159888674Y-108737169D02*
X159841055Y-108641931D01*
X159793436Y-108594312D01*
X159698198Y-108546693D01*
X159602960Y-108546693D01*
X159269627Y-109213359D02*
X159269627Y-108546693D01*
X159269627Y-108213359D02*
X159317246Y-108260979D01*
X159269627Y-108308598D01*
X159222008Y-108260979D01*
X159269627Y-108213359D01*
X159269627Y-108308598D01*
X158888674Y-108546693D02*
X158650579Y-109213359D01*
X158412484Y-108546693D01*
X157650579Y-109165740D02*
X157745817Y-109213359D01*
X157936293Y-109213359D01*
X158031532Y-109165740D01*
X158079151Y-109070502D01*
X158079151Y-108689550D01*
X158031532Y-108594312D01*
X157936293Y-108546693D01*
X157745817Y-108546693D01*
X157650579Y-108594312D01*
X157602960Y-108689550D01*
X157602960Y-108784788D01*
X158079151Y-108880026D01*
X157174389Y-109213359D02*
X157174389Y-108546693D01*
X157174389Y-108737169D02*
X157126770Y-108641931D01*
X157079151Y-108594312D01*
X156983912Y-108546693D01*
X156888674Y-108546693D01*
X156602960Y-109165740D02*
X156507722Y-109213359D01*
X156317246Y-109213359D01*
X156222008Y-109165740D01*
X156174389Y-109070502D01*
X156174389Y-109022883D01*
X156222008Y-108927645D01*
X156317246Y-108880026D01*
X156460103Y-108880026D01*
X156555341Y-108832407D01*
X156602960Y-108737169D01*
X156602960Y-108689550D01*
X156555341Y-108594312D01*
X156460103Y-108546693D01*
X156317246Y-108546693D01*
X156222008Y-108594312D01*
X155745817Y-109118121D02*
X155698198Y-109165740D01*
X155745817Y-109213359D01*
X155793436Y-109165740D01*
X155745817Y-109118121D01*
X155745817Y-109213359D01*
X160841055Y-112385740D02*
X160698198Y-112433359D01*
X160460103Y-112433359D01*
X160364865Y-112385740D01*
X160317246Y-112338121D01*
X160269627Y-112242883D01*
X160269627Y-112147645D01*
X160317246Y-112052407D01*
X160364865Y-112004788D01*
X160460103Y-111957169D01*
X160650579Y-111909550D01*
X160745817Y-111861931D01*
X160793436Y-111814312D01*
X160841055Y-111719074D01*
X160841055Y-111623836D01*
X160793436Y-111528598D01*
X160745817Y-111480979D01*
X160650579Y-111433359D01*
X160412484Y-111433359D01*
X160269627Y-111480979D01*
X159460103Y-112385740D02*
X159555341Y-112433359D01*
X159745817Y-112433359D01*
X159841055Y-112385740D01*
X159888674Y-112290502D01*
X159888674Y-111909550D01*
X159841055Y-111814312D01*
X159745817Y-111766693D01*
X159555341Y-111766693D01*
X159460103Y-111814312D01*
X159412484Y-111909550D01*
X159412484Y-112004788D01*
X159888674Y-112100026D01*
X159126770Y-111766693D02*
X158745817Y-111766693D01*
X158983912Y-111433359D02*
X158983912Y-112290502D01*
X158936293Y-112385740D01*
X158841055Y-112433359D01*
X158745817Y-112433359D01*
X157650579Y-111766693D02*
X157650579Y-112623836D01*
X157698198Y-112719074D01*
X157793436Y-112766693D01*
X157841055Y-112766693D01*
X157650579Y-111433359D02*
X157698198Y-111480979D01*
X157650579Y-111528598D01*
X157602960Y-111480979D01*
X157650579Y-111433359D01*
X157650579Y-111528598D01*
X156745817Y-111766693D02*
X156745817Y-112433359D01*
X157174389Y-111766693D02*
X157174389Y-112290502D01*
X157126770Y-112385740D01*
X157031532Y-112433359D01*
X156888674Y-112433359D01*
X156793436Y-112385740D01*
X156745817Y-112338121D01*
X156269627Y-112433359D02*
X156269627Y-111766693D01*
X156269627Y-111861931D02*
X156222008Y-111814312D01*
X156126770Y-111766693D01*
X155983912Y-111766693D01*
X155888674Y-111814312D01*
X155841055Y-111909550D01*
X155841055Y-112433359D01*
X155841055Y-111909550D02*
X155793436Y-111814312D01*
X155698198Y-111766693D01*
X155555341Y-111766693D01*
X155460103Y-111814312D01*
X155412484Y-111909550D01*
X155412484Y-112433359D01*
X154936293Y-111766693D02*
X154936293Y-112766693D01*
X154936293Y-111814312D02*
X154841055Y-111766693D01*
X154650579Y-111766693D01*
X154555341Y-111814312D01*
X154507722Y-111861931D01*
X154460103Y-111957169D01*
X154460103Y-112242883D01*
X154507722Y-112338121D01*
X154555341Y-112385740D01*
X154650579Y-112433359D01*
X154841055Y-112433359D01*
X154936293Y-112385740D01*
X153650579Y-112385740D02*
X153745817Y-112433359D01*
X153936293Y-112433359D01*
X154031532Y-112385740D01*
X154079151Y-112290502D01*
X154079151Y-111909550D01*
X154031532Y-111814312D01*
X153936293Y-111766693D01*
X153745817Y-111766693D01*
X153650579Y-111814312D01*
X153602960Y-111909550D01*
X153602960Y-112004788D01*
X154079151Y-112100026D01*
X153174389Y-112433359D02*
X153174389Y-111766693D01*
X153174389Y-111957169D02*
X153126770Y-111861931D01*
X153079151Y-111814312D01*
X152983912Y-111766693D01*
X152888674Y-111766693D01*
X152602960Y-112385740D02*
X152507722Y-112433359D01*
X152317246Y-112433359D01*
X152222008Y-112385740D01*
X152174389Y-112290502D01*
X152174389Y-112242883D01*
X152222008Y-112147645D01*
X152317246Y-112100026D01*
X152460103Y-112100026D01*
X152555341Y-112052407D01*
X152602960Y-111957169D01*
X152602960Y-111909550D01*
X152555341Y-111814312D01*
X152460103Y-111766693D01*
X152317246Y-111766693D01*
X152222008Y-111814312D01*
X151126770Y-111766693D02*
X150745817Y-111766693D01*
X150983912Y-111433359D02*
X150983912Y-112290502D01*
X150936293Y-112385740D01*
X150841055Y-112433359D01*
X150745817Y-112433359D01*
X150269627Y-112433359D02*
X150364865Y-112385740D01*
X150412484Y-112338121D01*
X150460103Y-112242883D01*
X150460103Y-111957169D01*
X150412484Y-111861931D01*
X150364865Y-111814312D01*
X150269627Y-111766693D01*
X150126770Y-111766693D01*
X150031532Y-111814312D01*
X149983912Y-111861931D01*
X149936293Y-111957169D01*
X149936293Y-112242883D01*
X149983912Y-112338121D01*
X150031532Y-112385740D01*
X150126770Y-112433359D01*
X150269627Y-112433359D01*
X148745817Y-111433359D02*
X148745817Y-112242883D01*
X148698198Y-112338121D01*
X148650579Y-112385740D01*
X148555341Y-112433359D01*
X148364865Y-112433359D01*
X148269627Y-112385740D01*
X148222008Y-112338121D01*
X148174389Y-112242883D01*
X148174389Y-111433359D01*
X147174389Y-112433359D02*
X147745817Y-112433359D01*
X147460103Y-112433359D02*
X147460103Y-111433359D01*
X147555341Y-111576217D01*
X147650579Y-111671455D01*
X147745817Y-111719074D01*
X145983912Y-112433359D02*
X145983912Y-111433359D01*
X145745817Y-111433359D01*
X145602960Y-111480979D01*
X145507722Y-111576217D01*
X145460103Y-111671455D01*
X145412484Y-111861931D01*
X145412484Y-112004788D01*
X145460103Y-112195264D01*
X145507722Y-112290502D01*
X145602960Y-112385740D01*
X145745817Y-112433359D01*
X145983912Y-112433359D01*
X144793436Y-111433359D02*
X144602960Y-111433359D01*
X144507722Y-111480979D01*
X144412484Y-111576217D01*
X144364865Y-111766693D01*
X144364865Y-112100026D01*
X144412484Y-112290502D01*
X144507722Y-112385740D01*
X144602960Y-112433359D01*
X144793436Y-112433359D01*
X144888674Y-112385740D01*
X144983912Y-112290502D01*
X145031532Y-112100026D01*
X145031532Y-111766693D01*
X144983912Y-111576217D01*
X144888674Y-111480979D01*
X144793436Y-111433359D01*
X143936293Y-111433359D02*
X143936293Y-112242883D01*
X143888674Y-112338121D01*
X143841055Y-112385740D01*
X143745817Y-112433359D01*
X143555341Y-112433359D01*
X143460103Y-112385740D01*
X143412484Y-112338121D01*
X143364865Y-112242883D01*
X143364865Y-111433359D01*
X143031532Y-111433359D02*
X142460103Y-111433359D01*
X142745817Y-112433359D02*
X142745817Y-111433359D01*
X160364865Y-114043359D02*
X160364865Y-113519550D01*
X160412484Y-113424312D01*
X160507722Y-113376693D01*
X160698198Y-113376693D01*
X160793436Y-113424312D01*
X160364865Y-113995740D02*
X160460103Y-114043359D01*
X160698198Y-114043359D01*
X160793436Y-113995740D01*
X160841055Y-113900502D01*
X160841055Y-113805264D01*
X160793436Y-113710026D01*
X160698198Y-113662407D01*
X160460103Y-113662407D01*
X160364865Y-113614788D01*
X159888674Y-113376693D02*
X159888674Y-114043359D01*
X159888674Y-113471931D02*
X159841055Y-113424312D01*
X159745817Y-113376693D01*
X159602960Y-113376693D01*
X159507722Y-113424312D01*
X159460103Y-113519550D01*
X159460103Y-114043359D01*
X158555341Y-114043359D02*
X158555341Y-113043359D01*
X158555341Y-113995740D02*
X158650579Y-114043359D01*
X158841055Y-114043359D01*
X158936293Y-113995740D01*
X158983912Y-113948121D01*
X159031532Y-113852883D01*
X159031532Y-113567169D01*
X158983912Y-113471931D01*
X158936293Y-113424312D01*
X158841055Y-113376693D01*
X158650579Y-113376693D01*
X158555341Y-113424312D01*
X156745817Y-113948121D02*
X156793436Y-113995740D01*
X156936293Y-114043359D01*
X157031532Y-114043359D01*
X157174389Y-113995740D01*
X157269627Y-113900502D01*
X157317246Y-113805264D01*
X157364865Y-113614788D01*
X157364865Y-113471931D01*
X157317246Y-113281455D01*
X157269627Y-113186217D01*
X157174389Y-113090979D01*
X157031532Y-113043359D01*
X156936293Y-113043359D01*
X156793436Y-113090979D01*
X156745817Y-113138598D01*
X156364865Y-113995740D02*
X156222008Y-114043359D01*
X155983912Y-114043359D01*
X155888674Y-113995740D01*
X155841055Y-113948121D01*
X155793436Y-113852883D01*
X155793436Y-113757645D01*
X155841055Y-113662407D01*
X155888674Y-113614788D01*
X155983912Y-113567169D01*
X156174389Y-113519550D01*
X156269627Y-113471931D01*
X156317246Y-113424312D01*
X156364865Y-113329074D01*
X156364865Y-113233836D01*
X156317246Y-113138598D01*
X156269627Y-113090979D01*
X156174389Y-113043359D01*
X155936293Y-113043359D01*
X155793436Y-113090979D01*
X155174389Y-113043359D02*
X155079151Y-113043359D01*
X154983912Y-113090979D01*
X154936293Y-113138598D01*
X154888674Y-113233836D01*
X154841055Y-113424312D01*
X154841055Y-113662407D01*
X154888674Y-113852883D01*
X154936293Y-113948121D01*
X154983912Y-113995740D01*
X155079151Y-114043359D01*
X155174389Y-114043359D01*
X155269627Y-113995740D01*
X155317246Y-113948121D01*
X155364865Y-113852883D01*
X155412484Y-113662407D01*
X155412484Y-113424312D01*
X155364865Y-113233836D01*
X155317246Y-113138598D01*
X155269627Y-113090979D01*
X155174389Y-113043359D01*
X153793436Y-113376693D02*
X153412484Y-113376693D01*
X153650579Y-114043359D02*
X153650579Y-113186217D01*
X153602960Y-113090979D01*
X153507722Y-113043359D01*
X153412484Y-113043359D01*
X152936293Y-114043359D02*
X153031532Y-113995740D01*
X153079151Y-113948121D01*
X153126770Y-113852883D01*
X153126770Y-113567169D01*
X153079151Y-113471931D01*
X153031532Y-113424312D01*
X152936293Y-113376693D01*
X152793436Y-113376693D01*
X152698198Y-113424312D01*
X152650579Y-113471931D01*
X152602960Y-113567169D01*
X152602960Y-113852883D01*
X152650579Y-113948121D01*
X152698198Y-113995740D01*
X152793436Y-114043359D01*
X152936293Y-114043359D01*
X152174389Y-114043359D02*
X152174389Y-113376693D01*
X152174389Y-113567169D02*
X152126770Y-113471931D01*
X152079151Y-113424312D01*
X151983912Y-113376693D01*
X151888674Y-113376693D01*
X150364865Y-114043359D02*
X150364865Y-113043359D01*
X150364865Y-113995740D02*
X150460103Y-114043359D01*
X150650579Y-114043359D01*
X150745817Y-113995740D01*
X150793436Y-113948121D01*
X150841055Y-113852883D01*
X150841055Y-113567169D01*
X150793436Y-113471931D01*
X150745817Y-113424312D01*
X150650579Y-113376693D01*
X150460103Y-113376693D01*
X150364865Y-113424312D01*
X149460103Y-114043359D02*
X149460103Y-113519550D01*
X149507722Y-113424312D01*
X149602960Y-113376693D01*
X149793436Y-113376693D01*
X149888674Y-113424312D01*
X149460103Y-113995740D02*
X149555341Y-114043359D01*
X149793436Y-114043359D01*
X149888674Y-113995740D01*
X149936293Y-113900502D01*
X149936293Y-113805264D01*
X149888674Y-113710026D01*
X149793436Y-113662407D01*
X149555341Y-113662407D01*
X149460103Y-113614788D01*
X148983912Y-114043359D02*
X148983912Y-113376693D01*
X148983912Y-113043359D02*
X149031532Y-113090979D01*
X148983912Y-113138598D01*
X148936293Y-113090979D01*
X148983912Y-113043359D01*
X148983912Y-113138598D01*
X148555341Y-113995740D02*
X148460103Y-114043359D01*
X148269627Y-114043359D01*
X148174389Y-113995740D01*
X148126770Y-113900502D01*
X148126770Y-113852883D01*
X148174389Y-113757645D01*
X148269627Y-113710026D01*
X148412484Y-113710026D01*
X148507722Y-113662407D01*
X148555341Y-113567169D01*
X148555341Y-113519550D01*
X148507722Y-113424312D01*
X148412484Y-113376693D01*
X148269627Y-113376693D01*
X148174389Y-113424312D01*
X147793436Y-113376693D02*
X147555341Y-114043359D01*
X147317246Y-113376693D02*
X147555341Y-114043359D01*
X147650579Y-114281455D01*
X147698198Y-114329074D01*
X147793436Y-114376693D01*
X160364865Y-115605740D02*
X160460103Y-115653359D01*
X160650579Y-115653359D01*
X160745817Y-115605740D01*
X160793436Y-115558121D01*
X160841055Y-115462883D01*
X160841055Y-115177169D01*
X160793436Y-115081931D01*
X160745817Y-115034312D01*
X160650579Y-114986693D01*
X160460103Y-114986693D01*
X160364865Y-115034312D01*
X159936293Y-115653359D02*
X159936293Y-114653359D01*
X159507722Y-115653359D02*
X159507722Y-115129550D01*
X159555341Y-115034312D01*
X159650579Y-114986693D01*
X159793436Y-114986693D01*
X159888674Y-115034312D01*
X159936293Y-115081931D01*
X158602960Y-115653359D02*
X158602960Y-115129550D01*
X158650579Y-115034312D01*
X158745817Y-114986693D01*
X158936293Y-114986693D01*
X159031532Y-115034312D01*
X158602960Y-115605740D02*
X158698198Y-115653359D01*
X158936293Y-115653359D01*
X159031532Y-115605740D01*
X159079151Y-115510502D01*
X159079151Y-115415264D01*
X159031532Y-115320026D01*
X158936293Y-115272407D01*
X158698198Y-115272407D01*
X158602960Y-115224788D01*
X158126770Y-115653359D02*
X158126770Y-114986693D01*
X158126770Y-114653359D02*
X158174389Y-114700979D01*
X158126770Y-114748598D01*
X158079151Y-114700979D01*
X158126770Y-114653359D01*
X158126770Y-114748598D01*
X157650579Y-114986693D02*
X157650579Y-115653359D01*
X157650579Y-115081931D02*
X157602960Y-115034312D01*
X157507722Y-114986693D01*
X157364865Y-114986693D01*
X157269627Y-115034312D01*
X157222008Y-115129550D01*
X157222008Y-115653359D01*
X156364865Y-115605740D02*
X156460103Y-115653359D01*
X156650579Y-115653359D01*
X156745817Y-115605740D01*
X156793436Y-115510502D01*
X156793436Y-115129550D01*
X156745817Y-115034312D01*
X156650579Y-114986693D01*
X156460103Y-114986693D01*
X156364865Y-115034312D01*
X156317246Y-115129550D01*
X156317246Y-115224788D01*
X156793436Y-115320026D01*
X155460103Y-115653359D02*
X155460103Y-114653359D01*
X155460103Y-115605740D02*
X155555341Y-115653359D01*
X155745817Y-115653359D01*
X155841055Y-115605740D01*
X155888674Y-115558121D01*
X155936293Y-115462883D01*
X155936293Y-115177169D01*
X155888674Y-115081931D01*
X155841055Y-115034312D01*
X155745817Y-114986693D01*
X155555341Y-114986693D01*
X155460103Y-115034312D01*
X154079151Y-115653359D02*
X154174389Y-115605740D01*
X154222008Y-115558121D01*
X154269627Y-115462883D01*
X154269627Y-115177169D01*
X154222008Y-115081931D01*
X154174389Y-115034312D01*
X154079151Y-114986693D01*
X153936293Y-114986693D01*
X153841055Y-115034312D01*
X153793436Y-115081931D01*
X153745817Y-115177169D01*
X153745817Y-115462883D01*
X153793436Y-115558121D01*
X153841055Y-115605740D01*
X153936293Y-115653359D01*
X154079151Y-115653359D01*
X153317246Y-114986693D02*
X153317246Y-115986693D01*
X153317246Y-115034312D02*
X153222008Y-114986693D01*
X153031532Y-114986693D01*
X152936293Y-115034312D01*
X152888674Y-115081931D01*
X152841055Y-115177169D01*
X152841055Y-115462883D01*
X152888674Y-115558121D01*
X152936293Y-115605740D01*
X153031532Y-115653359D01*
X153222008Y-115653359D01*
X153317246Y-115605740D01*
X152031532Y-115605740D02*
X152126770Y-115653359D01*
X152317246Y-115653359D01*
X152412484Y-115605740D01*
X152460103Y-115510502D01*
X152460103Y-115129550D01*
X152412484Y-115034312D01*
X152317246Y-114986693D01*
X152126770Y-114986693D01*
X152031532Y-115034312D01*
X151983912Y-115129550D01*
X151983912Y-115224788D01*
X152460103Y-115320026D01*
X151555341Y-115653359D02*
X151555341Y-114986693D01*
X151555341Y-115177169D02*
X151507722Y-115081931D01*
X151460103Y-115034312D01*
X151364865Y-114986693D01*
X151269627Y-114986693D01*
X150507722Y-115653359D02*
X150507722Y-115129550D01*
X150555341Y-115034312D01*
X150650579Y-114986693D01*
X150841055Y-114986693D01*
X150936293Y-115034312D01*
X150507722Y-115605740D02*
X150602960Y-115653359D01*
X150841055Y-115653359D01*
X150936293Y-115605740D01*
X150983912Y-115510502D01*
X150983912Y-115415264D01*
X150936293Y-115320026D01*
X150841055Y-115272407D01*
X150602960Y-115272407D01*
X150507722Y-115224788D01*
X150174389Y-114986693D02*
X149793436Y-114986693D01*
X150031532Y-114653359D02*
X150031532Y-115510502D01*
X149983912Y-115605740D01*
X149888674Y-115653359D01*
X149793436Y-115653359D01*
X149460103Y-115653359D02*
X149460103Y-114986693D01*
X149460103Y-114653359D02*
X149507722Y-114700979D01*
X149460103Y-114748598D01*
X149412484Y-114700979D01*
X149460103Y-114653359D01*
X149460103Y-114748598D01*
X148841055Y-115653359D02*
X148936293Y-115605740D01*
X148983912Y-115558121D01*
X149031532Y-115462883D01*
X149031532Y-115177169D01*
X148983912Y-115081931D01*
X148936293Y-115034312D01*
X148841055Y-114986693D01*
X148698198Y-114986693D01*
X148602960Y-115034312D01*
X148555341Y-115081931D01*
X148507722Y-115177169D01*
X148507722Y-115462883D01*
X148555341Y-115558121D01*
X148602960Y-115605740D01*
X148698198Y-115653359D01*
X148841055Y-115653359D01*
X148079151Y-114986693D02*
X148079151Y-115653359D01*
X148079151Y-115081931D02*
X148031532Y-115034312D01*
X147936293Y-114986693D01*
X147793436Y-114986693D01*
X147698198Y-115034312D01*
X147650579Y-115129550D01*
X147650579Y-115653359D01*
X147174389Y-115558121D02*
X147126770Y-115605740D01*
X147174389Y-115653359D01*
X147222008Y-115605740D01*
X147174389Y-115558121D01*
X147174389Y-115653359D01*
%LPC*%
D11*
X129379032Y-125440979D03*
D12*
X162399032Y-73370979D03*
D13*
X164939032Y-73370979D03*
X162399032Y-75910979D03*
X164939032Y-75910979D03*
X162399032Y-78450979D03*
X164939032Y-78450979D03*
X162399032Y-80990979D03*
X164939032Y-80990979D03*
X162399032Y-83530979D03*
X164939032Y-83530979D03*
X162399032Y-86070979D03*
X164939032Y-86070979D03*
X162399032Y-88610979D03*
X164939032Y-88610979D03*
X162399032Y-91150979D03*
X164939032Y-91150979D03*
X162399032Y-93690979D03*
X164939032Y-93690979D03*
X162399032Y-96230979D03*
X164939032Y-96230979D03*
X162399032Y-98770979D03*
X164939032Y-98770979D03*
X162399032Y-101310979D03*
X164939032Y-101310979D03*
X162399032Y-103850979D03*
X164939032Y-103850979D03*
X162399032Y-106390979D03*
X164939032Y-106390979D03*
X162399032Y-108930979D03*
X164939032Y-108930979D03*
X162399032Y-111470979D03*
X164939032Y-111470979D03*
X162399032Y-114010979D03*
X164939032Y-114010979D03*
X162399032Y-116550979D03*
X164939032Y-116550979D03*
X162399032Y-119090979D03*
X164939032Y-119090979D03*
X162399032Y-121630979D03*
X164939032Y-121630979D03*
D11*
X173829032Y-68290979D03*
D12*
X129379032Y-78450979D03*
D13*
X129379032Y-80990979D03*
X129379032Y-83530979D03*
X129379032Y-86070979D03*
X129379032Y-88610979D03*
X129379032Y-91150979D03*
X129379032Y-93690979D03*
D11*
X173829032Y-125440979D03*
D12*
X129379032Y-101310979D03*
D13*
X129379032Y-103850979D03*
X129379032Y-106390979D03*
D12*
X129379032Y-111470979D03*
D13*
X129379032Y-114010979D03*
X129379032Y-116550979D03*
D11*
X129379032Y-68290979D03*
M02*
