%FSLAX45Y45*%
G04 Gerber Fmt 4.5, Leading zero omitted, Abs format (unit mm)*
G04 Created by KiCad (PCBNEW 6.0.6-3a73a75311~116~ubuntu22.04.1) date 2022-06-24 09:32:34*
%MOMM*%
%LPD*%
G01*
G04 APERTURE LIST*
%TA.AperFunction,Profile*%
%ADD10C,0.100000*%
%TD*%
%ADD11C,0.200000*%
G04 APERTURE END LIST*
D10*
X17763902Y-6829098D02*
G75*
G03*
X17382903Y-6448098I-381002J-2D01*
G01*
X12937903Y-12925098D02*
X17382903Y-12925098D01*
X12556903Y-12544098D02*
X12556903Y-6829098D01*
X17382903Y-12925103D02*
G75*
G03*
X17763903Y-12544098I-3J381003D01*
G01*
X17763903Y-12544098D02*
X17763903Y-6829098D01*
X12556902Y-12544098D02*
G75*
G03*
X12937903Y-12925098I380998J-2D01*
G01*
X12937903Y-6448103D02*
G75*
G03*
X12556903Y-6829098I-3J-380997D01*
G01*
X12937903Y-6448098D02*
X17382903Y-6448098D01*
D11*
X12809522Y-13240574D02*
X12809522Y-13040574D01*
X12857141Y-13040574D01*
X12885712Y-13050098D01*
X12904760Y-13069145D01*
X12914284Y-13088193D01*
X12923808Y-13126288D01*
X12923808Y-13154860D01*
X12914284Y-13192955D01*
X12904760Y-13212002D01*
X12885712Y-13231050D01*
X12857141Y-13240574D01*
X12809522Y-13240574D01*
X13009522Y-13240574D02*
X13009522Y-13107240D01*
X13009522Y-13145336D02*
X13019046Y-13126288D01*
X13028569Y-13116764D01*
X13047617Y-13107240D01*
X13066665Y-13107240D01*
X13133331Y-13240574D02*
X13133331Y-13107240D01*
X13133331Y-13040574D02*
X13123808Y-13050098D01*
X13133331Y-13059621D01*
X13142855Y-13050098D01*
X13133331Y-13040574D01*
X13133331Y-13059621D01*
X13257141Y-13240574D02*
X13238093Y-13231050D01*
X13228569Y-13212002D01*
X13228569Y-13040574D01*
X13361903Y-13240574D02*
X13342855Y-13231050D01*
X13333331Y-13212002D01*
X13333331Y-13040574D01*
X13590474Y-13240574D02*
X13590474Y-13040574D01*
X13657141Y-13183431D01*
X13723808Y-13040574D01*
X13723808Y-13240574D01*
X13904760Y-13240574D02*
X13904760Y-13135812D01*
X13895236Y-13116764D01*
X13876189Y-13107240D01*
X13838093Y-13107240D01*
X13819046Y-13116764D01*
X13904760Y-13231050D02*
X13885712Y-13240574D01*
X13838093Y-13240574D01*
X13819046Y-13231050D01*
X13809522Y-13212002D01*
X13809522Y-13192955D01*
X13819046Y-13173907D01*
X13838093Y-13164383D01*
X13885712Y-13164383D01*
X13904760Y-13154860D01*
X13999998Y-13107240D02*
X13999998Y-13307240D01*
X13999998Y-13116764D02*
X14019046Y-13107240D01*
X14057141Y-13107240D01*
X14076189Y-13116764D01*
X14085712Y-13126288D01*
X14095236Y-13145336D01*
X14095236Y-13202479D01*
X14085712Y-13221526D01*
X14076189Y-13231050D01*
X14057141Y-13240574D01*
X14019046Y-13240574D01*
X13999998Y-13231050D01*
X14180950Y-13221526D02*
X14190474Y-13231050D01*
X14180950Y-13240574D01*
X14171427Y-13231050D01*
X14180950Y-13221526D01*
X14180950Y-13240574D01*
X14180950Y-13116764D02*
X14190474Y-13126288D01*
X14180950Y-13135812D01*
X14171427Y-13126288D01*
X14180950Y-13116764D01*
X14180950Y-13135812D01*
M02*
