G04 #@! TF.GenerationSoftware,KiCad,Pcbnew,6.0.6-3a73a75311~116~ubuntu22.04.1*
G04 #@! TF.CreationDate,2022-06-24T09:32:34-04:00*
G04 #@! TF.ProjectId,led_breakout,6c65645f-6272-4656-916b-6f75742e6b69,0*
G04 #@! TF.SameCoordinates,Original*
G04 #@! TF.FileFunction,Soldermask,Bot*
G04 #@! TF.FilePolarity,Negative*
%FSLAX46Y46*%
G04 Gerber Fmt 4.6, Leading zero omitted, Abs format (unit mm)*
G04 Created by KiCad (PCBNEW 6.0.6-3a73a75311~116~ubuntu22.04.1) date 2022-06-24 09:32:34*
%MOMM*%
%LPD*%
G01*
G04 APERTURE LIST*
%ADD10C,5.600000*%
%ADD11R,1.700000X1.700000*%
%ADD12O,1.700000X1.700000*%
G04 APERTURE END LIST*
D10*
X129379032Y-125440979D03*
D11*
X162399032Y-73370979D03*
D12*
X164939032Y-73370979D03*
X162399032Y-75910979D03*
X164939032Y-75910979D03*
X162399032Y-78450979D03*
X164939032Y-78450979D03*
X162399032Y-80990979D03*
X164939032Y-80990979D03*
X162399032Y-83530979D03*
X164939032Y-83530979D03*
X162399032Y-86070979D03*
X164939032Y-86070979D03*
X162399032Y-88610979D03*
X164939032Y-88610979D03*
X162399032Y-91150979D03*
X164939032Y-91150979D03*
X162399032Y-93690979D03*
X164939032Y-93690979D03*
X162399032Y-96230979D03*
X164939032Y-96230979D03*
X162399032Y-98770979D03*
X164939032Y-98770979D03*
X162399032Y-101310979D03*
X164939032Y-101310979D03*
X162399032Y-103850979D03*
X164939032Y-103850979D03*
X162399032Y-106390979D03*
X164939032Y-106390979D03*
X162399032Y-108930979D03*
X164939032Y-108930979D03*
X162399032Y-111470979D03*
X164939032Y-111470979D03*
X162399032Y-114010979D03*
X164939032Y-114010979D03*
X162399032Y-116550979D03*
X164939032Y-116550979D03*
X162399032Y-119090979D03*
X164939032Y-119090979D03*
X162399032Y-121630979D03*
X164939032Y-121630979D03*
D10*
X173829032Y-68290979D03*
D11*
X129379032Y-78450979D03*
D12*
X129379032Y-80990979D03*
X129379032Y-83530979D03*
X129379032Y-86070979D03*
X129379032Y-88610979D03*
X129379032Y-91150979D03*
X129379032Y-93690979D03*
D10*
X173829032Y-125440979D03*
D11*
X129379032Y-101310979D03*
D12*
X129379032Y-103850979D03*
X129379032Y-106390979D03*
D11*
X129379032Y-111470979D03*
D12*
X129379032Y-114010979D03*
X129379032Y-116550979D03*
D10*
X129379032Y-68290979D03*
M02*
