G04 #@! TF.GenerationSoftware,KiCad,Pcbnew,6.0.1-79c1e3a40b~116~ubuntu20.04.1*
G04 #@! TF.CreationDate,2022-01-21T15:38:14-05:00*
G04 #@! TF.ProjectId,switch_mux_breakout,73776974-6368-45f6-9d75-785f62726561,0*
G04 #@! TF.SameCoordinates,Original*
G04 #@! TF.FileFunction,Legend,Top*
G04 #@! TF.FilePolarity,Positive*
%FSLAX46Y46*%
G04 Gerber Fmt 4.6, Leading zero omitted, Abs format (unit mm)*
G04 Created by KiCad (PCBNEW 6.0.1-79c1e3a40b~116~ubuntu20.04.1) date 2022-01-21 15:38:14*
%MOMM*%
%LPD*%
G01*
G04 APERTURE LIST*
G04 Aperture macros list*
%AMRoundRect*
0 Rectangle with rounded corners*
0 $1 Rounding radius*
0 $2 $3 $4 $5 $6 $7 $8 $9 X,Y pos of 4 corners*
0 Add a 4 corners polygon primitive as box body*
4,1,4,$2,$3,$4,$5,$6,$7,$8,$9,$2,$3,0*
0 Add four circle primitives for the rounded corners*
1,1,$1+$1,$2,$3*
1,1,$1+$1,$4,$5*
1,1,$1+$1,$6,$7*
1,1,$1+$1,$8,$9*
0 Add four rect primitives between the rounded corners*
20,1,$1+$1,$2,$3,$4,$5,0*
20,1,$1+$1,$4,$5,$6,$7,0*
20,1,$1+$1,$6,$7,$8,$9,0*
20,1,$1+$1,$8,$9,$2,$3,0*%
G04 Aperture macros list end*
%ADD10C,0.150000*%
%ADD11C,0.120000*%
%ADD12RoundRect,0.150000X-0.875000X-0.150000X0.875000X-0.150000X0.875000X0.150000X-0.875000X0.150000X0*%
%ADD13R,1.600000X1.600000*%
%ADD14O,1.600000X1.600000*%
%ADD15R,1.700000X1.700000*%
%ADD16O,1.700000X1.700000*%
%ADD17RoundRect,0.250000X-0.250000X-0.475000X0.250000X-0.475000X0.250000X0.475000X-0.250000X0.475000X0*%
%ADD18RoundRect,0.243750X0.456250X-0.243750X0.456250X0.243750X-0.456250X0.243750X-0.456250X-0.243750X0*%
%ADD19RoundRect,0.250000X-0.262500X-0.450000X0.262500X-0.450000X0.262500X0.450000X-0.262500X0.450000X0*%
%ADD20C,5.600000*%
%ADD21RoundRect,0.250000X0.250000X0.475000X-0.250000X0.475000X-0.250000X-0.475000X0.250000X-0.475000X0*%
%ADD22RoundRect,0.250000X-0.450000X0.262500X-0.450000X-0.262500X0.450000X-0.262500X0.450000X0.262500X0*%
G04 APERTURE END LIST*
D10*
X128722380Y-107639523D02*
X127722380Y-107639523D01*
X128436666Y-107306190D01*
X127722380Y-106972857D01*
X128722380Y-106972857D01*
X128627142Y-105925238D02*
X128674761Y-105972857D01*
X128722380Y-106115714D01*
X128722380Y-106210952D01*
X128674761Y-106353809D01*
X128579523Y-106449047D01*
X128484285Y-106496666D01*
X128293809Y-106544285D01*
X128150952Y-106544285D01*
X127960476Y-106496666D01*
X127865238Y-106449047D01*
X127770000Y-106353809D01*
X127722380Y-106210952D01*
X127722380Y-106115714D01*
X127770000Y-105972857D01*
X127817619Y-105925238D01*
X128722380Y-105496666D02*
X127722380Y-105496666D01*
X127722380Y-105115714D01*
X127770000Y-105020476D01*
X127817619Y-104972857D01*
X127912857Y-104925238D01*
X128055714Y-104925238D01*
X128150952Y-104972857D01*
X128198571Y-105020476D01*
X128246190Y-105115714D01*
X128246190Y-105496666D01*
X127817619Y-104544285D02*
X127770000Y-104496666D01*
X127722380Y-104401428D01*
X127722380Y-104163333D01*
X127770000Y-104068095D01*
X127817619Y-104020476D01*
X127912857Y-103972857D01*
X128008095Y-103972857D01*
X128150952Y-104020476D01*
X128722380Y-104591904D01*
X128722380Y-103972857D01*
X127722380Y-103639523D02*
X127722380Y-103020476D01*
X128103333Y-103353809D01*
X128103333Y-103210952D01*
X128150952Y-103115714D01*
X128198571Y-103068095D01*
X128293809Y-103020476D01*
X128531904Y-103020476D01*
X128627142Y-103068095D01*
X128674761Y-103115714D01*
X128722380Y-103210952D01*
X128722380Y-103496666D01*
X128674761Y-103591904D01*
X128627142Y-103639523D01*
X128674761Y-102639523D02*
X128722380Y-102496666D01*
X128722380Y-102258571D01*
X128674761Y-102163333D01*
X128627142Y-102115714D01*
X128531904Y-102068095D01*
X128436666Y-102068095D01*
X128341428Y-102115714D01*
X128293809Y-102163333D01*
X128246190Y-102258571D01*
X128198571Y-102449047D01*
X128150952Y-102544285D01*
X128103333Y-102591904D01*
X128008095Y-102639523D01*
X127912857Y-102639523D01*
X127817619Y-102591904D01*
X127770000Y-102544285D01*
X127722380Y-102449047D01*
X127722380Y-102210952D01*
X127770000Y-102068095D01*
X128722380Y-101115714D02*
X128722380Y-101687142D01*
X128722380Y-101401428D02*
X127722380Y-101401428D01*
X127865238Y-101496666D01*
X127960476Y-101591904D01*
X128008095Y-101687142D01*
X128150952Y-100544285D02*
X128103333Y-100639523D01*
X128055714Y-100687142D01*
X127960476Y-100734761D01*
X127912857Y-100734761D01*
X127817619Y-100687142D01*
X127770000Y-100639523D01*
X127722380Y-100544285D01*
X127722380Y-100353809D01*
X127770000Y-100258571D01*
X127817619Y-100210952D01*
X127912857Y-100163333D01*
X127960476Y-100163333D01*
X128055714Y-100210952D01*
X128103333Y-100258571D01*
X128150952Y-100353809D01*
X128150952Y-100544285D01*
X128198571Y-100639523D01*
X128246190Y-100687142D01*
X128341428Y-100734761D01*
X128531904Y-100734761D01*
X128627142Y-100687142D01*
X128674761Y-100639523D01*
X128722380Y-100544285D01*
X128722380Y-100353809D01*
X128674761Y-100258571D01*
X128627142Y-100210952D01*
X128531904Y-100163333D01*
X128341428Y-100163333D01*
X128246190Y-100210952D01*
X128198571Y-100258571D01*
X128150952Y-100353809D01*
X128341428Y-99734761D02*
X128341428Y-98972857D01*
X127722380Y-98639523D02*
X127722380Y-98068095D01*
X128722380Y-98353809D02*
X127722380Y-98353809D01*
X128341428Y-97734761D02*
X128341428Y-96972857D01*
X128198571Y-96496666D02*
X128198571Y-96163333D01*
X128722380Y-96020476D02*
X128722380Y-96496666D01*
X127722380Y-96496666D01*
X127722380Y-96020476D01*
X127674761Y-94877619D02*
X128960476Y-95734761D01*
X128674761Y-94591904D02*
X128722380Y-94449047D01*
X128722380Y-94210952D01*
X128674761Y-94115714D01*
X128627142Y-94068095D01*
X128531904Y-94020476D01*
X128436666Y-94020476D01*
X128341428Y-94068095D01*
X128293809Y-94115714D01*
X128246190Y-94210952D01*
X128198571Y-94401428D01*
X128150952Y-94496666D01*
X128103333Y-94544285D01*
X128008095Y-94591904D01*
X127912857Y-94591904D01*
X127817619Y-94544285D01*
X127770000Y-94496666D01*
X127722380Y-94401428D01*
X127722380Y-94163333D01*
X127770000Y-94020476D01*
X127722380Y-93401428D02*
X127722380Y-93210952D01*
X127770000Y-93115714D01*
X127865238Y-93020476D01*
X128055714Y-92972857D01*
X128389047Y-92972857D01*
X128579523Y-93020476D01*
X128674761Y-93115714D01*
X128722380Y-93210952D01*
X128722380Y-93401428D01*
X128674761Y-93496666D01*
X128579523Y-93591904D01*
X128389047Y-93639523D01*
X128055714Y-93639523D01*
X127865238Y-93591904D01*
X127770000Y-93496666D01*
X127722380Y-93401428D01*
X128722380Y-80969523D02*
X127722380Y-80969523D01*
X128436666Y-80636190D01*
X127722380Y-80302857D01*
X128722380Y-80302857D01*
X128627142Y-79255238D02*
X128674761Y-79302857D01*
X128722380Y-79445714D01*
X128722380Y-79540952D01*
X128674761Y-79683809D01*
X128579523Y-79779047D01*
X128484285Y-79826666D01*
X128293809Y-79874285D01*
X128150952Y-79874285D01*
X127960476Y-79826666D01*
X127865238Y-79779047D01*
X127770000Y-79683809D01*
X127722380Y-79540952D01*
X127722380Y-79445714D01*
X127770000Y-79302857D01*
X127817619Y-79255238D01*
X128722380Y-78826666D02*
X127722380Y-78826666D01*
X127722380Y-78445714D01*
X127770000Y-78350476D01*
X127817619Y-78302857D01*
X127912857Y-78255238D01*
X128055714Y-78255238D01*
X128150952Y-78302857D01*
X128198571Y-78350476D01*
X128246190Y-78445714D01*
X128246190Y-78826666D01*
X127817619Y-77874285D02*
X127770000Y-77826666D01*
X127722380Y-77731428D01*
X127722380Y-77493333D01*
X127770000Y-77398095D01*
X127817619Y-77350476D01*
X127912857Y-77302857D01*
X128008095Y-77302857D01*
X128150952Y-77350476D01*
X128722380Y-77921904D01*
X128722380Y-77302857D01*
X127722380Y-76969523D02*
X127722380Y-76350476D01*
X128103333Y-76683809D01*
X128103333Y-76540952D01*
X128150952Y-76445714D01*
X128198571Y-76398095D01*
X128293809Y-76350476D01*
X128531904Y-76350476D01*
X128627142Y-76398095D01*
X128674761Y-76445714D01*
X128722380Y-76540952D01*
X128722380Y-76826666D01*
X128674761Y-76921904D01*
X128627142Y-76969523D01*
X128674761Y-75969523D02*
X128722380Y-75826666D01*
X128722380Y-75588571D01*
X128674761Y-75493333D01*
X128627142Y-75445714D01*
X128531904Y-75398095D01*
X128436666Y-75398095D01*
X128341428Y-75445714D01*
X128293809Y-75493333D01*
X128246190Y-75588571D01*
X128198571Y-75779047D01*
X128150952Y-75874285D01*
X128103333Y-75921904D01*
X128008095Y-75969523D01*
X127912857Y-75969523D01*
X127817619Y-75921904D01*
X127770000Y-75874285D01*
X127722380Y-75779047D01*
X127722380Y-75540952D01*
X127770000Y-75398095D01*
X128722380Y-74445714D02*
X128722380Y-75017142D01*
X128722380Y-74731428D02*
X127722380Y-74731428D01*
X127865238Y-74826666D01*
X127960476Y-74921904D01*
X128008095Y-75017142D01*
X128150952Y-73874285D02*
X128103333Y-73969523D01*
X128055714Y-74017142D01*
X127960476Y-74064761D01*
X127912857Y-74064761D01*
X127817619Y-74017142D01*
X127770000Y-73969523D01*
X127722380Y-73874285D01*
X127722380Y-73683809D01*
X127770000Y-73588571D01*
X127817619Y-73540952D01*
X127912857Y-73493333D01*
X127960476Y-73493333D01*
X128055714Y-73540952D01*
X128103333Y-73588571D01*
X128150952Y-73683809D01*
X128150952Y-73874285D01*
X128198571Y-73969523D01*
X128246190Y-74017142D01*
X128341428Y-74064761D01*
X128531904Y-74064761D01*
X128627142Y-74017142D01*
X128674761Y-73969523D01*
X128722380Y-73874285D01*
X128722380Y-73683809D01*
X128674761Y-73588571D01*
X128627142Y-73540952D01*
X128531904Y-73493333D01*
X128341428Y-73493333D01*
X128246190Y-73540952D01*
X128198571Y-73588571D01*
X128150952Y-73683809D01*
X128341428Y-73064761D02*
X128341428Y-72302857D01*
X127722380Y-71969523D02*
X127722380Y-71398095D01*
X128722380Y-71683809D02*
X127722380Y-71683809D01*
X128341428Y-71064761D02*
X128341428Y-70302857D01*
X128198571Y-69826666D02*
X128198571Y-69493333D01*
X128722380Y-69350476D02*
X128722380Y-69826666D01*
X127722380Y-69826666D01*
X127722380Y-69350476D01*
X127674761Y-68207619D02*
X128960476Y-69064761D01*
X128674761Y-67921904D02*
X128722380Y-67779047D01*
X128722380Y-67540952D01*
X128674761Y-67445714D01*
X128627142Y-67398095D01*
X128531904Y-67350476D01*
X128436666Y-67350476D01*
X128341428Y-67398095D01*
X128293809Y-67445714D01*
X128246190Y-67540952D01*
X128198571Y-67731428D01*
X128150952Y-67826666D01*
X128103333Y-67874285D01*
X128008095Y-67921904D01*
X127912857Y-67921904D01*
X127817619Y-67874285D01*
X127770000Y-67826666D01*
X127722380Y-67731428D01*
X127722380Y-67493333D01*
X127770000Y-67350476D01*
X127722380Y-66731428D02*
X127722380Y-66540952D01*
X127770000Y-66445714D01*
X127865238Y-66350476D01*
X128055714Y-66302857D01*
X128389047Y-66302857D01*
X128579523Y-66350476D01*
X128674761Y-66445714D01*
X128722380Y-66540952D01*
X128722380Y-66731428D01*
X128674761Y-66826666D01*
X128579523Y-66921904D01*
X128389047Y-66969523D01*
X128055714Y-66969523D01*
X127865238Y-66921904D01*
X127770000Y-66826666D01*
X127722380Y-66731428D01*
X117064404Y-96020000D02*
X116969166Y-95972380D01*
X116826309Y-95972380D01*
X116683452Y-96020000D01*
X116588214Y-96115238D01*
X116540595Y-96210476D01*
X116492976Y-96400952D01*
X116492976Y-96543809D01*
X116540595Y-96734285D01*
X116588214Y-96829523D01*
X116683452Y-96924761D01*
X116826309Y-96972380D01*
X116921547Y-96972380D01*
X117064404Y-96924761D01*
X117112023Y-96877142D01*
X117112023Y-96543809D01*
X116921547Y-96543809D01*
X117540595Y-96972380D02*
X117540595Y-95972380D01*
X118112023Y-96972380D01*
X118112023Y-95972380D01*
X118588214Y-96972380D02*
X118588214Y-95972380D01*
X118826309Y-95972380D01*
X118969166Y-96020000D01*
X119064404Y-96115238D01*
X119112023Y-96210476D01*
X119159642Y-96400952D01*
X119159642Y-96543809D01*
X119112023Y-96734285D01*
X119064404Y-96829523D01*
X118969166Y-96924761D01*
X118826309Y-96972380D01*
X118588214Y-96972380D01*
X117112023Y-81637142D02*
X117064404Y-81684761D01*
X116921547Y-81732380D01*
X116826309Y-81732380D01*
X116683452Y-81684761D01*
X116588214Y-81589523D01*
X116540595Y-81494285D01*
X116492976Y-81303809D01*
X116492976Y-81160952D01*
X116540595Y-80970476D01*
X116588214Y-80875238D01*
X116683452Y-80780000D01*
X116826309Y-80732380D01*
X116921547Y-80732380D01*
X117064404Y-80780000D01*
X117112023Y-80827619D01*
X117492976Y-81684761D02*
X117635833Y-81732380D01*
X117873928Y-81732380D01*
X117969166Y-81684761D01*
X118016785Y-81637142D01*
X118064404Y-81541904D01*
X118064404Y-81446666D01*
X118016785Y-81351428D01*
X117969166Y-81303809D01*
X117873928Y-81256190D01*
X117683452Y-81208571D01*
X117588214Y-81160952D01*
X117540595Y-81113333D01*
X117492976Y-81018095D01*
X117492976Y-80922857D01*
X117540595Y-80827619D01*
X117588214Y-80780000D01*
X117683452Y-80732380D01*
X117921547Y-80732380D01*
X118064404Y-80780000D01*
X119016785Y-81732380D02*
X118445357Y-81732380D01*
X118731071Y-81732380D02*
X118731071Y-80732380D01*
X118635833Y-80875238D01*
X118540595Y-80970476D01*
X118445357Y-81018095D01*
X116492976Y-76604761D02*
X116635833Y-76652380D01*
X116873928Y-76652380D01*
X116969166Y-76604761D01*
X117016785Y-76557142D01*
X117064404Y-76461904D01*
X117064404Y-76366666D01*
X117016785Y-76271428D01*
X116969166Y-76223809D01*
X116873928Y-76176190D01*
X116683452Y-76128571D01*
X116588214Y-76080952D01*
X116540595Y-76033333D01*
X116492976Y-75938095D01*
X116492976Y-75842857D01*
X116540595Y-75747619D01*
X116588214Y-75700000D01*
X116683452Y-75652380D01*
X116921547Y-75652380D01*
X117064404Y-75700000D01*
X118064404Y-76557142D02*
X118016785Y-76604761D01*
X117873928Y-76652380D01*
X117778690Y-76652380D01*
X117635833Y-76604761D01*
X117540595Y-76509523D01*
X117492976Y-76414285D01*
X117445357Y-76223809D01*
X117445357Y-76080952D01*
X117492976Y-75890476D01*
X117540595Y-75795238D01*
X117635833Y-75700000D01*
X117778690Y-75652380D01*
X117873928Y-75652380D01*
X118016785Y-75700000D01*
X118064404Y-75747619D01*
X118492976Y-76652380D02*
X118492976Y-75652380D01*
X119064404Y-76652380D02*
X118635833Y-76080952D01*
X119064404Y-75652380D02*
X118492976Y-76223809D01*
X130653452Y-117292380D02*
X130558214Y-117244761D01*
X130510595Y-117149523D01*
X130510595Y-116292380D01*
X131177261Y-117292380D02*
X131082023Y-117244761D01*
X131034404Y-117197142D01*
X130986785Y-117101904D01*
X130986785Y-116816190D01*
X131034404Y-116720952D01*
X131082023Y-116673333D01*
X131177261Y-116625714D01*
X131320119Y-116625714D01*
X131415357Y-116673333D01*
X131462976Y-116720952D01*
X131510595Y-116816190D01*
X131510595Y-117101904D01*
X131462976Y-117197142D01*
X131415357Y-117244761D01*
X131320119Y-117292380D01*
X131177261Y-117292380D01*
X131843928Y-116625714D02*
X132034404Y-117292380D01*
X132224880Y-116816190D01*
X132415357Y-117292380D01*
X132605833Y-116625714D01*
X116540595Y-89352380D02*
X116540595Y-88352380D01*
X117016785Y-89352380D02*
X117016785Y-88352380D01*
X117588214Y-89352380D01*
X117588214Y-88352380D01*
X117921547Y-88352380D02*
X118492976Y-88352380D01*
X118207261Y-89352380D02*
X118207261Y-88352380D01*
X119159642Y-88828571D02*
X119302500Y-88876190D01*
X119350119Y-88923809D01*
X119397738Y-89019047D01*
X119397738Y-89161904D01*
X119350119Y-89257142D01*
X119302500Y-89304761D01*
X119207261Y-89352380D01*
X118826309Y-89352380D01*
X118826309Y-88352380D01*
X119159642Y-88352380D01*
X119254880Y-88400000D01*
X119302500Y-88447619D01*
X119350119Y-88542857D01*
X119350119Y-88638095D01*
X119302500Y-88733333D01*
X119254880Y-88780952D01*
X119159642Y-88828571D01*
X118826309Y-88828571D01*
X120588214Y-88352380D02*
X120588214Y-89161904D01*
X120635833Y-89257142D01*
X120683452Y-89304761D01*
X120778690Y-89352380D01*
X120969166Y-89352380D01*
X121064404Y-89304761D01*
X121112023Y-89257142D01*
X121159642Y-89161904D01*
X121159642Y-88352380D01*
X121588214Y-88447619D02*
X121635833Y-88400000D01*
X121731071Y-88352380D01*
X121969166Y-88352380D01*
X122064404Y-88400000D01*
X122112023Y-88447619D01*
X122159642Y-88542857D01*
X122159642Y-88638095D01*
X122112023Y-88780952D01*
X121540595Y-89352380D01*
X122159642Y-89352380D01*
X135542976Y-61024761D02*
X135685833Y-61072380D01*
X135923928Y-61072380D01*
X136019166Y-61024761D01*
X136066785Y-60977142D01*
X136114404Y-60881904D01*
X136114404Y-60786666D01*
X136066785Y-60691428D01*
X136019166Y-60643809D01*
X135923928Y-60596190D01*
X135733452Y-60548571D01*
X135638214Y-60500952D01*
X135590595Y-60453333D01*
X135542976Y-60358095D01*
X135542976Y-60262857D01*
X135590595Y-60167619D01*
X135638214Y-60120000D01*
X135733452Y-60072380D01*
X135971547Y-60072380D01*
X136114404Y-60120000D01*
X136542976Y-61072380D02*
X136542976Y-60072380D01*
X136923928Y-60072380D01*
X137019166Y-60120000D01*
X137066785Y-60167619D01*
X137114404Y-60262857D01*
X137114404Y-60405714D01*
X137066785Y-60500952D01*
X137019166Y-60548571D01*
X136923928Y-60596190D01*
X136542976Y-60596190D01*
X137542976Y-61072380D02*
X137542976Y-60072380D01*
X138733452Y-61024761D02*
X138876309Y-61072380D01*
X139114404Y-61072380D01*
X139209642Y-61024761D01*
X139257261Y-60977142D01*
X139304880Y-60881904D01*
X139304880Y-60786666D01*
X139257261Y-60691428D01*
X139209642Y-60643809D01*
X139114404Y-60596190D01*
X138923928Y-60548571D01*
X138828690Y-60500952D01*
X138781071Y-60453333D01*
X138733452Y-60358095D01*
X138733452Y-60262857D01*
X138781071Y-60167619D01*
X138828690Y-60120000D01*
X138923928Y-60072380D01*
X139162023Y-60072380D01*
X139304880Y-60120000D01*
X139638214Y-60405714D02*
X139828690Y-61072380D01*
X140019166Y-60596190D01*
X140209642Y-61072380D01*
X140400119Y-60405714D01*
X140781071Y-61072380D02*
X140781071Y-60405714D01*
X140781071Y-60072380D02*
X140733452Y-60120000D01*
X140781071Y-60167619D01*
X140828690Y-60120000D01*
X140781071Y-60072380D01*
X140781071Y-60167619D01*
X141114404Y-60405714D02*
X141495357Y-60405714D01*
X141257261Y-60072380D02*
X141257261Y-60929523D01*
X141304880Y-61024761D01*
X141400119Y-61072380D01*
X141495357Y-61072380D01*
X142257261Y-61024761D02*
X142162023Y-61072380D01*
X141971547Y-61072380D01*
X141876309Y-61024761D01*
X141828690Y-60977142D01*
X141781071Y-60881904D01*
X141781071Y-60596190D01*
X141828690Y-60500952D01*
X141876309Y-60453333D01*
X141971547Y-60405714D01*
X142162023Y-60405714D01*
X142257261Y-60453333D01*
X142685833Y-61072380D02*
X142685833Y-60072380D01*
X143114404Y-61072380D02*
X143114404Y-60548571D01*
X143066785Y-60453333D01*
X142971547Y-60405714D01*
X142828690Y-60405714D01*
X142733452Y-60453333D01*
X142685833Y-60500952D01*
X144352500Y-61072380D02*
X144352500Y-60072380D01*
X144590595Y-60072380D01*
X144733452Y-60120000D01*
X144828690Y-60215238D01*
X144876309Y-60310476D01*
X144923928Y-60500952D01*
X144923928Y-60643809D01*
X144876309Y-60834285D01*
X144828690Y-60929523D01*
X144733452Y-61024761D01*
X144590595Y-61072380D01*
X144352500Y-61072380D01*
X145352500Y-60548571D02*
X145685833Y-60548571D01*
X145828690Y-61072380D02*
X145352500Y-61072380D01*
X145352500Y-60072380D01*
X145828690Y-60072380D01*
X146257261Y-61072380D02*
X146257261Y-60072380D01*
X146590595Y-60786666D01*
X146923928Y-60072380D01*
X146923928Y-61072380D01*
X147400119Y-60072380D02*
X147400119Y-60881904D01*
X147447738Y-60977142D01*
X147495357Y-61024761D01*
X147590595Y-61072380D01*
X147781071Y-61072380D01*
X147876309Y-61024761D01*
X147923928Y-60977142D01*
X147971547Y-60881904D01*
X147971547Y-60072380D01*
X148352500Y-60072380D02*
X149019166Y-61072380D01*
X149019166Y-60072380D02*
X148352500Y-61072380D01*
X135971547Y-62634761D02*
X135876309Y-62682380D01*
X135685833Y-62682380D01*
X135590595Y-62634761D01*
X135542976Y-62539523D01*
X135542976Y-62158571D01*
X135590595Y-62063333D01*
X135685833Y-62015714D01*
X135876309Y-62015714D01*
X135971547Y-62063333D01*
X136019166Y-62158571D01*
X136019166Y-62253809D01*
X135542976Y-62349047D01*
X136352500Y-62015714D02*
X136590595Y-62682380D01*
X136828690Y-62015714D01*
X137638214Y-62682380D02*
X137638214Y-62158571D01*
X137590595Y-62063333D01*
X137495357Y-62015714D01*
X137304880Y-62015714D01*
X137209642Y-62063333D01*
X137638214Y-62634761D02*
X137542976Y-62682380D01*
X137304880Y-62682380D01*
X137209642Y-62634761D01*
X137162023Y-62539523D01*
X137162023Y-62444285D01*
X137209642Y-62349047D01*
X137304880Y-62301428D01*
X137542976Y-62301428D01*
X137638214Y-62253809D01*
X138257261Y-62682380D02*
X138162023Y-62634761D01*
X138114404Y-62539523D01*
X138114404Y-61682380D01*
X139400119Y-62682380D02*
X139400119Y-61682380D01*
X139400119Y-62063333D02*
X139495357Y-62015714D01*
X139685833Y-62015714D01*
X139781071Y-62063333D01*
X139828690Y-62110952D01*
X139876309Y-62206190D01*
X139876309Y-62491904D01*
X139828690Y-62587142D01*
X139781071Y-62634761D01*
X139685833Y-62682380D01*
X139495357Y-62682380D01*
X139400119Y-62634761D01*
X140447738Y-62682380D02*
X140352500Y-62634761D01*
X140304880Y-62587142D01*
X140257261Y-62491904D01*
X140257261Y-62206190D01*
X140304880Y-62110952D01*
X140352500Y-62063333D01*
X140447738Y-62015714D01*
X140590595Y-62015714D01*
X140685833Y-62063333D01*
X140733452Y-62110952D01*
X140781071Y-62206190D01*
X140781071Y-62491904D01*
X140733452Y-62587142D01*
X140685833Y-62634761D01*
X140590595Y-62682380D01*
X140447738Y-62682380D01*
X141638214Y-62682380D02*
X141638214Y-62158571D01*
X141590595Y-62063333D01*
X141495357Y-62015714D01*
X141304880Y-62015714D01*
X141209642Y-62063333D01*
X141638214Y-62634761D02*
X141542976Y-62682380D01*
X141304880Y-62682380D01*
X141209642Y-62634761D01*
X141162023Y-62539523D01*
X141162023Y-62444285D01*
X141209642Y-62349047D01*
X141304880Y-62301428D01*
X141542976Y-62301428D01*
X141638214Y-62253809D01*
X142114404Y-62682380D02*
X142114404Y-62015714D01*
X142114404Y-62206190D02*
X142162023Y-62110952D01*
X142209642Y-62063333D01*
X142304880Y-62015714D01*
X142400119Y-62015714D01*
X143162023Y-62682380D02*
X143162023Y-61682380D01*
X143162023Y-62634761D02*
X143066785Y-62682380D01*
X142876309Y-62682380D01*
X142781071Y-62634761D01*
X142733452Y-62587142D01*
X142685833Y-62491904D01*
X142685833Y-62206190D01*
X142733452Y-62110952D01*
X142781071Y-62063333D01*
X142876309Y-62015714D01*
X143066785Y-62015714D01*
X143162023Y-62063333D01*
X135590595Y-64292380D02*
X135590595Y-63625714D01*
X135590595Y-63816190D02*
X135638214Y-63720952D01*
X135685833Y-63673333D01*
X135781071Y-63625714D01*
X135876309Y-63625714D01*
X136590595Y-64244761D02*
X136495357Y-64292380D01*
X136304880Y-64292380D01*
X136209642Y-64244761D01*
X136162023Y-64149523D01*
X136162023Y-63768571D01*
X136209642Y-63673333D01*
X136304880Y-63625714D01*
X136495357Y-63625714D01*
X136590595Y-63673333D01*
X136638214Y-63768571D01*
X136638214Y-63863809D01*
X136162023Y-63959047D01*
X136971547Y-63625714D02*
X137209642Y-64292380D01*
X137447738Y-63625714D01*
X138781071Y-63292380D02*
X138876309Y-63292380D01*
X138971547Y-63340000D01*
X139019166Y-63387619D01*
X139066785Y-63482857D01*
X139114404Y-63673333D01*
X139114404Y-63911428D01*
X139066785Y-64101904D01*
X139019166Y-64197142D01*
X138971547Y-64244761D01*
X138876309Y-64292380D01*
X138781071Y-64292380D01*
X138685833Y-64244761D01*
X138638214Y-64197142D01*
X138590595Y-64101904D01*
X138542976Y-63911428D01*
X138542976Y-63673333D01*
X138590595Y-63482857D01*
X138638214Y-63387619D01*
X138685833Y-63340000D01*
X138781071Y-63292380D01*
X116540595Y-84272380D02*
X116540595Y-83272380D01*
X117016785Y-84272380D02*
X117016785Y-83272380D01*
X117588214Y-84272380D01*
X117588214Y-83272380D01*
X117921547Y-83272380D02*
X118492976Y-83272380D01*
X118207261Y-84272380D02*
X118207261Y-83272380D01*
X119159642Y-83748571D02*
X119302500Y-83796190D01*
X119350119Y-83843809D01*
X119397738Y-83939047D01*
X119397738Y-84081904D01*
X119350119Y-84177142D01*
X119302500Y-84224761D01*
X119207261Y-84272380D01*
X118826309Y-84272380D01*
X118826309Y-83272380D01*
X119159642Y-83272380D01*
X119254880Y-83320000D01*
X119302500Y-83367619D01*
X119350119Y-83462857D01*
X119350119Y-83558095D01*
X119302500Y-83653333D01*
X119254880Y-83700952D01*
X119159642Y-83748571D01*
X118826309Y-83748571D01*
X120588214Y-83272380D02*
X120588214Y-84081904D01*
X120635833Y-84177142D01*
X120683452Y-84224761D01*
X120778690Y-84272380D01*
X120969166Y-84272380D01*
X121064404Y-84224761D01*
X121112023Y-84177142D01*
X121159642Y-84081904D01*
X121159642Y-83272380D01*
X122159642Y-84272380D02*
X121588214Y-84272380D01*
X121873928Y-84272380D02*
X121873928Y-83272380D01*
X121778690Y-83415238D01*
X121683452Y-83510476D01*
X121588214Y-83558095D01*
X116302500Y-93150000D02*
X117302500Y-93150000D01*
X117112023Y-94432380D02*
X116778690Y-93956190D01*
X116540595Y-94432380D02*
X116540595Y-93432380D01*
X116921547Y-93432380D01*
X117016785Y-93480000D01*
X117064404Y-93527619D01*
X117112023Y-93622857D01*
X117112023Y-93765714D01*
X117064404Y-93860952D01*
X117016785Y-93908571D01*
X116921547Y-93956190D01*
X116540595Y-93956190D01*
X117302500Y-93150000D02*
X118207261Y-93150000D01*
X117540595Y-93908571D02*
X117873928Y-93908571D01*
X118016785Y-94432380D02*
X117540595Y-94432380D01*
X117540595Y-93432380D01*
X118016785Y-93432380D01*
X118207261Y-93150000D02*
X119159642Y-93150000D01*
X118397738Y-94384761D02*
X118540595Y-94432380D01*
X118778690Y-94432380D01*
X118873928Y-94384761D01*
X118921547Y-94337142D01*
X118969166Y-94241904D01*
X118969166Y-94146666D01*
X118921547Y-94051428D01*
X118873928Y-94003809D01*
X118778690Y-93956190D01*
X118588214Y-93908571D01*
X118492976Y-93860952D01*
X118445357Y-93813333D01*
X118397738Y-93718095D01*
X118397738Y-93622857D01*
X118445357Y-93527619D01*
X118492976Y-93480000D01*
X118588214Y-93432380D01*
X118826309Y-93432380D01*
X118969166Y-93480000D01*
X119159642Y-93150000D02*
X120064404Y-93150000D01*
X119397738Y-93908571D02*
X119731071Y-93908571D01*
X119873928Y-94432380D02*
X119397738Y-94432380D01*
X119397738Y-93432380D01*
X119873928Y-93432380D01*
X120064404Y-93150000D02*
X120826309Y-93150000D01*
X120159642Y-93432380D02*
X120731071Y-93432380D01*
X120445357Y-94432380D02*
X120445357Y-93432380D01*
X116540595Y-91967380D02*
X116540595Y-90967380D01*
X117016785Y-91967380D02*
X117016785Y-90967380D01*
X117588214Y-91967380D01*
X117588214Y-90967380D01*
X117921547Y-90967380D02*
X118492976Y-90967380D01*
X118207261Y-91967380D02*
X118207261Y-90967380D01*
X118778690Y-91681666D02*
X119254880Y-91681666D01*
X118683452Y-91967380D02*
X119016785Y-90967380D01*
X119350119Y-91967380D01*
X120445357Y-90967380D02*
X120445357Y-91776904D01*
X120492976Y-91872142D01*
X120540595Y-91919761D01*
X120635833Y-91967380D01*
X120826309Y-91967380D01*
X120921547Y-91919761D01*
X120969166Y-91872142D01*
X121016785Y-91776904D01*
X121016785Y-90967380D01*
X121445357Y-91062619D02*
X121492976Y-91015000D01*
X121588214Y-90967380D01*
X121826309Y-90967380D01*
X121921547Y-91015000D01*
X121969166Y-91062619D01*
X122016785Y-91157857D01*
X122016785Y-91253095D01*
X121969166Y-91395952D01*
X121397738Y-91967380D01*
X122016785Y-91967380D01*
X116540595Y-71572380D02*
X116540595Y-70572380D01*
X116873928Y-71286666D01*
X117207261Y-70572380D01*
X117207261Y-71572380D01*
X117873928Y-70572380D02*
X118064404Y-70572380D01*
X118159642Y-70620000D01*
X118254880Y-70715238D01*
X118302500Y-70905714D01*
X118302500Y-71239047D01*
X118254880Y-71429523D01*
X118159642Y-71524761D01*
X118064404Y-71572380D01*
X117873928Y-71572380D01*
X117778690Y-71524761D01*
X117683452Y-71429523D01*
X117635833Y-71239047D01*
X117635833Y-70905714D01*
X117683452Y-70715238D01*
X117778690Y-70620000D01*
X117873928Y-70572380D01*
X118683452Y-71524761D02*
X118826309Y-71572380D01*
X119064404Y-71572380D01*
X119159642Y-71524761D01*
X119207261Y-71477142D01*
X119254880Y-71381904D01*
X119254880Y-71286666D01*
X119207261Y-71191428D01*
X119159642Y-71143809D01*
X119064404Y-71096190D01*
X118873928Y-71048571D01*
X118778690Y-71000952D01*
X118731071Y-70953333D01*
X118683452Y-70858095D01*
X118683452Y-70762857D01*
X118731071Y-70667619D01*
X118778690Y-70620000D01*
X118873928Y-70572380D01*
X119112023Y-70572380D01*
X119254880Y-70620000D01*
X119683452Y-71572380D02*
X119683452Y-70572380D01*
X117112023Y-79097142D02*
X117064404Y-79144761D01*
X116921547Y-79192380D01*
X116826309Y-79192380D01*
X116683452Y-79144761D01*
X116588214Y-79049523D01*
X116540595Y-78954285D01*
X116492976Y-78763809D01*
X116492976Y-78620952D01*
X116540595Y-78430476D01*
X116588214Y-78335238D01*
X116683452Y-78240000D01*
X116826309Y-78192380D01*
X116921547Y-78192380D01*
X117064404Y-78240000D01*
X117112023Y-78287619D01*
X117492976Y-79144761D02*
X117635833Y-79192380D01*
X117873928Y-79192380D01*
X117969166Y-79144761D01*
X118016785Y-79097142D01*
X118064404Y-79001904D01*
X118064404Y-78906666D01*
X118016785Y-78811428D01*
X117969166Y-78763809D01*
X117873928Y-78716190D01*
X117683452Y-78668571D01*
X117588214Y-78620952D01*
X117540595Y-78573333D01*
X117492976Y-78478095D01*
X117492976Y-78382857D01*
X117540595Y-78287619D01*
X117588214Y-78240000D01*
X117683452Y-78192380D01*
X117921547Y-78192380D01*
X118064404Y-78240000D01*
X118683452Y-78192380D02*
X118778690Y-78192380D01*
X118873928Y-78240000D01*
X118921547Y-78287619D01*
X118969166Y-78382857D01*
X119016785Y-78573333D01*
X119016785Y-78811428D01*
X118969166Y-79001904D01*
X118921547Y-79097142D01*
X118873928Y-79144761D01*
X118778690Y-79192380D01*
X118683452Y-79192380D01*
X118588214Y-79144761D01*
X118540595Y-79097142D01*
X118492976Y-79001904D01*
X118445357Y-78811428D01*
X118445357Y-78573333D01*
X118492976Y-78382857D01*
X118540595Y-78287619D01*
X118588214Y-78240000D01*
X118683452Y-78192380D01*
X116540595Y-68651428D02*
X117302500Y-68651428D01*
X116921547Y-69032380D02*
X116921547Y-68270476D01*
X117683452Y-68032380D02*
X118302500Y-68032380D01*
X117969166Y-68413333D01*
X118112023Y-68413333D01*
X118207261Y-68460952D01*
X118254880Y-68508571D01*
X118302500Y-68603809D01*
X118302500Y-68841904D01*
X118254880Y-68937142D01*
X118207261Y-68984761D01*
X118112023Y-69032380D01*
X117826309Y-69032380D01*
X117731071Y-68984761D01*
X117683452Y-68937142D01*
X118731071Y-68937142D02*
X118778690Y-68984761D01*
X118731071Y-69032380D01*
X118683452Y-68984761D01*
X118731071Y-68937142D01*
X118731071Y-69032380D01*
X119112023Y-68032380D02*
X119731071Y-68032380D01*
X119397738Y-68413333D01*
X119540595Y-68413333D01*
X119635833Y-68460952D01*
X119683452Y-68508571D01*
X119731071Y-68603809D01*
X119731071Y-68841904D01*
X119683452Y-68937142D01*
X119635833Y-68984761D01*
X119540595Y-69032380D01*
X119254880Y-69032380D01*
X119159642Y-68984761D01*
X119112023Y-68937142D01*
X120064404Y-68365714D02*
X120302500Y-69032380D01*
X120540595Y-68365714D01*
X130510595Y-112212380D02*
X130510595Y-111212380D01*
X130939166Y-112212380D02*
X130939166Y-111688571D01*
X130891547Y-111593333D01*
X130796309Y-111545714D01*
X130653452Y-111545714D01*
X130558214Y-111593333D01*
X130510595Y-111640952D01*
X131415357Y-112212380D02*
X131415357Y-111545714D01*
X131415357Y-111212380D02*
X131367738Y-111260000D01*
X131415357Y-111307619D01*
X131462976Y-111260000D01*
X131415357Y-111212380D01*
X131415357Y-111307619D01*
X132320119Y-111545714D02*
X132320119Y-112355238D01*
X132272500Y-112450476D01*
X132224880Y-112498095D01*
X132129642Y-112545714D01*
X131986785Y-112545714D01*
X131891547Y-112498095D01*
X132320119Y-112164761D02*
X132224880Y-112212380D01*
X132034404Y-112212380D01*
X131939166Y-112164761D01*
X131891547Y-112117142D01*
X131843928Y-112021904D01*
X131843928Y-111736190D01*
X131891547Y-111640952D01*
X131939166Y-111593333D01*
X132034404Y-111545714D01*
X132224880Y-111545714D01*
X132320119Y-111593333D01*
X132796309Y-112212380D02*
X132796309Y-111212380D01*
X133224880Y-112212380D02*
X133224880Y-111688571D01*
X133177261Y-111593333D01*
X133082023Y-111545714D01*
X132939166Y-111545714D01*
X132843928Y-111593333D01*
X132796309Y-111640952D01*
X116540595Y-86812380D02*
X116540595Y-85812380D01*
X117016785Y-86812380D02*
X117016785Y-85812380D01*
X117588214Y-86812380D01*
X117588214Y-85812380D01*
X117921547Y-85812380D02*
X118492976Y-85812380D01*
X118207261Y-86812380D02*
X118207261Y-85812380D01*
X118778690Y-86526666D02*
X119254880Y-86526666D01*
X118683452Y-86812380D02*
X119016785Y-85812380D01*
X119350119Y-86812380D01*
X120445357Y-85812380D02*
X120445357Y-86621904D01*
X120492976Y-86717142D01*
X120540595Y-86764761D01*
X120635833Y-86812380D01*
X120826309Y-86812380D01*
X120921547Y-86764761D01*
X120969166Y-86717142D01*
X121016785Y-86621904D01*
X121016785Y-85812380D01*
X122016785Y-86812380D02*
X121445357Y-86812380D01*
X121731071Y-86812380D02*
X121731071Y-85812380D01*
X121635833Y-85955238D01*
X121540595Y-86050476D01*
X121445357Y-86098095D01*
X116540595Y-74112380D02*
X116540595Y-73112380D01*
X116873928Y-73826666D01*
X117207261Y-73112380D01*
X117207261Y-74112380D01*
X117683452Y-74112380D02*
X117683452Y-73112380D01*
X118112023Y-74064761D02*
X118254880Y-74112380D01*
X118492976Y-74112380D01*
X118588214Y-74064761D01*
X118635833Y-74017142D01*
X118683452Y-73921904D01*
X118683452Y-73826666D01*
X118635833Y-73731428D01*
X118588214Y-73683809D01*
X118492976Y-73636190D01*
X118302500Y-73588571D01*
X118207261Y-73540952D01*
X118159642Y-73493333D01*
X118112023Y-73398095D01*
X118112023Y-73302857D01*
X118159642Y-73207619D01*
X118207261Y-73160000D01*
X118302500Y-73112380D01*
X118540595Y-73112380D01*
X118683452Y-73160000D01*
X119302500Y-73112380D02*
X119492976Y-73112380D01*
X119588214Y-73160000D01*
X119683452Y-73255238D01*
X119731071Y-73445714D01*
X119731071Y-73779047D01*
X119683452Y-73969523D01*
X119588214Y-74064761D01*
X119492976Y-74112380D01*
X119302500Y-74112380D01*
X119207261Y-74064761D01*
X119112023Y-73969523D01*
X119064404Y-73779047D01*
X119064404Y-73445714D01*
X119112023Y-73255238D01*
X119207261Y-73160000D01*
X119302500Y-73112380D01*
X127508095Y-63212380D02*
X127508095Y-64021904D01*
X127555714Y-64117142D01*
X127603333Y-64164761D01*
X127698571Y-64212380D01*
X127889047Y-64212380D01*
X127984285Y-64164761D01*
X128031904Y-64117142D01*
X128079523Y-64021904D01*
X128079523Y-63212380D01*
X129079523Y-64212380D02*
X128508095Y-64212380D01*
X128793809Y-64212380D02*
X128793809Y-63212380D01*
X128698571Y-63355238D01*
X128603333Y-63450476D01*
X128508095Y-63498095D01*
X143294166Y-65209161D02*
X143437023Y-65256780D01*
X143675119Y-65256780D01*
X143770357Y-65209161D01*
X143817976Y-65161542D01*
X143865595Y-65066304D01*
X143865595Y-64971066D01*
X143817976Y-64875828D01*
X143770357Y-64828209D01*
X143675119Y-64780590D01*
X143484642Y-64732971D01*
X143389404Y-64685352D01*
X143341785Y-64637733D01*
X143294166Y-64542495D01*
X143294166Y-64447257D01*
X143341785Y-64352019D01*
X143389404Y-64304400D01*
X143484642Y-64256780D01*
X143722738Y-64256780D01*
X143865595Y-64304400D01*
X144198928Y-64256780D02*
X144437023Y-65256780D01*
X144627500Y-64542495D01*
X144817976Y-65256780D01*
X145056071Y-64256780D01*
X145960833Y-65256780D02*
X145389404Y-65256780D01*
X145675119Y-65256780D02*
X145675119Y-64256780D01*
X145579880Y-64399638D01*
X145484642Y-64494876D01*
X145389404Y-64542495D01*
X154114666Y-113231561D02*
X154257523Y-113279180D01*
X154495619Y-113279180D01*
X154590857Y-113231561D01*
X154638476Y-113183942D01*
X154686095Y-113088704D01*
X154686095Y-112993466D01*
X154638476Y-112898228D01*
X154590857Y-112850609D01*
X154495619Y-112802990D01*
X154305142Y-112755371D01*
X154209904Y-112707752D01*
X154162285Y-112660133D01*
X154114666Y-112564895D01*
X154114666Y-112469657D01*
X154162285Y-112374419D01*
X154209904Y-112326800D01*
X154305142Y-112279180D01*
X154543238Y-112279180D01*
X154686095Y-112326800D01*
X155019428Y-112279180D02*
X155257523Y-113279180D01*
X155448000Y-112564895D01*
X155638476Y-113279180D01*
X155876571Y-112279180D01*
X156686095Y-112612514D02*
X156686095Y-113279180D01*
X156448000Y-112231561D02*
X156209904Y-112945847D01*
X156828952Y-112945847D01*
X113966666Y-98512380D02*
X113966666Y-99226666D01*
X113919047Y-99369523D01*
X113823809Y-99464761D01*
X113680952Y-99512380D01*
X113585714Y-99512380D01*
X114966666Y-99512380D02*
X114395238Y-99512380D01*
X114680952Y-99512380D02*
X114680952Y-98512380D01*
X114585714Y-98655238D01*
X114490476Y-98750476D01*
X114395238Y-98798095D01*
X123023333Y-59637142D02*
X122975714Y-59684761D01*
X122832857Y-59732380D01*
X122737619Y-59732380D01*
X122594761Y-59684761D01*
X122499523Y-59589523D01*
X122451904Y-59494285D01*
X122404285Y-59303809D01*
X122404285Y-59160952D01*
X122451904Y-58970476D01*
X122499523Y-58875238D01*
X122594761Y-58780000D01*
X122737619Y-58732380D01*
X122832857Y-58732380D01*
X122975714Y-58780000D01*
X123023333Y-58827619D01*
X123975714Y-59732380D02*
X123404285Y-59732380D01*
X123690000Y-59732380D02*
X123690000Y-58732380D01*
X123594761Y-58875238D01*
X123499523Y-58970476D01*
X123404285Y-59018095D01*
X113561904Y-104846380D02*
X113561904Y-103846380D01*
X113800000Y-103846380D01*
X113942857Y-103894000D01*
X114038095Y-103989238D01*
X114085714Y-104084476D01*
X114133333Y-104274952D01*
X114133333Y-104417809D01*
X114085714Y-104608285D01*
X114038095Y-104703523D01*
X113942857Y-104798761D01*
X113800000Y-104846380D01*
X113561904Y-104846380D01*
X115085714Y-104846380D02*
X114514285Y-104846380D01*
X114800000Y-104846380D02*
X114800000Y-103846380D01*
X114704761Y-103989238D01*
X114609523Y-104084476D01*
X114514285Y-104132095D01*
X135215333Y-114955580D02*
X134882000Y-114479390D01*
X134643904Y-114955580D02*
X134643904Y-113955580D01*
X135024857Y-113955580D01*
X135120095Y-114003200D01*
X135167714Y-114050819D01*
X135215333Y-114146057D01*
X135215333Y-114288914D01*
X135167714Y-114384152D01*
X135120095Y-114431771D01*
X135024857Y-114479390D01*
X134643904Y-114479390D01*
X136167714Y-114955580D02*
X135596285Y-114955580D01*
X135882000Y-114955580D02*
X135882000Y-113955580D01*
X135786761Y-114098438D01*
X135691523Y-114193676D01*
X135596285Y-114241295D01*
X130796309Y-113752380D02*
X130796309Y-114466666D01*
X130748690Y-114609523D01*
X130653452Y-114704761D01*
X130510595Y-114752380D01*
X130415357Y-114752380D01*
X131272500Y-114752380D02*
X131272500Y-113752380D01*
X131653452Y-113752380D01*
X131748690Y-113800000D01*
X131796309Y-113847619D01*
X131843928Y-113942857D01*
X131843928Y-114085714D01*
X131796309Y-114180952D01*
X131748690Y-114228571D01*
X131653452Y-114276190D01*
X131272500Y-114276190D01*
X132796309Y-114752380D02*
X132224880Y-114752380D01*
X132510595Y-114752380D02*
X132510595Y-113752380D01*
X132415357Y-113895238D01*
X132320119Y-113990476D01*
X132224880Y-114038095D01*
X143294266Y-113231561D02*
X143437123Y-113279180D01*
X143675219Y-113279180D01*
X143770457Y-113231561D01*
X143818076Y-113183942D01*
X143865695Y-113088704D01*
X143865695Y-112993466D01*
X143818076Y-112898228D01*
X143770457Y-112850609D01*
X143675219Y-112802990D01*
X143484742Y-112755371D01*
X143389504Y-112707752D01*
X143341885Y-112660133D01*
X143294266Y-112564895D01*
X143294266Y-112469657D01*
X143341885Y-112374419D01*
X143389504Y-112326800D01*
X143484742Y-112279180D01*
X143722838Y-112279180D01*
X143865695Y-112326800D01*
X144199028Y-112279180D02*
X144437123Y-113279180D01*
X144627600Y-112564895D01*
X144818076Y-113279180D01*
X145056171Y-112279180D01*
X145389504Y-112374419D02*
X145437123Y-112326800D01*
X145532361Y-112279180D01*
X145770457Y-112279180D01*
X145865695Y-112326800D01*
X145913314Y-112374419D01*
X145960933Y-112469657D01*
X145960933Y-112564895D01*
X145913314Y-112707752D01*
X145341885Y-113279180D01*
X145960933Y-113279180D01*
X124166333Y-112781142D02*
X124118714Y-112828761D01*
X123975857Y-112876380D01*
X123880619Y-112876380D01*
X123737761Y-112828761D01*
X123642523Y-112733523D01*
X123594904Y-112638285D01*
X123547285Y-112447809D01*
X123547285Y-112304952D01*
X123594904Y-112114476D01*
X123642523Y-112019238D01*
X123737761Y-111924000D01*
X123880619Y-111876380D01*
X123975857Y-111876380D01*
X124118714Y-111924000D01*
X124166333Y-111971619D01*
X124499666Y-111876380D02*
X125118714Y-111876380D01*
X124785380Y-112257333D01*
X124928238Y-112257333D01*
X125023476Y-112304952D01*
X125071095Y-112352571D01*
X125118714Y-112447809D01*
X125118714Y-112685904D01*
X125071095Y-112781142D01*
X125023476Y-112828761D01*
X124928238Y-112876380D01*
X124642523Y-112876380D01*
X124547285Y-112828761D01*
X124499666Y-112781142D01*
X153860666Y-65209161D02*
X154003523Y-65256780D01*
X154241619Y-65256780D01*
X154336857Y-65209161D01*
X154384476Y-65161542D01*
X154432095Y-65066304D01*
X154432095Y-64971066D01*
X154384476Y-64875828D01*
X154336857Y-64828209D01*
X154241619Y-64780590D01*
X154051142Y-64732971D01*
X153955904Y-64685352D01*
X153908285Y-64637733D01*
X153860666Y-64542495D01*
X153860666Y-64447257D01*
X153908285Y-64352019D01*
X153955904Y-64304400D01*
X154051142Y-64256780D01*
X154289238Y-64256780D01*
X154432095Y-64304400D01*
X154765428Y-64256780D02*
X155003523Y-65256780D01*
X155194000Y-64542495D01*
X155384476Y-65256780D01*
X155622571Y-64256780D01*
X155908285Y-64256780D02*
X156527333Y-64256780D01*
X156194000Y-64637733D01*
X156336857Y-64637733D01*
X156432095Y-64685352D01*
X156479714Y-64732971D01*
X156527333Y-64828209D01*
X156527333Y-65066304D01*
X156479714Y-65161542D01*
X156432095Y-65209161D01*
X156336857Y-65256780D01*
X156051142Y-65256780D01*
X155955904Y-65209161D01*
X155908285Y-65161542D01*
X127508095Y-89882380D02*
X127508095Y-90691904D01*
X127555714Y-90787142D01*
X127603333Y-90834761D01*
X127698571Y-90882380D01*
X127889047Y-90882380D01*
X127984285Y-90834761D01*
X128031904Y-90787142D01*
X128079523Y-90691904D01*
X128079523Y-89882380D01*
X128508095Y-89977619D02*
X128555714Y-89930000D01*
X128650952Y-89882380D01*
X128889047Y-89882380D01*
X128984285Y-89930000D01*
X129031904Y-89977619D01*
X129079523Y-90072857D01*
X129079523Y-90168095D01*
X129031904Y-90310952D01*
X128460476Y-90882380D01*
X129079523Y-90882380D01*
X114133333Y-109926380D02*
X113800000Y-109450190D01*
X113561904Y-109926380D02*
X113561904Y-108926380D01*
X113942857Y-108926380D01*
X114038095Y-108974000D01*
X114085714Y-109021619D01*
X114133333Y-109116857D01*
X114133333Y-109259714D01*
X114085714Y-109354952D01*
X114038095Y-109402571D01*
X113942857Y-109450190D01*
X113561904Y-109450190D01*
X114514285Y-109021619D02*
X114561904Y-108974000D01*
X114657142Y-108926380D01*
X114895238Y-108926380D01*
X114990476Y-108974000D01*
X115038095Y-109021619D01*
X115085714Y-109116857D01*
X115085714Y-109212095D01*
X115038095Y-109354952D01*
X114466666Y-109926380D01*
X115085714Y-109926380D01*
X124420333Y-86111142D02*
X124372714Y-86158761D01*
X124229857Y-86206380D01*
X124134619Y-86206380D01*
X123991761Y-86158761D01*
X123896523Y-86063523D01*
X123848904Y-85968285D01*
X123801285Y-85777809D01*
X123801285Y-85634952D01*
X123848904Y-85444476D01*
X123896523Y-85349238D01*
X123991761Y-85254000D01*
X124134619Y-85206380D01*
X124229857Y-85206380D01*
X124372714Y-85254000D01*
X124420333Y-85301619D01*
X124801285Y-85301619D02*
X124848904Y-85254000D01*
X124944142Y-85206380D01*
X125182238Y-85206380D01*
X125277476Y-85254000D01*
X125325095Y-85301619D01*
X125372714Y-85396857D01*
X125372714Y-85492095D01*
X125325095Y-85634952D01*
X124753666Y-86206380D01*
X125372714Y-86206380D01*
D11*
X124410000Y-64845000D02*
X122595000Y-64845000D01*
X128270000Y-82720000D02*
X124410000Y-82720000D01*
X128270000Y-64600000D02*
X132130000Y-64600000D01*
X128270000Y-64600000D02*
X124410000Y-64600000D01*
X132130000Y-64600000D02*
X132130000Y-64845000D01*
X132130000Y-82720000D02*
X132130000Y-82475000D01*
X128270000Y-82720000D02*
X132130000Y-82720000D01*
X124410000Y-64600000D02*
X124410000Y-64845000D01*
X124410000Y-82720000D02*
X124410000Y-82475000D01*
X142597500Y-72789400D02*
X143950833Y-72789400D01*
X142597500Y-84029400D02*
X143950833Y-84029400D01*
X142597500Y-83309400D02*
X143950833Y-83309400D01*
X142597500Y-76049400D02*
X143950833Y-76049400D01*
X142597500Y-75329400D02*
X143950833Y-75329400D01*
X142597500Y-79019400D02*
X146657500Y-79019400D01*
X142597500Y-67709400D02*
X143950833Y-67709400D01*
X142597500Y-76289400D02*
X143950833Y-76289400D01*
X142597500Y-86639400D02*
X146657500Y-86639400D01*
X146657500Y-80289400D02*
X142597500Y-80289400D01*
X142597500Y-73749400D02*
X143950833Y-73749400D01*
X142597500Y-83549400D02*
X143950833Y-83549400D01*
X142597500Y-78229400D02*
X143950833Y-78229400D01*
X142597500Y-75689400D02*
X143950833Y-75689400D01*
X142597500Y-76169400D02*
X143950833Y-76169400D01*
X142597500Y-81559400D02*
X146657500Y-81559400D01*
X142597500Y-67589400D02*
X142597500Y-68859400D01*
X142597500Y-83669400D02*
X143950833Y-83669400D01*
X142597500Y-78709400D02*
X143950833Y-78709400D01*
X146657500Y-85369400D02*
X142597500Y-85369400D01*
X142597500Y-85609400D02*
X143950833Y-85609400D01*
X142597500Y-85729400D02*
X143950833Y-85729400D01*
X142597500Y-80649400D02*
X143950833Y-80649400D01*
X142597500Y-73029400D02*
X143950833Y-73029400D01*
X142597500Y-78109400D02*
X143950833Y-78109400D01*
X146657500Y-67589400D02*
X142597500Y-67589400D01*
X142597500Y-77989400D02*
X143950833Y-77989400D01*
X146657500Y-68859400D02*
X146657500Y-67589400D01*
X142597500Y-86329400D02*
X143950833Y-86329400D01*
X142597500Y-73389400D02*
X143950833Y-73389400D01*
X142597500Y-80529400D02*
X143950833Y-80529400D01*
X142597500Y-70849400D02*
X143950833Y-70849400D01*
X142597500Y-73629400D02*
X143950833Y-73629400D01*
X139677500Y-65804400D02*
X139677500Y-88425400D01*
X142597500Y-67829400D02*
X143950833Y-67829400D01*
X143950833Y-77749400D02*
X143950833Y-79019400D01*
X142597500Y-78349400D02*
X143950833Y-78349400D01*
X142597500Y-83909400D02*
X143950833Y-83909400D01*
X146657500Y-84099400D02*
X146657500Y-82829400D01*
X142597500Y-73149400D02*
X143950833Y-73149400D01*
X146657500Y-77749400D02*
X142597500Y-77749400D01*
X142597500Y-73269400D02*
X143950833Y-73269400D01*
X142597500Y-77749400D02*
X142597500Y-79019400D01*
X142597500Y-86089400D02*
X143950833Y-86089400D01*
X146657500Y-73939400D02*
X146657500Y-72669400D01*
X146657500Y-72669400D02*
X142597500Y-72669400D01*
X142597500Y-83429400D02*
X143950833Y-83429400D01*
X142597500Y-70969400D02*
X143950833Y-70969400D01*
X142597500Y-75809400D02*
X143950833Y-75809400D01*
X142597500Y-76479400D02*
X146657500Y-76479400D01*
X146657500Y-81559400D02*
X146657500Y-80289400D01*
X142597500Y-68549400D02*
X143950833Y-68549400D01*
X142597500Y-83789400D02*
X143950833Y-83789400D01*
X142597500Y-83189400D02*
X143950833Y-83189400D01*
X142597500Y-72669400D02*
X142597500Y-73939400D01*
X142597500Y-86569400D02*
X143950833Y-86569400D01*
X142597500Y-75449400D02*
X143950833Y-75449400D01*
X142597500Y-85969400D02*
X143950833Y-85969400D01*
X142597500Y-78589400D02*
X143950833Y-78589400D01*
X143950833Y-75209400D02*
X143950833Y-76479400D01*
X142597500Y-71399400D02*
X146657500Y-71399400D01*
X142597500Y-80889400D02*
X143950833Y-80889400D01*
X143950833Y-72669400D02*
X143950833Y-73939400D01*
X142597500Y-85489400D02*
X143950833Y-85489400D01*
X142597500Y-70609400D02*
X143950833Y-70609400D01*
X146657500Y-70129400D02*
X142597500Y-70129400D01*
X142597500Y-85849400D02*
X143950833Y-85849400D01*
X142597500Y-81009400D02*
X143950833Y-81009400D01*
X143950833Y-80289400D02*
X143950833Y-81559400D01*
X142597500Y-70249400D02*
X143950833Y-70249400D01*
X142597500Y-70489400D02*
X143950833Y-70489400D01*
X146657500Y-79019400D02*
X146657500Y-77749400D01*
X142597500Y-72909400D02*
X143950833Y-72909400D01*
X143950833Y-67589400D02*
X143950833Y-68859400D01*
X142597500Y-81369400D02*
X143950833Y-81369400D01*
X142597500Y-68789400D02*
X143950833Y-68789400D01*
X139677500Y-88425400D02*
X149577500Y-88425400D01*
X139437500Y-65564400D02*
X140821500Y-65564400D01*
X143950833Y-82829400D02*
X143950833Y-84099400D01*
X142597500Y-78469400D02*
X143950833Y-78469400D01*
X142597500Y-68309400D02*
X143950833Y-68309400D01*
X142597500Y-84099400D02*
X146657500Y-84099400D01*
X146657500Y-71399400D02*
X146657500Y-70129400D01*
X142597500Y-67949400D02*
X143950833Y-67949400D01*
X143950833Y-85369400D02*
X143950833Y-86639400D01*
X142597500Y-68429400D02*
X143950833Y-68429400D01*
X142597500Y-86209400D02*
X143950833Y-86209400D01*
X139677500Y-65804400D02*
X149577500Y-65804400D01*
X142597500Y-75569400D02*
X143950833Y-75569400D01*
X142597500Y-68069400D02*
X143950833Y-68069400D01*
X142597500Y-80289400D02*
X142597500Y-81559400D01*
X142597500Y-82829400D02*
X142597500Y-84099400D01*
X146657500Y-86639400D02*
X146657500Y-85369400D01*
X142597500Y-68189400D02*
X143950833Y-68189400D01*
X142597500Y-80409400D02*
X143950833Y-80409400D01*
X142597500Y-78829400D02*
X143950833Y-78829400D01*
X142597500Y-70369400D02*
X143950833Y-70369400D01*
X142597500Y-73939400D02*
X146657500Y-73939400D01*
X142597500Y-68669400D02*
X143950833Y-68669400D01*
X142597500Y-77869400D02*
X143950833Y-77869400D01*
X142597500Y-78949400D02*
X143950833Y-78949400D01*
X142597500Y-75209400D02*
X142597500Y-76479400D01*
X142597500Y-85369400D02*
X142597500Y-86639400D01*
X146657500Y-82829400D02*
X142597500Y-82829400D01*
X142597500Y-71329400D02*
X143950833Y-71329400D01*
X142597500Y-73509400D02*
X143950833Y-73509400D01*
X149577500Y-65804400D02*
X149577500Y-88425400D01*
X142597500Y-83069400D02*
X143950833Y-83069400D01*
X142597500Y-82949400D02*
X143950833Y-82949400D01*
X142597500Y-80769400D02*
X143950833Y-80769400D01*
X142597500Y-68859400D02*
X146657500Y-68859400D01*
X146657500Y-75209400D02*
X142597500Y-75209400D01*
X142597500Y-76409400D02*
X143950833Y-76409400D01*
X146657500Y-76479400D02*
X146657500Y-75209400D01*
X143950833Y-70129400D02*
X143950833Y-71399400D01*
X142597500Y-81249400D02*
X143950833Y-81249400D01*
X142597500Y-70129400D02*
X142597500Y-71399400D01*
X142597500Y-81489400D02*
X143950833Y-81489400D01*
X142597500Y-86449400D02*
X143950833Y-86449400D01*
X142597500Y-71209400D02*
X143950833Y-71209400D01*
X142597500Y-73869400D02*
X143950833Y-73869400D01*
X139437500Y-65564400D02*
X139437500Y-66947400D01*
X142597500Y-81129400D02*
X143950833Y-81129400D01*
X142597500Y-70729400D02*
X143950833Y-70729400D01*
X142597500Y-71089400D02*
X143950833Y-71089400D01*
X142597500Y-75929400D02*
X143950833Y-75929400D01*
X154180000Y-94115800D02*
X155533333Y-94115800D01*
X154180000Y-101015800D02*
X154180000Y-102285800D01*
X151260000Y-111691800D02*
X161160000Y-111691800D01*
X154180000Y-104515800D02*
X155533333Y-104515800D01*
X155533333Y-106095800D02*
X155533333Y-107365800D01*
X161160000Y-89070800D02*
X161160000Y-111691800D01*
X154180000Y-96775800D02*
X155533333Y-96775800D01*
X158240000Y-95935800D02*
X154180000Y-95935800D01*
X154180000Y-109715800D02*
X155533333Y-109715800D01*
X158240000Y-97205800D02*
X158240000Y-95935800D01*
X154180000Y-109475800D02*
X155533333Y-109475800D01*
X151260000Y-89070800D02*
X151260000Y-111691800D01*
X154180000Y-94475800D02*
X155533333Y-94475800D01*
X154180000Y-91095800D02*
X155533333Y-91095800D01*
X154180000Y-108755800D02*
X155533333Y-108755800D01*
X154180000Y-101135800D02*
X155533333Y-101135800D01*
X154180000Y-104035800D02*
X155533333Y-104035800D01*
X155533333Y-101015800D02*
X155533333Y-102285800D01*
X154180000Y-95935800D02*
X154180000Y-97205800D01*
X154180000Y-92125800D02*
X158240000Y-92125800D01*
X151260000Y-89070800D02*
X161160000Y-89070800D01*
X158240000Y-93395800D02*
X154180000Y-93395800D01*
X155533333Y-93395800D02*
X155533333Y-94665800D01*
X154180000Y-102095800D02*
X155533333Y-102095800D01*
X154180000Y-103675800D02*
X155533333Y-103675800D01*
X154180000Y-107055800D02*
X155533333Y-107055800D01*
X154180000Y-103795800D02*
X155533333Y-103795800D01*
X158240000Y-108635800D02*
X154180000Y-108635800D01*
X154180000Y-104275800D02*
X155533333Y-104275800D01*
X154180000Y-106335800D02*
X155533333Y-106335800D01*
X154180000Y-101255800D02*
X155533333Y-101255800D01*
X154180000Y-102215800D02*
X155533333Y-102215800D01*
X158240000Y-90855800D02*
X154180000Y-90855800D01*
X154180000Y-109905800D02*
X158240000Y-109905800D01*
X158240000Y-99745800D02*
X158240000Y-98475800D01*
X154180000Y-107365800D02*
X158240000Y-107365800D01*
X155533333Y-90855800D02*
X155533333Y-92125800D01*
X155533333Y-108635800D02*
X155533333Y-109905800D01*
X154180000Y-108635800D02*
X154180000Y-109905800D01*
X154180000Y-93755800D02*
X155533333Y-93755800D01*
X154180000Y-99745800D02*
X158240000Y-99745800D01*
X155533333Y-95935800D02*
X155533333Y-97205800D01*
X154180000Y-101855800D02*
X155533333Y-101855800D01*
X154180000Y-99555800D02*
X155533333Y-99555800D01*
X154180000Y-108875800D02*
X155533333Y-108875800D01*
X154180000Y-98955800D02*
X155533333Y-98955800D01*
X154180000Y-109115800D02*
X155533333Y-109115800D01*
X154180000Y-106935800D02*
X155533333Y-106935800D01*
X158240000Y-103555800D02*
X154180000Y-103555800D01*
X154180000Y-106455800D02*
X155533333Y-106455800D01*
X154180000Y-94235800D02*
X155533333Y-94235800D01*
X154180000Y-107175800D02*
X155533333Y-107175800D01*
X154180000Y-90975800D02*
X155533333Y-90975800D01*
X154180000Y-93515800D02*
X155533333Y-93515800D01*
X154180000Y-91935800D02*
X155533333Y-91935800D01*
X154180000Y-91215800D02*
X155533333Y-91215800D01*
X154180000Y-106815800D02*
X155533333Y-106815800D01*
X154180000Y-97205800D02*
X158240000Y-97205800D01*
X154180000Y-93995800D02*
X155533333Y-93995800D01*
X154180000Y-96655800D02*
X155533333Y-96655800D01*
X154180000Y-93395800D02*
X154180000Y-94665800D01*
X158240000Y-106095800D02*
X154180000Y-106095800D01*
X158240000Y-109905800D02*
X158240000Y-108635800D01*
X158240000Y-101015800D02*
X154180000Y-101015800D01*
X154180000Y-109835800D02*
X155533333Y-109835800D01*
X154180000Y-103915800D02*
X155533333Y-103915800D01*
X154180000Y-94665800D02*
X158240000Y-94665800D01*
X154180000Y-107295800D02*
X155533333Y-107295800D01*
X154180000Y-109355800D02*
X155533333Y-109355800D01*
X154180000Y-106215800D02*
X155533333Y-106215800D01*
X154180000Y-101615800D02*
X155533333Y-101615800D01*
X154180000Y-99315800D02*
X155533333Y-99315800D01*
X154180000Y-97135800D02*
X155533333Y-97135800D01*
X158240000Y-94665800D02*
X158240000Y-93395800D01*
X154180000Y-109235800D02*
X155533333Y-109235800D01*
X154180000Y-93875800D02*
X155533333Y-93875800D01*
X155533333Y-103555800D02*
X155533333Y-104825800D01*
X154180000Y-101375800D02*
X155533333Y-101375800D01*
X154180000Y-108995800D02*
X155533333Y-108995800D01*
X154180000Y-99435800D02*
X155533333Y-99435800D01*
X154180000Y-106695800D02*
X155533333Y-106695800D01*
X154180000Y-101975800D02*
X155533333Y-101975800D01*
X154180000Y-91335800D02*
X155533333Y-91335800D01*
X154180000Y-93635800D02*
X155533333Y-93635800D01*
X154180000Y-96415800D02*
X155533333Y-96415800D01*
X154180000Y-94595800D02*
X155533333Y-94595800D01*
X154180000Y-96535800D02*
X155533333Y-96535800D01*
X154180000Y-104755800D02*
X155533333Y-104755800D01*
X151020000Y-88830800D02*
X151020000Y-90213800D01*
X154180000Y-92055800D02*
X155533333Y-92055800D01*
X154180000Y-104825800D02*
X158240000Y-104825800D01*
X154180000Y-104395800D02*
X155533333Y-104395800D01*
X154180000Y-91575800D02*
X155533333Y-91575800D01*
X154180000Y-106575800D02*
X155533333Y-106575800D01*
X154180000Y-96895800D02*
X155533333Y-96895800D01*
X154180000Y-106095800D02*
X154180000Y-107365800D01*
X154180000Y-96055800D02*
X155533333Y-96055800D01*
X158240000Y-104825800D02*
X158240000Y-103555800D01*
X154180000Y-96175800D02*
X155533333Y-96175800D01*
X154180000Y-98595800D02*
X155533333Y-98595800D01*
X154180000Y-104635800D02*
X155533333Y-104635800D01*
X154180000Y-99195800D02*
X155533333Y-99195800D01*
X154180000Y-98835800D02*
X155533333Y-98835800D01*
X154180000Y-98715800D02*
X155533333Y-98715800D01*
X154180000Y-109595800D02*
X155533333Y-109595800D01*
X154180000Y-98475800D02*
X154180000Y-99745800D01*
X158240000Y-102285800D02*
X158240000Y-101015800D01*
X154180000Y-94355800D02*
X155533333Y-94355800D01*
X154180000Y-97015800D02*
X155533333Y-97015800D01*
X158240000Y-107365800D02*
X158240000Y-106095800D01*
X154180000Y-101495800D02*
X155533333Y-101495800D01*
X155533333Y-98475800D02*
X155533333Y-99745800D01*
X154180000Y-91455800D02*
X155533333Y-91455800D01*
X158240000Y-92125800D02*
X158240000Y-90855800D01*
X154180000Y-99075800D02*
X155533333Y-99075800D01*
X154180000Y-91695800D02*
X155533333Y-91695800D01*
X151020000Y-88830800D02*
X152404000Y-88830800D01*
X154180000Y-90855800D02*
X154180000Y-92125800D01*
X158240000Y-98475800D02*
X154180000Y-98475800D01*
X154180000Y-103555800D02*
X154180000Y-104825800D01*
X154180000Y-96295800D02*
X155533333Y-96295800D01*
X154180000Y-101735800D02*
X155533333Y-101735800D01*
X154180000Y-104155800D02*
X155533333Y-104155800D01*
X154180000Y-99675800D02*
X155533333Y-99675800D01*
X154180000Y-102285800D02*
X158240000Y-102285800D01*
X154180000Y-91815800D02*
X155533333Y-91815800D01*
X112970000Y-69850000D02*
X115630000Y-69850000D01*
X112970000Y-97850000D02*
X115630000Y-97850000D01*
X115630000Y-69850000D02*
X115630000Y-97850000D01*
X112970000Y-68580000D02*
X112970000Y-67250000D01*
X112970000Y-69850000D02*
X112970000Y-97850000D01*
X112970000Y-67250000D02*
X114300000Y-67250000D01*
X122928748Y-61695000D02*
X123451252Y-61695000D01*
X122928748Y-60225000D02*
X123451252Y-60225000D01*
X113340000Y-100854000D02*
X113340000Y-103539000D01*
X113340000Y-103539000D02*
X115260000Y-103539000D01*
X115260000Y-103539000D02*
X115260000Y-100854000D01*
X135154936Y-112244200D02*
X135609064Y-112244200D01*
X135154936Y-113714200D02*
X135609064Y-113714200D01*
X126940000Y-110430000D02*
X128270000Y-110430000D01*
X126940000Y-118170000D02*
X129600000Y-118170000D01*
X126940000Y-113030000D02*
X126940000Y-118170000D01*
X129600000Y-113030000D02*
X129600000Y-118170000D01*
X126940000Y-111760000D02*
X126940000Y-110430000D01*
X126940000Y-113030000D02*
X129600000Y-113030000D01*
X143950933Y-98475800D02*
X143950933Y-99745800D01*
X142597600Y-107055800D02*
X143950933Y-107055800D01*
X142597600Y-91335800D02*
X143950933Y-91335800D01*
X139677600Y-111691800D02*
X149577600Y-111691800D01*
X142597600Y-108995800D02*
X143950933Y-108995800D01*
X142597600Y-104395800D02*
X143950933Y-104395800D01*
X146657600Y-101015800D02*
X142597600Y-101015800D01*
X142597600Y-96535800D02*
X143950933Y-96535800D01*
X142597600Y-90975800D02*
X143950933Y-90975800D01*
X142597600Y-97015800D02*
X143950933Y-97015800D01*
X142597600Y-98715800D02*
X143950933Y-98715800D01*
X142597600Y-96295800D02*
X143950933Y-96295800D01*
X142597600Y-98835800D02*
X143950933Y-98835800D01*
X142597600Y-104755800D02*
X143950933Y-104755800D01*
X142597600Y-98595800D02*
X143950933Y-98595800D01*
X143950933Y-106095800D02*
X143950933Y-107365800D01*
X142597600Y-106695800D02*
X143950933Y-106695800D01*
X142597600Y-109905800D02*
X146657600Y-109905800D01*
X142597600Y-101855800D02*
X143950933Y-101855800D01*
X142597600Y-101015800D02*
X142597600Y-102285800D01*
X142597600Y-99555800D02*
X143950933Y-99555800D01*
X143950933Y-93395800D02*
X143950933Y-94665800D01*
X142597600Y-94235800D02*
X143950933Y-94235800D01*
X142597600Y-104035800D02*
X143950933Y-104035800D01*
X142597600Y-103795800D02*
X143950933Y-103795800D01*
X142597600Y-107365800D02*
X146657600Y-107365800D01*
X146657600Y-90855800D02*
X142597600Y-90855800D01*
X146657600Y-102285800D02*
X146657600Y-101015800D01*
X142597600Y-107175800D02*
X143950933Y-107175800D01*
X142597600Y-96655800D02*
X143950933Y-96655800D01*
X142597600Y-106095800D02*
X142597600Y-107365800D01*
X142597600Y-98955800D02*
X143950933Y-98955800D01*
X142597600Y-106455800D02*
X143950933Y-106455800D01*
X142597600Y-106575800D02*
X143950933Y-106575800D01*
X139677600Y-89070800D02*
X139677600Y-111691800D01*
X142597600Y-102215800D02*
X143950933Y-102215800D01*
X146657600Y-108635800D02*
X142597600Y-108635800D01*
X142597600Y-104635800D02*
X143950933Y-104635800D01*
X146657600Y-94665800D02*
X146657600Y-93395800D01*
X142597600Y-103675800D02*
X143950933Y-103675800D01*
X143950933Y-103555800D02*
X143950933Y-104825800D01*
X142597600Y-99435800D02*
X143950933Y-99435800D01*
X142597600Y-92055800D02*
X143950933Y-92055800D01*
X142597600Y-95935800D02*
X142597600Y-97205800D01*
X146657600Y-97205800D02*
X146657600Y-95935800D01*
X142597600Y-99745800D02*
X146657600Y-99745800D01*
X142597600Y-109835800D02*
X143950933Y-109835800D01*
X142597600Y-96895800D02*
X143950933Y-96895800D01*
X142597600Y-109715800D02*
X143950933Y-109715800D01*
X142597600Y-94475800D02*
X143950933Y-94475800D01*
X142597600Y-108635800D02*
X142597600Y-109905800D01*
X142597600Y-106815800D02*
X143950933Y-106815800D01*
X146657600Y-92125800D02*
X146657600Y-90855800D01*
X142597600Y-107295800D02*
X143950933Y-107295800D01*
X142597600Y-101615800D02*
X143950933Y-101615800D01*
X142597600Y-93635800D02*
X143950933Y-93635800D01*
X142597600Y-91815800D02*
X143950933Y-91815800D01*
X142597600Y-106215800D02*
X143950933Y-106215800D01*
X146657600Y-104825800D02*
X146657600Y-103555800D01*
X143950933Y-101015800D02*
X143950933Y-102285800D01*
X142597600Y-108875800D02*
X143950933Y-108875800D01*
X142597600Y-99675800D02*
X143950933Y-99675800D01*
X146657600Y-106095800D02*
X142597600Y-106095800D01*
X139437600Y-88830800D02*
X139437600Y-90213800D01*
X142597600Y-93755800D02*
X143950933Y-93755800D01*
X142597600Y-104515800D02*
X143950933Y-104515800D01*
X142597600Y-98475800D02*
X142597600Y-99745800D01*
X142597600Y-106935800D02*
X143950933Y-106935800D01*
X142597600Y-97205800D02*
X146657600Y-97205800D01*
X142597600Y-99315800D02*
X143950933Y-99315800D01*
X142597600Y-106335800D02*
X143950933Y-106335800D01*
X142597600Y-96055800D02*
X143950933Y-96055800D01*
X142597600Y-109115800D02*
X143950933Y-109115800D01*
X142597600Y-99075800D02*
X143950933Y-99075800D01*
X142597600Y-94355800D02*
X143950933Y-94355800D01*
X142597600Y-109475800D02*
X143950933Y-109475800D01*
X142597600Y-108755800D02*
X143950933Y-108755800D01*
X146657600Y-103555800D02*
X142597600Y-103555800D01*
X142597600Y-109355800D02*
X143950933Y-109355800D01*
X139437600Y-88830800D02*
X140821600Y-88830800D01*
X142597600Y-91695800D02*
X143950933Y-91695800D01*
X142597600Y-101975800D02*
X143950933Y-101975800D01*
X143950933Y-95935800D02*
X143950933Y-97205800D01*
X142597600Y-104155800D02*
X143950933Y-104155800D01*
X146657600Y-93395800D02*
X142597600Y-93395800D01*
X142597600Y-102285800D02*
X146657600Y-102285800D01*
X146657600Y-109905800D02*
X146657600Y-108635800D01*
X149577600Y-89070800D02*
X149577600Y-111691800D01*
X142597600Y-94115800D02*
X143950933Y-94115800D01*
X142597600Y-101735800D02*
X143950933Y-101735800D01*
X142597600Y-91575800D02*
X143950933Y-91575800D01*
X142597600Y-102095800D02*
X143950933Y-102095800D01*
X139677600Y-89070800D02*
X149577600Y-89070800D01*
X142597600Y-92125800D02*
X146657600Y-92125800D01*
X142597600Y-96415800D02*
X143950933Y-96415800D01*
X142597600Y-97135800D02*
X143950933Y-97135800D01*
X142597600Y-91455800D02*
X143950933Y-91455800D01*
X142597600Y-91095800D02*
X143950933Y-91095800D01*
X142597600Y-109595800D02*
X143950933Y-109595800D01*
X142597600Y-104825800D02*
X146657600Y-104825800D01*
X142597600Y-96775800D02*
X143950933Y-96775800D01*
X142597600Y-93875800D02*
X143950933Y-93875800D01*
X146657600Y-95935800D02*
X142597600Y-95935800D01*
X142597600Y-103915800D02*
X143950933Y-103915800D01*
X142597600Y-99195800D02*
X143950933Y-99195800D01*
X142597600Y-93395800D02*
X142597600Y-94665800D01*
X142597600Y-90855800D02*
X142597600Y-92125800D01*
X142597600Y-103555800D02*
X142597600Y-104825800D01*
X142597600Y-96175800D02*
X143950933Y-96175800D01*
X142597600Y-104275800D02*
X143950933Y-104275800D01*
X146657600Y-99745800D02*
X146657600Y-98475800D01*
X142597600Y-101375800D02*
X143950933Y-101375800D01*
X143950933Y-90855800D02*
X143950933Y-92125800D01*
X142597600Y-101135800D02*
X143950933Y-101135800D01*
X142597600Y-93515800D02*
X143950933Y-93515800D01*
X146657600Y-98475800D02*
X142597600Y-98475800D01*
X142597600Y-94595800D02*
X143950933Y-94595800D01*
X143950933Y-108635800D02*
X143950933Y-109905800D01*
X142597600Y-101255800D02*
X143950933Y-101255800D01*
X142597600Y-109235800D02*
X143950933Y-109235800D01*
X146657600Y-107365800D02*
X146657600Y-106095800D01*
X142597600Y-93995800D02*
X143950933Y-93995800D01*
X142597600Y-94665800D02*
X146657600Y-94665800D01*
X142597600Y-91215800D02*
X143950933Y-91215800D01*
X142597600Y-91935800D02*
X143950933Y-91935800D01*
X142597600Y-101495800D02*
X143950933Y-101495800D01*
X124594252Y-111479000D02*
X124071748Y-111479000D01*
X124594252Y-110009000D02*
X124071748Y-110009000D01*
X154180000Y-73149400D02*
X155533333Y-73149400D01*
X155533333Y-75209400D02*
X155533333Y-76479400D01*
X154180000Y-81009400D02*
X155533333Y-81009400D01*
X154180000Y-80529400D02*
X155533333Y-80529400D01*
X154180000Y-68549400D02*
X155533333Y-68549400D01*
X154180000Y-72909400D02*
X155533333Y-72909400D01*
X154180000Y-71329400D02*
X155533333Y-71329400D01*
X158240000Y-79019400D02*
X158240000Y-77749400D01*
X158240000Y-70129400D02*
X154180000Y-70129400D01*
X154180000Y-85609400D02*
X155533333Y-85609400D01*
X154180000Y-85489400D02*
X155533333Y-85489400D01*
X154180000Y-83549400D02*
X155533333Y-83549400D01*
X154180000Y-83429400D02*
X155533333Y-83429400D01*
X154180000Y-73749400D02*
X155533333Y-73749400D01*
X154180000Y-86569400D02*
X155533333Y-86569400D01*
X154180000Y-78349400D02*
X155533333Y-78349400D01*
X154180000Y-75689400D02*
X155533333Y-75689400D01*
X154180000Y-79019400D02*
X158240000Y-79019400D01*
X154180000Y-72789400D02*
X155533333Y-72789400D01*
X154180000Y-78589400D02*
X155533333Y-78589400D01*
X158240000Y-75209400D02*
X154180000Y-75209400D01*
X154180000Y-75929400D02*
X155533333Y-75929400D01*
X154180000Y-80409400D02*
X155533333Y-80409400D01*
X154180000Y-86639400D02*
X158240000Y-86639400D01*
X155533333Y-77749400D02*
X155533333Y-79019400D01*
X154180000Y-73629400D02*
X155533333Y-73629400D01*
X158240000Y-80289400D02*
X154180000Y-80289400D01*
X158240000Y-71399400D02*
X158240000Y-70129400D01*
X154180000Y-78109400D02*
X155533333Y-78109400D01*
X154180000Y-73389400D02*
X155533333Y-73389400D01*
X158240000Y-84099400D02*
X158240000Y-82829400D01*
X158240000Y-76479400D02*
X158240000Y-75209400D01*
X154180000Y-70249400D02*
X155533333Y-70249400D01*
X158240000Y-77749400D02*
X154180000Y-77749400D01*
X154180000Y-76289400D02*
X155533333Y-76289400D01*
X154180000Y-78469400D02*
X155533333Y-78469400D01*
X154180000Y-68429400D02*
X155533333Y-68429400D01*
X154180000Y-78829400D02*
X155533333Y-78829400D01*
X154180000Y-68669400D02*
X155533333Y-68669400D01*
X154180000Y-73269400D02*
X155533333Y-73269400D01*
X158240000Y-85369400D02*
X154180000Y-85369400D01*
X154180000Y-81129400D02*
X155533333Y-81129400D01*
X154180000Y-83909400D02*
X155533333Y-83909400D01*
X155533333Y-72669400D02*
X155533333Y-73939400D01*
X158240000Y-72669400D02*
X154180000Y-72669400D01*
X161160000Y-65804400D02*
X161160000Y-88425400D01*
X154180000Y-71399400D02*
X158240000Y-71399400D01*
X154180000Y-75449400D02*
X155533333Y-75449400D01*
X154180000Y-84029400D02*
X155533333Y-84029400D01*
X155533333Y-80289400D02*
X155533333Y-81559400D01*
X154180000Y-81489400D02*
X155533333Y-81489400D01*
X154180000Y-68309400D02*
X155533333Y-68309400D01*
X154180000Y-75569400D02*
X155533333Y-75569400D01*
X158240000Y-82829400D02*
X154180000Y-82829400D01*
X154180000Y-82829400D02*
X154180000Y-84099400D01*
X154180000Y-76409400D02*
X155533333Y-76409400D01*
X154180000Y-86329400D02*
X155533333Y-86329400D01*
X154180000Y-81369400D02*
X155533333Y-81369400D01*
X154180000Y-85369400D02*
X154180000Y-86639400D01*
X154180000Y-83669400D02*
X155533333Y-83669400D01*
X154180000Y-86449400D02*
X155533333Y-86449400D01*
X154180000Y-70729400D02*
X155533333Y-70729400D01*
X154180000Y-80769400D02*
X155533333Y-80769400D01*
X154180000Y-83189400D02*
X155533333Y-83189400D01*
X154180000Y-83069400D02*
X155533333Y-83069400D01*
X154180000Y-82949400D02*
X155533333Y-82949400D01*
X154180000Y-67589400D02*
X154180000Y-68859400D01*
X154180000Y-75329400D02*
X155533333Y-75329400D01*
X154180000Y-70609400D02*
X155533333Y-70609400D01*
X151020000Y-65564400D02*
X151020000Y-66947400D01*
X154180000Y-73869400D02*
X155533333Y-73869400D01*
X154180000Y-71209400D02*
X155533333Y-71209400D01*
X154180000Y-68189400D02*
X155533333Y-68189400D01*
X154180000Y-75809400D02*
X155533333Y-75809400D01*
X154180000Y-70129400D02*
X154180000Y-71399400D01*
X151260000Y-88425400D02*
X161160000Y-88425400D01*
X154180000Y-83789400D02*
X155533333Y-83789400D01*
X154180000Y-83309400D02*
X155533333Y-83309400D01*
X154180000Y-80649400D02*
X155533333Y-80649400D01*
X154180000Y-78949400D02*
X155533333Y-78949400D01*
X154180000Y-78229400D02*
X155533333Y-78229400D01*
X154180000Y-85969400D02*
X155533333Y-85969400D01*
X154180000Y-81249400D02*
X155533333Y-81249400D01*
X154180000Y-76479400D02*
X158240000Y-76479400D01*
X154180000Y-70849400D02*
X155533333Y-70849400D01*
X154180000Y-81559400D02*
X158240000Y-81559400D01*
X154180000Y-78709400D02*
X155533333Y-78709400D01*
X154180000Y-73509400D02*
X155533333Y-73509400D01*
X154180000Y-73029400D02*
X155533333Y-73029400D01*
X154180000Y-68789400D02*
X155533333Y-68789400D01*
X154180000Y-67709400D02*
X155533333Y-67709400D01*
X154180000Y-71089400D02*
X155533333Y-71089400D01*
X158240000Y-73939400D02*
X158240000Y-72669400D01*
X151260000Y-65804400D02*
X151260000Y-88425400D01*
X155533333Y-67589400D02*
X155533333Y-68859400D01*
X154180000Y-86209400D02*
X155533333Y-86209400D01*
X154180000Y-76049400D02*
X155533333Y-76049400D01*
X154180000Y-67829400D02*
X155533333Y-67829400D01*
X154180000Y-86089400D02*
X155533333Y-86089400D01*
X155533333Y-82829400D02*
X155533333Y-84099400D01*
X154180000Y-75209400D02*
X154180000Y-76479400D01*
X154180000Y-70489400D02*
X155533333Y-70489400D01*
X154180000Y-70369400D02*
X155533333Y-70369400D01*
X158240000Y-68859400D02*
X158240000Y-67589400D01*
X154180000Y-73939400D02*
X158240000Y-73939400D01*
X154180000Y-68069400D02*
X155533333Y-68069400D01*
X154180000Y-85729400D02*
X155533333Y-85729400D01*
X154180000Y-80889400D02*
X155533333Y-80889400D01*
X151020000Y-65564400D02*
X152404000Y-65564400D01*
X154180000Y-77869400D02*
X155533333Y-77869400D01*
X155533333Y-85369400D02*
X155533333Y-86639400D01*
X151260000Y-65804400D02*
X161160000Y-65804400D01*
X154180000Y-67949400D02*
X155533333Y-67949400D01*
X154180000Y-77749400D02*
X154180000Y-79019400D01*
X158240000Y-81559400D02*
X158240000Y-80289400D01*
X155533333Y-70129400D02*
X155533333Y-71399400D01*
X154180000Y-85849400D02*
X155533333Y-85849400D01*
X154180000Y-68859400D02*
X158240000Y-68859400D01*
X154180000Y-70969400D02*
X155533333Y-70969400D01*
X158240000Y-86639400D02*
X158240000Y-85369400D01*
X158240000Y-67589400D02*
X154180000Y-67589400D01*
X154180000Y-80289400D02*
X154180000Y-81559400D01*
X154180000Y-77989400D02*
X155533333Y-77989400D01*
X154180000Y-84099400D02*
X158240000Y-84099400D01*
X154180000Y-72669400D02*
X154180000Y-73939400D01*
X154180000Y-76169400D02*
X155533333Y-76169400D01*
X124410000Y-91270000D02*
X124410000Y-91515000D01*
X128270000Y-109390000D02*
X124410000Y-109390000D01*
X124410000Y-91515000D02*
X122595000Y-91515000D01*
X132130000Y-109390000D02*
X132130000Y-109145000D01*
X128270000Y-91270000D02*
X124410000Y-91270000D01*
X128270000Y-91270000D02*
X132130000Y-91270000D01*
X124410000Y-109390000D02*
X124410000Y-109145000D01*
X128270000Y-109390000D02*
X132130000Y-109390000D01*
X132130000Y-91270000D02*
X132130000Y-91515000D01*
X113565000Y-106706936D02*
X113565000Y-107161064D01*
X115035000Y-106706936D02*
X115035000Y-107161064D01*
X124848252Y-83339000D02*
X124325748Y-83339000D01*
X124848252Y-84809000D02*
X124325748Y-84809000D01*
%LPC*%
D12*
X123620000Y-65405000D03*
X123620000Y-66675000D03*
X123620000Y-67945000D03*
X123620000Y-69215000D03*
X123620000Y-70485000D03*
X123620000Y-71755000D03*
X123620000Y-73025000D03*
X123620000Y-74295000D03*
X123620000Y-75565000D03*
X123620000Y-76835000D03*
X123620000Y-78105000D03*
X123620000Y-79375000D03*
X123620000Y-80645000D03*
X123620000Y-81915000D03*
X132920000Y-81915000D03*
X132920000Y-80645000D03*
X132920000Y-79375000D03*
X132920000Y-78105000D03*
X132920000Y-76835000D03*
X132920000Y-75565000D03*
X132920000Y-74295000D03*
X132920000Y-73025000D03*
X132920000Y-71755000D03*
X132920000Y-70485000D03*
X132920000Y-69215000D03*
X132920000Y-67945000D03*
X132920000Y-66675000D03*
X132920000Y-65405000D03*
D13*
X140817500Y-68224400D03*
D14*
X140817500Y-70764400D03*
X140817500Y-73304400D03*
X140817500Y-75844400D03*
X140817500Y-78384400D03*
X140817500Y-80924400D03*
X140817500Y-83464400D03*
X140817500Y-86004400D03*
X148437500Y-86004400D03*
X148437500Y-83464400D03*
X148437500Y-80924400D03*
X148437500Y-78384400D03*
X148437500Y-75844400D03*
X148437500Y-73304400D03*
X148437500Y-70764400D03*
X148437500Y-68224400D03*
D13*
X152400000Y-91490800D03*
D14*
X152400000Y-94030800D03*
X152400000Y-96570800D03*
X152400000Y-99110800D03*
X152400000Y-101650800D03*
X152400000Y-104190800D03*
X152400000Y-106730800D03*
X152400000Y-109270800D03*
X160020000Y-109270800D03*
X160020000Y-106730800D03*
X160020000Y-104190800D03*
X160020000Y-101650800D03*
X160020000Y-99110800D03*
X160020000Y-96570800D03*
X160020000Y-94030800D03*
X160020000Y-91490800D03*
D15*
X114300000Y-68580000D03*
D16*
X114300000Y-71120000D03*
X114300000Y-73660000D03*
X114300000Y-76200000D03*
X114300000Y-78740000D03*
X114300000Y-81280000D03*
X114300000Y-83820000D03*
X114300000Y-86360000D03*
X114300000Y-88900000D03*
X114300000Y-91440000D03*
X114300000Y-93980000D03*
X114300000Y-96520000D03*
D17*
X124140000Y-60960000D03*
X122240000Y-60960000D03*
D18*
X114300000Y-102791500D03*
X114300000Y-100916500D03*
D19*
X134469500Y-112979200D03*
X136294500Y-112979200D03*
D15*
X128270000Y-111760000D03*
D16*
X128270000Y-114300000D03*
X128270000Y-116840000D03*
D13*
X140817600Y-91490800D03*
D14*
X140817600Y-94030800D03*
X140817600Y-96570800D03*
X140817600Y-99110800D03*
X140817600Y-101650800D03*
X140817600Y-104190800D03*
X140817600Y-106730800D03*
X140817600Y-109270800D03*
X148437600Y-109270800D03*
X148437600Y-106730800D03*
X148437600Y-104190800D03*
X148437600Y-101650800D03*
X148437600Y-99110800D03*
X148437600Y-96570800D03*
X148437600Y-94030800D03*
X148437600Y-91490800D03*
D20*
X158750000Y-62230000D03*
D21*
X125283000Y-110744000D03*
X123383000Y-110744000D03*
D20*
X158750000Y-115570000D03*
D13*
X152400000Y-68224400D03*
D14*
X152400000Y-70764400D03*
X152400000Y-73304400D03*
X152400000Y-75844400D03*
X152400000Y-78384400D03*
X152400000Y-80924400D03*
X152400000Y-83464400D03*
X152400000Y-86004400D03*
X160020000Y-86004400D03*
X160020000Y-83464400D03*
X160020000Y-80924400D03*
X160020000Y-78384400D03*
X160020000Y-75844400D03*
X160020000Y-73304400D03*
X160020000Y-70764400D03*
X160020000Y-68224400D03*
D12*
X123620000Y-92075000D03*
X123620000Y-93345000D03*
X123620000Y-94615000D03*
X123620000Y-95885000D03*
X123620000Y-97155000D03*
X123620000Y-98425000D03*
X123620000Y-99695000D03*
X123620000Y-100965000D03*
X123620000Y-102235000D03*
X123620000Y-103505000D03*
X123620000Y-104775000D03*
X123620000Y-106045000D03*
X123620000Y-107315000D03*
X123620000Y-108585000D03*
X132920000Y-108585000D03*
X132920000Y-107315000D03*
X132920000Y-106045000D03*
X132920000Y-104775000D03*
X132920000Y-103505000D03*
X132920000Y-102235000D03*
X132920000Y-100965000D03*
X132920000Y-99695000D03*
X132920000Y-98425000D03*
X132920000Y-97155000D03*
X132920000Y-95885000D03*
X132920000Y-94615000D03*
X132920000Y-93345000D03*
X132920000Y-92075000D03*
D22*
X114300000Y-106021500D03*
X114300000Y-107846500D03*
D20*
X114300000Y-115570000D03*
D21*
X125537000Y-84074000D03*
X123637000Y-84074000D03*
D20*
X114299999Y-62229999D03*
M02*
