G04 #@! TF.GenerationSoftware,KiCad,Pcbnew,6.0.2-1.fc35*
G04 #@! TF.CreationDate,2022-04-04T15:34:31-04:00*
G04 #@! TF.ProjectId,switch_mux_breakout_i2c,73776974-6368-45f6-9d75-785f62726561,0*
G04 #@! TF.SameCoordinates,Original*
G04 #@! TF.FileFunction,Soldermask,Top*
G04 #@! TF.FilePolarity,Negative*
%FSLAX46Y46*%
G04 Gerber Fmt 4.6, Leading zero omitted, Abs format (unit mm)*
G04 Created by KiCad (PCBNEW 6.0.2-1.fc35) date 2022-04-04 15:34:31*
%MOMM*%
%LPD*%
G01*
G04 APERTURE LIST*
G04 Aperture macros list*
%AMRoundRect*
0 Rectangle with rounded corners*
0 $1 Rounding radius*
0 $2 $3 $4 $5 $6 $7 $8 $9 X,Y pos of 4 corners*
0 Add a 4 corners polygon primitive as box body*
4,1,4,$2,$3,$4,$5,$6,$7,$8,$9,$2,$3,0*
0 Add four circle primitives for the rounded corners*
1,1,$1+$1,$2,$3*
1,1,$1+$1,$4,$5*
1,1,$1+$1,$6,$7*
1,1,$1+$1,$8,$9*
0 Add four rect primitives between the rounded corners*
20,1,$1+$1,$2,$3,$4,$5,0*
20,1,$1+$1,$4,$5,$6,$7,0*
20,1,$1+$1,$6,$7,$8,$9,0*
20,1,$1+$1,$8,$9,$2,$3,0*%
G04 Aperture macros list end*
%ADD10R,1.600000X1.600000*%
%ADD11O,1.600000X1.600000*%
%ADD12R,1.500000X1.000000*%
%ADD13RoundRect,0.250000X0.475000X-0.250000X0.475000X0.250000X-0.475000X0.250000X-0.475000X-0.250000X0*%
%ADD14RoundRect,0.243750X0.456250X-0.243750X0.456250X0.243750X-0.456250X0.243750X-0.456250X-0.243750X0*%
%ADD15RoundRect,0.250000X0.262500X0.450000X-0.262500X0.450000X-0.262500X-0.450000X0.262500X-0.450000X0*%
%ADD16R,1.700000X1.700000*%
%ADD17O,1.700000X1.700000*%
%ADD18RoundRect,0.150000X-0.875000X-0.150000X0.875000X-0.150000X0.875000X0.150000X-0.875000X0.150000X0*%
%ADD19C,5.600000*%
%ADD20RoundRect,0.250000X0.250000X0.475000X-0.250000X0.475000X-0.250000X-0.475000X0.250000X-0.475000X0*%
%ADD21RoundRect,0.250000X-0.450000X0.262500X-0.450000X-0.262500X0.450000X-0.262500X0.450000X0.262500X0*%
G04 APERTURE END LIST*
D10*
X140817500Y-68224400D03*
D11*
X140817500Y-70764400D03*
X140817500Y-73304400D03*
X140817500Y-75844400D03*
X140817500Y-78384400D03*
X140817500Y-80924400D03*
X140817500Y-83464400D03*
X140817500Y-86004400D03*
X148437500Y-86004400D03*
X148437500Y-83464400D03*
X148437500Y-80924400D03*
X148437500Y-78384400D03*
X148437500Y-75844400D03*
X148437500Y-73304400D03*
X148437500Y-70764400D03*
X148437500Y-68224400D03*
D10*
X152400000Y-91490800D03*
D11*
X152400000Y-94030800D03*
X152400000Y-96570800D03*
X152400000Y-99110800D03*
X152400000Y-101650800D03*
X152400000Y-104190800D03*
X152400000Y-106730800D03*
X152400000Y-109270800D03*
X160020000Y-109270800D03*
X160020000Y-106730800D03*
X160020000Y-104190800D03*
X160020000Y-101650800D03*
X160020000Y-99110800D03*
X160020000Y-96570800D03*
X160020000Y-94030800D03*
X160020000Y-91490800D03*
D12*
X119684800Y-101122000D03*
X119684800Y-99822000D03*
X119684800Y-98522000D03*
D13*
X123647200Y-62860000D03*
X123647200Y-60960000D03*
D14*
X122275600Y-116177300D03*
X122275600Y-114302300D03*
D15*
X116482500Y-85090000D03*
X114657500Y-85090000D03*
D10*
X140817600Y-91490800D03*
D11*
X140817600Y-94030800D03*
X140817600Y-96570800D03*
X140817600Y-99110800D03*
X140817600Y-101650800D03*
X140817600Y-104190800D03*
X140817600Y-106730800D03*
X140817600Y-109270800D03*
X148437600Y-109270800D03*
X148437600Y-106730800D03*
X148437600Y-104190800D03*
X148437600Y-101650800D03*
X148437600Y-99110800D03*
X148437600Y-96570800D03*
X148437600Y-94030800D03*
X148437600Y-91490800D03*
D12*
X116509800Y-101122000D03*
X116509800Y-99822000D03*
X116509800Y-98522000D03*
D16*
X114300000Y-68580000D03*
D17*
X114300000Y-71120000D03*
X114300000Y-73660000D03*
X114300000Y-76200000D03*
X114300000Y-78740000D03*
X114300000Y-81280000D03*
D18*
X123620000Y-92075000D03*
X123620000Y-93345000D03*
X123620000Y-94615000D03*
X123620000Y-95885000D03*
X123620000Y-97155000D03*
X123620000Y-98425000D03*
X123620000Y-99695000D03*
X123620000Y-100965000D03*
X123620000Y-102235000D03*
X123620000Y-103505000D03*
X123620000Y-104775000D03*
X123620000Y-106045000D03*
X132920000Y-106045000D03*
X132920000Y-104775000D03*
X132920000Y-103505000D03*
X132920000Y-102235000D03*
X132920000Y-100965000D03*
X132920000Y-99695000D03*
X132920000Y-98425000D03*
X132920000Y-97155000D03*
X132920000Y-95885000D03*
X132920000Y-94615000D03*
X132920000Y-93345000D03*
X132920000Y-92075000D03*
D12*
X119684800Y-108712000D03*
X119684800Y-107412000D03*
X119684800Y-106112000D03*
D19*
X158750000Y-62230000D03*
D15*
X116482500Y-87630000D03*
X114657500Y-87630000D03*
D20*
X132913200Y-89433400D03*
X131013200Y-89433400D03*
D19*
X158750000Y-115570000D03*
D10*
X152400000Y-68224400D03*
D11*
X152400000Y-70764400D03*
X152400000Y-73304400D03*
X152400000Y-75844400D03*
X152400000Y-78384400D03*
X152400000Y-80924400D03*
X152400000Y-83464400D03*
X152400000Y-86004400D03*
X160020000Y-86004400D03*
X160020000Y-83464400D03*
X160020000Y-80924400D03*
X160020000Y-78384400D03*
X160020000Y-75844400D03*
X160020000Y-73304400D03*
X160020000Y-70764400D03*
X160020000Y-68224400D03*
D12*
X113334800Y-101122000D03*
X113334800Y-99822000D03*
X113334800Y-98522000D03*
D21*
X124815600Y-114329600D03*
X124815600Y-116154600D03*
D16*
X128270000Y-111775000D03*
D17*
X128270000Y-114315000D03*
X128270000Y-116855000D03*
D15*
X116435500Y-92710000D03*
X114610500Y-92710000D03*
D19*
X114300000Y-115570000D03*
D13*
X126288800Y-62860000D03*
X126288800Y-60960000D03*
D15*
X116459000Y-90170000D03*
X114634000Y-90170000D03*
D12*
X113334800Y-108712000D03*
X113334800Y-107412000D03*
X113334800Y-106112000D03*
D18*
X123620000Y-65405000D03*
X123620000Y-66675000D03*
X123620000Y-67945000D03*
X123620000Y-69215000D03*
X123620000Y-70485000D03*
X123620000Y-71755000D03*
X123620000Y-73025000D03*
X123620000Y-74295000D03*
X123620000Y-75565000D03*
X123620000Y-76835000D03*
X123620000Y-78105000D03*
X123620000Y-79375000D03*
X132920000Y-79375000D03*
X132920000Y-78105000D03*
X132920000Y-76835000D03*
X132920000Y-75565000D03*
X132920000Y-74295000D03*
X132920000Y-73025000D03*
X132920000Y-71755000D03*
X132920000Y-70485000D03*
X132920000Y-69215000D03*
X132920000Y-67945000D03*
X132920000Y-66675000D03*
X132920000Y-65405000D03*
D12*
X116509800Y-108712000D03*
X116509800Y-107412000D03*
X116509800Y-106112000D03*
D19*
X114299999Y-62229999D03*
M02*
