M48
; DRILL file {KiCad 6.0.5-2.fc36} date Thu 02 Jun 2022 12:00:01 PM EDT
; FORMAT={-:-/ absolute / metric / decimal}
; #@! TF.CreationDate,2022-06-02T12:00:01-04:00
; #@! TF.GenerationSoftware,Kicad,Pcbnew,6.0.5-2.fc36
; #@! TF.FileFunction,Plated,1,2,PTH
FMAT,2
METRIC
; #@! TA.AperFunction,Plated,PTH,ViaDrill
T1C0.400
; #@! TA.AperFunction,Plated,PTH,ComponentDrill
T2C1.000
; #@! TA.AperFunction,Plated,PTH,ComponentDrill
T3C3.200
%
G90
G05
T1
X113.259Y-87.579
X114.935Y-99.822
X114.935Y-107.442
X116.535Y-103.861
X118.11Y-99.822
X118.11Y-107.391
X118.491Y-95.758
X120.396Y-92.329
X120.79Y-87.452
X121.285Y-107.442
X121.412Y-61.011
X121.539Y-95.25
X121.539Y-99.822
X121.869Y-93.37
X123.52Y-81.28
X123.622Y-107.493
X125.349Y-69.215
X125.349Y-70.485
X125.349Y-71.755
X125.349Y-73.025
X125.349Y-74.295
X125.349Y-75.565
X125.349Y-76.835
X125.349Y-78.105
X125.349Y-95.885
X125.349Y-97.155
X125.349Y-98.425
X125.349Y-99.695
X125.349Y-100.965
X125.349Y-102.235
X125.349Y-103.505
X125.349Y-104.775
X127.0Y-116.205
X128.27Y-82.448
X128.702Y-61.011
X129.921Y-87.757
X129.997Y-107.696
X131.191Y-66.675
X131.191Y-67.945
X135.382Y-70.612
X135.382Y-73.025
X135.382Y-75.565
X135.382Y-78.105
X135.89Y-69.215
X136.144Y-71.755
X136.144Y-74.422
X136.144Y-76.835
T2
X114.3Y-68.58
X114.3Y-71.12
X114.3Y-73.66
X114.3Y-76.2
X114.3Y-78.74
X114.3Y-81.28
X148.59Y-64.77
X148.59Y-67.31
X148.59Y-69.85
X148.59Y-72.39
X148.59Y-74.93
X148.59Y-77.47
X148.59Y-80.01
X148.59Y-82.55
X148.59Y-85.09
X148.59Y-87.63
X148.59Y-90.17
X148.59Y-92.71
X148.59Y-95.25
X148.59Y-97.79
X148.59Y-100.33
X148.59Y-102.87
X148.59Y-105.41
X148.59Y-107.95
X148.59Y-110.49
X148.59Y-113.03
X151.13Y-64.77
X151.13Y-67.31
X151.13Y-69.85
X151.13Y-72.39
X151.13Y-74.93
X151.13Y-77.47
X151.13Y-80.01
X151.13Y-82.55
X151.13Y-85.09
X151.13Y-87.63
X151.13Y-90.17
X151.13Y-92.71
X151.13Y-95.25
X151.13Y-97.79
X151.13Y-100.33
X151.13Y-102.87
X151.13Y-105.41
X151.13Y-107.95
X151.13Y-110.49
X151.13Y-113.03
T3
X114.3Y-59.69
X114.3Y-116.84
X158.75Y-59.69
X158.75Y-116.84
T0
M30
