G04 #@! TF.GenerationSoftware,KiCad,Pcbnew,6.0.2-1.fc35*
G04 #@! TF.CreationDate,2022-04-04T15:34:29-04:00*
G04 #@! TF.ProjectId,switch_mux_breakout_i2c,73776974-6368-45f6-9d75-785f62726561,0*
G04 #@! TF.SameCoordinates,Original*
G04 #@! TF.FileFunction,Copper,L1,Top*
G04 #@! TF.FilePolarity,Positive*
%FSLAX46Y46*%
G04 Gerber Fmt 4.6, Leading zero omitted, Abs format (unit mm)*
G04 Created by KiCad (PCBNEW 6.0.2-1.fc35) date 2022-04-04 15:34:29*
%MOMM*%
%LPD*%
G01*
G04 APERTURE LIST*
G04 Aperture macros list*
%AMRoundRect*
0 Rectangle with rounded corners*
0 $1 Rounding radius*
0 $2 $3 $4 $5 $6 $7 $8 $9 X,Y pos of 4 corners*
0 Add a 4 corners polygon primitive as box body*
4,1,4,$2,$3,$4,$5,$6,$7,$8,$9,$2,$3,0*
0 Add four circle primitives for the rounded corners*
1,1,$1+$1,$2,$3*
1,1,$1+$1,$4,$5*
1,1,$1+$1,$6,$7*
1,1,$1+$1,$8,$9*
0 Add four rect primitives between the rounded corners*
20,1,$1+$1,$2,$3,$4,$5,0*
20,1,$1+$1,$4,$5,$6,$7,0*
20,1,$1+$1,$6,$7,$8,$9,0*
20,1,$1+$1,$8,$9,$2,$3,0*%
G04 Aperture macros list end*
G04 #@! TA.AperFunction,ComponentPad*
%ADD10R,1.600000X1.600000*%
G04 #@! TD*
G04 #@! TA.AperFunction,ComponentPad*
%ADD11O,1.600000X1.600000*%
G04 #@! TD*
G04 #@! TA.AperFunction,SMDPad,CuDef*
%ADD12R,1.500000X1.000000*%
G04 #@! TD*
G04 #@! TA.AperFunction,SMDPad,CuDef*
%ADD13RoundRect,0.250000X0.475000X-0.250000X0.475000X0.250000X-0.475000X0.250000X-0.475000X-0.250000X0*%
G04 #@! TD*
G04 #@! TA.AperFunction,SMDPad,CuDef*
%ADD14RoundRect,0.243750X0.456250X-0.243750X0.456250X0.243750X-0.456250X0.243750X-0.456250X-0.243750X0*%
G04 #@! TD*
G04 #@! TA.AperFunction,SMDPad,CuDef*
%ADD15RoundRect,0.250000X0.262500X0.450000X-0.262500X0.450000X-0.262500X-0.450000X0.262500X-0.450000X0*%
G04 #@! TD*
G04 #@! TA.AperFunction,ComponentPad*
%ADD16R,1.700000X1.700000*%
G04 #@! TD*
G04 #@! TA.AperFunction,ComponentPad*
%ADD17O,1.700000X1.700000*%
G04 #@! TD*
G04 #@! TA.AperFunction,SMDPad,CuDef*
%ADD18RoundRect,0.150000X-0.875000X-0.150000X0.875000X-0.150000X0.875000X0.150000X-0.875000X0.150000X0*%
G04 #@! TD*
G04 #@! TA.AperFunction,ComponentPad*
%ADD19C,5.600000*%
G04 #@! TD*
G04 #@! TA.AperFunction,SMDPad,CuDef*
%ADD20RoundRect,0.250000X0.250000X0.475000X-0.250000X0.475000X-0.250000X-0.475000X0.250000X-0.475000X0*%
G04 #@! TD*
G04 #@! TA.AperFunction,SMDPad,CuDef*
%ADD21RoundRect,0.250000X-0.450000X0.262500X-0.450000X-0.262500X0.450000X-0.262500X0.450000X0.262500X0*%
G04 #@! TD*
G04 #@! TA.AperFunction,ViaPad*
%ADD22C,0.800000*%
G04 #@! TD*
G04 #@! TA.AperFunction,Conductor*
%ADD23C,0.300000*%
G04 #@! TD*
G04 #@! TA.AperFunction,Conductor*
%ADD24C,0.250000*%
G04 #@! TD*
G04 #@! TA.AperFunction,Conductor*
%ADD25C,0.500000*%
G04 #@! TD*
G04 APERTURE END LIST*
D10*
X140817500Y-68224400D03*
D11*
X140817500Y-70764400D03*
X140817500Y-73304400D03*
X140817500Y-75844400D03*
X140817500Y-78384400D03*
X140817500Y-80924400D03*
X140817500Y-83464400D03*
X140817500Y-86004400D03*
X148437500Y-86004400D03*
X148437500Y-83464400D03*
X148437500Y-80924400D03*
X148437500Y-78384400D03*
X148437500Y-75844400D03*
X148437500Y-73304400D03*
X148437500Y-70764400D03*
X148437500Y-68224400D03*
D10*
X152400000Y-91490800D03*
D11*
X152400000Y-94030800D03*
X152400000Y-96570800D03*
X152400000Y-99110800D03*
X152400000Y-101650800D03*
X152400000Y-104190800D03*
X152400000Y-106730800D03*
X152400000Y-109270800D03*
X160020000Y-109270800D03*
X160020000Y-106730800D03*
X160020000Y-104190800D03*
X160020000Y-101650800D03*
X160020000Y-99110800D03*
X160020000Y-96570800D03*
X160020000Y-94030800D03*
X160020000Y-91490800D03*
D12*
X119684800Y-101122000D03*
X119684800Y-99822000D03*
X119684800Y-98522000D03*
D13*
X123647200Y-62860000D03*
X123647200Y-60960000D03*
D14*
X122275600Y-116177300D03*
X122275600Y-114302300D03*
D15*
X116482500Y-85090000D03*
X114657500Y-85090000D03*
D10*
X140817600Y-91490800D03*
D11*
X140817600Y-94030800D03*
X140817600Y-96570800D03*
X140817600Y-99110800D03*
X140817600Y-101650800D03*
X140817600Y-104190800D03*
X140817600Y-106730800D03*
X140817600Y-109270800D03*
X148437600Y-109270800D03*
X148437600Y-106730800D03*
X148437600Y-104190800D03*
X148437600Y-101650800D03*
X148437600Y-99110800D03*
X148437600Y-96570800D03*
X148437600Y-94030800D03*
X148437600Y-91490800D03*
D12*
X116509800Y-101122000D03*
X116509800Y-99822000D03*
X116509800Y-98522000D03*
D16*
X114300000Y-68580000D03*
D17*
X114300000Y-71120000D03*
X114300000Y-73660000D03*
X114300000Y-76200000D03*
X114300000Y-78740000D03*
X114300000Y-81280000D03*
D18*
X123620000Y-92075000D03*
X123620000Y-93345000D03*
X123620000Y-94615000D03*
X123620000Y-95885000D03*
X123620000Y-97155000D03*
X123620000Y-98425000D03*
X123620000Y-99695000D03*
X123620000Y-100965000D03*
X123620000Y-102235000D03*
X123620000Y-103505000D03*
X123620000Y-104775000D03*
X123620000Y-106045000D03*
X132920000Y-106045000D03*
X132920000Y-104775000D03*
X132920000Y-103505000D03*
X132920000Y-102235000D03*
X132920000Y-100965000D03*
X132920000Y-99695000D03*
X132920000Y-98425000D03*
X132920000Y-97155000D03*
X132920000Y-95885000D03*
X132920000Y-94615000D03*
X132920000Y-93345000D03*
X132920000Y-92075000D03*
D12*
X119684800Y-108712000D03*
X119684800Y-107412000D03*
X119684800Y-106112000D03*
D19*
X158750000Y-62230000D03*
D15*
X116482500Y-87630000D03*
X114657500Y-87630000D03*
D20*
X132913200Y-89433400D03*
X131013200Y-89433400D03*
D19*
X158750000Y-115570000D03*
D10*
X152400000Y-68224400D03*
D11*
X152400000Y-70764400D03*
X152400000Y-73304400D03*
X152400000Y-75844400D03*
X152400000Y-78384400D03*
X152400000Y-80924400D03*
X152400000Y-83464400D03*
X152400000Y-86004400D03*
X160020000Y-86004400D03*
X160020000Y-83464400D03*
X160020000Y-80924400D03*
X160020000Y-78384400D03*
X160020000Y-75844400D03*
X160020000Y-73304400D03*
X160020000Y-70764400D03*
X160020000Y-68224400D03*
D12*
X113334800Y-101122000D03*
X113334800Y-99822000D03*
X113334800Y-98522000D03*
D21*
X124815600Y-114329600D03*
X124815600Y-116154600D03*
D16*
X128270000Y-111775000D03*
D17*
X128270000Y-114315000D03*
X128270000Y-116855000D03*
D15*
X116435500Y-92710000D03*
X114610500Y-92710000D03*
D19*
X114300000Y-115570000D03*
D13*
X126288800Y-62860000D03*
X126288800Y-60960000D03*
D15*
X116459000Y-90170000D03*
X114634000Y-90170000D03*
D12*
X113334800Y-108712000D03*
X113334800Y-107412000D03*
X113334800Y-106112000D03*
D18*
X123620000Y-65405000D03*
X123620000Y-66675000D03*
X123620000Y-67945000D03*
X123620000Y-69215000D03*
X123620000Y-70485000D03*
X123620000Y-71755000D03*
X123620000Y-73025000D03*
X123620000Y-74295000D03*
X123620000Y-75565000D03*
X123620000Y-76835000D03*
X123620000Y-78105000D03*
X123620000Y-79375000D03*
X132920000Y-79375000D03*
X132920000Y-78105000D03*
X132920000Y-76835000D03*
X132920000Y-75565000D03*
X132920000Y-74295000D03*
X132920000Y-73025000D03*
X132920000Y-71755000D03*
X132920000Y-70485000D03*
X132920000Y-69215000D03*
X132920000Y-67945000D03*
X132920000Y-66675000D03*
X132920000Y-65405000D03*
D12*
X116509800Y-108712000D03*
X116509800Y-107412000D03*
X116509800Y-106112000D03*
D19*
X114299999Y-62229999D03*
D22*
X131191000Y-67945000D03*
X131191000Y-66675000D03*
X113258600Y-87579200D03*
X120789900Y-87452200D03*
X114909600Y-99822000D03*
X128270000Y-82448400D03*
X118821200Y-96774000D03*
X118110000Y-99822000D03*
X129997200Y-107696000D03*
X114858800Y-107442000D03*
X125349000Y-69215000D03*
X125349000Y-95885000D03*
X125349000Y-70485000D03*
X125349000Y-97155000D03*
X125349000Y-71755000D03*
X125349000Y-98425000D03*
X125349000Y-73025000D03*
X125349000Y-99695000D03*
X125349000Y-74295000D03*
X125349000Y-100965000D03*
X125349000Y-75565000D03*
X125349000Y-102235000D03*
X125349000Y-76835000D03*
X125349000Y-103505000D03*
X125349000Y-78105000D03*
X125349000Y-104775000D03*
X121869200Y-93370400D03*
X118110000Y-107391200D03*
X123621800Y-107492800D03*
X128701800Y-61010800D03*
X129235200Y-88849200D03*
X116535200Y-103860600D03*
X123520200Y-81280000D03*
X121412000Y-61010800D03*
D23*
X122967900Y-116177300D02*
X124815600Y-114329600D01*
X122275600Y-116177300D02*
X122967900Y-116177300D01*
X132920000Y-67945000D02*
X131191000Y-67945000D01*
X115499511Y-72319511D02*
X115499511Y-74297833D01*
X134794040Y-93780560D02*
X133959600Y-94615000D01*
X127959541Y-83197911D02*
X129476711Y-83197911D01*
X111980161Y-76823473D02*
X111980161Y-87516161D01*
X129476711Y-83197911D02*
X134794040Y-88515240D01*
X115499511Y-74297833D02*
X114796855Y-75000489D01*
X133959600Y-94615000D02*
X132920000Y-94615000D01*
X134794040Y-88515240D02*
X134794040Y-93780560D01*
X131191000Y-67945000D02*
X127387840Y-71748160D01*
X113803145Y-75000489D02*
X111980161Y-76823473D01*
X111980161Y-87516161D02*
X114634000Y-90170000D01*
X114796855Y-75000489D02*
X113803145Y-75000489D01*
X114300000Y-71120000D02*
X115499511Y-72319511D01*
X127387840Y-82626210D02*
X127959541Y-83197911D01*
X127387840Y-71748160D02*
X127387840Y-82626210D01*
X126888320Y-70977680D02*
X131191000Y-66675000D01*
X126888320Y-82833117D02*
X126888320Y-70977680D01*
X134294520Y-88722148D02*
X129269802Y-83697430D01*
X111480641Y-76479359D02*
X114300000Y-73660000D01*
X127752632Y-83697430D02*
X126888320Y-82833117D01*
X111480641Y-89580141D02*
X111480641Y-76479359D01*
X132920000Y-93345000D02*
X133908800Y-93345000D01*
X132920000Y-66675000D02*
X131191000Y-66675000D01*
X129269802Y-83697430D02*
X127752632Y-83697430D01*
X133908800Y-93345000D02*
X134294520Y-92959280D01*
X114610500Y-92710000D02*
X111480641Y-89580141D01*
X134294520Y-92959280D02*
X134294520Y-88722148D01*
X114300000Y-76200000D02*
X115062000Y-76200000D01*
X119354600Y-65405000D02*
X123620000Y-65405000D01*
X112479680Y-84336480D02*
X112479680Y-78020320D01*
X116586000Y-68173600D02*
X119354600Y-65405000D01*
X113233200Y-85090000D02*
X112479680Y-84336480D01*
X115062000Y-76200000D02*
X116586000Y-74676000D01*
X114657500Y-85090000D02*
X113233200Y-85090000D01*
X112479680Y-78020320D02*
X114300000Y-76200000D01*
X116586000Y-74676000D02*
X116586000Y-68173600D01*
X120789900Y-90538500D02*
X122326400Y-92075000D01*
X115168329Y-84040480D02*
X113656880Y-84040480D01*
X112979200Y-83362800D02*
X112979200Y-80060800D01*
X113258600Y-87579200D02*
X114606700Y-87579200D01*
X114606700Y-87579200D02*
X114657500Y-87630000D01*
X120789900Y-87452200D02*
X120789900Y-90538500D01*
X115519520Y-84391671D02*
X115168329Y-84040480D01*
X113656880Y-84040480D02*
X112979200Y-83362800D01*
X122326400Y-92075000D02*
X123620000Y-92075000D01*
X114657500Y-87630000D02*
X115519520Y-86767980D01*
X115519520Y-86767980D02*
X115519520Y-84391671D01*
X112979200Y-80060800D02*
X114300000Y-78740000D01*
D24*
X158140400Y-66446400D02*
X150063200Y-66446400D01*
X148437500Y-68072100D02*
X148437500Y-109220000D01*
D23*
X138165600Y-114315000D02*
X138760200Y-114909600D01*
X128270000Y-114315000D02*
X138165600Y-114315000D01*
X138760200Y-114909600D02*
X153847800Y-114909600D01*
X153847800Y-114909600D02*
X159486600Y-109270800D01*
D24*
X150063200Y-66446400D02*
X148437500Y-68072100D01*
X160020000Y-109220000D02*
X160020000Y-68326000D01*
D23*
X159486600Y-109270800D02*
X160020000Y-109270800D01*
D24*
X160020000Y-68326000D02*
X158140400Y-66446400D01*
D23*
X114909600Y-99822000D02*
X113334800Y-99822000D01*
X128016000Y-72745600D02*
X131546600Y-69215000D01*
X128016000Y-72745600D02*
X128016000Y-82194400D01*
X128016000Y-82194400D02*
X128270000Y-82448400D01*
X132920000Y-69215000D02*
X131546600Y-69215000D01*
X116509800Y-99822000D02*
X118110000Y-99822000D01*
X119481600Y-96113600D02*
X119481600Y-69596000D01*
X122402600Y-66675000D02*
X123620000Y-66675000D01*
X119481600Y-69596000D02*
X122402600Y-66675000D01*
X118821200Y-96774000D02*
X119481600Y-96113600D01*
X122656600Y-67945000D02*
X123620000Y-67945000D01*
X120040400Y-70561200D02*
X122656600Y-67945000D01*
X120734800Y-99822000D02*
X121115680Y-99441120D01*
X121115680Y-99441120D02*
X121115680Y-97595280D01*
X119684800Y-99822000D02*
X120734800Y-99822000D01*
X120040400Y-96520000D02*
X120040400Y-70561200D01*
X121115680Y-97595280D02*
X120040400Y-96520000D01*
X132843800Y-95808800D02*
X132920000Y-95885000D01*
X131470400Y-95808800D02*
X132843800Y-95808800D01*
X114828800Y-107412000D02*
X114858800Y-107442000D01*
X129997200Y-107696000D02*
X129997200Y-97282000D01*
X129997200Y-97282000D02*
X131470400Y-95808800D01*
X113334800Y-107412000D02*
X114828800Y-107412000D01*
X125349000Y-69215000D02*
X123620000Y-69215000D01*
X123620000Y-95885000D02*
X125349000Y-95885000D01*
X125349000Y-70485000D02*
X123620000Y-70485000D01*
X123620000Y-97155000D02*
X125349000Y-97155000D01*
X125349000Y-71755000D02*
X123620000Y-71755000D01*
X123620000Y-98425000D02*
X125349000Y-98425000D01*
X125349000Y-73025000D02*
X123620000Y-73025000D01*
X123620000Y-99695000D02*
X125349000Y-99695000D01*
X125349000Y-74295000D02*
X123620000Y-74295000D01*
X123620000Y-100965000D02*
X125349000Y-100965000D01*
X125349000Y-75565000D02*
X123620000Y-75565000D01*
X123620000Y-102235000D02*
X125349000Y-102235000D01*
X125349000Y-76835000D02*
X123620000Y-76835000D01*
X123620000Y-103505000D02*
X125349000Y-103505000D01*
X125349000Y-78105000D02*
X123620000Y-78105000D01*
X123620000Y-104775000D02*
X125349000Y-104775000D01*
X140817600Y-91490800D02*
X139065000Y-89738200D01*
X132920000Y-80818288D02*
X132920000Y-79375000D01*
X139064999Y-86963287D02*
X132920000Y-80818288D01*
X139065000Y-89738200D02*
X139064999Y-86963287D01*
X153646136Y-114300000D02*
X156709520Y-111236616D01*
X134239000Y-106045000D02*
X135382000Y-107188000D01*
X156709520Y-95800320D02*
X152400000Y-91490800D01*
X132920000Y-106045000D02*
X134239000Y-106045000D01*
X135382000Y-107188000D02*
X135382000Y-110704281D01*
X138977719Y-114300000D02*
X153646136Y-114300000D01*
X135382000Y-110704281D02*
X138977719Y-114300000D01*
X156709519Y-111236616D02*
X156709520Y-95800320D01*
X139573000Y-90952628D02*
X138565480Y-89945108D01*
X131545480Y-78258520D02*
X131699000Y-78105000D01*
X139573000Y-92786200D02*
X139573000Y-90952628D01*
X131545480Y-80150196D02*
X131545480Y-78258520D01*
X138565480Y-89945108D02*
X138565480Y-87170196D01*
X138565480Y-87170196D02*
X131545480Y-80150196D01*
X131699000Y-78105000D02*
X132920000Y-78105000D01*
X140817600Y-94030800D02*
X139573000Y-92786200D01*
X135906960Y-110522814D02*
X139159185Y-113775039D01*
X156210000Y-111029709D02*
X156210000Y-97840800D01*
X135906960Y-106911242D02*
X135906960Y-110522814D01*
X139159185Y-113775039D02*
X153464669Y-113775040D01*
X132920000Y-104775000D02*
X134747000Y-104775000D01*
X153464669Y-113775040D02*
X156210000Y-111029709D01*
X156210000Y-97840800D02*
X152400000Y-94030800D01*
X135001000Y-106005283D02*
X135906960Y-106911242D01*
X134747000Y-104775000D02*
X135001000Y-105029000D01*
X135001000Y-105029000D02*
X135001000Y-106005283D01*
X138057480Y-90143536D02*
X138057479Y-87368623D01*
X131045960Y-80357104D02*
X131045960Y-77615040D01*
X139446000Y-93365628D02*
X139073480Y-92993108D01*
X138057479Y-87368623D02*
X131045960Y-80357104D01*
X131826000Y-76835000D02*
X132920000Y-76835000D01*
X139073480Y-91159536D02*
X138057480Y-90143536D01*
X131045960Y-77615040D02*
X131826000Y-76835000D01*
X139446000Y-95199200D02*
X139446000Y-93365628D01*
X140817600Y-96570800D02*
X139446000Y-95199200D01*
X139073480Y-92993108D02*
X139073480Y-91159536D01*
X135255000Y-103505000D02*
X135517480Y-103767480D01*
X136406480Y-110315907D02*
X139349130Y-113258558D01*
X153257761Y-113275520D02*
X155693519Y-110839763D01*
X132920000Y-103505000D02*
X135255000Y-103505000D01*
X139349130Y-113258558D02*
X142240000Y-113258558D01*
X135517480Y-103767480D02*
X135517481Y-105815336D01*
X155693519Y-110839763D02*
X155693520Y-99864320D01*
X155693520Y-99864320D02*
X152400000Y-96570800D01*
X142256962Y-113275520D02*
X153257761Y-113275520D01*
X135517481Y-105815336D02*
X136406480Y-106704334D01*
X142240000Y-113258558D02*
X142256962Y-113275520D01*
X136406480Y-106704334D02*
X136406480Y-110315907D01*
X138946480Y-93572536D02*
X138573960Y-93200015D01*
X139446000Y-97739200D02*
X139446000Y-96266000D01*
X138573960Y-93200015D02*
X138573960Y-91366444D01*
X137557960Y-90350444D02*
X137557960Y-87575532D01*
X140817600Y-99110800D02*
X139446000Y-97739200D01*
X137557960Y-87575532D02*
X130546440Y-80564012D01*
X138946480Y-95766480D02*
X138946480Y-93572536D01*
X131699000Y-75565000D02*
X132920000Y-75565000D01*
X130546440Y-76717560D02*
X131699000Y-75565000D01*
X130546440Y-80564012D02*
X130546440Y-76717560D01*
X139446000Y-96266000D02*
X138946480Y-95766480D01*
X138573960Y-91366444D02*
X137557960Y-90350444D01*
X136017000Y-105608427D02*
X136906000Y-106497427D01*
X139556039Y-112759039D02*
X151367039Y-112759039D01*
X151367039Y-112759039D02*
X151384000Y-112776000D01*
X132920000Y-102235000D02*
X135509000Y-102235000D01*
X135509000Y-102235000D02*
X136017000Y-102743000D01*
X155194000Y-101904800D02*
X152400000Y-99110800D01*
X136906000Y-110109000D02*
X139556039Y-112759039D01*
X155194000Y-110632854D02*
X155194000Y-101904800D01*
X151384000Y-112776000D02*
X153050854Y-112776000D01*
X136906000Y-106497427D02*
X136906000Y-110109000D01*
X136017000Y-102743000D02*
X136017000Y-105608427D01*
X153050854Y-112776000D02*
X155194000Y-110632854D01*
X138446960Y-95973387D02*
X138446960Y-93779444D01*
X137024520Y-87748520D02*
X130046920Y-80770920D01*
X137024520Y-90669520D02*
X137024520Y-87748520D01*
X138074440Y-93406922D02*
X138074440Y-91719440D01*
X138074440Y-91719440D02*
X137024520Y-90669520D01*
X130046920Y-80770920D02*
X130046920Y-75947080D01*
X138946480Y-96472908D02*
X138446960Y-95973387D01*
X130046920Y-75947080D02*
X131699000Y-74295000D01*
X131699000Y-74295000D02*
X132920000Y-74295000D01*
X139573000Y-100406200D02*
X139573000Y-98572628D01*
X139573000Y-98572628D02*
X138946480Y-97946107D01*
X140817600Y-101650800D02*
X139573000Y-100406200D01*
X138946480Y-97946107D02*
X138946480Y-96472908D01*
X138446960Y-93779444D02*
X138074440Y-93406922D01*
X136025480Y-101989480D02*
X136567400Y-102531400D01*
X152860909Y-112259519D02*
X154677520Y-110442907D01*
X139802665Y-112259520D02*
X152860909Y-112259519D01*
X154677520Y-110442907D02*
X154677520Y-103928320D01*
X154677520Y-103928320D02*
X152400000Y-101650800D01*
X136025480Y-101354480D02*
X136025480Y-101989480D01*
X137414000Y-106299000D02*
X137414000Y-109870856D01*
X135636000Y-100965000D02*
X136025480Y-101354480D01*
X132920000Y-100965000D02*
X135636000Y-100965000D01*
X136567400Y-102531400D02*
X136567400Y-105452400D01*
X137414000Y-109870856D02*
X139802665Y-112259520D01*
X136567400Y-105452400D02*
X137414000Y-106299000D01*
X139573000Y-101112628D02*
X139073480Y-100613108D01*
X135931295Y-87361722D02*
X129547400Y-80977827D01*
X138446960Y-96679816D02*
X137947440Y-96180296D01*
X136516520Y-90867948D02*
X136516519Y-87946943D01*
X136516519Y-87946943D02*
X135931295Y-87361722D01*
X137947440Y-93986351D02*
X137574920Y-93613831D01*
X140817600Y-104190800D02*
X139573000Y-102946200D01*
X139573000Y-102946200D02*
X139573000Y-101112628D01*
X139073480Y-98814480D02*
X138446960Y-98187960D01*
X137947440Y-96180296D02*
X137947440Y-93986351D01*
X139073480Y-100613108D02*
X139073480Y-98814480D01*
X138446960Y-98187960D02*
X138446960Y-96679816D01*
X131627572Y-73025000D02*
X132920000Y-73025000D01*
X129547400Y-80977827D02*
X129547400Y-75105172D01*
X129547400Y-75105172D02*
X131627572Y-73025000D01*
X137574920Y-93613831D02*
X137574920Y-91926348D01*
X137574920Y-91926348D02*
X136516520Y-90867948D01*
X132920000Y-99695000D02*
X135763000Y-99695000D01*
X136525000Y-100457000D02*
X136525000Y-101725895D01*
X152654000Y-111760000D02*
X154178000Y-110236000D01*
X137066920Y-102267815D02*
X137066920Y-105189920D01*
X136525000Y-101725895D02*
X137066920Y-102267815D01*
X154178000Y-110236000D02*
X154178000Y-105968800D01*
X137066920Y-105189920D02*
X137922000Y-106045000D01*
X135763000Y-99695000D02*
X136525000Y-100457000D01*
X140009572Y-111760000D02*
X152654000Y-111760000D01*
X137922000Y-109672428D02*
X140009572Y-111760000D01*
X154178000Y-105968800D02*
X152400000Y-104190800D01*
X137922000Y-106045000D02*
X137922000Y-109672428D01*
X137947440Y-96886724D02*
X137447920Y-96387203D01*
X137447920Y-96387203D02*
X137447920Y-94193259D01*
X139065000Y-101311056D02*
X138573960Y-100820016D01*
X131699000Y-71755000D02*
X132920000Y-71755000D01*
X129047881Y-81184735D02*
X136017000Y-88153853D01*
X140817600Y-106730800D02*
X140817600Y-106019600D01*
X138573960Y-99021388D02*
X137947440Y-98394868D01*
X137447920Y-94193259D02*
X137075400Y-93820738D01*
X136017001Y-91074857D02*
X136017000Y-88153853D01*
X138573960Y-100820016D02*
X138573960Y-99021388D01*
X137075400Y-93820738D02*
X137075400Y-92133256D01*
X129047881Y-81184735D02*
X129047881Y-74406119D01*
X139065000Y-104267000D02*
X139065000Y-101311056D01*
X137947440Y-98394868D02*
X137947440Y-96886724D01*
X140817600Y-106019600D02*
X139065000Y-104267000D01*
X137075400Y-92133256D02*
X136017001Y-91074857D01*
X129047881Y-74406119D02*
X131699000Y-71755000D01*
X137075402Y-101569870D02*
X137566440Y-102060907D01*
X152179935Y-111116520D02*
X153670000Y-109626455D01*
X137566440Y-104887721D02*
X138565480Y-105886763D01*
X137075400Y-99864400D02*
X137075400Y-99949000D01*
X140072520Y-111116520D02*
X152179935Y-111116520D01*
X138565480Y-105886763D02*
X138565480Y-109609480D01*
X137075400Y-99949000D02*
X137075402Y-101569870D01*
X137566440Y-102060907D02*
X137566440Y-104887721D01*
X135636000Y-98425000D02*
X137075400Y-99864400D01*
X153670000Y-108000800D02*
X152400000Y-106730800D01*
X132920000Y-98425000D02*
X135636000Y-98425000D01*
X153670000Y-109626455D02*
X153670000Y-108000800D01*
X138565480Y-109609480D02*
X140072520Y-111116520D01*
X138565480Y-104473907D02*
X138565480Y-101517964D01*
X135517481Y-88360762D02*
X128548362Y-81391643D01*
X128548362Y-73762638D02*
X131826000Y-70485000D01*
X139573000Y-107188000D02*
X139573000Y-105481428D01*
X136948400Y-94400167D02*
X136575880Y-94027645D01*
X135517481Y-91281765D02*
X135517481Y-88360762D01*
X140817600Y-109270800D02*
X140817600Y-108432600D01*
X137447920Y-97093632D02*
X136948400Y-96594110D01*
X136575880Y-92340164D02*
X135517481Y-91281765D01*
X128548362Y-81391643D02*
X128548362Y-73762638D01*
X138565480Y-101517964D02*
X138074440Y-101026923D01*
X138074440Y-99228296D02*
X137447920Y-98601775D01*
X140817600Y-108432600D02*
X139573000Y-107188000D01*
X131826000Y-70485000D02*
X132920000Y-70485000D01*
X136948400Y-96594110D02*
X136948400Y-94400167D01*
X136575880Y-94027645D02*
X136575880Y-92340164D01*
X139573000Y-105481428D02*
X138565480Y-104473907D01*
X137447920Y-98601775D02*
X137447920Y-97093632D01*
X138074440Y-101026923D02*
X138074440Y-99228296D01*
X151053800Y-110617000D02*
X152400000Y-109270800D01*
X132920000Y-97155000D02*
X136271000Y-97155000D01*
X139065000Y-109347000D02*
X140335000Y-110617000D01*
X140335000Y-110617000D02*
X151053800Y-110617000D01*
X136906000Y-98899080D02*
X137574920Y-99568000D01*
X137574921Y-101362961D02*
X138065960Y-101854000D01*
X136271000Y-97155000D02*
X136906000Y-97790000D01*
X139065000Y-105679856D02*
X139065000Y-109347000D01*
X138065960Y-104680814D02*
X139065000Y-105679856D01*
X137574920Y-99568000D02*
X137574921Y-101362961D01*
X136906000Y-97790000D02*
X136906000Y-98899080D01*
X138065960Y-101854000D02*
X138065960Y-104680814D01*
X123594600Y-93370400D02*
X123620000Y-93345000D01*
X116509800Y-107412000D02*
X118089200Y-107412000D01*
X121869200Y-93370400D02*
X123594600Y-93370400D01*
X118089200Y-107412000D02*
X118110000Y-107391200D01*
X121615200Y-95504000D02*
X122504200Y-94615000D01*
X120734800Y-107412000D02*
X121615200Y-106531600D01*
X121615200Y-106531600D02*
X121615200Y-95504000D01*
X119684800Y-107412000D02*
X120734800Y-107412000D01*
X122504200Y-94615000D02*
X123620000Y-94615000D01*
X114904351Y-94564200D02*
X113748480Y-93408329D01*
D25*
X126288800Y-85394800D02*
X126288800Y-109778800D01*
X122636200Y-62860000D02*
X120929400Y-64566800D01*
D23*
X124802900Y-111775000D02*
X122275600Y-114302300D01*
D25*
X123647200Y-62860000D02*
X122636200Y-62860000D01*
X114909600Y-68580000D02*
X114300000Y-68580000D01*
D23*
X129844800Y-85394800D02*
X126288800Y-85394800D01*
X113748480Y-93377680D02*
X110981122Y-90610322D01*
X116482500Y-92663000D02*
X116435500Y-92710000D01*
X116509800Y-94615000D02*
X116509800Y-98522000D01*
X132913200Y-89433400D02*
X132913200Y-88463200D01*
X111582200Y-105410000D02*
X112284200Y-106112000D01*
X119684800Y-98522000D02*
X113334800Y-98522000D01*
X111582200Y-99187000D02*
X111582200Y-105410000D01*
D25*
X126288800Y-62860000D02*
X123647200Y-62860000D01*
D23*
X112284200Y-106112000D02*
X113334800Y-106112000D01*
D25*
X126288800Y-109778800D02*
X128270000Y-111760000D01*
D23*
X132920000Y-65405000D02*
X132920000Y-64568600D01*
X113334800Y-98522000D02*
X112247200Y-98522000D01*
X132913200Y-92068200D02*
X132920000Y-92075000D01*
X132913200Y-88463200D02*
X129844800Y-85394800D01*
X112247200Y-98522000D02*
X111582200Y-99187000D01*
D25*
X126288800Y-85394800D02*
X126288800Y-62860000D01*
D23*
X132913200Y-89433400D02*
X132913200Y-92068200D01*
X116482500Y-85090000D02*
X116482500Y-92663000D01*
X110981122Y-90610322D02*
X110981122Y-71898878D01*
X110981122Y-71898878D02*
X114300000Y-68580000D01*
D25*
X118922800Y-64566800D02*
X114909600Y-68580000D01*
D23*
X116509800Y-92784300D02*
X116509800Y-94615000D01*
X113748480Y-93408329D02*
X113748480Y-93377680D01*
X116435500Y-92710000D02*
X116509800Y-92784300D01*
X128270000Y-111775000D02*
X124802900Y-111775000D01*
X131211400Y-62860000D02*
X126288800Y-62860000D01*
X132920000Y-64568600D02*
X131211400Y-62860000D01*
X116459000Y-94564200D02*
X114904351Y-94564200D01*
X119684800Y-106112000D02*
X113334800Y-106112000D01*
X116509800Y-94615000D02*
X116459000Y-94564200D01*
D25*
X120929400Y-64566800D02*
X118922800Y-64566800D01*
G04 #@! TA.AperFunction,Conductor*
G36*
X125472421Y-105703502D02*
G01*
X125518914Y-105757158D01*
X125530300Y-105809500D01*
X125530300Y-109711730D01*
X125528867Y-109730680D01*
X125525601Y-109752149D01*
X125526194Y-109759441D01*
X125526194Y-109759444D01*
X125529885Y-109804818D01*
X125530300Y-109815033D01*
X125530300Y-109823093D01*
X125530725Y-109826737D01*
X125533589Y-109851307D01*
X125534022Y-109855682D01*
X125539940Y-109928437D01*
X125542196Y-109935401D01*
X125543387Y-109941360D01*
X125544771Y-109947215D01*
X125545618Y-109954481D01*
X125570535Y-110023127D01*
X125571952Y-110027255D01*
X125594449Y-110096699D01*
X125598245Y-110102954D01*
X125600751Y-110108428D01*
X125603470Y-110113858D01*
X125605967Y-110120737D01*
X125609980Y-110126857D01*
X125609980Y-110126858D01*
X125645986Y-110181776D01*
X125648323Y-110185480D01*
X125686205Y-110247907D01*
X125689921Y-110252115D01*
X125689922Y-110252116D01*
X125693603Y-110256284D01*
X125693576Y-110256308D01*
X125696229Y-110259300D01*
X125698932Y-110262533D01*
X125702944Y-110268652D01*
X125708256Y-110273684D01*
X125759183Y-110321928D01*
X125761625Y-110324306D01*
X126338724Y-110901405D01*
X126372750Y-110963717D01*
X126367685Y-111034532D01*
X126325138Y-111091368D01*
X126258618Y-111116179D01*
X126249629Y-111116500D01*
X124884959Y-111116500D01*
X124873103Y-111115941D01*
X124865363Y-111114211D01*
X124857437Y-111114460D01*
X124857436Y-111114460D01*
X124794511Y-111116438D01*
X124790553Y-111116500D01*
X124761468Y-111116500D01*
X124757537Y-111116997D01*
X124757530Y-111116997D01*
X124757079Y-111117054D01*
X124745243Y-111117986D01*
X124699069Y-111119438D01*
X124678479Y-111125420D01*
X124659118Y-111129430D01*
X124652130Y-111130312D01*
X124645696Y-111131125D01*
X124645695Y-111131125D01*
X124637836Y-111132118D01*
X124630471Y-111135034D01*
X124630467Y-111135035D01*
X124594879Y-111149126D01*
X124583669Y-111152965D01*
X124539300Y-111165855D01*
X124520835Y-111176775D01*
X124503095Y-111185466D01*
X124483144Y-111193365D01*
X124445774Y-111220516D01*
X124435852Y-111227033D01*
X124402923Y-111246507D01*
X124402919Y-111246510D01*
X124396093Y-111250547D01*
X124380929Y-111265711D01*
X124365896Y-111278551D01*
X124348543Y-111291159D01*
X124319098Y-111326752D01*
X124311108Y-111335532D01*
X122377245Y-113269395D01*
X122314933Y-113303421D01*
X122288150Y-113306300D01*
X121803006Y-113306301D01*
X121769370Y-113306301D01*
X121664471Y-113317184D01*
X121657940Y-113319363D01*
X121657935Y-113319364D01*
X121509789Y-113368790D01*
X121498074Y-113372698D01*
X121348911Y-113465003D01*
X121224983Y-113589147D01*
X121221143Y-113595377D01*
X121221142Y-113595378D01*
X121200549Y-113628786D01*
X121132939Y-113738471D01*
X121077715Y-113904965D01*
X121067100Y-114008569D01*
X121067101Y-114596030D01*
X121077984Y-114700929D01*
X121080163Y-114707460D01*
X121080164Y-114707465D01*
X121093341Y-114746961D01*
X121133498Y-114867326D01*
X121225803Y-115016489D01*
X121349947Y-115140417D01*
X121352870Y-115142219D01*
X121393008Y-115198829D01*
X121396242Y-115269752D01*
X121360618Y-115331164D01*
X121354222Y-115336716D01*
X121348911Y-115340003D01*
X121224983Y-115464147D01*
X121221143Y-115470377D01*
X121221142Y-115470378D01*
X121208286Y-115491235D01*
X121132939Y-115613471D01*
X121130634Y-115620419D01*
X121130634Y-115620420D01*
X121094454Y-115729500D01*
X121077715Y-115779965D01*
X121067100Y-115883569D01*
X121067101Y-116471030D01*
X121077984Y-116575929D01*
X121080163Y-116582460D01*
X121080164Y-116582465D01*
X121116242Y-116690603D01*
X121133498Y-116742326D01*
X121225803Y-116891489D01*
X121349947Y-117015417D01*
X121499271Y-117107461D01*
X121506219Y-117109766D01*
X121506220Y-117109766D01*
X121659234Y-117160519D01*
X121659236Y-117160519D01*
X121665765Y-117162685D01*
X121769369Y-117173300D01*
X122271696Y-117173300D01*
X122781830Y-117173299D01*
X122886729Y-117162416D01*
X122893260Y-117160237D01*
X122893265Y-117160236D01*
X123046178Y-117109220D01*
X123053126Y-117106902D01*
X123202289Y-117014597D01*
X123326217Y-116890453D01*
X123418261Y-116741129D01*
X123426815Y-116715340D01*
X123467246Y-116656980D01*
X123532811Y-116629744D01*
X123602692Y-116642278D01*
X123654704Y-116690603D01*
X123665932Y-116715133D01*
X123672187Y-116733882D01*
X123678361Y-116747062D01*
X123763663Y-116884907D01*
X123772699Y-116896308D01*
X123887429Y-117010839D01*
X123898840Y-117019851D01*
X124036843Y-117104916D01*
X124050024Y-117111063D01*
X124204310Y-117162238D01*
X124217686Y-117165105D01*
X124312038Y-117174772D01*
X124318454Y-117175100D01*
X124543485Y-117175100D01*
X124558724Y-117170625D01*
X124559929Y-117169235D01*
X124561600Y-117161552D01*
X124561600Y-117156984D01*
X125069600Y-117156984D01*
X125074075Y-117172223D01*
X125075465Y-117173428D01*
X125083148Y-117175099D01*
X125312695Y-117175099D01*
X125319214Y-117174762D01*
X125414806Y-117164843D01*
X125428200Y-117161951D01*
X125545054Y-117122966D01*
X126938257Y-117122966D01*
X126968565Y-117257446D01*
X126971645Y-117267275D01*
X127051770Y-117464603D01*
X127056413Y-117473794D01*
X127167694Y-117655388D01*
X127173777Y-117663699D01*
X127313213Y-117824667D01*
X127320580Y-117831883D01*
X127484434Y-117967916D01*
X127492881Y-117973831D01*
X127676756Y-118081279D01*
X127686042Y-118085729D01*
X127885001Y-118161703D01*
X127894899Y-118164579D01*
X127998250Y-118185606D01*
X128012299Y-118184410D01*
X128016000Y-118174065D01*
X128016000Y-118173517D01*
X128524000Y-118173517D01*
X128528064Y-118187359D01*
X128541478Y-118189393D01*
X128548184Y-118188534D01*
X128558262Y-118186392D01*
X128762255Y-118125191D01*
X128771842Y-118121433D01*
X128963095Y-118027739D01*
X128971945Y-118022464D01*
X129145328Y-117898792D01*
X129153200Y-117892139D01*
X129304052Y-117741812D01*
X129310730Y-117733965D01*
X129435003Y-117561020D01*
X129440313Y-117552183D01*
X129534670Y-117361267D01*
X129538469Y-117351672D01*
X129600377Y-117147910D01*
X129602555Y-117137837D01*
X129603986Y-117126962D01*
X129601775Y-117112778D01*
X129588617Y-117109000D01*
X128542115Y-117109000D01*
X128526876Y-117113475D01*
X128525671Y-117114865D01*
X128524000Y-117122548D01*
X128524000Y-118173517D01*
X128016000Y-118173517D01*
X128016000Y-117127115D01*
X128011525Y-117111876D01*
X128010135Y-117110671D01*
X128002452Y-117109000D01*
X126953225Y-117109000D01*
X126939694Y-117112973D01*
X126938257Y-117122966D01*
X125545054Y-117122966D01*
X125582384Y-117110512D01*
X125595562Y-117104339D01*
X125733407Y-117019037D01*
X125744808Y-117010001D01*
X125859339Y-116895271D01*
X125868351Y-116883860D01*
X125953416Y-116745857D01*
X125959563Y-116732676D01*
X126010738Y-116578390D01*
X126013605Y-116565014D01*
X126023272Y-116470662D01*
X126023600Y-116464246D01*
X126023600Y-116426715D01*
X126019125Y-116411476D01*
X126017735Y-116410271D01*
X126010052Y-116408600D01*
X125087715Y-116408600D01*
X125072476Y-116413075D01*
X125071271Y-116414465D01*
X125069600Y-116422148D01*
X125069600Y-117156984D01*
X124561600Y-117156984D01*
X124561600Y-116026600D01*
X124581602Y-115958479D01*
X124635258Y-115911986D01*
X124687600Y-115900600D01*
X126005484Y-115900600D01*
X126020723Y-115896125D01*
X126021928Y-115894735D01*
X126023599Y-115887052D01*
X126023599Y-115845005D01*
X126023262Y-115838486D01*
X126013343Y-115742894D01*
X126010451Y-115729500D01*
X125959012Y-115575316D01*
X125952839Y-115562138D01*
X125867537Y-115424293D01*
X125858501Y-115412892D01*
X125777138Y-115331670D01*
X125743059Y-115269387D01*
X125748062Y-115198567D01*
X125776983Y-115153480D01*
X125859730Y-115070588D01*
X125859734Y-115070583D01*
X125864905Y-115065403D01*
X125868746Y-115059172D01*
X125953875Y-114921068D01*
X125953876Y-114921066D01*
X125957715Y-114914838D01*
X126013397Y-114746961D01*
X126024100Y-114642500D01*
X126024100Y-114016700D01*
X126023590Y-114011786D01*
X126013838Y-113917792D01*
X126013837Y-113917788D01*
X126013126Y-113910934D01*
X125994996Y-113856590D01*
X125959468Y-113750102D01*
X125957150Y-113743154D01*
X125864078Y-113592752D01*
X125831633Y-113560363D01*
X125744083Y-113472966D01*
X125738903Y-113467795D01*
X125732672Y-113463954D01*
X125594568Y-113378825D01*
X125594566Y-113378824D01*
X125588338Y-113374985D01*
X125508595Y-113348536D01*
X125426989Y-113321468D01*
X125426987Y-113321468D01*
X125420461Y-113319303D01*
X125413625Y-113318603D01*
X125413622Y-113318602D01*
X125370569Y-113314191D01*
X125316000Y-113308600D01*
X124504750Y-113308600D01*
X124436629Y-113288598D01*
X124390136Y-113234942D01*
X124380032Y-113164668D01*
X124409526Y-113100088D01*
X124415655Y-113093505D01*
X125038755Y-112470405D01*
X125101067Y-112436379D01*
X125127850Y-112433500D01*
X126785500Y-112433500D01*
X126853621Y-112453502D01*
X126900114Y-112507158D01*
X126911500Y-112559500D01*
X126911500Y-112673134D01*
X126918255Y-112735316D01*
X126969385Y-112871705D01*
X127056739Y-112988261D01*
X127173295Y-113075615D01*
X127181704Y-113078767D01*
X127181705Y-113078768D01*
X127290451Y-113119535D01*
X127347216Y-113162176D01*
X127371916Y-113228738D01*
X127356709Y-113298087D01*
X127337316Y-113324568D01*
X127210629Y-113457138D01*
X127207715Y-113461410D01*
X127207714Y-113461411D01*
X127133933Y-113569570D01*
X127084743Y-113641680D01*
X126990688Y-113844305D01*
X126930989Y-114059570D01*
X126907251Y-114281695D01*
X126920110Y-114504715D01*
X126921247Y-114509761D01*
X126921248Y-114509767D01*
X126922016Y-114513173D01*
X126969222Y-114722639D01*
X127053266Y-114929616D01*
X127169987Y-115120088D01*
X127316250Y-115288938D01*
X127488126Y-115431632D01*
X127554432Y-115470378D01*
X127561955Y-115474774D01*
X127610679Y-115526412D01*
X127623750Y-115596195D01*
X127597019Y-115661967D01*
X127556562Y-115695327D01*
X127548457Y-115699546D01*
X127539738Y-115705036D01*
X127369433Y-115832905D01*
X127361726Y-115839748D01*
X127214590Y-115993717D01*
X127208104Y-116001727D01*
X127088098Y-116177649D01*
X127083000Y-116186623D01*
X126993338Y-116379783D01*
X126989775Y-116389470D01*
X126934389Y-116589183D01*
X126935912Y-116597607D01*
X126948292Y-116601000D01*
X129588344Y-116601000D01*
X129601875Y-116597027D01*
X129603180Y-116587947D01*
X129561214Y-116420875D01*
X129557894Y-116411124D01*
X129472972Y-116215814D01*
X129468105Y-116206739D01*
X129352426Y-116027926D01*
X129346136Y-116019757D01*
X129202806Y-115862240D01*
X129195273Y-115855215D01*
X129028139Y-115723222D01*
X129019556Y-115717520D01*
X128982602Y-115697120D01*
X128932631Y-115646687D01*
X128917859Y-115577245D01*
X128942975Y-115510839D01*
X128970327Y-115484232D01*
X129001945Y-115461679D01*
X129149860Y-115356173D01*
X129160888Y-115345184D01*
X129304435Y-115202137D01*
X129308096Y-115198489D01*
X129367594Y-115115689D01*
X129432060Y-115025974D01*
X129488055Y-114982326D01*
X129534383Y-114973500D01*
X137840649Y-114973500D01*
X137908770Y-114993502D01*
X137929744Y-115010405D01*
X138236545Y-115317206D01*
X138244533Y-115325983D01*
X138244537Y-115325988D01*
X138248784Y-115332680D01*
X138279828Y-115361832D01*
X138300473Y-115381219D01*
X138303315Y-115383974D01*
X138323867Y-115404526D01*
X138327001Y-115406957D01*
X138327363Y-115407238D01*
X138336391Y-115414948D01*
X138370067Y-115446572D01*
X138377018Y-115450393D01*
X138377019Y-115450394D01*
X138388855Y-115456901D01*
X138405384Y-115467758D01*
X138416069Y-115476047D01*
X138416071Y-115476048D01*
X138422331Y-115480904D01*
X138464744Y-115499257D01*
X138475381Y-115504468D01*
X138515863Y-115526724D01*
X138523542Y-115528696D01*
X138523543Y-115528696D01*
X138536634Y-115532057D01*
X138555336Y-115538459D01*
X138575023Y-115546979D01*
X138582852Y-115548219D01*
X138620648Y-115554205D01*
X138632274Y-115556613D01*
X138669335Y-115566129D01*
X138669336Y-115566129D01*
X138677012Y-115568100D01*
X138698458Y-115568100D01*
X138718168Y-115569651D01*
X138739351Y-115573006D01*
X138785335Y-115568659D01*
X138797194Y-115568100D01*
X153765744Y-115568100D01*
X153777600Y-115568659D01*
X153777603Y-115568659D01*
X153785337Y-115570388D01*
X153856169Y-115568162D01*
X153860127Y-115568100D01*
X153889232Y-115568100D01*
X153893632Y-115567544D01*
X153905464Y-115566612D01*
X153951631Y-115565162D01*
X153972221Y-115559180D01*
X153991582Y-115555170D01*
X153999224Y-115554205D01*
X154005004Y-115553475D01*
X154005005Y-115553475D01*
X154012864Y-115552482D01*
X154020229Y-115549566D01*
X154020233Y-115549565D01*
X154055821Y-115535474D01*
X154067031Y-115531635D01*
X154111400Y-115518745D01*
X154129865Y-115507825D01*
X154147605Y-115499134D01*
X154167556Y-115491235D01*
X154204929Y-115464082D01*
X154214848Y-115457567D01*
X154247777Y-115438093D01*
X154247781Y-115438090D01*
X154254607Y-115434053D01*
X154269771Y-115418889D01*
X154284805Y-115406048D01*
X154295743Y-115398101D01*
X154302157Y-115393441D01*
X154331603Y-115357847D01*
X154339592Y-115349068D01*
X155464466Y-114224194D01*
X155526777Y-114190169D01*
X155597592Y-114195233D01*
X155654428Y-114237780D01*
X155679239Y-114304300D01*
X155670467Y-114360285D01*
X155614684Y-114499050D01*
X155614681Y-114499059D01*
X155613411Y-114502218D01*
X155612491Y-114505492D01*
X155612489Y-114505497D01*
X155540751Y-114760715D01*
X155516437Y-114847213D01*
X155515875Y-114850570D01*
X155515875Y-114850571D01*
X155470774Y-115120088D01*
X155457290Y-115200663D01*
X155436661Y-115558434D01*
X155454792Y-115916340D01*
X155455329Y-115919695D01*
X155455330Y-115919701D01*
X155472665Y-116027926D01*
X155511470Y-116270195D01*
X155606033Y-116615859D01*
X155737374Y-116949288D01*
X155768151Y-117007909D01*
X155855756Y-117174772D01*
X155903957Y-117266582D01*
X155905858Y-117269411D01*
X155905864Y-117269421D01*
X156037022Y-117464603D01*
X156103834Y-117564029D01*
X156334665Y-117838150D01*
X156593751Y-118085738D01*
X156878061Y-118303897D01*
X156910056Y-118323350D01*
X157181355Y-118488303D01*
X157181360Y-118488306D01*
X157184270Y-118490075D01*
X157187358Y-118491521D01*
X157187357Y-118491521D01*
X157487026Y-118631896D01*
X157540229Y-118678906D01*
X157559571Y-118747217D01*
X157538911Y-118815141D01*
X157484808Y-118861113D01*
X157433577Y-118871998D01*
X136601483Y-118871998D01*
X115612961Y-118871997D01*
X115544840Y-118851995D01*
X115498347Y-118798339D01*
X115488243Y-118728065D01*
X115517737Y-118663485D01*
X115560710Y-118631342D01*
X115831954Y-118507729D01*
X115835066Y-118506311D01*
X115929052Y-118450506D01*
X116140262Y-118325099D01*
X116140267Y-118325096D01*
X116143207Y-118323350D01*
X116429786Y-118108180D01*
X116691451Y-117863319D01*
X116925140Y-117591630D01*
X117083464Y-117361267D01*
X117126190Y-117299101D01*
X117126195Y-117299094D01*
X117128120Y-117296292D01*
X117129732Y-117293298D01*
X117129737Y-117293290D01*
X117253894Y-117062705D01*
X117298017Y-116980760D01*
X117394834Y-116742326D01*
X117431562Y-116651877D01*
X117431564Y-116651872D01*
X117432842Y-116648724D01*
X117441868Y-116617040D01*
X117500424Y-116411476D01*
X117531020Y-116304070D01*
X117591401Y-115950828D01*
X117593511Y-115916340D01*
X117613168Y-115594928D01*
X117613278Y-115593131D01*
X117613337Y-115576308D01*
X117613353Y-115571819D01*
X117613353Y-115571806D01*
X117613359Y-115570000D01*
X117593979Y-115212159D01*
X117536066Y-114858505D01*
X117440297Y-114513173D01*
X117437243Y-114505497D01*
X117309052Y-114183369D01*
X117307793Y-114180205D01*
X117241282Y-114054588D01*
X117141702Y-113866513D01*
X117141698Y-113866506D01*
X117140103Y-113863494D01*
X116939190Y-113566746D01*
X116855274Y-113467795D01*
X116779821Y-113378825D01*
X116707403Y-113293432D01*
X116447454Y-113046750D01*
X116227107Y-112878891D01*
X116165091Y-112831647D01*
X116165089Y-112831646D01*
X116162384Y-112829585D01*
X116159472Y-112827828D01*
X116159467Y-112827825D01*
X115858443Y-112646236D01*
X115858437Y-112646233D01*
X115855528Y-112644478D01*
X115530475Y-112493593D01*
X115352937Y-112433500D01*
X115194255Y-112379789D01*
X115194250Y-112379788D01*
X115191028Y-112378697D01*
X114992681Y-112334724D01*
X114844493Y-112301871D01*
X114844487Y-112301870D01*
X114841158Y-112301132D01*
X114837769Y-112300758D01*
X114837764Y-112300757D01*
X114488338Y-112262180D01*
X114488333Y-112262180D01*
X114484957Y-112261807D01*
X114481558Y-112261801D01*
X114481557Y-112261801D01*
X114312080Y-112261505D01*
X114126592Y-112261182D01*
X114013413Y-112273277D01*
X113773639Y-112298901D01*
X113773631Y-112298902D01*
X113770256Y-112299263D01*
X113420117Y-112375606D01*
X113080271Y-112489317D01*
X113077178Y-112490739D01*
X113077177Y-112490740D01*
X112895090Y-112574491D01*
X112754694Y-112639066D01*
X112751760Y-112640822D01*
X112751758Y-112640823D01*
X112581509Y-112742715D01*
X112447193Y-112823101D01*
X112444467Y-112825163D01*
X112444465Y-112825164D01*
X112228813Y-112988261D01*
X112161367Y-113039270D01*
X112158882Y-113041612D01*
X112158877Y-113041616D01*
X112076192Y-113119535D01*
X111900559Y-113285043D01*
X111898347Y-113287633D01*
X111898345Y-113287635D01*
X111891171Y-113296035D01*
X111667819Y-113557546D01*
X111665900Y-113560358D01*
X111665897Y-113560363D01*
X111613346Y-113637401D01*
X111465871Y-113853591D01*
X111297077Y-114169714D01*
X111295806Y-114172876D01*
X111240904Y-114309448D01*
X111196937Y-114365192D01*
X111129812Y-114388317D01*
X111060841Y-114371480D01*
X111011921Y-114320027D01*
X110997997Y-114262451D01*
X110997997Y-109256669D01*
X112076801Y-109256669D01*
X112077171Y-109263490D01*
X112082695Y-109314352D01*
X112086321Y-109329604D01*
X112131476Y-109450054D01*
X112140014Y-109465649D01*
X112216515Y-109567724D01*
X112229076Y-109580285D01*
X112331151Y-109656786D01*
X112346746Y-109665324D01*
X112467194Y-109710478D01*
X112482449Y-109714105D01*
X112533314Y-109719631D01*
X112540128Y-109720000D01*
X113062685Y-109720000D01*
X113077924Y-109715525D01*
X113079129Y-109714135D01*
X113080800Y-109706452D01*
X113080800Y-109701884D01*
X113588800Y-109701884D01*
X113593275Y-109717123D01*
X113594665Y-109718328D01*
X113602348Y-109719999D01*
X114129469Y-109719999D01*
X114136290Y-109719629D01*
X114187152Y-109714105D01*
X114202404Y-109710479D01*
X114322854Y-109665324D01*
X114338449Y-109656786D01*
X114440524Y-109580285D01*
X114453085Y-109567724D01*
X114529586Y-109465649D01*
X114538124Y-109450054D01*
X114583278Y-109329606D01*
X114586905Y-109314351D01*
X114592431Y-109263486D01*
X114592800Y-109256672D01*
X114592800Y-109256669D01*
X115251801Y-109256669D01*
X115252171Y-109263490D01*
X115257695Y-109314352D01*
X115261321Y-109329604D01*
X115306476Y-109450054D01*
X115315014Y-109465649D01*
X115391515Y-109567724D01*
X115404076Y-109580285D01*
X115506151Y-109656786D01*
X115521746Y-109665324D01*
X115642194Y-109710478D01*
X115657449Y-109714105D01*
X115708314Y-109719631D01*
X115715128Y-109720000D01*
X116237685Y-109720000D01*
X116252924Y-109715525D01*
X116254129Y-109714135D01*
X116255800Y-109706452D01*
X116255800Y-109701884D01*
X116763800Y-109701884D01*
X116768275Y-109717123D01*
X116769665Y-109718328D01*
X116777348Y-109719999D01*
X117304469Y-109719999D01*
X117311290Y-109719629D01*
X117362152Y-109714105D01*
X117377404Y-109710479D01*
X117497854Y-109665324D01*
X117513449Y-109656786D01*
X117615524Y-109580285D01*
X117628085Y-109567724D01*
X117704586Y-109465649D01*
X117713124Y-109450054D01*
X117758278Y-109329606D01*
X117761905Y-109314351D01*
X117767431Y-109263486D01*
X117767800Y-109256672D01*
X117767800Y-109256669D01*
X118426801Y-109256669D01*
X118427171Y-109263490D01*
X118432695Y-109314352D01*
X118436321Y-109329604D01*
X118481476Y-109450054D01*
X118490014Y-109465649D01*
X118566515Y-109567724D01*
X118579076Y-109580285D01*
X118681151Y-109656786D01*
X118696746Y-109665324D01*
X118817194Y-109710478D01*
X118832449Y-109714105D01*
X118883314Y-109719631D01*
X118890128Y-109720000D01*
X119412685Y-109720000D01*
X119427924Y-109715525D01*
X119429129Y-109714135D01*
X119430800Y-109706452D01*
X119430800Y-109701884D01*
X119938800Y-109701884D01*
X119943275Y-109717123D01*
X119944665Y-109718328D01*
X119952348Y-109719999D01*
X120479469Y-109719999D01*
X120486290Y-109719629D01*
X120537152Y-109714105D01*
X120552404Y-109710479D01*
X120672854Y-109665324D01*
X120688449Y-109656786D01*
X120790524Y-109580285D01*
X120803085Y-109567724D01*
X120879586Y-109465649D01*
X120888124Y-109450054D01*
X120933278Y-109329606D01*
X120936905Y-109314351D01*
X120942431Y-109263486D01*
X120942800Y-109256672D01*
X120942800Y-108984115D01*
X120938325Y-108968876D01*
X120936935Y-108967671D01*
X120929252Y-108966000D01*
X119956915Y-108966000D01*
X119941676Y-108970475D01*
X119940471Y-108971865D01*
X119938800Y-108979548D01*
X119938800Y-109701884D01*
X119430800Y-109701884D01*
X119430800Y-108984115D01*
X119426325Y-108968876D01*
X119424935Y-108967671D01*
X119417252Y-108966000D01*
X118444916Y-108966000D01*
X118429677Y-108970475D01*
X118428472Y-108971865D01*
X118426801Y-108979548D01*
X118426801Y-109256669D01*
X117767800Y-109256669D01*
X117767800Y-108984115D01*
X117763325Y-108968876D01*
X117761935Y-108967671D01*
X117754252Y-108966000D01*
X116781915Y-108966000D01*
X116766676Y-108970475D01*
X116765471Y-108971865D01*
X116763800Y-108979548D01*
X116763800Y-109701884D01*
X116255800Y-109701884D01*
X116255800Y-108984115D01*
X116251325Y-108968876D01*
X116249935Y-108967671D01*
X116242252Y-108966000D01*
X115269916Y-108966000D01*
X115254677Y-108970475D01*
X115253472Y-108971865D01*
X115251801Y-108979548D01*
X115251801Y-109256669D01*
X114592800Y-109256669D01*
X114592800Y-108984115D01*
X114588325Y-108968876D01*
X114586935Y-108967671D01*
X114579252Y-108966000D01*
X113606915Y-108966000D01*
X113591676Y-108970475D01*
X113590471Y-108971865D01*
X113588800Y-108979548D01*
X113588800Y-109701884D01*
X113080800Y-109701884D01*
X113080800Y-108984115D01*
X113076325Y-108968876D01*
X113074935Y-108967671D01*
X113067252Y-108966000D01*
X112094916Y-108966000D01*
X112079677Y-108970475D01*
X112078472Y-108971865D01*
X112076801Y-108979548D01*
X112076801Y-109256669D01*
X110997997Y-109256669D01*
X110997997Y-106061247D01*
X111017999Y-105993126D01*
X111071655Y-105946633D01*
X111141929Y-105936529D01*
X111206509Y-105966023D01*
X111213092Y-105972152D01*
X111760545Y-106519605D01*
X111768535Y-106528385D01*
X111772784Y-106535080D01*
X111778562Y-106540506D01*
X111778563Y-106540507D01*
X111824457Y-106583604D01*
X111827299Y-106586359D01*
X111847867Y-106606927D01*
X111851370Y-106609644D01*
X111860395Y-106617352D01*
X111894067Y-106648972D01*
X111901018Y-106652793D01*
X111901019Y-106652794D01*
X111912858Y-106659303D01*
X111929382Y-106670157D01*
X111939471Y-106677982D01*
X111946332Y-106683304D01*
X111953604Y-106686451D01*
X111953606Y-106686452D01*
X111988735Y-106701654D01*
X111999394Y-106706876D01*
X112014421Y-106715137D01*
X112064480Y-106765482D01*
X112078984Y-106839160D01*
X112076300Y-106863866D01*
X112076300Y-107960134D01*
X112083055Y-108022316D01*
X112085829Y-108029716D01*
X112086834Y-108033942D01*
X112086834Y-108092239D01*
X112082695Y-108109646D01*
X112077169Y-108160514D01*
X112076800Y-108167328D01*
X112076800Y-108439885D01*
X112081275Y-108455124D01*
X112082665Y-108456329D01*
X112090348Y-108458000D01*
X114574684Y-108458000D01*
X114589923Y-108453525D01*
X114591128Y-108452135D01*
X114593213Y-108442549D01*
X114627237Y-108380236D01*
X114689549Y-108346210D01*
X114742529Y-108346083D01*
X114756851Y-108349127D01*
X114756856Y-108349128D01*
X114763313Y-108350500D01*
X114954287Y-108350500D01*
X114960739Y-108349128D01*
X114960744Y-108349128D01*
X115099603Y-108319612D01*
X115170394Y-108325014D01*
X115227026Y-108367831D01*
X115251520Y-108434468D01*
X115251688Y-108439503D01*
X115256275Y-108455124D01*
X115257665Y-108456329D01*
X115265348Y-108458000D01*
X117749684Y-108458000D01*
X117764923Y-108453525D01*
X117766128Y-108452135D01*
X117767799Y-108444452D01*
X117767799Y-108402857D01*
X117787801Y-108334736D01*
X117841457Y-108288243D01*
X117911731Y-108278139D01*
X117919996Y-108279610D01*
X118008056Y-108298328D01*
X118008061Y-108298328D01*
X118014513Y-108299700D01*
X118205487Y-108299700D01*
X118211939Y-108298328D01*
X118211944Y-108298328D01*
X118274603Y-108285009D01*
X118345394Y-108290411D01*
X118402027Y-108333228D01*
X118426520Y-108399866D01*
X118426800Y-108408256D01*
X118426800Y-108439885D01*
X118431275Y-108455124D01*
X118432665Y-108456329D01*
X118440348Y-108458000D01*
X120924684Y-108458000D01*
X120939923Y-108453525D01*
X120941128Y-108452135D01*
X120942799Y-108444452D01*
X120942799Y-108167331D01*
X120942430Y-108160512D01*
X120940352Y-108141385D01*
X120952881Y-108071503D01*
X121001474Y-108019327D01*
X121016865Y-108010224D01*
X121034605Y-108001534D01*
X121054556Y-107993635D01*
X121091929Y-107966482D01*
X121101848Y-107959967D01*
X121134777Y-107940493D01*
X121134781Y-107940490D01*
X121141607Y-107936453D01*
X121156771Y-107921289D01*
X121171805Y-107908448D01*
X121182743Y-107900501D01*
X121189157Y-107895841D01*
X121218603Y-107860247D01*
X121226592Y-107851468D01*
X122022805Y-107055255D01*
X122031585Y-107047265D01*
X122031587Y-107047263D01*
X122038280Y-107043016D01*
X122086805Y-106991342D01*
X122089559Y-106988501D01*
X122110127Y-106967933D01*
X122112847Y-106964426D01*
X122120553Y-106955404D01*
X122146744Y-106927513D01*
X122152172Y-106921733D01*
X122155994Y-106914781D01*
X122162503Y-106902942D01*
X122173357Y-106886418D01*
X122181645Y-106875732D01*
X122186504Y-106869468D01*
X122190398Y-106860469D01*
X122204854Y-106827065D01*
X122210076Y-106816405D01*
X122218509Y-106801066D01*
X122219335Y-106799563D01*
X122269681Y-106749504D01*
X122339098Y-106734611D01*
X122393889Y-106751810D01*
X122474779Y-106799648D01*
X122489210Y-106805893D01*
X122635065Y-106848269D01*
X122647667Y-106850570D01*
X122676084Y-106852807D01*
X122681014Y-106853000D01*
X123347885Y-106853000D01*
X123363124Y-106848525D01*
X123364329Y-106847135D01*
X123366000Y-106839452D01*
X123366000Y-106834884D01*
X123874000Y-106834884D01*
X123878475Y-106850123D01*
X123879865Y-106851328D01*
X123887548Y-106852999D01*
X124558984Y-106852999D01*
X124563920Y-106852805D01*
X124592336Y-106850570D01*
X124604931Y-106848270D01*
X124750790Y-106805893D01*
X124765221Y-106799648D01*
X124894678Y-106723089D01*
X124907104Y-106713449D01*
X125013449Y-106607104D01*
X125023089Y-106594678D01*
X125099648Y-106465221D01*
X125105893Y-106450790D01*
X125144939Y-106316395D01*
X125144899Y-106302294D01*
X125137630Y-106299000D01*
X123892115Y-106299000D01*
X123876876Y-106303475D01*
X123875671Y-106304865D01*
X123874000Y-106312548D01*
X123874000Y-106834884D01*
X123366000Y-106834884D01*
X123366000Y-105917000D01*
X123386002Y-105848879D01*
X123439658Y-105802386D01*
X123492000Y-105791000D01*
X125131878Y-105791000D01*
X125147049Y-105786545D01*
X125174249Y-105726987D01*
X125233976Y-105688604D01*
X125269473Y-105683500D01*
X125404300Y-105683500D01*
X125472421Y-105703502D01*
G37*
G04 #@! TD.AperFunction*
G04 #@! TA.AperFunction,Conductor*
G36*
X157435974Y-58928000D02*
G01*
X157504095Y-58948002D01*
X157550588Y-59001658D01*
X157560692Y-59071932D01*
X157531198Y-59136512D01*
X157488625Y-59168472D01*
X157204694Y-59299066D01*
X156897193Y-59483101D01*
X156894467Y-59485163D01*
X156894465Y-59485164D01*
X156885895Y-59491646D01*
X156611367Y-59699270D01*
X156350559Y-59945043D01*
X156348347Y-59947633D01*
X156348345Y-59947635D01*
X156289924Y-60016037D01*
X156117819Y-60217546D01*
X156115900Y-60220358D01*
X156115897Y-60220363D01*
X156059359Y-60303245D01*
X155915871Y-60513591D01*
X155747077Y-60829714D01*
X155613411Y-61162218D01*
X155612491Y-61165492D01*
X155612489Y-61165497D01*
X155536533Y-61435721D01*
X155516437Y-61507213D01*
X155515875Y-61510570D01*
X155515875Y-61510571D01*
X155514548Y-61518504D01*
X155457290Y-61860663D01*
X155436661Y-62218434D01*
X155436833Y-62221829D01*
X155436833Y-62221830D01*
X155444231Y-62367873D01*
X155454792Y-62576340D01*
X155511470Y-62930195D01*
X155606033Y-63275859D01*
X155737374Y-63609288D01*
X155761545Y-63655327D01*
X155902370Y-63923559D01*
X155903957Y-63926582D01*
X155905858Y-63929411D01*
X155905864Y-63929421D01*
X156088724Y-64201543D01*
X156103834Y-64224029D01*
X156334665Y-64498150D01*
X156593751Y-64745738D01*
X156878061Y-64963897D01*
X156910054Y-64983349D01*
X157181355Y-65148303D01*
X157181360Y-65148306D01*
X157184270Y-65150075D01*
X157187355Y-65151520D01*
X157187357Y-65151521D01*
X157505710Y-65300649D01*
X157505720Y-65300653D01*
X157508794Y-65302093D01*
X157512012Y-65303195D01*
X157512015Y-65303196D01*
X157844615Y-65417071D01*
X157844623Y-65417073D01*
X157847838Y-65418174D01*
X158197435Y-65496959D01*
X158249728Y-65502917D01*
X158550114Y-65537142D01*
X158550122Y-65537142D01*
X158553497Y-65537527D01*
X158556901Y-65537545D01*
X158556904Y-65537545D01*
X158751227Y-65538562D01*
X158911857Y-65539403D01*
X158915243Y-65539053D01*
X158915245Y-65539053D01*
X159264932Y-65502917D01*
X159264941Y-65502916D01*
X159268324Y-65502566D01*
X159271657Y-65501852D01*
X159271660Y-65501851D01*
X159444186Y-65464864D01*
X159618727Y-65427446D01*
X159958968Y-65314922D01*
X160285066Y-65166311D01*
X160379052Y-65110506D01*
X160590262Y-64985099D01*
X160590267Y-64985096D01*
X160593207Y-64983350D01*
X160879786Y-64768180D01*
X161141451Y-64523319D01*
X161375140Y-64251630D01*
X161489807Y-64084788D01*
X161576190Y-63959101D01*
X161576195Y-63959094D01*
X161578120Y-63956292D01*
X161579732Y-63953298D01*
X161579737Y-63953290D01*
X161711109Y-63709305D01*
X161748017Y-63640760D01*
X161797661Y-63518500D01*
X161809256Y-63489946D01*
X161853417Y-63434355D01*
X161920623Y-63411465D01*
X161989535Y-63428542D01*
X162038275Y-63480165D01*
X162051999Y-63537350D01*
X162051998Y-76258484D01*
X162051997Y-114262109D01*
X162031995Y-114330230D01*
X161978339Y-114376723D01*
X161908065Y-114386827D01*
X161843485Y-114357333D01*
X161808926Y-114308697D01*
X161800233Y-114286851D01*
X161757793Y-114180205D01*
X161691282Y-114054588D01*
X161591702Y-113866513D01*
X161591698Y-113866506D01*
X161590103Y-113863494D01*
X161389190Y-113566746D01*
X161305274Y-113467795D01*
X161229821Y-113378825D01*
X161157403Y-113293432D01*
X160897454Y-113046750D01*
X160677107Y-112878891D01*
X160615091Y-112831647D01*
X160615089Y-112831646D01*
X160612384Y-112829585D01*
X160609472Y-112827828D01*
X160609467Y-112827825D01*
X160308443Y-112646236D01*
X160308437Y-112646233D01*
X160305528Y-112644478D01*
X159980475Y-112493593D01*
X159802937Y-112433500D01*
X159644255Y-112379789D01*
X159644250Y-112379788D01*
X159641028Y-112378697D01*
X159442681Y-112334724D01*
X159294493Y-112301871D01*
X159294487Y-112301870D01*
X159291158Y-112301132D01*
X159287769Y-112300758D01*
X159287764Y-112300757D01*
X158938338Y-112262180D01*
X158938333Y-112262180D01*
X158934957Y-112261807D01*
X158931558Y-112261801D01*
X158931557Y-112261801D01*
X158762080Y-112261505D01*
X158576592Y-112261182D01*
X158463413Y-112273277D01*
X158223639Y-112298901D01*
X158223631Y-112298902D01*
X158220256Y-112299263D01*
X157870117Y-112375606D01*
X157540384Y-112485933D01*
X157469439Y-112488579D01*
X157408324Y-112452449D01*
X157376444Y-112389013D01*
X157383921Y-112318411D01*
X157411311Y-112277349D01*
X159244319Y-110444341D01*
X159306631Y-110410315D01*
X159377446Y-110415380D01*
X159386663Y-110419241D01*
X159565770Y-110502759D01*
X159565775Y-110502761D01*
X159570757Y-110505084D01*
X159576065Y-110506506D01*
X159576067Y-110506507D01*
X159786598Y-110562919D01*
X159786600Y-110562919D01*
X159791913Y-110564343D01*
X160020000Y-110584298D01*
X160248087Y-110564343D01*
X160253400Y-110562919D01*
X160253402Y-110562919D01*
X160463933Y-110506507D01*
X160463935Y-110506506D01*
X160469243Y-110505084D01*
X160474229Y-110502759D01*
X160671762Y-110410649D01*
X160671767Y-110410646D01*
X160676749Y-110408323D01*
X160798490Y-110323079D01*
X160859789Y-110280157D01*
X160859792Y-110280155D01*
X160864300Y-110276998D01*
X161026198Y-110115100D01*
X161157523Y-109927549D01*
X161159846Y-109922567D01*
X161159849Y-109922562D01*
X161251961Y-109725025D01*
X161251961Y-109725024D01*
X161254284Y-109720043D01*
X161256512Y-109711730D01*
X161312119Y-109504202D01*
X161312119Y-109504200D01*
X161313543Y-109498887D01*
X161333498Y-109270800D01*
X161313543Y-109042713D01*
X161293758Y-108968876D01*
X161255707Y-108826867D01*
X161255706Y-108826865D01*
X161254284Y-108821557D01*
X161251961Y-108816575D01*
X161159849Y-108619038D01*
X161159846Y-108619033D01*
X161157523Y-108614051D01*
X161037436Y-108442549D01*
X161029357Y-108431011D01*
X161029355Y-108431008D01*
X161026198Y-108426500D01*
X160864300Y-108264602D01*
X160859792Y-108261445D01*
X160859789Y-108261443D01*
X160707229Y-108154619D01*
X160662901Y-108099162D01*
X160653500Y-108051406D01*
X160653500Y-107950194D01*
X160673502Y-107882073D01*
X160707229Y-107846981D01*
X160859789Y-107740157D01*
X160859792Y-107740155D01*
X160864300Y-107736998D01*
X161026198Y-107575100D01*
X161157523Y-107387549D01*
X161159846Y-107382567D01*
X161159849Y-107382562D01*
X161251961Y-107185025D01*
X161251961Y-107185024D01*
X161254284Y-107180043D01*
X161258376Y-107164774D01*
X161312119Y-106964202D01*
X161312119Y-106964200D01*
X161313543Y-106958887D01*
X161333498Y-106730800D01*
X161313543Y-106502713D01*
X161260568Y-106305008D01*
X161255707Y-106286867D01*
X161255706Y-106286865D01*
X161254284Y-106281557D01*
X161251961Y-106276575D01*
X161159849Y-106079038D01*
X161159846Y-106079033D01*
X161157523Y-106074051D01*
X161061229Y-105936529D01*
X161029357Y-105891011D01*
X161029355Y-105891008D01*
X161026198Y-105886500D01*
X160864300Y-105724602D01*
X160859792Y-105721445D01*
X160859789Y-105721443D01*
X160707229Y-105614619D01*
X160662901Y-105559162D01*
X160653500Y-105511406D01*
X160653500Y-105410194D01*
X160673502Y-105342073D01*
X160707229Y-105306981D01*
X160859789Y-105200157D01*
X160859792Y-105200155D01*
X160864300Y-105196998D01*
X161026198Y-105035100D01*
X161039504Y-105016098D01*
X161084098Y-104952411D01*
X161157523Y-104847549D01*
X161159846Y-104842567D01*
X161159849Y-104842562D01*
X161251961Y-104645025D01*
X161251961Y-104645024D01*
X161254284Y-104640043D01*
X161271401Y-104576164D01*
X161312119Y-104424202D01*
X161312119Y-104424200D01*
X161313543Y-104418887D01*
X161333498Y-104190800D01*
X161313543Y-103962713D01*
X161254284Y-103741557D01*
X161243781Y-103719033D01*
X161159849Y-103539038D01*
X161159846Y-103539033D01*
X161157523Y-103534051D01*
X161026198Y-103346500D01*
X160864300Y-103184602D01*
X160859792Y-103181445D01*
X160859789Y-103181443D01*
X160707229Y-103074619D01*
X160662901Y-103019162D01*
X160653500Y-102971406D01*
X160653500Y-102870194D01*
X160673502Y-102802073D01*
X160707229Y-102766981D01*
X160859789Y-102660157D01*
X160859792Y-102660155D01*
X160864300Y-102656998D01*
X161026198Y-102495100D01*
X161157523Y-102307549D01*
X161159846Y-102302567D01*
X161159849Y-102302562D01*
X161251961Y-102105025D01*
X161251961Y-102105024D01*
X161254284Y-102100043D01*
X161260908Y-102075324D01*
X161312119Y-101884202D01*
X161312119Y-101884200D01*
X161313543Y-101878887D01*
X161333498Y-101650800D01*
X161313543Y-101422713D01*
X161305880Y-101394115D01*
X161255707Y-101206867D01*
X161255706Y-101206865D01*
X161254284Y-101201557D01*
X161243781Y-101179033D01*
X161159849Y-100999038D01*
X161159846Y-100999033D01*
X161157523Y-100994051D01*
X161083266Y-100888002D01*
X161029357Y-100811011D01*
X161029355Y-100811008D01*
X161026198Y-100806500D01*
X160864300Y-100644602D01*
X160859792Y-100641445D01*
X160859789Y-100641443D01*
X160707229Y-100534619D01*
X160662901Y-100479162D01*
X160653500Y-100431406D01*
X160653500Y-100330194D01*
X160673502Y-100262073D01*
X160707229Y-100226981D01*
X160859789Y-100120157D01*
X160859792Y-100120155D01*
X160864300Y-100116998D01*
X161026198Y-99955100D01*
X161157523Y-99767549D01*
X161159846Y-99762567D01*
X161159849Y-99762562D01*
X161251961Y-99565025D01*
X161251961Y-99565024D01*
X161254284Y-99560043D01*
X161271401Y-99496164D01*
X161312119Y-99344202D01*
X161312119Y-99344200D01*
X161313543Y-99338887D01*
X161333498Y-99110800D01*
X161313543Y-98882713D01*
X161297904Y-98824349D01*
X161255707Y-98666867D01*
X161255706Y-98666865D01*
X161254284Y-98661557D01*
X161230831Y-98611261D01*
X161159849Y-98459038D01*
X161159846Y-98459033D01*
X161157523Y-98454051D01*
X161026198Y-98266500D01*
X160864300Y-98104602D01*
X160859792Y-98101445D01*
X160859789Y-98101443D01*
X160707229Y-97994619D01*
X160662901Y-97939162D01*
X160653500Y-97891406D01*
X160653500Y-97790194D01*
X160673502Y-97722073D01*
X160707229Y-97686981D01*
X160859789Y-97580157D01*
X160859792Y-97580155D01*
X160864300Y-97576998D01*
X161026198Y-97415100D01*
X161064278Y-97360717D01*
X161107909Y-97298405D01*
X161157523Y-97227549D01*
X161159846Y-97222567D01*
X161159849Y-97222562D01*
X161251961Y-97025025D01*
X161251961Y-97025024D01*
X161254284Y-97020043D01*
X161271401Y-96956164D01*
X161312119Y-96804202D01*
X161312119Y-96804200D01*
X161313543Y-96798887D01*
X161333498Y-96570800D01*
X161313543Y-96342713D01*
X161254284Y-96121557D01*
X161243781Y-96099033D01*
X161159849Y-95919038D01*
X161159846Y-95919033D01*
X161157523Y-95914051D01*
X161051652Y-95762852D01*
X161029357Y-95731011D01*
X161029355Y-95731008D01*
X161026198Y-95726500D01*
X160864300Y-95564602D01*
X160859792Y-95561445D01*
X160859789Y-95561443D01*
X160707229Y-95454619D01*
X160662901Y-95399162D01*
X160653500Y-95351406D01*
X160653500Y-95250194D01*
X160673502Y-95182073D01*
X160707229Y-95146981D01*
X160859789Y-95040157D01*
X160859792Y-95040155D01*
X160864300Y-95036998D01*
X161026198Y-94875100D01*
X161157523Y-94687549D01*
X161159846Y-94682567D01*
X161159849Y-94682562D01*
X161251961Y-94485025D01*
X161251961Y-94485024D01*
X161254284Y-94480043D01*
X161264998Y-94440060D01*
X161312119Y-94264202D01*
X161312119Y-94264200D01*
X161313543Y-94258887D01*
X161333498Y-94030800D01*
X161313543Y-93802713D01*
X161302572Y-93761768D01*
X161255707Y-93586867D01*
X161255706Y-93586865D01*
X161254284Y-93581557D01*
X161243781Y-93559033D01*
X161159849Y-93379038D01*
X161159846Y-93379033D01*
X161157523Y-93374051D01*
X161084098Y-93269189D01*
X161029357Y-93191011D01*
X161029355Y-93191008D01*
X161026198Y-93186500D01*
X160864300Y-93024602D01*
X160859792Y-93021445D01*
X160859789Y-93021443D01*
X160707229Y-92914619D01*
X160662901Y-92859162D01*
X160653500Y-92811406D01*
X160653500Y-92710194D01*
X160673502Y-92642073D01*
X160707229Y-92606981D01*
X160859789Y-92500157D01*
X160859792Y-92500155D01*
X160864300Y-92496998D01*
X161026198Y-92335100D01*
X161031481Y-92327556D01*
X161154366Y-92152057D01*
X161157523Y-92147549D01*
X161159846Y-92142567D01*
X161159849Y-92142562D01*
X161251961Y-91945025D01*
X161251961Y-91945024D01*
X161254284Y-91940043D01*
X161286137Y-91821169D01*
X161312119Y-91724202D01*
X161312119Y-91724200D01*
X161313543Y-91718887D01*
X161333498Y-91490800D01*
X161313543Y-91262713D01*
X161270698Y-91102815D01*
X161255707Y-91046867D01*
X161255706Y-91046865D01*
X161254284Y-91041557D01*
X161240070Y-91011075D01*
X161159849Y-90839038D01*
X161159846Y-90839033D01*
X161157523Y-90834051D01*
X161084098Y-90729189D01*
X161029357Y-90651011D01*
X161029355Y-90651008D01*
X161026198Y-90646500D01*
X160864300Y-90484602D01*
X160859792Y-90481445D01*
X160859789Y-90481443D01*
X160707229Y-90374619D01*
X160662901Y-90319162D01*
X160653500Y-90271406D01*
X160653500Y-87223794D01*
X160673502Y-87155673D01*
X160707229Y-87120581D01*
X160859789Y-87013757D01*
X160859792Y-87013755D01*
X160864300Y-87010598D01*
X161026198Y-86848700D01*
X161061543Y-86798223D01*
X161121152Y-86713092D01*
X161157523Y-86661149D01*
X161159846Y-86656167D01*
X161159849Y-86656162D01*
X161251961Y-86458625D01*
X161251961Y-86458624D01*
X161254284Y-86453643D01*
X161299757Y-86283939D01*
X161312119Y-86237802D01*
X161312119Y-86237800D01*
X161313543Y-86232487D01*
X161333498Y-86004400D01*
X161313543Y-85776313D01*
X161306240Y-85749059D01*
X161255707Y-85560467D01*
X161255706Y-85560465D01*
X161254284Y-85555157D01*
X161251961Y-85550175D01*
X161159849Y-85352638D01*
X161159846Y-85352633D01*
X161157523Y-85347651D01*
X161026198Y-85160100D01*
X160864300Y-84998202D01*
X160859792Y-84995045D01*
X160859789Y-84995043D01*
X160707229Y-84888219D01*
X160662901Y-84832762D01*
X160653500Y-84785006D01*
X160653500Y-84683794D01*
X160673502Y-84615673D01*
X160707229Y-84580581D01*
X160859789Y-84473757D01*
X160859792Y-84473755D01*
X160864300Y-84470598D01*
X161026198Y-84308700D01*
X161039684Y-84289441D01*
X161109629Y-84189548D01*
X161157523Y-84121149D01*
X161159846Y-84116167D01*
X161159849Y-84116162D01*
X161251961Y-83918625D01*
X161251961Y-83918624D01*
X161254284Y-83913643D01*
X161259014Y-83895993D01*
X161312119Y-83697802D01*
X161312119Y-83697800D01*
X161313543Y-83692487D01*
X161333498Y-83464400D01*
X161313543Y-83236313D01*
X161312119Y-83230998D01*
X161255707Y-83020467D01*
X161255706Y-83020465D01*
X161254284Y-83015157D01*
X161251961Y-83010175D01*
X161159849Y-82812638D01*
X161159846Y-82812633D01*
X161157523Y-82807651D01*
X161026198Y-82620100D01*
X160864300Y-82458202D01*
X160859792Y-82455045D01*
X160859789Y-82455043D01*
X160707229Y-82348219D01*
X160662901Y-82292762D01*
X160653500Y-82245006D01*
X160653500Y-82143794D01*
X160673502Y-82075673D01*
X160707229Y-82040581D01*
X160859789Y-81933757D01*
X160859792Y-81933755D01*
X160864300Y-81930598D01*
X161026198Y-81768700D01*
X161157523Y-81581149D01*
X161159846Y-81576167D01*
X161159849Y-81576162D01*
X161251961Y-81378625D01*
X161251961Y-81378624D01*
X161254284Y-81373643D01*
X161313543Y-81152487D01*
X161333498Y-80924400D01*
X161313543Y-80696313D01*
X161254284Y-80475157D01*
X161243918Y-80452926D01*
X161159849Y-80272638D01*
X161159846Y-80272633D01*
X161157523Y-80267651D01*
X161026198Y-80080100D01*
X160864300Y-79918202D01*
X160859792Y-79915045D01*
X160859789Y-79915043D01*
X160707229Y-79808219D01*
X160662901Y-79752762D01*
X160653500Y-79705006D01*
X160653500Y-79603794D01*
X160673502Y-79535673D01*
X160707229Y-79500581D01*
X160859789Y-79393757D01*
X160859792Y-79393755D01*
X160864300Y-79390598D01*
X161026198Y-79228700D01*
X161157523Y-79041149D01*
X161159846Y-79036167D01*
X161159849Y-79036162D01*
X161251961Y-78838625D01*
X161251961Y-78838624D01*
X161254284Y-78833643D01*
X161263597Y-78798889D01*
X161312119Y-78617802D01*
X161312119Y-78617800D01*
X161313543Y-78612487D01*
X161333498Y-78384400D01*
X161313543Y-78156313D01*
X161254284Y-77935157D01*
X161251961Y-77930175D01*
X161159849Y-77732638D01*
X161159846Y-77732633D01*
X161157523Y-77727651D01*
X161026198Y-77540100D01*
X160864300Y-77378202D01*
X160859792Y-77375045D01*
X160859789Y-77375043D01*
X160707229Y-77268219D01*
X160662901Y-77212762D01*
X160653500Y-77165006D01*
X160653500Y-77063794D01*
X160673502Y-76995673D01*
X160707229Y-76960581D01*
X160859789Y-76853757D01*
X160859792Y-76853755D01*
X160864300Y-76850598D01*
X161026198Y-76688700D01*
X161157523Y-76501149D01*
X161159846Y-76496167D01*
X161159849Y-76496162D01*
X161251961Y-76298625D01*
X161251961Y-76298624D01*
X161254284Y-76293643D01*
X161282361Y-76188861D01*
X161312119Y-76077802D01*
X161312119Y-76077800D01*
X161313543Y-76072487D01*
X161333498Y-75844400D01*
X161313543Y-75616313D01*
X161254284Y-75395157D01*
X161251468Y-75389118D01*
X161159849Y-75192638D01*
X161159846Y-75192633D01*
X161157523Y-75187651D01*
X161067567Y-75059181D01*
X161029357Y-75004611D01*
X161029355Y-75004608D01*
X161026198Y-75000100D01*
X160864300Y-74838202D01*
X160859792Y-74835045D01*
X160859789Y-74835043D01*
X160707229Y-74728219D01*
X160662901Y-74672762D01*
X160653500Y-74625006D01*
X160653500Y-74523794D01*
X160673502Y-74455673D01*
X160707229Y-74420581D01*
X160859789Y-74313757D01*
X160859792Y-74313755D01*
X160864300Y-74310598D01*
X161026198Y-74148700D01*
X161157523Y-73961149D01*
X161159846Y-73956167D01*
X161159849Y-73956162D01*
X161251961Y-73758625D01*
X161251961Y-73758624D01*
X161254284Y-73753643D01*
X161282361Y-73648861D01*
X161312119Y-73537802D01*
X161312119Y-73537800D01*
X161313543Y-73532487D01*
X161333498Y-73304400D01*
X161313543Y-73076313D01*
X161254284Y-72855157D01*
X161251961Y-72850175D01*
X161159849Y-72652638D01*
X161159846Y-72652633D01*
X161157523Y-72647651D01*
X161026198Y-72460100D01*
X160864300Y-72298202D01*
X160859792Y-72295045D01*
X160859789Y-72295043D01*
X160707229Y-72188219D01*
X160662901Y-72132762D01*
X160653500Y-72085006D01*
X160653500Y-71983794D01*
X160673502Y-71915673D01*
X160707229Y-71880581D01*
X160859789Y-71773757D01*
X160859792Y-71773755D01*
X160864300Y-71770598D01*
X161026198Y-71608700D01*
X161046175Y-71580171D01*
X161105817Y-71494992D01*
X161157523Y-71421149D01*
X161159846Y-71416167D01*
X161159849Y-71416162D01*
X161251961Y-71218625D01*
X161251961Y-71218624D01*
X161254284Y-71213643D01*
X161267009Y-71166155D01*
X161312119Y-70997802D01*
X161312119Y-70997800D01*
X161313543Y-70992487D01*
X161333498Y-70764400D01*
X161313543Y-70536313D01*
X161254284Y-70315157D01*
X161251961Y-70310175D01*
X161159849Y-70112638D01*
X161159846Y-70112633D01*
X161157523Y-70107651D01*
X161026198Y-69920100D01*
X160864300Y-69758202D01*
X160859792Y-69755045D01*
X160859789Y-69755043D01*
X160707229Y-69648219D01*
X160662901Y-69592762D01*
X160653500Y-69545006D01*
X160653500Y-69443794D01*
X160673502Y-69375673D01*
X160707229Y-69340581D01*
X160859789Y-69233757D01*
X160859792Y-69233755D01*
X160864300Y-69230598D01*
X161026198Y-69068700D01*
X161157523Y-68881149D01*
X161159846Y-68876167D01*
X161159849Y-68876162D01*
X161251961Y-68678625D01*
X161251961Y-68678624D01*
X161254284Y-68673643D01*
X161301201Y-68498550D01*
X161312119Y-68457802D01*
X161312119Y-68457800D01*
X161313543Y-68452487D01*
X161333498Y-68224400D01*
X161313543Y-67996313D01*
X161254284Y-67775157D01*
X161238715Y-67741768D01*
X161159849Y-67572638D01*
X161159846Y-67572633D01*
X161157523Y-67567651D01*
X161026198Y-67380100D01*
X160864300Y-67218202D01*
X160859792Y-67215045D01*
X160859789Y-67215043D01*
X160771979Y-67153558D01*
X160676749Y-67086877D01*
X160671767Y-67084554D01*
X160671762Y-67084551D01*
X160474225Y-66992439D01*
X160474224Y-66992439D01*
X160469243Y-66990116D01*
X160463935Y-66988694D01*
X160463933Y-66988693D01*
X160253402Y-66932281D01*
X160253400Y-66932281D01*
X160248087Y-66930857D01*
X160020000Y-66910902D01*
X159791913Y-66930857D01*
X159786600Y-66932281D01*
X159786598Y-66932281D01*
X159648329Y-66969330D01*
X159577353Y-66967640D01*
X159526623Y-66936718D01*
X158644052Y-66054147D01*
X158636512Y-66045861D01*
X158632400Y-66039382D01*
X158582748Y-65992756D01*
X158579907Y-65990002D01*
X158560170Y-65970265D01*
X158556973Y-65967785D01*
X158547951Y-65960080D01*
X158534522Y-65947469D01*
X158515721Y-65929814D01*
X158508775Y-65925995D01*
X158508772Y-65925993D01*
X158497966Y-65920052D01*
X158481447Y-65909201D01*
X158480983Y-65908841D01*
X158465441Y-65896786D01*
X158458172Y-65893641D01*
X158458168Y-65893638D01*
X158424863Y-65879226D01*
X158414213Y-65874009D01*
X158375460Y-65852705D01*
X158355837Y-65847667D01*
X158337134Y-65841263D01*
X158325820Y-65836367D01*
X158325819Y-65836367D01*
X158318545Y-65833219D01*
X158310722Y-65831980D01*
X158310712Y-65831977D01*
X158274876Y-65826301D01*
X158263256Y-65823895D01*
X158228111Y-65814872D01*
X158228110Y-65814872D01*
X158220430Y-65812900D01*
X158200176Y-65812900D01*
X158180465Y-65811349D01*
X158168286Y-65809420D01*
X158160457Y-65808180D01*
X158131186Y-65810947D01*
X158116439Y-65812341D01*
X158104581Y-65812900D01*
X150141967Y-65812900D01*
X150130784Y-65812373D01*
X150123291Y-65810698D01*
X150115365Y-65810947D01*
X150115364Y-65810947D01*
X150055214Y-65812838D01*
X150051255Y-65812900D01*
X150023344Y-65812900D01*
X150019410Y-65813397D01*
X150019409Y-65813397D01*
X150019344Y-65813405D01*
X150007507Y-65814338D01*
X149975249Y-65815352D01*
X149971230Y-65815478D01*
X149963311Y-65815727D01*
X149943857Y-65821379D01*
X149924500Y-65825387D01*
X149912270Y-65826932D01*
X149912269Y-65826932D01*
X149904403Y-65827926D01*
X149897032Y-65830845D01*
X149897030Y-65830845D01*
X149863288Y-65844204D01*
X149852058Y-65848049D01*
X149817217Y-65858171D01*
X149817216Y-65858171D01*
X149809607Y-65860382D01*
X149802788Y-65864415D01*
X149802783Y-65864417D01*
X149792172Y-65870693D01*
X149774424Y-65879388D01*
X149755583Y-65886848D01*
X149749167Y-65891510D01*
X149749166Y-65891510D01*
X149719813Y-65912836D01*
X149709893Y-65919352D01*
X149678665Y-65937820D01*
X149678662Y-65937822D01*
X149671838Y-65941858D01*
X149657517Y-65956179D01*
X149642484Y-65969019D01*
X149626093Y-65980928D01*
X149609451Y-66001045D01*
X149597902Y-66015005D01*
X149589912Y-66023784D01*
X148722998Y-66890698D01*
X148660686Y-66924724D01*
X148622922Y-66927124D01*
X148442976Y-66911381D01*
X148442975Y-66911381D01*
X148437500Y-66910902D01*
X148209413Y-66930857D01*
X148204100Y-66932281D01*
X148204098Y-66932281D01*
X147993567Y-66988693D01*
X147993565Y-66988694D01*
X147988257Y-66990116D01*
X147983276Y-66992439D01*
X147983275Y-66992439D01*
X147785738Y-67084551D01*
X147785733Y-67084554D01*
X147780751Y-67086877D01*
X147685521Y-67153558D01*
X147597711Y-67215043D01*
X147597708Y-67215045D01*
X147593200Y-67218202D01*
X147431302Y-67380100D01*
X147299977Y-67567651D01*
X147297654Y-67572633D01*
X147297651Y-67572638D01*
X147218785Y-67741768D01*
X147203216Y-67775157D01*
X147143957Y-67996313D01*
X147124002Y-68224400D01*
X147143957Y-68452487D01*
X147145381Y-68457800D01*
X147145381Y-68457802D01*
X147156300Y-68498550D01*
X147203216Y-68673643D01*
X147205539Y-68678624D01*
X147205539Y-68678625D01*
X147297651Y-68876162D01*
X147297654Y-68876167D01*
X147299977Y-68881149D01*
X147431302Y-69068700D01*
X147593200Y-69230598D01*
X147597708Y-69233755D01*
X147597711Y-69233757D01*
X147750271Y-69340581D01*
X147794599Y-69396038D01*
X147804000Y-69443794D01*
X147804000Y-69545006D01*
X147783998Y-69613127D01*
X147750271Y-69648219D01*
X147597711Y-69755043D01*
X147597708Y-69755045D01*
X147593200Y-69758202D01*
X147431302Y-69920100D01*
X147299977Y-70107651D01*
X147297654Y-70112633D01*
X147297651Y-70112638D01*
X147205539Y-70310175D01*
X147203216Y-70315157D01*
X147143957Y-70536313D01*
X147124002Y-70764400D01*
X147143957Y-70992487D01*
X147145381Y-70997800D01*
X147145381Y-70997802D01*
X147190492Y-71166155D01*
X147203216Y-71213643D01*
X147205539Y-71218624D01*
X147205539Y-71218625D01*
X147297651Y-71416162D01*
X147297654Y-71416167D01*
X147299977Y-71421149D01*
X147351683Y-71494992D01*
X147411326Y-71580171D01*
X147431302Y-71608700D01*
X147593200Y-71770598D01*
X147597708Y-71773755D01*
X147597711Y-71773757D01*
X147750271Y-71880581D01*
X147794599Y-71936038D01*
X147804000Y-71983794D01*
X147804000Y-72085006D01*
X147783998Y-72153127D01*
X147750271Y-72188219D01*
X147597711Y-72295043D01*
X147597708Y-72295045D01*
X147593200Y-72298202D01*
X147431302Y-72460100D01*
X147299977Y-72647651D01*
X147297654Y-72652633D01*
X147297651Y-72652638D01*
X147205539Y-72850175D01*
X147203216Y-72855157D01*
X147143957Y-73076313D01*
X147124002Y-73304400D01*
X147143957Y-73532487D01*
X147145381Y-73537800D01*
X147145381Y-73537802D01*
X147175140Y-73648861D01*
X147203216Y-73753643D01*
X147205539Y-73758624D01*
X147205539Y-73758625D01*
X147297651Y-73956162D01*
X147297654Y-73956167D01*
X147299977Y-73961149D01*
X147431302Y-74148700D01*
X147593200Y-74310598D01*
X147597708Y-74313755D01*
X147597711Y-74313757D01*
X147750271Y-74420581D01*
X147794599Y-74476038D01*
X147804000Y-74523794D01*
X147804000Y-74625006D01*
X147783998Y-74693127D01*
X147750271Y-74728219D01*
X147597711Y-74835043D01*
X147597708Y-74835045D01*
X147593200Y-74838202D01*
X147431302Y-75000100D01*
X147428145Y-75004608D01*
X147428143Y-75004611D01*
X147389933Y-75059181D01*
X147299977Y-75187651D01*
X147297654Y-75192633D01*
X147297651Y-75192638D01*
X147206032Y-75389118D01*
X147203216Y-75395157D01*
X147143957Y-75616313D01*
X147124002Y-75844400D01*
X147143957Y-76072487D01*
X147145381Y-76077800D01*
X147145381Y-76077802D01*
X147175140Y-76188861D01*
X147203216Y-76293643D01*
X147205539Y-76298624D01*
X147205539Y-76298625D01*
X147297651Y-76496162D01*
X147297654Y-76496167D01*
X147299977Y-76501149D01*
X147431302Y-76688700D01*
X147593200Y-76850598D01*
X147597708Y-76853755D01*
X147597711Y-76853757D01*
X147750271Y-76960581D01*
X147794599Y-77016038D01*
X147804000Y-77063794D01*
X147804000Y-77165006D01*
X147783998Y-77233127D01*
X147750271Y-77268219D01*
X147597711Y-77375043D01*
X147597708Y-77375045D01*
X147593200Y-77378202D01*
X147431302Y-77540100D01*
X147299977Y-77727651D01*
X147297654Y-77732633D01*
X147297651Y-77732638D01*
X147205539Y-77930175D01*
X147203216Y-77935157D01*
X147143957Y-78156313D01*
X147124002Y-78384400D01*
X147143957Y-78612487D01*
X147145381Y-78617800D01*
X147145381Y-78617802D01*
X147193904Y-78798889D01*
X147203216Y-78833643D01*
X147205539Y-78838624D01*
X147205539Y-78838625D01*
X147297651Y-79036162D01*
X147297654Y-79036167D01*
X147299977Y-79041149D01*
X147431302Y-79228700D01*
X147593200Y-79390598D01*
X147597708Y-79393755D01*
X147597711Y-79393757D01*
X147750271Y-79500581D01*
X147794599Y-79556038D01*
X147804000Y-79603794D01*
X147804000Y-79705006D01*
X147783998Y-79773127D01*
X147750271Y-79808219D01*
X147597711Y-79915043D01*
X147597708Y-79915045D01*
X147593200Y-79918202D01*
X147431302Y-80080100D01*
X147299977Y-80267651D01*
X147297654Y-80272633D01*
X147297651Y-80272638D01*
X147213582Y-80452926D01*
X147203216Y-80475157D01*
X147143957Y-80696313D01*
X147124002Y-80924400D01*
X147143957Y-81152487D01*
X147203216Y-81373643D01*
X147205539Y-81378624D01*
X147205539Y-81378625D01*
X147297651Y-81576162D01*
X147297654Y-81576167D01*
X147299977Y-81581149D01*
X147431302Y-81768700D01*
X147593200Y-81930598D01*
X147597708Y-81933755D01*
X147597711Y-81933757D01*
X147750271Y-82040581D01*
X147794599Y-82096038D01*
X147804000Y-82143794D01*
X147804000Y-82245006D01*
X147783998Y-82313127D01*
X147750271Y-82348219D01*
X147597711Y-82455043D01*
X147597708Y-82455045D01*
X147593200Y-82458202D01*
X147431302Y-82620100D01*
X147299977Y-82807651D01*
X147297654Y-82812633D01*
X147297651Y-82812638D01*
X147205539Y-83010175D01*
X147203216Y-83015157D01*
X147201794Y-83020465D01*
X147201793Y-83020467D01*
X147145381Y-83230998D01*
X147143957Y-83236313D01*
X147124002Y-83464400D01*
X147143957Y-83692487D01*
X147145381Y-83697800D01*
X147145381Y-83697802D01*
X147198487Y-83895993D01*
X147203216Y-83913643D01*
X147205539Y-83918624D01*
X147205539Y-83918625D01*
X147297651Y-84116162D01*
X147297654Y-84116167D01*
X147299977Y-84121149D01*
X147347871Y-84189548D01*
X147417817Y-84289441D01*
X147431302Y-84308700D01*
X147593200Y-84470598D01*
X147597708Y-84473755D01*
X147597711Y-84473757D01*
X147750271Y-84580581D01*
X147794599Y-84636038D01*
X147804000Y-84683794D01*
X147804000Y-84785006D01*
X147783998Y-84853127D01*
X147750271Y-84888219D01*
X147597711Y-84995043D01*
X147597708Y-84995045D01*
X147593200Y-84998202D01*
X147431302Y-85160100D01*
X147299977Y-85347651D01*
X147297654Y-85352633D01*
X147297651Y-85352638D01*
X147205539Y-85550175D01*
X147203216Y-85555157D01*
X147201794Y-85560465D01*
X147201793Y-85560467D01*
X147151260Y-85749059D01*
X147143957Y-85776313D01*
X147124002Y-86004400D01*
X147143957Y-86232487D01*
X147145381Y-86237800D01*
X147145381Y-86237802D01*
X147157744Y-86283939D01*
X147203216Y-86453643D01*
X147205539Y-86458624D01*
X147205539Y-86458625D01*
X147297651Y-86656162D01*
X147297654Y-86656167D01*
X147299977Y-86661149D01*
X147336348Y-86713092D01*
X147395958Y-86798223D01*
X147431302Y-86848700D01*
X147593200Y-87010598D01*
X147597708Y-87013755D01*
X147597711Y-87013757D01*
X147750271Y-87120581D01*
X147794599Y-87176038D01*
X147804000Y-87223794D01*
X147804000Y-90271476D01*
X147783998Y-90339597D01*
X147750271Y-90374689D01*
X147597811Y-90481443D01*
X147597808Y-90481445D01*
X147593300Y-90484602D01*
X147431402Y-90646500D01*
X147428245Y-90651008D01*
X147428243Y-90651011D01*
X147373502Y-90729189D01*
X147300077Y-90834051D01*
X147297754Y-90839033D01*
X147297751Y-90839038D01*
X147217530Y-91011075D01*
X147203316Y-91041557D01*
X147201894Y-91046865D01*
X147201893Y-91046867D01*
X147186902Y-91102815D01*
X147144057Y-91262713D01*
X147124102Y-91490800D01*
X147144057Y-91718887D01*
X147145481Y-91724200D01*
X147145481Y-91724202D01*
X147171464Y-91821169D01*
X147203316Y-91940043D01*
X147205639Y-91945024D01*
X147205639Y-91945025D01*
X147297751Y-92142562D01*
X147297754Y-92142567D01*
X147300077Y-92147549D01*
X147303234Y-92152057D01*
X147426120Y-92327556D01*
X147431402Y-92335100D01*
X147593300Y-92496998D01*
X147597808Y-92500155D01*
X147597811Y-92500157D01*
X147750271Y-92606911D01*
X147794599Y-92662368D01*
X147804000Y-92710124D01*
X147804000Y-92811476D01*
X147783998Y-92879597D01*
X147750271Y-92914689D01*
X147597811Y-93021443D01*
X147597808Y-93021445D01*
X147593300Y-93024602D01*
X147431402Y-93186500D01*
X147428245Y-93191008D01*
X147428243Y-93191011D01*
X147373502Y-93269189D01*
X147300077Y-93374051D01*
X147297754Y-93379033D01*
X147297751Y-93379038D01*
X147213819Y-93559033D01*
X147203316Y-93581557D01*
X147201894Y-93586865D01*
X147201893Y-93586867D01*
X147155028Y-93761768D01*
X147144057Y-93802713D01*
X147124102Y-94030800D01*
X147144057Y-94258887D01*
X147145481Y-94264200D01*
X147145481Y-94264202D01*
X147192603Y-94440060D01*
X147203316Y-94480043D01*
X147205639Y-94485024D01*
X147205639Y-94485025D01*
X147297751Y-94682562D01*
X147297754Y-94682567D01*
X147300077Y-94687549D01*
X147431402Y-94875100D01*
X147593300Y-95036998D01*
X147597808Y-95040155D01*
X147597811Y-95040157D01*
X147750271Y-95146911D01*
X147794599Y-95202368D01*
X147804000Y-95250124D01*
X147804000Y-95351476D01*
X147783998Y-95419597D01*
X147750271Y-95454689D01*
X147597811Y-95561443D01*
X147597808Y-95561445D01*
X147593300Y-95564602D01*
X147431402Y-95726500D01*
X147428245Y-95731008D01*
X147428243Y-95731011D01*
X147405948Y-95762852D01*
X147300077Y-95914051D01*
X147297754Y-95919033D01*
X147297751Y-95919038D01*
X147213819Y-96099033D01*
X147203316Y-96121557D01*
X147144057Y-96342713D01*
X147124102Y-96570800D01*
X147144057Y-96798887D01*
X147145481Y-96804200D01*
X147145481Y-96804202D01*
X147186200Y-96956164D01*
X147203316Y-97020043D01*
X147205639Y-97025024D01*
X147205639Y-97025025D01*
X147297751Y-97222562D01*
X147297754Y-97222567D01*
X147300077Y-97227549D01*
X147349691Y-97298405D01*
X147393323Y-97360717D01*
X147431402Y-97415100D01*
X147593300Y-97576998D01*
X147597808Y-97580155D01*
X147597811Y-97580157D01*
X147750271Y-97686911D01*
X147794599Y-97742368D01*
X147804000Y-97790124D01*
X147804000Y-97891476D01*
X147783998Y-97959597D01*
X147750271Y-97994689D01*
X147597811Y-98101443D01*
X147597808Y-98101445D01*
X147593300Y-98104602D01*
X147431402Y-98266500D01*
X147300077Y-98454051D01*
X147297754Y-98459033D01*
X147297751Y-98459038D01*
X147226769Y-98611261D01*
X147203316Y-98661557D01*
X147201894Y-98666865D01*
X147201893Y-98666867D01*
X147159696Y-98824349D01*
X147144057Y-98882713D01*
X147124102Y-99110800D01*
X147144057Y-99338887D01*
X147145481Y-99344200D01*
X147145481Y-99344202D01*
X147186200Y-99496164D01*
X147203316Y-99560043D01*
X147205639Y-99565024D01*
X147205639Y-99565025D01*
X147297751Y-99762562D01*
X147297754Y-99762567D01*
X147300077Y-99767549D01*
X147431402Y-99955100D01*
X147593300Y-100116998D01*
X147597808Y-100120155D01*
X147597811Y-100120157D01*
X147750271Y-100226911D01*
X147794599Y-100282368D01*
X147804000Y-100330124D01*
X147804000Y-100431476D01*
X147783998Y-100499597D01*
X147750271Y-100534689D01*
X147597811Y-100641443D01*
X147597808Y-100641445D01*
X147593300Y-100644602D01*
X147431402Y-100806500D01*
X147428245Y-100811008D01*
X147428243Y-100811011D01*
X147374334Y-100888002D01*
X147300077Y-100994051D01*
X147297754Y-100999033D01*
X147297751Y-100999038D01*
X147213819Y-101179033D01*
X147203316Y-101201557D01*
X147201894Y-101206865D01*
X147201893Y-101206867D01*
X147151720Y-101394115D01*
X147144057Y-101422713D01*
X147124102Y-101650800D01*
X147144057Y-101878887D01*
X147145481Y-101884200D01*
X147145481Y-101884202D01*
X147196693Y-102075324D01*
X147203316Y-102100043D01*
X147205639Y-102105024D01*
X147205639Y-102105025D01*
X147297751Y-102302562D01*
X147297754Y-102302567D01*
X147300077Y-102307549D01*
X147431402Y-102495100D01*
X147593300Y-102656998D01*
X147597808Y-102660155D01*
X147597811Y-102660157D01*
X147750271Y-102766911D01*
X147794599Y-102822368D01*
X147804000Y-102870124D01*
X147804000Y-102971476D01*
X147783998Y-103039597D01*
X147750271Y-103074689D01*
X147597811Y-103181443D01*
X147597808Y-103181445D01*
X147593300Y-103184602D01*
X147431402Y-103346500D01*
X147300077Y-103534051D01*
X147297754Y-103539033D01*
X147297751Y-103539038D01*
X147213819Y-103719033D01*
X147203316Y-103741557D01*
X147144057Y-103962713D01*
X147124102Y-104190800D01*
X147144057Y-104418887D01*
X147145481Y-104424200D01*
X147145481Y-104424202D01*
X147186200Y-104576164D01*
X147203316Y-104640043D01*
X147205639Y-104645024D01*
X147205639Y-104645025D01*
X147297751Y-104842562D01*
X147297754Y-104842567D01*
X147300077Y-104847549D01*
X147373502Y-104952411D01*
X147418097Y-105016098D01*
X147431402Y-105035100D01*
X147593300Y-105196998D01*
X147597808Y-105200155D01*
X147597811Y-105200157D01*
X147750271Y-105306911D01*
X147794599Y-105362368D01*
X147804000Y-105410124D01*
X147804000Y-105511476D01*
X147783998Y-105579597D01*
X147750271Y-105614689D01*
X147597811Y-105721443D01*
X147597808Y-105721445D01*
X147593300Y-105724602D01*
X147431402Y-105886500D01*
X147428245Y-105891008D01*
X147428243Y-105891011D01*
X147396371Y-105936529D01*
X147300077Y-106074051D01*
X147297754Y-106079033D01*
X147297751Y-106079038D01*
X147205639Y-106276575D01*
X147203316Y-106281557D01*
X147201894Y-106286865D01*
X147201893Y-106286867D01*
X147197032Y-106305008D01*
X147144057Y-106502713D01*
X147124102Y-106730800D01*
X147144057Y-106958887D01*
X147145481Y-106964200D01*
X147145481Y-106964202D01*
X147199225Y-107164774D01*
X147203316Y-107180043D01*
X147205639Y-107185024D01*
X147205639Y-107185025D01*
X147297751Y-107382562D01*
X147297754Y-107382567D01*
X147300077Y-107387549D01*
X147431402Y-107575100D01*
X147593300Y-107736998D01*
X147597808Y-107740155D01*
X147597811Y-107740157D01*
X147750271Y-107846911D01*
X147794599Y-107902368D01*
X147804000Y-107950124D01*
X147804000Y-108051476D01*
X147783998Y-108119597D01*
X147750271Y-108154689D01*
X147597811Y-108261443D01*
X147597808Y-108261445D01*
X147593300Y-108264602D01*
X147431402Y-108426500D01*
X147428245Y-108431008D01*
X147428243Y-108431011D01*
X147420164Y-108442549D01*
X147300077Y-108614051D01*
X147297754Y-108619033D01*
X147297751Y-108619038D01*
X147205639Y-108816575D01*
X147203316Y-108821557D01*
X147201894Y-108826865D01*
X147201893Y-108826867D01*
X147163842Y-108968876D01*
X147144057Y-109042713D01*
X147124102Y-109270800D01*
X147144057Y-109498887D01*
X147145481Y-109504200D01*
X147145481Y-109504202D01*
X147201089Y-109711730D01*
X147203316Y-109720043D01*
X147205639Y-109725025D01*
X147205641Y-109725030D01*
X147230924Y-109779251D01*
X147241585Y-109849443D01*
X147212604Y-109914255D01*
X147153184Y-109953111D01*
X147116729Y-109958500D01*
X142138471Y-109958500D01*
X142070350Y-109938498D01*
X142023857Y-109884842D01*
X142013753Y-109814568D01*
X142024276Y-109779251D01*
X142049559Y-109725030D01*
X142049561Y-109725025D01*
X142051884Y-109720043D01*
X142054112Y-109711730D01*
X142109719Y-109504202D01*
X142109719Y-109504200D01*
X142111143Y-109498887D01*
X142131098Y-109270800D01*
X142111143Y-109042713D01*
X142091358Y-108968876D01*
X142053307Y-108826867D01*
X142053306Y-108826865D01*
X142051884Y-108821557D01*
X142049561Y-108816575D01*
X141957449Y-108619038D01*
X141957446Y-108619033D01*
X141955123Y-108614051D01*
X141835036Y-108442549D01*
X141826957Y-108431011D01*
X141826955Y-108431008D01*
X141823798Y-108426500D01*
X141661900Y-108264602D01*
X141657392Y-108261445D01*
X141657389Y-108261443D01*
X141485928Y-108141385D01*
X141474349Y-108133277D01*
X141435141Y-108114994D01*
X141381857Y-108068078D01*
X141362396Y-107999801D01*
X141382938Y-107931841D01*
X141435143Y-107886605D01*
X141469358Y-107870651D01*
X141469364Y-107870648D01*
X141474349Y-107868323D01*
X141579211Y-107794898D01*
X141657389Y-107740157D01*
X141657392Y-107740155D01*
X141661900Y-107736998D01*
X141823798Y-107575100D01*
X141955123Y-107387549D01*
X141957446Y-107382567D01*
X141957449Y-107382562D01*
X142049561Y-107185025D01*
X142049561Y-107185024D01*
X142051884Y-107180043D01*
X142055976Y-107164774D01*
X142109719Y-106964202D01*
X142109719Y-106964200D01*
X142111143Y-106958887D01*
X142131098Y-106730800D01*
X142111143Y-106502713D01*
X142058168Y-106305008D01*
X142053307Y-106286867D01*
X142053306Y-106286865D01*
X142051884Y-106281557D01*
X142049561Y-106276575D01*
X141957449Y-106079038D01*
X141957446Y-106079033D01*
X141955123Y-106074051D01*
X141858829Y-105936529D01*
X141826957Y-105891011D01*
X141826955Y-105891008D01*
X141823798Y-105886500D01*
X141661900Y-105724602D01*
X141657392Y-105721445D01*
X141657389Y-105721443D01*
X141577151Y-105665260D01*
X141474349Y-105593277D01*
X141469367Y-105590954D01*
X141469362Y-105590951D01*
X141435143Y-105574995D01*
X141381858Y-105528078D01*
X141362397Y-105459801D01*
X141382939Y-105391841D01*
X141435143Y-105346605D01*
X141469362Y-105330649D01*
X141469367Y-105330646D01*
X141474349Y-105328323D01*
X141614260Y-105230356D01*
X141657389Y-105200157D01*
X141657392Y-105200155D01*
X141661900Y-105196998D01*
X141823798Y-105035100D01*
X141837104Y-105016098D01*
X141881698Y-104952411D01*
X141955123Y-104847549D01*
X141957446Y-104842567D01*
X141957449Y-104842562D01*
X142049561Y-104645025D01*
X142049561Y-104645024D01*
X142051884Y-104640043D01*
X142069001Y-104576164D01*
X142109719Y-104424202D01*
X142109719Y-104424200D01*
X142111143Y-104418887D01*
X142131098Y-104190800D01*
X142111143Y-103962713D01*
X142051884Y-103741557D01*
X142041381Y-103719033D01*
X141957449Y-103539038D01*
X141957446Y-103539033D01*
X141955123Y-103534051D01*
X141823798Y-103346500D01*
X141661900Y-103184602D01*
X141657392Y-103181445D01*
X141657389Y-103181443D01*
X141539665Y-103099012D01*
X141474349Y-103053277D01*
X141469367Y-103050954D01*
X141469362Y-103050951D01*
X141435143Y-103034995D01*
X141381858Y-102988078D01*
X141362397Y-102919801D01*
X141382939Y-102851841D01*
X141435143Y-102806605D01*
X141469362Y-102790649D01*
X141469367Y-102790646D01*
X141474349Y-102788323D01*
X141579211Y-102714898D01*
X141657389Y-102660157D01*
X141657392Y-102660155D01*
X141661900Y-102656998D01*
X141823798Y-102495100D01*
X141955123Y-102307549D01*
X141957446Y-102302567D01*
X141957449Y-102302562D01*
X142049561Y-102105025D01*
X142049561Y-102105024D01*
X142051884Y-102100043D01*
X142058508Y-102075324D01*
X142109719Y-101884202D01*
X142109719Y-101884200D01*
X142111143Y-101878887D01*
X142131098Y-101650800D01*
X142111143Y-101422713D01*
X142103480Y-101394115D01*
X142053307Y-101206867D01*
X142053306Y-101206865D01*
X142051884Y-101201557D01*
X142041381Y-101179033D01*
X141957449Y-100999038D01*
X141957446Y-100999033D01*
X141955123Y-100994051D01*
X141880866Y-100888002D01*
X141826957Y-100811011D01*
X141826955Y-100811008D01*
X141823798Y-100806500D01*
X141661900Y-100644602D01*
X141657392Y-100641445D01*
X141657389Y-100641443D01*
X141539665Y-100559012D01*
X141474349Y-100513277D01*
X141469367Y-100510954D01*
X141469362Y-100510951D01*
X141435143Y-100494995D01*
X141381858Y-100448078D01*
X141362397Y-100379801D01*
X141382939Y-100311841D01*
X141435143Y-100266605D01*
X141469362Y-100250649D01*
X141469367Y-100250646D01*
X141474349Y-100248323D01*
X141633220Y-100137080D01*
X141657389Y-100120157D01*
X141657392Y-100120155D01*
X141661900Y-100116998D01*
X141823798Y-99955100D01*
X141955123Y-99767549D01*
X141957446Y-99762567D01*
X141957449Y-99762562D01*
X142049561Y-99565025D01*
X142049561Y-99565024D01*
X142051884Y-99560043D01*
X142069001Y-99496164D01*
X142109719Y-99344202D01*
X142109719Y-99344200D01*
X142111143Y-99338887D01*
X142131098Y-99110800D01*
X142111143Y-98882713D01*
X142095504Y-98824349D01*
X142053307Y-98666867D01*
X142053306Y-98666865D01*
X142051884Y-98661557D01*
X142028431Y-98611261D01*
X141957449Y-98459038D01*
X141957446Y-98459033D01*
X141955123Y-98454051D01*
X141823798Y-98266500D01*
X141661900Y-98104602D01*
X141657392Y-98101445D01*
X141657389Y-98101443D01*
X141530666Y-98012711D01*
X141474349Y-97973277D01*
X141469367Y-97970954D01*
X141469362Y-97970951D01*
X141435143Y-97954995D01*
X141381858Y-97908078D01*
X141362397Y-97839801D01*
X141382939Y-97771841D01*
X141435143Y-97726605D01*
X141469362Y-97710649D01*
X141469367Y-97710646D01*
X141474349Y-97708323D01*
X141637539Y-97594056D01*
X141657389Y-97580157D01*
X141657392Y-97580155D01*
X141661900Y-97576998D01*
X141823798Y-97415100D01*
X141861878Y-97360717D01*
X141905509Y-97298405D01*
X141955123Y-97227549D01*
X141957446Y-97222567D01*
X141957449Y-97222562D01*
X142049561Y-97025025D01*
X142049561Y-97025024D01*
X142051884Y-97020043D01*
X142069001Y-96956164D01*
X142109719Y-96804202D01*
X142109719Y-96804200D01*
X142111143Y-96798887D01*
X142131098Y-96570800D01*
X142111143Y-96342713D01*
X142051884Y-96121557D01*
X142041381Y-96099033D01*
X141957449Y-95919038D01*
X141957446Y-95919033D01*
X141955123Y-95914051D01*
X141849252Y-95762852D01*
X141826957Y-95731011D01*
X141826955Y-95731008D01*
X141823798Y-95726500D01*
X141661900Y-95564602D01*
X141657392Y-95561445D01*
X141657389Y-95561443D01*
X141556847Y-95491043D01*
X141474349Y-95433277D01*
X141469367Y-95430954D01*
X141469362Y-95430951D01*
X141435143Y-95414995D01*
X141381858Y-95368078D01*
X141362397Y-95299801D01*
X141382939Y-95231841D01*
X141435143Y-95186605D01*
X141469362Y-95170649D01*
X141469367Y-95170646D01*
X141474349Y-95168323D01*
X141608372Y-95074479D01*
X141657389Y-95040157D01*
X141657392Y-95040155D01*
X141661900Y-95036998D01*
X141823798Y-94875100D01*
X141955123Y-94687549D01*
X141957446Y-94682567D01*
X141957449Y-94682562D01*
X142049561Y-94485025D01*
X142049561Y-94485024D01*
X142051884Y-94480043D01*
X142062598Y-94440060D01*
X142109719Y-94264202D01*
X142109719Y-94264200D01*
X142111143Y-94258887D01*
X142131098Y-94030800D01*
X142111143Y-93802713D01*
X142100172Y-93761768D01*
X142053307Y-93586867D01*
X142053306Y-93586865D01*
X142051884Y-93581557D01*
X142041381Y-93559033D01*
X141957449Y-93379038D01*
X141957446Y-93379033D01*
X141955123Y-93374051D01*
X141881698Y-93269189D01*
X141826957Y-93191011D01*
X141826955Y-93191008D01*
X141823798Y-93186500D01*
X141661900Y-93024602D01*
X141657389Y-93021443D01*
X141653176Y-93017908D01*
X141654127Y-93016774D01*
X141614129Y-92966729D01*
X141606824Y-92896110D01*
X141638858Y-92832751D01*
X141700062Y-92796770D01*
X141717117Y-92793718D01*
X141727916Y-92792545D01*
X141864305Y-92741415D01*
X141980861Y-92654061D01*
X142068215Y-92537505D01*
X142119345Y-92401116D01*
X142126100Y-92338934D01*
X142126100Y-90642666D01*
X142119345Y-90580484D01*
X142068215Y-90444095D01*
X141980861Y-90327539D01*
X141864305Y-90240185D01*
X141727916Y-90189055D01*
X141665734Y-90182300D01*
X140492550Y-90182300D01*
X140424429Y-90162298D01*
X140403455Y-90145395D01*
X139760405Y-89502345D01*
X139726379Y-89440033D01*
X139723500Y-89413250D01*
X139723499Y-87065087D01*
X139743501Y-86996966D01*
X139797157Y-86950473D01*
X139867431Y-86940369D01*
X139932011Y-86969863D01*
X139938594Y-86975992D01*
X139973200Y-87010598D01*
X139977708Y-87013755D01*
X139977711Y-87013757D01*
X139994839Y-87025750D01*
X140160751Y-87141923D01*
X140165733Y-87144246D01*
X140165738Y-87144249D01*
X140336325Y-87223794D01*
X140368257Y-87238684D01*
X140373565Y-87240106D01*
X140373567Y-87240107D01*
X140584098Y-87296519D01*
X140584100Y-87296519D01*
X140589413Y-87297943D01*
X140817500Y-87317898D01*
X141045587Y-87297943D01*
X141050900Y-87296519D01*
X141050902Y-87296519D01*
X141261433Y-87240107D01*
X141261435Y-87240106D01*
X141266743Y-87238684D01*
X141298675Y-87223794D01*
X141469262Y-87144249D01*
X141469267Y-87144246D01*
X141474249Y-87141923D01*
X141640161Y-87025750D01*
X141657289Y-87013757D01*
X141657292Y-87013755D01*
X141661800Y-87010598D01*
X141823698Y-86848700D01*
X141859043Y-86798223D01*
X141918652Y-86713092D01*
X141955023Y-86661149D01*
X141957346Y-86656167D01*
X141957349Y-86656162D01*
X142049461Y-86458625D01*
X142049461Y-86458624D01*
X142051784Y-86453643D01*
X142097257Y-86283939D01*
X142109619Y-86237802D01*
X142109619Y-86237800D01*
X142111043Y-86232487D01*
X142130998Y-86004400D01*
X142111043Y-85776313D01*
X142103740Y-85749059D01*
X142053207Y-85560467D01*
X142053206Y-85560465D01*
X142051784Y-85555157D01*
X142049461Y-85550175D01*
X141957349Y-85352638D01*
X141957346Y-85352633D01*
X141955023Y-85347651D01*
X141823698Y-85160100D01*
X141661800Y-84998202D01*
X141657292Y-84995045D01*
X141657289Y-84995043D01*
X141504728Y-84888219D01*
X141474249Y-84866877D01*
X141469267Y-84864554D01*
X141469262Y-84864551D01*
X141435043Y-84848595D01*
X141381758Y-84801678D01*
X141362297Y-84733401D01*
X141382839Y-84665441D01*
X141435043Y-84620205D01*
X141469262Y-84604249D01*
X141469267Y-84604246D01*
X141474249Y-84601923D01*
X141633103Y-84490692D01*
X141657289Y-84473757D01*
X141657292Y-84473755D01*
X141661800Y-84470598D01*
X141823698Y-84308700D01*
X141837184Y-84289441D01*
X141907129Y-84189548D01*
X141955023Y-84121149D01*
X141957346Y-84116167D01*
X141957349Y-84116162D01*
X142049461Y-83918625D01*
X142049461Y-83918624D01*
X142051784Y-83913643D01*
X142056514Y-83895993D01*
X142109619Y-83697802D01*
X142109619Y-83697800D01*
X142111043Y-83692487D01*
X142130998Y-83464400D01*
X142111043Y-83236313D01*
X142109619Y-83230998D01*
X142053207Y-83020467D01*
X142053206Y-83020465D01*
X142051784Y-83015157D01*
X142049461Y-83010175D01*
X141957349Y-82812638D01*
X141957346Y-82812633D01*
X141955023Y-82807651D01*
X141823698Y-82620100D01*
X141661800Y-82458202D01*
X141657292Y-82455045D01*
X141657289Y-82455043D01*
X141504728Y-82348219D01*
X141474249Y-82326877D01*
X141469267Y-82324554D01*
X141469262Y-82324551D01*
X141435043Y-82308595D01*
X141381758Y-82261678D01*
X141362297Y-82193401D01*
X141382839Y-82125441D01*
X141435043Y-82080205D01*
X141469262Y-82064249D01*
X141469267Y-82064246D01*
X141474249Y-82061923D01*
X141595270Y-81977183D01*
X141657289Y-81933757D01*
X141657292Y-81933755D01*
X141661800Y-81930598D01*
X141823698Y-81768700D01*
X141955023Y-81581149D01*
X141957346Y-81576167D01*
X141957349Y-81576162D01*
X142049461Y-81378625D01*
X142049461Y-81378624D01*
X142051784Y-81373643D01*
X142111043Y-81152487D01*
X142130998Y-80924400D01*
X142111043Y-80696313D01*
X142051784Y-80475157D01*
X142041418Y-80452926D01*
X141957349Y-80272638D01*
X141957346Y-80272633D01*
X141955023Y-80267651D01*
X141823698Y-80080100D01*
X141661800Y-79918202D01*
X141657292Y-79915045D01*
X141657289Y-79915043D01*
X141504728Y-79808219D01*
X141474249Y-79786877D01*
X141469267Y-79784554D01*
X141469262Y-79784551D01*
X141435043Y-79768595D01*
X141381758Y-79721678D01*
X141362297Y-79653401D01*
X141382839Y-79585441D01*
X141435043Y-79540205D01*
X141469262Y-79524249D01*
X141469267Y-79524246D01*
X141474249Y-79521923D01*
X141594906Y-79437438D01*
X141657289Y-79393757D01*
X141657292Y-79393755D01*
X141661800Y-79390598D01*
X141823698Y-79228700D01*
X141955023Y-79041149D01*
X141957346Y-79036167D01*
X141957349Y-79036162D01*
X142049461Y-78838625D01*
X142049461Y-78838624D01*
X142051784Y-78833643D01*
X142061097Y-78798889D01*
X142109619Y-78617802D01*
X142109619Y-78617800D01*
X142111043Y-78612487D01*
X142130998Y-78384400D01*
X142111043Y-78156313D01*
X142051784Y-77935157D01*
X142049461Y-77930175D01*
X141957349Y-77732638D01*
X141957346Y-77732633D01*
X141955023Y-77727651D01*
X141823698Y-77540100D01*
X141661800Y-77378202D01*
X141657292Y-77375045D01*
X141657289Y-77375043D01*
X141504728Y-77268219D01*
X141474249Y-77246877D01*
X141469267Y-77244554D01*
X141469262Y-77244551D01*
X141435043Y-77228595D01*
X141381758Y-77181678D01*
X141362297Y-77113401D01*
X141382839Y-77045441D01*
X141435043Y-77000205D01*
X141469262Y-76984249D01*
X141469267Y-76984246D01*
X141474249Y-76981923D01*
X141594906Y-76897438D01*
X141657289Y-76853757D01*
X141657292Y-76853755D01*
X141661800Y-76850598D01*
X141823698Y-76688700D01*
X141955023Y-76501149D01*
X141957346Y-76496167D01*
X141957349Y-76496162D01*
X142049461Y-76298625D01*
X142049461Y-76298624D01*
X142051784Y-76293643D01*
X142079861Y-76188861D01*
X142109619Y-76077802D01*
X142109619Y-76077800D01*
X142111043Y-76072487D01*
X142130998Y-75844400D01*
X142111043Y-75616313D01*
X142051784Y-75395157D01*
X142048968Y-75389118D01*
X141957349Y-75192638D01*
X141957346Y-75192633D01*
X141955023Y-75187651D01*
X141865067Y-75059181D01*
X141826857Y-75004611D01*
X141826855Y-75004608D01*
X141823698Y-75000100D01*
X141661800Y-74838202D01*
X141657292Y-74835045D01*
X141657289Y-74835043D01*
X141559920Y-74766865D01*
X141474249Y-74706877D01*
X141469267Y-74704554D01*
X141469262Y-74704551D01*
X141435043Y-74688595D01*
X141381758Y-74641678D01*
X141362297Y-74573401D01*
X141382839Y-74505441D01*
X141435043Y-74460205D01*
X141469262Y-74444249D01*
X141469267Y-74444246D01*
X141474249Y-74441923D01*
X141579111Y-74368498D01*
X141657289Y-74313757D01*
X141657292Y-74313755D01*
X141661800Y-74310598D01*
X141823698Y-74148700D01*
X141955023Y-73961149D01*
X141957346Y-73956167D01*
X141957349Y-73956162D01*
X142049461Y-73758625D01*
X142049461Y-73758624D01*
X142051784Y-73753643D01*
X142079861Y-73648861D01*
X142109619Y-73537802D01*
X142109619Y-73537800D01*
X142111043Y-73532487D01*
X142130998Y-73304400D01*
X142111043Y-73076313D01*
X142051784Y-72855157D01*
X142049461Y-72850175D01*
X141957349Y-72652638D01*
X141957346Y-72652633D01*
X141955023Y-72647651D01*
X141823698Y-72460100D01*
X141661800Y-72298202D01*
X141657292Y-72295045D01*
X141657289Y-72295043D01*
X141504728Y-72188219D01*
X141474249Y-72166877D01*
X141469267Y-72164554D01*
X141469262Y-72164551D01*
X141435043Y-72148595D01*
X141381758Y-72101678D01*
X141362297Y-72033401D01*
X141382839Y-71965441D01*
X141435043Y-71920205D01*
X141469262Y-71904249D01*
X141469267Y-71904246D01*
X141474249Y-71901923D01*
X141596617Y-71816240D01*
X141657289Y-71773757D01*
X141657292Y-71773755D01*
X141661800Y-71770598D01*
X141823698Y-71608700D01*
X141843675Y-71580171D01*
X141903317Y-71494992D01*
X141955023Y-71421149D01*
X141957346Y-71416167D01*
X141957349Y-71416162D01*
X142049461Y-71218625D01*
X142049461Y-71218624D01*
X142051784Y-71213643D01*
X142064509Y-71166155D01*
X142109619Y-70997802D01*
X142109619Y-70997800D01*
X142111043Y-70992487D01*
X142130998Y-70764400D01*
X142111043Y-70536313D01*
X142051784Y-70315157D01*
X142049461Y-70310175D01*
X141957349Y-70112638D01*
X141957346Y-70112633D01*
X141955023Y-70107651D01*
X141823698Y-69920100D01*
X141661800Y-69758202D01*
X141657289Y-69755043D01*
X141653076Y-69751508D01*
X141654027Y-69750374D01*
X141614029Y-69700329D01*
X141606724Y-69629710D01*
X141638758Y-69566351D01*
X141699962Y-69530370D01*
X141717017Y-69527318D01*
X141727816Y-69526145D01*
X141864205Y-69475015D01*
X141980761Y-69387661D01*
X142068115Y-69271105D01*
X142119245Y-69134716D01*
X142126000Y-69072534D01*
X142126000Y-67376266D01*
X142119245Y-67314084D01*
X142068115Y-67177695D01*
X141980761Y-67061139D01*
X141864205Y-66973785D01*
X141727816Y-66922655D01*
X141665634Y-66915900D01*
X139969366Y-66915900D01*
X139907184Y-66922655D01*
X139770795Y-66973785D01*
X139654239Y-67061139D01*
X139566885Y-67177695D01*
X139515755Y-67314084D01*
X139509000Y-67376266D01*
X139509000Y-69072534D01*
X139515755Y-69134716D01*
X139566885Y-69271105D01*
X139654239Y-69387661D01*
X139770795Y-69475015D01*
X139907184Y-69526145D01*
X139917974Y-69527317D01*
X139920106Y-69528203D01*
X139922722Y-69528825D01*
X139922621Y-69529248D01*
X139983535Y-69554555D01*
X140023963Y-69612917D01*
X140026422Y-69683871D01*
X139990129Y-69744890D01*
X139981469Y-69751889D01*
X139977707Y-69755046D01*
X139973200Y-69758202D01*
X139811302Y-69920100D01*
X139679977Y-70107651D01*
X139677654Y-70112633D01*
X139677651Y-70112638D01*
X139585539Y-70310175D01*
X139583216Y-70315157D01*
X139523957Y-70536313D01*
X139504002Y-70764400D01*
X139523957Y-70992487D01*
X139525381Y-70997800D01*
X139525381Y-70997802D01*
X139570492Y-71166155D01*
X139583216Y-71213643D01*
X139585539Y-71218624D01*
X139585539Y-71218625D01*
X139677651Y-71416162D01*
X139677654Y-71416167D01*
X139679977Y-71421149D01*
X139731683Y-71494992D01*
X139791326Y-71580171D01*
X139811302Y-71608700D01*
X139973200Y-71770598D01*
X139977708Y-71773755D01*
X139977711Y-71773757D01*
X140038383Y-71816240D01*
X140160751Y-71901923D01*
X140165733Y-71904246D01*
X140165738Y-71904249D01*
X140199957Y-71920205D01*
X140253242Y-71967122D01*
X140272703Y-72035399D01*
X140252161Y-72103359D01*
X140199957Y-72148595D01*
X140165738Y-72164551D01*
X140165733Y-72164554D01*
X140160751Y-72166877D01*
X140130272Y-72188219D01*
X139977711Y-72295043D01*
X139977708Y-72295045D01*
X139973200Y-72298202D01*
X139811302Y-72460100D01*
X139679977Y-72647651D01*
X139677654Y-72652633D01*
X139677651Y-72652638D01*
X139585539Y-72850175D01*
X139583216Y-72855157D01*
X139523957Y-73076313D01*
X139504002Y-73304400D01*
X139523957Y-73532487D01*
X139525381Y-73537800D01*
X139525381Y-73537802D01*
X139555140Y-73648861D01*
X139583216Y-73753643D01*
X139585539Y-73758624D01*
X139585539Y-73758625D01*
X139677651Y-73956162D01*
X139677654Y-73956167D01*
X139679977Y-73961149D01*
X139811302Y-74148700D01*
X139973200Y-74310598D01*
X139977708Y-74313755D01*
X139977711Y-74313757D01*
X140055889Y-74368498D01*
X140160751Y-74441923D01*
X140165733Y-74444246D01*
X140165738Y-74444249D01*
X140199957Y-74460205D01*
X140253242Y-74507122D01*
X140272703Y-74575399D01*
X140252161Y-74643359D01*
X140199957Y-74688595D01*
X140165738Y-74704551D01*
X140165733Y-74704554D01*
X140160751Y-74706877D01*
X140075080Y-74766865D01*
X139977711Y-74835043D01*
X139977708Y-74835045D01*
X139973200Y-74838202D01*
X139811302Y-75000100D01*
X139808145Y-75004608D01*
X139808143Y-75004611D01*
X139769933Y-75059181D01*
X139679977Y-75187651D01*
X139677654Y-75192633D01*
X139677651Y-75192638D01*
X139586032Y-75389118D01*
X139583216Y-75395157D01*
X139523957Y-75616313D01*
X139504002Y-75844400D01*
X139523957Y-76072487D01*
X139525381Y-76077800D01*
X139525381Y-76077802D01*
X139555140Y-76188861D01*
X139583216Y-76293643D01*
X139585539Y-76298624D01*
X139585539Y-76298625D01*
X139677651Y-76496162D01*
X139677654Y-76496167D01*
X139679977Y-76501149D01*
X139811302Y-76688700D01*
X139973200Y-76850598D01*
X139977708Y-76853755D01*
X139977711Y-76853757D01*
X140040094Y-76897438D01*
X140160751Y-76981923D01*
X140165733Y-76984246D01*
X140165738Y-76984249D01*
X140199957Y-77000205D01*
X140253242Y-77047122D01*
X140272703Y-77115399D01*
X140252161Y-77183359D01*
X140199957Y-77228595D01*
X140165738Y-77244551D01*
X140165733Y-77244554D01*
X140160751Y-77246877D01*
X140130272Y-77268219D01*
X139977711Y-77375043D01*
X139977708Y-77375045D01*
X139973200Y-77378202D01*
X139811302Y-77540100D01*
X139679977Y-77727651D01*
X139677654Y-77732633D01*
X139677651Y-77732638D01*
X139585539Y-77930175D01*
X139583216Y-77935157D01*
X139523957Y-78156313D01*
X139504002Y-78384400D01*
X139523957Y-78612487D01*
X139525381Y-78617800D01*
X139525381Y-78617802D01*
X139573904Y-78798889D01*
X139583216Y-78833643D01*
X139585539Y-78838624D01*
X139585539Y-78838625D01*
X139677651Y-79036162D01*
X139677654Y-79036167D01*
X139679977Y-79041149D01*
X139811302Y-79228700D01*
X139973200Y-79390598D01*
X139977708Y-79393755D01*
X139977711Y-79393757D01*
X140040094Y-79437438D01*
X140160751Y-79521923D01*
X140165733Y-79524246D01*
X140165738Y-79524249D01*
X140199957Y-79540205D01*
X140253242Y-79587122D01*
X140272703Y-79655399D01*
X140252161Y-79723359D01*
X140199957Y-79768595D01*
X140165738Y-79784551D01*
X140165733Y-79784554D01*
X140160751Y-79786877D01*
X140130272Y-79808219D01*
X139977711Y-79915043D01*
X139977708Y-79915045D01*
X139973200Y-79918202D01*
X139811302Y-80080100D01*
X139679977Y-80267651D01*
X139677654Y-80272633D01*
X139677651Y-80272638D01*
X139593582Y-80452926D01*
X139583216Y-80475157D01*
X139523957Y-80696313D01*
X139504002Y-80924400D01*
X139523957Y-81152487D01*
X139583216Y-81373643D01*
X139585539Y-81378624D01*
X139585539Y-81378625D01*
X139677651Y-81576162D01*
X139677654Y-81576167D01*
X139679977Y-81581149D01*
X139811302Y-81768700D01*
X139973200Y-81930598D01*
X139977708Y-81933755D01*
X139977711Y-81933757D01*
X140039730Y-81977183D01*
X140160751Y-82061923D01*
X140165733Y-82064246D01*
X140165738Y-82064249D01*
X140199957Y-82080205D01*
X140253242Y-82127122D01*
X140272703Y-82195399D01*
X140252161Y-82263359D01*
X140199957Y-82308595D01*
X140165738Y-82324551D01*
X140165733Y-82324554D01*
X140160751Y-82326877D01*
X140130272Y-82348219D01*
X139977711Y-82455043D01*
X139977708Y-82455045D01*
X139973200Y-82458202D01*
X139811302Y-82620100D01*
X139679977Y-82807651D01*
X139677654Y-82812633D01*
X139677651Y-82812638D01*
X139585539Y-83010175D01*
X139583216Y-83015157D01*
X139581794Y-83020465D01*
X139581793Y-83020467D01*
X139525381Y-83230998D01*
X139523957Y-83236313D01*
X139504002Y-83464400D01*
X139523957Y-83692487D01*
X139525381Y-83697800D01*
X139525381Y-83697802D01*
X139578487Y-83895993D01*
X139583216Y-83913643D01*
X139585539Y-83918624D01*
X139585539Y-83918625D01*
X139677651Y-84116162D01*
X139677654Y-84116167D01*
X139679977Y-84121149D01*
X139727871Y-84189548D01*
X139797817Y-84289441D01*
X139811302Y-84308700D01*
X139973200Y-84470598D01*
X139977708Y-84473755D01*
X139977711Y-84473757D01*
X140001897Y-84490692D01*
X140160751Y-84601923D01*
X140165733Y-84604246D01*
X140165738Y-84604249D01*
X140199957Y-84620205D01*
X140253242Y-84667122D01*
X140272703Y-84735399D01*
X140252161Y-84803359D01*
X140199957Y-84848595D01*
X140165738Y-84864551D01*
X140165733Y-84864554D01*
X140160751Y-84866877D01*
X140130272Y-84888219D01*
X139977711Y-84995043D01*
X139977708Y-84995045D01*
X139973200Y-84998202D01*
X139811302Y-85160100D01*
X139679977Y-85347651D01*
X139677654Y-85352633D01*
X139677651Y-85352638D01*
X139585539Y-85550175D01*
X139583216Y-85555157D01*
X139581794Y-85560465D01*
X139581793Y-85560467D01*
X139531260Y-85749059D01*
X139523957Y-85776313D01*
X139504002Y-86004400D01*
X139504481Y-86009875D01*
X139504481Y-86009876D01*
X139518569Y-86170905D01*
X139504580Y-86240509D01*
X139455180Y-86291502D01*
X139386054Y-86307692D01*
X139319149Y-86283939D01*
X139303953Y-86270981D01*
X133615405Y-80582433D01*
X133581379Y-80520121D01*
X133578500Y-80493338D01*
X133578500Y-80309500D01*
X133598502Y-80241379D01*
X133652158Y-80194886D01*
X133704500Y-80183500D01*
X133861502Y-80183500D01*
X133863950Y-80183307D01*
X133863958Y-80183307D01*
X133892421Y-80181067D01*
X133892426Y-80181066D01*
X133898831Y-80180562D01*
X134029774Y-80142520D01*
X134050988Y-80136357D01*
X134050990Y-80136356D01*
X134058601Y-80134145D01*
X134113373Y-80101753D01*
X134194980Y-80053491D01*
X134194983Y-80053489D01*
X134201807Y-80049453D01*
X134319453Y-79931807D01*
X134323489Y-79924983D01*
X134323491Y-79924980D01*
X134400108Y-79795427D01*
X134404145Y-79788601D01*
X134406415Y-79780790D01*
X134442843Y-79655399D01*
X134450562Y-79628831D01*
X134453500Y-79591502D01*
X134453500Y-79158498D01*
X134450562Y-79121169D01*
X134419282Y-79013500D01*
X134406357Y-78969012D01*
X134406356Y-78969010D01*
X134404145Y-78961399D01*
X134319453Y-78818193D01*
X134316771Y-78815511D01*
X134291498Y-78751139D01*
X134305400Y-78681516D01*
X134315572Y-78665688D01*
X134319453Y-78661807D01*
X134404145Y-78518601D01*
X134450562Y-78358831D01*
X134453500Y-78321502D01*
X134453500Y-77888498D01*
X134450562Y-77851169D01*
X134414677Y-77727651D01*
X134406357Y-77699012D01*
X134406356Y-77699010D01*
X134404145Y-77691399D01*
X134319453Y-77548193D01*
X134316771Y-77545511D01*
X134291498Y-77481139D01*
X134305400Y-77411516D01*
X134315572Y-77395688D01*
X134319453Y-77391807D01*
X134404145Y-77248601D01*
X134407796Y-77236036D01*
X134442843Y-77115399D01*
X134450562Y-77088831D01*
X134453500Y-77051502D01*
X134453500Y-76618498D01*
X134453307Y-76616042D01*
X134451067Y-76587579D01*
X134451066Y-76587574D01*
X134450562Y-76581169D01*
X134404145Y-76421399D01*
X134319453Y-76278193D01*
X134316771Y-76275511D01*
X134291498Y-76211139D01*
X134305400Y-76141516D01*
X134315572Y-76125688D01*
X134319453Y-76121807D01*
X134404145Y-75978601D01*
X134450562Y-75818831D01*
X134453500Y-75781502D01*
X134453500Y-75348498D01*
X134450562Y-75311169D01*
X134414609Y-75187416D01*
X134406357Y-75159012D01*
X134406356Y-75159010D01*
X134404145Y-75151399D01*
X134319453Y-75008193D01*
X134316771Y-75005511D01*
X134291498Y-74941139D01*
X134305400Y-74871516D01*
X134315572Y-74855688D01*
X134319453Y-74851807D01*
X134404145Y-74708601D01*
X134407796Y-74696036D01*
X134442843Y-74575399D01*
X134450562Y-74548831D01*
X134453500Y-74511502D01*
X134453500Y-74078498D01*
X134450562Y-74041169D01*
X134404145Y-73881399D01*
X134319453Y-73738193D01*
X134316771Y-73735511D01*
X134291498Y-73671139D01*
X134305400Y-73601516D01*
X134315572Y-73585688D01*
X134319453Y-73581807D01*
X134404145Y-73438601D01*
X134412540Y-73409707D01*
X134441543Y-73309875D01*
X134450562Y-73278831D01*
X134453500Y-73241502D01*
X134453500Y-72808498D01*
X134453307Y-72806042D01*
X134451067Y-72777579D01*
X134451066Y-72777574D01*
X134450562Y-72771169D01*
X134413725Y-72644373D01*
X134406357Y-72619012D01*
X134406356Y-72619010D01*
X134404145Y-72611399D01*
X134319453Y-72468193D01*
X134316771Y-72465511D01*
X134291498Y-72401139D01*
X134305400Y-72331516D01*
X134315572Y-72315688D01*
X134319453Y-72311807D01*
X134404145Y-72168601D01*
X134407796Y-72156036D01*
X134442843Y-72035399D01*
X134450562Y-72008831D01*
X134453500Y-71971502D01*
X134453500Y-71538498D01*
X134453022Y-71532425D01*
X134451067Y-71507579D01*
X134451066Y-71507574D01*
X134450562Y-71501169D01*
X134404145Y-71341399D01*
X134319453Y-71198193D01*
X134316771Y-71195511D01*
X134291498Y-71131139D01*
X134305400Y-71061516D01*
X134315572Y-71045688D01*
X134319453Y-71041807D01*
X134404145Y-70898601D01*
X134407763Y-70886150D01*
X134427553Y-70818029D01*
X134450562Y-70738831D01*
X134453500Y-70701502D01*
X134453500Y-70268498D01*
X134450562Y-70231169D01*
X134414677Y-70107651D01*
X134406357Y-70079012D01*
X134406356Y-70079010D01*
X134404145Y-70071399D01*
X134319453Y-69928193D01*
X134316771Y-69925511D01*
X134291498Y-69861139D01*
X134305400Y-69791516D01*
X134315572Y-69775688D01*
X134319453Y-69771807D01*
X134404145Y-69628601D01*
X134407796Y-69616036D01*
X134429794Y-69540316D01*
X134450562Y-69468831D01*
X134451075Y-69462320D01*
X134453307Y-69433958D01*
X134453307Y-69433950D01*
X134453500Y-69431502D01*
X134453500Y-68998498D01*
X134450562Y-68961169D01*
X134409815Y-68820915D01*
X134406357Y-68809012D01*
X134406356Y-68809010D01*
X134404145Y-68801399D01*
X134319453Y-68658193D01*
X134316771Y-68655511D01*
X134291498Y-68591139D01*
X134305400Y-68521516D01*
X134315572Y-68505688D01*
X134319453Y-68501807D01*
X134404145Y-68358601D01*
X134413983Y-68324740D01*
X134441543Y-68229875D01*
X134450562Y-68198831D01*
X134453307Y-68163963D01*
X134453307Y-68163950D01*
X134453500Y-68161502D01*
X134453500Y-67728498D01*
X134450562Y-67691169D01*
X134414677Y-67567651D01*
X134406357Y-67539012D01*
X134406356Y-67539010D01*
X134404145Y-67531399D01*
X134319453Y-67388193D01*
X134316771Y-67385511D01*
X134291498Y-67321139D01*
X134305400Y-67251516D01*
X134315572Y-67235688D01*
X134319453Y-67231807D01*
X134404145Y-67088601D01*
X134410038Y-67068319D01*
X134432757Y-66990116D01*
X134450562Y-66928831D01*
X134451116Y-66921802D01*
X134453307Y-66893958D01*
X134453307Y-66893950D01*
X134453500Y-66891502D01*
X134453500Y-66458498D01*
X134450562Y-66421169D01*
X134416360Y-66303444D01*
X134406357Y-66269012D01*
X134406356Y-66269010D01*
X134404145Y-66261399D01*
X134319453Y-66118193D01*
X134316771Y-66115511D01*
X134291498Y-66051139D01*
X134305400Y-65981516D01*
X134315572Y-65965688D01*
X134319453Y-65961807D01*
X134404145Y-65818601D01*
X134406813Y-65809420D01*
X134423885Y-65750654D01*
X134450562Y-65658831D01*
X134453307Y-65623963D01*
X134453307Y-65623950D01*
X134453500Y-65621502D01*
X134453500Y-65188498D01*
X134453307Y-65186042D01*
X134451067Y-65157579D01*
X134451066Y-65157574D01*
X134450562Y-65151169D01*
X134404145Y-64991399D01*
X134386649Y-64961815D01*
X134323491Y-64855020D01*
X134323489Y-64855017D01*
X134319453Y-64848193D01*
X134201807Y-64730547D01*
X134194983Y-64726511D01*
X134194980Y-64726509D01*
X134065427Y-64649892D01*
X134065428Y-64649892D01*
X134058601Y-64645855D01*
X134050990Y-64643644D01*
X134050988Y-64643643D01*
X133998769Y-64628472D01*
X133898831Y-64599438D01*
X133892426Y-64598934D01*
X133892421Y-64598933D01*
X133863958Y-64596693D01*
X133863950Y-64596693D01*
X133861502Y-64596500D01*
X133701804Y-64596500D01*
X133633683Y-64576498D01*
X133587190Y-64522842D01*
X133577278Y-64480487D01*
X133577051Y-64480523D01*
X133576557Y-64477406D01*
X133575866Y-64474452D01*
X133575811Y-64472693D01*
X133575562Y-64464769D01*
X133569580Y-64444179D01*
X133565570Y-64424816D01*
X133563875Y-64411396D01*
X133563875Y-64411395D01*
X133562882Y-64403536D01*
X133559966Y-64396171D01*
X133559965Y-64396167D01*
X133545874Y-64360579D01*
X133542035Y-64349369D01*
X133529145Y-64305000D01*
X133518229Y-64286543D01*
X133509534Y-64268793D01*
X133501635Y-64248844D01*
X133496976Y-64242431D01*
X133474477Y-64211464D01*
X133467960Y-64201543D01*
X133444452Y-64161793D01*
X133429291Y-64146632D01*
X133416449Y-64131597D01*
X133403841Y-64114243D01*
X133397737Y-64109193D01*
X133397735Y-64109191D01*
X133368237Y-64084788D01*
X133359459Y-64076799D01*
X131735055Y-62452396D01*
X131727065Y-62443616D01*
X131722816Y-62436920D01*
X131671140Y-62388394D01*
X131668330Y-62385671D01*
X131647733Y-62365073D01*
X131644226Y-62362353D01*
X131635204Y-62354647D01*
X131607313Y-62328456D01*
X131601533Y-62323028D01*
X131594581Y-62319206D01*
X131582742Y-62312697D01*
X131566218Y-62301843D01*
X131555532Y-62293555D01*
X131549268Y-62288696D01*
X131541996Y-62285549D01*
X131541994Y-62285548D01*
X131506865Y-62270346D01*
X131496205Y-62265124D01*
X131462684Y-62246695D01*
X131462682Y-62246694D01*
X131455737Y-62242876D01*
X131434959Y-62237541D01*
X131416269Y-62231142D01*
X131396576Y-62222620D01*
X131350952Y-62215394D01*
X131339329Y-62212987D01*
X131311328Y-62205798D01*
X131294588Y-62201500D01*
X131273141Y-62201500D01*
X131253431Y-62199949D01*
X131240077Y-62197834D01*
X131232248Y-62196594D01*
X131186259Y-62200941D01*
X131174404Y-62201500D01*
X127473228Y-62201500D01*
X127405107Y-62181498D01*
X127371305Y-62147112D01*
X127370675Y-62147612D01*
X127366132Y-62141880D01*
X127362278Y-62135652D01*
X127345913Y-62119315D01*
X127242286Y-62015869D01*
X127242285Y-62015868D01*
X127237103Y-62010695D01*
X127232565Y-62007898D01*
X127191976Y-61950647D01*
X127188746Y-61879724D01*
X127224372Y-61818313D01*
X127232868Y-61810938D01*
X127243007Y-61802902D01*
X127357539Y-61688171D01*
X127366551Y-61676760D01*
X127451616Y-61538757D01*
X127457763Y-61525576D01*
X127508938Y-61371290D01*
X127511805Y-61357914D01*
X127521472Y-61263562D01*
X127521800Y-61257146D01*
X127521800Y-61232115D01*
X127517325Y-61216876D01*
X127515935Y-61215671D01*
X127508252Y-61214000D01*
X126160800Y-61214000D01*
X126092679Y-61193998D01*
X126046186Y-61140342D01*
X126034800Y-61088000D01*
X126034800Y-60687885D01*
X126542800Y-60687885D01*
X126547275Y-60703124D01*
X126548665Y-60704329D01*
X126556348Y-60706000D01*
X127503684Y-60706000D01*
X127518923Y-60701525D01*
X127520128Y-60700135D01*
X127521799Y-60692452D01*
X127521799Y-60662905D01*
X127521462Y-60656386D01*
X127511543Y-60560794D01*
X127508651Y-60547400D01*
X127457212Y-60393216D01*
X127451039Y-60380038D01*
X127365737Y-60242193D01*
X127356701Y-60230792D01*
X127241971Y-60116261D01*
X127230560Y-60107249D01*
X127092557Y-60022184D01*
X127079376Y-60016037D01*
X126925090Y-59964862D01*
X126911714Y-59961995D01*
X126817362Y-59952328D01*
X126810945Y-59952000D01*
X126560915Y-59952000D01*
X126545676Y-59956475D01*
X126544471Y-59957865D01*
X126542800Y-59965548D01*
X126542800Y-60687885D01*
X126034800Y-60687885D01*
X126034800Y-59970116D01*
X126030325Y-59954877D01*
X126028935Y-59953672D01*
X126021252Y-59952001D01*
X125766705Y-59952001D01*
X125760186Y-59952338D01*
X125664594Y-59962257D01*
X125651200Y-59965149D01*
X125497016Y-60016588D01*
X125483838Y-60022761D01*
X125345993Y-60108063D01*
X125334592Y-60117099D01*
X125220061Y-60231829D01*
X125211049Y-60243240D01*
X125125984Y-60381243D01*
X125119837Y-60394424D01*
X125087613Y-60491575D01*
X125047182Y-60549935D01*
X124981618Y-60577171D01*
X124911736Y-60564637D01*
X124859724Y-60516312D01*
X124848496Y-60491783D01*
X124815612Y-60393216D01*
X124809439Y-60380038D01*
X124724137Y-60242193D01*
X124715101Y-60230792D01*
X124600371Y-60116261D01*
X124588960Y-60107249D01*
X124450957Y-60022184D01*
X124437776Y-60016037D01*
X124283490Y-59964862D01*
X124270114Y-59961995D01*
X124175762Y-59952328D01*
X124169345Y-59952000D01*
X123919315Y-59952000D01*
X123904076Y-59956475D01*
X123902871Y-59957865D01*
X123901200Y-59965548D01*
X123901200Y-61088000D01*
X123881198Y-61156121D01*
X123827542Y-61202614D01*
X123775200Y-61214000D01*
X122432316Y-61214000D01*
X122417077Y-61218475D01*
X122415872Y-61219865D01*
X122414201Y-61227548D01*
X122414201Y-61257095D01*
X122414538Y-61263614D01*
X122424457Y-61359206D01*
X122427349Y-61372600D01*
X122478788Y-61526784D01*
X122484961Y-61539962D01*
X122570263Y-61677807D01*
X122579299Y-61689208D01*
X122694028Y-61803738D01*
X122702962Y-61810794D01*
X122744023Y-61868712D01*
X122747253Y-61939635D01*
X122711626Y-62001046D01*
X122703793Y-62007846D01*
X122697852Y-62011522D01*
X122644794Y-62064673D01*
X122641153Y-62068320D01*
X122578871Y-62102399D01*
X122566588Y-62104452D01*
X122563640Y-62104795D01*
X122559332Y-62105221D01*
X122486564Y-62111140D01*
X122479603Y-62113395D01*
X122473663Y-62114582D01*
X122467788Y-62115971D01*
X122460519Y-62116818D01*
X122391870Y-62141736D01*
X122387742Y-62143153D01*
X122325264Y-62163393D01*
X122325262Y-62163394D01*
X122318301Y-62165649D01*
X122312046Y-62169445D01*
X122306572Y-62171951D01*
X122301142Y-62174670D01*
X122294263Y-62177167D01*
X122288143Y-62181180D01*
X122288142Y-62181180D01*
X122233224Y-62217186D01*
X122229520Y-62219523D01*
X122167093Y-62257405D01*
X122158716Y-62264803D01*
X122158692Y-62264776D01*
X122155700Y-62267429D01*
X122152467Y-62270132D01*
X122146348Y-62274144D01*
X122094897Y-62328456D01*
X122093072Y-62330383D01*
X122090694Y-62332825D01*
X120652124Y-63771395D01*
X120589812Y-63805421D01*
X120563029Y-63808300D01*
X118989870Y-63808300D01*
X118970920Y-63806867D01*
X118956685Y-63804701D01*
X118956681Y-63804701D01*
X118949451Y-63803601D01*
X118942159Y-63804194D01*
X118942156Y-63804194D01*
X118896782Y-63807885D01*
X118886567Y-63808300D01*
X118878507Y-63808300D01*
X118874873Y-63808724D01*
X118874867Y-63808724D01*
X118861842Y-63810243D01*
X118850280Y-63811591D01*
X118845932Y-63812021D01*
X118773164Y-63817940D01*
X118766203Y-63820195D01*
X118760263Y-63821382D01*
X118754388Y-63822771D01*
X118747119Y-63823618D01*
X118678470Y-63848536D01*
X118674342Y-63849953D01*
X118611864Y-63870193D01*
X118611862Y-63870194D01*
X118604901Y-63872449D01*
X118598646Y-63876245D01*
X118593172Y-63878751D01*
X118587742Y-63881470D01*
X118580863Y-63883967D01*
X118574743Y-63887980D01*
X118574742Y-63887980D01*
X118519824Y-63923986D01*
X118516120Y-63926323D01*
X118453693Y-63964205D01*
X118445316Y-63971603D01*
X118445292Y-63971576D01*
X118442300Y-63974229D01*
X118439067Y-63976932D01*
X118432948Y-63980944D01*
X118427916Y-63986256D01*
X118379672Y-64037183D01*
X118377294Y-64039625D01*
X115232324Y-67184595D01*
X115170012Y-67218621D01*
X115143229Y-67221500D01*
X113401866Y-67221500D01*
X113339684Y-67228255D01*
X113203295Y-67279385D01*
X113086739Y-67366739D01*
X112999385Y-67483295D01*
X112948255Y-67619684D01*
X112941500Y-67681866D01*
X112941500Y-68955051D01*
X112921498Y-69023172D01*
X112904595Y-69044146D01*
X111213094Y-70735646D01*
X111150782Y-70769672D01*
X111079966Y-70764607D01*
X111023131Y-70722060D01*
X110998320Y-70655540D01*
X110997999Y-70646551D01*
X110997999Y-63538330D01*
X111018001Y-63470209D01*
X111071657Y-63423716D01*
X111141931Y-63413612D01*
X111206511Y-63443106D01*
X111241232Y-63492151D01*
X111287373Y-63609287D01*
X111305478Y-63643772D01*
X111438311Y-63896781D01*
X111453956Y-63926581D01*
X111455857Y-63929410D01*
X111455863Y-63929420D01*
X111612013Y-64161793D01*
X111653833Y-64224028D01*
X111884664Y-64498149D01*
X112143750Y-64745737D01*
X112428060Y-64963896D01*
X112485816Y-64999012D01*
X112731354Y-65148302D01*
X112731356Y-65148303D01*
X112734269Y-65150074D01*
X112762218Y-65163166D01*
X113055709Y-65300648D01*
X113055719Y-65300652D01*
X113058793Y-65302092D01*
X113062011Y-65303194D01*
X113062014Y-65303195D01*
X113394614Y-65417070D01*
X113394618Y-65417071D01*
X113397837Y-65418173D01*
X113747434Y-65496958D01*
X113796655Y-65502566D01*
X114100113Y-65537141D01*
X114100121Y-65537141D01*
X114103496Y-65537526D01*
X114106900Y-65537544D01*
X114106903Y-65537544D01*
X114301226Y-65538561D01*
X114461856Y-65539402D01*
X114465242Y-65539052D01*
X114465244Y-65539052D01*
X114814931Y-65502916D01*
X114814940Y-65502915D01*
X114818323Y-65502565D01*
X114821656Y-65501851D01*
X114821659Y-65501850D01*
X114994185Y-65464863D01*
X115168726Y-65427445D01*
X115508967Y-65314921D01*
X115835065Y-65166310D01*
X116116827Y-64999012D01*
X116140261Y-64985098D01*
X116140266Y-64985095D01*
X116143206Y-64983349D01*
X116145939Y-64981297D01*
X116145942Y-64981295D01*
X116314124Y-64855020D01*
X116429785Y-64768179D01*
X116691450Y-64523318D01*
X116925139Y-64251629D01*
X117070845Y-64039625D01*
X117126189Y-63959100D01*
X117126194Y-63959093D01*
X117128119Y-63956291D01*
X117129735Y-63953290D01*
X117129736Y-63953289D01*
X117290172Y-63655327D01*
X117298016Y-63640759D01*
X117432841Y-63308723D01*
X117531019Y-62964069D01*
X117591400Y-62610827D01*
X117593510Y-62576340D01*
X117612788Y-62261122D01*
X117613277Y-62253130D01*
X117613358Y-62229999D01*
X117593978Y-61872158D01*
X117536065Y-61518504D01*
X117440296Y-61173172D01*
X117427232Y-61140342D01*
X117309051Y-60843368D01*
X117307792Y-60840204D01*
X117227143Y-60687885D01*
X122414200Y-60687885D01*
X122418675Y-60703124D01*
X122420065Y-60704329D01*
X122427748Y-60706000D01*
X123375085Y-60706000D01*
X123390324Y-60701525D01*
X123391529Y-60700135D01*
X123393200Y-60692452D01*
X123393200Y-59970116D01*
X123388725Y-59954877D01*
X123387335Y-59953672D01*
X123379652Y-59952001D01*
X123125105Y-59952001D01*
X123118586Y-59952338D01*
X123022994Y-59962257D01*
X123009600Y-59965149D01*
X122855416Y-60016588D01*
X122842238Y-60022761D01*
X122704393Y-60108063D01*
X122692992Y-60117099D01*
X122578461Y-60231829D01*
X122569449Y-60243240D01*
X122484384Y-60381243D01*
X122478237Y-60394424D01*
X122427062Y-60548710D01*
X122424195Y-60562086D01*
X122414528Y-60656438D01*
X122414200Y-60662855D01*
X122414200Y-60687885D01*
X117227143Y-60687885D01*
X117213917Y-60662905D01*
X117141701Y-60526512D01*
X117141697Y-60526505D01*
X117140102Y-60523493D01*
X116939189Y-60226745D01*
X116707402Y-59953431D01*
X116447453Y-59706749D01*
X116162383Y-59489584D01*
X116159471Y-59487827D01*
X116159466Y-59487824D01*
X115858442Y-59306235D01*
X115858436Y-59306232D01*
X115855527Y-59304477D01*
X115562126Y-59168284D01*
X115508763Y-59121462D01*
X115489182Y-59053219D01*
X115509606Y-58985224D01*
X115563548Y-58939064D01*
X115615180Y-58927999D01*
X136499417Y-58927999D01*
X157435974Y-58928000D01*
G37*
G04 #@! TD.AperFunction*
G04 #@! TA.AperFunction,Conductor*
G36*
X129587971Y-86073302D02*
G01*
X129608945Y-86090205D01*
X131514883Y-87996143D01*
X131548909Y-88058455D01*
X131543844Y-88129270D01*
X131501297Y-88186106D01*
X131434777Y-88210917D01*
X131412946Y-88210582D01*
X131316763Y-88200728D01*
X131310345Y-88200400D01*
X131285315Y-88200400D01*
X131270076Y-88204875D01*
X131268871Y-88206265D01*
X131267200Y-88213948D01*
X131267200Y-90648284D01*
X131271675Y-90663523D01*
X131273065Y-90664728D01*
X131280748Y-90666399D01*
X131310295Y-90666399D01*
X131316814Y-90666062D01*
X131412406Y-90656143D01*
X131425800Y-90653251D01*
X131579984Y-90601812D01*
X131593162Y-90595639D01*
X131731007Y-90510337D01*
X131742408Y-90501301D01*
X131856938Y-90386572D01*
X131863994Y-90377638D01*
X131921912Y-90336577D01*
X131992835Y-90333347D01*
X132054246Y-90368974D01*
X132061046Y-90376807D01*
X132064722Y-90382748D01*
X132189897Y-90507705D01*
X132196128Y-90511546D01*
X132201873Y-90516083D01*
X132200823Y-90517413D01*
X132242308Y-90563507D01*
X132254700Y-90617997D01*
X132254700Y-91140500D01*
X132234698Y-91208621D01*
X132181042Y-91255114D01*
X132128700Y-91266500D01*
X131978498Y-91266500D01*
X131976050Y-91266693D01*
X131976042Y-91266693D01*
X131947579Y-91268933D01*
X131947574Y-91268934D01*
X131941169Y-91269438D01*
X131845263Y-91297301D01*
X131789012Y-91313643D01*
X131789010Y-91313644D01*
X131781399Y-91315855D01*
X131774572Y-91319892D01*
X131774573Y-91319892D01*
X131645020Y-91396509D01*
X131645017Y-91396511D01*
X131638193Y-91400547D01*
X131520547Y-91518193D01*
X131516511Y-91525017D01*
X131516509Y-91525020D01*
X131469163Y-91605079D01*
X131435855Y-91661399D01*
X131389438Y-91821169D01*
X131388934Y-91827574D01*
X131388933Y-91827579D01*
X131386693Y-91856042D01*
X131386500Y-91858498D01*
X131386500Y-92291502D01*
X131389438Y-92328831D01*
X131435855Y-92488601D01*
X131520547Y-92631807D01*
X131523229Y-92634489D01*
X131548502Y-92698861D01*
X131534600Y-92768484D01*
X131524428Y-92784312D01*
X131520547Y-92788193D01*
X131435855Y-92931399D01*
X131389438Y-93091169D01*
X131386500Y-93128498D01*
X131386500Y-93561502D01*
X131386693Y-93563950D01*
X131386693Y-93563958D01*
X131386902Y-93566606D01*
X131389438Y-93598831D01*
X131410618Y-93671735D01*
X131432351Y-93746539D01*
X131435855Y-93758601D01*
X131520547Y-93901807D01*
X131523229Y-93904489D01*
X131548502Y-93968861D01*
X131534600Y-94038484D01*
X131524428Y-94054312D01*
X131520547Y-94058193D01*
X131435855Y-94201399D01*
X131433644Y-94209010D01*
X131433643Y-94209012D01*
X131430538Y-94219699D01*
X131389438Y-94361169D01*
X131386500Y-94398498D01*
X131386500Y-94831502D01*
X131386693Y-94833950D01*
X131386693Y-94833958D01*
X131386694Y-94833963D01*
X131389438Y-94868831D01*
X131391232Y-94875007D01*
X131391233Y-94875011D01*
X131428557Y-95003483D01*
X131428354Y-95074479D01*
X131389800Y-95134095D01*
X131323353Y-95163641D01*
X131313201Y-95164924D01*
X131313197Y-95164925D01*
X131305336Y-95165918D01*
X131297971Y-95168834D01*
X131297967Y-95168835D01*
X131262382Y-95182924D01*
X131251152Y-95186769D01*
X131206799Y-95199655D01*
X131199975Y-95203691D01*
X131188343Y-95210570D01*
X131170587Y-95219269D01*
X131150644Y-95227165D01*
X131129259Y-95242702D01*
X131113268Y-95254320D01*
X131103349Y-95260835D01*
X131070423Y-95280308D01*
X131070419Y-95280311D01*
X131063593Y-95284348D01*
X131048432Y-95299509D01*
X131033400Y-95312348D01*
X131016043Y-95324959D01*
X131010990Y-95331067D01*
X130986594Y-95360557D01*
X130978604Y-95369337D01*
X129589596Y-96758345D01*
X129580813Y-96766337D01*
X129574120Y-96770584D01*
X129568694Y-96776362D01*
X129525595Y-96822258D01*
X129522840Y-96825100D01*
X129502273Y-96845667D01*
X129499556Y-96849170D01*
X129491848Y-96858195D01*
X129460228Y-96891867D01*
X129456407Y-96898818D01*
X129456406Y-96898819D01*
X129449897Y-96910658D01*
X129439043Y-96927182D01*
X129431218Y-96937271D01*
X129425896Y-96944132D01*
X129422749Y-96951404D01*
X129422748Y-96951406D01*
X129407546Y-96986535D01*
X129402324Y-96997195D01*
X129395233Y-97010094D01*
X129380076Y-97037663D01*
X129374741Y-97058441D01*
X129368342Y-97077131D01*
X129359820Y-97096824D01*
X129358580Y-97104655D01*
X129352594Y-97142448D01*
X129350187Y-97154071D01*
X129338700Y-97198812D01*
X129338700Y-97220259D01*
X129337149Y-97239969D01*
X129333794Y-97261152D01*
X129334540Y-97269043D01*
X129338141Y-97307138D01*
X129338700Y-97318996D01*
X129338700Y-107021241D01*
X129318698Y-107089362D01*
X129306336Y-107105551D01*
X129258160Y-107159056D01*
X129162673Y-107324444D01*
X129103658Y-107506072D01*
X129083696Y-107696000D01*
X129084386Y-107702565D01*
X129101808Y-107868323D01*
X129103658Y-107885928D01*
X129162673Y-108067556D01*
X129165976Y-108073278D01*
X129165977Y-108073279D01*
X129192719Y-108119597D01*
X129258160Y-108232944D01*
X129262578Y-108237851D01*
X129262579Y-108237852D01*
X129362772Y-108349128D01*
X129385947Y-108374866D01*
X129540448Y-108487118D01*
X129546476Y-108489802D01*
X129546478Y-108489803D01*
X129686259Y-108552037D01*
X129714912Y-108564794D01*
X129808313Y-108584647D01*
X129895256Y-108603128D01*
X129895261Y-108603128D01*
X129901713Y-108604500D01*
X130092687Y-108604500D01*
X130099139Y-108603128D01*
X130099144Y-108603128D01*
X130186088Y-108584647D01*
X130279488Y-108564794D01*
X130308141Y-108552037D01*
X130447922Y-108489803D01*
X130447924Y-108489802D01*
X130453952Y-108487118D01*
X130608453Y-108374866D01*
X130631628Y-108349128D01*
X130731821Y-108237852D01*
X130731822Y-108237851D01*
X130736240Y-108232944D01*
X130801681Y-108119597D01*
X130828423Y-108073279D01*
X130828424Y-108073278D01*
X130831727Y-108067556D01*
X130890742Y-107885928D01*
X130892593Y-107868323D01*
X130910014Y-107702565D01*
X130910704Y-107696000D01*
X130890742Y-107506072D01*
X130831727Y-107324444D01*
X130736240Y-107159056D01*
X130688064Y-107105551D01*
X130657346Y-107041544D01*
X130655700Y-107021241D01*
X130655700Y-97606950D01*
X130675702Y-97538829D01*
X130692605Y-97517855D01*
X131171405Y-97039055D01*
X131233717Y-97005029D01*
X131304532Y-97010094D01*
X131361368Y-97052641D01*
X131386179Y-97119161D01*
X131386500Y-97128150D01*
X131386500Y-97371502D01*
X131389438Y-97408831D01*
X131412545Y-97488368D01*
X131427206Y-97538829D01*
X131435855Y-97568601D01*
X131520547Y-97711807D01*
X131523229Y-97714489D01*
X131548502Y-97778861D01*
X131534600Y-97848484D01*
X131524428Y-97864312D01*
X131520547Y-97868193D01*
X131435855Y-98011399D01*
X131433644Y-98019010D01*
X131433643Y-98019012D01*
X131426306Y-98044268D01*
X131389438Y-98171169D01*
X131386500Y-98208498D01*
X131386500Y-98641502D01*
X131386693Y-98643950D01*
X131386693Y-98643958D01*
X131387469Y-98653808D01*
X131389438Y-98678831D01*
X131435855Y-98838601D01*
X131520547Y-98981807D01*
X131523229Y-98984489D01*
X131548502Y-99048861D01*
X131534600Y-99118484D01*
X131524428Y-99134312D01*
X131520547Y-99138193D01*
X131435855Y-99281399D01*
X131389438Y-99441169D01*
X131386500Y-99478498D01*
X131386500Y-99911502D01*
X131389438Y-99948831D01*
X131435855Y-100108601D01*
X131520547Y-100251807D01*
X131523229Y-100254489D01*
X131548502Y-100318861D01*
X131534600Y-100388484D01*
X131524428Y-100404312D01*
X131520547Y-100408193D01*
X131435855Y-100551399D01*
X131389438Y-100711169D01*
X131388934Y-100717574D01*
X131388933Y-100717579D01*
X131386693Y-100746042D01*
X131386500Y-100748498D01*
X131386500Y-101181502D01*
X131389438Y-101218831D01*
X131435855Y-101378601D01*
X131520547Y-101521807D01*
X131523229Y-101524489D01*
X131548502Y-101588861D01*
X131534600Y-101658484D01*
X131524428Y-101674312D01*
X131520547Y-101678193D01*
X131435855Y-101821399D01*
X131389438Y-101981169D01*
X131388934Y-101987574D01*
X131388933Y-101987579D01*
X131387404Y-102007013D01*
X131386500Y-102018498D01*
X131386500Y-102451502D01*
X131389438Y-102488831D01*
X131435855Y-102648601D01*
X131520547Y-102791807D01*
X131523229Y-102794489D01*
X131548502Y-102858861D01*
X131534600Y-102928484D01*
X131524428Y-102944312D01*
X131520547Y-102948193D01*
X131435855Y-103091399D01*
X131389438Y-103251169D01*
X131386500Y-103288498D01*
X131386500Y-103721502D01*
X131389438Y-103758831D01*
X131435855Y-103918601D01*
X131520547Y-104061807D01*
X131523229Y-104064489D01*
X131548502Y-104128861D01*
X131534600Y-104198484D01*
X131524428Y-104214312D01*
X131520547Y-104218193D01*
X131435855Y-104361399D01*
X131389438Y-104521169D01*
X131386500Y-104558498D01*
X131386500Y-104991502D01*
X131386693Y-104993950D01*
X131386693Y-104993958D01*
X131388436Y-105016098D01*
X131389438Y-105028831D01*
X131435855Y-105188601D01*
X131520547Y-105331807D01*
X131523229Y-105334489D01*
X131548502Y-105398861D01*
X131534600Y-105468484D01*
X131524428Y-105484312D01*
X131520547Y-105488193D01*
X131435855Y-105631399D01*
X131433644Y-105639010D01*
X131433643Y-105639012D01*
X131420718Y-105683500D01*
X131389438Y-105791169D01*
X131386500Y-105828498D01*
X131386500Y-106261502D01*
X131389438Y-106298831D01*
X131394541Y-106316395D01*
X131433586Y-106450790D01*
X131435855Y-106458601D01*
X131439892Y-106465427D01*
X131516509Y-106594980D01*
X131516511Y-106594983D01*
X131520547Y-106601807D01*
X131638193Y-106719453D01*
X131645017Y-106723489D01*
X131645020Y-106723491D01*
X131733702Y-106775937D01*
X131781399Y-106804145D01*
X131789010Y-106806356D01*
X131789012Y-106806357D01*
X131841231Y-106821528D01*
X131941169Y-106850562D01*
X131947574Y-106851066D01*
X131947579Y-106851067D01*
X131976042Y-106853307D01*
X131976050Y-106853307D01*
X131978498Y-106853500D01*
X133861502Y-106853500D01*
X133863950Y-106853307D01*
X133863958Y-106853307D01*
X133892421Y-106851067D01*
X133892426Y-106851066D01*
X133898831Y-106850562D01*
X133993463Y-106823069D01*
X134064460Y-106823272D01*
X134117711Y-106854971D01*
X134686595Y-107423855D01*
X134720621Y-107486167D01*
X134723500Y-107512950D01*
X134723500Y-110622225D01*
X134722941Y-110634081D01*
X134721212Y-110641818D01*
X134721461Y-110649740D01*
X134723438Y-110712650D01*
X134723500Y-110716608D01*
X134723500Y-110745713D01*
X134724056Y-110750113D01*
X134724988Y-110761945D01*
X134726438Y-110808112D01*
X134728650Y-110815725D01*
X134728650Y-110815726D01*
X134732419Y-110828697D01*
X134736430Y-110848063D01*
X134739118Y-110869345D01*
X134742034Y-110876710D01*
X134742035Y-110876714D01*
X134756126Y-110912302D01*
X134759965Y-110923512D01*
X134772855Y-110967881D01*
X134783775Y-110986346D01*
X134792466Y-111004086D01*
X134800365Y-111024037D01*
X134827516Y-111061407D01*
X134834033Y-111071329D01*
X134853507Y-111104258D01*
X134853510Y-111104262D01*
X134857547Y-111111088D01*
X134872711Y-111126252D01*
X134885551Y-111141285D01*
X134898159Y-111158638D01*
X134926180Y-111181819D01*
X134933752Y-111188083D01*
X134942532Y-111196073D01*
X137187864Y-113441405D01*
X137221890Y-113503717D01*
X137216825Y-113574532D01*
X137174278Y-113631368D01*
X137107758Y-113656179D01*
X137098769Y-113656500D01*
X129530632Y-113656500D01*
X129462511Y-113636498D01*
X129424840Y-113598940D01*
X129352822Y-113487617D01*
X129352820Y-113487614D01*
X129350014Y-113483277D01*
X129340632Y-113472966D01*
X129202798Y-113321488D01*
X129171746Y-113257642D01*
X129180141Y-113187143D01*
X129225317Y-113132375D01*
X129251761Y-113118706D01*
X129358297Y-113078767D01*
X129366705Y-113075615D01*
X129483261Y-112988261D01*
X129570615Y-112871705D01*
X129621745Y-112735316D01*
X129628500Y-112673134D01*
X129628500Y-110876866D01*
X129621745Y-110814684D01*
X129570615Y-110678295D01*
X129483261Y-110561739D01*
X129366705Y-110474385D01*
X129230316Y-110423255D01*
X129168134Y-110416500D01*
X128051371Y-110416500D01*
X127983250Y-110396498D01*
X127962276Y-110379595D01*
X127084205Y-109501524D01*
X127050179Y-109439212D01*
X127047300Y-109412429D01*
X127047300Y-89955495D01*
X130005201Y-89955495D01*
X130005538Y-89962014D01*
X130015457Y-90057606D01*
X130018349Y-90071000D01*
X130069788Y-90225184D01*
X130075961Y-90238362D01*
X130161263Y-90376207D01*
X130170299Y-90387608D01*
X130285029Y-90502139D01*
X130296440Y-90511151D01*
X130434443Y-90596216D01*
X130447624Y-90602363D01*
X130601910Y-90653538D01*
X130615286Y-90656405D01*
X130709638Y-90666072D01*
X130716054Y-90666400D01*
X130741085Y-90666400D01*
X130756324Y-90661925D01*
X130757529Y-90660535D01*
X130759200Y-90652852D01*
X130759200Y-89705515D01*
X130754725Y-89690276D01*
X130753335Y-89689071D01*
X130745652Y-89687400D01*
X130023316Y-89687400D01*
X130008077Y-89691875D01*
X130006872Y-89693265D01*
X130005201Y-89700948D01*
X130005201Y-89955495D01*
X127047300Y-89955495D01*
X127047300Y-89161285D01*
X130005200Y-89161285D01*
X130009675Y-89176524D01*
X130011065Y-89177729D01*
X130018748Y-89179400D01*
X130741085Y-89179400D01*
X130756324Y-89174925D01*
X130757529Y-89173535D01*
X130759200Y-89165852D01*
X130759200Y-88218516D01*
X130754725Y-88203277D01*
X130753335Y-88202072D01*
X130745652Y-88200401D01*
X130716105Y-88200401D01*
X130709586Y-88200738D01*
X130613994Y-88210657D01*
X130600600Y-88213549D01*
X130446416Y-88264988D01*
X130433238Y-88271161D01*
X130295393Y-88356463D01*
X130283992Y-88365499D01*
X130169461Y-88480229D01*
X130160449Y-88491640D01*
X130075384Y-88629643D01*
X130069237Y-88642824D01*
X130018062Y-88797110D01*
X130015195Y-88810486D01*
X130005528Y-88904838D01*
X130005200Y-88911255D01*
X130005200Y-89161285D01*
X127047300Y-89161285D01*
X127047300Y-86179300D01*
X127067302Y-86111179D01*
X127120958Y-86064686D01*
X127173300Y-86053300D01*
X129519850Y-86053300D01*
X129587971Y-86073302D01*
G37*
G04 #@! TD.AperFunction*
G04 #@! TA.AperFunction,Conductor*
G36*
X117919996Y-100710410D02*
G01*
X118008056Y-100729128D01*
X118008061Y-100729128D01*
X118014513Y-100730500D01*
X118205487Y-100730500D01*
X118211939Y-100729128D01*
X118211944Y-100729128D01*
X118274603Y-100715809D01*
X118345394Y-100721211D01*
X118402027Y-100764028D01*
X118426520Y-100830666D01*
X118426800Y-100839056D01*
X118426800Y-100849885D01*
X118431275Y-100865124D01*
X118432665Y-100866329D01*
X118440348Y-100868000D01*
X119812800Y-100868000D01*
X119880921Y-100888002D01*
X119927414Y-100941658D01*
X119938800Y-100994000D01*
X119938800Y-102111884D01*
X119943275Y-102127123D01*
X119944665Y-102128328D01*
X119952348Y-102129999D01*
X120479469Y-102129999D01*
X120486290Y-102129629D01*
X120537152Y-102124105D01*
X120552404Y-102120479D01*
X120672854Y-102075324D01*
X120688448Y-102066787D01*
X120755136Y-102016807D01*
X120821642Y-101991960D01*
X120891025Y-102007013D01*
X120941254Y-102057188D01*
X120956700Y-102117634D01*
X120956700Y-105115742D01*
X120936698Y-105183863D01*
X120883042Y-105230356D01*
X120812768Y-105240460D01*
X120755135Y-105216568D01*
X120707661Y-105180988D01*
X120681505Y-105161385D01*
X120545116Y-105110255D01*
X120482934Y-105103500D01*
X118886666Y-105103500D01*
X118824484Y-105110255D01*
X118688095Y-105161385D01*
X118571539Y-105248739D01*
X118484185Y-105365295D01*
X118481033Y-105373704D01*
X118476723Y-105381575D01*
X118475059Y-105380664D01*
X118439137Y-105428490D01*
X118372576Y-105453193D01*
X118363791Y-105453500D01*
X117830809Y-105453500D01*
X117762688Y-105433498D01*
X117716195Y-105379842D01*
X117713897Y-105374306D01*
X117713568Y-105373704D01*
X117710415Y-105365295D01*
X117623061Y-105248739D01*
X117506505Y-105161385D01*
X117370116Y-105110255D01*
X117307934Y-105103500D01*
X115711666Y-105103500D01*
X115649484Y-105110255D01*
X115513095Y-105161385D01*
X115396539Y-105248739D01*
X115309185Y-105365295D01*
X115306033Y-105373704D01*
X115301723Y-105381575D01*
X115300059Y-105380664D01*
X115264137Y-105428490D01*
X115197576Y-105453193D01*
X115188791Y-105453500D01*
X114655809Y-105453500D01*
X114587688Y-105433498D01*
X114541195Y-105379842D01*
X114538897Y-105374306D01*
X114538568Y-105373704D01*
X114535415Y-105365295D01*
X114448061Y-105248739D01*
X114331505Y-105161385D01*
X114195116Y-105110255D01*
X114132934Y-105103500D01*
X112536666Y-105103500D01*
X112474484Y-105110255D01*
X112467088Y-105113027D01*
X112467082Y-105113029D01*
X112410929Y-105134080D01*
X112340122Y-105139263D01*
X112277753Y-105105342D01*
X112243624Y-105043086D01*
X112240700Y-105016098D01*
X112240700Y-102217368D01*
X112260702Y-102149247D01*
X112314358Y-102102754D01*
X112384632Y-102092650D01*
X112410929Y-102099386D01*
X112467191Y-102120478D01*
X112482449Y-102124105D01*
X112533314Y-102129631D01*
X112540128Y-102130000D01*
X113062685Y-102130000D01*
X113077924Y-102125525D01*
X113079129Y-102124135D01*
X113080800Y-102116452D01*
X113080800Y-102111884D01*
X113588800Y-102111884D01*
X113593275Y-102127123D01*
X113594665Y-102128328D01*
X113602348Y-102129999D01*
X114129469Y-102129999D01*
X114136290Y-102129629D01*
X114187152Y-102124105D01*
X114202404Y-102120479D01*
X114322854Y-102075324D01*
X114338449Y-102066786D01*
X114440524Y-101990285D01*
X114453085Y-101977724D01*
X114529586Y-101875649D01*
X114538124Y-101860054D01*
X114583278Y-101739606D01*
X114586905Y-101724351D01*
X114592431Y-101673486D01*
X114592800Y-101666672D01*
X114592800Y-101666669D01*
X115251801Y-101666669D01*
X115252171Y-101673490D01*
X115257695Y-101724352D01*
X115261321Y-101739604D01*
X115306476Y-101860054D01*
X115315014Y-101875649D01*
X115391515Y-101977724D01*
X115404076Y-101990285D01*
X115506151Y-102066786D01*
X115521746Y-102075324D01*
X115642194Y-102120478D01*
X115657449Y-102124105D01*
X115708314Y-102129631D01*
X115715128Y-102130000D01*
X116237685Y-102130000D01*
X116252924Y-102125525D01*
X116254129Y-102124135D01*
X116255800Y-102116452D01*
X116255800Y-102111884D01*
X116763800Y-102111884D01*
X116768275Y-102127123D01*
X116769665Y-102128328D01*
X116777348Y-102129999D01*
X117304469Y-102129999D01*
X117311290Y-102129629D01*
X117362152Y-102124105D01*
X117377404Y-102120479D01*
X117497854Y-102075324D01*
X117513449Y-102066786D01*
X117615524Y-101990285D01*
X117628085Y-101977724D01*
X117704586Y-101875649D01*
X117713124Y-101860054D01*
X117758278Y-101739606D01*
X117761905Y-101724351D01*
X117767431Y-101673486D01*
X117767800Y-101666672D01*
X117767800Y-101666669D01*
X118426801Y-101666669D01*
X118427171Y-101673490D01*
X118432695Y-101724352D01*
X118436321Y-101739604D01*
X118481476Y-101860054D01*
X118490014Y-101875649D01*
X118566515Y-101977724D01*
X118579076Y-101990285D01*
X118681151Y-102066786D01*
X118696746Y-102075324D01*
X118817194Y-102120478D01*
X118832449Y-102124105D01*
X118883314Y-102129631D01*
X118890128Y-102130000D01*
X119412685Y-102130000D01*
X119427924Y-102125525D01*
X119429129Y-102124135D01*
X119430800Y-102116452D01*
X119430800Y-101394115D01*
X119426325Y-101378876D01*
X119424935Y-101377671D01*
X119417252Y-101376000D01*
X118444916Y-101376000D01*
X118429677Y-101380475D01*
X118428472Y-101381865D01*
X118426801Y-101389548D01*
X118426801Y-101666669D01*
X117767800Y-101666669D01*
X117767800Y-101394115D01*
X117763325Y-101378876D01*
X117761935Y-101377671D01*
X117754252Y-101376000D01*
X116781915Y-101376000D01*
X116766676Y-101380475D01*
X116765471Y-101381865D01*
X116763800Y-101389548D01*
X116763800Y-102111884D01*
X116255800Y-102111884D01*
X116255800Y-101394115D01*
X116251325Y-101378876D01*
X116249935Y-101377671D01*
X116242252Y-101376000D01*
X115269916Y-101376000D01*
X115254677Y-101380475D01*
X115253472Y-101381865D01*
X115251801Y-101389548D01*
X115251801Y-101666669D01*
X114592800Y-101666669D01*
X114592800Y-101394115D01*
X114588325Y-101378876D01*
X114586935Y-101377671D01*
X114579252Y-101376000D01*
X113606915Y-101376000D01*
X113591676Y-101380475D01*
X113590471Y-101381865D01*
X113588800Y-101389548D01*
X113588800Y-102111884D01*
X113080800Y-102111884D01*
X113080800Y-100994000D01*
X113100802Y-100925879D01*
X113154458Y-100879386D01*
X113206800Y-100868000D01*
X114574684Y-100868000D01*
X114589923Y-100863525D01*
X114591128Y-100862135D01*
X114592799Y-100854452D01*
X114592799Y-100839056D01*
X114612801Y-100770935D01*
X114666457Y-100724442D01*
X114736731Y-100714338D01*
X114744995Y-100715809D01*
X114799105Y-100727310D01*
X114814113Y-100730500D01*
X115005087Y-100730500D01*
X115011539Y-100729128D01*
X115011544Y-100729128D01*
X115099603Y-100710410D01*
X115170394Y-100715812D01*
X115227026Y-100758629D01*
X115251520Y-100825267D01*
X115251800Y-100833657D01*
X115251800Y-100849885D01*
X115256275Y-100865124D01*
X115257665Y-100866329D01*
X115265348Y-100868000D01*
X117749684Y-100868000D01*
X117764923Y-100863525D01*
X117766128Y-100862135D01*
X117767799Y-100854452D01*
X117767799Y-100833657D01*
X117787801Y-100765536D01*
X117841457Y-100719043D01*
X117911731Y-100708939D01*
X117919996Y-100710410D01*
G37*
G04 #@! TD.AperFunction*
G04 #@! TA.AperFunction,Conductor*
G36*
X121846771Y-66083502D02*
G01*
X121893264Y-66137158D01*
X121903368Y-66207432D01*
X121873874Y-66272012D01*
X121867745Y-66278595D01*
X119073995Y-69072345D01*
X119065215Y-69080335D01*
X119065213Y-69080337D01*
X119058520Y-69084584D01*
X119053094Y-69090362D01*
X119053093Y-69090363D01*
X119009996Y-69136257D01*
X119007241Y-69139099D01*
X118986673Y-69159667D01*
X118983956Y-69163170D01*
X118976248Y-69172195D01*
X118944628Y-69205867D01*
X118940807Y-69212818D01*
X118940806Y-69212819D01*
X118934297Y-69224658D01*
X118923443Y-69241182D01*
X118915618Y-69251271D01*
X118910296Y-69258132D01*
X118907149Y-69265404D01*
X118907148Y-69265406D01*
X118891946Y-69300535D01*
X118886724Y-69311195D01*
X118870569Y-69340581D01*
X118864476Y-69351663D01*
X118859141Y-69372441D01*
X118852742Y-69391131D01*
X118844220Y-69410824D01*
X118837287Y-69454596D01*
X118836994Y-69456448D01*
X118834587Y-69468071D01*
X118827398Y-69496072D01*
X118823100Y-69512812D01*
X118823100Y-69534259D01*
X118821549Y-69553969D01*
X118818194Y-69575152D01*
X118820288Y-69597299D01*
X118822541Y-69621138D01*
X118823100Y-69632996D01*
X118823100Y-95742767D01*
X118803098Y-95810888D01*
X118749442Y-95857381D01*
X118723301Y-95866013D01*
X118538912Y-95905206D01*
X118532882Y-95907891D01*
X118532881Y-95907891D01*
X118370478Y-95980197D01*
X118370476Y-95980198D01*
X118364448Y-95982882D01*
X118209947Y-96095134D01*
X118205526Y-96100044D01*
X118205525Y-96100045D01*
X118094170Y-96223718D01*
X118082160Y-96237056D01*
X117986673Y-96402444D01*
X117927658Y-96584072D01*
X117907696Y-96774000D01*
X117908386Y-96780565D01*
X117922973Y-96919349D01*
X117927658Y-96963928D01*
X117986673Y-97145556D01*
X117989976Y-97151278D01*
X117989977Y-97151279D01*
X118012986Y-97191132D01*
X118082160Y-97310944D01*
X118086578Y-97315851D01*
X118086579Y-97315852D01*
X118175942Y-97415100D01*
X118209947Y-97452866D01*
X118258811Y-97488368D01*
X118358764Y-97560988D01*
X118364448Y-97565118D01*
X118370476Y-97567802D01*
X118370478Y-97567803D01*
X118429444Y-97594056D01*
X118483540Y-97640036D01*
X118504189Y-97707963D01*
X118488872Y-97769041D01*
X118484185Y-97775295D01*
X118481034Y-97783699D01*
X118476721Y-97791577D01*
X118475058Y-97790666D01*
X118439137Y-97838490D01*
X118372576Y-97863193D01*
X118363791Y-97863500D01*
X117830809Y-97863500D01*
X117762688Y-97843498D01*
X117716195Y-97789842D01*
X117713897Y-97784306D01*
X117713567Y-97783703D01*
X117710415Y-97775295D01*
X117623061Y-97658739D01*
X117506505Y-97571385D01*
X117370116Y-97520255D01*
X117307934Y-97513500D01*
X117294300Y-97513500D01*
X117226179Y-97493498D01*
X117179686Y-97439842D01*
X117168300Y-97387500D01*
X117168300Y-94697056D01*
X117168859Y-94685200D01*
X117168859Y-94685197D01*
X117170588Y-94677463D01*
X117168362Y-94606631D01*
X117168300Y-94602673D01*
X117168300Y-93814660D01*
X117188302Y-93746539D01*
X117205127Y-93725642D01*
X117292134Y-93638483D01*
X117297305Y-93633303D01*
X117301146Y-93627072D01*
X117386275Y-93488968D01*
X117386276Y-93488966D01*
X117390115Y-93482738D01*
X117445797Y-93314861D01*
X117456500Y-93210400D01*
X117456500Y-92209600D01*
X117456163Y-92206350D01*
X117446238Y-92110692D01*
X117446237Y-92110688D01*
X117445526Y-92103834D01*
X117389550Y-91936054D01*
X117296478Y-91785652D01*
X117177982Y-91667362D01*
X117143903Y-91605079D01*
X117141000Y-91578189D01*
X117141000Y-91321779D01*
X117161002Y-91253658D01*
X117188736Y-91223033D01*
X117189622Y-91222331D01*
X117195848Y-91218478D01*
X117320805Y-91093303D01*
X117413615Y-90942738D01*
X117469297Y-90774861D01*
X117480000Y-90670400D01*
X117480000Y-89669600D01*
X117469026Y-89563834D01*
X117413050Y-89396054D01*
X117319978Y-89245652D01*
X117194803Y-89120695D01*
X117188835Y-89117016D01*
X117147846Y-89059205D01*
X117141000Y-89018238D01*
X117141000Y-88797165D01*
X117161002Y-88729044D01*
X117200695Y-88690022D01*
X117213123Y-88682331D01*
X117213128Y-88682327D01*
X117219348Y-88678478D01*
X117344305Y-88553303D01*
X117437115Y-88402738D01*
X117480757Y-88271161D01*
X117490632Y-88241389D01*
X117490632Y-88241387D01*
X117492797Y-88234861D01*
X117503500Y-88130400D01*
X117503500Y-87129600D01*
X117499073Y-87086929D01*
X117493238Y-87030692D01*
X117493237Y-87030688D01*
X117492526Y-87023834D01*
X117468870Y-86952927D01*
X117438868Y-86863002D01*
X117436550Y-86856054D01*
X117343478Y-86705652D01*
X117218303Y-86580695D01*
X117200884Y-86569958D01*
X117153391Y-86517187D01*
X117141000Y-86462698D01*
X117141000Y-86257165D01*
X117161002Y-86189044D01*
X117200695Y-86150022D01*
X117213123Y-86142331D01*
X117213128Y-86142327D01*
X117219348Y-86138478D01*
X117344305Y-86013303D01*
X117437115Y-85862738D01*
X117474491Y-85750051D01*
X117490632Y-85701389D01*
X117490632Y-85701387D01*
X117492797Y-85694861D01*
X117496738Y-85656402D01*
X117503172Y-85593598D01*
X117503500Y-85590400D01*
X117503500Y-84589600D01*
X117492526Y-84483834D01*
X117436550Y-84316054D01*
X117343478Y-84165652D01*
X117218303Y-84040695D01*
X117067738Y-83947885D01*
X116948492Y-83908333D01*
X116906389Y-83894368D01*
X116906387Y-83894368D01*
X116899861Y-83892203D01*
X116893025Y-83891503D01*
X116893022Y-83891502D01*
X116849969Y-83887091D01*
X116795400Y-83881500D01*
X116169600Y-83881500D01*
X116166354Y-83881837D01*
X116166350Y-83881837D01*
X116136417Y-83884943D01*
X116063834Y-83892474D01*
X116053553Y-83895904D01*
X116051102Y-83895993D01*
X116050557Y-83896111D01*
X116050536Y-83896014D01*
X115982606Y-83898488D01*
X115924584Y-83865475D01*
X115691984Y-83632875D01*
X115683994Y-83624095D01*
X115683992Y-83624093D01*
X115679745Y-83617400D01*
X115628071Y-83568875D01*
X115625230Y-83566121D01*
X115604662Y-83545553D01*
X115601155Y-83542833D01*
X115592133Y-83535127D01*
X115564242Y-83508936D01*
X115558462Y-83503508D01*
X115551510Y-83499686D01*
X115539671Y-83493177D01*
X115523147Y-83482323D01*
X115512461Y-83474035D01*
X115506197Y-83469176D01*
X115498925Y-83466029D01*
X115498923Y-83466028D01*
X115463794Y-83450826D01*
X115453134Y-83445604D01*
X115419613Y-83427175D01*
X115419611Y-83427174D01*
X115412666Y-83423356D01*
X115391888Y-83418021D01*
X115373198Y-83411622D01*
X115353505Y-83403100D01*
X115307881Y-83395874D01*
X115296258Y-83393467D01*
X115268257Y-83386278D01*
X115251517Y-83381980D01*
X115230070Y-83381980D01*
X115210360Y-83380429D01*
X115197006Y-83378314D01*
X115189177Y-83377074D01*
X115143188Y-83381421D01*
X115131333Y-83381980D01*
X113981830Y-83381980D01*
X113913709Y-83361978D01*
X113892734Y-83345075D01*
X113674604Y-83126944D01*
X113640579Y-83064632D01*
X113637700Y-83037849D01*
X113637700Y-82663802D01*
X113657702Y-82595681D01*
X113711358Y-82549188D01*
X113781632Y-82539084D01*
X113808648Y-82546092D01*
X113914996Y-82586702D01*
X113924899Y-82589579D01*
X114028250Y-82610606D01*
X114042299Y-82609410D01*
X114046000Y-82599065D01*
X114046000Y-82598517D01*
X114554000Y-82598517D01*
X114558064Y-82612359D01*
X114571478Y-82614393D01*
X114578184Y-82613534D01*
X114588262Y-82611392D01*
X114792255Y-82550191D01*
X114801842Y-82546433D01*
X114993095Y-82452739D01*
X115001945Y-82447464D01*
X115175328Y-82323792D01*
X115183200Y-82317139D01*
X115334052Y-82166812D01*
X115340730Y-82158965D01*
X115465003Y-81986020D01*
X115470313Y-81977183D01*
X115564670Y-81786267D01*
X115568469Y-81776672D01*
X115630377Y-81572910D01*
X115632555Y-81562837D01*
X115633986Y-81551962D01*
X115631775Y-81537778D01*
X115618617Y-81534000D01*
X114572115Y-81534000D01*
X114556876Y-81538475D01*
X114555671Y-81539865D01*
X114554000Y-81547548D01*
X114554000Y-82598517D01*
X114046000Y-82598517D01*
X114046000Y-81152000D01*
X114066002Y-81083879D01*
X114119658Y-81037386D01*
X114172000Y-81026000D01*
X115618344Y-81026000D01*
X115631875Y-81022027D01*
X115633180Y-81012947D01*
X115591214Y-80845875D01*
X115587894Y-80836124D01*
X115502972Y-80640814D01*
X115498105Y-80631739D01*
X115382426Y-80452926D01*
X115376136Y-80444757D01*
X115232806Y-80287240D01*
X115225273Y-80280215D01*
X115058139Y-80148222D01*
X115049556Y-80142520D01*
X115012602Y-80122120D01*
X114962631Y-80071687D01*
X114947859Y-80002245D01*
X114972975Y-79935839D01*
X115000327Y-79909232D01*
X115023797Y-79892491D01*
X115179860Y-79781173D01*
X115208371Y-79752762D01*
X115320653Y-79640871D01*
X115338096Y-79623489D01*
X115468453Y-79442077D01*
X115493896Y-79390598D01*
X115565136Y-79246453D01*
X115565137Y-79246451D01*
X115567430Y-79241811D01*
X115632370Y-79028069D01*
X115661529Y-78806590D01*
X115663156Y-78740000D01*
X115644852Y-78517361D01*
X115590431Y-78300702D01*
X115501354Y-78095840D01*
X115400839Y-77940467D01*
X115382822Y-77912617D01*
X115382820Y-77912614D01*
X115380014Y-77908277D01*
X115229670Y-77743051D01*
X115225619Y-77739852D01*
X115225615Y-77739848D01*
X115058414Y-77607800D01*
X115058410Y-77607798D01*
X115054359Y-77604598D01*
X115013053Y-77581796D01*
X114963084Y-77531364D01*
X114948312Y-77461921D01*
X114973428Y-77395516D01*
X115000780Y-77368909D01*
X115044603Y-77337650D01*
X115179860Y-77241173D01*
X115208371Y-77212762D01*
X115308079Y-77113401D01*
X115338096Y-77083489D01*
X115468453Y-76902077D01*
X115493896Y-76850598D01*
X115565136Y-76706453D01*
X115565137Y-76706451D01*
X115567430Y-76701811D01*
X115591424Y-76622839D01*
X115622887Y-76570373D01*
X116993599Y-75199660D01*
X117002380Y-75191670D01*
X117002391Y-75191661D01*
X117009080Y-75187416D01*
X117057621Y-75135726D01*
X117060343Y-75132917D01*
X117080926Y-75112333D01*
X117083638Y-75108837D01*
X117091349Y-75099808D01*
X117117544Y-75071913D01*
X117122972Y-75066133D01*
X117133301Y-75047345D01*
X117144158Y-75030816D01*
X117152447Y-75020131D01*
X117152448Y-75020129D01*
X117157304Y-75013869D01*
X117175657Y-74971456D01*
X117180868Y-74960819D01*
X117203124Y-74920337D01*
X117208457Y-74899566D01*
X117214859Y-74880864D01*
X117223379Y-74861177D01*
X117230605Y-74815552D01*
X117233013Y-74803926D01*
X117242529Y-74766865D01*
X117242529Y-74766864D01*
X117244500Y-74759188D01*
X117244500Y-74737742D01*
X117246051Y-74718031D01*
X117246464Y-74715427D01*
X117249406Y-74696849D01*
X117245059Y-74650864D01*
X117244500Y-74639006D01*
X117244500Y-68498550D01*
X117264502Y-68430429D01*
X117281405Y-68409455D01*
X119590455Y-66100405D01*
X119652767Y-66066379D01*
X119679550Y-66063500D01*
X121778650Y-66063500D01*
X121846771Y-66083502D01*
G37*
G04 #@! TD.AperFunction*
G04 #@! TA.AperFunction,Conductor*
G36*
X122068688Y-69568338D02*
G01*
X122125524Y-69610885D01*
X122135812Y-69628627D01*
X122135855Y-69628601D01*
X122220547Y-69771807D01*
X122223229Y-69774489D01*
X122248502Y-69838861D01*
X122234600Y-69908484D01*
X122224428Y-69924312D01*
X122220547Y-69928193D01*
X122135855Y-70071399D01*
X122133644Y-70079010D01*
X122133643Y-70079012D01*
X122125323Y-70107651D01*
X122089438Y-70231169D01*
X122086500Y-70268498D01*
X122086500Y-70701502D01*
X122089438Y-70738831D01*
X122112447Y-70818029D01*
X122132238Y-70886150D01*
X122135855Y-70898601D01*
X122220547Y-71041807D01*
X122223229Y-71044489D01*
X122248502Y-71108861D01*
X122234600Y-71178484D01*
X122224428Y-71194312D01*
X122220547Y-71198193D01*
X122135855Y-71341399D01*
X122089438Y-71501169D01*
X122088934Y-71507574D01*
X122088933Y-71507579D01*
X122086978Y-71532425D01*
X122086500Y-71538498D01*
X122086500Y-71971502D01*
X122089438Y-72008831D01*
X122097157Y-72035399D01*
X122132205Y-72156036D01*
X122135855Y-72168601D01*
X122220547Y-72311807D01*
X122223229Y-72314489D01*
X122248502Y-72378861D01*
X122234600Y-72448484D01*
X122224428Y-72464312D01*
X122220547Y-72468193D01*
X122135855Y-72611399D01*
X122133644Y-72619010D01*
X122133643Y-72619012D01*
X122126275Y-72644373D01*
X122089438Y-72771169D01*
X122088934Y-72777574D01*
X122088933Y-72777579D01*
X122086693Y-72806042D01*
X122086500Y-72808498D01*
X122086500Y-73241502D01*
X122089438Y-73278831D01*
X122098457Y-73309875D01*
X122127461Y-73409707D01*
X122135855Y-73438601D01*
X122220547Y-73581807D01*
X122223229Y-73584489D01*
X122248502Y-73648861D01*
X122234600Y-73718484D01*
X122224428Y-73734312D01*
X122220547Y-73738193D01*
X122135855Y-73881399D01*
X122089438Y-74041169D01*
X122086500Y-74078498D01*
X122086500Y-74511502D01*
X122089438Y-74548831D01*
X122097157Y-74575399D01*
X122132205Y-74696036D01*
X122135855Y-74708601D01*
X122220547Y-74851807D01*
X122223229Y-74854489D01*
X122248502Y-74918861D01*
X122234600Y-74988484D01*
X122224428Y-75004312D01*
X122220547Y-75008193D01*
X122135855Y-75151399D01*
X122133644Y-75159010D01*
X122133643Y-75159012D01*
X122125391Y-75187416D01*
X122089438Y-75311169D01*
X122086500Y-75348498D01*
X122086500Y-75781502D01*
X122089438Y-75818831D01*
X122135855Y-75978601D01*
X122220547Y-76121807D01*
X122223229Y-76124489D01*
X122248502Y-76188861D01*
X122234600Y-76258484D01*
X122224428Y-76274312D01*
X122220547Y-76278193D01*
X122135855Y-76421399D01*
X122089438Y-76581169D01*
X122088934Y-76587574D01*
X122088933Y-76587579D01*
X122086693Y-76616042D01*
X122086500Y-76618498D01*
X122086500Y-77051502D01*
X122089438Y-77088831D01*
X122097157Y-77115399D01*
X122132205Y-77236036D01*
X122135855Y-77248601D01*
X122220547Y-77391807D01*
X122223229Y-77394489D01*
X122248502Y-77458861D01*
X122234600Y-77528484D01*
X122224428Y-77544312D01*
X122220547Y-77548193D01*
X122135855Y-77691399D01*
X122133644Y-77699010D01*
X122133643Y-77699012D01*
X122125323Y-77727651D01*
X122089438Y-77851169D01*
X122086500Y-77888498D01*
X122086500Y-78321502D01*
X122089438Y-78358831D01*
X122135855Y-78518601D01*
X122220547Y-78661807D01*
X122223487Y-78664747D01*
X122248820Y-78729266D01*
X122234921Y-78798889D01*
X122222874Y-78817636D01*
X122216910Y-78825324D01*
X122140352Y-78954779D01*
X122134107Y-78969210D01*
X122095061Y-79103605D01*
X122095101Y-79117706D01*
X122102370Y-79121000D01*
X125131878Y-79121000D01*
X125147049Y-79116545D01*
X125174249Y-79056987D01*
X125233976Y-79018604D01*
X125269473Y-79013500D01*
X125404300Y-79013500D01*
X125472421Y-79033502D01*
X125518914Y-79087158D01*
X125530300Y-79139500D01*
X125530300Y-94850500D01*
X125510298Y-94918621D01*
X125456642Y-94965114D01*
X125404300Y-94976500D01*
X125278395Y-94976500D01*
X125210274Y-94956498D01*
X125163781Y-94902842D01*
X125152783Y-94840616D01*
X125153306Y-94833963D01*
X125153500Y-94831502D01*
X125153500Y-94398498D01*
X125150562Y-94361169D01*
X125109462Y-94219699D01*
X125106357Y-94209012D01*
X125106356Y-94209010D01*
X125104145Y-94201399D01*
X125019453Y-94058193D01*
X125016771Y-94055511D01*
X124991498Y-93991139D01*
X125005400Y-93921516D01*
X125015572Y-93905688D01*
X125019453Y-93901807D01*
X125104145Y-93758601D01*
X125107650Y-93746539D01*
X125129382Y-93671735D01*
X125150562Y-93598831D01*
X125153099Y-93566606D01*
X125153307Y-93563958D01*
X125153307Y-93563950D01*
X125153500Y-93561502D01*
X125153500Y-93128498D01*
X125150562Y-93091169D01*
X125104145Y-92931399D01*
X125019453Y-92788193D01*
X125016771Y-92785511D01*
X124991498Y-92721139D01*
X125005400Y-92651516D01*
X125015572Y-92635688D01*
X125019453Y-92631807D01*
X125104145Y-92488601D01*
X125150562Y-92328831D01*
X125153500Y-92291502D01*
X125153500Y-91858498D01*
X125153307Y-91856042D01*
X125151067Y-91827579D01*
X125151066Y-91827574D01*
X125150562Y-91821169D01*
X125104145Y-91661399D01*
X125070837Y-91605079D01*
X125023491Y-91525020D01*
X125023489Y-91525017D01*
X125019453Y-91518193D01*
X124901807Y-91400547D01*
X124894983Y-91396511D01*
X124894980Y-91396509D01*
X124765427Y-91319892D01*
X124765428Y-91319892D01*
X124758601Y-91315855D01*
X124750990Y-91313644D01*
X124750988Y-91313643D01*
X124694737Y-91297301D01*
X124598831Y-91269438D01*
X124592426Y-91268934D01*
X124592421Y-91268933D01*
X124563958Y-91266693D01*
X124563950Y-91266693D01*
X124561502Y-91266500D01*
X122678498Y-91266500D01*
X122676050Y-91266693D01*
X122676042Y-91266693D01*
X122647579Y-91268933D01*
X122647574Y-91268934D01*
X122641169Y-91269438D01*
X122634997Y-91271231D01*
X122634992Y-91271232D01*
X122578393Y-91287676D01*
X122566918Y-91291010D01*
X122566219Y-91291213D01*
X122495223Y-91291010D01*
X122441971Y-91259311D01*
X121485305Y-90302645D01*
X121451279Y-90240333D01*
X121448400Y-90213550D01*
X121448400Y-88126959D01*
X121468402Y-88058838D01*
X121480764Y-88042649D01*
X121524521Y-87994052D01*
X121524522Y-87994051D01*
X121528940Y-87989144D01*
X121624427Y-87823756D01*
X121683442Y-87642128D01*
X121703404Y-87452200D01*
X121702714Y-87445635D01*
X121684132Y-87268835D01*
X121684132Y-87268833D01*
X121683442Y-87262272D01*
X121624427Y-87080644D01*
X121528940Y-86915256D01*
X121524191Y-86909981D01*
X121405575Y-86778245D01*
X121405574Y-86778244D01*
X121401153Y-86773334D01*
X121299787Y-86699687D01*
X121251994Y-86664963D01*
X121251993Y-86664962D01*
X121246652Y-86661082D01*
X121240624Y-86658398D01*
X121240622Y-86658397D01*
X121078219Y-86586091D01*
X121078218Y-86586091D01*
X121072188Y-86583406D01*
X120978787Y-86563553D01*
X120891844Y-86545072D01*
X120891839Y-86545072D01*
X120885387Y-86543700D01*
X120824900Y-86543700D01*
X120756779Y-86523698D01*
X120710286Y-86470042D01*
X120698900Y-86417700D01*
X120698900Y-79640871D01*
X122093456Y-79640871D01*
X122134107Y-79780790D01*
X122140352Y-79795221D01*
X122216911Y-79924678D01*
X122226551Y-79937104D01*
X122332896Y-80043449D01*
X122345322Y-80053089D01*
X122474779Y-80129648D01*
X122489210Y-80135893D01*
X122635065Y-80178269D01*
X122647667Y-80180570D01*
X122676084Y-80182807D01*
X122681014Y-80183000D01*
X123347885Y-80183000D01*
X123363124Y-80178525D01*
X123364329Y-80177135D01*
X123366000Y-80169452D01*
X123366000Y-80164884D01*
X123874000Y-80164884D01*
X123878475Y-80180123D01*
X123879865Y-80181328D01*
X123887548Y-80182999D01*
X124558984Y-80182999D01*
X124563920Y-80182805D01*
X124592336Y-80180570D01*
X124604931Y-80178270D01*
X124750790Y-80135893D01*
X124765221Y-80129648D01*
X124894678Y-80053089D01*
X124907104Y-80043449D01*
X125013449Y-79937104D01*
X125023089Y-79924678D01*
X125099648Y-79795221D01*
X125105893Y-79780790D01*
X125144939Y-79646395D01*
X125144899Y-79632294D01*
X125137630Y-79629000D01*
X123892115Y-79629000D01*
X123876876Y-79633475D01*
X123875671Y-79634865D01*
X123874000Y-79642548D01*
X123874000Y-80164884D01*
X123366000Y-80164884D01*
X123366000Y-79647115D01*
X123361525Y-79631876D01*
X123360135Y-79630671D01*
X123352452Y-79629000D01*
X122108122Y-79629000D01*
X122094591Y-79632973D01*
X122093456Y-79640871D01*
X120698900Y-79640871D01*
X120698900Y-70886150D01*
X120718902Y-70818029D01*
X120735805Y-70797055D01*
X121935561Y-69597299D01*
X121997873Y-69563273D01*
X122068688Y-69568338D01*
G37*
G04 #@! TD.AperFunction*
M02*
