G04 #@! TF.GenerationSoftware,KiCad,Pcbnew,6.0.4-1.fc35*
G04 #@! TF.CreationDate,2022-04-07T10:49:23-04:00*
G04 #@! TF.ProjectId,switch_mux_breakout,73776974-6368-45f6-9d75-785f62726561,0*
G04 #@! TF.SameCoordinates,Original*
G04 #@! TF.FileFunction,Legend,Top*
G04 #@! TF.FilePolarity,Positive*
%FSLAX46Y46*%
G04 Gerber Fmt 4.6, Leading zero omitted, Abs format (unit mm)*
G04 Created by KiCad (PCBNEW 6.0.4-1.fc35) date 2022-04-07 10:49:23*
%MOMM*%
%LPD*%
G01*
G04 APERTURE LIST*
G04 Aperture macros list*
%AMRoundRect*
0 Rectangle with rounded corners*
0 $1 Rounding radius*
0 $2 $3 $4 $5 $6 $7 $8 $9 X,Y pos of 4 corners*
0 Add a 4 corners polygon primitive as box body*
4,1,4,$2,$3,$4,$5,$6,$7,$8,$9,$2,$3,0*
0 Add four circle primitives for the rounded corners*
1,1,$1+$1,$2,$3*
1,1,$1+$1,$4,$5*
1,1,$1+$1,$6,$7*
1,1,$1+$1,$8,$9*
0 Add four rect primitives between the rounded corners*
20,1,$1+$1,$2,$3,$4,$5,0*
20,1,$1+$1,$4,$5,$6,$7,0*
20,1,$1+$1,$6,$7,$8,$9,0*
20,1,$1+$1,$8,$9,$2,$3,0*%
G04 Aperture macros list end*
%ADD10C,0.150000*%
%ADD11C,0.120000*%
%ADD12R,1.500000X1.000000*%
%ADD13R,1.600000X1.600000*%
%ADD14O,1.600000X1.600000*%
%ADD15RoundRect,0.250000X0.475000X-0.250000X0.475000X0.250000X-0.475000X0.250000X-0.475000X-0.250000X0*%
%ADD16RoundRect,0.243750X0.456250X-0.243750X0.456250X0.243750X-0.456250X0.243750X-0.456250X-0.243750X0*%
%ADD17RoundRect,0.250000X0.262500X0.450000X-0.262500X0.450000X-0.262500X-0.450000X0.262500X-0.450000X0*%
%ADD18R,1.700000X1.700000*%
%ADD19O,1.700000X1.700000*%
%ADD20RoundRect,0.150000X-0.875000X-0.150000X0.875000X-0.150000X0.875000X0.150000X-0.875000X0.150000X0*%
%ADD21C,5.600000*%
%ADD22RoundRect,0.250000X0.250000X0.475000X-0.250000X0.475000X-0.250000X-0.475000X0.250000X-0.475000X0*%
%ADD23RoundRect,0.250000X-0.450000X0.262500X-0.450000X-0.262500X0.450000X-0.262500X0.450000X0.262500X0*%
G04 APERTURE END LIST*
D10*
X118895904Y-104973380D02*
X118800666Y-104925761D01*
X118753047Y-104830523D01*
X118753047Y-103973380D01*
X119229238Y-104925761D02*
X119324476Y-104973380D01*
X119514952Y-104973380D01*
X119610190Y-104925761D01*
X119657809Y-104830523D01*
X119657809Y-104782904D01*
X119610190Y-104687666D01*
X119514952Y-104640047D01*
X119372095Y-104640047D01*
X119276857Y-104592428D01*
X119229238Y-104497190D01*
X119229238Y-104449571D01*
X119276857Y-104354333D01*
X119372095Y-104306714D01*
X119514952Y-104306714D01*
X119610190Y-104354333D01*
X120086380Y-104973380D02*
X120086380Y-103973380D01*
X120086380Y-104354333D02*
X120181619Y-104306714D01*
X120372095Y-104306714D01*
X120467333Y-104354333D01*
X120514952Y-104401952D01*
X120562571Y-104497190D01*
X120562571Y-104782904D01*
X120514952Y-104878142D01*
X120467333Y-104925761D01*
X120372095Y-104973380D01*
X120181619Y-104973380D01*
X120086380Y-104925761D01*
X112125285Y-104973380D02*
X112125285Y-104306714D01*
X112125285Y-104401952D02*
X112172904Y-104354333D01*
X112268142Y-104306714D01*
X112411000Y-104306714D01*
X112506238Y-104354333D01*
X112553857Y-104449571D01*
X112553857Y-104973380D01*
X112553857Y-104449571D02*
X112601476Y-104354333D01*
X112696714Y-104306714D01*
X112839571Y-104306714D01*
X112934809Y-104354333D01*
X112982428Y-104449571D01*
X112982428Y-104973380D01*
X113411000Y-104925761D02*
X113506238Y-104973380D01*
X113696714Y-104973380D01*
X113791952Y-104925761D01*
X113839571Y-104830523D01*
X113839571Y-104782904D01*
X113791952Y-104687666D01*
X113696714Y-104640047D01*
X113553857Y-104640047D01*
X113458619Y-104592428D01*
X113411000Y-104497190D01*
X113411000Y-104449571D01*
X113458619Y-104354333D01*
X113553857Y-104306714D01*
X113696714Y-104306714D01*
X113791952Y-104354333D01*
X114268142Y-104973380D02*
X114268142Y-103973380D01*
X114268142Y-104354333D02*
X114363380Y-104306714D01*
X114553857Y-104306714D01*
X114649095Y-104354333D01*
X114696714Y-104401952D01*
X114744333Y-104497190D01*
X114744333Y-104782904D01*
X114696714Y-104878142D01*
X114649095Y-104925761D01*
X114553857Y-104973380D01*
X114363380Y-104973380D01*
X114268142Y-104925761D01*
X119022904Y-97353380D02*
X118927666Y-97305761D01*
X118880047Y-97210523D01*
X118880047Y-96353380D01*
X119356238Y-97305761D02*
X119451476Y-97353380D01*
X119641952Y-97353380D01*
X119737190Y-97305761D01*
X119784809Y-97210523D01*
X119784809Y-97162904D01*
X119737190Y-97067666D01*
X119641952Y-97020047D01*
X119499095Y-97020047D01*
X119403857Y-96972428D01*
X119356238Y-96877190D01*
X119356238Y-96829571D01*
X119403857Y-96734333D01*
X119499095Y-96686714D01*
X119641952Y-96686714D01*
X119737190Y-96734333D01*
X120213380Y-97353380D02*
X120213380Y-96353380D01*
X120213380Y-96734333D02*
X120308619Y-96686714D01*
X120499095Y-96686714D01*
X120594333Y-96734333D01*
X120641952Y-96781952D01*
X120689571Y-96877190D01*
X120689571Y-97162904D01*
X120641952Y-97258142D01*
X120594333Y-97305761D01*
X120499095Y-97353380D01*
X120308619Y-97353380D01*
X120213380Y-97305761D01*
X112125285Y-97353380D02*
X112125285Y-96686714D01*
X112125285Y-96781952D02*
X112172904Y-96734333D01*
X112268142Y-96686714D01*
X112411000Y-96686714D01*
X112506238Y-96734333D01*
X112553857Y-96829571D01*
X112553857Y-97353380D01*
X112553857Y-96829571D02*
X112601476Y-96734333D01*
X112696714Y-96686714D01*
X112839571Y-96686714D01*
X112934809Y-96734333D01*
X112982428Y-96829571D01*
X112982428Y-97353380D01*
X113411000Y-97305761D02*
X113506238Y-97353380D01*
X113696714Y-97353380D01*
X113791952Y-97305761D01*
X113839571Y-97210523D01*
X113839571Y-97162904D01*
X113791952Y-97067666D01*
X113696714Y-97020047D01*
X113553857Y-97020047D01*
X113458619Y-96972428D01*
X113411000Y-96877190D01*
X113411000Y-96829571D01*
X113458619Y-96734333D01*
X113553857Y-96686714D01*
X113696714Y-96686714D01*
X113791952Y-96734333D01*
X114268142Y-97353380D02*
X114268142Y-96353380D01*
X114268142Y-96734333D02*
X114363380Y-96686714D01*
X114553857Y-96686714D01*
X114649095Y-96734333D01*
X114696714Y-96781952D01*
X114744333Y-96877190D01*
X114744333Y-97162904D01*
X114696714Y-97258142D01*
X114649095Y-97305761D01*
X114553857Y-97353380D01*
X114363380Y-97353380D01*
X114268142Y-97305761D01*
X117064404Y-80780000D02*
X116969166Y-80732380D01*
X116826309Y-80732380D01*
X116683452Y-80780000D01*
X116588214Y-80875238D01*
X116540595Y-80970476D01*
X116492976Y-81160952D01*
X116492976Y-81303809D01*
X116540595Y-81494285D01*
X116588214Y-81589523D01*
X116683452Y-81684761D01*
X116826309Y-81732380D01*
X116921547Y-81732380D01*
X117064404Y-81684761D01*
X117112023Y-81637142D01*
X117112023Y-81303809D01*
X116921547Y-81303809D01*
X117540595Y-81732380D02*
X117540595Y-80732380D01*
X118112023Y-81732380D01*
X118112023Y-80732380D01*
X118588214Y-81732380D02*
X118588214Y-80732380D01*
X118826309Y-80732380D01*
X118969166Y-80780000D01*
X119064404Y-80875238D01*
X119112023Y-80970476D01*
X119159642Y-81160952D01*
X119159642Y-81303809D01*
X119112023Y-81494285D01*
X119064404Y-81589523D01*
X118969166Y-81684761D01*
X118826309Y-81732380D01*
X118588214Y-81732380D01*
X130653452Y-117292380D02*
X130558214Y-117244761D01*
X130510595Y-117149523D01*
X130510595Y-116292380D01*
X131177261Y-117292380D02*
X131082023Y-117244761D01*
X131034404Y-117197142D01*
X130986785Y-117101904D01*
X130986785Y-116816190D01*
X131034404Y-116720952D01*
X131082023Y-116673333D01*
X131177261Y-116625714D01*
X131320119Y-116625714D01*
X131415357Y-116673333D01*
X131462976Y-116720952D01*
X131510595Y-116816190D01*
X131510595Y-117101904D01*
X131462976Y-117197142D01*
X131415357Y-117244761D01*
X131320119Y-117292380D01*
X131177261Y-117292380D01*
X131843928Y-116625714D02*
X132034404Y-117292380D01*
X132224880Y-116816190D01*
X132415357Y-117292380D01*
X132605833Y-116625714D01*
X112368533Y-103087466D02*
X112844723Y-103087466D01*
X112273295Y-103373180D02*
X112606628Y-102373180D01*
X112939961Y-103373180D01*
X113273295Y-103373180D02*
X113273295Y-102373180D01*
X113511390Y-102373180D01*
X113654247Y-102420800D01*
X113749485Y-102516038D01*
X113797104Y-102611276D01*
X113844723Y-102801752D01*
X113844723Y-102944609D01*
X113797104Y-103135085D01*
X113749485Y-103230323D01*
X113654247Y-103325561D01*
X113511390Y-103373180D01*
X113273295Y-103373180D01*
X114273295Y-103373180D02*
X114273295Y-102373180D01*
X114511390Y-102373180D01*
X114654247Y-102420800D01*
X114749485Y-102516038D01*
X114797104Y-102611276D01*
X114844723Y-102801752D01*
X114844723Y-102944609D01*
X114797104Y-103135085D01*
X114749485Y-103230323D01*
X114654247Y-103325561D01*
X114511390Y-103373180D01*
X114273295Y-103373180D01*
X115844723Y-103373180D02*
X115511390Y-102896990D01*
X115273295Y-103373180D02*
X115273295Y-102373180D01*
X115654247Y-102373180D01*
X115749485Y-102420800D01*
X115797104Y-102468419D01*
X115844723Y-102563657D01*
X115844723Y-102706514D01*
X115797104Y-102801752D01*
X115749485Y-102849371D01*
X115654247Y-102896990D01*
X115273295Y-102896990D01*
X117225676Y-102373180D02*
X117320914Y-102373180D01*
X117416152Y-102420800D01*
X117463771Y-102468419D01*
X117511390Y-102563657D01*
X117559009Y-102754133D01*
X117559009Y-102992228D01*
X117511390Y-103182704D01*
X117463771Y-103277942D01*
X117416152Y-103325561D01*
X117320914Y-103373180D01*
X117225676Y-103373180D01*
X117130438Y-103325561D01*
X117082819Y-103277942D01*
X117035200Y-103182704D01*
X116987580Y-102992228D01*
X116987580Y-102754133D01*
X117035200Y-102563657D01*
X117082819Y-102468419D01*
X117130438Y-102420800D01*
X117225676Y-102373180D01*
X117987580Y-102992228D02*
X118749485Y-102992228D01*
X119749485Y-103373180D02*
X119178057Y-103373180D01*
X119463771Y-103373180D02*
X119463771Y-102373180D01*
X119368533Y-102516038D01*
X119273295Y-102611276D01*
X119178057Y-102658895D01*
X120654247Y-102373180D02*
X120178057Y-102373180D01*
X120130438Y-102849371D01*
X120178057Y-102801752D01*
X120273295Y-102754133D01*
X120511390Y-102754133D01*
X120606628Y-102801752D01*
X120654247Y-102849371D01*
X120701866Y-102944609D01*
X120701866Y-103182704D01*
X120654247Y-103277942D01*
X120606628Y-103325561D01*
X120511390Y-103373180D01*
X120273295Y-103373180D01*
X120178057Y-103325561D01*
X120130438Y-103277942D01*
X130939166Y-114752380D02*
X130939166Y-114228571D01*
X130891547Y-114133333D01*
X130796309Y-114085714D01*
X130605833Y-114085714D01*
X130510595Y-114133333D01*
X130939166Y-114704761D02*
X130843928Y-114752380D01*
X130605833Y-114752380D01*
X130510595Y-114704761D01*
X130462976Y-114609523D01*
X130462976Y-114514285D01*
X130510595Y-114419047D01*
X130605833Y-114371428D01*
X130843928Y-114371428D01*
X130939166Y-114323809D01*
X131843928Y-114704761D02*
X131748690Y-114752380D01*
X131558214Y-114752380D01*
X131462976Y-114704761D01*
X131415357Y-114657142D01*
X131367738Y-114561904D01*
X131367738Y-114276190D01*
X131415357Y-114180952D01*
X131462976Y-114133333D01*
X131558214Y-114085714D01*
X131748690Y-114085714D01*
X131843928Y-114133333D01*
X132129642Y-114085714D02*
X132510595Y-114085714D01*
X132272500Y-113752380D02*
X132272500Y-114609523D01*
X132320119Y-114704761D01*
X132415357Y-114752380D01*
X132510595Y-114752380D01*
X132843928Y-114752380D02*
X132843928Y-114085714D01*
X132843928Y-113752380D02*
X132796309Y-113800000D01*
X132843928Y-113847619D01*
X132891547Y-113800000D01*
X132843928Y-113752380D01*
X132843928Y-113847619D01*
X133224880Y-114085714D02*
X133462976Y-114752380D01*
X133701071Y-114085714D01*
X134462976Y-114704761D02*
X134367738Y-114752380D01*
X134177261Y-114752380D01*
X134082023Y-114704761D01*
X134034404Y-114609523D01*
X134034404Y-114228571D01*
X134082023Y-114133333D01*
X134177261Y-114085714D01*
X134367738Y-114085714D01*
X134462976Y-114133333D01*
X134510595Y-114228571D01*
X134510595Y-114323809D01*
X134034404Y-114419047D01*
X135701071Y-114752380D02*
X135701071Y-114085714D01*
X135701071Y-114180952D02*
X135748690Y-114133333D01*
X135843928Y-114085714D01*
X135986785Y-114085714D01*
X136082023Y-114133333D01*
X136129642Y-114228571D01*
X136129642Y-114752380D01*
X136129642Y-114228571D02*
X136177261Y-114133333D01*
X136272500Y-114085714D01*
X136415357Y-114085714D01*
X136510595Y-114133333D01*
X136558214Y-114228571D01*
X136558214Y-114752380D01*
X137177261Y-114752380D02*
X137082023Y-114704761D01*
X137034404Y-114657142D01*
X136986785Y-114561904D01*
X136986785Y-114276190D01*
X137034404Y-114180952D01*
X137082023Y-114133333D01*
X137177261Y-114085714D01*
X137320119Y-114085714D01*
X137415357Y-114133333D01*
X137462976Y-114180952D01*
X137510595Y-114276190D01*
X137510595Y-114561904D01*
X137462976Y-114657142D01*
X137415357Y-114704761D01*
X137320119Y-114752380D01*
X137177261Y-114752380D01*
X138367738Y-114752380D02*
X138367738Y-113752380D01*
X138367738Y-114704761D02*
X138272500Y-114752380D01*
X138082023Y-114752380D01*
X137986785Y-114704761D01*
X137939166Y-114657142D01*
X137891547Y-114561904D01*
X137891547Y-114276190D01*
X137939166Y-114180952D01*
X137986785Y-114133333D01*
X138082023Y-114085714D01*
X138272500Y-114085714D01*
X138367738Y-114133333D01*
X139224880Y-114704761D02*
X139129642Y-114752380D01*
X138939166Y-114752380D01*
X138843928Y-114704761D01*
X138796309Y-114609523D01*
X138796309Y-114228571D01*
X138843928Y-114133333D01*
X138939166Y-114085714D01*
X139129642Y-114085714D01*
X139224880Y-114133333D01*
X139272500Y-114228571D01*
X139272500Y-114323809D01*
X138796309Y-114419047D01*
X116492976Y-71524761D02*
X116635833Y-71572380D01*
X116873928Y-71572380D01*
X116969166Y-71524761D01*
X117016785Y-71477142D01*
X117064404Y-71381904D01*
X117064404Y-71286666D01*
X117016785Y-71191428D01*
X116969166Y-71143809D01*
X116873928Y-71096190D01*
X116683452Y-71048571D01*
X116588214Y-71000952D01*
X116540595Y-70953333D01*
X116492976Y-70858095D01*
X116492976Y-70762857D01*
X116540595Y-70667619D01*
X116588214Y-70620000D01*
X116683452Y-70572380D01*
X116921547Y-70572380D01*
X117064404Y-70620000D01*
X118064404Y-71477142D02*
X118016785Y-71524761D01*
X117873928Y-71572380D01*
X117778690Y-71572380D01*
X117635833Y-71524761D01*
X117540595Y-71429523D01*
X117492976Y-71334285D01*
X117445357Y-71143809D01*
X117445357Y-71000952D01*
X117492976Y-70810476D01*
X117540595Y-70715238D01*
X117635833Y-70620000D01*
X117778690Y-70572380D01*
X117873928Y-70572380D01*
X118016785Y-70620000D01*
X118064404Y-70667619D01*
X118969166Y-71572380D02*
X118492976Y-71572380D01*
X118492976Y-70572380D01*
X128722380Y-102655238D02*
X127722380Y-102655238D01*
X127722380Y-102274285D01*
X127770000Y-102179047D01*
X127817619Y-102131428D01*
X127912857Y-102083809D01*
X128055714Y-102083809D01*
X128150952Y-102131428D01*
X128198571Y-102179047D01*
X128246190Y-102274285D01*
X128246190Y-102655238D01*
X128627142Y-101083809D02*
X128674761Y-101131428D01*
X128722380Y-101274285D01*
X128722380Y-101369523D01*
X128674761Y-101512380D01*
X128579523Y-101607619D01*
X128484285Y-101655238D01*
X128293809Y-101702857D01*
X128150952Y-101702857D01*
X127960476Y-101655238D01*
X127865238Y-101607619D01*
X127770000Y-101512380D01*
X127722380Y-101369523D01*
X127722380Y-101274285D01*
X127770000Y-101131428D01*
X127817619Y-101083809D01*
X128436666Y-100702857D02*
X128436666Y-100226666D01*
X128722380Y-100798095D02*
X127722380Y-100464761D01*
X128722380Y-100131428D01*
X128722380Y-99750476D02*
X128722380Y-99560000D01*
X128674761Y-99464761D01*
X128627142Y-99417142D01*
X128484285Y-99321904D01*
X128293809Y-99274285D01*
X127912857Y-99274285D01*
X127817619Y-99321904D01*
X127770000Y-99369523D01*
X127722380Y-99464761D01*
X127722380Y-99655238D01*
X127770000Y-99750476D01*
X127817619Y-99798095D01*
X127912857Y-99845714D01*
X128150952Y-99845714D01*
X128246190Y-99798095D01*
X128293809Y-99750476D01*
X128341428Y-99655238D01*
X128341428Y-99464761D01*
X128293809Y-99369523D01*
X128246190Y-99321904D01*
X128150952Y-99274285D01*
X127722380Y-98369523D02*
X127722380Y-98845714D01*
X128198571Y-98893333D01*
X128150952Y-98845714D01*
X128103333Y-98750476D01*
X128103333Y-98512380D01*
X128150952Y-98417142D01*
X128198571Y-98369523D01*
X128293809Y-98321904D01*
X128531904Y-98321904D01*
X128627142Y-98369523D01*
X128674761Y-98417142D01*
X128722380Y-98512380D01*
X128722380Y-98750476D01*
X128674761Y-98845714D01*
X128627142Y-98893333D01*
X127722380Y-97417142D02*
X127722380Y-97893333D01*
X128198571Y-97940952D01*
X128150952Y-97893333D01*
X128103333Y-97798095D01*
X128103333Y-97560000D01*
X128150952Y-97464761D01*
X128198571Y-97417142D01*
X128293809Y-97369523D01*
X128531904Y-97369523D01*
X128627142Y-97417142D01*
X128674761Y-97464761D01*
X128722380Y-97560000D01*
X128722380Y-97798095D01*
X128674761Y-97893333D01*
X128627142Y-97940952D01*
X127722380Y-96464761D02*
X127722380Y-96940952D01*
X128198571Y-96988571D01*
X128150952Y-96940952D01*
X128103333Y-96845714D01*
X128103333Y-96607619D01*
X128150952Y-96512380D01*
X128198571Y-96464761D01*
X128293809Y-96417142D01*
X128531904Y-96417142D01*
X128627142Y-96464761D01*
X128674761Y-96512380D01*
X128722380Y-96607619D01*
X128722380Y-96845714D01*
X128674761Y-96940952D01*
X128627142Y-96988571D01*
X128722380Y-95988571D02*
X127722380Y-95988571D01*
X127722380Y-95750476D01*
X127770000Y-95607619D01*
X127865238Y-95512380D01*
X127960476Y-95464761D01*
X128150952Y-95417142D01*
X128293809Y-95417142D01*
X128484285Y-95464761D01*
X128579523Y-95512380D01*
X128674761Y-95607619D01*
X128722380Y-95750476D01*
X128722380Y-95988571D01*
X135590595Y-61072380D02*
X135590595Y-60072380D01*
X136019166Y-60167619D02*
X136066785Y-60120000D01*
X136162023Y-60072380D01*
X136400119Y-60072380D01*
X136495357Y-60120000D01*
X136542976Y-60167619D01*
X136590595Y-60262857D01*
X136590595Y-60358095D01*
X136542976Y-60500952D01*
X135971547Y-61072380D01*
X136590595Y-61072380D01*
X137590595Y-60977142D02*
X137542976Y-61024761D01*
X137400119Y-61072380D01*
X137304880Y-61072380D01*
X137162023Y-61024761D01*
X137066785Y-60929523D01*
X137019166Y-60834285D01*
X136971547Y-60643809D01*
X136971547Y-60500952D01*
X137019166Y-60310476D01*
X137066785Y-60215238D01*
X137162023Y-60120000D01*
X137304880Y-60072380D01*
X137400119Y-60072380D01*
X137542976Y-60120000D01*
X137590595Y-60167619D01*
X138733452Y-61024761D02*
X138876309Y-61072380D01*
X139114404Y-61072380D01*
X139209642Y-61024761D01*
X139257261Y-60977142D01*
X139304880Y-60881904D01*
X139304880Y-60786666D01*
X139257261Y-60691428D01*
X139209642Y-60643809D01*
X139114404Y-60596190D01*
X138923928Y-60548571D01*
X138828690Y-60500952D01*
X138781071Y-60453333D01*
X138733452Y-60358095D01*
X138733452Y-60262857D01*
X138781071Y-60167619D01*
X138828690Y-60120000D01*
X138923928Y-60072380D01*
X139162023Y-60072380D01*
X139304880Y-60120000D01*
X139638214Y-60405714D02*
X139828690Y-61072380D01*
X140019166Y-60596190D01*
X140209642Y-61072380D01*
X140400119Y-60405714D01*
X140781071Y-61072380D02*
X140781071Y-60405714D01*
X140781071Y-60072380D02*
X140733452Y-60120000D01*
X140781071Y-60167619D01*
X140828690Y-60120000D01*
X140781071Y-60072380D01*
X140781071Y-60167619D01*
X141114404Y-60405714D02*
X141495357Y-60405714D01*
X141257261Y-60072380D02*
X141257261Y-60929523D01*
X141304880Y-61024761D01*
X141400119Y-61072380D01*
X141495357Y-61072380D01*
X142257261Y-61024761D02*
X142162023Y-61072380D01*
X141971547Y-61072380D01*
X141876309Y-61024761D01*
X141828690Y-60977142D01*
X141781071Y-60881904D01*
X141781071Y-60596190D01*
X141828690Y-60500952D01*
X141876309Y-60453333D01*
X141971547Y-60405714D01*
X142162023Y-60405714D01*
X142257261Y-60453333D01*
X142685833Y-61072380D02*
X142685833Y-60072380D01*
X143114404Y-61072380D02*
X143114404Y-60548571D01*
X143066785Y-60453333D01*
X142971547Y-60405714D01*
X142828690Y-60405714D01*
X142733452Y-60453333D01*
X142685833Y-60500952D01*
X144352500Y-61072380D02*
X144352500Y-60072380D01*
X144590595Y-60072380D01*
X144733452Y-60120000D01*
X144828690Y-60215238D01*
X144876309Y-60310476D01*
X144923928Y-60500952D01*
X144923928Y-60643809D01*
X144876309Y-60834285D01*
X144828690Y-60929523D01*
X144733452Y-61024761D01*
X144590595Y-61072380D01*
X144352500Y-61072380D01*
X145352500Y-60548571D02*
X145685833Y-60548571D01*
X145828690Y-61072380D02*
X145352500Y-61072380D01*
X145352500Y-60072380D01*
X145828690Y-60072380D01*
X146257261Y-61072380D02*
X146257261Y-60072380D01*
X146590595Y-60786666D01*
X146923928Y-60072380D01*
X146923928Y-61072380D01*
X147400119Y-60072380D02*
X147400119Y-60881904D01*
X147447738Y-60977142D01*
X147495357Y-61024761D01*
X147590595Y-61072380D01*
X147781071Y-61072380D01*
X147876309Y-61024761D01*
X147923928Y-60977142D01*
X147971547Y-60881904D01*
X147971547Y-60072380D01*
X148352500Y-60072380D02*
X149019166Y-61072380D01*
X149019166Y-60072380D02*
X148352500Y-61072380D01*
X135971547Y-62634761D02*
X135876309Y-62682380D01*
X135685833Y-62682380D01*
X135590595Y-62634761D01*
X135542976Y-62539523D01*
X135542976Y-62158571D01*
X135590595Y-62063333D01*
X135685833Y-62015714D01*
X135876309Y-62015714D01*
X135971547Y-62063333D01*
X136019166Y-62158571D01*
X136019166Y-62253809D01*
X135542976Y-62349047D01*
X136352500Y-62015714D02*
X136590595Y-62682380D01*
X136828690Y-62015714D01*
X137638214Y-62682380D02*
X137638214Y-62158571D01*
X137590595Y-62063333D01*
X137495357Y-62015714D01*
X137304880Y-62015714D01*
X137209642Y-62063333D01*
X137638214Y-62634761D02*
X137542976Y-62682380D01*
X137304880Y-62682380D01*
X137209642Y-62634761D01*
X137162023Y-62539523D01*
X137162023Y-62444285D01*
X137209642Y-62349047D01*
X137304880Y-62301428D01*
X137542976Y-62301428D01*
X137638214Y-62253809D01*
X138257261Y-62682380D02*
X138162023Y-62634761D01*
X138114404Y-62539523D01*
X138114404Y-61682380D01*
X139400119Y-62682380D02*
X139400119Y-61682380D01*
X139400119Y-62063333D02*
X139495357Y-62015714D01*
X139685833Y-62015714D01*
X139781071Y-62063333D01*
X139828690Y-62110952D01*
X139876309Y-62206190D01*
X139876309Y-62491904D01*
X139828690Y-62587142D01*
X139781071Y-62634761D01*
X139685833Y-62682380D01*
X139495357Y-62682380D01*
X139400119Y-62634761D01*
X140447738Y-62682380D02*
X140352500Y-62634761D01*
X140304880Y-62587142D01*
X140257261Y-62491904D01*
X140257261Y-62206190D01*
X140304880Y-62110952D01*
X140352500Y-62063333D01*
X140447738Y-62015714D01*
X140590595Y-62015714D01*
X140685833Y-62063333D01*
X140733452Y-62110952D01*
X140781071Y-62206190D01*
X140781071Y-62491904D01*
X140733452Y-62587142D01*
X140685833Y-62634761D01*
X140590595Y-62682380D01*
X140447738Y-62682380D01*
X141638214Y-62682380D02*
X141638214Y-62158571D01*
X141590595Y-62063333D01*
X141495357Y-62015714D01*
X141304880Y-62015714D01*
X141209642Y-62063333D01*
X141638214Y-62634761D02*
X141542976Y-62682380D01*
X141304880Y-62682380D01*
X141209642Y-62634761D01*
X141162023Y-62539523D01*
X141162023Y-62444285D01*
X141209642Y-62349047D01*
X141304880Y-62301428D01*
X141542976Y-62301428D01*
X141638214Y-62253809D01*
X142114404Y-62682380D02*
X142114404Y-62015714D01*
X142114404Y-62206190D02*
X142162023Y-62110952D01*
X142209642Y-62063333D01*
X142304880Y-62015714D01*
X142400119Y-62015714D01*
X143162023Y-62682380D02*
X143162023Y-61682380D01*
X143162023Y-62634761D02*
X143066785Y-62682380D01*
X142876309Y-62682380D01*
X142781071Y-62634761D01*
X142733452Y-62587142D01*
X142685833Y-62491904D01*
X142685833Y-62206190D01*
X142733452Y-62110952D01*
X142781071Y-62063333D01*
X142876309Y-62015714D01*
X143066785Y-62015714D01*
X143162023Y-62063333D01*
X135590595Y-64292380D02*
X135590595Y-63625714D01*
X135590595Y-63816190D02*
X135638214Y-63720952D01*
X135685833Y-63673333D01*
X135781071Y-63625714D01*
X135876309Y-63625714D01*
X136590595Y-64244761D02*
X136495357Y-64292380D01*
X136304880Y-64292380D01*
X136209642Y-64244761D01*
X136162023Y-64149523D01*
X136162023Y-63768571D01*
X136209642Y-63673333D01*
X136304880Y-63625714D01*
X136495357Y-63625714D01*
X136590595Y-63673333D01*
X136638214Y-63768571D01*
X136638214Y-63863809D01*
X136162023Y-63959047D01*
X136971547Y-63625714D02*
X137209642Y-64292380D01*
X137447738Y-63625714D01*
X138781071Y-63292380D02*
X138876309Y-63292380D01*
X138971547Y-63340000D01*
X139019166Y-63387619D01*
X139066785Y-63482857D01*
X139114404Y-63673333D01*
X139114404Y-63911428D01*
X139066785Y-64101904D01*
X139019166Y-64197142D01*
X138971547Y-64244761D01*
X138876309Y-64292380D01*
X138781071Y-64292380D01*
X138685833Y-64244761D01*
X138638214Y-64197142D01*
X138590595Y-64101904D01*
X138542976Y-63911428D01*
X138542976Y-63673333D01*
X138590595Y-63482857D01*
X138638214Y-63387619D01*
X138685833Y-63340000D01*
X138781071Y-63292380D01*
X128722380Y-75985238D02*
X127722380Y-75985238D01*
X127722380Y-75604285D01*
X127770000Y-75509047D01*
X127817619Y-75461428D01*
X127912857Y-75413809D01*
X128055714Y-75413809D01*
X128150952Y-75461428D01*
X128198571Y-75509047D01*
X128246190Y-75604285D01*
X128246190Y-75985238D01*
X128627142Y-74413809D02*
X128674761Y-74461428D01*
X128722380Y-74604285D01*
X128722380Y-74699523D01*
X128674761Y-74842380D01*
X128579523Y-74937619D01*
X128484285Y-74985238D01*
X128293809Y-75032857D01*
X128150952Y-75032857D01*
X127960476Y-74985238D01*
X127865238Y-74937619D01*
X127770000Y-74842380D01*
X127722380Y-74699523D01*
X127722380Y-74604285D01*
X127770000Y-74461428D01*
X127817619Y-74413809D01*
X128436666Y-74032857D02*
X128436666Y-73556666D01*
X128722380Y-74128095D02*
X127722380Y-73794761D01*
X128722380Y-73461428D01*
X128722380Y-73080476D02*
X128722380Y-72890000D01*
X128674761Y-72794761D01*
X128627142Y-72747142D01*
X128484285Y-72651904D01*
X128293809Y-72604285D01*
X127912857Y-72604285D01*
X127817619Y-72651904D01*
X127770000Y-72699523D01*
X127722380Y-72794761D01*
X127722380Y-72985238D01*
X127770000Y-73080476D01*
X127817619Y-73128095D01*
X127912857Y-73175714D01*
X128150952Y-73175714D01*
X128246190Y-73128095D01*
X128293809Y-73080476D01*
X128341428Y-72985238D01*
X128341428Y-72794761D01*
X128293809Y-72699523D01*
X128246190Y-72651904D01*
X128150952Y-72604285D01*
X127722380Y-71699523D02*
X127722380Y-72175714D01*
X128198571Y-72223333D01*
X128150952Y-72175714D01*
X128103333Y-72080476D01*
X128103333Y-71842380D01*
X128150952Y-71747142D01*
X128198571Y-71699523D01*
X128293809Y-71651904D01*
X128531904Y-71651904D01*
X128627142Y-71699523D01*
X128674761Y-71747142D01*
X128722380Y-71842380D01*
X128722380Y-72080476D01*
X128674761Y-72175714D01*
X128627142Y-72223333D01*
X127722380Y-70747142D02*
X127722380Y-71223333D01*
X128198571Y-71270952D01*
X128150952Y-71223333D01*
X128103333Y-71128095D01*
X128103333Y-70890000D01*
X128150952Y-70794761D01*
X128198571Y-70747142D01*
X128293809Y-70699523D01*
X128531904Y-70699523D01*
X128627142Y-70747142D01*
X128674761Y-70794761D01*
X128722380Y-70890000D01*
X128722380Y-71128095D01*
X128674761Y-71223333D01*
X128627142Y-71270952D01*
X127722380Y-69794761D02*
X127722380Y-70270952D01*
X128198571Y-70318571D01*
X128150952Y-70270952D01*
X128103333Y-70175714D01*
X128103333Y-69937619D01*
X128150952Y-69842380D01*
X128198571Y-69794761D01*
X128293809Y-69747142D01*
X128531904Y-69747142D01*
X128627142Y-69794761D01*
X128674761Y-69842380D01*
X128722380Y-69937619D01*
X128722380Y-70175714D01*
X128674761Y-70270952D01*
X128627142Y-70318571D01*
X128722380Y-69318571D02*
X127722380Y-69318571D01*
X127722380Y-69080476D01*
X127770000Y-68937619D01*
X127865238Y-68842380D01*
X127960476Y-68794761D01*
X128150952Y-68747142D01*
X128293809Y-68747142D01*
X128484285Y-68794761D01*
X128579523Y-68842380D01*
X128674761Y-68937619D01*
X128722380Y-69080476D01*
X128722380Y-69318571D01*
X116302500Y-77910000D02*
X116778690Y-77910000D01*
X116540595Y-79192380D02*
X116540595Y-78192380D01*
X116778690Y-77910000D02*
X117826309Y-77910000D01*
X117016785Y-79192380D02*
X117016785Y-78192380D01*
X117588214Y-79192380D01*
X117588214Y-78192380D01*
X117826309Y-77910000D02*
X118588214Y-77910000D01*
X117921547Y-78192380D02*
X118492976Y-78192380D01*
X118207261Y-79192380D02*
X118207261Y-78192380D01*
X118588214Y-77910000D02*
X119540595Y-77910000D01*
X119350119Y-79192380D02*
X118778690Y-79192380D01*
X119064404Y-79192380D02*
X119064404Y-78192380D01*
X118969166Y-78335238D01*
X118873928Y-78430476D01*
X118778690Y-78478095D01*
X116302500Y-75400000D02*
X116778690Y-75400000D01*
X116540595Y-76682380D02*
X116540595Y-75682380D01*
X116778690Y-75400000D02*
X117826309Y-75400000D01*
X117016785Y-76682380D02*
X117016785Y-75682380D01*
X117588214Y-76682380D01*
X117588214Y-75682380D01*
X117826309Y-75400000D02*
X118588214Y-75400000D01*
X117921547Y-75682380D02*
X118492976Y-75682380D01*
X118207261Y-76682380D02*
X118207261Y-75682380D01*
X118588214Y-75400000D02*
X119540595Y-75400000D01*
X119016785Y-75682380D02*
X119112023Y-75682380D01*
X119207261Y-75730000D01*
X119254880Y-75777619D01*
X119302500Y-75872857D01*
X119350119Y-76063333D01*
X119350119Y-76301428D01*
X119302500Y-76491904D01*
X119254880Y-76587142D01*
X119207261Y-76634761D01*
X119112023Y-76682380D01*
X119016785Y-76682380D01*
X118921547Y-76634761D01*
X118873928Y-76587142D01*
X118826309Y-76491904D01*
X118778690Y-76301428D01*
X118778690Y-76063333D01*
X118826309Y-75872857D01*
X118873928Y-75777619D01*
X118921547Y-75730000D01*
X119016785Y-75682380D01*
X116540595Y-68651428D02*
X117302500Y-68651428D01*
X116921547Y-69032380D02*
X116921547Y-68270476D01*
X117683452Y-68032380D02*
X118302500Y-68032380D01*
X117969166Y-68413333D01*
X118112023Y-68413333D01*
X118207261Y-68460952D01*
X118254880Y-68508571D01*
X118302500Y-68603809D01*
X118302500Y-68841904D01*
X118254880Y-68937142D01*
X118207261Y-68984761D01*
X118112023Y-69032380D01*
X117826309Y-69032380D01*
X117731071Y-68984761D01*
X117683452Y-68937142D01*
X118731071Y-68937142D02*
X118778690Y-68984761D01*
X118731071Y-69032380D01*
X118683452Y-68984761D01*
X118731071Y-68937142D01*
X118731071Y-69032380D01*
X119112023Y-68032380D02*
X119731071Y-68032380D01*
X119397738Y-68413333D01*
X119540595Y-68413333D01*
X119635833Y-68460952D01*
X119683452Y-68508571D01*
X119731071Y-68603809D01*
X119731071Y-68841904D01*
X119683452Y-68937142D01*
X119635833Y-68984761D01*
X119540595Y-69032380D01*
X119254880Y-69032380D01*
X119159642Y-68984761D01*
X119112023Y-68937142D01*
X120064404Y-68365714D02*
X120302500Y-69032380D01*
X120540595Y-68365714D01*
X116492976Y-74064761D02*
X116635833Y-74112380D01*
X116873928Y-74112380D01*
X116969166Y-74064761D01*
X117016785Y-74017142D01*
X117064404Y-73921904D01*
X117064404Y-73826666D01*
X117016785Y-73731428D01*
X116969166Y-73683809D01*
X116873928Y-73636190D01*
X116683452Y-73588571D01*
X116588214Y-73540952D01*
X116540595Y-73493333D01*
X116492976Y-73398095D01*
X116492976Y-73302857D01*
X116540595Y-73207619D01*
X116588214Y-73160000D01*
X116683452Y-73112380D01*
X116921547Y-73112380D01*
X117064404Y-73160000D01*
X117492976Y-74112380D02*
X117492976Y-73112380D01*
X117731071Y-73112380D01*
X117873928Y-73160000D01*
X117969166Y-73255238D01*
X118016785Y-73350476D01*
X118064404Y-73540952D01*
X118064404Y-73683809D01*
X118016785Y-73874285D01*
X117969166Y-73969523D01*
X117873928Y-74064761D01*
X117731071Y-74112380D01*
X117492976Y-74112380D01*
X118445357Y-73826666D02*
X118921547Y-73826666D01*
X118350119Y-74112380D02*
X118683452Y-73112380D01*
X119016785Y-74112380D01*
X130510595Y-112212380D02*
X130510595Y-111212380D01*
X130939166Y-112212380D02*
X130939166Y-111688571D01*
X130891547Y-111593333D01*
X130796309Y-111545714D01*
X130653452Y-111545714D01*
X130558214Y-111593333D01*
X130510595Y-111640952D01*
X131415357Y-112212380D02*
X131415357Y-111545714D01*
X131415357Y-111212380D02*
X131367738Y-111260000D01*
X131415357Y-111307619D01*
X131462976Y-111260000D01*
X131415357Y-111212380D01*
X131415357Y-111307619D01*
X132320119Y-111545714D02*
X132320119Y-112355238D01*
X132272500Y-112450476D01*
X132224880Y-112498095D01*
X132129642Y-112545714D01*
X131986785Y-112545714D01*
X131891547Y-112498095D01*
X132320119Y-112164761D02*
X132224880Y-112212380D01*
X132034404Y-112212380D01*
X131939166Y-112164761D01*
X131891547Y-112117142D01*
X131843928Y-112021904D01*
X131843928Y-111736190D01*
X131891547Y-111640952D01*
X131939166Y-111593333D01*
X132034404Y-111545714D01*
X132224880Y-111545714D01*
X132320119Y-111593333D01*
X132796309Y-112212380D02*
X132796309Y-111212380D01*
X133224880Y-112212380D02*
X133224880Y-111688571D01*
X133177261Y-111593333D01*
X133082023Y-111545714D01*
X132939166Y-111545714D01*
X132843928Y-111593333D01*
X132796309Y-111640952D01*
X111841542Y-110656666D02*
X112317733Y-110656666D01*
X111746304Y-110942380D02*
X112079638Y-109942380D01*
X112412971Y-110942380D01*
X112746304Y-110942380D02*
X112746304Y-109942380D01*
X112984400Y-109942380D01*
X113127257Y-109990000D01*
X113222495Y-110085238D01*
X113270114Y-110180476D01*
X113317733Y-110370952D01*
X113317733Y-110513809D01*
X113270114Y-110704285D01*
X113222495Y-110799523D01*
X113127257Y-110894761D01*
X112984400Y-110942380D01*
X112746304Y-110942380D01*
X113746304Y-110942380D02*
X113746304Y-109942380D01*
X113984400Y-109942380D01*
X114127257Y-109990000D01*
X114222495Y-110085238D01*
X114270114Y-110180476D01*
X114317733Y-110370952D01*
X114317733Y-110513809D01*
X114270114Y-110704285D01*
X114222495Y-110799523D01*
X114127257Y-110894761D01*
X113984400Y-110942380D01*
X113746304Y-110942380D01*
X115317733Y-110942380D02*
X114984400Y-110466190D01*
X114746304Y-110942380D02*
X114746304Y-109942380D01*
X115127257Y-109942380D01*
X115222495Y-109990000D01*
X115270114Y-110037619D01*
X115317733Y-110132857D01*
X115317733Y-110275714D01*
X115270114Y-110370952D01*
X115222495Y-110418571D01*
X115127257Y-110466190D01*
X114746304Y-110466190D01*
X117032019Y-110942380D02*
X116460590Y-110942380D01*
X116746304Y-110942380D02*
X116746304Y-109942380D01*
X116651066Y-110085238D01*
X116555828Y-110180476D01*
X116460590Y-110228095D01*
X117889161Y-109942380D02*
X117698685Y-109942380D01*
X117603447Y-109990000D01*
X117555828Y-110037619D01*
X117460590Y-110180476D01*
X117412971Y-110370952D01*
X117412971Y-110751904D01*
X117460590Y-110847142D01*
X117508209Y-110894761D01*
X117603447Y-110942380D01*
X117793923Y-110942380D01*
X117889161Y-110894761D01*
X117936780Y-110847142D01*
X117984400Y-110751904D01*
X117984400Y-110513809D01*
X117936780Y-110418571D01*
X117889161Y-110370952D01*
X117793923Y-110323333D01*
X117603447Y-110323333D01*
X117508209Y-110370952D01*
X117460590Y-110418571D01*
X117412971Y-110513809D01*
X118412971Y-110561428D02*
X119174876Y-110561428D01*
X119555828Y-109942380D02*
X120174876Y-109942380D01*
X119841542Y-110323333D01*
X119984400Y-110323333D01*
X120079638Y-110370952D01*
X120127257Y-110418571D01*
X120174876Y-110513809D01*
X120174876Y-110751904D01*
X120127257Y-110847142D01*
X120079638Y-110894761D01*
X119984400Y-110942380D01*
X119698685Y-110942380D01*
X119603447Y-110894761D01*
X119555828Y-110847142D01*
X121127257Y-110942380D02*
X120555828Y-110942380D01*
X120841542Y-110942380D02*
X120841542Y-109942380D01*
X120746304Y-110085238D01*
X120651066Y-110180476D01*
X120555828Y-110228095D01*
X143294166Y-65209161D02*
X143437023Y-65256780D01*
X143675119Y-65256780D01*
X143770357Y-65209161D01*
X143817976Y-65161542D01*
X143865595Y-65066304D01*
X143865595Y-64971066D01*
X143817976Y-64875828D01*
X143770357Y-64828209D01*
X143675119Y-64780590D01*
X143484642Y-64732971D01*
X143389404Y-64685352D01*
X143341785Y-64637733D01*
X143294166Y-64542495D01*
X143294166Y-64447257D01*
X143341785Y-64352019D01*
X143389404Y-64304400D01*
X143484642Y-64256780D01*
X143722738Y-64256780D01*
X143865595Y-64304400D01*
X144198928Y-64256780D02*
X144437023Y-65256780D01*
X144627500Y-64542495D01*
X144817976Y-65256780D01*
X145056071Y-64256780D01*
X145960833Y-65256780D02*
X145389404Y-65256780D01*
X145675119Y-65256780D02*
X145675119Y-64256780D01*
X145579880Y-64399638D01*
X145484642Y-64494876D01*
X145389404Y-64542495D01*
X154114666Y-113231561D02*
X154257523Y-113279180D01*
X154495619Y-113279180D01*
X154590857Y-113231561D01*
X154638476Y-113183942D01*
X154686095Y-113088704D01*
X154686095Y-112993466D01*
X154638476Y-112898228D01*
X154590857Y-112850609D01*
X154495619Y-112802990D01*
X154305142Y-112755371D01*
X154209904Y-112707752D01*
X154162285Y-112660133D01*
X154114666Y-112564895D01*
X154114666Y-112469657D01*
X154162285Y-112374419D01*
X154209904Y-112326800D01*
X154305142Y-112279180D01*
X154543238Y-112279180D01*
X154686095Y-112326800D01*
X155019428Y-112279180D02*
X155257523Y-113279180D01*
X155448000Y-112564895D01*
X155638476Y-113279180D01*
X155876571Y-112279180D01*
X156686095Y-112612514D02*
X156686095Y-113279180D01*
X156448000Y-112231561D02*
X156209904Y-112945847D01*
X156828952Y-112945847D01*
X123505933Y-59970942D02*
X123458314Y-60018561D01*
X123315457Y-60066180D01*
X123220219Y-60066180D01*
X123077361Y-60018561D01*
X122982123Y-59923323D01*
X122934504Y-59828085D01*
X122886885Y-59637609D01*
X122886885Y-59494752D01*
X122934504Y-59304276D01*
X122982123Y-59209038D01*
X123077361Y-59113800D01*
X123220219Y-59066180D01*
X123315457Y-59066180D01*
X123458314Y-59113800D01*
X123505933Y-59161419D01*
X124458314Y-60066180D02*
X123886885Y-60066180D01*
X124172600Y-60066180D02*
X124172600Y-59066180D01*
X124077361Y-59209038D01*
X123982123Y-59304276D01*
X123886885Y-59351895D01*
X121537504Y-118232180D02*
X121537504Y-117232180D01*
X121775600Y-117232180D01*
X121918457Y-117279800D01*
X122013695Y-117375038D01*
X122061314Y-117470276D01*
X122108933Y-117660752D01*
X122108933Y-117803609D01*
X122061314Y-117994085D01*
X122013695Y-118089323D01*
X121918457Y-118184561D01*
X121775600Y-118232180D01*
X121537504Y-118232180D01*
X123061314Y-118232180D02*
X122489885Y-118232180D01*
X122775600Y-118232180D02*
X122775600Y-117232180D01*
X122680361Y-117375038D01*
X122585123Y-117470276D01*
X122489885Y-117517895D01*
X118046833Y-85542380D02*
X117713500Y-85066190D01*
X117475404Y-85542380D02*
X117475404Y-84542380D01*
X117856357Y-84542380D01*
X117951595Y-84590000D01*
X117999214Y-84637619D01*
X118046833Y-84732857D01*
X118046833Y-84875714D01*
X117999214Y-84970952D01*
X117951595Y-85018571D01*
X117856357Y-85066190D01*
X117475404Y-85066190D01*
X118999214Y-85542380D02*
X118427785Y-85542380D01*
X118713500Y-85542380D02*
X118713500Y-84542380D01*
X118618261Y-84685238D01*
X118523023Y-84780476D01*
X118427785Y-84828095D01*
X143294266Y-113231561D02*
X143437123Y-113279180D01*
X143675219Y-113279180D01*
X143770457Y-113231561D01*
X143818076Y-113183942D01*
X143865695Y-113088704D01*
X143865695Y-112993466D01*
X143818076Y-112898228D01*
X143770457Y-112850609D01*
X143675219Y-112802990D01*
X143484742Y-112755371D01*
X143389504Y-112707752D01*
X143341885Y-112660133D01*
X143294266Y-112564895D01*
X143294266Y-112469657D01*
X143341885Y-112374419D01*
X143389504Y-112326800D01*
X143484742Y-112279180D01*
X143722838Y-112279180D01*
X143865695Y-112326800D01*
X144199028Y-112279180D02*
X144437123Y-113279180D01*
X144627600Y-112564895D01*
X144818076Y-113279180D01*
X145056171Y-112279180D01*
X145389504Y-112374419D02*
X145437123Y-112326800D01*
X145532361Y-112279180D01*
X145770457Y-112279180D01*
X145865695Y-112326800D01*
X145913314Y-112374419D01*
X145960933Y-112469657D01*
X145960933Y-112564895D01*
X145913314Y-112707752D01*
X145341885Y-113279180D01*
X145960933Y-113279180D01*
X113966666Y-65702380D02*
X113966666Y-66416666D01*
X113919047Y-66559523D01*
X113823809Y-66654761D01*
X113680952Y-66702380D01*
X113585714Y-66702380D01*
X114966666Y-66702380D02*
X114395238Y-66702380D01*
X114680952Y-66702380D02*
X114680952Y-65702380D01*
X114585714Y-65845238D01*
X114490476Y-65940476D01*
X114395238Y-65988095D01*
X127508095Y-89862380D02*
X127508095Y-90671904D01*
X127555714Y-90767142D01*
X127603333Y-90814761D01*
X127698571Y-90862380D01*
X127889047Y-90862380D01*
X127984285Y-90814761D01*
X128031904Y-90767142D01*
X128079523Y-90671904D01*
X128079523Y-89862380D01*
X128508095Y-89957619D02*
X128555714Y-89910000D01*
X128650952Y-89862380D01*
X128889047Y-89862380D01*
X128984285Y-89910000D01*
X129031904Y-89957619D01*
X129079523Y-90052857D01*
X129079523Y-90148095D01*
X129031904Y-90290952D01*
X128460476Y-90862380D01*
X129079523Y-90862380D01*
X118046833Y-88082380D02*
X117713500Y-87606190D01*
X117475404Y-88082380D02*
X117475404Y-87082380D01*
X117856357Y-87082380D01*
X117951595Y-87130000D01*
X117999214Y-87177619D01*
X118046833Y-87272857D01*
X118046833Y-87415714D01*
X117999214Y-87510952D01*
X117951595Y-87558571D01*
X117856357Y-87606190D01*
X117475404Y-87606190D01*
X118427785Y-87177619D02*
X118475404Y-87130000D01*
X118570642Y-87082380D01*
X118808738Y-87082380D01*
X118903976Y-87130000D01*
X118951595Y-87177619D01*
X118999214Y-87272857D01*
X118999214Y-87368095D01*
X118951595Y-87510952D01*
X118380166Y-88082380D01*
X118999214Y-88082380D01*
X131786333Y-88139542D02*
X131738714Y-88187161D01*
X131595857Y-88234780D01*
X131500619Y-88234780D01*
X131357761Y-88187161D01*
X131262523Y-88091923D01*
X131214904Y-87996685D01*
X131167285Y-87806209D01*
X131167285Y-87663352D01*
X131214904Y-87472876D01*
X131262523Y-87377638D01*
X131357761Y-87282400D01*
X131500619Y-87234780D01*
X131595857Y-87234780D01*
X131738714Y-87282400D01*
X131786333Y-87330019D01*
X132119666Y-87234780D02*
X132738714Y-87234780D01*
X132405380Y-87615733D01*
X132548238Y-87615733D01*
X132643476Y-87663352D01*
X132691095Y-87710971D01*
X132738714Y-87806209D01*
X132738714Y-88044304D01*
X132691095Y-88139542D01*
X132643476Y-88187161D01*
X132548238Y-88234780D01*
X132262523Y-88234780D01*
X132167285Y-88187161D01*
X132119666Y-88139542D01*
X153860666Y-65209161D02*
X154003523Y-65256780D01*
X154241619Y-65256780D01*
X154336857Y-65209161D01*
X154384476Y-65161542D01*
X154432095Y-65066304D01*
X154432095Y-64971066D01*
X154384476Y-64875828D01*
X154336857Y-64828209D01*
X154241619Y-64780590D01*
X154051142Y-64732971D01*
X153955904Y-64685352D01*
X153908285Y-64637733D01*
X153860666Y-64542495D01*
X153860666Y-64447257D01*
X153908285Y-64352019D01*
X153955904Y-64304400D01*
X154051142Y-64256780D01*
X154289238Y-64256780D01*
X154432095Y-64304400D01*
X154765428Y-64256780D02*
X155003523Y-65256780D01*
X155194000Y-64542495D01*
X155384476Y-65256780D01*
X155622571Y-64256780D01*
X155908285Y-64256780D02*
X156527333Y-64256780D01*
X156194000Y-64637733D01*
X156336857Y-64637733D01*
X156432095Y-64685352D01*
X156479714Y-64732971D01*
X156527333Y-64828209D01*
X156527333Y-65066304D01*
X156479714Y-65161542D01*
X156432095Y-65209161D01*
X156336857Y-65256780D01*
X156051142Y-65256780D01*
X155955904Y-65209161D01*
X155908285Y-65161542D01*
X124648933Y-118234480D02*
X124315600Y-117758290D01*
X124077504Y-118234480D02*
X124077504Y-117234480D01*
X124458457Y-117234480D01*
X124553695Y-117282100D01*
X124601314Y-117329719D01*
X124648933Y-117424957D01*
X124648933Y-117567814D01*
X124601314Y-117663052D01*
X124553695Y-117710671D01*
X124458457Y-117758290D01*
X124077504Y-117758290D01*
X125553695Y-117234480D02*
X125077504Y-117234480D01*
X125029885Y-117710671D01*
X125077504Y-117663052D01*
X125172742Y-117615433D01*
X125410838Y-117615433D01*
X125506076Y-117663052D01*
X125553695Y-117710671D01*
X125601314Y-117805909D01*
X125601314Y-118044004D01*
X125553695Y-118139242D01*
X125506076Y-118186861D01*
X125410838Y-118234480D01*
X125172742Y-118234480D01*
X125077504Y-118186861D01*
X125029885Y-118139242D01*
X127436666Y-108897380D02*
X127436666Y-109611666D01*
X127389047Y-109754523D01*
X127293809Y-109849761D01*
X127150952Y-109897380D01*
X127055714Y-109897380D01*
X127912857Y-109897380D02*
X127912857Y-108897380D01*
X128293809Y-108897380D01*
X128389047Y-108945000D01*
X128436666Y-108992619D01*
X128484285Y-109087857D01*
X128484285Y-109230714D01*
X128436666Y-109325952D01*
X128389047Y-109373571D01*
X128293809Y-109421190D01*
X127912857Y-109421190D01*
X129436666Y-109897380D02*
X128865238Y-109897380D01*
X129150952Y-109897380D02*
X129150952Y-108897380D01*
X129055714Y-109040238D01*
X128960476Y-109135476D01*
X128865238Y-109183095D01*
X118023333Y-93289380D02*
X117690000Y-92813190D01*
X117451904Y-93289380D02*
X117451904Y-92289380D01*
X117832857Y-92289380D01*
X117928095Y-92337000D01*
X117975714Y-92384619D01*
X118023333Y-92479857D01*
X118023333Y-92622714D01*
X117975714Y-92717952D01*
X117928095Y-92765571D01*
X117832857Y-92813190D01*
X117451904Y-92813190D01*
X118880476Y-92622714D02*
X118880476Y-93289380D01*
X118642380Y-92241761D02*
X118404285Y-92956047D01*
X119023333Y-92956047D01*
X126122133Y-59970942D02*
X126074514Y-60018561D01*
X125931657Y-60066180D01*
X125836419Y-60066180D01*
X125693561Y-60018561D01*
X125598323Y-59923323D01*
X125550704Y-59828085D01*
X125503085Y-59637609D01*
X125503085Y-59494752D01*
X125550704Y-59304276D01*
X125598323Y-59209038D01*
X125693561Y-59113800D01*
X125836419Y-59066180D01*
X125931657Y-59066180D01*
X126074514Y-59113800D01*
X126122133Y-59161419D01*
X126503085Y-59161419D02*
X126550704Y-59113800D01*
X126645942Y-59066180D01*
X126884038Y-59066180D01*
X126979276Y-59113800D01*
X127026895Y-59161419D01*
X127074514Y-59256657D01*
X127074514Y-59351895D01*
X127026895Y-59494752D01*
X126455466Y-60066180D01*
X127074514Y-60066180D01*
X118023333Y-90622380D02*
X117690000Y-90146190D01*
X117451904Y-90622380D02*
X117451904Y-89622380D01*
X117832857Y-89622380D01*
X117928095Y-89670000D01*
X117975714Y-89717619D01*
X118023333Y-89812857D01*
X118023333Y-89955714D01*
X117975714Y-90050952D01*
X117928095Y-90098571D01*
X117832857Y-90146190D01*
X117451904Y-90146190D01*
X118356666Y-89622380D02*
X118975714Y-89622380D01*
X118642380Y-90003333D01*
X118785238Y-90003333D01*
X118880476Y-90050952D01*
X118928095Y-90098571D01*
X118975714Y-90193809D01*
X118975714Y-90431904D01*
X118928095Y-90527142D01*
X118880476Y-90574761D01*
X118785238Y-90622380D01*
X118499523Y-90622380D01*
X118404285Y-90574761D01*
X118356666Y-90527142D01*
X127508095Y-63192380D02*
X127508095Y-64001904D01*
X127555714Y-64097142D01*
X127603333Y-64144761D01*
X127698571Y-64192380D01*
X127889047Y-64192380D01*
X127984285Y-64144761D01*
X128031904Y-64097142D01*
X128079523Y-64001904D01*
X128079523Y-63192380D01*
X129079523Y-64192380D02*
X128508095Y-64192380D01*
X128793809Y-64192380D02*
X128793809Y-63192380D01*
X128698571Y-63335238D01*
X128603333Y-63430476D01*
X128508095Y-63478095D01*
D11*
X118684800Y-97772000D02*
X120684800Y-97772000D01*
X120884800Y-101122000D02*
X121184800Y-101422000D01*
X120884800Y-101122000D02*
X121184800Y-100822000D01*
X120684800Y-101872000D02*
X118684800Y-101872000D01*
X118684800Y-101872000D02*
X118684800Y-97772000D01*
X120684800Y-97772000D02*
X120684800Y-101872000D01*
X121184800Y-101422000D02*
X121184800Y-100822000D01*
X142597500Y-72789400D02*
X143950833Y-72789400D01*
X142597500Y-84029400D02*
X143950833Y-84029400D01*
X142597500Y-83309400D02*
X143950833Y-83309400D01*
X142597500Y-76049400D02*
X143950833Y-76049400D01*
X142597500Y-75329400D02*
X143950833Y-75329400D01*
X142597500Y-79019400D02*
X146657500Y-79019400D01*
X142597500Y-67709400D02*
X143950833Y-67709400D01*
X142597500Y-76289400D02*
X143950833Y-76289400D01*
X142597500Y-86639400D02*
X146657500Y-86639400D01*
X146657500Y-80289400D02*
X142597500Y-80289400D01*
X142597500Y-73749400D02*
X143950833Y-73749400D01*
X142597500Y-83549400D02*
X143950833Y-83549400D01*
X142597500Y-78229400D02*
X143950833Y-78229400D01*
X142597500Y-75689400D02*
X143950833Y-75689400D01*
X142597500Y-76169400D02*
X143950833Y-76169400D01*
X142597500Y-81559400D02*
X146657500Y-81559400D01*
X142597500Y-67589400D02*
X142597500Y-68859400D01*
X142597500Y-83669400D02*
X143950833Y-83669400D01*
X142597500Y-78709400D02*
X143950833Y-78709400D01*
X146657500Y-85369400D02*
X142597500Y-85369400D01*
X142597500Y-85609400D02*
X143950833Y-85609400D01*
X142597500Y-85729400D02*
X143950833Y-85729400D01*
X142597500Y-80649400D02*
X143950833Y-80649400D01*
X142597500Y-73029400D02*
X143950833Y-73029400D01*
X142597500Y-78109400D02*
X143950833Y-78109400D01*
X146657500Y-67589400D02*
X142597500Y-67589400D01*
X142597500Y-77989400D02*
X143950833Y-77989400D01*
X146657500Y-68859400D02*
X146657500Y-67589400D01*
X142597500Y-86329400D02*
X143950833Y-86329400D01*
X142597500Y-73389400D02*
X143950833Y-73389400D01*
X142597500Y-80529400D02*
X143950833Y-80529400D01*
X142597500Y-70849400D02*
X143950833Y-70849400D01*
X142597500Y-73629400D02*
X143950833Y-73629400D01*
X139677500Y-65804400D02*
X139677500Y-88425400D01*
X142597500Y-67829400D02*
X143950833Y-67829400D01*
X143950833Y-77749400D02*
X143950833Y-79019400D01*
X142597500Y-78349400D02*
X143950833Y-78349400D01*
X142597500Y-83909400D02*
X143950833Y-83909400D01*
X146657500Y-84099400D02*
X146657500Y-82829400D01*
X142597500Y-73149400D02*
X143950833Y-73149400D01*
X146657500Y-77749400D02*
X142597500Y-77749400D01*
X142597500Y-73269400D02*
X143950833Y-73269400D01*
X142597500Y-77749400D02*
X142597500Y-79019400D01*
X142597500Y-86089400D02*
X143950833Y-86089400D01*
X146657500Y-73939400D02*
X146657500Y-72669400D01*
X146657500Y-72669400D02*
X142597500Y-72669400D01*
X142597500Y-83429400D02*
X143950833Y-83429400D01*
X142597500Y-70969400D02*
X143950833Y-70969400D01*
X142597500Y-75809400D02*
X143950833Y-75809400D01*
X142597500Y-76479400D02*
X146657500Y-76479400D01*
X146657500Y-81559400D02*
X146657500Y-80289400D01*
X142597500Y-68549400D02*
X143950833Y-68549400D01*
X142597500Y-83789400D02*
X143950833Y-83789400D01*
X142597500Y-83189400D02*
X143950833Y-83189400D01*
X142597500Y-72669400D02*
X142597500Y-73939400D01*
X142597500Y-86569400D02*
X143950833Y-86569400D01*
X142597500Y-75449400D02*
X143950833Y-75449400D01*
X142597500Y-85969400D02*
X143950833Y-85969400D01*
X142597500Y-78589400D02*
X143950833Y-78589400D01*
X143950833Y-75209400D02*
X143950833Y-76479400D01*
X142597500Y-71399400D02*
X146657500Y-71399400D01*
X142597500Y-80889400D02*
X143950833Y-80889400D01*
X143950833Y-72669400D02*
X143950833Y-73939400D01*
X142597500Y-85489400D02*
X143950833Y-85489400D01*
X142597500Y-70609400D02*
X143950833Y-70609400D01*
X146657500Y-70129400D02*
X142597500Y-70129400D01*
X142597500Y-85849400D02*
X143950833Y-85849400D01*
X142597500Y-81009400D02*
X143950833Y-81009400D01*
X143950833Y-80289400D02*
X143950833Y-81559400D01*
X142597500Y-70249400D02*
X143950833Y-70249400D01*
X142597500Y-70489400D02*
X143950833Y-70489400D01*
X146657500Y-79019400D02*
X146657500Y-77749400D01*
X142597500Y-72909400D02*
X143950833Y-72909400D01*
X143950833Y-67589400D02*
X143950833Y-68859400D01*
X142597500Y-81369400D02*
X143950833Y-81369400D01*
X142597500Y-68789400D02*
X143950833Y-68789400D01*
X139677500Y-88425400D02*
X149577500Y-88425400D01*
X139437500Y-65564400D02*
X140821500Y-65564400D01*
X143950833Y-82829400D02*
X143950833Y-84099400D01*
X142597500Y-78469400D02*
X143950833Y-78469400D01*
X142597500Y-68309400D02*
X143950833Y-68309400D01*
X142597500Y-84099400D02*
X146657500Y-84099400D01*
X146657500Y-71399400D02*
X146657500Y-70129400D01*
X142597500Y-67949400D02*
X143950833Y-67949400D01*
X143950833Y-85369400D02*
X143950833Y-86639400D01*
X142597500Y-68429400D02*
X143950833Y-68429400D01*
X142597500Y-86209400D02*
X143950833Y-86209400D01*
X139677500Y-65804400D02*
X149577500Y-65804400D01*
X142597500Y-75569400D02*
X143950833Y-75569400D01*
X142597500Y-68069400D02*
X143950833Y-68069400D01*
X142597500Y-80289400D02*
X142597500Y-81559400D01*
X142597500Y-82829400D02*
X142597500Y-84099400D01*
X146657500Y-86639400D02*
X146657500Y-85369400D01*
X142597500Y-68189400D02*
X143950833Y-68189400D01*
X142597500Y-80409400D02*
X143950833Y-80409400D01*
X142597500Y-78829400D02*
X143950833Y-78829400D01*
X142597500Y-70369400D02*
X143950833Y-70369400D01*
X142597500Y-73939400D02*
X146657500Y-73939400D01*
X142597500Y-68669400D02*
X143950833Y-68669400D01*
X142597500Y-77869400D02*
X143950833Y-77869400D01*
X142597500Y-78949400D02*
X143950833Y-78949400D01*
X142597500Y-75209400D02*
X142597500Y-76479400D01*
X142597500Y-85369400D02*
X142597500Y-86639400D01*
X146657500Y-82829400D02*
X142597500Y-82829400D01*
X142597500Y-71329400D02*
X143950833Y-71329400D01*
X142597500Y-73509400D02*
X143950833Y-73509400D01*
X149577500Y-65804400D02*
X149577500Y-88425400D01*
X142597500Y-83069400D02*
X143950833Y-83069400D01*
X142597500Y-82949400D02*
X143950833Y-82949400D01*
X142597500Y-80769400D02*
X143950833Y-80769400D01*
X142597500Y-68859400D02*
X146657500Y-68859400D01*
X146657500Y-75209400D02*
X142597500Y-75209400D01*
X142597500Y-76409400D02*
X143950833Y-76409400D01*
X146657500Y-76479400D02*
X146657500Y-75209400D01*
X143950833Y-70129400D02*
X143950833Y-71399400D01*
X142597500Y-81249400D02*
X143950833Y-81249400D01*
X142597500Y-70129400D02*
X142597500Y-71399400D01*
X142597500Y-81489400D02*
X143950833Y-81489400D01*
X142597500Y-86449400D02*
X143950833Y-86449400D01*
X142597500Y-71209400D02*
X143950833Y-71209400D01*
X142597500Y-73869400D02*
X143950833Y-73869400D01*
X139437500Y-65564400D02*
X139437500Y-66947400D01*
X142597500Y-81129400D02*
X143950833Y-81129400D01*
X142597500Y-70729400D02*
X143950833Y-70729400D01*
X142597500Y-71089400D02*
X143950833Y-71089400D01*
X142597500Y-75929400D02*
X143950833Y-75929400D01*
X154180000Y-94115800D02*
X155533333Y-94115800D01*
X154180000Y-101015800D02*
X154180000Y-102285800D01*
X151260000Y-111691800D02*
X161160000Y-111691800D01*
X154180000Y-104515800D02*
X155533333Y-104515800D01*
X155533333Y-106095800D02*
X155533333Y-107365800D01*
X161160000Y-89070800D02*
X161160000Y-111691800D01*
X154180000Y-96775800D02*
X155533333Y-96775800D01*
X158240000Y-95935800D02*
X154180000Y-95935800D01*
X154180000Y-109715800D02*
X155533333Y-109715800D01*
X158240000Y-97205800D02*
X158240000Y-95935800D01*
X154180000Y-109475800D02*
X155533333Y-109475800D01*
X151260000Y-89070800D02*
X151260000Y-111691800D01*
X154180000Y-94475800D02*
X155533333Y-94475800D01*
X154180000Y-91095800D02*
X155533333Y-91095800D01*
X154180000Y-108755800D02*
X155533333Y-108755800D01*
X154180000Y-101135800D02*
X155533333Y-101135800D01*
X154180000Y-104035800D02*
X155533333Y-104035800D01*
X155533333Y-101015800D02*
X155533333Y-102285800D01*
X154180000Y-95935800D02*
X154180000Y-97205800D01*
X154180000Y-92125800D02*
X158240000Y-92125800D01*
X151260000Y-89070800D02*
X161160000Y-89070800D01*
X158240000Y-93395800D02*
X154180000Y-93395800D01*
X155533333Y-93395800D02*
X155533333Y-94665800D01*
X154180000Y-102095800D02*
X155533333Y-102095800D01*
X154180000Y-103675800D02*
X155533333Y-103675800D01*
X154180000Y-107055800D02*
X155533333Y-107055800D01*
X154180000Y-103795800D02*
X155533333Y-103795800D01*
X158240000Y-108635800D02*
X154180000Y-108635800D01*
X154180000Y-104275800D02*
X155533333Y-104275800D01*
X154180000Y-106335800D02*
X155533333Y-106335800D01*
X154180000Y-101255800D02*
X155533333Y-101255800D01*
X154180000Y-102215800D02*
X155533333Y-102215800D01*
X158240000Y-90855800D02*
X154180000Y-90855800D01*
X154180000Y-109905800D02*
X158240000Y-109905800D01*
X158240000Y-99745800D02*
X158240000Y-98475800D01*
X154180000Y-107365800D02*
X158240000Y-107365800D01*
X155533333Y-90855800D02*
X155533333Y-92125800D01*
X155533333Y-108635800D02*
X155533333Y-109905800D01*
X154180000Y-108635800D02*
X154180000Y-109905800D01*
X154180000Y-93755800D02*
X155533333Y-93755800D01*
X154180000Y-99745800D02*
X158240000Y-99745800D01*
X155533333Y-95935800D02*
X155533333Y-97205800D01*
X154180000Y-101855800D02*
X155533333Y-101855800D01*
X154180000Y-99555800D02*
X155533333Y-99555800D01*
X154180000Y-108875800D02*
X155533333Y-108875800D01*
X154180000Y-98955800D02*
X155533333Y-98955800D01*
X154180000Y-109115800D02*
X155533333Y-109115800D01*
X154180000Y-106935800D02*
X155533333Y-106935800D01*
X158240000Y-103555800D02*
X154180000Y-103555800D01*
X154180000Y-106455800D02*
X155533333Y-106455800D01*
X154180000Y-94235800D02*
X155533333Y-94235800D01*
X154180000Y-107175800D02*
X155533333Y-107175800D01*
X154180000Y-90975800D02*
X155533333Y-90975800D01*
X154180000Y-93515800D02*
X155533333Y-93515800D01*
X154180000Y-91935800D02*
X155533333Y-91935800D01*
X154180000Y-91215800D02*
X155533333Y-91215800D01*
X154180000Y-106815800D02*
X155533333Y-106815800D01*
X154180000Y-97205800D02*
X158240000Y-97205800D01*
X154180000Y-93995800D02*
X155533333Y-93995800D01*
X154180000Y-96655800D02*
X155533333Y-96655800D01*
X154180000Y-93395800D02*
X154180000Y-94665800D01*
X158240000Y-106095800D02*
X154180000Y-106095800D01*
X158240000Y-109905800D02*
X158240000Y-108635800D01*
X158240000Y-101015800D02*
X154180000Y-101015800D01*
X154180000Y-109835800D02*
X155533333Y-109835800D01*
X154180000Y-103915800D02*
X155533333Y-103915800D01*
X154180000Y-94665800D02*
X158240000Y-94665800D01*
X154180000Y-107295800D02*
X155533333Y-107295800D01*
X154180000Y-109355800D02*
X155533333Y-109355800D01*
X154180000Y-106215800D02*
X155533333Y-106215800D01*
X154180000Y-101615800D02*
X155533333Y-101615800D01*
X154180000Y-99315800D02*
X155533333Y-99315800D01*
X154180000Y-97135800D02*
X155533333Y-97135800D01*
X158240000Y-94665800D02*
X158240000Y-93395800D01*
X154180000Y-109235800D02*
X155533333Y-109235800D01*
X154180000Y-93875800D02*
X155533333Y-93875800D01*
X155533333Y-103555800D02*
X155533333Y-104825800D01*
X154180000Y-101375800D02*
X155533333Y-101375800D01*
X154180000Y-108995800D02*
X155533333Y-108995800D01*
X154180000Y-99435800D02*
X155533333Y-99435800D01*
X154180000Y-106695800D02*
X155533333Y-106695800D01*
X154180000Y-101975800D02*
X155533333Y-101975800D01*
X154180000Y-91335800D02*
X155533333Y-91335800D01*
X154180000Y-93635800D02*
X155533333Y-93635800D01*
X154180000Y-96415800D02*
X155533333Y-96415800D01*
X154180000Y-94595800D02*
X155533333Y-94595800D01*
X154180000Y-96535800D02*
X155533333Y-96535800D01*
X154180000Y-104755800D02*
X155533333Y-104755800D01*
X151020000Y-88830800D02*
X151020000Y-90213800D01*
X154180000Y-92055800D02*
X155533333Y-92055800D01*
X154180000Y-104825800D02*
X158240000Y-104825800D01*
X154180000Y-104395800D02*
X155533333Y-104395800D01*
X154180000Y-91575800D02*
X155533333Y-91575800D01*
X154180000Y-106575800D02*
X155533333Y-106575800D01*
X154180000Y-96895800D02*
X155533333Y-96895800D01*
X154180000Y-106095800D02*
X154180000Y-107365800D01*
X154180000Y-96055800D02*
X155533333Y-96055800D01*
X158240000Y-104825800D02*
X158240000Y-103555800D01*
X154180000Y-96175800D02*
X155533333Y-96175800D01*
X154180000Y-98595800D02*
X155533333Y-98595800D01*
X154180000Y-104635800D02*
X155533333Y-104635800D01*
X154180000Y-99195800D02*
X155533333Y-99195800D01*
X154180000Y-98835800D02*
X155533333Y-98835800D01*
X154180000Y-98715800D02*
X155533333Y-98715800D01*
X154180000Y-109595800D02*
X155533333Y-109595800D01*
X154180000Y-98475800D02*
X154180000Y-99745800D01*
X158240000Y-102285800D02*
X158240000Y-101015800D01*
X154180000Y-94355800D02*
X155533333Y-94355800D01*
X154180000Y-97015800D02*
X155533333Y-97015800D01*
X158240000Y-107365800D02*
X158240000Y-106095800D01*
X154180000Y-101495800D02*
X155533333Y-101495800D01*
X155533333Y-98475800D02*
X155533333Y-99745800D01*
X154180000Y-91455800D02*
X155533333Y-91455800D01*
X158240000Y-92125800D02*
X158240000Y-90855800D01*
X154180000Y-99075800D02*
X155533333Y-99075800D01*
X154180000Y-91695800D02*
X155533333Y-91695800D01*
X151020000Y-88830800D02*
X152404000Y-88830800D01*
X154180000Y-90855800D02*
X154180000Y-92125800D01*
X158240000Y-98475800D02*
X154180000Y-98475800D01*
X154180000Y-103555800D02*
X154180000Y-104825800D01*
X154180000Y-96295800D02*
X155533333Y-96295800D01*
X154180000Y-101735800D02*
X155533333Y-101735800D01*
X154180000Y-104155800D02*
X155533333Y-104155800D01*
X154180000Y-99675800D02*
X155533333Y-99675800D01*
X154180000Y-102285800D02*
X158240000Y-102285800D01*
X154180000Y-91815800D02*
X155533333Y-91815800D01*
X122912200Y-62171252D02*
X122912200Y-61648748D01*
X124382200Y-62171252D02*
X124382200Y-61648748D01*
X121315600Y-114239800D02*
X121315600Y-116924800D01*
X121315600Y-116924800D02*
X123235600Y-116924800D01*
X123235600Y-116924800D02*
X123235600Y-114239800D01*
X115797064Y-84355000D02*
X115342936Y-84355000D01*
X115797064Y-85825000D02*
X115342936Y-85825000D01*
X143950933Y-98475800D02*
X143950933Y-99745800D01*
X142597600Y-107055800D02*
X143950933Y-107055800D01*
X142597600Y-91335800D02*
X143950933Y-91335800D01*
X139677600Y-111691800D02*
X149577600Y-111691800D01*
X142597600Y-108995800D02*
X143950933Y-108995800D01*
X142597600Y-104395800D02*
X143950933Y-104395800D01*
X146657600Y-101015800D02*
X142597600Y-101015800D01*
X142597600Y-96535800D02*
X143950933Y-96535800D01*
X142597600Y-90975800D02*
X143950933Y-90975800D01*
X142597600Y-97015800D02*
X143950933Y-97015800D01*
X142597600Y-98715800D02*
X143950933Y-98715800D01*
X142597600Y-96295800D02*
X143950933Y-96295800D01*
X142597600Y-98835800D02*
X143950933Y-98835800D01*
X142597600Y-104755800D02*
X143950933Y-104755800D01*
X142597600Y-98595800D02*
X143950933Y-98595800D01*
X143950933Y-106095800D02*
X143950933Y-107365800D01*
X142597600Y-106695800D02*
X143950933Y-106695800D01*
X142597600Y-109905800D02*
X146657600Y-109905800D01*
X142597600Y-101855800D02*
X143950933Y-101855800D01*
X142597600Y-101015800D02*
X142597600Y-102285800D01*
X142597600Y-99555800D02*
X143950933Y-99555800D01*
X143950933Y-93395800D02*
X143950933Y-94665800D01*
X142597600Y-94235800D02*
X143950933Y-94235800D01*
X142597600Y-104035800D02*
X143950933Y-104035800D01*
X142597600Y-103795800D02*
X143950933Y-103795800D01*
X142597600Y-107365800D02*
X146657600Y-107365800D01*
X146657600Y-90855800D02*
X142597600Y-90855800D01*
X146657600Y-102285800D02*
X146657600Y-101015800D01*
X142597600Y-107175800D02*
X143950933Y-107175800D01*
X142597600Y-96655800D02*
X143950933Y-96655800D01*
X142597600Y-106095800D02*
X142597600Y-107365800D01*
X142597600Y-98955800D02*
X143950933Y-98955800D01*
X142597600Y-106455800D02*
X143950933Y-106455800D01*
X142597600Y-106575800D02*
X143950933Y-106575800D01*
X139677600Y-89070800D02*
X139677600Y-111691800D01*
X142597600Y-102215800D02*
X143950933Y-102215800D01*
X146657600Y-108635800D02*
X142597600Y-108635800D01*
X142597600Y-104635800D02*
X143950933Y-104635800D01*
X146657600Y-94665800D02*
X146657600Y-93395800D01*
X142597600Y-103675800D02*
X143950933Y-103675800D01*
X143950933Y-103555800D02*
X143950933Y-104825800D01*
X142597600Y-99435800D02*
X143950933Y-99435800D01*
X142597600Y-92055800D02*
X143950933Y-92055800D01*
X142597600Y-95935800D02*
X142597600Y-97205800D01*
X146657600Y-97205800D02*
X146657600Y-95935800D01*
X142597600Y-99745800D02*
X146657600Y-99745800D01*
X142597600Y-109835800D02*
X143950933Y-109835800D01*
X142597600Y-96895800D02*
X143950933Y-96895800D01*
X142597600Y-109715800D02*
X143950933Y-109715800D01*
X142597600Y-94475800D02*
X143950933Y-94475800D01*
X142597600Y-108635800D02*
X142597600Y-109905800D01*
X142597600Y-106815800D02*
X143950933Y-106815800D01*
X146657600Y-92125800D02*
X146657600Y-90855800D01*
X142597600Y-107295800D02*
X143950933Y-107295800D01*
X142597600Y-101615800D02*
X143950933Y-101615800D01*
X142597600Y-93635800D02*
X143950933Y-93635800D01*
X142597600Y-91815800D02*
X143950933Y-91815800D01*
X142597600Y-106215800D02*
X143950933Y-106215800D01*
X146657600Y-104825800D02*
X146657600Y-103555800D01*
X143950933Y-101015800D02*
X143950933Y-102285800D01*
X142597600Y-108875800D02*
X143950933Y-108875800D01*
X142597600Y-99675800D02*
X143950933Y-99675800D01*
X146657600Y-106095800D02*
X142597600Y-106095800D01*
X139437600Y-88830800D02*
X139437600Y-90213800D01*
X142597600Y-93755800D02*
X143950933Y-93755800D01*
X142597600Y-104515800D02*
X143950933Y-104515800D01*
X142597600Y-98475800D02*
X142597600Y-99745800D01*
X142597600Y-106935800D02*
X143950933Y-106935800D01*
X142597600Y-97205800D02*
X146657600Y-97205800D01*
X142597600Y-99315800D02*
X143950933Y-99315800D01*
X142597600Y-106335800D02*
X143950933Y-106335800D01*
X142597600Y-96055800D02*
X143950933Y-96055800D01*
X142597600Y-109115800D02*
X143950933Y-109115800D01*
X142597600Y-99075800D02*
X143950933Y-99075800D01*
X142597600Y-94355800D02*
X143950933Y-94355800D01*
X142597600Y-109475800D02*
X143950933Y-109475800D01*
X142597600Y-108755800D02*
X143950933Y-108755800D01*
X146657600Y-103555800D02*
X142597600Y-103555800D01*
X142597600Y-109355800D02*
X143950933Y-109355800D01*
X139437600Y-88830800D02*
X140821600Y-88830800D01*
X142597600Y-91695800D02*
X143950933Y-91695800D01*
X142597600Y-101975800D02*
X143950933Y-101975800D01*
X143950933Y-95935800D02*
X143950933Y-97205800D01*
X142597600Y-104155800D02*
X143950933Y-104155800D01*
X146657600Y-93395800D02*
X142597600Y-93395800D01*
X142597600Y-102285800D02*
X146657600Y-102285800D01*
X146657600Y-109905800D02*
X146657600Y-108635800D01*
X149577600Y-89070800D02*
X149577600Y-111691800D01*
X142597600Y-94115800D02*
X143950933Y-94115800D01*
X142597600Y-101735800D02*
X143950933Y-101735800D01*
X142597600Y-91575800D02*
X143950933Y-91575800D01*
X142597600Y-102095800D02*
X143950933Y-102095800D01*
X139677600Y-89070800D02*
X149577600Y-89070800D01*
X142597600Y-92125800D02*
X146657600Y-92125800D01*
X142597600Y-96415800D02*
X143950933Y-96415800D01*
X142597600Y-97135800D02*
X143950933Y-97135800D01*
X142597600Y-91455800D02*
X143950933Y-91455800D01*
X142597600Y-91095800D02*
X143950933Y-91095800D01*
X142597600Y-109595800D02*
X143950933Y-109595800D01*
X142597600Y-104825800D02*
X146657600Y-104825800D01*
X142597600Y-96775800D02*
X143950933Y-96775800D01*
X142597600Y-93875800D02*
X143950933Y-93875800D01*
X146657600Y-95935800D02*
X142597600Y-95935800D01*
X142597600Y-103915800D02*
X143950933Y-103915800D01*
X142597600Y-99195800D02*
X143950933Y-99195800D01*
X142597600Y-93395800D02*
X142597600Y-94665800D01*
X142597600Y-90855800D02*
X142597600Y-92125800D01*
X142597600Y-103555800D02*
X142597600Y-104825800D01*
X142597600Y-96175800D02*
X143950933Y-96175800D01*
X142597600Y-104275800D02*
X143950933Y-104275800D01*
X146657600Y-99745800D02*
X146657600Y-98475800D01*
X142597600Y-101375800D02*
X143950933Y-101375800D01*
X143950933Y-90855800D02*
X143950933Y-92125800D01*
X142597600Y-101135800D02*
X143950933Y-101135800D01*
X142597600Y-93515800D02*
X143950933Y-93515800D01*
X146657600Y-98475800D02*
X142597600Y-98475800D01*
X142597600Y-94595800D02*
X143950933Y-94595800D01*
X143950933Y-108635800D02*
X143950933Y-109905800D01*
X142597600Y-101255800D02*
X143950933Y-101255800D01*
X142597600Y-109235800D02*
X143950933Y-109235800D01*
X146657600Y-107365800D02*
X146657600Y-106095800D01*
X142597600Y-93995800D02*
X143950933Y-93995800D01*
X142597600Y-94665800D02*
X146657600Y-94665800D01*
X142597600Y-91215800D02*
X143950933Y-91215800D01*
X142597600Y-91935800D02*
X143950933Y-91935800D01*
X142597600Y-101495800D02*
X143950933Y-101495800D01*
X115509800Y-97772000D02*
X117509800Y-97772000D01*
X118009800Y-101422000D02*
X118009800Y-100822000D01*
X117709800Y-101122000D02*
X118009800Y-100822000D01*
X115509800Y-101872000D02*
X115509800Y-97772000D01*
X117509800Y-97772000D02*
X117509800Y-101872000D01*
X117509800Y-101872000D02*
X115509800Y-101872000D01*
X117709800Y-101122000D02*
X118009800Y-101422000D01*
X115630000Y-69850000D02*
X115630000Y-82610000D01*
X112970000Y-68580000D02*
X112970000Y-67250000D01*
X112970000Y-67250000D02*
X114300000Y-67250000D01*
X112970000Y-69850000D02*
X112970000Y-82610000D01*
X112970000Y-82610000D02*
X115630000Y-82610000D01*
X112970000Y-69850000D02*
X115630000Y-69850000D01*
X128270000Y-91250000D02*
X124410000Y-91250000D01*
X132130000Y-106870000D02*
X132130000Y-106605000D01*
X128270000Y-106870000D02*
X124410000Y-106870000D01*
X124410000Y-91515000D02*
X122595000Y-91515000D01*
X128270000Y-106870000D02*
X132130000Y-106870000D01*
X132130000Y-91250000D02*
X132130000Y-91515000D01*
X124410000Y-106870000D02*
X124410000Y-106605000D01*
X128270000Y-91250000D02*
X132130000Y-91250000D01*
X124410000Y-91250000D02*
X124410000Y-91515000D01*
X118684800Y-109462000D02*
X118684800Y-105362000D01*
X120684800Y-105362000D02*
X120684800Y-109462000D01*
X118684800Y-105362000D02*
X120684800Y-105362000D01*
X120884800Y-108712000D02*
X121184800Y-108412000D01*
X120684800Y-109462000D02*
X118684800Y-109462000D01*
X120884800Y-108712000D02*
X121184800Y-109012000D01*
X121184800Y-109012000D02*
X121184800Y-108412000D01*
X115797064Y-86895000D02*
X115342936Y-86895000D01*
X115797064Y-88365000D02*
X115342936Y-88365000D01*
X132224452Y-90168400D02*
X131701948Y-90168400D01*
X132224452Y-88698400D02*
X131701948Y-88698400D01*
X154180000Y-73149400D02*
X155533333Y-73149400D01*
X155533333Y-75209400D02*
X155533333Y-76479400D01*
X154180000Y-81009400D02*
X155533333Y-81009400D01*
X154180000Y-80529400D02*
X155533333Y-80529400D01*
X154180000Y-68549400D02*
X155533333Y-68549400D01*
X154180000Y-72909400D02*
X155533333Y-72909400D01*
X154180000Y-71329400D02*
X155533333Y-71329400D01*
X158240000Y-79019400D02*
X158240000Y-77749400D01*
X158240000Y-70129400D02*
X154180000Y-70129400D01*
X154180000Y-85609400D02*
X155533333Y-85609400D01*
X154180000Y-85489400D02*
X155533333Y-85489400D01*
X154180000Y-83549400D02*
X155533333Y-83549400D01*
X154180000Y-83429400D02*
X155533333Y-83429400D01*
X154180000Y-73749400D02*
X155533333Y-73749400D01*
X154180000Y-86569400D02*
X155533333Y-86569400D01*
X154180000Y-78349400D02*
X155533333Y-78349400D01*
X154180000Y-75689400D02*
X155533333Y-75689400D01*
X154180000Y-79019400D02*
X158240000Y-79019400D01*
X154180000Y-72789400D02*
X155533333Y-72789400D01*
X154180000Y-78589400D02*
X155533333Y-78589400D01*
X158240000Y-75209400D02*
X154180000Y-75209400D01*
X154180000Y-75929400D02*
X155533333Y-75929400D01*
X154180000Y-80409400D02*
X155533333Y-80409400D01*
X154180000Y-86639400D02*
X158240000Y-86639400D01*
X155533333Y-77749400D02*
X155533333Y-79019400D01*
X154180000Y-73629400D02*
X155533333Y-73629400D01*
X158240000Y-80289400D02*
X154180000Y-80289400D01*
X158240000Y-71399400D02*
X158240000Y-70129400D01*
X154180000Y-78109400D02*
X155533333Y-78109400D01*
X154180000Y-73389400D02*
X155533333Y-73389400D01*
X158240000Y-84099400D02*
X158240000Y-82829400D01*
X158240000Y-76479400D02*
X158240000Y-75209400D01*
X154180000Y-70249400D02*
X155533333Y-70249400D01*
X158240000Y-77749400D02*
X154180000Y-77749400D01*
X154180000Y-76289400D02*
X155533333Y-76289400D01*
X154180000Y-78469400D02*
X155533333Y-78469400D01*
X154180000Y-68429400D02*
X155533333Y-68429400D01*
X154180000Y-78829400D02*
X155533333Y-78829400D01*
X154180000Y-68669400D02*
X155533333Y-68669400D01*
X154180000Y-73269400D02*
X155533333Y-73269400D01*
X158240000Y-85369400D02*
X154180000Y-85369400D01*
X154180000Y-81129400D02*
X155533333Y-81129400D01*
X154180000Y-83909400D02*
X155533333Y-83909400D01*
X155533333Y-72669400D02*
X155533333Y-73939400D01*
X158240000Y-72669400D02*
X154180000Y-72669400D01*
X161160000Y-65804400D02*
X161160000Y-88425400D01*
X154180000Y-71399400D02*
X158240000Y-71399400D01*
X154180000Y-75449400D02*
X155533333Y-75449400D01*
X154180000Y-84029400D02*
X155533333Y-84029400D01*
X155533333Y-80289400D02*
X155533333Y-81559400D01*
X154180000Y-81489400D02*
X155533333Y-81489400D01*
X154180000Y-68309400D02*
X155533333Y-68309400D01*
X154180000Y-75569400D02*
X155533333Y-75569400D01*
X158240000Y-82829400D02*
X154180000Y-82829400D01*
X154180000Y-82829400D02*
X154180000Y-84099400D01*
X154180000Y-76409400D02*
X155533333Y-76409400D01*
X154180000Y-86329400D02*
X155533333Y-86329400D01*
X154180000Y-81369400D02*
X155533333Y-81369400D01*
X154180000Y-85369400D02*
X154180000Y-86639400D01*
X154180000Y-83669400D02*
X155533333Y-83669400D01*
X154180000Y-86449400D02*
X155533333Y-86449400D01*
X154180000Y-70729400D02*
X155533333Y-70729400D01*
X154180000Y-80769400D02*
X155533333Y-80769400D01*
X154180000Y-83189400D02*
X155533333Y-83189400D01*
X154180000Y-83069400D02*
X155533333Y-83069400D01*
X154180000Y-82949400D02*
X155533333Y-82949400D01*
X154180000Y-67589400D02*
X154180000Y-68859400D01*
X154180000Y-75329400D02*
X155533333Y-75329400D01*
X154180000Y-70609400D02*
X155533333Y-70609400D01*
X151020000Y-65564400D02*
X151020000Y-66947400D01*
X154180000Y-73869400D02*
X155533333Y-73869400D01*
X154180000Y-71209400D02*
X155533333Y-71209400D01*
X154180000Y-68189400D02*
X155533333Y-68189400D01*
X154180000Y-75809400D02*
X155533333Y-75809400D01*
X154180000Y-70129400D02*
X154180000Y-71399400D01*
X151260000Y-88425400D02*
X161160000Y-88425400D01*
X154180000Y-83789400D02*
X155533333Y-83789400D01*
X154180000Y-83309400D02*
X155533333Y-83309400D01*
X154180000Y-80649400D02*
X155533333Y-80649400D01*
X154180000Y-78949400D02*
X155533333Y-78949400D01*
X154180000Y-78229400D02*
X155533333Y-78229400D01*
X154180000Y-85969400D02*
X155533333Y-85969400D01*
X154180000Y-81249400D02*
X155533333Y-81249400D01*
X154180000Y-76479400D02*
X158240000Y-76479400D01*
X154180000Y-70849400D02*
X155533333Y-70849400D01*
X154180000Y-81559400D02*
X158240000Y-81559400D01*
X154180000Y-78709400D02*
X155533333Y-78709400D01*
X154180000Y-73509400D02*
X155533333Y-73509400D01*
X154180000Y-73029400D02*
X155533333Y-73029400D01*
X154180000Y-68789400D02*
X155533333Y-68789400D01*
X154180000Y-67709400D02*
X155533333Y-67709400D01*
X154180000Y-71089400D02*
X155533333Y-71089400D01*
X158240000Y-73939400D02*
X158240000Y-72669400D01*
X151260000Y-65804400D02*
X151260000Y-88425400D01*
X155533333Y-67589400D02*
X155533333Y-68859400D01*
X154180000Y-86209400D02*
X155533333Y-86209400D01*
X154180000Y-76049400D02*
X155533333Y-76049400D01*
X154180000Y-67829400D02*
X155533333Y-67829400D01*
X154180000Y-86089400D02*
X155533333Y-86089400D01*
X155533333Y-82829400D02*
X155533333Y-84099400D01*
X154180000Y-75209400D02*
X154180000Y-76479400D01*
X154180000Y-70489400D02*
X155533333Y-70489400D01*
X154180000Y-70369400D02*
X155533333Y-70369400D01*
X158240000Y-68859400D02*
X158240000Y-67589400D01*
X154180000Y-73939400D02*
X158240000Y-73939400D01*
X154180000Y-68069400D02*
X155533333Y-68069400D01*
X154180000Y-85729400D02*
X155533333Y-85729400D01*
X154180000Y-80889400D02*
X155533333Y-80889400D01*
X151020000Y-65564400D02*
X152404000Y-65564400D01*
X154180000Y-77869400D02*
X155533333Y-77869400D01*
X155533333Y-85369400D02*
X155533333Y-86639400D01*
X151260000Y-65804400D02*
X161160000Y-65804400D01*
X154180000Y-67949400D02*
X155533333Y-67949400D01*
X154180000Y-77749400D02*
X154180000Y-79019400D01*
X158240000Y-81559400D02*
X158240000Y-80289400D01*
X155533333Y-70129400D02*
X155533333Y-71399400D01*
X154180000Y-85849400D02*
X155533333Y-85849400D01*
X154180000Y-68859400D02*
X158240000Y-68859400D01*
X154180000Y-70969400D02*
X155533333Y-70969400D01*
X158240000Y-86639400D02*
X158240000Y-85369400D01*
X158240000Y-67589400D02*
X154180000Y-67589400D01*
X154180000Y-80289400D02*
X154180000Y-81559400D01*
X154180000Y-77989400D02*
X155533333Y-77989400D01*
X154180000Y-84099400D02*
X158240000Y-84099400D01*
X154180000Y-72669400D02*
X154180000Y-73939400D01*
X154180000Y-76169400D02*
X155533333Y-76169400D01*
X114834800Y-101422000D02*
X114834800Y-100822000D01*
X114534800Y-101122000D02*
X114834800Y-101422000D01*
X112334800Y-101872000D02*
X112334800Y-97772000D01*
X112334800Y-97772000D02*
X114334800Y-97772000D01*
X114534800Y-101122000D02*
X114834800Y-100822000D01*
X114334800Y-97772000D02*
X114334800Y-101872000D01*
X114334800Y-101872000D02*
X112334800Y-101872000D01*
X124080600Y-115015036D02*
X124080600Y-115469164D01*
X125550600Y-115015036D02*
X125550600Y-115469164D01*
X126940000Y-113045000D02*
X126940000Y-118185000D01*
X126940000Y-118185000D02*
X129600000Y-118185000D01*
X126940000Y-113045000D02*
X129600000Y-113045000D01*
X126940000Y-110445000D02*
X128270000Y-110445000D01*
X126940000Y-111775000D02*
X126940000Y-110445000D01*
X129600000Y-113045000D02*
X129600000Y-118185000D01*
X115750064Y-93445000D02*
X115295936Y-93445000D01*
X115750064Y-91975000D02*
X115295936Y-91975000D01*
X127023800Y-62171252D02*
X127023800Y-61648748D01*
X125553800Y-62171252D02*
X125553800Y-61648748D01*
X115773564Y-90905000D02*
X115319436Y-90905000D01*
X115773564Y-89435000D02*
X115319436Y-89435000D01*
X112334800Y-109462000D02*
X112334800Y-105362000D01*
X114834800Y-109012000D02*
X114834800Y-108412000D01*
X114334800Y-109462000D02*
X112334800Y-109462000D01*
X112334800Y-105362000D02*
X114334800Y-105362000D01*
X114334800Y-105362000D02*
X114334800Y-109462000D01*
X114534800Y-108712000D02*
X114834800Y-108412000D01*
X114534800Y-108712000D02*
X114834800Y-109012000D01*
X132130000Y-64580000D02*
X132130000Y-64845000D01*
X128270000Y-64580000D02*
X124410000Y-64580000D01*
X128270000Y-80200000D02*
X132130000Y-80200000D01*
X124410000Y-64580000D02*
X124410000Y-64845000D01*
X132130000Y-80200000D02*
X132130000Y-79935000D01*
X128270000Y-64580000D02*
X132130000Y-64580000D01*
X124410000Y-64845000D02*
X122595000Y-64845000D01*
X124410000Y-80200000D02*
X124410000Y-79935000D01*
X128270000Y-80200000D02*
X124410000Y-80200000D01*
X115509800Y-109462000D02*
X115509800Y-105362000D01*
X115509800Y-105362000D02*
X117509800Y-105362000D01*
X117509800Y-109462000D02*
X115509800Y-109462000D01*
X117509800Y-105362000D02*
X117509800Y-109462000D01*
X117709800Y-108712000D02*
X118009800Y-108412000D01*
X118009800Y-109012000D02*
X118009800Y-108412000D01*
X117709800Y-108712000D02*
X118009800Y-109012000D01*
%LPC*%
D12*
X119684800Y-101122000D03*
X119684800Y-99822000D03*
X119684800Y-98522000D03*
D13*
X140817500Y-68224400D03*
D14*
X140817500Y-70764400D03*
X140817500Y-73304400D03*
X140817500Y-75844400D03*
X140817500Y-78384400D03*
X140817500Y-80924400D03*
X140817500Y-83464400D03*
X140817500Y-86004400D03*
X148437500Y-86004400D03*
X148437500Y-83464400D03*
X148437500Y-80924400D03*
X148437500Y-78384400D03*
X148437500Y-75844400D03*
X148437500Y-73304400D03*
X148437500Y-70764400D03*
X148437500Y-68224400D03*
D13*
X152400000Y-91490800D03*
D14*
X152400000Y-94030800D03*
X152400000Y-96570800D03*
X152400000Y-99110800D03*
X152400000Y-101650800D03*
X152400000Y-104190800D03*
X152400000Y-106730800D03*
X152400000Y-109270800D03*
X160020000Y-109270800D03*
X160020000Y-106730800D03*
X160020000Y-104190800D03*
X160020000Y-101650800D03*
X160020000Y-99110800D03*
X160020000Y-96570800D03*
X160020000Y-94030800D03*
X160020000Y-91490800D03*
D15*
X123647200Y-62860000D03*
X123647200Y-60960000D03*
D16*
X122275600Y-116177300D03*
X122275600Y-114302300D03*
D17*
X116482500Y-85090000D03*
X114657500Y-85090000D03*
D13*
X140817600Y-91490800D03*
D14*
X140817600Y-94030800D03*
X140817600Y-96570800D03*
X140817600Y-99110800D03*
X140817600Y-101650800D03*
X140817600Y-104190800D03*
X140817600Y-106730800D03*
X140817600Y-109270800D03*
X148437600Y-109270800D03*
X148437600Y-106730800D03*
X148437600Y-104190800D03*
X148437600Y-101650800D03*
X148437600Y-99110800D03*
X148437600Y-96570800D03*
X148437600Y-94030800D03*
X148437600Y-91490800D03*
D12*
X116509800Y-101122000D03*
X116509800Y-99822000D03*
X116509800Y-98522000D03*
D18*
X114300000Y-68580000D03*
D19*
X114300000Y-71120000D03*
X114300000Y-73660000D03*
X114300000Y-76200000D03*
X114300000Y-78740000D03*
X114300000Y-81280000D03*
D20*
X123620000Y-92075000D03*
X123620000Y-93345000D03*
X123620000Y-94615000D03*
X123620000Y-95885000D03*
X123620000Y-97155000D03*
X123620000Y-98425000D03*
X123620000Y-99695000D03*
X123620000Y-100965000D03*
X123620000Y-102235000D03*
X123620000Y-103505000D03*
X123620000Y-104775000D03*
X123620000Y-106045000D03*
X132920000Y-106045000D03*
X132920000Y-104775000D03*
X132920000Y-103505000D03*
X132920000Y-102235000D03*
X132920000Y-100965000D03*
X132920000Y-99695000D03*
X132920000Y-98425000D03*
X132920000Y-97155000D03*
X132920000Y-95885000D03*
X132920000Y-94615000D03*
X132920000Y-93345000D03*
X132920000Y-92075000D03*
D12*
X119684800Y-108712000D03*
X119684800Y-107412000D03*
X119684800Y-106112000D03*
D21*
X158750000Y-62230000D03*
D17*
X116482500Y-87630000D03*
X114657500Y-87630000D03*
D22*
X132913200Y-89433400D03*
X131013200Y-89433400D03*
D21*
X158750000Y-115570000D03*
D13*
X152400000Y-68224400D03*
D14*
X152400000Y-70764400D03*
X152400000Y-73304400D03*
X152400000Y-75844400D03*
X152400000Y-78384400D03*
X152400000Y-80924400D03*
X152400000Y-83464400D03*
X152400000Y-86004400D03*
X160020000Y-86004400D03*
X160020000Y-83464400D03*
X160020000Y-80924400D03*
X160020000Y-78384400D03*
X160020000Y-75844400D03*
X160020000Y-73304400D03*
X160020000Y-70764400D03*
X160020000Y-68224400D03*
D12*
X113334800Y-101122000D03*
X113334800Y-99822000D03*
X113334800Y-98522000D03*
D23*
X124815600Y-114329600D03*
X124815600Y-116154600D03*
D18*
X128270000Y-111775000D03*
D19*
X128270000Y-114315000D03*
X128270000Y-116855000D03*
D17*
X116435500Y-92710000D03*
X114610500Y-92710000D03*
D21*
X114300000Y-115570000D03*
D15*
X126288800Y-62860000D03*
X126288800Y-60960000D03*
D17*
X116459000Y-90170000D03*
X114634000Y-90170000D03*
D12*
X113334800Y-108712000D03*
X113334800Y-107412000D03*
X113334800Y-106112000D03*
D20*
X123620000Y-65405000D03*
X123620000Y-66675000D03*
X123620000Y-67945000D03*
X123620000Y-69215000D03*
X123620000Y-70485000D03*
X123620000Y-71755000D03*
X123620000Y-73025000D03*
X123620000Y-74295000D03*
X123620000Y-75565000D03*
X123620000Y-76835000D03*
X123620000Y-78105000D03*
X123620000Y-79375000D03*
X132920000Y-79375000D03*
X132920000Y-78105000D03*
X132920000Y-76835000D03*
X132920000Y-75565000D03*
X132920000Y-74295000D03*
X132920000Y-73025000D03*
X132920000Y-71755000D03*
X132920000Y-70485000D03*
X132920000Y-69215000D03*
X132920000Y-67945000D03*
X132920000Y-66675000D03*
X132920000Y-65405000D03*
D12*
X116509800Y-108712000D03*
X116509800Y-107412000D03*
X116509800Y-106112000D03*
D21*
X114299999Y-62229999D03*
M02*
