M48
; DRILL file {KiCad 6.0.2-1.fc35} date Mon 04 Apr 2022 03:35:00 PM EDT
; FORMAT={-:-/ absolute / metric / decimal}
; #@! TF.CreationDate,2022-04-04T15:35:00-04:00
; #@! TF.GenerationSoftware,Kicad,Pcbnew,6.0.2-1.fc35
; #@! TF.FileFunction,Plated,1,2,PTH
FMAT,2
METRIC
; #@! TA.AperFunction,Plated,PTH,ViaDrill
T1C0.400
; #@! TA.AperFunction,Plated,PTH,ComponentDrill
T2C0.800
; #@! TA.AperFunction,Plated,PTH,ComponentDrill
T3C1.000
; #@! TA.AperFunction,Plated,PTH,ComponentDrill
T4C3.200
%
G90
G05
T1
X113.259Y-87.579
X114.859Y-107.442
X114.91Y-99.822
X116.535Y-103.861
X118.11Y-99.822
X118.11Y-107.391
X118.821Y-96.774
X120.79Y-87.452
X121.412Y-61.011
X121.869Y-93.37
X123.52Y-81.28
X123.622Y-107.493
X125.349Y-69.215
X125.349Y-70.485
X125.349Y-71.755
X125.349Y-73.025
X125.349Y-74.295
X125.349Y-75.565
X125.349Y-76.835
X125.349Y-78.105
X125.349Y-95.885
X125.349Y-97.155
X125.349Y-98.425
X125.349Y-99.695
X125.349Y-100.965
X125.349Y-102.235
X125.349Y-103.505
X125.349Y-104.775
X128.27Y-82.448
X128.702Y-61.011
X129.235Y-88.849
X129.997Y-107.696
X131.191Y-66.675
X131.191Y-67.945
T2
X140.817Y-68.224
X140.817Y-70.764
X140.817Y-73.304
X140.817Y-75.844
X140.817Y-78.384
X140.817Y-80.924
X140.817Y-83.464
X140.817Y-86.004
X140.818Y-91.491
X140.818Y-94.031
X140.818Y-96.571
X140.818Y-99.111
X140.818Y-101.651
X140.818Y-104.191
X140.818Y-106.731
X140.818Y-109.271
X148.438Y-68.224
X148.438Y-70.764
X148.438Y-73.304
X148.438Y-75.844
X148.438Y-78.384
X148.438Y-80.924
X148.438Y-83.464
X148.438Y-86.004
X148.438Y-91.491
X148.438Y-94.031
X148.438Y-96.571
X148.438Y-99.111
X148.438Y-101.651
X148.438Y-104.191
X148.438Y-106.731
X148.438Y-109.271
X152.4Y-68.224
X152.4Y-70.764
X152.4Y-73.304
X152.4Y-75.844
X152.4Y-78.384
X152.4Y-80.924
X152.4Y-83.464
X152.4Y-86.004
X152.4Y-91.491
X152.4Y-94.031
X152.4Y-96.571
X152.4Y-99.111
X152.4Y-101.651
X152.4Y-104.191
X152.4Y-106.731
X152.4Y-109.271
X160.02Y-68.224
X160.02Y-70.764
X160.02Y-73.304
X160.02Y-75.844
X160.02Y-78.384
X160.02Y-80.924
X160.02Y-83.464
X160.02Y-86.004
X160.02Y-91.491
X160.02Y-94.031
X160.02Y-96.571
X160.02Y-99.111
X160.02Y-101.651
X160.02Y-104.191
X160.02Y-106.731
X160.02Y-109.271
T3
X114.3Y-68.58
X114.3Y-71.12
X114.3Y-73.66
X114.3Y-76.2
X114.3Y-78.74
X114.3Y-81.28
X128.27Y-111.775
X128.27Y-114.315
X128.27Y-116.855
T4
X114.3Y-62.23
X114.3Y-115.57
X158.75Y-62.23
X158.75Y-115.57
T0
M30
