%FSLAX45Y45*%
G04 Gerber Fmt 4.5, Leading zero omitted, Abs format (unit mm)*
G04 Created by KiCad (PCBNEW 6.0.2-1.fc35) date 2022-04-04 15:34:59*
%MOMM*%
%LPD*%
G01*
G04 APERTURE LIST*
%TA.AperFunction,Profile*%
%ADD10C,0.100000*%
%TD*%
%ADD11C,0.200000*%
G04 APERTURE END LIST*
D10*
X11430000Y-5842000D02*
G75*
G03*
X11049000Y-6223000I0J-381000D01*
G01*
X11430000Y-5842000D02*
X15875000Y-5842000D01*
X11049000Y-11557000D02*
G75*
G03*
X11430000Y-11938000I381000J0D01*
G01*
X16256000Y-11557000D02*
X16256000Y-6223000D01*
X11430000Y-11938000D02*
X15875000Y-11938000D01*
X11049000Y-11557000D02*
X11049000Y-6223000D01*
X16256000Y-6223000D02*
G75*
G03*
X15875000Y-5842000I-381000J0D01*
G01*
X15875000Y-11938000D02*
G75*
G03*
X16256000Y-11557000I0J381000D01*
G01*
D11*
X11301619Y-12253476D02*
X11301619Y-12053476D01*
X11349238Y-12053476D01*
X11377809Y-12063000D01*
X11396857Y-12082048D01*
X11406381Y-12101095D01*
X11415904Y-12139190D01*
X11415904Y-12167762D01*
X11406381Y-12205857D01*
X11396857Y-12224905D01*
X11377809Y-12243952D01*
X11349238Y-12253476D01*
X11301619Y-12253476D01*
X11501619Y-12253476D02*
X11501619Y-12120143D01*
X11501619Y-12158238D02*
X11511142Y-12139190D01*
X11520666Y-12129667D01*
X11539714Y-12120143D01*
X11558762Y-12120143D01*
X11625428Y-12253476D02*
X11625428Y-12120143D01*
X11625428Y-12053476D02*
X11615904Y-12063000D01*
X11625428Y-12072524D01*
X11634952Y-12063000D01*
X11625428Y-12053476D01*
X11625428Y-12072524D01*
X11749238Y-12253476D02*
X11730190Y-12243952D01*
X11720666Y-12224905D01*
X11720666Y-12053476D01*
X11854000Y-12253476D02*
X11834952Y-12243952D01*
X11825428Y-12224905D01*
X11825428Y-12053476D01*
X12082571Y-12253476D02*
X12082571Y-12053476D01*
X12149238Y-12196333D01*
X12215904Y-12053476D01*
X12215904Y-12253476D01*
X12396857Y-12253476D02*
X12396857Y-12148714D01*
X12387333Y-12129667D01*
X12368285Y-12120143D01*
X12330190Y-12120143D01*
X12311142Y-12129667D01*
X12396857Y-12243952D02*
X12377809Y-12253476D01*
X12330190Y-12253476D01*
X12311142Y-12243952D01*
X12301619Y-12224905D01*
X12301619Y-12205857D01*
X12311142Y-12186809D01*
X12330190Y-12177286D01*
X12377809Y-12177286D01*
X12396857Y-12167762D01*
X12492095Y-12120143D02*
X12492095Y-12320143D01*
X12492095Y-12129667D02*
X12511142Y-12120143D01*
X12549238Y-12120143D01*
X12568285Y-12129667D01*
X12577809Y-12139190D01*
X12587333Y-12158238D01*
X12587333Y-12215381D01*
X12577809Y-12234428D01*
X12568285Y-12243952D01*
X12549238Y-12253476D01*
X12511142Y-12253476D01*
X12492095Y-12243952D01*
X12673047Y-12234428D02*
X12682571Y-12243952D01*
X12673047Y-12253476D01*
X12663523Y-12243952D01*
X12673047Y-12234428D01*
X12673047Y-12253476D01*
X12673047Y-12129667D02*
X12682571Y-12139190D01*
X12673047Y-12148714D01*
X12663523Y-12139190D01*
X12673047Y-12129667D01*
X12673047Y-12148714D01*
M02*
