G04 #@! TF.GenerationSoftware,KiCad,Pcbnew,6.0.5-2.fc36*
G04 #@! TF.CreationDate,2022-06-02T11:59:58-04:00*
G04 #@! TF.ProjectId,switch_mux_breakout,73776974-6368-45f6-9d75-785f62726561,0*
G04 #@! TF.SameCoordinates,Original*
G04 #@! TF.FileFunction,Legend,Top*
G04 #@! TF.FilePolarity,Positive*
%FSLAX46Y46*%
G04 Gerber Fmt 4.6, Leading zero omitted, Abs format (unit mm)*
G04 Created by KiCad (PCBNEW 6.0.5-2.fc36) date 2022-06-02 11:59:58*
%MOMM*%
%LPD*%
G01*
G04 APERTURE LIST*
G04 Aperture macros list*
%AMRoundRect*
0 Rectangle with rounded corners*
0 $1 Rounding radius*
0 $2 $3 $4 $5 $6 $7 $8 $9 X,Y pos of 4 corners*
0 Add a 4 corners polygon primitive as box body*
4,1,4,$2,$3,$4,$5,$6,$7,$8,$9,$2,$3,0*
0 Add four circle primitives for the rounded corners*
1,1,$1+$1,$2,$3*
1,1,$1+$1,$4,$5*
1,1,$1+$1,$6,$7*
1,1,$1+$1,$8,$9*
0 Add four rect primitives between the rounded corners*
20,1,$1+$1,$2,$3,$4,$5,0*
20,1,$1+$1,$4,$5,$6,$7,0*
20,1,$1+$1,$6,$7,$8,$9,0*
20,1,$1+$1,$8,$9,$2,$3,0*%
G04 Aperture macros list end*
%ADD10C,0.150000*%
%ADD11C,0.120000*%
%ADD12RoundRect,0.150000X-0.875000X-0.150000X0.875000X-0.150000X0.875000X0.150000X-0.875000X0.150000X0*%
%ADD13R,1.700000X1.700000*%
%ADD14O,1.700000X1.700000*%
%ADD15R,1.500000X1.000000*%
%ADD16RoundRect,0.250000X0.475000X-0.250000X0.475000X0.250000X-0.475000X0.250000X-0.475000X-0.250000X0*%
%ADD17RoundRect,0.243750X0.456250X-0.243750X0.456250X0.243750X-0.456250X0.243750X-0.456250X-0.243750X0*%
%ADD18RoundRect,0.250000X0.262500X0.450000X-0.262500X0.450000X-0.262500X-0.450000X0.262500X-0.450000X0*%
%ADD19C,5.600000*%
%ADD20RoundRect,0.250000X0.250000X0.475000X-0.250000X0.475000X-0.250000X-0.475000X0.250000X-0.475000X0*%
%ADD21RoundRect,0.250000X-0.450000X0.262500X-0.450000X-0.262500X0.450000X-0.262500X0.450000X0.262500X0*%
G04 APERTURE END LIST*
D10*
X143031785Y-87130000D02*
X142936547Y-87082380D01*
X142793690Y-87082380D01*
X142650833Y-87130000D01*
X142555595Y-87225238D01*
X142507976Y-87320476D01*
X142460357Y-87510952D01*
X142460357Y-87653809D01*
X142507976Y-87844285D01*
X142555595Y-87939523D01*
X142650833Y-88034761D01*
X142793690Y-88082380D01*
X142888928Y-88082380D01*
X143031785Y-88034761D01*
X143079404Y-87987142D01*
X143079404Y-87653809D01*
X142888928Y-87653809D01*
X143507976Y-88082380D02*
X143507976Y-87082380D01*
X144079404Y-88082380D01*
X144079404Y-87082380D01*
X144555595Y-88082380D02*
X144555595Y-87082380D01*
X144793690Y-87082380D01*
X144936547Y-87130000D01*
X145031785Y-87225238D01*
X145079404Y-87320476D01*
X145127023Y-87510952D01*
X145127023Y-87653809D01*
X145079404Y-87844285D01*
X145031785Y-87939523D01*
X144936547Y-88034761D01*
X144793690Y-88082380D01*
X144555595Y-88082380D01*
X143031785Y-112530000D02*
X142936547Y-112482380D01*
X142793690Y-112482380D01*
X142650833Y-112530000D01*
X142555595Y-112625238D01*
X142507976Y-112720476D01*
X142460357Y-112910952D01*
X142460357Y-113053809D01*
X142507976Y-113244285D01*
X142555595Y-113339523D01*
X142650833Y-113434761D01*
X142793690Y-113482380D01*
X142888928Y-113482380D01*
X143031785Y-113434761D01*
X143079404Y-113387142D01*
X143079404Y-113053809D01*
X142888928Y-113053809D01*
X143507976Y-113482380D02*
X143507976Y-112482380D01*
X144079404Y-113482380D01*
X144079404Y-112482380D01*
X144555595Y-113482380D02*
X144555595Y-112482380D01*
X144793690Y-112482380D01*
X144936547Y-112530000D01*
X145031785Y-112625238D01*
X145079404Y-112720476D01*
X145127023Y-112910952D01*
X145127023Y-113053809D01*
X145079404Y-113244285D01*
X145031785Y-113339523D01*
X144936547Y-113434761D01*
X144793690Y-113482380D01*
X144555595Y-113482380D01*
X155164404Y-112530000D02*
X155069166Y-112482380D01*
X154926309Y-112482380D01*
X154783452Y-112530000D01*
X154688214Y-112625238D01*
X154640595Y-112720476D01*
X154592976Y-112910952D01*
X154592976Y-113053809D01*
X154640595Y-113244285D01*
X154688214Y-113339523D01*
X154783452Y-113434761D01*
X154926309Y-113482380D01*
X155021547Y-113482380D01*
X155164404Y-113434761D01*
X155212023Y-113387142D01*
X155212023Y-113053809D01*
X155021547Y-113053809D01*
X155640595Y-113482380D02*
X155640595Y-112482380D01*
X156212023Y-113482380D01*
X156212023Y-112482380D01*
X156688214Y-113482380D02*
X156688214Y-112482380D01*
X156926309Y-112482380D01*
X157069166Y-112530000D01*
X157164404Y-112625238D01*
X157212023Y-112720476D01*
X157259642Y-112910952D01*
X157259642Y-113053809D01*
X157212023Y-113244285D01*
X157164404Y-113339523D01*
X157069166Y-113434761D01*
X156926309Y-113482380D01*
X156688214Y-113482380D01*
X155164404Y-87130000D02*
X155069166Y-87082380D01*
X154926309Y-87082380D01*
X154783452Y-87130000D01*
X154688214Y-87225238D01*
X154640595Y-87320476D01*
X154592976Y-87510952D01*
X154592976Y-87653809D01*
X154640595Y-87844285D01*
X154688214Y-87939523D01*
X154783452Y-88034761D01*
X154926309Y-88082380D01*
X155021547Y-88082380D01*
X155164404Y-88034761D01*
X155212023Y-87987142D01*
X155212023Y-87653809D01*
X155021547Y-87653809D01*
X155640595Y-88082380D02*
X155640595Y-87082380D01*
X156212023Y-88082380D01*
X156212023Y-87082380D01*
X156688214Y-88082380D02*
X156688214Y-87082380D01*
X156926309Y-87082380D01*
X157069166Y-87130000D01*
X157164404Y-87225238D01*
X157212023Y-87320476D01*
X157259642Y-87510952D01*
X157259642Y-87653809D01*
X157212023Y-87844285D01*
X157164404Y-87939523D01*
X157069166Y-88034761D01*
X156926309Y-88082380D01*
X156688214Y-88082380D01*
X141174642Y-90241428D02*
X141936547Y-90241428D01*
X141555595Y-90622380D02*
X141555595Y-89860476D01*
X142317500Y-89622380D02*
X142936547Y-89622380D01*
X142603214Y-90003333D01*
X142746071Y-90003333D01*
X142841309Y-90050952D01*
X142888928Y-90098571D01*
X142936547Y-90193809D01*
X142936547Y-90431904D01*
X142888928Y-90527142D01*
X142841309Y-90574761D01*
X142746071Y-90622380D01*
X142460357Y-90622380D01*
X142365119Y-90574761D01*
X142317500Y-90527142D01*
X143365119Y-90527142D02*
X143412738Y-90574761D01*
X143365119Y-90622380D01*
X143317500Y-90574761D01*
X143365119Y-90527142D01*
X143365119Y-90622380D01*
X143746071Y-89622380D02*
X144365119Y-89622380D01*
X144031785Y-90003333D01*
X144174642Y-90003333D01*
X144269880Y-90050952D01*
X144317500Y-90098571D01*
X144365119Y-90193809D01*
X144365119Y-90431904D01*
X144317500Y-90527142D01*
X144269880Y-90574761D01*
X144174642Y-90622380D01*
X143888928Y-90622380D01*
X143793690Y-90574761D01*
X143746071Y-90527142D01*
X144698452Y-89955714D02*
X144936547Y-90622380D01*
X145174642Y-89955714D01*
X141174642Y-64841428D02*
X141936547Y-64841428D01*
X141555595Y-65222380D02*
X141555595Y-64460476D01*
X142317500Y-64222380D02*
X142936547Y-64222380D01*
X142603214Y-64603333D01*
X142746071Y-64603333D01*
X142841309Y-64650952D01*
X142888928Y-64698571D01*
X142936547Y-64793809D01*
X142936547Y-65031904D01*
X142888928Y-65127142D01*
X142841309Y-65174761D01*
X142746071Y-65222380D01*
X142460357Y-65222380D01*
X142365119Y-65174761D01*
X142317500Y-65127142D01*
X143365119Y-65127142D02*
X143412738Y-65174761D01*
X143365119Y-65222380D01*
X143317500Y-65174761D01*
X143365119Y-65127142D01*
X143365119Y-65222380D01*
X143746071Y-64222380D02*
X144365119Y-64222380D01*
X144031785Y-64603333D01*
X144174642Y-64603333D01*
X144269880Y-64650952D01*
X144317500Y-64698571D01*
X144365119Y-64793809D01*
X144365119Y-65031904D01*
X144317500Y-65127142D01*
X144269880Y-65174761D01*
X144174642Y-65222380D01*
X143888928Y-65222380D01*
X143793690Y-65174761D01*
X143746071Y-65127142D01*
X144698452Y-64555714D02*
X144936547Y-65222380D01*
X145174642Y-64555714D01*
X154640595Y-90241428D02*
X155402500Y-90241428D01*
X155021547Y-90622380D02*
X155021547Y-89860476D01*
X155783452Y-89622380D02*
X156402500Y-89622380D01*
X156069166Y-90003333D01*
X156212023Y-90003333D01*
X156307261Y-90050952D01*
X156354880Y-90098571D01*
X156402500Y-90193809D01*
X156402500Y-90431904D01*
X156354880Y-90527142D01*
X156307261Y-90574761D01*
X156212023Y-90622380D01*
X155926309Y-90622380D01*
X155831071Y-90574761D01*
X155783452Y-90527142D01*
X156831071Y-90527142D02*
X156878690Y-90574761D01*
X156831071Y-90622380D01*
X156783452Y-90574761D01*
X156831071Y-90527142D01*
X156831071Y-90622380D01*
X157212023Y-89622380D02*
X157831071Y-89622380D01*
X157497738Y-90003333D01*
X157640595Y-90003333D01*
X157735833Y-90050952D01*
X157783452Y-90098571D01*
X157831071Y-90193809D01*
X157831071Y-90431904D01*
X157783452Y-90527142D01*
X157735833Y-90574761D01*
X157640595Y-90622380D01*
X157354880Y-90622380D01*
X157259642Y-90574761D01*
X157212023Y-90527142D01*
X158164404Y-89955714D02*
X158402500Y-90622380D01*
X158640595Y-89955714D01*
X154640595Y-64841428D02*
X155402500Y-64841428D01*
X155021547Y-65222380D02*
X155021547Y-64460476D01*
X155783452Y-64222380D02*
X156402500Y-64222380D01*
X156069166Y-64603333D01*
X156212023Y-64603333D01*
X156307261Y-64650952D01*
X156354880Y-64698571D01*
X156402500Y-64793809D01*
X156402500Y-65031904D01*
X156354880Y-65127142D01*
X156307261Y-65174761D01*
X156212023Y-65222380D01*
X155926309Y-65222380D01*
X155831071Y-65174761D01*
X155783452Y-65127142D01*
X156831071Y-65127142D02*
X156878690Y-65174761D01*
X156831071Y-65222380D01*
X156783452Y-65174761D01*
X156831071Y-65127142D01*
X156831071Y-65222380D01*
X157212023Y-64222380D02*
X157831071Y-64222380D01*
X157497738Y-64603333D01*
X157640595Y-64603333D01*
X157735833Y-64650952D01*
X157783452Y-64698571D01*
X157831071Y-64793809D01*
X157831071Y-65031904D01*
X157783452Y-65127142D01*
X157735833Y-65174761D01*
X157640595Y-65222380D01*
X157354880Y-65222380D01*
X157259642Y-65174761D01*
X157212023Y-65127142D01*
X158164404Y-64555714D02*
X158402500Y-65222380D01*
X158640595Y-64555714D01*
X154592976Y-110894761D02*
X154735833Y-110942380D01*
X154973928Y-110942380D01*
X155069166Y-110894761D01*
X155116785Y-110847142D01*
X155164404Y-110751904D01*
X155164404Y-110656666D01*
X155116785Y-110561428D01*
X155069166Y-110513809D01*
X154973928Y-110466190D01*
X154783452Y-110418571D01*
X154688214Y-110370952D01*
X154640595Y-110323333D01*
X154592976Y-110228095D01*
X154592976Y-110132857D01*
X154640595Y-110037619D01*
X154688214Y-109990000D01*
X154783452Y-109942380D01*
X155021547Y-109942380D01*
X155164404Y-109990000D01*
X155497738Y-109942380D02*
X155735833Y-110942380D01*
X155926309Y-110228095D01*
X156116785Y-110942380D01*
X156354880Y-109942380D01*
X157402500Y-109942380D02*
X158021547Y-109942380D01*
X157688214Y-110323333D01*
X157831071Y-110323333D01*
X157926309Y-110370952D01*
X157973928Y-110418571D01*
X158021547Y-110513809D01*
X158021547Y-110751904D01*
X157973928Y-110847142D01*
X157926309Y-110894761D01*
X157831071Y-110942380D01*
X157545357Y-110942380D01*
X157450119Y-110894761D01*
X157402500Y-110847142D01*
X158973928Y-110942380D02*
X158402500Y-110942380D01*
X158688214Y-110942380D02*
X158688214Y-109942380D01*
X158592976Y-110085238D01*
X158497738Y-110180476D01*
X158402500Y-110228095D01*
X154592976Y-108354761D02*
X154735833Y-108402380D01*
X154973928Y-108402380D01*
X155069166Y-108354761D01*
X155116785Y-108307142D01*
X155164404Y-108211904D01*
X155164404Y-108116666D01*
X155116785Y-108021428D01*
X155069166Y-107973809D01*
X154973928Y-107926190D01*
X154783452Y-107878571D01*
X154688214Y-107830952D01*
X154640595Y-107783333D01*
X154592976Y-107688095D01*
X154592976Y-107592857D01*
X154640595Y-107497619D01*
X154688214Y-107450000D01*
X154783452Y-107402380D01*
X155021547Y-107402380D01*
X155164404Y-107450000D01*
X155497738Y-107402380D02*
X155735833Y-108402380D01*
X155926309Y-107688095D01*
X156116785Y-108402380D01*
X156354880Y-107402380D01*
X157402500Y-107402380D02*
X158021547Y-107402380D01*
X157688214Y-107783333D01*
X157831071Y-107783333D01*
X157926309Y-107830952D01*
X157973928Y-107878571D01*
X158021547Y-107973809D01*
X158021547Y-108211904D01*
X157973928Y-108307142D01*
X157926309Y-108354761D01*
X157831071Y-108402380D01*
X157545357Y-108402380D01*
X157450119Y-108354761D01*
X157402500Y-108307142D01*
X158640595Y-107402380D02*
X158735833Y-107402380D01*
X158831071Y-107450000D01*
X158878690Y-107497619D01*
X158926309Y-107592857D01*
X158973928Y-107783333D01*
X158973928Y-108021428D01*
X158926309Y-108211904D01*
X158878690Y-108307142D01*
X158831071Y-108354761D01*
X158735833Y-108402380D01*
X158640595Y-108402380D01*
X158545357Y-108354761D01*
X158497738Y-108307142D01*
X158450119Y-108211904D01*
X158402500Y-108021428D01*
X158402500Y-107783333D01*
X158450119Y-107592857D01*
X158497738Y-107497619D01*
X158545357Y-107450000D01*
X158640595Y-107402380D01*
X154592976Y-105814761D02*
X154735833Y-105862380D01*
X154973928Y-105862380D01*
X155069166Y-105814761D01*
X155116785Y-105767142D01*
X155164404Y-105671904D01*
X155164404Y-105576666D01*
X155116785Y-105481428D01*
X155069166Y-105433809D01*
X154973928Y-105386190D01*
X154783452Y-105338571D01*
X154688214Y-105290952D01*
X154640595Y-105243333D01*
X154592976Y-105148095D01*
X154592976Y-105052857D01*
X154640595Y-104957619D01*
X154688214Y-104910000D01*
X154783452Y-104862380D01*
X155021547Y-104862380D01*
X155164404Y-104910000D01*
X155497738Y-104862380D02*
X155735833Y-105862380D01*
X155926309Y-105148095D01*
X156116785Y-105862380D01*
X156354880Y-104862380D01*
X157450119Y-104957619D02*
X157497738Y-104910000D01*
X157592976Y-104862380D01*
X157831071Y-104862380D01*
X157926309Y-104910000D01*
X157973928Y-104957619D01*
X158021547Y-105052857D01*
X158021547Y-105148095D01*
X157973928Y-105290952D01*
X157402500Y-105862380D01*
X158021547Y-105862380D01*
X158497738Y-105862380D02*
X158688214Y-105862380D01*
X158783452Y-105814761D01*
X158831071Y-105767142D01*
X158926309Y-105624285D01*
X158973928Y-105433809D01*
X158973928Y-105052857D01*
X158926309Y-104957619D01*
X158878690Y-104910000D01*
X158783452Y-104862380D01*
X158592976Y-104862380D01*
X158497738Y-104910000D01*
X158450119Y-104957619D01*
X158402500Y-105052857D01*
X158402500Y-105290952D01*
X158450119Y-105386190D01*
X158497738Y-105433809D01*
X158592976Y-105481428D01*
X158783452Y-105481428D01*
X158878690Y-105433809D01*
X158926309Y-105386190D01*
X158973928Y-105290952D01*
X154592976Y-103274761D02*
X154735833Y-103322380D01*
X154973928Y-103322380D01*
X155069166Y-103274761D01*
X155116785Y-103227142D01*
X155164404Y-103131904D01*
X155164404Y-103036666D01*
X155116785Y-102941428D01*
X155069166Y-102893809D01*
X154973928Y-102846190D01*
X154783452Y-102798571D01*
X154688214Y-102750952D01*
X154640595Y-102703333D01*
X154592976Y-102608095D01*
X154592976Y-102512857D01*
X154640595Y-102417619D01*
X154688214Y-102370000D01*
X154783452Y-102322380D01*
X155021547Y-102322380D01*
X155164404Y-102370000D01*
X155497738Y-102322380D02*
X155735833Y-103322380D01*
X155926309Y-102608095D01*
X156116785Y-103322380D01*
X156354880Y-102322380D01*
X157450119Y-102417619D02*
X157497738Y-102370000D01*
X157592976Y-102322380D01*
X157831071Y-102322380D01*
X157926309Y-102370000D01*
X157973928Y-102417619D01*
X158021547Y-102512857D01*
X158021547Y-102608095D01*
X157973928Y-102750952D01*
X157402500Y-103322380D01*
X158021547Y-103322380D01*
X158592976Y-102750952D02*
X158497738Y-102703333D01*
X158450119Y-102655714D01*
X158402500Y-102560476D01*
X158402500Y-102512857D01*
X158450119Y-102417619D01*
X158497738Y-102370000D01*
X158592976Y-102322380D01*
X158783452Y-102322380D01*
X158878690Y-102370000D01*
X158926309Y-102417619D01*
X158973928Y-102512857D01*
X158973928Y-102560476D01*
X158926309Y-102655714D01*
X158878690Y-102703333D01*
X158783452Y-102750952D01*
X158592976Y-102750952D01*
X158497738Y-102798571D01*
X158450119Y-102846190D01*
X158402500Y-102941428D01*
X158402500Y-103131904D01*
X158450119Y-103227142D01*
X158497738Y-103274761D01*
X158592976Y-103322380D01*
X158783452Y-103322380D01*
X158878690Y-103274761D01*
X158926309Y-103227142D01*
X158973928Y-103131904D01*
X158973928Y-102941428D01*
X158926309Y-102846190D01*
X158878690Y-102798571D01*
X158783452Y-102750952D01*
X154592976Y-100734761D02*
X154735833Y-100782380D01*
X154973928Y-100782380D01*
X155069166Y-100734761D01*
X155116785Y-100687142D01*
X155164404Y-100591904D01*
X155164404Y-100496666D01*
X155116785Y-100401428D01*
X155069166Y-100353809D01*
X154973928Y-100306190D01*
X154783452Y-100258571D01*
X154688214Y-100210952D01*
X154640595Y-100163333D01*
X154592976Y-100068095D01*
X154592976Y-99972857D01*
X154640595Y-99877619D01*
X154688214Y-99830000D01*
X154783452Y-99782380D01*
X155021547Y-99782380D01*
X155164404Y-99830000D01*
X155497738Y-99782380D02*
X155735833Y-100782380D01*
X155926309Y-100068095D01*
X156116785Y-100782380D01*
X156354880Y-99782380D01*
X157450119Y-99877619D02*
X157497738Y-99830000D01*
X157592976Y-99782380D01*
X157831071Y-99782380D01*
X157926309Y-99830000D01*
X157973928Y-99877619D01*
X158021547Y-99972857D01*
X158021547Y-100068095D01*
X157973928Y-100210952D01*
X157402500Y-100782380D01*
X158021547Y-100782380D01*
X158354880Y-99782380D02*
X159021547Y-99782380D01*
X158592976Y-100782380D01*
X154592976Y-98194761D02*
X154735833Y-98242380D01*
X154973928Y-98242380D01*
X155069166Y-98194761D01*
X155116785Y-98147142D01*
X155164404Y-98051904D01*
X155164404Y-97956666D01*
X155116785Y-97861428D01*
X155069166Y-97813809D01*
X154973928Y-97766190D01*
X154783452Y-97718571D01*
X154688214Y-97670952D01*
X154640595Y-97623333D01*
X154592976Y-97528095D01*
X154592976Y-97432857D01*
X154640595Y-97337619D01*
X154688214Y-97290000D01*
X154783452Y-97242380D01*
X155021547Y-97242380D01*
X155164404Y-97290000D01*
X155497738Y-97242380D02*
X155735833Y-98242380D01*
X155926309Y-97528095D01*
X156116785Y-98242380D01*
X156354880Y-97242380D01*
X157450119Y-97337619D02*
X157497738Y-97290000D01*
X157592976Y-97242380D01*
X157831071Y-97242380D01*
X157926309Y-97290000D01*
X157973928Y-97337619D01*
X158021547Y-97432857D01*
X158021547Y-97528095D01*
X157973928Y-97670952D01*
X157402500Y-98242380D01*
X158021547Y-98242380D01*
X158878690Y-97242380D02*
X158688214Y-97242380D01*
X158592976Y-97290000D01*
X158545357Y-97337619D01*
X158450119Y-97480476D01*
X158402500Y-97670952D01*
X158402500Y-98051904D01*
X158450119Y-98147142D01*
X158497738Y-98194761D01*
X158592976Y-98242380D01*
X158783452Y-98242380D01*
X158878690Y-98194761D01*
X158926309Y-98147142D01*
X158973928Y-98051904D01*
X158973928Y-97813809D01*
X158926309Y-97718571D01*
X158878690Y-97670952D01*
X158783452Y-97623333D01*
X158592976Y-97623333D01*
X158497738Y-97670952D01*
X158450119Y-97718571D01*
X158402500Y-97813809D01*
X154592976Y-95654761D02*
X154735833Y-95702380D01*
X154973928Y-95702380D01*
X155069166Y-95654761D01*
X155116785Y-95607142D01*
X155164404Y-95511904D01*
X155164404Y-95416666D01*
X155116785Y-95321428D01*
X155069166Y-95273809D01*
X154973928Y-95226190D01*
X154783452Y-95178571D01*
X154688214Y-95130952D01*
X154640595Y-95083333D01*
X154592976Y-94988095D01*
X154592976Y-94892857D01*
X154640595Y-94797619D01*
X154688214Y-94750000D01*
X154783452Y-94702380D01*
X155021547Y-94702380D01*
X155164404Y-94750000D01*
X155497738Y-94702380D02*
X155735833Y-95702380D01*
X155926309Y-94988095D01*
X156116785Y-95702380D01*
X156354880Y-94702380D01*
X157450119Y-94797619D02*
X157497738Y-94750000D01*
X157592976Y-94702380D01*
X157831071Y-94702380D01*
X157926309Y-94750000D01*
X157973928Y-94797619D01*
X158021547Y-94892857D01*
X158021547Y-94988095D01*
X157973928Y-95130952D01*
X157402500Y-95702380D01*
X158021547Y-95702380D01*
X158926309Y-94702380D02*
X158450119Y-94702380D01*
X158402500Y-95178571D01*
X158450119Y-95130952D01*
X158545357Y-95083333D01*
X158783452Y-95083333D01*
X158878690Y-95130952D01*
X158926309Y-95178571D01*
X158973928Y-95273809D01*
X158973928Y-95511904D01*
X158926309Y-95607142D01*
X158878690Y-95654761D01*
X158783452Y-95702380D01*
X158545357Y-95702380D01*
X158450119Y-95654761D01*
X158402500Y-95607142D01*
X154592976Y-93114761D02*
X154735833Y-93162380D01*
X154973928Y-93162380D01*
X155069166Y-93114761D01*
X155116785Y-93067142D01*
X155164404Y-92971904D01*
X155164404Y-92876666D01*
X155116785Y-92781428D01*
X155069166Y-92733809D01*
X154973928Y-92686190D01*
X154783452Y-92638571D01*
X154688214Y-92590952D01*
X154640595Y-92543333D01*
X154592976Y-92448095D01*
X154592976Y-92352857D01*
X154640595Y-92257619D01*
X154688214Y-92210000D01*
X154783452Y-92162380D01*
X155021547Y-92162380D01*
X155164404Y-92210000D01*
X155497738Y-92162380D02*
X155735833Y-93162380D01*
X155926309Y-92448095D01*
X156116785Y-93162380D01*
X156354880Y-92162380D01*
X157450119Y-92257619D02*
X157497738Y-92210000D01*
X157592976Y-92162380D01*
X157831071Y-92162380D01*
X157926309Y-92210000D01*
X157973928Y-92257619D01*
X158021547Y-92352857D01*
X158021547Y-92448095D01*
X157973928Y-92590952D01*
X157402500Y-93162380D01*
X158021547Y-93162380D01*
X158878690Y-92495714D02*
X158878690Y-93162380D01*
X158640595Y-92114761D02*
X158402500Y-92829047D01*
X159021547Y-92829047D01*
X154592976Y-85494761D02*
X154735833Y-85542380D01*
X154973928Y-85542380D01*
X155069166Y-85494761D01*
X155116785Y-85447142D01*
X155164404Y-85351904D01*
X155164404Y-85256666D01*
X155116785Y-85161428D01*
X155069166Y-85113809D01*
X154973928Y-85066190D01*
X154783452Y-85018571D01*
X154688214Y-84970952D01*
X154640595Y-84923333D01*
X154592976Y-84828095D01*
X154592976Y-84732857D01*
X154640595Y-84637619D01*
X154688214Y-84590000D01*
X154783452Y-84542380D01*
X155021547Y-84542380D01*
X155164404Y-84590000D01*
X155497738Y-84542380D02*
X155735833Y-85542380D01*
X155926309Y-84828095D01*
X156116785Y-85542380D01*
X156354880Y-84542380D01*
X157450119Y-84637619D02*
X157497738Y-84590000D01*
X157592976Y-84542380D01*
X157831071Y-84542380D01*
X157926309Y-84590000D01*
X157973928Y-84637619D01*
X158021547Y-84732857D01*
X158021547Y-84828095D01*
X157973928Y-84970952D01*
X157402500Y-85542380D01*
X158021547Y-85542380D01*
X158354880Y-84542380D02*
X158973928Y-84542380D01*
X158640595Y-84923333D01*
X158783452Y-84923333D01*
X158878690Y-84970952D01*
X158926309Y-85018571D01*
X158973928Y-85113809D01*
X158973928Y-85351904D01*
X158926309Y-85447142D01*
X158878690Y-85494761D01*
X158783452Y-85542380D01*
X158497738Y-85542380D01*
X158402500Y-85494761D01*
X158354880Y-85447142D01*
X154592976Y-82954761D02*
X154735833Y-83002380D01*
X154973928Y-83002380D01*
X155069166Y-82954761D01*
X155116785Y-82907142D01*
X155164404Y-82811904D01*
X155164404Y-82716666D01*
X155116785Y-82621428D01*
X155069166Y-82573809D01*
X154973928Y-82526190D01*
X154783452Y-82478571D01*
X154688214Y-82430952D01*
X154640595Y-82383333D01*
X154592976Y-82288095D01*
X154592976Y-82192857D01*
X154640595Y-82097619D01*
X154688214Y-82050000D01*
X154783452Y-82002380D01*
X155021547Y-82002380D01*
X155164404Y-82050000D01*
X155497738Y-82002380D02*
X155735833Y-83002380D01*
X155926309Y-82288095D01*
X156116785Y-83002380D01*
X156354880Y-82002380D01*
X157450119Y-82097619D02*
X157497738Y-82050000D01*
X157592976Y-82002380D01*
X157831071Y-82002380D01*
X157926309Y-82050000D01*
X157973928Y-82097619D01*
X158021547Y-82192857D01*
X158021547Y-82288095D01*
X157973928Y-82430952D01*
X157402500Y-83002380D01*
X158021547Y-83002380D01*
X158402500Y-82097619D02*
X158450119Y-82050000D01*
X158545357Y-82002380D01*
X158783452Y-82002380D01*
X158878690Y-82050000D01*
X158926309Y-82097619D01*
X158973928Y-82192857D01*
X158973928Y-82288095D01*
X158926309Y-82430952D01*
X158354880Y-83002380D01*
X158973928Y-83002380D01*
X154592976Y-80414761D02*
X154735833Y-80462380D01*
X154973928Y-80462380D01*
X155069166Y-80414761D01*
X155116785Y-80367142D01*
X155164404Y-80271904D01*
X155164404Y-80176666D01*
X155116785Y-80081428D01*
X155069166Y-80033809D01*
X154973928Y-79986190D01*
X154783452Y-79938571D01*
X154688214Y-79890952D01*
X154640595Y-79843333D01*
X154592976Y-79748095D01*
X154592976Y-79652857D01*
X154640595Y-79557619D01*
X154688214Y-79510000D01*
X154783452Y-79462380D01*
X155021547Y-79462380D01*
X155164404Y-79510000D01*
X155497738Y-79462380D02*
X155735833Y-80462380D01*
X155926309Y-79748095D01*
X156116785Y-80462380D01*
X156354880Y-79462380D01*
X157450119Y-79557619D02*
X157497738Y-79510000D01*
X157592976Y-79462380D01*
X157831071Y-79462380D01*
X157926309Y-79510000D01*
X157973928Y-79557619D01*
X158021547Y-79652857D01*
X158021547Y-79748095D01*
X157973928Y-79890952D01*
X157402500Y-80462380D01*
X158021547Y-80462380D01*
X158973928Y-80462380D02*
X158402500Y-80462380D01*
X158688214Y-80462380D02*
X158688214Y-79462380D01*
X158592976Y-79605238D01*
X158497738Y-79700476D01*
X158402500Y-79748095D01*
X154592976Y-77874761D02*
X154735833Y-77922380D01*
X154973928Y-77922380D01*
X155069166Y-77874761D01*
X155116785Y-77827142D01*
X155164404Y-77731904D01*
X155164404Y-77636666D01*
X155116785Y-77541428D01*
X155069166Y-77493809D01*
X154973928Y-77446190D01*
X154783452Y-77398571D01*
X154688214Y-77350952D01*
X154640595Y-77303333D01*
X154592976Y-77208095D01*
X154592976Y-77112857D01*
X154640595Y-77017619D01*
X154688214Y-76970000D01*
X154783452Y-76922380D01*
X155021547Y-76922380D01*
X155164404Y-76970000D01*
X155497738Y-76922380D02*
X155735833Y-77922380D01*
X155926309Y-77208095D01*
X156116785Y-77922380D01*
X156354880Y-76922380D01*
X157450119Y-77017619D02*
X157497738Y-76970000D01*
X157592976Y-76922380D01*
X157831071Y-76922380D01*
X157926309Y-76970000D01*
X157973928Y-77017619D01*
X158021547Y-77112857D01*
X158021547Y-77208095D01*
X157973928Y-77350952D01*
X157402500Y-77922380D01*
X158021547Y-77922380D01*
X158640595Y-76922380D02*
X158735833Y-76922380D01*
X158831071Y-76970000D01*
X158878690Y-77017619D01*
X158926309Y-77112857D01*
X158973928Y-77303333D01*
X158973928Y-77541428D01*
X158926309Y-77731904D01*
X158878690Y-77827142D01*
X158831071Y-77874761D01*
X158735833Y-77922380D01*
X158640595Y-77922380D01*
X158545357Y-77874761D01*
X158497738Y-77827142D01*
X158450119Y-77731904D01*
X158402500Y-77541428D01*
X158402500Y-77303333D01*
X158450119Y-77112857D01*
X158497738Y-77017619D01*
X158545357Y-76970000D01*
X158640595Y-76922380D01*
X154592976Y-75334761D02*
X154735833Y-75382380D01*
X154973928Y-75382380D01*
X155069166Y-75334761D01*
X155116785Y-75287142D01*
X155164404Y-75191904D01*
X155164404Y-75096666D01*
X155116785Y-75001428D01*
X155069166Y-74953809D01*
X154973928Y-74906190D01*
X154783452Y-74858571D01*
X154688214Y-74810952D01*
X154640595Y-74763333D01*
X154592976Y-74668095D01*
X154592976Y-74572857D01*
X154640595Y-74477619D01*
X154688214Y-74430000D01*
X154783452Y-74382380D01*
X155021547Y-74382380D01*
X155164404Y-74430000D01*
X155497738Y-74382380D02*
X155735833Y-75382380D01*
X155926309Y-74668095D01*
X156116785Y-75382380D01*
X156354880Y-74382380D01*
X158021547Y-75382380D02*
X157450119Y-75382380D01*
X157735833Y-75382380D02*
X157735833Y-74382380D01*
X157640595Y-74525238D01*
X157545357Y-74620476D01*
X157450119Y-74668095D01*
X158497738Y-75382380D02*
X158688214Y-75382380D01*
X158783452Y-75334761D01*
X158831071Y-75287142D01*
X158926309Y-75144285D01*
X158973928Y-74953809D01*
X158973928Y-74572857D01*
X158926309Y-74477619D01*
X158878690Y-74430000D01*
X158783452Y-74382380D01*
X158592976Y-74382380D01*
X158497738Y-74430000D01*
X158450119Y-74477619D01*
X158402500Y-74572857D01*
X158402500Y-74810952D01*
X158450119Y-74906190D01*
X158497738Y-74953809D01*
X158592976Y-75001428D01*
X158783452Y-75001428D01*
X158878690Y-74953809D01*
X158926309Y-74906190D01*
X158973928Y-74810952D01*
X154592976Y-72794761D02*
X154735833Y-72842380D01*
X154973928Y-72842380D01*
X155069166Y-72794761D01*
X155116785Y-72747142D01*
X155164404Y-72651904D01*
X155164404Y-72556666D01*
X155116785Y-72461428D01*
X155069166Y-72413809D01*
X154973928Y-72366190D01*
X154783452Y-72318571D01*
X154688214Y-72270952D01*
X154640595Y-72223333D01*
X154592976Y-72128095D01*
X154592976Y-72032857D01*
X154640595Y-71937619D01*
X154688214Y-71890000D01*
X154783452Y-71842380D01*
X155021547Y-71842380D01*
X155164404Y-71890000D01*
X155497738Y-71842380D02*
X155735833Y-72842380D01*
X155926309Y-72128095D01*
X156116785Y-72842380D01*
X156354880Y-71842380D01*
X158021547Y-72842380D02*
X157450119Y-72842380D01*
X157735833Y-72842380D02*
X157735833Y-71842380D01*
X157640595Y-71985238D01*
X157545357Y-72080476D01*
X157450119Y-72128095D01*
X158592976Y-72270952D02*
X158497738Y-72223333D01*
X158450119Y-72175714D01*
X158402500Y-72080476D01*
X158402500Y-72032857D01*
X158450119Y-71937619D01*
X158497738Y-71890000D01*
X158592976Y-71842380D01*
X158783452Y-71842380D01*
X158878690Y-71890000D01*
X158926309Y-71937619D01*
X158973928Y-72032857D01*
X158973928Y-72080476D01*
X158926309Y-72175714D01*
X158878690Y-72223333D01*
X158783452Y-72270952D01*
X158592976Y-72270952D01*
X158497738Y-72318571D01*
X158450119Y-72366190D01*
X158402500Y-72461428D01*
X158402500Y-72651904D01*
X158450119Y-72747142D01*
X158497738Y-72794761D01*
X158592976Y-72842380D01*
X158783452Y-72842380D01*
X158878690Y-72794761D01*
X158926309Y-72747142D01*
X158973928Y-72651904D01*
X158973928Y-72461428D01*
X158926309Y-72366190D01*
X158878690Y-72318571D01*
X158783452Y-72270952D01*
X154592976Y-70254761D02*
X154735833Y-70302380D01*
X154973928Y-70302380D01*
X155069166Y-70254761D01*
X155116785Y-70207142D01*
X155164404Y-70111904D01*
X155164404Y-70016666D01*
X155116785Y-69921428D01*
X155069166Y-69873809D01*
X154973928Y-69826190D01*
X154783452Y-69778571D01*
X154688214Y-69730952D01*
X154640595Y-69683333D01*
X154592976Y-69588095D01*
X154592976Y-69492857D01*
X154640595Y-69397619D01*
X154688214Y-69350000D01*
X154783452Y-69302380D01*
X155021547Y-69302380D01*
X155164404Y-69350000D01*
X155497738Y-69302380D02*
X155735833Y-70302380D01*
X155926309Y-69588095D01*
X156116785Y-70302380D01*
X156354880Y-69302380D01*
X158021547Y-70302380D02*
X157450119Y-70302380D01*
X157735833Y-70302380D02*
X157735833Y-69302380D01*
X157640595Y-69445238D01*
X157545357Y-69540476D01*
X157450119Y-69588095D01*
X158354880Y-69302380D02*
X159021547Y-69302380D01*
X158592976Y-70302380D01*
X154592976Y-67714761D02*
X154735833Y-67762380D01*
X154973928Y-67762380D01*
X155069166Y-67714761D01*
X155116785Y-67667142D01*
X155164404Y-67571904D01*
X155164404Y-67476666D01*
X155116785Y-67381428D01*
X155069166Y-67333809D01*
X154973928Y-67286190D01*
X154783452Y-67238571D01*
X154688214Y-67190952D01*
X154640595Y-67143333D01*
X154592976Y-67048095D01*
X154592976Y-66952857D01*
X154640595Y-66857619D01*
X154688214Y-66810000D01*
X154783452Y-66762380D01*
X155021547Y-66762380D01*
X155164404Y-66810000D01*
X155497738Y-66762380D02*
X155735833Y-67762380D01*
X155926309Y-67048095D01*
X156116785Y-67762380D01*
X156354880Y-66762380D01*
X158021547Y-67762380D02*
X157450119Y-67762380D01*
X157735833Y-67762380D02*
X157735833Y-66762380D01*
X157640595Y-66905238D01*
X157545357Y-67000476D01*
X157450119Y-67048095D01*
X158878690Y-66762380D02*
X158688214Y-66762380D01*
X158592976Y-66810000D01*
X158545357Y-66857619D01*
X158450119Y-67000476D01*
X158402500Y-67190952D01*
X158402500Y-67571904D01*
X158450119Y-67667142D01*
X158497738Y-67714761D01*
X158592976Y-67762380D01*
X158783452Y-67762380D01*
X158878690Y-67714761D01*
X158926309Y-67667142D01*
X158973928Y-67571904D01*
X158973928Y-67333809D01*
X158926309Y-67238571D01*
X158878690Y-67190952D01*
X158783452Y-67143333D01*
X158592976Y-67143333D01*
X158497738Y-67190952D01*
X158450119Y-67238571D01*
X158402500Y-67333809D01*
X141698452Y-93114761D02*
X141841309Y-93162380D01*
X142079404Y-93162380D01*
X142174642Y-93114761D01*
X142222261Y-93067142D01*
X142269880Y-92971904D01*
X142269880Y-92876666D01*
X142222261Y-92781428D01*
X142174642Y-92733809D01*
X142079404Y-92686190D01*
X141888928Y-92638571D01*
X141793690Y-92590952D01*
X141746071Y-92543333D01*
X141698452Y-92448095D01*
X141698452Y-92352857D01*
X141746071Y-92257619D01*
X141793690Y-92210000D01*
X141888928Y-92162380D01*
X142127023Y-92162380D01*
X142269880Y-92210000D01*
X142603214Y-92162380D02*
X142841309Y-93162380D01*
X143031785Y-92448095D01*
X143222261Y-93162380D01*
X143460357Y-92162380D01*
X144746071Y-92590952D02*
X144650833Y-92543333D01*
X144603214Y-92495714D01*
X144555595Y-92400476D01*
X144555595Y-92352857D01*
X144603214Y-92257619D01*
X144650833Y-92210000D01*
X144746071Y-92162380D01*
X144936547Y-92162380D01*
X145031785Y-92210000D01*
X145079404Y-92257619D01*
X145127023Y-92352857D01*
X145127023Y-92400476D01*
X145079404Y-92495714D01*
X145031785Y-92543333D01*
X144936547Y-92590952D01*
X144746071Y-92590952D01*
X144650833Y-92638571D01*
X144603214Y-92686190D01*
X144555595Y-92781428D01*
X144555595Y-92971904D01*
X144603214Y-93067142D01*
X144650833Y-93114761D01*
X144746071Y-93162380D01*
X144936547Y-93162380D01*
X145031785Y-93114761D01*
X145079404Y-93067142D01*
X145127023Y-92971904D01*
X145127023Y-92781428D01*
X145079404Y-92686190D01*
X145031785Y-92638571D01*
X144936547Y-92590952D01*
X140746071Y-110894761D02*
X140888928Y-110942380D01*
X141127023Y-110942380D01*
X141222261Y-110894761D01*
X141269880Y-110847142D01*
X141317500Y-110751904D01*
X141317500Y-110656666D01*
X141269880Y-110561428D01*
X141222261Y-110513809D01*
X141127023Y-110466190D01*
X140936547Y-110418571D01*
X140841309Y-110370952D01*
X140793690Y-110323333D01*
X140746071Y-110228095D01*
X140746071Y-110132857D01*
X140793690Y-110037619D01*
X140841309Y-109990000D01*
X140936547Y-109942380D01*
X141174642Y-109942380D01*
X141317500Y-109990000D01*
X141650833Y-109942380D02*
X141888928Y-110942380D01*
X142079404Y-110228095D01*
X142269880Y-110942380D01*
X142507976Y-109942380D01*
X144174642Y-110942380D02*
X143603214Y-110942380D01*
X143888928Y-110942380D02*
X143888928Y-109942380D01*
X143793690Y-110085238D01*
X143698452Y-110180476D01*
X143603214Y-110228095D01*
X145079404Y-109942380D02*
X144603214Y-109942380D01*
X144555595Y-110418571D01*
X144603214Y-110370952D01*
X144698452Y-110323333D01*
X144936547Y-110323333D01*
X145031785Y-110370952D01*
X145079404Y-110418571D01*
X145127023Y-110513809D01*
X145127023Y-110751904D01*
X145079404Y-110847142D01*
X145031785Y-110894761D01*
X144936547Y-110942380D01*
X144698452Y-110942380D01*
X144603214Y-110894761D01*
X144555595Y-110847142D01*
X140746071Y-108354761D02*
X140888928Y-108402380D01*
X141127023Y-108402380D01*
X141222261Y-108354761D01*
X141269880Y-108307142D01*
X141317500Y-108211904D01*
X141317500Y-108116666D01*
X141269880Y-108021428D01*
X141222261Y-107973809D01*
X141127023Y-107926190D01*
X140936547Y-107878571D01*
X140841309Y-107830952D01*
X140793690Y-107783333D01*
X140746071Y-107688095D01*
X140746071Y-107592857D01*
X140793690Y-107497619D01*
X140841309Y-107450000D01*
X140936547Y-107402380D01*
X141174642Y-107402380D01*
X141317500Y-107450000D01*
X141650833Y-107402380D02*
X141888928Y-108402380D01*
X142079404Y-107688095D01*
X142269880Y-108402380D01*
X142507976Y-107402380D01*
X144174642Y-108402380D02*
X143603214Y-108402380D01*
X143888928Y-108402380D02*
X143888928Y-107402380D01*
X143793690Y-107545238D01*
X143698452Y-107640476D01*
X143603214Y-107688095D01*
X145031785Y-107735714D02*
X145031785Y-108402380D01*
X144793690Y-107354761D02*
X144555595Y-108069047D01*
X145174642Y-108069047D01*
X140746071Y-105814761D02*
X140888928Y-105862380D01*
X141127023Y-105862380D01*
X141222261Y-105814761D01*
X141269880Y-105767142D01*
X141317500Y-105671904D01*
X141317500Y-105576666D01*
X141269880Y-105481428D01*
X141222261Y-105433809D01*
X141127023Y-105386190D01*
X140936547Y-105338571D01*
X140841309Y-105290952D01*
X140793690Y-105243333D01*
X140746071Y-105148095D01*
X140746071Y-105052857D01*
X140793690Y-104957619D01*
X140841309Y-104910000D01*
X140936547Y-104862380D01*
X141174642Y-104862380D01*
X141317500Y-104910000D01*
X141650833Y-104862380D02*
X141888928Y-105862380D01*
X142079404Y-105148095D01*
X142269880Y-105862380D01*
X142507976Y-104862380D01*
X144174642Y-105862380D02*
X143603214Y-105862380D01*
X143888928Y-105862380D02*
X143888928Y-104862380D01*
X143793690Y-105005238D01*
X143698452Y-105100476D01*
X143603214Y-105148095D01*
X144507976Y-104862380D02*
X145127023Y-104862380D01*
X144793690Y-105243333D01*
X144936547Y-105243333D01*
X145031785Y-105290952D01*
X145079404Y-105338571D01*
X145127023Y-105433809D01*
X145127023Y-105671904D01*
X145079404Y-105767142D01*
X145031785Y-105814761D01*
X144936547Y-105862380D01*
X144650833Y-105862380D01*
X144555595Y-105814761D01*
X144507976Y-105767142D01*
X140746071Y-103274761D02*
X140888928Y-103322380D01*
X141127023Y-103322380D01*
X141222261Y-103274761D01*
X141269880Y-103227142D01*
X141317500Y-103131904D01*
X141317500Y-103036666D01*
X141269880Y-102941428D01*
X141222261Y-102893809D01*
X141127023Y-102846190D01*
X140936547Y-102798571D01*
X140841309Y-102750952D01*
X140793690Y-102703333D01*
X140746071Y-102608095D01*
X140746071Y-102512857D01*
X140793690Y-102417619D01*
X140841309Y-102370000D01*
X140936547Y-102322380D01*
X141174642Y-102322380D01*
X141317500Y-102370000D01*
X141650833Y-102322380D02*
X141888928Y-103322380D01*
X142079404Y-102608095D01*
X142269880Y-103322380D01*
X142507976Y-102322380D01*
X144174642Y-103322380D02*
X143603214Y-103322380D01*
X143888928Y-103322380D02*
X143888928Y-102322380D01*
X143793690Y-102465238D01*
X143698452Y-102560476D01*
X143603214Y-102608095D01*
X144555595Y-102417619D02*
X144603214Y-102370000D01*
X144698452Y-102322380D01*
X144936547Y-102322380D01*
X145031785Y-102370000D01*
X145079404Y-102417619D01*
X145127023Y-102512857D01*
X145127023Y-102608095D01*
X145079404Y-102750952D01*
X144507976Y-103322380D01*
X145127023Y-103322380D01*
X140746071Y-100734761D02*
X140888928Y-100782380D01*
X141127023Y-100782380D01*
X141222261Y-100734761D01*
X141269880Y-100687142D01*
X141317500Y-100591904D01*
X141317500Y-100496666D01*
X141269880Y-100401428D01*
X141222261Y-100353809D01*
X141127023Y-100306190D01*
X140936547Y-100258571D01*
X140841309Y-100210952D01*
X140793690Y-100163333D01*
X140746071Y-100068095D01*
X140746071Y-99972857D01*
X140793690Y-99877619D01*
X140841309Y-99830000D01*
X140936547Y-99782380D01*
X141174642Y-99782380D01*
X141317500Y-99830000D01*
X141650833Y-99782380D02*
X141888928Y-100782380D01*
X142079404Y-100068095D01*
X142269880Y-100782380D01*
X142507976Y-99782380D01*
X144174642Y-100782380D02*
X143603214Y-100782380D01*
X143888928Y-100782380D02*
X143888928Y-99782380D01*
X143793690Y-99925238D01*
X143698452Y-100020476D01*
X143603214Y-100068095D01*
X145127023Y-100782380D02*
X144555595Y-100782380D01*
X144841309Y-100782380D02*
X144841309Y-99782380D01*
X144746071Y-99925238D01*
X144650833Y-100020476D01*
X144555595Y-100068095D01*
X140746071Y-98194761D02*
X140888928Y-98242380D01*
X141127023Y-98242380D01*
X141222261Y-98194761D01*
X141269880Y-98147142D01*
X141317500Y-98051904D01*
X141317500Y-97956666D01*
X141269880Y-97861428D01*
X141222261Y-97813809D01*
X141127023Y-97766190D01*
X140936547Y-97718571D01*
X140841309Y-97670952D01*
X140793690Y-97623333D01*
X140746071Y-97528095D01*
X140746071Y-97432857D01*
X140793690Y-97337619D01*
X140841309Y-97290000D01*
X140936547Y-97242380D01*
X141174642Y-97242380D01*
X141317500Y-97290000D01*
X141650833Y-97242380D02*
X141888928Y-98242380D01*
X142079404Y-97528095D01*
X142269880Y-98242380D01*
X142507976Y-97242380D01*
X144174642Y-98242380D02*
X143603214Y-98242380D01*
X143888928Y-98242380D02*
X143888928Y-97242380D01*
X143793690Y-97385238D01*
X143698452Y-97480476D01*
X143603214Y-97528095D01*
X144793690Y-97242380D02*
X144888928Y-97242380D01*
X144984166Y-97290000D01*
X145031785Y-97337619D01*
X145079404Y-97432857D01*
X145127023Y-97623333D01*
X145127023Y-97861428D01*
X145079404Y-98051904D01*
X145031785Y-98147142D01*
X144984166Y-98194761D01*
X144888928Y-98242380D01*
X144793690Y-98242380D01*
X144698452Y-98194761D01*
X144650833Y-98147142D01*
X144603214Y-98051904D01*
X144555595Y-97861428D01*
X144555595Y-97623333D01*
X144603214Y-97432857D01*
X144650833Y-97337619D01*
X144698452Y-97290000D01*
X144793690Y-97242380D01*
X141698452Y-95654761D02*
X141841309Y-95702380D01*
X142079404Y-95702380D01*
X142174642Y-95654761D01*
X142222261Y-95607142D01*
X142269880Y-95511904D01*
X142269880Y-95416666D01*
X142222261Y-95321428D01*
X142174642Y-95273809D01*
X142079404Y-95226190D01*
X141888928Y-95178571D01*
X141793690Y-95130952D01*
X141746071Y-95083333D01*
X141698452Y-94988095D01*
X141698452Y-94892857D01*
X141746071Y-94797619D01*
X141793690Y-94750000D01*
X141888928Y-94702380D01*
X142127023Y-94702380D01*
X142269880Y-94750000D01*
X142603214Y-94702380D02*
X142841309Y-95702380D01*
X143031785Y-94988095D01*
X143222261Y-95702380D01*
X143460357Y-94702380D01*
X144650833Y-95702380D02*
X144841309Y-95702380D01*
X144936547Y-95654761D01*
X144984166Y-95607142D01*
X145079404Y-95464285D01*
X145127023Y-95273809D01*
X145127023Y-94892857D01*
X145079404Y-94797619D01*
X145031785Y-94750000D01*
X144936547Y-94702380D01*
X144746071Y-94702380D01*
X144650833Y-94750000D01*
X144603214Y-94797619D01*
X144555595Y-94892857D01*
X144555595Y-95130952D01*
X144603214Y-95226190D01*
X144650833Y-95273809D01*
X144746071Y-95321428D01*
X144936547Y-95321428D01*
X145031785Y-95273809D01*
X145079404Y-95226190D01*
X145127023Y-95130952D01*
X141698452Y-85494761D02*
X141841309Y-85542380D01*
X142079404Y-85542380D01*
X142174642Y-85494761D01*
X142222261Y-85447142D01*
X142269880Y-85351904D01*
X142269880Y-85256666D01*
X142222261Y-85161428D01*
X142174642Y-85113809D01*
X142079404Y-85066190D01*
X141888928Y-85018571D01*
X141793690Y-84970952D01*
X141746071Y-84923333D01*
X141698452Y-84828095D01*
X141698452Y-84732857D01*
X141746071Y-84637619D01*
X141793690Y-84590000D01*
X141888928Y-84542380D01*
X142127023Y-84542380D01*
X142269880Y-84590000D01*
X142603214Y-84542380D02*
X142841309Y-85542380D01*
X143031785Y-84828095D01*
X143222261Y-85542380D01*
X143460357Y-84542380D01*
X144507976Y-84542380D02*
X145174642Y-84542380D01*
X144746071Y-85542380D01*
X141698452Y-82954761D02*
X141841309Y-83002380D01*
X142079404Y-83002380D01*
X142174642Y-82954761D01*
X142222261Y-82907142D01*
X142269880Y-82811904D01*
X142269880Y-82716666D01*
X142222261Y-82621428D01*
X142174642Y-82573809D01*
X142079404Y-82526190D01*
X141888928Y-82478571D01*
X141793690Y-82430952D01*
X141746071Y-82383333D01*
X141698452Y-82288095D01*
X141698452Y-82192857D01*
X141746071Y-82097619D01*
X141793690Y-82050000D01*
X141888928Y-82002380D01*
X142127023Y-82002380D01*
X142269880Y-82050000D01*
X142603214Y-82002380D02*
X142841309Y-83002380D01*
X143031785Y-82288095D01*
X143222261Y-83002380D01*
X143460357Y-82002380D01*
X145031785Y-82002380D02*
X144841309Y-82002380D01*
X144746071Y-82050000D01*
X144698452Y-82097619D01*
X144603214Y-82240476D01*
X144555595Y-82430952D01*
X144555595Y-82811904D01*
X144603214Y-82907142D01*
X144650833Y-82954761D01*
X144746071Y-83002380D01*
X144936547Y-83002380D01*
X145031785Y-82954761D01*
X145079404Y-82907142D01*
X145127023Y-82811904D01*
X145127023Y-82573809D01*
X145079404Y-82478571D01*
X145031785Y-82430952D01*
X144936547Y-82383333D01*
X144746071Y-82383333D01*
X144650833Y-82430952D01*
X144603214Y-82478571D01*
X144555595Y-82573809D01*
X141698452Y-80414761D02*
X141841309Y-80462380D01*
X142079404Y-80462380D01*
X142174642Y-80414761D01*
X142222261Y-80367142D01*
X142269880Y-80271904D01*
X142269880Y-80176666D01*
X142222261Y-80081428D01*
X142174642Y-80033809D01*
X142079404Y-79986190D01*
X141888928Y-79938571D01*
X141793690Y-79890952D01*
X141746071Y-79843333D01*
X141698452Y-79748095D01*
X141698452Y-79652857D01*
X141746071Y-79557619D01*
X141793690Y-79510000D01*
X141888928Y-79462380D01*
X142127023Y-79462380D01*
X142269880Y-79510000D01*
X142603214Y-79462380D02*
X142841309Y-80462380D01*
X143031785Y-79748095D01*
X143222261Y-80462380D01*
X143460357Y-79462380D01*
X145079404Y-79462380D02*
X144603214Y-79462380D01*
X144555595Y-79938571D01*
X144603214Y-79890952D01*
X144698452Y-79843333D01*
X144936547Y-79843333D01*
X145031785Y-79890952D01*
X145079404Y-79938571D01*
X145127023Y-80033809D01*
X145127023Y-80271904D01*
X145079404Y-80367142D01*
X145031785Y-80414761D01*
X144936547Y-80462380D01*
X144698452Y-80462380D01*
X144603214Y-80414761D01*
X144555595Y-80367142D01*
X141698452Y-77874761D02*
X141841309Y-77922380D01*
X142079404Y-77922380D01*
X142174642Y-77874761D01*
X142222261Y-77827142D01*
X142269880Y-77731904D01*
X142269880Y-77636666D01*
X142222261Y-77541428D01*
X142174642Y-77493809D01*
X142079404Y-77446190D01*
X141888928Y-77398571D01*
X141793690Y-77350952D01*
X141746071Y-77303333D01*
X141698452Y-77208095D01*
X141698452Y-77112857D01*
X141746071Y-77017619D01*
X141793690Y-76970000D01*
X141888928Y-76922380D01*
X142127023Y-76922380D01*
X142269880Y-76970000D01*
X142603214Y-76922380D02*
X142841309Y-77922380D01*
X143031785Y-77208095D01*
X143222261Y-77922380D01*
X143460357Y-76922380D01*
X145031785Y-77255714D02*
X145031785Y-77922380D01*
X144793690Y-76874761D02*
X144555595Y-77589047D01*
X145174642Y-77589047D01*
X141698452Y-75334761D02*
X141841309Y-75382380D01*
X142079404Y-75382380D01*
X142174642Y-75334761D01*
X142222261Y-75287142D01*
X142269880Y-75191904D01*
X142269880Y-75096666D01*
X142222261Y-75001428D01*
X142174642Y-74953809D01*
X142079404Y-74906190D01*
X141888928Y-74858571D01*
X141793690Y-74810952D01*
X141746071Y-74763333D01*
X141698452Y-74668095D01*
X141698452Y-74572857D01*
X141746071Y-74477619D01*
X141793690Y-74430000D01*
X141888928Y-74382380D01*
X142127023Y-74382380D01*
X142269880Y-74430000D01*
X142603214Y-74382380D02*
X142841309Y-75382380D01*
X143031785Y-74668095D01*
X143222261Y-75382380D01*
X143460357Y-74382380D01*
X144507976Y-74382380D02*
X145127023Y-74382380D01*
X144793690Y-74763333D01*
X144936547Y-74763333D01*
X145031785Y-74810952D01*
X145079404Y-74858571D01*
X145127023Y-74953809D01*
X145127023Y-75191904D01*
X145079404Y-75287142D01*
X145031785Y-75334761D01*
X144936547Y-75382380D01*
X144650833Y-75382380D01*
X144555595Y-75334761D01*
X144507976Y-75287142D01*
X141698452Y-72794761D02*
X141841309Y-72842380D01*
X142079404Y-72842380D01*
X142174642Y-72794761D01*
X142222261Y-72747142D01*
X142269880Y-72651904D01*
X142269880Y-72556666D01*
X142222261Y-72461428D01*
X142174642Y-72413809D01*
X142079404Y-72366190D01*
X141888928Y-72318571D01*
X141793690Y-72270952D01*
X141746071Y-72223333D01*
X141698452Y-72128095D01*
X141698452Y-72032857D01*
X141746071Y-71937619D01*
X141793690Y-71890000D01*
X141888928Y-71842380D01*
X142127023Y-71842380D01*
X142269880Y-71890000D01*
X142603214Y-71842380D02*
X142841309Y-72842380D01*
X143031785Y-72128095D01*
X143222261Y-72842380D01*
X143460357Y-71842380D01*
X144555595Y-71937619D02*
X144603214Y-71890000D01*
X144698452Y-71842380D01*
X144936547Y-71842380D01*
X145031785Y-71890000D01*
X145079404Y-71937619D01*
X145127023Y-72032857D01*
X145127023Y-72128095D01*
X145079404Y-72270952D01*
X144507976Y-72842380D01*
X145127023Y-72842380D01*
X141698452Y-70254761D02*
X141841309Y-70302380D01*
X142079404Y-70302380D01*
X142174642Y-70254761D01*
X142222261Y-70207142D01*
X142269880Y-70111904D01*
X142269880Y-70016666D01*
X142222261Y-69921428D01*
X142174642Y-69873809D01*
X142079404Y-69826190D01*
X141888928Y-69778571D01*
X141793690Y-69730952D01*
X141746071Y-69683333D01*
X141698452Y-69588095D01*
X141698452Y-69492857D01*
X141746071Y-69397619D01*
X141793690Y-69350000D01*
X141888928Y-69302380D01*
X142127023Y-69302380D01*
X142269880Y-69350000D01*
X142603214Y-69302380D02*
X142841309Y-70302380D01*
X143031785Y-69588095D01*
X143222261Y-70302380D01*
X143460357Y-69302380D01*
X145127023Y-70302380D02*
X144555595Y-70302380D01*
X144841309Y-70302380D02*
X144841309Y-69302380D01*
X144746071Y-69445238D01*
X144650833Y-69540476D01*
X144555595Y-69588095D01*
X141698452Y-67714761D02*
X141841309Y-67762380D01*
X142079404Y-67762380D01*
X142174642Y-67714761D01*
X142222261Y-67667142D01*
X142269880Y-67571904D01*
X142269880Y-67476666D01*
X142222261Y-67381428D01*
X142174642Y-67333809D01*
X142079404Y-67286190D01*
X141888928Y-67238571D01*
X141793690Y-67190952D01*
X141746071Y-67143333D01*
X141698452Y-67048095D01*
X141698452Y-66952857D01*
X141746071Y-66857619D01*
X141793690Y-66810000D01*
X141888928Y-66762380D01*
X142127023Y-66762380D01*
X142269880Y-66810000D01*
X142603214Y-66762380D02*
X142841309Y-67762380D01*
X143031785Y-67048095D01*
X143222261Y-67762380D01*
X143460357Y-66762380D01*
X144793690Y-66762380D02*
X144888928Y-66762380D01*
X144984166Y-66810000D01*
X145031785Y-66857619D01*
X145079404Y-66952857D01*
X145127023Y-67143333D01*
X145127023Y-67381428D01*
X145079404Y-67571904D01*
X145031785Y-67667142D01*
X144984166Y-67714761D01*
X144888928Y-67762380D01*
X144793690Y-67762380D01*
X144698452Y-67714761D01*
X144650833Y-67667142D01*
X144603214Y-67571904D01*
X144555595Y-67381428D01*
X144555595Y-67143333D01*
X144603214Y-66952857D01*
X144650833Y-66857619D01*
X144698452Y-66810000D01*
X144793690Y-66762380D01*
X117064404Y-80780000D02*
X116969166Y-80732380D01*
X116826309Y-80732380D01*
X116683452Y-80780000D01*
X116588214Y-80875238D01*
X116540595Y-80970476D01*
X116492976Y-81160952D01*
X116492976Y-81303809D01*
X116540595Y-81494285D01*
X116588214Y-81589523D01*
X116683452Y-81684761D01*
X116826309Y-81732380D01*
X116921547Y-81732380D01*
X117064404Y-81684761D01*
X117112023Y-81637142D01*
X117112023Y-81303809D01*
X116921547Y-81303809D01*
X117540595Y-81732380D02*
X117540595Y-80732380D01*
X118112023Y-81732380D01*
X118112023Y-80732380D01*
X118588214Y-81732380D02*
X118588214Y-80732380D01*
X118826309Y-80732380D01*
X118969166Y-80780000D01*
X119064404Y-80875238D01*
X119112023Y-80970476D01*
X119159642Y-81160952D01*
X119159642Y-81303809D01*
X119112023Y-81494285D01*
X119064404Y-81589523D01*
X118969166Y-81684761D01*
X118826309Y-81732380D01*
X118588214Y-81732380D01*
X112125285Y-104973380D02*
X112125285Y-104306714D01*
X112125285Y-104401952D02*
X112172904Y-104354333D01*
X112268142Y-104306714D01*
X112411000Y-104306714D01*
X112506238Y-104354333D01*
X112553857Y-104449571D01*
X112553857Y-104973380D01*
X112553857Y-104449571D02*
X112601476Y-104354333D01*
X112696714Y-104306714D01*
X112839571Y-104306714D01*
X112934809Y-104354333D01*
X112982428Y-104449571D01*
X112982428Y-104973380D01*
X113411000Y-104925761D02*
X113506238Y-104973380D01*
X113696714Y-104973380D01*
X113791952Y-104925761D01*
X113839571Y-104830523D01*
X113839571Y-104782904D01*
X113791952Y-104687666D01*
X113696714Y-104640047D01*
X113553857Y-104640047D01*
X113458619Y-104592428D01*
X113411000Y-104497190D01*
X113411000Y-104449571D01*
X113458619Y-104354333D01*
X113553857Y-104306714D01*
X113696714Y-104306714D01*
X113791952Y-104354333D01*
X114268142Y-104973380D02*
X114268142Y-103973380D01*
X114268142Y-104354333D02*
X114363380Y-104306714D01*
X114553857Y-104306714D01*
X114649095Y-104354333D01*
X114696714Y-104401952D01*
X114744333Y-104497190D01*
X114744333Y-104782904D01*
X114696714Y-104878142D01*
X114649095Y-104925761D01*
X114553857Y-104973380D01*
X114363380Y-104973380D01*
X114268142Y-104925761D01*
X112368533Y-103087466D02*
X112844723Y-103087466D01*
X112273295Y-103373180D02*
X112606628Y-102373180D01*
X112939961Y-103373180D01*
X113273295Y-103373180D02*
X113273295Y-102373180D01*
X113511390Y-102373180D01*
X113654247Y-102420800D01*
X113749485Y-102516038D01*
X113797104Y-102611276D01*
X113844723Y-102801752D01*
X113844723Y-102944609D01*
X113797104Y-103135085D01*
X113749485Y-103230323D01*
X113654247Y-103325561D01*
X113511390Y-103373180D01*
X113273295Y-103373180D01*
X114273295Y-103373180D02*
X114273295Y-102373180D01*
X114511390Y-102373180D01*
X114654247Y-102420800D01*
X114749485Y-102516038D01*
X114797104Y-102611276D01*
X114844723Y-102801752D01*
X114844723Y-102944609D01*
X114797104Y-103135085D01*
X114749485Y-103230323D01*
X114654247Y-103325561D01*
X114511390Y-103373180D01*
X114273295Y-103373180D01*
X115844723Y-103373180D02*
X115511390Y-102896990D01*
X115273295Y-103373180D02*
X115273295Y-102373180D01*
X115654247Y-102373180D01*
X115749485Y-102420800D01*
X115797104Y-102468419D01*
X115844723Y-102563657D01*
X115844723Y-102706514D01*
X115797104Y-102801752D01*
X115749485Y-102849371D01*
X115654247Y-102896990D01*
X115273295Y-102896990D01*
X117225676Y-102373180D02*
X117320914Y-102373180D01*
X117416152Y-102420800D01*
X117463771Y-102468419D01*
X117511390Y-102563657D01*
X117559009Y-102754133D01*
X117559009Y-102992228D01*
X117511390Y-103182704D01*
X117463771Y-103277942D01*
X117416152Y-103325561D01*
X117320914Y-103373180D01*
X117225676Y-103373180D01*
X117130438Y-103325561D01*
X117082819Y-103277942D01*
X117035200Y-103182704D01*
X116987580Y-102992228D01*
X116987580Y-102754133D01*
X117035200Y-102563657D01*
X117082819Y-102468419D01*
X117130438Y-102420800D01*
X117225676Y-102373180D01*
X117987580Y-102992228D02*
X118749485Y-102992228D01*
X119749485Y-103373180D02*
X119178057Y-103373180D01*
X119463771Y-103373180D02*
X119463771Y-102373180D01*
X119368533Y-102516038D01*
X119273295Y-102611276D01*
X119178057Y-102658895D01*
X120654247Y-102373180D02*
X120178057Y-102373180D01*
X120130438Y-102849371D01*
X120178057Y-102801752D01*
X120273295Y-102754133D01*
X120511390Y-102754133D01*
X120606628Y-102801752D01*
X120654247Y-102849371D01*
X120701866Y-102944609D01*
X120701866Y-103182704D01*
X120654247Y-103277942D01*
X120606628Y-103325561D01*
X120511390Y-103373180D01*
X120273295Y-103373180D01*
X120178057Y-103325561D01*
X120130438Y-103277942D01*
X116492976Y-71524761D02*
X116635833Y-71572380D01*
X116873928Y-71572380D01*
X116969166Y-71524761D01*
X117016785Y-71477142D01*
X117064404Y-71381904D01*
X117064404Y-71286666D01*
X117016785Y-71191428D01*
X116969166Y-71143809D01*
X116873928Y-71096190D01*
X116683452Y-71048571D01*
X116588214Y-71000952D01*
X116540595Y-70953333D01*
X116492976Y-70858095D01*
X116492976Y-70762857D01*
X116540595Y-70667619D01*
X116588214Y-70620000D01*
X116683452Y-70572380D01*
X116921547Y-70572380D01*
X117064404Y-70620000D01*
X118064404Y-71477142D02*
X118016785Y-71524761D01*
X117873928Y-71572380D01*
X117778690Y-71572380D01*
X117635833Y-71524761D01*
X117540595Y-71429523D01*
X117492976Y-71334285D01*
X117445357Y-71143809D01*
X117445357Y-71000952D01*
X117492976Y-70810476D01*
X117540595Y-70715238D01*
X117635833Y-70620000D01*
X117778690Y-70572380D01*
X117873928Y-70572380D01*
X118016785Y-70620000D01*
X118064404Y-70667619D01*
X118969166Y-71572380D02*
X118492976Y-71572380D01*
X118492976Y-70572380D01*
X118895904Y-104973380D02*
X118800666Y-104925761D01*
X118753047Y-104830523D01*
X118753047Y-103973380D01*
X119229238Y-104925761D02*
X119324476Y-104973380D01*
X119514952Y-104973380D01*
X119610190Y-104925761D01*
X119657809Y-104830523D01*
X119657809Y-104782904D01*
X119610190Y-104687666D01*
X119514952Y-104640047D01*
X119372095Y-104640047D01*
X119276857Y-104592428D01*
X119229238Y-104497190D01*
X119229238Y-104449571D01*
X119276857Y-104354333D01*
X119372095Y-104306714D01*
X119514952Y-104306714D01*
X119610190Y-104354333D01*
X120086380Y-104973380D02*
X120086380Y-103973380D01*
X120086380Y-104354333D02*
X120181619Y-104306714D01*
X120372095Y-104306714D01*
X120467333Y-104354333D01*
X120514952Y-104401952D01*
X120562571Y-104497190D01*
X120562571Y-104782904D01*
X120514952Y-104878142D01*
X120467333Y-104925761D01*
X120372095Y-104973380D01*
X120181619Y-104973380D01*
X120086380Y-104925761D01*
X128722380Y-102655238D02*
X127722380Y-102655238D01*
X127722380Y-102274285D01*
X127770000Y-102179047D01*
X127817619Y-102131428D01*
X127912857Y-102083809D01*
X128055714Y-102083809D01*
X128150952Y-102131428D01*
X128198571Y-102179047D01*
X128246190Y-102274285D01*
X128246190Y-102655238D01*
X128627142Y-101083809D02*
X128674761Y-101131428D01*
X128722380Y-101274285D01*
X128722380Y-101369523D01*
X128674761Y-101512380D01*
X128579523Y-101607619D01*
X128484285Y-101655238D01*
X128293809Y-101702857D01*
X128150952Y-101702857D01*
X127960476Y-101655238D01*
X127865238Y-101607619D01*
X127770000Y-101512380D01*
X127722380Y-101369523D01*
X127722380Y-101274285D01*
X127770000Y-101131428D01*
X127817619Y-101083809D01*
X128436666Y-100702857D02*
X128436666Y-100226666D01*
X128722380Y-100798095D02*
X127722380Y-100464761D01*
X128722380Y-100131428D01*
X128722380Y-99750476D02*
X128722380Y-99560000D01*
X128674761Y-99464761D01*
X128627142Y-99417142D01*
X128484285Y-99321904D01*
X128293809Y-99274285D01*
X127912857Y-99274285D01*
X127817619Y-99321904D01*
X127770000Y-99369523D01*
X127722380Y-99464761D01*
X127722380Y-99655238D01*
X127770000Y-99750476D01*
X127817619Y-99798095D01*
X127912857Y-99845714D01*
X128150952Y-99845714D01*
X128246190Y-99798095D01*
X128293809Y-99750476D01*
X128341428Y-99655238D01*
X128341428Y-99464761D01*
X128293809Y-99369523D01*
X128246190Y-99321904D01*
X128150952Y-99274285D01*
X127722380Y-98369523D02*
X127722380Y-98845714D01*
X128198571Y-98893333D01*
X128150952Y-98845714D01*
X128103333Y-98750476D01*
X128103333Y-98512380D01*
X128150952Y-98417142D01*
X128198571Y-98369523D01*
X128293809Y-98321904D01*
X128531904Y-98321904D01*
X128627142Y-98369523D01*
X128674761Y-98417142D01*
X128722380Y-98512380D01*
X128722380Y-98750476D01*
X128674761Y-98845714D01*
X128627142Y-98893333D01*
X127722380Y-97417142D02*
X127722380Y-97893333D01*
X128198571Y-97940952D01*
X128150952Y-97893333D01*
X128103333Y-97798095D01*
X128103333Y-97560000D01*
X128150952Y-97464761D01*
X128198571Y-97417142D01*
X128293809Y-97369523D01*
X128531904Y-97369523D01*
X128627142Y-97417142D01*
X128674761Y-97464761D01*
X128722380Y-97560000D01*
X128722380Y-97798095D01*
X128674761Y-97893333D01*
X128627142Y-97940952D01*
X127722380Y-96464761D02*
X127722380Y-96940952D01*
X128198571Y-96988571D01*
X128150952Y-96940952D01*
X128103333Y-96845714D01*
X128103333Y-96607619D01*
X128150952Y-96512380D01*
X128198571Y-96464761D01*
X128293809Y-96417142D01*
X128531904Y-96417142D01*
X128627142Y-96464761D01*
X128674761Y-96512380D01*
X128722380Y-96607619D01*
X128722380Y-96845714D01*
X128674761Y-96940952D01*
X128627142Y-96988571D01*
X128722380Y-95988571D02*
X127722380Y-95988571D01*
X127722380Y-95750476D01*
X127770000Y-95607619D01*
X127865238Y-95512380D01*
X127960476Y-95464761D01*
X128150952Y-95417142D01*
X128293809Y-95417142D01*
X128484285Y-95464761D01*
X128579523Y-95512380D01*
X128674761Y-95607619D01*
X128722380Y-95750476D01*
X128722380Y-95988571D01*
X129875595Y-58532380D02*
X129875595Y-57532380D01*
X130304166Y-57627619D02*
X130351785Y-57580000D01*
X130447023Y-57532380D01*
X130685119Y-57532380D01*
X130780357Y-57580000D01*
X130827976Y-57627619D01*
X130875595Y-57722857D01*
X130875595Y-57818095D01*
X130827976Y-57960952D01*
X130256547Y-58532380D01*
X130875595Y-58532380D01*
X131875595Y-58437142D02*
X131827976Y-58484761D01*
X131685119Y-58532380D01*
X131589880Y-58532380D01*
X131447023Y-58484761D01*
X131351785Y-58389523D01*
X131304166Y-58294285D01*
X131256547Y-58103809D01*
X131256547Y-57960952D01*
X131304166Y-57770476D01*
X131351785Y-57675238D01*
X131447023Y-57580000D01*
X131589880Y-57532380D01*
X131685119Y-57532380D01*
X131827976Y-57580000D01*
X131875595Y-57627619D01*
X133018452Y-58484761D02*
X133161309Y-58532380D01*
X133399404Y-58532380D01*
X133494642Y-58484761D01*
X133542261Y-58437142D01*
X133589880Y-58341904D01*
X133589880Y-58246666D01*
X133542261Y-58151428D01*
X133494642Y-58103809D01*
X133399404Y-58056190D01*
X133208928Y-58008571D01*
X133113690Y-57960952D01*
X133066071Y-57913333D01*
X133018452Y-57818095D01*
X133018452Y-57722857D01*
X133066071Y-57627619D01*
X133113690Y-57580000D01*
X133208928Y-57532380D01*
X133447023Y-57532380D01*
X133589880Y-57580000D01*
X133923214Y-57865714D02*
X134113690Y-58532380D01*
X134304166Y-58056190D01*
X134494642Y-58532380D01*
X134685119Y-57865714D01*
X135066071Y-58532380D02*
X135066071Y-57865714D01*
X135066071Y-57532380D02*
X135018452Y-57580000D01*
X135066071Y-57627619D01*
X135113690Y-57580000D01*
X135066071Y-57532380D01*
X135066071Y-57627619D01*
X135399404Y-57865714D02*
X135780357Y-57865714D01*
X135542261Y-57532380D02*
X135542261Y-58389523D01*
X135589880Y-58484761D01*
X135685119Y-58532380D01*
X135780357Y-58532380D01*
X136542261Y-58484761D02*
X136447023Y-58532380D01*
X136256547Y-58532380D01*
X136161309Y-58484761D01*
X136113690Y-58437142D01*
X136066071Y-58341904D01*
X136066071Y-58056190D01*
X136113690Y-57960952D01*
X136161309Y-57913333D01*
X136256547Y-57865714D01*
X136447023Y-57865714D01*
X136542261Y-57913333D01*
X136970833Y-58532380D02*
X136970833Y-57532380D01*
X137399404Y-58532380D02*
X137399404Y-58008571D01*
X137351785Y-57913333D01*
X137256547Y-57865714D01*
X137113690Y-57865714D01*
X137018452Y-57913333D01*
X136970833Y-57960952D01*
X138637500Y-58532380D02*
X138637500Y-57532380D01*
X138875595Y-57532380D01*
X139018452Y-57580000D01*
X139113690Y-57675238D01*
X139161309Y-57770476D01*
X139208928Y-57960952D01*
X139208928Y-58103809D01*
X139161309Y-58294285D01*
X139113690Y-58389523D01*
X139018452Y-58484761D01*
X138875595Y-58532380D01*
X138637500Y-58532380D01*
X139637500Y-58008571D02*
X139970833Y-58008571D01*
X140113690Y-58532380D02*
X139637500Y-58532380D01*
X139637500Y-57532380D01*
X140113690Y-57532380D01*
X140542261Y-58532380D02*
X140542261Y-57532380D01*
X140875595Y-58246666D01*
X141208928Y-57532380D01*
X141208928Y-58532380D01*
X141685119Y-57532380D02*
X141685119Y-58341904D01*
X141732738Y-58437142D01*
X141780357Y-58484761D01*
X141875595Y-58532380D01*
X142066071Y-58532380D01*
X142161309Y-58484761D01*
X142208928Y-58437142D01*
X142256547Y-58341904D01*
X142256547Y-57532380D01*
X142637500Y-57532380D02*
X143304166Y-58532380D01*
X143304166Y-57532380D02*
X142637500Y-58532380D01*
X129875595Y-60142380D02*
X129875595Y-59475714D01*
X129875595Y-59666190D02*
X129923214Y-59570952D01*
X129970833Y-59523333D01*
X130066071Y-59475714D01*
X130161309Y-59475714D01*
X130875595Y-60094761D02*
X130780357Y-60142380D01*
X130589880Y-60142380D01*
X130494642Y-60094761D01*
X130447023Y-59999523D01*
X130447023Y-59618571D01*
X130494642Y-59523333D01*
X130589880Y-59475714D01*
X130780357Y-59475714D01*
X130875595Y-59523333D01*
X130923214Y-59618571D01*
X130923214Y-59713809D01*
X130447023Y-59809047D01*
X131256547Y-59475714D02*
X131494642Y-60142380D01*
X131732738Y-59475714D01*
X133066071Y-59142380D02*
X133161309Y-59142380D01*
X133256547Y-59190000D01*
X133304166Y-59237619D01*
X133351785Y-59332857D01*
X133399404Y-59523333D01*
X133399404Y-59761428D01*
X133351785Y-59951904D01*
X133304166Y-60047142D01*
X133256547Y-60094761D01*
X133161309Y-60142380D01*
X133066071Y-60142380D01*
X132970833Y-60094761D01*
X132923214Y-60047142D01*
X132875595Y-59951904D01*
X132827976Y-59761428D01*
X132827976Y-59523333D01*
X132875595Y-59332857D01*
X132923214Y-59237619D01*
X132970833Y-59190000D01*
X133066071Y-59142380D01*
X129827976Y-60847619D02*
X129875595Y-60800000D01*
X129970833Y-60752380D01*
X130208928Y-60752380D01*
X130304166Y-60800000D01*
X130351785Y-60847619D01*
X130399404Y-60942857D01*
X130399404Y-61038095D01*
X130351785Y-61180952D01*
X129780357Y-61752380D01*
X130399404Y-61752380D01*
X131018452Y-60752380D02*
X131113690Y-60752380D01*
X131208928Y-60800000D01*
X131256547Y-60847619D01*
X131304166Y-60942857D01*
X131351785Y-61133333D01*
X131351785Y-61371428D01*
X131304166Y-61561904D01*
X131256547Y-61657142D01*
X131208928Y-61704761D01*
X131113690Y-61752380D01*
X131018452Y-61752380D01*
X130923214Y-61704761D01*
X130875595Y-61657142D01*
X130827976Y-61561904D01*
X130780357Y-61371428D01*
X130780357Y-61133333D01*
X130827976Y-60942857D01*
X130875595Y-60847619D01*
X130923214Y-60800000D01*
X131018452Y-60752380D01*
X131732738Y-60847619D02*
X131780357Y-60800000D01*
X131875595Y-60752380D01*
X132113690Y-60752380D01*
X132208928Y-60800000D01*
X132256547Y-60847619D01*
X132304166Y-60942857D01*
X132304166Y-61038095D01*
X132256547Y-61180952D01*
X131685119Y-61752380D01*
X132304166Y-61752380D01*
X132685119Y-60847619D02*
X132732738Y-60800000D01*
X132827976Y-60752380D01*
X133066071Y-60752380D01*
X133161309Y-60800000D01*
X133208928Y-60847619D01*
X133256547Y-60942857D01*
X133256547Y-61038095D01*
X133208928Y-61180952D01*
X132637500Y-61752380D01*
X133256547Y-61752380D01*
X133685119Y-61371428D02*
X134447023Y-61371428D01*
X135113690Y-60752380D02*
X135208928Y-60752380D01*
X135304166Y-60800000D01*
X135351785Y-60847619D01*
X135399404Y-60942857D01*
X135447023Y-61133333D01*
X135447023Y-61371428D01*
X135399404Y-61561904D01*
X135351785Y-61657142D01*
X135304166Y-61704761D01*
X135208928Y-61752380D01*
X135113690Y-61752380D01*
X135018452Y-61704761D01*
X134970833Y-61657142D01*
X134923214Y-61561904D01*
X134875595Y-61371428D01*
X134875595Y-61133333D01*
X134923214Y-60942857D01*
X134970833Y-60847619D01*
X135018452Y-60800000D01*
X135113690Y-60752380D01*
X136304166Y-60752380D02*
X136113690Y-60752380D01*
X136018452Y-60800000D01*
X135970833Y-60847619D01*
X135875595Y-60990476D01*
X135827976Y-61180952D01*
X135827976Y-61561904D01*
X135875595Y-61657142D01*
X135923214Y-61704761D01*
X136018452Y-61752380D01*
X136208928Y-61752380D01*
X136304166Y-61704761D01*
X136351785Y-61657142D01*
X136399404Y-61561904D01*
X136399404Y-61323809D01*
X136351785Y-61228571D01*
X136304166Y-61180952D01*
X136208928Y-61133333D01*
X136018452Y-61133333D01*
X135923214Y-61180952D01*
X135875595Y-61228571D01*
X135827976Y-61323809D01*
X136827976Y-61371428D02*
X137589880Y-61371428D01*
X138256547Y-60752380D02*
X138351785Y-60752380D01*
X138447023Y-60800000D01*
X138494642Y-60847619D01*
X138542261Y-60942857D01*
X138589880Y-61133333D01*
X138589880Y-61371428D01*
X138542261Y-61561904D01*
X138494642Y-61657142D01*
X138447023Y-61704761D01*
X138351785Y-61752380D01*
X138256547Y-61752380D01*
X138161309Y-61704761D01*
X138113690Y-61657142D01*
X138066071Y-61561904D01*
X138018452Y-61371428D01*
X138018452Y-61133333D01*
X138066071Y-60942857D01*
X138113690Y-60847619D01*
X138161309Y-60800000D01*
X138256547Y-60752380D01*
X138970833Y-60847619D02*
X139018452Y-60800000D01*
X139113690Y-60752380D01*
X139351785Y-60752380D01*
X139447023Y-60800000D01*
X139494642Y-60847619D01*
X139542261Y-60942857D01*
X139542261Y-61038095D01*
X139494642Y-61180952D01*
X138923214Y-61752380D01*
X139542261Y-61752380D01*
X128722380Y-75985238D02*
X127722380Y-75985238D01*
X127722380Y-75604285D01*
X127770000Y-75509047D01*
X127817619Y-75461428D01*
X127912857Y-75413809D01*
X128055714Y-75413809D01*
X128150952Y-75461428D01*
X128198571Y-75509047D01*
X128246190Y-75604285D01*
X128246190Y-75985238D01*
X128627142Y-74413809D02*
X128674761Y-74461428D01*
X128722380Y-74604285D01*
X128722380Y-74699523D01*
X128674761Y-74842380D01*
X128579523Y-74937619D01*
X128484285Y-74985238D01*
X128293809Y-75032857D01*
X128150952Y-75032857D01*
X127960476Y-74985238D01*
X127865238Y-74937619D01*
X127770000Y-74842380D01*
X127722380Y-74699523D01*
X127722380Y-74604285D01*
X127770000Y-74461428D01*
X127817619Y-74413809D01*
X128436666Y-74032857D02*
X128436666Y-73556666D01*
X128722380Y-74128095D02*
X127722380Y-73794761D01*
X128722380Y-73461428D01*
X128722380Y-73080476D02*
X128722380Y-72890000D01*
X128674761Y-72794761D01*
X128627142Y-72747142D01*
X128484285Y-72651904D01*
X128293809Y-72604285D01*
X127912857Y-72604285D01*
X127817619Y-72651904D01*
X127770000Y-72699523D01*
X127722380Y-72794761D01*
X127722380Y-72985238D01*
X127770000Y-73080476D01*
X127817619Y-73128095D01*
X127912857Y-73175714D01*
X128150952Y-73175714D01*
X128246190Y-73128095D01*
X128293809Y-73080476D01*
X128341428Y-72985238D01*
X128341428Y-72794761D01*
X128293809Y-72699523D01*
X128246190Y-72651904D01*
X128150952Y-72604285D01*
X127722380Y-71699523D02*
X127722380Y-72175714D01*
X128198571Y-72223333D01*
X128150952Y-72175714D01*
X128103333Y-72080476D01*
X128103333Y-71842380D01*
X128150952Y-71747142D01*
X128198571Y-71699523D01*
X128293809Y-71651904D01*
X128531904Y-71651904D01*
X128627142Y-71699523D01*
X128674761Y-71747142D01*
X128722380Y-71842380D01*
X128722380Y-72080476D01*
X128674761Y-72175714D01*
X128627142Y-72223333D01*
X127722380Y-70747142D02*
X127722380Y-71223333D01*
X128198571Y-71270952D01*
X128150952Y-71223333D01*
X128103333Y-71128095D01*
X128103333Y-70890000D01*
X128150952Y-70794761D01*
X128198571Y-70747142D01*
X128293809Y-70699523D01*
X128531904Y-70699523D01*
X128627142Y-70747142D01*
X128674761Y-70794761D01*
X128722380Y-70890000D01*
X128722380Y-71128095D01*
X128674761Y-71223333D01*
X128627142Y-71270952D01*
X127722380Y-69794761D02*
X127722380Y-70270952D01*
X128198571Y-70318571D01*
X128150952Y-70270952D01*
X128103333Y-70175714D01*
X128103333Y-69937619D01*
X128150952Y-69842380D01*
X128198571Y-69794761D01*
X128293809Y-69747142D01*
X128531904Y-69747142D01*
X128627142Y-69794761D01*
X128674761Y-69842380D01*
X128722380Y-69937619D01*
X128722380Y-70175714D01*
X128674761Y-70270952D01*
X128627142Y-70318571D01*
X128722380Y-69318571D02*
X127722380Y-69318571D01*
X127722380Y-69080476D01*
X127770000Y-68937619D01*
X127865238Y-68842380D01*
X127960476Y-68794761D01*
X128150952Y-68747142D01*
X128293809Y-68747142D01*
X128484285Y-68794761D01*
X128579523Y-68842380D01*
X128674761Y-68937619D01*
X128722380Y-69080476D01*
X128722380Y-69318571D01*
X116302500Y-77910000D02*
X116778690Y-77910000D01*
X116540595Y-79192380D02*
X116540595Y-78192380D01*
X116778690Y-77910000D02*
X117826309Y-77910000D01*
X117016785Y-79192380D02*
X117016785Y-78192380D01*
X117588214Y-79192380D01*
X117588214Y-78192380D01*
X117826309Y-77910000D02*
X118588214Y-77910000D01*
X117921547Y-78192380D02*
X118492976Y-78192380D01*
X118207261Y-79192380D02*
X118207261Y-78192380D01*
X118588214Y-77910000D02*
X119540595Y-77910000D01*
X119350119Y-79192380D02*
X118778690Y-79192380D01*
X119064404Y-79192380D02*
X119064404Y-78192380D01*
X118969166Y-78335238D01*
X118873928Y-78430476D01*
X118778690Y-78478095D01*
X119022904Y-97353380D02*
X118927666Y-97305761D01*
X118880047Y-97210523D01*
X118880047Y-96353380D01*
X119356238Y-97305761D02*
X119451476Y-97353380D01*
X119641952Y-97353380D01*
X119737190Y-97305761D01*
X119784809Y-97210523D01*
X119784809Y-97162904D01*
X119737190Y-97067666D01*
X119641952Y-97020047D01*
X119499095Y-97020047D01*
X119403857Y-96972428D01*
X119356238Y-96877190D01*
X119356238Y-96829571D01*
X119403857Y-96734333D01*
X119499095Y-96686714D01*
X119641952Y-96686714D01*
X119737190Y-96734333D01*
X120213380Y-97353380D02*
X120213380Y-96353380D01*
X120213380Y-96734333D02*
X120308619Y-96686714D01*
X120499095Y-96686714D01*
X120594333Y-96734333D01*
X120641952Y-96781952D01*
X120689571Y-96877190D01*
X120689571Y-97162904D01*
X120641952Y-97258142D01*
X120594333Y-97305761D01*
X120499095Y-97353380D01*
X120308619Y-97353380D01*
X120213380Y-97305761D01*
X116302500Y-75400000D02*
X116778690Y-75400000D01*
X116540595Y-76682380D02*
X116540595Y-75682380D01*
X116778690Y-75400000D02*
X117826309Y-75400000D01*
X117016785Y-76682380D02*
X117016785Y-75682380D01*
X117588214Y-76682380D01*
X117588214Y-75682380D01*
X117826309Y-75400000D02*
X118588214Y-75400000D01*
X117921547Y-75682380D02*
X118492976Y-75682380D01*
X118207261Y-76682380D02*
X118207261Y-75682380D01*
X118588214Y-75400000D02*
X119540595Y-75400000D01*
X119016785Y-75682380D02*
X119112023Y-75682380D01*
X119207261Y-75730000D01*
X119254880Y-75777619D01*
X119302500Y-75872857D01*
X119350119Y-76063333D01*
X119350119Y-76301428D01*
X119302500Y-76491904D01*
X119254880Y-76587142D01*
X119207261Y-76634761D01*
X119112023Y-76682380D01*
X119016785Y-76682380D01*
X118921547Y-76634761D01*
X118873928Y-76587142D01*
X118826309Y-76491904D01*
X118778690Y-76301428D01*
X118778690Y-76063333D01*
X118826309Y-75872857D01*
X118873928Y-75777619D01*
X118921547Y-75730000D01*
X119016785Y-75682380D01*
X112125285Y-97353380D02*
X112125285Y-96686714D01*
X112125285Y-96781952D02*
X112172904Y-96734333D01*
X112268142Y-96686714D01*
X112411000Y-96686714D01*
X112506238Y-96734333D01*
X112553857Y-96829571D01*
X112553857Y-97353380D01*
X112553857Y-96829571D02*
X112601476Y-96734333D01*
X112696714Y-96686714D01*
X112839571Y-96686714D01*
X112934809Y-96734333D01*
X112982428Y-96829571D01*
X112982428Y-97353380D01*
X113411000Y-97305761D02*
X113506238Y-97353380D01*
X113696714Y-97353380D01*
X113791952Y-97305761D01*
X113839571Y-97210523D01*
X113839571Y-97162904D01*
X113791952Y-97067666D01*
X113696714Y-97020047D01*
X113553857Y-97020047D01*
X113458619Y-96972428D01*
X113411000Y-96877190D01*
X113411000Y-96829571D01*
X113458619Y-96734333D01*
X113553857Y-96686714D01*
X113696714Y-96686714D01*
X113791952Y-96734333D01*
X114268142Y-97353380D02*
X114268142Y-96353380D01*
X114268142Y-96734333D02*
X114363380Y-96686714D01*
X114553857Y-96686714D01*
X114649095Y-96734333D01*
X114696714Y-96781952D01*
X114744333Y-96877190D01*
X114744333Y-97162904D01*
X114696714Y-97258142D01*
X114649095Y-97305761D01*
X114553857Y-97353380D01*
X114363380Y-97353380D01*
X114268142Y-97305761D01*
X116540595Y-68651428D02*
X117302500Y-68651428D01*
X116921547Y-69032380D02*
X116921547Y-68270476D01*
X117683452Y-68032380D02*
X118302500Y-68032380D01*
X117969166Y-68413333D01*
X118112023Y-68413333D01*
X118207261Y-68460952D01*
X118254880Y-68508571D01*
X118302500Y-68603809D01*
X118302500Y-68841904D01*
X118254880Y-68937142D01*
X118207261Y-68984761D01*
X118112023Y-69032380D01*
X117826309Y-69032380D01*
X117731071Y-68984761D01*
X117683452Y-68937142D01*
X118731071Y-68937142D02*
X118778690Y-68984761D01*
X118731071Y-69032380D01*
X118683452Y-68984761D01*
X118731071Y-68937142D01*
X118731071Y-69032380D01*
X119112023Y-68032380D02*
X119731071Y-68032380D01*
X119397738Y-68413333D01*
X119540595Y-68413333D01*
X119635833Y-68460952D01*
X119683452Y-68508571D01*
X119731071Y-68603809D01*
X119731071Y-68841904D01*
X119683452Y-68937142D01*
X119635833Y-68984761D01*
X119540595Y-69032380D01*
X119254880Y-69032380D01*
X119159642Y-68984761D01*
X119112023Y-68937142D01*
X120064404Y-68365714D02*
X120302500Y-69032380D01*
X120540595Y-68365714D01*
X116492976Y-74064761D02*
X116635833Y-74112380D01*
X116873928Y-74112380D01*
X116969166Y-74064761D01*
X117016785Y-74017142D01*
X117064404Y-73921904D01*
X117064404Y-73826666D01*
X117016785Y-73731428D01*
X116969166Y-73683809D01*
X116873928Y-73636190D01*
X116683452Y-73588571D01*
X116588214Y-73540952D01*
X116540595Y-73493333D01*
X116492976Y-73398095D01*
X116492976Y-73302857D01*
X116540595Y-73207619D01*
X116588214Y-73160000D01*
X116683452Y-73112380D01*
X116921547Y-73112380D01*
X117064404Y-73160000D01*
X117492976Y-74112380D02*
X117492976Y-73112380D01*
X117731071Y-73112380D01*
X117873928Y-73160000D01*
X117969166Y-73255238D01*
X118016785Y-73350476D01*
X118064404Y-73540952D01*
X118064404Y-73683809D01*
X118016785Y-73874285D01*
X117969166Y-73969523D01*
X117873928Y-74064761D01*
X117731071Y-74112380D01*
X117492976Y-74112380D01*
X118445357Y-73826666D02*
X118921547Y-73826666D01*
X118350119Y-74112380D02*
X118683452Y-73112380D01*
X119016785Y-74112380D01*
X111841542Y-110656666D02*
X112317733Y-110656666D01*
X111746304Y-110942380D02*
X112079638Y-109942380D01*
X112412971Y-110942380D01*
X112746304Y-110942380D02*
X112746304Y-109942380D01*
X112984400Y-109942380D01*
X113127257Y-109990000D01*
X113222495Y-110085238D01*
X113270114Y-110180476D01*
X113317733Y-110370952D01*
X113317733Y-110513809D01*
X113270114Y-110704285D01*
X113222495Y-110799523D01*
X113127257Y-110894761D01*
X112984400Y-110942380D01*
X112746304Y-110942380D01*
X113746304Y-110942380D02*
X113746304Y-109942380D01*
X113984400Y-109942380D01*
X114127257Y-109990000D01*
X114222495Y-110085238D01*
X114270114Y-110180476D01*
X114317733Y-110370952D01*
X114317733Y-110513809D01*
X114270114Y-110704285D01*
X114222495Y-110799523D01*
X114127257Y-110894761D01*
X113984400Y-110942380D01*
X113746304Y-110942380D01*
X115317733Y-110942380D02*
X114984400Y-110466190D01*
X114746304Y-110942380D02*
X114746304Y-109942380D01*
X115127257Y-109942380D01*
X115222495Y-109990000D01*
X115270114Y-110037619D01*
X115317733Y-110132857D01*
X115317733Y-110275714D01*
X115270114Y-110370952D01*
X115222495Y-110418571D01*
X115127257Y-110466190D01*
X114746304Y-110466190D01*
X117032019Y-110942380D02*
X116460590Y-110942380D01*
X116746304Y-110942380D02*
X116746304Y-109942380D01*
X116651066Y-110085238D01*
X116555828Y-110180476D01*
X116460590Y-110228095D01*
X117889161Y-109942380D02*
X117698685Y-109942380D01*
X117603447Y-109990000D01*
X117555828Y-110037619D01*
X117460590Y-110180476D01*
X117412971Y-110370952D01*
X117412971Y-110751904D01*
X117460590Y-110847142D01*
X117508209Y-110894761D01*
X117603447Y-110942380D01*
X117793923Y-110942380D01*
X117889161Y-110894761D01*
X117936780Y-110847142D01*
X117984400Y-110751904D01*
X117984400Y-110513809D01*
X117936780Y-110418571D01*
X117889161Y-110370952D01*
X117793923Y-110323333D01*
X117603447Y-110323333D01*
X117508209Y-110370952D01*
X117460590Y-110418571D01*
X117412971Y-110513809D01*
X118412971Y-110561428D02*
X119174876Y-110561428D01*
X119555828Y-109942380D02*
X120174876Y-109942380D01*
X119841542Y-110323333D01*
X119984400Y-110323333D01*
X120079638Y-110370952D01*
X120127257Y-110418571D01*
X120174876Y-110513809D01*
X120174876Y-110751904D01*
X120127257Y-110847142D01*
X120079638Y-110894761D01*
X119984400Y-110942380D01*
X119698685Y-110942380D01*
X119603447Y-110894761D01*
X119555828Y-110847142D01*
X121127257Y-110942380D02*
X120555828Y-110942380D01*
X120841542Y-110942380D02*
X120841542Y-109942380D01*
X120746304Y-110085238D01*
X120651066Y-110180476D01*
X120555828Y-110228095D01*
X127508095Y-89862380D02*
X127508095Y-90671904D01*
X127555714Y-90767142D01*
X127603333Y-90814761D01*
X127698571Y-90862380D01*
X127889047Y-90862380D01*
X127984285Y-90814761D01*
X128031904Y-90767142D01*
X128079523Y-90671904D01*
X128079523Y-89862380D01*
X128508095Y-89957619D02*
X128555714Y-89910000D01*
X128650952Y-89862380D01*
X128889047Y-89862380D01*
X128984285Y-89910000D01*
X129031904Y-89957619D01*
X129079523Y-90052857D01*
X129079523Y-90148095D01*
X129031904Y-90290952D01*
X128460476Y-90862380D01*
X129079523Y-90862380D01*
X149526666Y-61892380D02*
X149526666Y-62606666D01*
X149479047Y-62749523D01*
X149383809Y-62844761D01*
X149240952Y-62892380D01*
X149145714Y-62892380D01*
X149955238Y-61987619D02*
X150002857Y-61940000D01*
X150098095Y-61892380D01*
X150336190Y-61892380D01*
X150431428Y-61940000D01*
X150479047Y-61987619D01*
X150526666Y-62082857D01*
X150526666Y-62178095D01*
X150479047Y-62320952D01*
X149907619Y-62892380D01*
X150526666Y-62892380D01*
X123505933Y-59970942D02*
X123458314Y-60018561D01*
X123315457Y-60066180D01*
X123220219Y-60066180D01*
X123077361Y-60018561D01*
X122982123Y-59923323D01*
X122934504Y-59828085D01*
X122886885Y-59637609D01*
X122886885Y-59494752D01*
X122934504Y-59304276D01*
X122982123Y-59209038D01*
X123077361Y-59113800D01*
X123220219Y-59066180D01*
X123315457Y-59066180D01*
X123458314Y-59113800D01*
X123505933Y-59161419D01*
X124458314Y-60066180D02*
X123886885Y-60066180D01*
X124172600Y-60066180D02*
X124172600Y-59066180D01*
X124077361Y-59209038D01*
X123982123Y-59304276D01*
X123886885Y-59351895D01*
X121537504Y-118232180D02*
X121537504Y-117232180D01*
X121775600Y-117232180D01*
X121918457Y-117279800D01*
X122013695Y-117375038D01*
X122061314Y-117470276D01*
X122108933Y-117660752D01*
X122108933Y-117803609D01*
X122061314Y-117994085D01*
X122013695Y-118089323D01*
X121918457Y-118184561D01*
X121775600Y-118232180D01*
X121537504Y-118232180D01*
X123061314Y-118232180D02*
X122489885Y-118232180D01*
X122775600Y-118232180D02*
X122775600Y-117232180D01*
X122680361Y-117375038D01*
X122585123Y-117470276D01*
X122489885Y-117517895D01*
X118046833Y-85542380D02*
X117713500Y-85066190D01*
X117475404Y-85542380D02*
X117475404Y-84542380D01*
X117856357Y-84542380D01*
X117951595Y-84590000D01*
X117999214Y-84637619D01*
X118046833Y-84732857D01*
X118046833Y-84875714D01*
X117999214Y-84970952D01*
X117951595Y-85018571D01*
X117856357Y-85066190D01*
X117475404Y-85066190D01*
X118999214Y-85542380D02*
X118427785Y-85542380D01*
X118713500Y-85542380D02*
X118713500Y-84542380D01*
X118618261Y-84685238D01*
X118523023Y-84780476D01*
X118427785Y-84828095D01*
X113966666Y-65702380D02*
X113966666Y-66416666D01*
X113919047Y-66559523D01*
X113823809Y-66654761D01*
X113680952Y-66702380D01*
X113585714Y-66702380D01*
X114966666Y-66702380D02*
X114395238Y-66702380D01*
X114680952Y-66702380D02*
X114680952Y-65702380D01*
X114585714Y-65845238D01*
X114490476Y-65940476D01*
X114395238Y-65988095D01*
X118046833Y-88082380D02*
X117713500Y-87606190D01*
X117475404Y-88082380D02*
X117475404Y-87082380D01*
X117856357Y-87082380D01*
X117951595Y-87130000D01*
X117999214Y-87177619D01*
X118046833Y-87272857D01*
X118046833Y-87415714D01*
X117999214Y-87510952D01*
X117951595Y-87558571D01*
X117856357Y-87606190D01*
X117475404Y-87606190D01*
X118427785Y-87177619D02*
X118475404Y-87130000D01*
X118570642Y-87082380D01*
X118808738Y-87082380D01*
X118903976Y-87130000D01*
X118951595Y-87177619D01*
X118999214Y-87272857D01*
X118999214Y-87368095D01*
X118951595Y-87510952D01*
X118380166Y-88082380D01*
X118999214Y-88082380D01*
X131786333Y-88139542D02*
X131738714Y-88187161D01*
X131595857Y-88234780D01*
X131500619Y-88234780D01*
X131357761Y-88187161D01*
X131262523Y-88091923D01*
X131214904Y-87996685D01*
X131167285Y-87806209D01*
X131167285Y-87663352D01*
X131214904Y-87472876D01*
X131262523Y-87377638D01*
X131357761Y-87282400D01*
X131500619Y-87234780D01*
X131595857Y-87234780D01*
X131738714Y-87282400D01*
X131786333Y-87330019D01*
X132119666Y-87234780D02*
X132738714Y-87234780D01*
X132405380Y-87615733D01*
X132548238Y-87615733D01*
X132643476Y-87663352D01*
X132691095Y-87710971D01*
X132738714Y-87806209D01*
X132738714Y-88044304D01*
X132691095Y-88139542D01*
X132643476Y-88187161D01*
X132548238Y-88234780D01*
X132262523Y-88234780D01*
X132167285Y-88187161D01*
X132119666Y-88139542D01*
X124648933Y-118234480D02*
X124315600Y-117758290D01*
X124077504Y-118234480D02*
X124077504Y-117234480D01*
X124458457Y-117234480D01*
X124553695Y-117282100D01*
X124601314Y-117329719D01*
X124648933Y-117424957D01*
X124648933Y-117567814D01*
X124601314Y-117663052D01*
X124553695Y-117710671D01*
X124458457Y-117758290D01*
X124077504Y-117758290D01*
X125553695Y-117234480D02*
X125077504Y-117234480D01*
X125029885Y-117710671D01*
X125077504Y-117663052D01*
X125172742Y-117615433D01*
X125410838Y-117615433D01*
X125506076Y-117663052D01*
X125553695Y-117710671D01*
X125601314Y-117805909D01*
X125601314Y-118044004D01*
X125553695Y-118139242D01*
X125506076Y-118186861D01*
X125410838Y-118234480D01*
X125172742Y-118234480D01*
X125077504Y-118186861D01*
X125029885Y-118139242D01*
X118023333Y-93289380D02*
X117690000Y-92813190D01*
X117451904Y-93289380D02*
X117451904Y-92289380D01*
X117832857Y-92289380D01*
X117928095Y-92337000D01*
X117975714Y-92384619D01*
X118023333Y-92479857D01*
X118023333Y-92622714D01*
X117975714Y-92717952D01*
X117928095Y-92765571D01*
X117832857Y-92813190D01*
X117451904Y-92813190D01*
X118880476Y-92622714D02*
X118880476Y-93289380D01*
X118642380Y-92241761D02*
X118404285Y-92956047D01*
X119023333Y-92956047D01*
X126122133Y-59970942D02*
X126074514Y-60018561D01*
X125931657Y-60066180D01*
X125836419Y-60066180D01*
X125693561Y-60018561D01*
X125598323Y-59923323D01*
X125550704Y-59828085D01*
X125503085Y-59637609D01*
X125503085Y-59494752D01*
X125550704Y-59304276D01*
X125598323Y-59209038D01*
X125693561Y-59113800D01*
X125836419Y-59066180D01*
X125931657Y-59066180D01*
X126074514Y-59113800D01*
X126122133Y-59161419D01*
X126503085Y-59161419D02*
X126550704Y-59113800D01*
X126645942Y-59066180D01*
X126884038Y-59066180D01*
X126979276Y-59113800D01*
X127026895Y-59161419D01*
X127074514Y-59256657D01*
X127074514Y-59351895D01*
X127026895Y-59494752D01*
X126455466Y-60066180D01*
X127074514Y-60066180D01*
X118023333Y-90622380D02*
X117690000Y-90146190D01*
X117451904Y-90622380D02*
X117451904Y-89622380D01*
X117832857Y-89622380D01*
X117928095Y-89670000D01*
X117975714Y-89717619D01*
X118023333Y-89812857D01*
X118023333Y-89955714D01*
X117975714Y-90050952D01*
X117928095Y-90098571D01*
X117832857Y-90146190D01*
X117451904Y-90146190D01*
X118356666Y-89622380D02*
X118975714Y-89622380D01*
X118642380Y-90003333D01*
X118785238Y-90003333D01*
X118880476Y-90050952D01*
X118928095Y-90098571D01*
X118975714Y-90193809D01*
X118975714Y-90431904D01*
X118928095Y-90527142D01*
X118880476Y-90574761D01*
X118785238Y-90622380D01*
X118499523Y-90622380D01*
X118404285Y-90574761D01*
X118356666Y-90527142D01*
X127508095Y-63192380D02*
X127508095Y-64001904D01*
X127555714Y-64097142D01*
X127603333Y-64144761D01*
X127698571Y-64192380D01*
X127889047Y-64192380D01*
X127984285Y-64144761D01*
X128031904Y-64097142D01*
X128079523Y-64001904D01*
X128079523Y-63192380D01*
X129079523Y-64192380D02*
X128508095Y-64192380D01*
X128793809Y-64192380D02*
X128793809Y-63192380D01*
X128698571Y-63335238D01*
X128603333Y-63430476D01*
X128508095Y-63478095D01*
D11*
X128270000Y-91250000D02*
X124410000Y-91250000D01*
X132130000Y-106870000D02*
X132130000Y-106605000D01*
X128270000Y-106870000D02*
X124410000Y-106870000D01*
X124410000Y-91515000D02*
X122595000Y-91515000D01*
X128270000Y-106870000D02*
X132130000Y-106870000D01*
X132130000Y-91250000D02*
X132130000Y-91515000D01*
X124410000Y-106870000D02*
X124410000Y-106605000D01*
X128270000Y-91250000D02*
X132130000Y-91250000D01*
X124410000Y-91250000D02*
X124410000Y-91515000D01*
X149860000Y-63440000D02*
X152460000Y-63440000D01*
X147260000Y-63440000D02*
X148590000Y-63440000D01*
X147260000Y-66040000D02*
X147260000Y-114360000D01*
X147260000Y-64770000D02*
X147260000Y-63440000D01*
X147260000Y-66040000D02*
X149860000Y-66040000D01*
X147260000Y-114360000D02*
X152460000Y-114360000D01*
X152460000Y-63440000D02*
X152460000Y-114360000D01*
X149860000Y-66040000D02*
X149860000Y-63440000D01*
X118684800Y-97772000D02*
X120684800Y-97772000D01*
X120884800Y-101122000D02*
X121184800Y-101422000D01*
X120884800Y-101122000D02*
X121184800Y-100822000D01*
X120684800Y-101872000D02*
X118684800Y-101872000D01*
X118684800Y-101872000D02*
X118684800Y-97772000D01*
X120684800Y-97772000D02*
X120684800Y-101872000D01*
X121184800Y-101422000D02*
X121184800Y-100822000D01*
X122912200Y-62171252D02*
X122912200Y-61648748D01*
X124382200Y-62171252D02*
X124382200Y-61648748D01*
X121315600Y-114239800D02*
X121315600Y-116924800D01*
X121315600Y-116924800D02*
X123235600Y-116924800D01*
X123235600Y-116924800D02*
X123235600Y-114239800D01*
X115797064Y-84355000D02*
X115342936Y-84355000D01*
X115797064Y-85825000D02*
X115342936Y-85825000D01*
X115509800Y-97772000D02*
X117509800Y-97772000D01*
X118009800Y-101422000D02*
X118009800Y-100822000D01*
X117709800Y-101122000D02*
X118009800Y-100822000D01*
X115509800Y-101872000D02*
X115509800Y-97772000D01*
X117509800Y-97772000D02*
X117509800Y-101872000D01*
X117509800Y-101872000D02*
X115509800Y-101872000D01*
X117709800Y-101122000D02*
X118009800Y-101422000D01*
X115630000Y-69850000D02*
X115630000Y-82610000D01*
X112970000Y-68580000D02*
X112970000Y-67250000D01*
X112970000Y-67250000D02*
X114300000Y-67250000D01*
X112970000Y-69850000D02*
X112970000Y-82610000D01*
X112970000Y-82610000D02*
X115630000Y-82610000D01*
X112970000Y-69850000D02*
X115630000Y-69850000D01*
X118684800Y-109462000D02*
X118684800Y-105362000D01*
X120684800Y-105362000D02*
X120684800Y-109462000D01*
X118684800Y-105362000D02*
X120684800Y-105362000D01*
X120884800Y-108712000D02*
X121184800Y-108412000D01*
X120684800Y-109462000D02*
X118684800Y-109462000D01*
X120884800Y-108712000D02*
X121184800Y-109012000D01*
X121184800Y-109012000D02*
X121184800Y-108412000D01*
X115797064Y-86895000D02*
X115342936Y-86895000D01*
X115797064Y-88365000D02*
X115342936Y-88365000D01*
X132224452Y-90168400D02*
X131701948Y-90168400D01*
X132224452Y-88698400D02*
X131701948Y-88698400D01*
X114834800Y-101422000D02*
X114834800Y-100822000D01*
X114534800Y-101122000D02*
X114834800Y-101422000D01*
X112334800Y-101872000D02*
X112334800Y-97772000D01*
X112334800Y-97772000D02*
X114334800Y-97772000D01*
X114534800Y-101122000D02*
X114834800Y-100822000D01*
X114334800Y-97772000D02*
X114334800Y-101872000D01*
X114334800Y-101872000D02*
X112334800Y-101872000D01*
X124080600Y-115015036D02*
X124080600Y-115469164D01*
X125550600Y-115015036D02*
X125550600Y-115469164D01*
X115750064Y-93445000D02*
X115295936Y-93445000D01*
X115750064Y-91975000D02*
X115295936Y-91975000D01*
X127023800Y-62171252D02*
X127023800Y-61648748D01*
X125553800Y-62171252D02*
X125553800Y-61648748D01*
X115773564Y-90905000D02*
X115319436Y-90905000D01*
X115773564Y-89435000D02*
X115319436Y-89435000D01*
X112334800Y-109462000D02*
X112334800Y-105362000D01*
X114834800Y-109012000D02*
X114834800Y-108412000D01*
X114334800Y-109462000D02*
X112334800Y-109462000D01*
X112334800Y-105362000D02*
X114334800Y-105362000D01*
X114334800Y-105362000D02*
X114334800Y-109462000D01*
X114534800Y-108712000D02*
X114834800Y-108412000D01*
X114534800Y-108712000D02*
X114834800Y-109012000D01*
X132130000Y-64580000D02*
X132130000Y-64845000D01*
X128270000Y-64580000D02*
X124410000Y-64580000D01*
X128270000Y-80200000D02*
X132130000Y-80200000D01*
X124410000Y-64580000D02*
X124410000Y-64845000D01*
X132130000Y-80200000D02*
X132130000Y-79935000D01*
X128270000Y-64580000D02*
X132130000Y-64580000D01*
X124410000Y-64845000D02*
X122595000Y-64845000D01*
X124410000Y-80200000D02*
X124410000Y-79935000D01*
X128270000Y-80200000D02*
X124410000Y-80200000D01*
X115509800Y-109462000D02*
X115509800Y-105362000D01*
X115509800Y-105362000D02*
X117509800Y-105362000D01*
X117509800Y-109462000D02*
X115509800Y-109462000D01*
X117509800Y-105362000D02*
X117509800Y-109462000D01*
X117709800Y-108712000D02*
X118009800Y-108412000D01*
X118009800Y-109012000D02*
X118009800Y-108412000D01*
X117709800Y-108712000D02*
X118009800Y-109012000D01*
%LPC*%
D12*
X123620000Y-92075000D03*
X123620000Y-93345000D03*
X123620000Y-94615000D03*
X123620000Y-95885000D03*
X123620000Y-97155000D03*
X123620000Y-98425000D03*
X123620000Y-99695000D03*
X123620000Y-100965000D03*
X123620000Y-102235000D03*
X123620000Y-103505000D03*
X123620000Y-104775000D03*
X123620000Y-106045000D03*
X132920000Y-106045000D03*
X132920000Y-104775000D03*
X132920000Y-103505000D03*
X132920000Y-102235000D03*
X132920000Y-100965000D03*
X132920000Y-99695000D03*
X132920000Y-98425000D03*
X132920000Y-97155000D03*
X132920000Y-95885000D03*
X132920000Y-94615000D03*
X132920000Y-93345000D03*
X132920000Y-92075000D03*
D13*
X148590000Y-64770000D03*
D14*
X151130000Y-64770000D03*
X148590000Y-67310000D03*
X151130000Y-67310000D03*
X148590000Y-69850000D03*
X151130000Y-69850000D03*
X148590000Y-72390000D03*
X151130000Y-72390000D03*
X148590000Y-74930000D03*
X151130000Y-74930000D03*
X148590000Y-77470000D03*
X151130000Y-77470000D03*
X148590000Y-80010000D03*
X151130000Y-80010000D03*
X148590000Y-82550000D03*
X151130000Y-82550000D03*
X148590000Y-85090000D03*
X151130000Y-85090000D03*
X148590000Y-87630000D03*
X151130000Y-87630000D03*
X148590000Y-90170000D03*
X151130000Y-90170000D03*
X148590000Y-92710000D03*
X151130000Y-92710000D03*
X148590000Y-95250000D03*
X151130000Y-95250000D03*
X148590000Y-97790000D03*
X151130000Y-97790000D03*
X148590000Y-100330000D03*
X151130000Y-100330000D03*
X148590000Y-102870000D03*
X151130000Y-102870000D03*
X148590000Y-105410000D03*
X151130000Y-105410000D03*
X148590000Y-107950000D03*
X151130000Y-107950000D03*
X148590000Y-110490000D03*
X151130000Y-110490000D03*
X148590000Y-113030000D03*
X151130000Y-113030000D03*
D15*
X119684800Y-101122000D03*
X119684800Y-99822000D03*
X119684800Y-98522000D03*
D16*
X123647200Y-62860000D03*
X123647200Y-60960000D03*
D17*
X122275600Y-116177300D03*
X122275600Y-114302300D03*
D18*
X116482500Y-85090000D03*
X114657500Y-85090000D03*
D15*
X116509800Y-101122000D03*
X116509800Y-99822000D03*
X116509800Y-98522000D03*
D13*
X114300000Y-68580000D03*
D14*
X114300000Y-71120000D03*
X114300000Y-73660000D03*
X114300000Y-76200000D03*
X114300000Y-78740000D03*
X114300000Y-81280000D03*
D15*
X119684800Y-108712000D03*
X119684800Y-107412000D03*
X119684800Y-106112000D03*
D19*
X158750000Y-59690000D03*
D18*
X116482500Y-87630000D03*
X114657500Y-87630000D03*
D20*
X132913200Y-89433400D03*
X131013200Y-89433400D03*
D19*
X158750000Y-116840000D03*
D15*
X113334800Y-101122000D03*
X113334800Y-99822000D03*
X113334800Y-98522000D03*
D21*
X124815600Y-114329600D03*
X124815600Y-116154600D03*
D18*
X116435500Y-92710000D03*
X114610500Y-92710000D03*
D19*
X114300000Y-116840000D03*
D16*
X126288800Y-62860000D03*
X126288800Y-60960000D03*
D18*
X116459000Y-90170000D03*
X114634000Y-90170000D03*
D15*
X113334800Y-108712000D03*
X113334800Y-107412000D03*
X113334800Y-106112000D03*
D12*
X123620000Y-65405000D03*
X123620000Y-66675000D03*
X123620000Y-67945000D03*
X123620000Y-69215000D03*
X123620000Y-70485000D03*
X123620000Y-71755000D03*
X123620000Y-73025000D03*
X123620000Y-74295000D03*
X123620000Y-75565000D03*
X123620000Y-76835000D03*
X123620000Y-78105000D03*
X123620000Y-79375000D03*
X132920000Y-79375000D03*
X132920000Y-78105000D03*
X132920000Y-76835000D03*
X132920000Y-75565000D03*
X132920000Y-74295000D03*
X132920000Y-73025000D03*
X132920000Y-71755000D03*
X132920000Y-70485000D03*
X132920000Y-69215000D03*
X132920000Y-67945000D03*
X132920000Y-66675000D03*
X132920000Y-65405000D03*
D15*
X116509800Y-108712000D03*
X116509800Y-107412000D03*
X116509800Y-106112000D03*
D19*
X114300000Y-59690000D03*
M02*
