M48
; DRILL file {KiCad 6.0.1-79c1e3a40b~116~ubuntu20.04.1} date Fri 21 Jan 2022 03:38:17 PM EST
; FORMAT={-:-/ absolute / metric / decimal}
; #@! TF.CreationDate,2022-01-21T15:38:17-05:00
; #@! TF.GenerationSoftware,Kicad,Pcbnew,6.0.1-79c1e3a40b~116~ubuntu20.04.1
; #@! TF.FileFunction,Plated,1,2,PTH
FMAT,2
METRIC
; #@! TA.AperFunction,Plated,PTH,ViaDrill
T1C0.400
; #@! TA.AperFunction,Plated,PTH,ComponentDrill
T2C0.800
; #@! TA.AperFunction,Plated,PTH,ComponentDrill
T3C1.000
; #@! TA.AperFunction,Plated,PTH,ComponentDrill
T4C3.200
%
G90
G05
T1
X116.332Y-107.848
X120.853Y-95.402
X120.853Y-97.231
X121.158Y-65.43
X121.564Y-110.744
X125.349Y-67.92
X125.349Y-69.215
X125.349Y-70.485
X125.349Y-71.755
X125.349Y-73.025
X125.349Y-74.295
X125.349Y-75.565
X125.349Y-76.835
X125.349Y-94.615
X125.349Y-95.885
X125.349Y-97.155
X125.349Y-98.425
X125.349Y-99.695
X125.476Y-100.965
X125.476Y-102.235
X125.476Y-103.505
X125.882Y-60.96
X127.61Y-78.13
X128.524Y-86.411
X128.93Y-89.306
X129.278Y-87.067
X134.925Y-82.398
X135.738Y-85.09
X136.804Y-83.668
X137.566Y-84.531
T2
X140.817Y-68.224
X140.817Y-70.764
X140.817Y-73.304
X140.817Y-75.844
X140.817Y-78.384
X140.817Y-80.924
X140.817Y-83.464
X140.817Y-86.004
X140.818Y-91.491
X140.818Y-94.031
X140.818Y-96.571
X140.818Y-99.111
X140.818Y-101.651
X140.818Y-104.191
X140.818Y-106.731
X140.818Y-109.271
X148.438Y-68.224
X148.438Y-70.764
X148.438Y-73.304
X148.438Y-75.844
X148.438Y-78.384
X148.438Y-80.924
X148.438Y-83.464
X148.438Y-86.004
X148.438Y-91.491
X148.438Y-94.031
X148.438Y-96.571
X148.438Y-99.111
X148.438Y-101.651
X148.438Y-104.191
X148.438Y-106.731
X148.438Y-109.271
X152.4Y-68.224
X152.4Y-70.764
X152.4Y-73.304
X152.4Y-75.844
X152.4Y-78.384
X152.4Y-80.924
X152.4Y-83.464
X152.4Y-86.004
X152.4Y-91.491
X152.4Y-94.031
X152.4Y-96.571
X152.4Y-99.111
X152.4Y-101.651
X152.4Y-104.191
X152.4Y-106.731
X152.4Y-109.271
X160.02Y-68.224
X160.02Y-70.764
X160.02Y-73.304
X160.02Y-75.844
X160.02Y-78.384
X160.02Y-80.924
X160.02Y-83.464
X160.02Y-86.004
X160.02Y-91.491
X160.02Y-94.031
X160.02Y-96.571
X160.02Y-99.111
X160.02Y-101.651
X160.02Y-104.191
X160.02Y-106.731
X160.02Y-109.271
T3
X114.3Y-68.58
X114.3Y-71.12
X114.3Y-73.66
X114.3Y-76.2
X114.3Y-78.74
X114.3Y-81.28
X114.3Y-83.82
X114.3Y-86.36
X114.3Y-88.9
X114.3Y-91.44
X114.3Y-93.98
X114.3Y-96.52
X128.27Y-111.76
X128.27Y-114.3
X128.27Y-116.84
T4
X114.3Y-62.23
X114.3Y-115.57
X158.75Y-62.23
X158.75Y-115.57
T0
M30
