M48
; DRILL file {KiCad 6.0.4-1.fc35} date Thu 07 Apr 2022 10:49:27 AM EDT
; FORMAT={-:-/ absolute / inch / decimal}
; #@! TF.CreationDate,2022-04-07T10:49:27-04:00
; #@! TF.GenerationSoftware,Kicad,Pcbnew,6.0.4-1.fc35
; #@! TF.FileFunction,Plated,1,2,PTH
FMAT,2
INCH
; #@! TA.AperFunction,Plated,PTH,ViaDrill
T1C0.0157
; #@! TA.AperFunction,Plated,PTH,ComponentDrill
T2C0.0315
; #@! TA.AperFunction,Plated,PTH,ComponentDrill
T3C0.0394
; #@! TA.AperFunction,Plated,PTH,ComponentDrill
T4C0.1260
%
G90
G05
T1
X4.459Y-3.448
X4.525Y-3.93
X4.525Y-4.23
X4.588Y-4.089
X4.65Y-3.93
X4.65Y-4.228
X4.665Y-3.77
X4.74Y-3.635
X4.7555Y-3.443
X4.775Y-4.23
X4.78Y-2.402
X4.785Y-3.75
X4.785Y-3.93
X4.798Y-3.676
X4.863Y-3.2
X4.867Y-4.232
X4.935Y-2.725
X4.935Y-2.775
X4.935Y-2.825
X4.935Y-2.875
X4.935Y-2.925
X4.935Y-2.975
X4.935Y-3.025
X4.935Y-3.075
X4.935Y-3.775
X4.935Y-3.825
X4.935Y-3.875
X4.935Y-3.925
X4.935Y-3.975
X4.935Y-4.025
X4.935Y-4.075
X4.935Y-4.125
X5.05Y-3.246
X5.067Y-2.402
X5.115Y-3.455
X5.118Y-4.24
X5.165Y-2.625
X5.165Y-2.675
T2
X5.544Y-2.686
X5.544Y-2.786
X5.544Y-2.886
X5.544Y-2.986
X5.544Y-3.086
X5.544Y-3.186
X5.544Y-3.286
X5.544Y-3.386
X5.544Y-3.602
X5.544Y-3.702
X5.544Y-3.802
X5.544Y-3.902
X5.544Y-4.002
X5.544Y-4.102
X5.544Y-4.202
X5.544Y-4.302
X5.844Y-2.686
X5.844Y-2.786
X5.844Y-2.886
X5.844Y-2.986
X5.844Y-3.086
X5.844Y-3.186
X5.844Y-3.286
X5.844Y-3.386
X5.844Y-3.602
X5.844Y-3.702
X5.844Y-3.802
X5.844Y-3.902
X5.844Y-4.002
X5.844Y-4.102
X5.844Y-4.202
X5.844Y-4.302
X6.0Y-2.686
X6.0Y-2.786
X6.0Y-2.886
X6.0Y-2.986
X6.0Y-3.086
X6.0Y-3.186
X6.0Y-3.286
X6.0Y-3.386
X6.0Y-3.602
X6.0Y-3.702
X6.0Y-3.802
X6.0Y-3.902
X6.0Y-4.002
X6.0Y-4.102
X6.0Y-4.202
X6.0Y-4.302
X6.3Y-2.686
X6.3Y-2.786
X6.3Y-2.886
X6.3Y-2.986
X6.3Y-3.086
X6.3Y-3.186
X6.3Y-3.286
X6.3Y-3.386
X6.3Y-3.602
X6.3Y-3.702
X6.3Y-3.802
X6.3Y-3.902
X6.3Y-4.002
X6.3Y-4.102
X6.3Y-4.202
X6.3Y-4.302
T3
X4.5Y-2.7
X4.5Y-2.8
X4.5Y-2.9
X4.5Y-3.0
X4.5Y-3.1
X4.5Y-3.2
X5.05Y-4.4006
X5.05Y-4.5006
X5.05Y-4.6006
T4
X4.5Y-2.45
X4.5Y-4.55
X6.25Y-2.45
X6.25Y-4.55
T0
M30
