G04 #@! TF.GenerationSoftware,KiCad,Pcbnew,6.0.4-1.fc35*
G04 #@! TF.CreationDate,2022-04-07T10:49:23-04:00*
G04 #@! TF.ProjectId,switch_mux_breakout,73776974-6368-45f6-9d75-785f62726561,0*
G04 #@! TF.SameCoordinates,Original*
G04 #@! TF.FileFunction,Paste,Top*
G04 #@! TF.FilePolarity,Positive*
%FSLAX46Y46*%
G04 Gerber Fmt 4.6, Leading zero omitted, Abs format (unit mm)*
G04 Created by KiCad (PCBNEW 6.0.4-1.fc35) date 2022-04-07 10:49:23*
%MOMM*%
%LPD*%
G01*
G04 APERTURE LIST*
G04 Aperture macros list*
%AMRoundRect*
0 Rectangle with rounded corners*
0 $1 Rounding radius*
0 $2 $3 $4 $5 $6 $7 $8 $9 X,Y pos of 4 corners*
0 Add a 4 corners polygon primitive as box body*
4,1,4,$2,$3,$4,$5,$6,$7,$8,$9,$2,$3,0*
0 Add four circle primitives for the rounded corners*
1,1,$1+$1,$2,$3*
1,1,$1+$1,$4,$5*
1,1,$1+$1,$6,$7*
1,1,$1+$1,$8,$9*
0 Add four rect primitives between the rounded corners*
20,1,$1+$1,$2,$3,$4,$5,0*
20,1,$1+$1,$4,$5,$6,$7,0*
20,1,$1+$1,$6,$7,$8,$9,0*
20,1,$1+$1,$8,$9,$2,$3,0*%
G04 Aperture macros list end*
%ADD10RoundRect,0.250000X0.475000X-0.250000X0.475000X0.250000X-0.475000X0.250000X-0.475000X-0.250000X0*%
%ADD11RoundRect,0.243750X0.456250X-0.243750X0.456250X0.243750X-0.456250X0.243750X-0.456250X-0.243750X0*%
%ADD12RoundRect,0.250000X0.262500X0.450000X-0.262500X0.450000X-0.262500X-0.450000X0.262500X-0.450000X0*%
%ADD13RoundRect,0.150000X-0.875000X-0.150000X0.875000X-0.150000X0.875000X0.150000X-0.875000X0.150000X0*%
%ADD14RoundRect,0.250000X0.250000X0.475000X-0.250000X0.475000X-0.250000X-0.475000X0.250000X-0.475000X0*%
%ADD15RoundRect,0.250000X-0.450000X0.262500X-0.450000X-0.262500X0.450000X-0.262500X0.450000X0.262500X0*%
G04 APERTURE END LIST*
D10*
X123647200Y-62860000D03*
X123647200Y-60960000D03*
D11*
X122275600Y-116177300D03*
X122275600Y-114302300D03*
D12*
X116482500Y-85090000D03*
X114657500Y-85090000D03*
D13*
X123620000Y-92075000D03*
X123620000Y-93345000D03*
X123620000Y-94615000D03*
X123620000Y-95885000D03*
X123620000Y-97155000D03*
X123620000Y-98425000D03*
X123620000Y-99695000D03*
X123620000Y-100965000D03*
X123620000Y-102235000D03*
X123620000Y-103505000D03*
X123620000Y-104775000D03*
X123620000Y-106045000D03*
X132920000Y-106045000D03*
X132920000Y-104775000D03*
X132920000Y-103505000D03*
X132920000Y-102235000D03*
X132920000Y-100965000D03*
X132920000Y-99695000D03*
X132920000Y-98425000D03*
X132920000Y-97155000D03*
X132920000Y-95885000D03*
X132920000Y-94615000D03*
X132920000Y-93345000D03*
X132920000Y-92075000D03*
D12*
X116482500Y-87630000D03*
X114657500Y-87630000D03*
D14*
X132913200Y-89433400D03*
X131013200Y-89433400D03*
D15*
X124815600Y-114329600D03*
X124815600Y-116154600D03*
D12*
X116435500Y-92710000D03*
X114610500Y-92710000D03*
D10*
X126288800Y-62860000D03*
X126288800Y-60960000D03*
D12*
X116459000Y-90170000D03*
X114634000Y-90170000D03*
D13*
X123620000Y-65405000D03*
X123620000Y-66675000D03*
X123620000Y-67945000D03*
X123620000Y-69215000D03*
X123620000Y-70485000D03*
X123620000Y-71755000D03*
X123620000Y-73025000D03*
X123620000Y-74295000D03*
X123620000Y-75565000D03*
X123620000Y-76835000D03*
X123620000Y-78105000D03*
X123620000Y-79375000D03*
X132920000Y-79375000D03*
X132920000Y-78105000D03*
X132920000Y-76835000D03*
X132920000Y-75565000D03*
X132920000Y-74295000D03*
X132920000Y-73025000D03*
X132920000Y-71755000D03*
X132920000Y-70485000D03*
X132920000Y-69215000D03*
X132920000Y-67945000D03*
X132920000Y-66675000D03*
X132920000Y-65405000D03*
M02*
