G04 #@! TF.GenerationSoftware,KiCad,Pcbnew,6.0.5-2.fc36*
G04 #@! TF.CreationDate,2022-06-02T11:59:58-04:00*
G04 #@! TF.ProjectId,switch_mux_breakout,73776974-6368-45f6-9d75-785f62726561,0*
G04 #@! TF.SameCoordinates,Original*
G04 #@! TF.FileFunction,Legend,Bot*
G04 #@! TF.FilePolarity,Positive*
%FSLAX46Y46*%
G04 Gerber Fmt 4.6, Leading zero omitted, Abs format (unit mm)*
G04 Created by KiCad (PCBNEW 6.0.5-2.fc36) date 2022-06-02 11:59:58*
%MOMM*%
%LPD*%
G01*
G04 APERTURE LIST*
%ADD10R,1.700000X1.700000*%
%ADD11O,1.700000X1.700000*%
%ADD12C,5.600000*%
G04 APERTURE END LIST*
%LPC*%
D10*
X148590000Y-64770000D03*
D11*
X151130000Y-64770000D03*
X148590000Y-67310000D03*
X151130000Y-67310000D03*
X148590000Y-69850000D03*
X151130000Y-69850000D03*
X148590000Y-72390000D03*
X151130000Y-72390000D03*
X148590000Y-74930000D03*
X151130000Y-74930000D03*
X148590000Y-77470000D03*
X151130000Y-77470000D03*
X148590000Y-80010000D03*
X151130000Y-80010000D03*
X148590000Y-82550000D03*
X151130000Y-82550000D03*
X148590000Y-85090000D03*
X151130000Y-85090000D03*
X148590000Y-87630000D03*
X151130000Y-87630000D03*
X148590000Y-90170000D03*
X151130000Y-90170000D03*
X148590000Y-92710000D03*
X151130000Y-92710000D03*
X148590000Y-95250000D03*
X151130000Y-95250000D03*
X148590000Y-97790000D03*
X151130000Y-97790000D03*
X148590000Y-100330000D03*
X151130000Y-100330000D03*
X148590000Y-102870000D03*
X151130000Y-102870000D03*
X148590000Y-105410000D03*
X151130000Y-105410000D03*
X148590000Y-107950000D03*
X151130000Y-107950000D03*
X148590000Y-110490000D03*
X151130000Y-110490000D03*
X148590000Y-113030000D03*
X151130000Y-113030000D03*
D10*
X114300000Y-68580000D03*
D11*
X114300000Y-71120000D03*
X114300000Y-73660000D03*
X114300000Y-76200000D03*
X114300000Y-78740000D03*
X114300000Y-81280000D03*
D12*
X158750000Y-59690000D03*
X158750000Y-116840000D03*
X114300000Y-116840000D03*
X114300000Y-59690000D03*
M02*
