G04 #@! TF.GenerationSoftware,KiCad,Pcbnew,6.0.5-2.fc36*
G04 #@! TF.CreationDate,2022-06-02T11:59:58-04:00*
G04 #@! TF.ProjectId,switch_mux_breakout,73776974-6368-45f6-9d75-785f62726561,0*
G04 #@! TF.SameCoordinates,Original*
G04 #@! TF.FileFunction,Copper,L1,Top*
G04 #@! TF.FilePolarity,Positive*
%FSLAX46Y46*%
G04 Gerber Fmt 4.6, Leading zero omitted, Abs format (unit mm)*
G04 Created by KiCad (PCBNEW 6.0.5-2.fc36) date 2022-06-02 11:59:58*
%MOMM*%
%LPD*%
G01*
G04 APERTURE LIST*
G04 Aperture macros list*
%AMRoundRect*
0 Rectangle with rounded corners*
0 $1 Rounding radius*
0 $2 $3 $4 $5 $6 $7 $8 $9 X,Y pos of 4 corners*
0 Add a 4 corners polygon primitive as box body*
4,1,4,$2,$3,$4,$5,$6,$7,$8,$9,$2,$3,0*
0 Add four circle primitives for the rounded corners*
1,1,$1+$1,$2,$3*
1,1,$1+$1,$4,$5*
1,1,$1+$1,$6,$7*
1,1,$1+$1,$8,$9*
0 Add four rect primitives between the rounded corners*
20,1,$1+$1,$2,$3,$4,$5,0*
20,1,$1+$1,$4,$5,$6,$7,0*
20,1,$1+$1,$6,$7,$8,$9,0*
20,1,$1+$1,$8,$9,$2,$3,0*%
G04 Aperture macros list end*
G04 #@! TA.AperFunction,SMDPad,CuDef*
%ADD10RoundRect,0.150000X-0.875000X-0.150000X0.875000X-0.150000X0.875000X0.150000X-0.875000X0.150000X0*%
G04 #@! TD*
G04 #@! TA.AperFunction,ComponentPad*
%ADD11R,1.700000X1.700000*%
G04 #@! TD*
G04 #@! TA.AperFunction,ComponentPad*
%ADD12O,1.700000X1.700000*%
G04 #@! TD*
G04 #@! TA.AperFunction,SMDPad,CuDef*
%ADD13R,1.500000X1.000000*%
G04 #@! TD*
G04 #@! TA.AperFunction,SMDPad,CuDef*
%ADD14RoundRect,0.250000X0.475000X-0.250000X0.475000X0.250000X-0.475000X0.250000X-0.475000X-0.250000X0*%
G04 #@! TD*
G04 #@! TA.AperFunction,SMDPad,CuDef*
%ADD15RoundRect,0.243750X0.456250X-0.243750X0.456250X0.243750X-0.456250X0.243750X-0.456250X-0.243750X0*%
G04 #@! TD*
G04 #@! TA.AperFunction,SMDPad,CuDef*
%ADD16RoundRect,0.250000X0.262500X0.450000X-0.262500X0.450000X-0.262500X-0.450000X0.262500X-0.450000X0*%
G04 #@! TD*
G04 #@! TA.AperFunction,ComponentPad*
%ADD17C,5.600000*%
G04 #@! TD*
G04 #@! TA.AperFunction,SMDPad,CuDef*
%ADD18RoundRect,0.250000X0.250000X0.475000X-0.250000X0.475000X-0.250000X-0.475000X0.250000X-0.475000X0*%
G04 #@! TD*
G04 #@! TA.AperFunction,SMDPad,CuDef*
%ADD19RoundRect,0.250000X-0.450000X0.262500X-0.450000X-0.262500X0.450000X-0.262500X0.450000X0.262500X0*%
G04 #@! TD*
G04 #@! TA.AperFunction,ViaPad*
%ADD20C,0.800000*%
G04 #@! TD*
G04 #@! TA.AperFunction,Conductor*
%ADD21C,0.300000*%
G04 #@! TD*
G04 #@! TA.AperFunction,Conductor*
%ADD22C,0.500000*%
G04 #@! TD*
G04 #@! TA.AperFunction,Conductor*
%ADD23C,0.400000*%
G04 #@! TD*
G04 APERTURE END LIST*
D10*
X123620000Y-92075000D03*
X123620000Y-93345000D03*
X123620000Y-94615000D03*
X123620000Y-95885000D03*
X123620000Y-97155000D03*
X123620000Y-98425000D03*
X123620000Y-99695000D03*
X123620000Y-100965000D03*
X123620000Y-102235000D03*
X123620000Y-103505000D03*
X123620000Y-104775000D03*
X123620000Y-106045000D03*
X132920000Y-106045000D03*
X132920000Y-104775000D03*
X132920000Y-103505000D03*
X132920000Y-102235000D03*
X132920000Y-100965000D03*
X132920000Y-99695000D03*
X132920000Y-98425000D03*
X132920000Y-97155000D03*
X132920000Y-95885000D03*
X132920000Y-94615000D03*
X132920000Y-93345000D03*
X132920000Y-92075000D03*
D11*
X148590000Y-64770000D03*
D12*
X151130000Y-64770000D03*
X148590000Y-67310000D03*
X151130000Y-67310000D03*
X148590000Y-69850000D03*
X151130000Y-69850000D03*
X148590000Y-72390000D03*
X151130000Y-72390000D03*
X148590000Y-74930000D03*
X151130000Y-74930000D03*
X148590000Y-77470000D03*
X151130000Y-77470000D03*
X148590000Y-80010000D03*
X151130000Y-80010000D03*
X148590000Y-82550000D03*
X151130000Y-82550000D03*
X148590000Y-85090000D03*
X151130000Y-85090000D03*
X148590000Y-87630000D03*
X151130000Y-87630000D03*
X148590000Y-90170000D03*
X151130000Y-90170000D03*
X148590000Y-92710000D03*
X151130000Y-92710000D03*
X148590000Y-95250000D03*
X151130000Y-95250000D03*
X148590000Y-97790000D03*
X151130000Y-97790000D03*
X148590000Y-100330000D03*
X151130000Y-100330000D03*
X148590000Y-102870000D03*
X151130000Y-102870000D03*
X148590000Y-105410000D03*
X151130000Y-105410000D03*
X148590000Y-107950000D03*
X151130000Y-107950000D03*
X148590000Y-110490000D03*
X151130000Y-110490000D03*
X148590000Y-113030000D03*
X151130000Y-113030000D03*
D13*
X119684800Y-101122000D03*
X119684800Y-99822000D03*
X119684800Y-98522000D03*
D14*
X123647200Y-62860000D03*
X123647200Y-60960000D03*
D15*
X122275600Y-116177300D03*
X122275600Y-114302300D03*
D16*
X116482500Y-85090000D03*
X114657500Y-85090000D03*
D13*
X116509800Y-101122000D03*
X116509800Y-99822000D03*
X116509800Y-98522000D03*
D11*
X114300000Y-68580000D03*
D12*
X114300000Y-71120000D03*
X114300000Y-73660000D03*
X114300000Y-76200000D03*
X114300000Y-78740000D03*
X114300000Y-81280000D03*
D13*
X119684800Y-108712000D03*
X119684800Y-107412000D03*
X119684800Y-106112000D03*
D17*
X158750000Y-59690000D03*
D16*
X116482500Y-87630000D03*
X114657500Y-87630000D03*
D18*
X132913200Y-89433400D03*
X131013200Y-89433400D03*
D17*
X158750000Y-116840000D03*
D13*
X113334800Y-101122000D03*
X113334800Y-99822000D03*
X113334800Y-98522000D03*
D19*
X124815600Y-114329600D03*
X124815600Y-116154600D03*
D16*
X116435500Y-92710000D03*
X114610500Y-92710000D03*
D17*
X114300000Y-116840000D03*
D14*
X126288800Y-62860000D03*
X126288800Y-60960000D03*
D16*
X116459000Y-90170000D03*
X114634000Y-90170000D03*
D13*
X113334800Y-108712000D03*
X113334800Y-107412000D03*
X113334800Y-106112000D03*
D10*
X123620000Y-65405000D03*
X123620000Y-66675000D03*
X123620000Y-67945000D03*
X123620000Y-69215000D03*
X123620000Y-70485000D03*
X123620000Y-71755000D03*
X123620000Y-73025000D03*
X123620000Y-74295000D03*
X123620000Y-75565000D03*
X123620000Y-76835000D03*
X123620000Y-78105000D03*
X123620000Y-79375000D03*
X132920000Y-79375000D03*
X132920000Y-78105000D03*
X132920000Y-76835000D03*
X132920000Y-75565000D03*
X132920000Y-74295000D03*
X132920000Y-73025000D03*
X132920000Y-71755000D03*
X132920000Y-70485000D03*
X132920000Y-69215000D03*
X132920000Y-67945000D03*
X132920000Y-66675000D03*
X132920000Y-65405000D03*
D13*
X116509800Y-108712000D03*
X116509800Y-107412000D03*
X116509800Y-106112000D03*
D17*
X114300000Y-59690000D03*
D20*
X135382000Y-78105000D03*
X136144000Y-76835000D03*
X135382000Y-75565000D03*
X136144000Y-74422000D03*
X135382000Y-73025000D03*
X136144000Y-71755000D03*
X135382000Y-70612000D03*
X135890000Y-69215000D03*
X127000000Y-116205000D03*
X131191000Y-67945000D03*
X131191000Y-66675000D03*
X113258600Y-87579200D03*
X120789900Y-87452200D03*
X121539000Y-99822000D03*
X128270000Y-82448400D03*
X118491000Y-95758000D03*
X118110000Y-99822000D03*
X114935000Y-99822000D03*
X120396000Y-92329000D03*
X129997200Y-107696000D03*
X121285000Y-107442000D03*
X125349000Y-69215000D03*
X125349000Y-95885000D03*
X125349000Y-70485000D03*
X125349000Y-97155000D03*
X125349000Y-71755000D03*
X125349000Y-98425000D03*
X125349000Y-73025000D03*
X125349000Y-99695000D03*
X125349000Y-74295000D03*
X125349000Y-100965000D03*
X125349000Y-75565000D03*
X125349000Y-102235000D03*
X125349000Y-76835000D03*
X125349000Y-103505000D03*
X125349000Y-78105000D03*
X125349000Y-104775000D03*
X121869200Y-93370400D03*
X118110000Y-107391200D03*
X114935000Y-107442000D03*
X121539000Y-95250000D03*
X123621800Y-107492800D03*
X128701800Y-61010800D03*
X129921000Y-87757000D03*
X116535200Y-103860600D03*
X123520200Y-81280000D03*
X121412000Y-61010800D03*
D21*
X148590000Y-67310000D02*
X146685000Y-69215000D01*
X146685000Y-69215000D02*
X135890000Y-69215000D01*
X138303000Y-106045000D02*
X132920000Y-106045000D01*
D22*
X126288800Y-62860000D02*
X132720000Y-62860000D01*
X132720000Y-62860000D02*
X146680000Y-62860000D01*
D21*
X132920000Y-65405000D02*
X132920000Y-63060000D01*
X132920000Y-63060000D02*
X132720000Y-62860000D01*
D22*
X146680000Y-62860000D02*
X148590000Y-64770000D01*
D23*
X149860000Y-90170000D02*
X151130000Y-90170000D01*
X148590000Y-90170000D02*
X149860000Y-90170000D01*
X148590000Y-64770000D02*
X149860000Y-64770000D01*
X149860000Y-64770000D02*
X151130000Y-64770000D01*
X149860000Y-90170000D02*
X149860000Y-64770000D01*
D21*
X153399022Y-107679022D02*
X151130000Y-105410000D01*
X139700000Y-106735585D02*
X139700000Y-111942584D01*
X139700000Y-111942584D02*
X145562477Y-117805061D01*
X152625429Y-117805062D02*
X155397066Y-115033423D01*
X141224000Y-105918000D02*
X141224000Y-111347336D01*
X155397066Y-99517066D02*
X151130000Y-95250000D01*
X151130000Y-92710000D02*
X155896577Y-97476577D01*
X132920000Y-103505000D02*
X137287000Y-103505000D01*
X146183192Y-116306528D02*
X152004714Y-116306532D01*
X145769382Y-117305550D02*
X152418524Y-117305552D01*
X132920000Y-102235000D02*
X136779000Y-102235000D01*
X153898533Y-114412711D02*
X153898533Y-105638533D01*
X152418524Y-117305552D02*
X154897555Y-114826519D01*
X154897555Y-114826519D02*
X154897555Y-101557555D01*
X140716000Y-111545752D02*
X145976287Y-116806039D01*
X154398044Y-114619615D02*
X154398044Y-103598044D01*
X151797810Y-115807021D02*
X153399022Y-114205808D01*
X141224000Y-111347336D02*
X146183192Y-116306528D01*
X141732000Y-111148920D02*
X146390097Y-115807017D01*
X155397066Y-115033423D02*
X155397066Y-99517066D01*
X139192000Y-106934000D02*
X138303000Y-106045000D01*
X141732000Y-105664000D02*
X141732000Y-111148920D01*
X154897555Y-101557555D02*
X151130000Y-97790000D01*
X146390097Y-115807017D02*
X151797810Y-115807021D01*
X132920000Y-99695000D02*
X135763000Y-99695000D01*
X152004714Y-116306532D02*
X153898533Y-114412711D01*
X136271000Y-100965000D02*
X141224000Y-105918000D01*
X132920000Y-100965000D02*
X136271000Y-100965000D01*
X153399022Y-114205808D02*
X153399022Y-107679022D01*
X153898533Y-105638533D02*
X151130000Y-102870000D01*
X154398044Y-103598044D02*
X151130000Y-100330000D01*
X145976287Y-116806039D02*
X152211619Y-116806042D01*
X137739415Y-104775000D02*
X139700000Y-106735585D01*
X132920000Y-104775000D02*
X137739415Y-104775000D01*
X145562477Y-117805061D02*
X152625429Y-117805062D01*
X140716000Y-106172000D02*
X140716000Y-111545752D01*
X140208000Y-106426000D02*
X140208000Y-111744168D01*
X140208000Y-111744168D02*
X145769382Y-117305550D01*
X137287000Y-103505000D02*
X140208000Y-106426000D01*
X152211619Y-116806042D02*
X154398044Y-114619615D01*
X135763000Y-99695000D02*
X141732000Y-105664000D01*
X136779000Y-102235000D02*
X140716000Y-106172000D01*
X155896577Y-97476577D02*
X155896577Y-115240330D01*
X155896577Y-115240330D02*
X152832335Y-118304572D01*
X152832335Y-118304572D02*
X145355572Y-118304572D01*
X145355572Y-118304572D02*
X139192000Y-112141000D01*
X139192000Y-112141000D02*
X139192000Y-106934000D01*
X142739511Y-110735511D02*
X146812000Y-114808000D01*
X134747000Y-97155000D02*
X142739511Y-105147511D01*
X132920000Y-97155000D02*
X134747000Y-97155000D01*
X152899511Y-113998904D02*
X152899511Y-109719511D01*
X151384000Y-114808000D02*
X152400000Y-113792000D01*
X132920000Y-98425000D02*
X135255000Y-98425000D01*
X142240000Y-105410000D02*
X142240000Y-110942416D01*
X146812000Y-114808000D02*
X151384000Y-114808000D01*
X135255000Y-98425000D02*
X142240000Y-105410000D01*
X146605096Y-115307511D02*
X151590905Y-115307511D01*
X152899511Y-109719511D02*
X151130000Y-107950000D01*
X151590905Y-115307511D02*
X152899511Y-113998904D01*
X142739511Y-105147511D02*
X142739511Y-110735511D01*
X142240000Y-110942416D02*
X146605096Y-115307511D01*
X152400000Y-113792000D02*
X152400000Y-111760000D01*
X152400000Y-111760000D02*
X151130000Y-110490000D01*
X148590000Y-110490000D02*
X145288000Y-107188000D01*
X145288000Y-107188000D02*
X145288000Y-98131281D01*
X128548362Y-81391643D02*
X128548362Y-73762638D01*
X145288000Y-98131281D02*
X128548362Y-81391643D01*
X128548362Y-73762638D02*
X131826000Y-70485000D01*
X131826000Y-70485000D02*
X132920000Y-70485000D01*
X132920000Y-71755000D02*
X131699000Y-71755000D01*
X131699000Y-71755000D02*
X129047881Y-74406119D01*
X145796000Y-105156000D02*
X148590000Y-107950000D01*
X129047881Y-74406119D02*
X129047881Y-81184735D01*
X129047881Y-81184735D02*
X145796000Y-97932854D01*
X145796000Y-97932854D02*
X145796000Y-105156000D01*
X132920000Y-73025000D02*
X131627572Y-73025000D01*
X131627572Y-73025000D02*
X129547400Y-75105172D01*
X129547400Y-75105172D02*
X129547400Y-80977838D01*
X129547400Y-80977838D02*
X146304000Y-97734438D01*
X146304000Y-103124000D02*
X148590000Y-105410000D01*
X146304000Y-97734438D02*
X146304000Y-103124000D01*
X132920000Y-74295000D02*
X131699000Y-74295000D01*
X131699000Y-74295000D02*
X130046920Y-75947080D01*
X146812000Y-97536000D02*
X146812000Y-101092000D01*
X130046920Y-75947080D02*
X130046920Y-80770920D01*
X130046920Y-80770920D02*
X146812000Y-97536000D01*
X146812000Y-101092000D02*
X148590000Y-102870000D01*
X132920000Y-75565000D02*
X131699000Y-75565000D01*
X131699000Y-75565000D02*
X130546440Y-76717560D01*
X130546440Y-76717560D02*
X130546440Y-80564012D01*
X130546440Y-80564012D02*
X147320000Y-97337572D01*
X147320000Y-97337572D02*
X147320000Y-99060000D01*
X147320000Y-99060000D02*
X148590000Y-100330000D01*
X132920000Y-76835000D02*
X131826000Y-76835000D01*
X131826000Y-76835000D02*
X131045960Y-77615040D01*
X131045960Y-77615040D02*
X131045960Y-80357104D01*
X131045960Y-80357104D02*
X148478856Y-97790000D01*
X148478856Y-97790000D02*
X148590000Y-97790000D01*
D22*
X126288800Y-85394800D02*
X126288800Y-110289100D01*
X126288800Y-110289100D02*
X122275600Y-114302300D01*
D21*
X148590000Y-85090000D02*
X141605000Y-78105000D01*
X141605000Y-78105000D02*
X135382000Y-78105000D01*
X136144000Y-76835000D02*
X142875000Y-76835000D01*
X142875000Y-76835000D02*
X148590000Y-82550000D01*
X148590000Y-80010000D02*
X144145000Y-75565000D01*
X144145000Y-75565000D02*
X135382000Y-75565000D01*
X148590000Y-77470000D02*
X145542000Y-74422000D01*
X145542000Y-74422000D02*
X136144000Y-74422000D01*
X148590000Y-69850000D02*
X147828000Y-70612000D01*
X147828000Y-70612000D02*
X135382000Y-70612000D01*
X135382000Y-73025000D02*
X146685000Y-73025000D01*
X146685000Y-73025000D02*
X148590000Y-74930000D01*
X136144000Y-71755000D02*
X147955000Y-71755000D01*
X147955000Y-71755000D02*
X148590000Y-72390000D01*
X132920000Y-79375000D02*
X132920000Y-80818288D01*
X132920000Y-80818288D02*
X144811712Y-92710000D01*
X144811712Y-92710000D02*
X148590000Y-92710000D01*
X132920000Y-78105000D02*
X131699000Y-78105000D01*
X131545480Y-80150196D02*
X146645284Y-95250000D01*
X146645284Y-95250000D02*
X148590000Y-95250000D01*
X131699000Y-78105000D02*
X131545480Y-78258520D01*
X131545480Y-78258520D02*
X131545480Y-80150196D01*
X122967900Y-116177300D02*
X124815600Y-114329600D01*
X122275600Y-116177300D02*
X122967900Y-116177300D01*
X132920000Y-67945000D02*
X131191000Y-67945000D01*
X115499511Y-72319511D02*
X115499511Y-74297833D01*
X134794040Y-93780560D02*
X133959600Y-94615000D01*
X127959541Y-83197911D02*
X129476711Y-83197911D01*
X111980161Y-76823473D02*
X111980161Y-87516161D01*
X129476711Y-83197911D02*
X134794040Y-88515240D01*
X115499511Y-74297833D02*
X114796855Y-75000489D01*
X133959600Y-94615000D02*
X132920000Y-94615000D01*
X134794040Y-88515240D02*
X134794040Y-93780560D01*
X131191000Y-67945000D02*
X127387840Y-71748160D01*
X113803145Y-75000489D02*
X111980161Y-76823473D01*
X111980161Y-87516161D02*
X114634000Y-90170000D01*
X114796855Y-75000489D02*
X113803145Y-75000489D01*
X114300000Y-71120000D02*
X115499511Y-72319511D01*
X127387840Y-82626210D02*
X127959541Y-83197911D01*
X127387840Y-71748160D02*
X127387840Y-82626210D01*
X126888320Y-70977680D02*
X131191000Y-66675000D01*
X126888320Y-82833117D02*
X126888320Y-70977680D01*
X134294520Y-88722148D02*
X129269802Y-83697430D01*
X111480641Y-76479359D02*
X114300000Y-73660000D01*
X127752632Y-83697430D02*
X126888320Y-82833117D01*
X111480641Y-89580141D02*
X111480641Y-76479359D01*
X132920000Y-93345000D02*
X133908800Y-93345000D01*
X132920000Y-66675000D02*
X131191000Y-66675000D01*
X129269802Y-83697430D02*
X127752632Y-83697430D01*
X133908800Y-93345000D02*
X134294520Y-92959280D01*
X114610500Y-92710000D02*
X111480641Y-89580141D01*
X134294520Y-92959280D02*
X134294520Y-88722148D01*
X114300000Y-76200000D02*
X115062000Y-76200000D01*
X119354600Y-65405000D02*
X123620000Y-65405000D01*
X112479680Y-84336480D02*
X112479680Y-78020320D01*
X116586000Y-68173600D02*
X119354600Y-65405000D01*
X113233200Y-85090000D02*
X112479680Y-84336480D01*
X115062000Y-76200000D02*
X116586000Y-74676000D01*
X114657500Y-85090000D02*
X113233200Y-85090000D01*
X112479680Y-78020320D02*
X114300000Y-76200000D01*
X116586000Y-74676000D02*
X116586000Y-68173600D01*
X120789900Y-90538500D02*
X122326400Y-92075000D01*
X115168329Y-84040480D02*
X113656880Y-84040480D01*
X112979200Y-83362800D02*
X112979200Y-80060800D01*
X113258600Y-87579200D02*
X114606700Y-87579200D01*
X114606700Y-87579200D02*
X114657500Y-87630000D01*
X120789900Y-87452200D02*
X120789900Y-90538500D01*
X115519520Y-84391671D02*
X115168329Y-84040480D01*
X113656880Y-84040480D02*
X112979200Y-83362800D01*
X122326400Y-92075000D02*
X123620000Y-92075000D01*
X114657500Y-87630000D02*
X115519520Y-86767980D01*
X115519520Y-86767980D02*
X115519520Y-84391671D01*
X112979200Y-80060800D02*
X114300000Y-78740000D01*
X128016000Y-72745600D02*
X131546600Y-69215000D01*
X121539000Y-99822000D02*
X119684800Y-99822000D01*
X128016000Y-72745600D02*
X128016000Y-82194400D01*
X128016000Y-82194400D02*
X128270000Y-82448400D01*
X132920000Y-69215000D02*
X131546600Y-69215000D01*
X116509800Y-99822000D02*
X118110000Y-99822000D01*
X119481600Y-69596000D02*
X122402600Y-66675000D01*
X122402600Y-66675000D02*
X123620000Y-66675000D01*
X118491000Y-95758000D02*
X119481600Y-94767400D01*
X119481600Y-94767400D02*
X119481600Y-69596000D01*
X120040389Y-91973389D02*
X120040389Y-70561211D01*
X120040389Y-70561211D02*
X122656600Y-67945000D01*
X122656600Y-67945000D02*
X123620000Y-67945000D01*
X113334800Y-99822000D02*
X114935000Y-99822000D01*
X120396000Y-92329000D02*
X120040389Y-91973389D01*
X132843800Y-95808800D02*
X132920000Y-95885000D01*
X121285000Y-107442000D02*
X119714800Y-107442000D01*
X119714800Y-107442000D02*
X119684800Y-107412000D01*
X131470400Y-95808800D02*
X132843800Y-95808800D01*
X129997200Y-107696000D02*
X129997200Y-97282000D01*
X129997200Y-97282000D02*
X131470400Y-95808800D01*
X125349000Y-69215000D02*
X123620000Y-69215000D01*
X123620000Y-95885000D02*
X125349000Y-95885000D01*
X125349000Y-70485000D02*
X123620000Y-70485000D01*
X123620000Y-97155000D02*
X125349000Y-97155000D01*
X125349000Y-71755000D02*
X123620000Y-71755000D01*
X123620000Y-98425000D02*
X125349000Y-98425000D01*
X125349000Y-73025000D02*
X123620000Y-73025000D01*
X123620000Y-99695000D02*
X125349000Y-99695000D01*
X125349000Y-74295000D02*
X123620000Y-74295000D01*
X123620000Y-100965000D02*
X125349000Y-100965000D01*
X125349000Y-75565000D02*
X123620000Y-75565000D01*
X123620000Y-102235000D02*
X125349000Y-102235000D01*
X125349000Y-76835000D02*
X123620000Y-76835000D01*
X123620000Y-103505000D02*
X125349000Y-103505000D01*
X125349000Y-78105000D02*
X123620000Y-78105000D01*
X123620000Y-104775000D02*
X125349000Y-104775000D01*
X123594600Y-93370400D02*
X123620000Y-93345000D01*
X116509800Y-107412000D02*
X118089200Y-107412000D01*
X121869200Y-93370400D02*
X123594600Y-93370400D01*
X118089200Y-107412000D02*
X118110000Y-107391200D01*
X113364800Y-107442000D02*
X113334800Y-107412000D01*
X114935000Y-107442000D02*
X113364800Y-107442000D01*
X122174000Y-94615000D02*
X121539000Y-95250000D01*
X123620000Y-94615000D02*
X122174000Y-94615000D01*
X114904351Y-94564200D02*
X113748480Y-93408329D01*
D22*
X122636200Y-62860000D02*
X120929400Y-64566800D01*
X123647200Y-62860000D02*
X122636200Y-62860000D01*
X114909600Y-68580000D02*
X114300000Y-68580000D01*
D21*
X129844800Y-85394800D02*
X126288800Y-85394800D01*
X113748480Y-93377680D02*
X110981122Y-90610322D01*
X116482500Y-92663000D02*
X116435500Y-92710000D01*
X116509800Y-94615000D02*
X116509800Y-98522000D01*
X132913200Y-89433400D02*
X132913200Y-88463200D01*
X111582200Y-105410000D02*
X112284200Y-106112000D01*
X119684800Y-98522000D02*
X113334800Y-98522000D01*
X111582200Y-99187000D02*
X111582200Y-105410000D01*
D22*
X126288800Y-62860000D02*
X123647200Y-62860000D01*
D21*
X112284200Y-106112000D02*
X113334800Y-106112000D01*
X113334800Y-98522000D02*
X112247200Y-98522000D01*
X132913200Y-92068200D02*
X132920000Y-92075000D01*
X132913200Y-88463200D02*
X129844800Y-85394800D01*
X112247200Y-98522000D02*
X111582200Y-99187000D01*
D22*
X126288800Y-85394800D02*
X126288800Y-62860000D01*
D21*
X132913200Y-89433400D02*
X132913200Y-92068200D01*
X116482500Y-85090000D02*
X116482500Y-92663000D01*
X110981122Y-90610322D02*
X110981122Y-71898878D01*
X110981122Y-71898878D02*
X114300000Y-68580000D01*
D22*
X118922800Y-64566800D02*
X114909600Y-68580000D01*
D21*
X116509800Y-92784300D02*
X116509800Y-94615000D01*
X113748480Y-93408329D02*
X113748480Y-93377680D01*
X116435500Y-92710000D02*
X116509800Y-92784300D01*
X116459000Y-94564200D02*
X114904351Y-94564200D01*
X119684800Y-106112000D02*
X113334800Y-106112000D01*
X116509800Y-94615000D02*
X116459000Y-94564200D01*
D22*
X120929400Y-64566800D02*
X118922800Y-64566800D01*
G04 #@! TA.AperFunction,Conductor*
G36*
X129587971Y-86073302D02*
G01*
X129608945Y-86090205D01*
X131514883Y-87996143D01*
X131548909Y-88058455D01*
X131543844Y-88129270D01*
X131501297Y-88186106D01*
X131434777Y-88210917D01*
X131412946Y-88210582D01*
X131316763Y-88200728D01*
X131310345Y-88200400D01*
X131285315Y-88200400D01*
X131270076Y-88204875D01*
X131268871Y-88206265D01*
X131267200Y-88213948D01*
X131267200Y-90648284D01*
X131271675Y-90663523D01*
X131273065Y-90664728D01*
X131280748Y-90666399D01*
X131310295Y-90666399D01*
X131316814Y-90666062D01*
X131412406Y-90656143D01*
X131425800Y-90653251D01*
X131579984Y-90601812D01*
X131593162Y-90595639D01*
X131731007Y-90510337D01*
X131742408Y-90501301D01*
X131856938Y-90386572D01*
X131863994Y-90377638D01*
X131921912Y-90336577D01*
X131992835Y-90333347D01*
X132054246Y-90368974D01*
X132061046Y-90376807D01*
X132064722Y-90382748D01*
X132189897Y-90507705D01*
X132196128Y-90511546D01*
X132201873Y-90516083D01*
X132200823Y-90517413D01*
X132242308Y-90563507D01*
X132254700Y-90617997D01*
X132254700Y-91140500D01*
X132234698Y-91208621D01*
X132181042Y-91255114D01*
X132128700Y-91266500D01*
X131978498Y-91266500D01*
X131976050Y-91266693D01*
X131976042Y-91266693D01*
X131947579Y-91268933D01*
X131947574Y-91268934D01*
X131941169Y-91269438D01*
X131845263Y-91297301D01*
X131789012Y-91313643D01*
X131789010Y-91313644D01*
X131781399Y-91315855D01*
X131774572Y-91319892D01*
X131774573Y-91319892D01*
X131645020Y-91396509D01*
X131645017Y-91396511D01*
X131638193Y-91400547D01*
X131520547Y-91518193D01*
X131516511Y-91525017D01*
X131516509Y-91525020D01*
X131481656Y-91583954D01*
X131435855Y-91661399D01*
X131389438Y-91821169D01*
X131388934Y-91827574D01*
X131388933Y-91827579D01*
X131386693Y-91856042D01*
X131386500Y-91858498D01*
X131386500Y-92291502D01*
X131389438Y-92328831D01*
X131416683Y-92422609D01*
X131430488Y-92470126D01*
X131435855Y-92488601D01*
X131520547Y-92631807D01*
X131523229Y-92634489D01*
X131548502Y-92698861D01*
X131534600Y-92768484D01*
X131524428Y-92784312D01*
X131520547Y-92788193D01*
X131435855Y-92931399D01*
X131389438Y-93091169D01*
X131388934Y-93097574D01*
X131388933Y-93097579D01*
X131386693Y-93126042D01*
X131386500Y-93128498D01*
X131386500Y-93561502D01*
X131386693Y-93563950D01*
X131386693Y-93563958D01*
X131388239Y-93583595D01*
X131389438Y-93598831D01*
X131391233Y-93605008D01*
X131432351Y-93746539D01*
X131435855Y-93758601D01*
X131520547Y-93901807D01*
X131523229Y-93904489D01*
X131548502Y-93968861D01*
X131534600Y-94038484D01*
X131524428Y-94054312D01*
X131520547Y-94058193D01*
X131435855Y-94201399D01*
X131433644Y-94209010D01*
X131433643Y-94209012D01*
X131430538Y-94219699D01*
X131389438Y-94361169D01*
X131388934Y-94367574D01*
X131388933Y-94367579D01*
X131386693Y-94396042D01*
X131386500Y-94398498D01*
X131386500Y-94831502D01*
X131386693Y-94833950D01*
X131386693Y-94833958D01*
X131388607Y-94858268D01*
X131389438Y-94868831D01*
X131391232Y-94875007D01*
X131391233Y-94875011D01*
X131428557Y-95003483D01*
X131428354Y-95074479D01*
X131389800Y-95134095D01*
X131323353Y-95163641D01*
X131313201Y-95164924D01*
X131313197Y-95164925D01*
X131305336Y-95165918D01*
X131297971Y-95168834D01*
X131297967Y-95168835D01*
X131262382Y-95182924D01*
X131251152Y-95186769D01*
X131206799Y-95199655D01*
X131199975Y-95203691D01*
X131188343Y-95210570D01*
X131170587Y-95219269D01*
X131150644Y-95227165D01*
X131137724Y-95236552D01*
X131113268Y-95254320D01*
X131103349Y-95260835D01*
X131070423Y-95280308D01*
X131070419Y-95280311D01*
X131063593Y-95284348D01*
X131048432Y-95299509D01*
X131033400Y-95312348D01*
X131016043Y-95324959D01*
X131010990Y-95331067D01*
X130986594Y-95360557D01*
X130978604Y-95369337D01*
X129589596Y-96758345D01*
X129580813Y-96766337D01*
X129574120Y-96770584D01*
X129568694Y-96776362D01*
X129525595Y-96822258D01*
X129522840Y-96825100D01*
X129502273Y-96845667D01*
X129499556Y-96849170D01*
X129491848Y-96858195D01*
X129460228Y-96891867D01*
X129456407Y-96898818D01*
X129456406Y-96898819D01*
X129449897Y-96910658D01*
X129439043Y-96927182D01*
X129432171Y-96936042D01*
X129425896Y-96944132D01*
X129422749Y-96951404D01*
X129422748Y-96951406D01*
X129407546Y-96986535D01*
X129402324Y-96997195D01*
X129395233Y-97010094D01*
X129380076Y-97037663D01*
X129374741Y-97058441D01*
X129368342Y-97077131D01*
X129359820Y-97096824D01*
X129358580Y-97104655D01*
X129352594Y-97142448D01*
X129350187Y-97154071D01*
X129338700Y-97198812D01*
X129338700Y-97220259D01*
X129337149Y-97239969D01*
X129333794Y-97261152D01*
X129334540Y-97269043D01*
X129338141Y-97307138D01*
X129338700Y-97318996D01*
X129338700Y-107021241D01*
X129318698Y-107089362D01*
X129306336Y-107105551D01*
X129281208Y-107133459D01*
X129258160Y-107159056D01*
X129162673Y-107324444D01*
X129103658Y-107506072D01*
X129102968Y-107512633D01*
X129102968Y-107512635D01*
X129084386Y-107689435D01*
X129083696Y-107696000D01*
X129103658Y-107885928D01*
X129162673Y-108067556D01*
X129258160Y-108232944D01*
X129262578Y-108237851D01*
X129262579Y-108237852D01*
X129341113Y-108325073D01*
X129385947Y-108374866D01*
X129540448Y-108487118D01*
X129546476Y-108489802D01*
X129546478Y-108489803D01*
X129708881Y-108562109D01*
X129714912Y-108564794D01*
X129808313Y-108584647D01*
X129895256Y-108603128D01*
X129895261Y-108603128D01*
X129901713Y-108604500D01*
X130092687Y-108604500D01*
X130099139Y-108603128D01*
X130099144Y-108603128D01*
X130186088Y-108584647D01*
X130279488Y-108564794D01*
X130285519Y-108562109D01*
X130447922Y-108489803D01*
X130447924Y-108489802D01*
X130453952Y-108487118D01*
X130608453Y-108374866D01*
X130653287Y-108325073D01*
X130731821Y-108237852D01*
X130731822Y-108237851D01*
X130736240Y-108232944D01*
X130831727Y-108067556D01*
X130890742Y-107885928D01*
X130910704Y-107696000D01*
X130910014Y-107689435D01*
X130891432Y-107512635D01*
X130891432Y-107512633D01*
X130890742Y-107506072D01*
X130831727Y-107324444D01*
X130736240Y-107159056D01*
X130713193Y-107133459D01*
X130688064Y-107105551D01*
X130657346Y-107041544D01*
X130655700Y-107021241D01*
X130655700Y-97606950D01*
X130675702Y-97538829D01*
X130692605Y-97517855D01*
X131171405Y-97039055D01*
X131233717Y-97005029D01*
X131304532Y-97010094D01*
X131361368Y-97052641D01*
X131386179Y-97119161D01*
X131386500Y-97128150D01*
X131386500Y-97371502D01*
X131386693Y-97373950D01*
X131386693Y-97373958D01*
X131387222Y-97380671D01*
X131389438Y-97408831D01*
X131403032Y-97455621D01*
X131427206Y-97538829D01*
X131435855Y-97568601D01*
X131520547Y-97711807D01*
X131523229Y-97714489D01*
X131548502Y-97778861D01*
X131534600Y-97848484D01*
X131524428Y-97864312D01*
X131520547Y-97868193D01*
X131435855Y-98011399D01*
X131433644Y-98019010D01*
X131433643Y-98019012D01*
X131426306Y-98044268D01*
X131389438Y-98171169D01*
X131386500Y-98208498D01*
X131386500Y-98641502D01*
X131386693Y-98643950D01*
X131386693Y-98643958D01*
X131387828Y-98658373D01*
X131389438Y-98678831D01*
X131435855Y-98838601D01*
X131520547Y-98981807D01*
X131523229Y-98984489D01*
X131548502Y-99048861D01*
X131534600Y-99118484D01*
X131524428Y-99134312D01*
X131520547Y-99138193D01*
X131435855Y-99281399D01*
X131389438Y-99441169D01*
X131388934Y-99447574D01*
X131388933Y-99447579D01*
X131386693Y-99476042D01*
X131386500Y-99478498D01*
X131386500Y-99911502D01*
X131389438Y-99948831D01*
X131435855Y-100108601D01*
X131520547Y-100251807D01*
X131523229Y-100254489D01*
X131548502Y-100318861D01*
X131534600Y-100388484D01*
X131524428Y-100404312D01*
X131520547Y-100408193D01*
X131435855Y-100551399D01*
X131389438Y-100711169D01*
X131388934Y-100717574D01*
X131388933Y-100717579D01*
X131386771Y-100745055D01*
X131386500Y-100748498D01*
X131386500Y-101181502D01*
X131389438Y-101218831D01*
X131435855Y-101378601D01*
X131520547Y-101521807D01*
X131523229Y-101524489D01*
X131548502Y-101588861D01*
X131534600Y-101658484D01*
X131524428Y-101674312D01*
X131520547Y-101678193D01*
X131435855Y-101821399D01*
X131389438Y-101981169D01*
X131388934Y-101987574D01*
X131388933Y-101987579D01*
X131386693Y-102016042D01*
X131386500Y-102018498D01*
X131386500Y-102451502D01*
X131386693Y-102453950D01*
X131386693Y-102453958D01*
X131388582Y-102477950D01*
X131389438Y-102488831D01*
X131411895Y-102566128D01*
X131427461Y-102619707D01*
X131435855Y-102648601D01*
X131520547Y-102791807D01*
X131523229Y-102794489D01*
X131548502Y-102858861D01*
X131534600Y-102928484D01*
X131524428Y-102944312D01*
X131520547Y-102948193D01*
X131435855Y-103091399D01*
X131389438Y-103251169D01*
X131386500Y-103288498D01*
X131386500Y-103721502D01*
X131389438Y-103758831D01*
X131435855Y-103918601D01*
X131520547Y-104061807D01*
X131523229Y-104064489D01*
X131548502Y-104128861D01*
X131534600Y-104198484D01*
X131524428Y-104214312D01*
X131520547Y-104218193D01*
X131435855Y-104361399D01*
X131389438Y-104521169D01*
X131388934Y-104527574D01*
X131388933Y-104527579D01*
X131386693Y-104556042D01*
X131386500Y-104558498D01*
X131386500Y-104991502D01*
X131386693Y-104993950D01*
X131386693Y-104993958D01*
X131388436Y-105016098D01*
X131389438Y-105028831D01*
X131410606Y-105101692D01*
X131427461Y-105159707D01*
X131435855Y-105188601D01*
X131520547Y-105331807D01*
X131523229Y-105334489D01*
X131548502Y-105398861D01*
X131534600Y-105468484D01*
X131524428Y-105484312D01*
X131520547Y-105488193D01*
X131435855Y-105631399D01*
X131433644Y-105639010D01*
X131433643Y-105639012D01*
X131420718Y-105683500D01*
X131389438Y-105791169D01*
X131386500Y-105828498D01*
X131386500Y-106261502D01*
X131386693Y-106263950D01*
X131386693Y-106263958D01*
X131388317Y-106284583D01*
X131389438Y-106298831D01*
X131413029Y-106380031D01*
X131433586Y-106450790D01*
X131435855Y-106458601D01*
X131439892Y-106465427D01*
X131516509Y-106594980D01*
X131516511Y-106594983D01*
X131520547Y-106601807D01*
X131638193Y-106719453D01*
X131645017Y-106723489D01*
X131645020Y-106723491D01*
X131720357Y-106768045D01*
X131781399Y-106804145D01*
X131789010Y-106806356D01*
X131789012Y-106806357D01*
X131828400Y-106817800D01*
X131941169Y-106850562D01*
X131947574Y-106851066D01*
X131947579Y-106851067D01*
X131976042Y-106853307D01*
X131976050Y-106853307D01*
X131978498Y-106853500D01*
X133861502Y-106853500D01*
X133863950Y-106853307D01*
X133863958Y-106853307D01*
X133892421Y-106851067D01*
X133892426Y-106851066D01*
X133898831Y-106850562D01*
X134011600Y-106817800D01*
X134050988Y-106806357D01*
X134050990Y-106806356D01*
X134058601Y-106804145D01*
X134172267Y-106736923D01*
X134199112Y-106721047D01*
X134263251Y-106703500D01*
X137978050Y-106703500D01*
X138046171Y-106723502D01*
X138067145Y-106740405D01*
X138496595Y-107169855D01*
X138530621Y-107232167D01*
X138533500Y-107258950D01*
X138533500Y-112058944D01*
X138532941Y-112070800D01*
X138531212Y-112078537D01*
X138531461Y-112086459D01*
X138533438Y-112149369D01*
X138533500Y-112153327D01*
X138533500Y-112182432D01*
X138534056Y-112186832D01*
X138534988Y-112198664D01*
X138536438Y-112244831D01*
X138538650Y-112252444D01*
X138538650Y-112252445D01*
X138542419Y-112265416D01*
X138546430Y-112284782D01*
X138549118Y-112306064D01*
X138552034Y-112313429D01*
X138552035Y-112313433D01*
X138566126Y-112349021D01*
X138569965Y-112360231D01*
X138582855Y-112404600D01*
X138593775Y-112423065D01*
X138602466Y-112440805D01*
X138610365Y-112460756D01*
X138637516Y-112498126D01*
X138644033Y-112508048D01*
X138663507Y-112540977D01*
X138663510Y-112540981D01*
X138667547Y-112547807D01*
X138682711Y-112562971D01*
X138695551Y-112578004D01*
X138708159Y-112595357D01*
X138743752Y-112624802D01*
X138752532Y-112632792D01*
X144831917Y-118712177D01*
X144839907Y-118720957D01*
X144844156Y-118727652D01*
X144849934Y-118733078D01*
X144849935Y-118733079D01*
X144895829Y-118776176D01*
X144898671Y-118778931D01*
X144919239Y-118799499D01*
X144922742Y-118802216D01*
X144931767Y-118809924D01*
X144965439Y-118841544D01*
X144972390Y-118845365D01*
X144972391Y-118845366D01*
X144984230Y-118851875D01*
X145000754Y-118862729D01*
X145010843Y-118870554D01*
X145017704Y-118875876D01*
X145024976Y-118879023D01*
X145024978Y-118879024D01*
X145060107Y-118894226D01*
X145070767Y-118899448D01*
X145100740Y-118915926D01*
X145111235Y-118921696D01*
X145132013Y-118927031D01*
X145150703Y-118933430D01*
X145170396Y-118941952D01*
X145205135Y-118947454D01*
X145216020Y-118949178D01*
X145227643Y-118951585D01*
X145252326Y-118957922D01*
X145272384Y-118963072D01*
X145293831Y-118963072D01*
X145313541Y-118964623D01*
X145334724Y-118967978D01*
X145380713Y-118963631D01*
X145392568Y-118963072D01*
X152750279Y-118963072D01*
X152762135Y-118963631D01*
X152762138Y-118963631D01*
X152769872Y-118965360D01*
X152840704Y-118963134D01*
X152844662Y-118963072D01*
X152873767Y-118963072D01*
X152878167Y-118962516D01*
X152889999Y-118961584D01*
X152936166Y-118960134D01*
X152956756Y-118954152D01*
X152976117Y-118950142D01*
X152983751Y-118949178D01*
X152989539Y-118948447D01*
X152989540Y-118948447D01*
X152997399Y-118947454D01*
X153004764Y-118944538D01*
X153004768Y-118944537D01*
X153040356Y-118930446D01*
X153051566Y-118926607D01*
X153095935Y-118913717D01*
X153114400Y-118902797D01*
X153132140Y-118894106D01*
X153152091Y-118886207D01*
X153189464Y-118859054D01*
X153199383Y-118852539D01*
X153232312Y-118833065D01*
X153232316Y-118833062D01*
X153239142Y-118829025D01*
X153254306Y-118813861D01*
X153269340Y-118801020D01*
X153286692Y-118788413D01*
X153316138Y-118752819D01*
X153324127Y-118744040D01*
X155226584Y-116841583D01*
X155288896Y-116807557D01*
X155359711Y-116812622D01*
X155416547Y-116855169D01*
X155441518Y-116924302D01*
X155454792Y-117186340D01*
X155455329Y-117189695D01*
X155455330Y-117189701D01*
X155460316Y-117220828D01*
X155511470Y-117540195D01*
X155606033Y-117885859D01*
X155737374Y-118219288D01*
X155903957Y-118536582D01*
X155905858Y-118539411D01*
X155905864Y-118539421D01*
X156069076Y-118782304D01*
X156103834Y-118834029D01*
X156334665Y-119108150D01*
X156593751Y-119355738D01*
X156878061Y-119573897D01*
X156910056Y-119593350D01*
X157181355Y-119758303D01*
X157181360Y-119758306D01*
X157184270Y-119760075D01*
X157187358Y-119761521D01*
X157187357Y-119761521D01*
X157485958Y-119901396D01*
X157539161Y-119948406D01*
X157558503Y-120016717D01*
X157537843Y-120084641D01*
X157483740Y-120130613D01*
X157432509Y-120141498D01*
X136597644Y-120141498D01*
X115614058Y-120141497D01*
X115545937Y-120121495D01*
X115499444Y-120067839D01*
X115489340Y-119997565D01*
X115518834Y-119932985D01*
X115561807Y-119900842D01*
X115831954Y-119777729D01*
X115835066Y-119776311D01*
X115929052Y-119720506D01*
X116140262Y-119595099D01*
X116140267Y-119595096D01*
X116143207Y-119593350D01*
X116429786Y-119378180D01*
X116691451Y-119133319D01*
X116925140Y-118861630D01*
X117031750Y-118706512D01*
X117126190Y-118569101D01*
X117126195Y-118569094D01*
X117128120Y-118566292D01*
X117129732Y-118563298D01*
X117129737Y-118563290D01*
X117296395Y-118253772D01*
X117298017Y-118250760D01*
X117432842Y-117918724D01*
X117443142Y-117882568D01*
X117513844Y-117634366D01*
X117531020Y-117574070D01*
X117591401Y-117220828D01*
X117593511Y-117186340D01*
X117611607Y-116890453D01*
X117613278Y-116863131D01*
X117613359Y-116840000D01*
X117593979Y-116482159D01*
X117536066Y-116128505D01*
X117440297Y-115783173D01*
X117439021Y-115779965D01*
X117309052Y-115453369D01*
X117307793Y-115450205D01*
X117196420Y-115239858D01*
X117141702Y-115136513D01*
X117141698Y-115136506D01*
X117140103Y-115133494D01*
X116939190Y-114836746D01*
X116707403Y-114563432D01*
X116447454Y-114316750D01*
X116201665Y-114129509D01*
X116165091Y-114101647D01*
X116165089Y-114101646D01*
X116162384Y-114099585D01*
X116159472Y-114097828D01*
X116159467Y-114097825D01*
X115858443Y-113916236D01*
X115858437Y-113916233D01*
X115855528Y-113914478D01*
X115530475Y-113763593D01*
X115309732Y-113688876D01*
X115194255Y-113649789D01*
X115194250Y-113649788D01*
X115191028Y-113648697D01*
X114922418Y-113589147D01*
X114844493Y-113571871D01*
X114844487Y-113571870D01*
X114841158Y-113571132D01*
X114837769Y-113570758D01*
X114837764Y-113570757D01*
X114488338Y-113532180D01*
X114488333Y-113532180D01*
X114484957Y-113531807D01*
X114481558Y-113531801D01*
X114481557Y-113531801D01*
X114312080Y-113531505D01*
X114126592Y-113531182D01*
X114013413Y-113543277D01*
X113773639Y-113568901D01*
X113773631Y-113568902D01*
X113770256Y-113569263D01*
X113420117Y-113645606D01*
X113080271Y-113759317D01*
X113077178Y-113760739D01*
X113077177Y-113760740D01*
X112895090Y-113844491D01*
X112754694Y-113909066D01*
X112751760Y-113910822D01*
X112751758Y-113910823D01*
X112476001Y-114075860D01*
X112447193Y-114093101D01*
X112444467Y-114095163D01*
X112444465Y-114095164D01*
X112273843Y-114224205D01*
X112161367Y-114309270D01*
X111900559Y-114555043D01*
X111667819Y-114827546D01*
X111665900Y-114830358D01*
X111665897Y-114830363D01*
X111640683Y-114867326D01*
X111465871Y-115123591D01*
X111297077Y-115439714D01*
X111295806Y-115442875D01*
X111295803Y-115442882D01*
X111241404Y-115578204D01*
X111197438Y-115633949D01*
X111130313Y-115657074D01*
X111061341Y-115640237D01*
X111012421Y-115588785D01*
X110998497Y-115531208D01*
X110998497Y-109256669D01*
X112076801Y-109256669D01*
X112077171Y-109263490D01*
X112082695Y-109314352D01*
X112086321Y-109329604D01*
X112131476Y-109450054D01*
X112140014Y-109465649D01*
X112216515Y-109567724D01*
X112229076Y-109580285D01*
X112331151Y-109656786D01*
X112346746Y-109665324D01*
X112467194Y-109710478D01*
X112482449Y-109714105D01*
X112533314Y-109719631D01*
X112540128Y-109720000D01*
X113062685Y-109720000D01*
X113077924Y-109715525D01*
X113079129Y-109714135D01*
X113080800Y-109706452D01*
X113080800Y-109701884D01*
X113588800Y-109701884D01*
X113593275Y-109717123D01*
X113594665Y-109718328D01*
X113602348Y-109719999D01*
X114129469Y-109719999D01*
X114136290Y-109719629D01*
X114187152Y-109714105D01*
X114202404Y-109710479D01*
X114322854Y-109665324D01*
X114338449Y-109656786D01*
X114440524Y-109580285D01*
X114453085Y-109567724D01*
X114529586Y-109465649D01*
X114538124Y-109450054D01*
X114583278Y-109329606D01*
X114586905Y-109314351D01*
X114592431Y-109263486D01*
X114592800Y-109256672D01*
X114592800Y-109256669D01*
X115251801Y-109256669D01*
X115252171Y-109263490D01*
X115257695Y-109314352D01*
X115261321Y-109329604D01*
X115306476Y-109450054D01*
X115315014Y-109465649D01*
X115391515Y-109567724D01*
X115404076Y-109580285D01*
X115506151Y-109656786D01*
X115521746Y-109665324D01*
X115642194Y-109710478D01*
X115657449Y-109714105D01*
X115708314Y-109719631D01*
X115715128Y-109720000D01*
X116237685Y-109720000D01*
X116252924Y-109715525D01*
X116254129Y-109714135D01*
X116255800Y-109706452D01*
X116255800Y-109701884D01*
X116763800Y-109701884D01*
X116768275Y-109717123D01*
X116769665Y-109718328D01*
X116777348Y-109719999D01*
X117304469Y-109719999D01*
X117311290Y-109719629D01*
X117362152Y-109714105D01*
X117377404Y-109710479D01*
X117497854Y-109665324D01*
X117513449Y-109656786D01*
X117615524Y-109580285D01*
X117628085Y-109567724D01*
X117704586Y-109465649D01*
X117713124Y-109450054D01*
X117758278Y-109329606D01*
X117761905Y-109314351D01*
X117767431Y-109263486D01*
X117767800Y-109256672D01*
X117767800Y-109256669D01*
X118426801Y-109256669D01*
X118427171Y-109263490D01*
X118432695Y-109314352D01*
X118436321Y-109329604D01*
X118481476Y-109450054D01*
X118490014Y-109465649D01*
X118566515Y-109567724D01*
X118579076Y-109580285D01*
X118681151Y-109656786D01*
X118696746Y-109665324D01*
X118817194Y-109710478D01*
X118832449Y-109714105D01*
X118883314Y-109719631D01*
X118890128Y-109720000D01*
X119412685Y-109720000D01*
X119427924Y-109715525D01*
X119429129Y-109714135D01*
X119430800Y-109706452D01*
X119430800Y-109701884D01*
X119938800Y-109701884D01*
X119943275Y-109717123D01*
X119944665Y-109718328D01*
X119952348Y-109719999D01*
X120479469Y-109719999D01*
X120486290Y-109719629D01*
X120537152Y-109714105D01*
X120552404Y-109710479D01*
X120672854Y-109665324D01*
X120688449Y-109656786D01*
X120790524Y-109580285D01*
X120803085Y-109567724D01*
X120879586Y-109465649D01*
X120888124Y-109450054D01*
X120933278Y-109329606D01*
X120936905Y-109314351D01*
X120942431Y-109263486D01*
X120942800Y-109256672D01*
X120942800Y-108984115D01*
X120938325Y-108968876D01*
X120936935Y-108967671D01*
X120929252Y-108966000D01*
X119956915Y-108966000D01*
X119941676Y-108970475D01*
X119940471Y-108971865D01*
X119938800Y-108979548D01*
X119938800Y-109701884D01*
X119430800Y-109701884D01*
X119430800Y-108984115D01*
X119426325Y-108968876D01*
X119424935Y-108967671D01*
X119417252Y-108966000D01*
X118444916Y-108966000D01*
X118429677Y-108970475D01*
X118428472Y-108971865D01*
X118426801Y-108979548D01*
X118426801Y-109256669D01*
X117767800Y-109256669D01*
X117767800Y-108984115D01*
X117763325Y-108968876D01*
X117761935Y-108967671D01*
X117754252Y-108966000D01*
X116781915Y-108966000D01*
X116766676Y-108970475D01*
X116765471Y-108971865D01*
X116763800Y-108979548D01*
X116763800Y-109701884D01*
X116255800Y-109701884D01*
X116255800Y-108984115D01*
X116251325Y-108968876D01*
X116249935Y-108967671D01*
X116242252Y-108966000D01*
X115269916Y-108966000D01*
X115254677Y-108970475D01*
X115253472Y-108971865D01*
X115251801Y-108979548D01*
X115251801Y-109256669D01*
X114592800Y-109256669D01*
X114592800Y-108984115D01*
X114588325Y-108968876D01*
X114586935Y-108967671D01*
X114579252Y-108966000D01*
X113606915Y-108966000D01*
X113591676Y-108970475D01*
X113590471Y-108971865D01*
X113588800Y-108979548D01*
X113588800Y-109701884D01*
X113080800Y-109701884D01*
X113080800Y-108984115D01*
X113076325Y-108968876D01*
X113074935Y-108967671D01*
X113067252Y-108966000D01*
X112094916Y-108966000D01*
X112079677Y-108970475D01*
X112078472Y-108971865D01*
X112076801Y-108979548D01*
X112076801Y-109256669D01*
X110998497Y-109256669D01*
X110998497Y-106061747D01*
X111018499Y-105993626D01*
X111072155Y-105947133D01*
X111142429Y-105937029D01*
X111207009Y-105966523D01*
X111213592Y-105972652D01*
X111760545Y-106519605D01*
X111768535Y-106528385D01*
X111772784Y-106535080D01*
X111778562Y-106540506D01*
X111778563Y-106540507D01*
X111824457Y-106583604D01*
X111827299Y-106586359D01*
X111847867Y-106606927D01*
X111851370Y-106609644D01*
X111860395Y-106617352D01*
X111894067Y-106648972D01*
X111901018Y-106652793D01*
X111901019Y-106652794D01*
X111912858Y-106659303D01*
X111929382Y-106670157D01*
X111939471Y-106677982D01*
X111946332Y-106683304D01*
X111953604Y-106686451D01*
X111953606Y-106686452D01*
X111988735Y-106701654D01*
X111999394Y-106706876D01*
X112014421Y-106715137D01*
X112064480Y-106765482D01*
X112078984Y-106839160D01*
X112076300Y-106863866D01*
X112076300Y-107960134D01*
X112083055Y-108022316D01*
X112085829Y-108029716D01*
X112086834Y-108033942D01*
X112086834Y-108092239D01*
X112082695Y-108109646D01*
X112077169Y-108160514D01*
X112076800Y-108167328D01*
X112076800Y-108439885D01*
X112081275Y-108455124D01*
X112082665Y-108456329D01*
X112090348Y-108458000D01*
X114574684Y-108458000D01*
X114589923Y-108453525D01*
X114591128Y-108452135D01*
X114595678Y-108431217D01*
X114599165Y-108431976D01*
X114612801Y-108385536D01*
X114666457Y-108339043D01*
X114736731Y-108328939D01*
X114744996Y-108330410D01*
X114833056Y-108349128D01*
X114833061Y-108349128D01*
X114839513Y-108350500D01*
X115030487Y-108350500D01*
X115036939Y-108349128D01*
X115036944Y-108349128D01*
X115099895Y-108335747D01*
X115170686Y-108341149D01*
X115227319Y-108383966D01*
X115246988Y-108423496D01*
X115256275Y-108455124D01*
X115257665Y-108456329D01*
X115265348Y-108458000D01*
X117749684Y-108458000D01*
X117764923Y-108453525D01*
X117766128Y-108452135D01*
X117767799Y-108444452D01*
X117767799Y-108402857D01*
X117787801Y-108334736D01*
X117841457Y-108288243D01*
X117911731Y-108278139D01*
X117919996Y-108279610D01*
X118008056Y-108298328D01*
X118008061Y-108298328D01*
X118014513Y-108299700D01*
X118205487Y-108299700D01*
X118211939Y-108298328D01*
X118211944Y-108298328D01*
X118274603Y-108285009D01*
X118345394Y-108290411D01*
X118402027Y-108333228D01*
X118426520Y-108399866D01*
X118426800Y-108408256D01*
X118426800Y-108439885D01*
X118431275Y-108455124D01*
X118432665Y-108456329D01*
X118440348Y-108458000D01*
X120924684Y-108458000D01*
X120939923Y-108453525D01*
X120941128Y-108452135D01*
X120945678Y-108431217D01*
X120949165Y-108431976D01*
X120962801Y-108385536D01*
X121016457Y-108339043D01*
X121086731Y-108328939D01*
X121094996Y-108330410D01*
X121183056Y-108349128D01*
X121183061Y-108349128D01*
X121189513Y-108350500D01*
X121380487Y-108350500D01*
X121386939Y-108349128D01*
X121386944Y-108349128D01*
X121481923Y-108328939D01*
X121567288Y-108310794D01*
X121592206Y-108299700D01*
X121735722Y-108235803D01*
X121735724Y-108235802D01*
X121741752Y-108233118D01*
X121747470Y-108228964D01*
X121844172Y-108158705D01*
X121896253Y-108120866D01*
X121922029Y-108092239D01*
X122019621Y-107983852D01*
X122019622Y-107983851D01*
X122024040Y-107978944D01*
X122119527Y-107813556D01*
X122178542Y-107631928D01*
X122183162Y-107587977D01*
X122197814Y-107448565D01*
X122198504Y-107442000D01*
X122194252Y-107401542D01*
X122179232Y-107258635D01*
X122179232Y-107258633D01*
X122178542Y-107252072D01*
X122119527Y-107070444D01*
X122024040Y-106905056D01*
X121986953Y-106863866D01*
X121900675Y-106768045D01*
X121900674Y-106768044D01*
X121896253Y-106763134D01*
X121784303Y-106681797D01*
X121747094Y-106654763D01*
X121747093Y-106654762D01*
X121741752Y-106650882D01*
X121735724Y-106648198D01*
X121735722Y-106648197D01*
X121573319Y-106575891D01*
X121573318Y-106575891D01*
X121567288Y-106573206D01*
X121449090Y-106548082D01*
X121386944Y-106534872D01*
X121386939Y-106534872D01*
X121380487Y-106533500D01*
X121189513Y-106533500D01*
X121183061Y-106534872D01*
X121183056Y-106534872D01*
X121120910Y-106548082D01*
X121095496Y-106553484D01*
X121024706Y-106548082D01*
X120968074Y-106505265D01*
X120943580Y-106438628D01*
X120943300Y-106430237D01*
X120943300Y-106310871D01*
X122093456Y-106310871D01*
X122134107Y-106450790D01*
X122140352Y-106465221D01*
X122216911Y-106594678D01*
X122226551Y-106607104D01*
X122332896Y-106713449D01*
X122345322Y-106723089D01*
X122474779Y-106799648D01*
X122489210Y-106805893D01*
X122635065Y-106848269D01*
X122647667Y-106850570D01*
X122676084Y-106852807D01*
X122681014Y-106853000D01*
X123347885Y-106853000D01*
X123363124Y-106848525D01*
X123364329Y-106847135D01*
X123366000Y-106839452D01*
X123366000Y-106834884D01*
X123874000Y-106834884D01*
X123878475Y-106850123D01*
X123879865Y-106851328D01*
X123887548Y-106852999D01*
X124558984Y-106852999D01*
X124563920Y-106852805D01*
X124592336Y-106850570D01*
X124604931Y-106848270D01*
X124750790Y-106805893D01*
X124765221Y-106799648D01*
X124894678Y-106723089D01*
X124907104Y-106713449D01*
X125013449Y-106607104D01*
X125023089Y-106594678D01*
X125099648Y-106465221D01*
X125105893Y-106450790D01*
X125144939Y-106316395D01*
X125144899Y-106302294D01*
X125137630Y-106299000D01*
X123892115Y-106299000D01*
X123876876Y-106303475D01*
X123875671Y-106304865D01*
X123874000Y-106312548D01*
X123874000Y-106834884D01*
X123366000Y-106834884D01*
X123366000Y-106317115D01*
X123361525Y-106301876D01*
X123360135Y-106300671D01*
X123352452Y-106299000D01*
X122108122Y-106299000D01*
X122094591Y-106302973D01*
X122093456Y-106310871D01*
X120943300Y-106310871D01*
X120943300Y-105563866D01*
X120936545Y-105501684D01*
X120885415Y-105365295D01*
X120798061Y-105248739D01*
X120681505Y-105161385D01*
X120545116Y-105110255D01*
X120482934Y-105103500D01*
X118886666Y-105103500D01*
X118824484Y-105110255D01*
X118688095Y-105161385D01*
X118571539Y-105248739D01*
X118484185Y-105365295D01*
X118481033Y-105373703D01*
X118476723Y-105381575D01*
X118475059Y-105380664D01*
X118439137Y-105428490D01*
X118372576Y-105453193D01*
X118363791Y-105453500D01*
X117830809Y-105453500D01*
X117762688Y-105433498D01*
X117716195Y-105379842D01*
X117713897Y-105374306D01*
X117713567Y-105373703D01*
X117710415Y-105365295D01*
X117623061Y-105248739D01*
X117506505Y-105161385D01*
X117370116Y-105110255D01*
X117307934Y-105103500D01*
X115711666Y-105103500D01*
X115649484Y-105110255D01*
X115513095Y-105161385D01*
X115396539Y-105248739D01*
X115309185Y-105365295D01*
X115306033Y-105373703D01*
X115301723Y-105381575D01*
X115300059Y-105380664D01*
X115264137Y-105428490D01*
X115197576Y-105453193D01*
X115188791Y-105453500D01*
X114655809Y-105453500D01*
X114587688Y-105433498D01*
X114541195Y-105379842D01*
X114538897Y-105374306D01*
X114538567Y-105373703D01*
X114535415Y-105365295D01*
X114448061Y-105248739D01*
X114331505Y-105161385D01*
X114195116Y-105110255D01*
X114132934Y-105103500D01*
X112536666Y-105103500D01*
X112474484Y-105110255D01*
X112467088Y-105113027D01*
X112467082Y-105113029D01*
X112410929Y-105134080D01*
X112340122Y-105139263D01*
X112277753Y-105105342D01*
X112243624Y-105043086D01*
X112240700Y-105016098D01*
X112240700Y-102217368D01*
X112260702Y-102149247D01*
X112314358Y-102102754D01*
X112384632Y-102092650D01*
X112410929Y-102099386D01*
X112467191Y-102120478D01*
X112482449Y-102124105D01*
X112533314Y-102129631D01*
X112540128Y-102130000D01*
X113062685Y-102130000D01*
X113077924Y-102125525D01*
X113079129Y-102124135D01*
X113080800Y-102116452D01*
X113080800Y-102111884D01*
X113588800Y-102111884D01*
X113593275Y-102127123D01*
X113594665Y-102128328D01*
X113602348Y-102129999D01*
X114129469Y-102129999D01*
X114136290Y-102129629D01*
X114187152Y-102124105D01*
X114202404Y-102120479D01*
X114322854Y-102075324D01*
X114338449Y-102066786D01*
X114440524Y-101990285D01*
X114453085Y-101977724D01*
X114529586Y-101875649D01*
X114538124Y-101860054D01*
X114583278Y-101739606D01*
X114586905Y-101724351D01*
X114592431Y-101673486D01*
X114592800Y-101666672D01*
X114592800Y-101666669D01*
X115251801Y-101666669D01*
X115252171Y-101673490D01*
X115257695Y-101724352D01*
X115261321Y-101739604D01*
X115306476Y-101860054D01*
X115315014Y-101875649D01*
X115391515Y-101977724D01*
X115404076Y-101990285D01*
X115506151Y-102066786D01*
X115521746Y-102075324D01*
X115642194Y-102120478D01*
X115657449Y-102124105D01*
X115708314Y-102129631D01*
X115715128Y-102130000D01*
X116237685Y-102130000D01*
X116252924Y-102125525D01*
X116254129Y-102124135D01*
X116255800Y-102116452D01*
X116255800Y-102111884D01*
X116763800Y-102111884D01*
X116768275Y-102127123D01*
X116769665Y-102128328D01*
X116777348Y-102129999D01*
X117304469Y-102129999D01*
X117311290Y-102129629D01*
X117362152Y-102124105D01*
X117377404Y-102120479D01*
X117497854Y-102075324D01*
X117513449Y-102066786D01*
X117615524Y-101990285D01*
X117628085Y-101977724D01*
X117704586Y-101875649D01*
X117713124Y-101860054D01*
X117758278Y-101739606D01*
X117761905Y-101724351D01*
X117767431Y-101673486D01*
X117767800Y-101666672D01*
X117767800Y-101666669D01*
X118426801Y-101666669D01*
X118427171Y-101673490D01*
X118432695Y-101724352D01*
X118436321Y-101739604D01*
X118481476Y-101860054D01*
X118490014Y-101875649D01*
X118566515Y-101977724D01*
X118579076Y-101990285D01*
X118681151Y-102066786D01*
X118696746Y-102075324D01*
X118817194Y-102120478D01*
X118832449Y-102124105D01*
X118883314Y-102129631D01*
X118890128Y-102130000D01*
X119412685Y-102130000D01*
X119427924Y-102125525D01*
X119429129Y-102124135D01*
X119430800Y-102116452D01*
X119430800Y-102111884D01*
X119938800Y-102111884D01*
X119943275Y-102127123D01*
X119944665Y-102128328D01*
X119952348Y-102129999D01*
X120479469Y-102129999D01*
X120486290Y-102129629D01*
X120537152Y-102124105D01*
X120552404Y-102120479D01*
X120672854Y-102075324D01*
X120688449Y-102066786D01*
X120790524Y-101990285D01*
X120803085Y-101977724D01*
X120879586Y-101875649D01*
X120888124Y-101860054D01*
X120933278Y-101739606D01*
X120936905Y-101724351D01*
X120942431Y-101673486D01*
X120942800Y-101666672D01*
X120942800Y-101394115D01*
X120938325Y-101378876D01*
X120936935Y-101377671D01*
X120929252Y-101376000D01*
X119956915Y-101376000D01*
X119941676Y-101380475D01*
X119940471Y-101381865D01*
X119938800Y-101389548D01*
X119938800Y-102111884D01*
X119430800Y-102111884D01*
X119430800Y-101394115D01*
X119426325Y-101378876D01*
X119424935Y-101377671D01*
X119417252Y-101376000D01*
X118444916Y-101376000D01*
X118429677Y-101380475D01*
X118428472Y-101381865D01*
X118426801Y-101389548D01*
X118426801Y-101666669D01*
X117767800Y-101666669D01*
X117767800Y-101394115D01*
X117763325Y-101378876D01*
X117761935Y-101377671D01*
X117754252Y-101376000D01*
X116781915Y-101376000D01*
X116766676Y-101380475D01*
X116765471Y-101381865D01*
X116763800Y-101389548D01*
X116763800Y-102111884D01*
X116255800Y-102111884D01*
X116255800Y-101394115D01*
X116251325Y-101378876D01*
X116249935Y-101377671D01*
X116242252Y-101376000D01*
X115269916Y-101376000D01*
X115254677Y-101380475D01*
X115253472Y-101381865D01*
X115251801Y-101389548D01*
X115251801Y-101666669D01*
X114592800Y-101666669D01*
X114592800Y-101394115D01*
X114588325Y-101378876D01*
X114586935Y-101377671D01*
X114579252Y-101376000D01*
X113606915Y-101376000D01*
X113591676Y-101380475D01*
X113590471Y-101381865D01*
X113588800Y-101389548D01*
X113588800Y-102111884D01*
X113080800Y-102111884D01*
X113080800Y-100994000D01*
X113100802Y-100925879D01*
X113154458Y-100879386D01*
X113206800Y-100868000D01*
X114574684Y-100868000D01*
X114589923Y-100863525D01*
X114591128Y-100862135D01*
X114592799Y-100854452D01*
X114592799Y-100833657D01*
X114612801Y-100765536D01*
X114666457Y-100719043D01*
X114736731Y-100708939D01*
X114744996Y-100710410D01*
X114833056Y-100729128D01*
X114833061Y-100729128D01*
X114839513Y-100730500D01*
X115030487Y-100730500D01*
X115036939Y-100729128D01*
X115036944Y-100729128D01*
X115099603Y-100715809D01*
X115170394Y-100721211D01*
X115227027Y-100764028D01*
X115251520Y-100830666D01*
X115251800Y-100839056D01*
X115251800Y-100849885D01*
X115256275Y-100865124D01*
X115257665Y-100866329D01*
X115265348Y-100868000D01*
X117749684Y-100868000D01*
X117764923Y-100863525D01*
X117766128Y-100862135D01*
X117767799Y-100854452D01*
X117767799Y-100833657D01*
X117787801Y-100765536D01*
X117841457Y-100719043D01*
X117911731Y-100708939D01*
X117919996Y-100710410D01*
X118008056Y-100729128D01*
X118008061Y-100729128D01*
X118014513Y-100730500D01*
X118205487Y-100730500D01*
X118211939Y-100729128D01*
X118211944Y-100729128D01*
X118274603Y-100715809D01*
X118345394Y-100721211D01*
X118402027Y-100764028D01*
X118426520Y-100830666D01*
X118426800Y-100839056D01*
X118426800Y-100849885D01*
X118431275Y-100865124D01*
X118432665Y-100866329D01*
X118440348Y-100868000D01*
X120924684Y-100868000D01*
X120939923Y-100863525D01*
X120941128Y-100862135D01*
X120942799Y-100854452D01*
X120942799Y-100745055D01*
X120962801Y-100676934D01*
X121016457Y-100630441D01*
X121086731Y-100620337D01*
X121120047Y-100629948D01*
X121250677Y-100688108D01*
X121250685Y-100688111D01*
X121256712Y-100690794D01*
X121342077Y-100708939D01*
X121437056Y-100729128D01*
X121437061Y-100729128D01*
X121443513Y-100730500D01*
X121634487Y-100730500D01*
X121640939Y-100729128D01*
X121640944Y-100729128D01*
X121735923Y-100708939D01*
X121821288Y-100690794D01*
X121827315Y-100688111D01*
X121827323Y-100688108D01*
X121909252Y-100651631D01*
X121979619Y-100642197D01*
X122043916Y-100672304D01*
X122081729Y-100732393D01*
X122086500Y-100766738D01*
X122086500Y-101181502D01*
X122089438Y-101218831D01*
X122135855Y-101378601D01*
X122220547Y-101521807D01*
X122223229Y-101524489D01*
X122248502Y-101588861D01*
X122234600Y-101658484D01*
X122224428Y-101674312D01*
X122220547Y-101678193D01*
X122135855Y-101821399D01*
X122089438Y-101981169D01*
X122088934Y-101987574D01*
X122088933Y-101987579D01*
X122086693Y-102016042D01*
X122086500Y-102018498D01*
X122086500Y-102451502D01*
X122086693Y-102453950D01*
X122086693Y-102453958D01*
X122088582Y-102477950D01*
X122089438Y-102488831D01*
X122111895Y-102566128D01*
X122127461Y-102619707D01*
X122135855Y-102648601D01*
X122220547Y-102791807D01*
X122223229Y-102794489D01*
X122248502Y-102858861D01*
X122234600Y-102928484D01*
X122224428Y-102944312D01*
X122220547Y-102948193D01*
X122135855Y-103091399D01*
X122089438Y-103251169D01*
X122086500Y-103288498D01*
X122086500Y-103721502D01*
X122089438Y-103758831D01*
X122135855Y-103918601D01*
X122220547Y-104061807D01*
X122223229Y-104064489D01*
X122248502Y-104128861D01*
X122234600Y-104198484D01*
X122224428Y-104214312D01*
X122220547Y-104218193D01*
X122135855Y-104361399D01*
X122089438Y-104521169D01*
X122088934Y-104527574D01*
X122088933Y-104527579D01*
X122086693Y-104556042D01*
X122086500Y-104558498D01*
X122086500Y-104991502D01*
X122086693Y-104993950D01*
X122086693Y-104993958D01*
X122088436Y-105016098D01*
X122089438Y-105028831D01*
X122110606Y-105101692D01*
X122127461Y-105159707D01*
X122135855Y-105188601D01*
X122220547Y-105331807D01*
X122223487Y-105334747D01*
X122248820Y-105399266D01*
X122234921Y-105468889D01*
X122222874Y-105487636D01*
X122216910Y-105495324D01*
X122140352Y-105624779D01*
X122134107Y-105639210D01*
X122095061Y-105773605D01*
X122095101Y-105787706D01*
X122102370Y-105791000D01*
X125131878Y-105791000D01*
X125147049Y-105786545D01*
X125174249Y-105726987D01*
X125233976Y-105688604D01*
X125269473Y-105683500D01*
X125404300Y-105683500D01*
X125472421Y-105703502D01*
X125518914Y-105757158D01*
X125530300Y-105809500D01*
X125530300Y-109922729D01*
X125510298Y-109990850D01*
X125493395Y-110011824D01*
X122235823Y-113269396D01*
X122173511Y-113303422D01*
X122146728Y-113306301D01*
X121769370Y-113306301D01*
X121664471Y-113317184D01*
X121657940Y-113319363D01*
X121657935Y-113319364D01*
X121509789Y-113368790D01*
X121498074Y-113372698D01*
X121348911Y-113465003D01*
X121224983Y-113589147D01*
X121132939Y-113738471D01*
X121130634Y-113745419D01*
X121130634Y-113745420D01*
X121099695Y-113838699D01*
X121077715Y-113904965D01*
X121067100Y-114008569D01*
X121067101Y-114596030D01*
X121077984Y-114700929D01*
X121080163Y-114707460D01*
X121080164Y-114707465D01*
X121093341Y-114746961D01*
X121133498Y-114867326D01*
X121225803Y-115016489D01*
X121349947Y-115140417D01*
X121352870Y-115142219D01*
X121393008Y-115198829D01*
X121396242Y-115269752D01*
X121360618Y-115331164D01*
X121354222Y-115336716D01*
X121348911Y-115340003D01*
X121224983Y-115464147D01*
X121132939Y-115613471D01*
X121130634Y-115620419D01*
X121130634Y-115620420D01*
X121080285Y-115772218D01*
X121077715Y-115779965D01*
X121067100Y-115883569D01*
X121067101Y-116471030D01*
X121077984Y-116575929D01*
X121080163Y-116582460D01*
X121080164Y-116582465D01*
X121116242Y-116690603D01*
X121133498Y-116742326D01*
X121225803Y-116891489D01*
X121349947Y-117015417D01*
X121499271Y-117107461D01*
X121506219Y-117109766D01*
X121506220Y-117109766D01*
X121659234Y-117160519D01*
X121659236Y-117160519D01*
X121665765Y-117162685D01*
X121769369Y-117173300D01*
X122271696Y-117173300D01*
X122781830Y-117173299D01*
X122886729Y-117162416D01*
X122893260Y-117160237D01*
X122893265Y-117160236D01*
X123046178Y-117109220D01*
X123053126Y-117106902D01*
X123202289Y-117014597D01*
X123326217Y-116890453D01*
X123344309Y-116861103D01*
X123413682Y-116748557D01*
X123418261Y-116741129D01*
X123426815Y-116715340D01*
X123467246Y-116656980D01*
X123532811Y-116629744D01*
X123602692Y-116642278D01*
X123654704Y-116690603D01*
X123665932Y-116715133D01*
X123672187Y-116733882D01*
X123678361Y-116747062D01*
X123763663Y-116884907D01*
X123772699Y-116896308D01*
X123887429Y-117010839D01*
X123898840Y-117019851D01*
X124036843Y-117104916D01*
X124050024Y-117111063D01*
X124204310Y-117162238D01*
X124217686Y-117165105D01*
X124312038Y-117174772D01*
X124318454Y-117175100D01*
X124543485Y-117175100D01*
X124558724Y-117170625D01*
X124559929Y-117169235D01*
X124561600Y-117161552D01*
X124561600Y-117156984D01*
X125069600Y-117156984D01*
X125074075Y-117172223D01*
X125075465Y-117173428D01*
X125083148Y-117175099D01*
X125312695Y-117175099D01*
X125319214Y-117174762D01*
X125414806Y-117164843D01*
X125428200Y-117161951D01*
X125582384Y-117110512D01*
X125595562Y-117104339D01*
X125733407Y-117019037D01*
X125744808Y-117010001D01*
X125859339Y-116895271D01*
X125868351Y-116883860D01*
X125953416Y-116745857D01*
X125959563Y-116732676D01*
X126010738Y-116578390D01*
X126013605Y-116565014D01*
X126023272Y-116470662D01*
X126023600Y-116464246D01*
X126023600Y-116426715D01*
X126019125Y-116411476D01*
X126017735Y-116410271D01*
X126010052Y-116408600D01*
X125087715Y-116408600D01*
X125072476Y-116413075D01*
X125071271Y-116414465D01*
X125069600Y-116422148D01*
X125069600Y-117156984D01*
X124561600Y-117156984D01*
X124561600Y-116026600D01*
X124581602Y-115958479D01*
X124635258Y-115911986D01*
X124687600Y-115900600D01*
X126005484Y-115900600D01*
X126020723Y-115896125D01*
X126021928Y-115894735D01*
X126023599Y-115887052D01*
X126023599Y-115845005D01*
X126023262Y-115838486D01*
X126013343Y-115742894D01*
X126010451Y-115729500D01*
X125959012Y-115575316D01*
X125952839Y-115562138D01*
X125867537Y-115424293D01*
X125858501Y-115412892D01*
X125777138Y-115331670D01*
X125743059Y-115269387D01*
X125748062Y-115198567D01*
X125776983Y-115153480D01*
X125859730Y-115070588D01*
X125859734Y-115070583D01*
X125864905Y-115065403D01*
X125868746Y-115059172D01*
X125953875Y-114921068D01*
X125953876Y-114921066D01*
X125957715Y-114914838D01*
X126013397Y-114746961D01*
X126024100Y-114642500D01*
X126024100Y-114016700D01*
X126023590Y-114011786D01*
X126013838Y-113917792D01*
X126013837Y-113917788D01*
X126013126Y-113910934D01*
X125989027Y-113838699D01*
X125959468Y-113750102D01*
X125957150Y-113743154D01*
X125864078Y-113592752D01*
X125738903Y-113467795D01*
X125588338Y-113374985D01*
X125508595Y-113348536D01*
X125426989Y-113321468D01*
X125426987Y-113321468D01*
X125420461Y-113319303D01*
X125413625Y-113318603D01*
X125413622Y-113318602D01*
X125370569Y-113314191D01*
X125316000Y-113308600D01*
X124646171Y-113308600D01*
X124578050Y-113288598D01*
X124531557Y-113234942D01*
X124521453Y-113164668D01*
X124550947Y-113100088D01*
X124557076Y-113093505D01*
X126777711Y-110872870D01*
X126792123Y-110860484D01*
X126803718Y-110851951D01*
X126803723Y-110851946D01*
X126809618Y-110847608D01*
X126814357Y-110842030D01*
X126814360Y-110842027D01*
X126843835Y-110807332D01*
X126850765Y-110799816D01*
X126856460Y-110794121D01*
X126874081Y-110771849D01*
X126876872Y-110768445D01*
X126919391Y-110718397D01*
X126919392Y-110718395D01*
X126924133Y-110712815D01*
X126927461Y-110706299D01*
X126930828Y-110701250D01*
X126933995Y-110696121D01*
X126938534Y-110690384D01*
X126969455Y-110624225D01*
X126971361Y-110620325D01*
X127004569Y-110555292D01*
X127006308Y-110548183D01*
X127008404Y-110542549D01*
X127010323Y-110536779D01*
X127013422Y-110530150D01*
X127028291Y-110458665D01*
X127029261Y-110454382D01*
X127045273Y-110388944D01*
X127046608Y-110383490D01*
X127047300Y-110372336D01*
X127047335Y-110372338D01*
X127047575Y-110368366D01*
X127047952Y-110364145D01*
X127049441Y-110356985D01*
X127047346Y-110279558D01*
X127047300Y-110276150D01*
X127047300Y-89955495D01*
X130005201Y-89955495D01*
X130005538Y-89962014D01*
X130015457Y-90057606D01*
X130018349Y-90071000D01*
X130069788Y-90225184D01*
X130075961Y-90238362D01*
X130161263Y-90376207D01*
X130170299Y-90387608D01*
X130285029Y-90502139D01*
X130296440Y-90511151D01*
X130434443Y-90596216D01*
X130447624Y-90602363D01*
X130601910Y-90653538D01*
X130615286Y-90656405D01*
X130709638Y-90666072D01*
X130716054Y-90666400D01*
X130741085Y-90666400D01*
X130756324Y-90661925D01*
X130757529Y-90660535D01*
X130759200Y-90652852D01*
X130759200Y-89705515D01*
X130754725Y-89690276D01*
X130753335Y-89689071D01*
X130745652Y-89687400D01*
X130023316Y-89687400D01*
X130008077Y-89691875D01*
X130006872Y-89693265D01*
X130005201Y-89700948D01*
X130005201Y-89955495D01*
X127047300Y-89955495D01*
X127047300Y-89161285D01*
X130005200Y-89161285D01*
X130009675Y-89176524D01*
X130011065Y-89177729D01*
X130018748Y-89179400D01*
X130741085Y-89179400D01*
X130756324Y-89174925D01*
X130757529Y-89173535D01*
X130759200Y-89165852D01*
X130759200Y-88218516D01*
X130754725Y-88203277D01*
X130753335Y-88202072D01*
X130745652Y-88200401D01*
X130716105Y-88200401D01*
X130709586Y-88200738D01*
X130613994Y-88210657D01*
X130600600Y-88213549D01*
X130446416Y-88264988D01*
X130433238Y-88271161D01*
X130295393Y-88356463D01*
X130283992Y-88365499D01*
X130169461Y-88480229D01*
X130160449Y-88491640D01*
X130075384Y-88629643D01*
X130069237Y-88642824D01*
X130018062Y-88797110D01*
X130015195Y-88810486D01*
X130005528Y-88904838D01*
X130005200Y-88911255D01*
X130005200Y-89161285D01*
X127047300Y-89161285D01*
X127047300Y-86179300D01*
X127067302Y-86111179D01*
X127120958Y-86064686D01*
X127173300Y-86053300D01*
X129519850Y-86053300D01*
X129587971Y-86073302D01*
G37*
G04 #@! TD.AperFunction*
G04 #@! TA.AperFunction,Conductor*
G36*
X157434885Y-56388501D02*
G01*
X157503006Y-56408503D01*
X157549499Y-56462159D01*
X157559603Y-56532433D01*
X157530109Y-56597013D01*
X157487536Y-56628973D01*
X157204694Y-56759066D01*
X156897193Y-56943101D01*
X156894467Y-56945163D01*
X156894465Y-56945164D01*
X156888620Y-56949585D01*
X156611367Y-57159270D01*
X156350559Y-57405043D01*
X156117819Y-57677546D01*
X156115900Y-57680358D01*
X156115897Y-57680363D01*
X156022624Y-57817097D01*
X155915871Y-57973591D01*
X155747077Y-58289714D01*
X155613411Y-58622218D01*
X155612491Y-58625492D01*
X155612489Y-58625497D01*
X155610332Y-58633173D01*
X155516437Y-58967213D01*
X155457290Y-59320663D01*
X155436661Y-59678434D01*
X155436833Y-59681829D01*
X155436833Y-59681830D01*
X155450536Y-59952328D01*
X155454792Y-60036340D01*
X155455329Y-60039695D01*
X155455330Y-60039701D01*
X155466280Y-60108063D01*
X155511470Y-60390195D01*
X155606033Y-60735859D01*
X155737374Y-61069288D01*
X155768151Y-61127909D01*
X155895929Y-61371290D01*
X155903957Y-61386582D01*
X155905858Y-61389411D01*
X155905864Y-61389421D01*
X156089569Y-61662800D01*
X156103834Y-61684029D01*
X156334665Y-61958150D01*
X156593751Y-62205738D01*
X156878061Y-62423897D01*
X156910056Y-62443350D01*
X157181355Y-62608303D01*
X157181360Y-62608306D01*
X157184270Y-62610075D01*
X157187358Y-62611521D01*
X157187357Y-62611521D01*
X157505710Y-62760649D01*
X157505720Y-62760653D01*
X157508794Y-62762093D01*
X157512012Y-62763195D01*
X157512015Y-62763196D01*
X157844615Y-62877071D01*
X157844623Y-62877073D01*
X157847838Y-62878174D01*
X158197435Y-62956959D01*
X158249728Y-62962917D01*
X158550114Y-62997142D01*
X158550122Y-62997142D01*
X158553497Y-62997527D01*
X158556901Y-62997545D01*
X158556904Y-62997545D01*
X158751227Y-62998562D01*
X158911857Y-62999403D01*
X158915243Y-62999053D01*
X158915245Y-62999053D01*
X159264932Y-62962917D01*
X159264941Y-62962916D01*
X159268324Y-62962566D01*
X159271657Y-62961852D01*
X159271660Y-62961851D01*
X159444186Y-62924864D01*
X159618727Y-62887446D01*
X159958968Y-62774922D01*
X160285066Y-62626311D01*
X160379052Y-62570506D01*
X160590262Y-62445099D01*
X160590267Y-62445096D01*
X160593207Y-62443350D01*
X160879786Y-62228180D01*
X161141451Y-61983319D01*
X161375140Y-61711630D01*
X161503011Y-61525576D01*
X161576190Y-61419101D01*
X161576195Y-61419094D01*
X161578120Y-61416292D01*
X161579732Y-61413298D01*
X161579737Y-61413290D01*
X161746395Y-61103772D01*
X161748017Y-61100760D01*
X161808757Y-60951175D01*
X161852918Y-60895584D01*
X161920124Y-60872694D01*
X161989036Y-60889771D01*
X162037776Y-60941394D01*
X162051500Y-60998579D01*
X162051499Y-70094033D01*
X162051497Y-115530852D01*
X162031495Y-115598973D01*
X161977839Y-115645466D01*
X161907565Y-115655570D01*
X161842985Y-115626076D01*
X161808426Y-115577440D01*
X161759052Y-115453369D01*
X161757793Y-115450205D01*
X161646420Y-115239858D01*
X161591702Y-115136513D01*
X161591698Y-115136506D01*
X161590103Y-115133494D01*
X161389190Y-114836746D01*
X161157403Y-114563432D01*
X160897454Y-114316750D01*
X160651665Y-114129509D01*
X160615091Y-114101647D01*
X160615089Y-114101646D01*
X160612384Y-114099585D01*
X160609472Y-114097828D01*
X160609467Y-114097825D01*
X160308443Y-113916236D01*
X160308437Y-113916233D01*
X160305528Y-113914478D01*
X159980475Y-113763593D01*
X159759732Y-113688876D01*
X159644255Y-113649789D01*
X159644250Y-113649788D01*
X159641028Y-113648697D01*
X159372418Y-113589147D01*
X159294493Y-113571871D01*
X159294487Y-113571870D01*
X159291158Y-113571132D01*
X159287769Y-113570758D01*
X159287764Y-113570757D01*
X158938338Y-113532180D01*
X158938333Y-113532180D01*
X158934957Y-113531807D01*
X158931558Y-113531801D01*
X158931557Y-113531801D01*
X158762080Y-113531505D01*
X158576592Y-113531182D01*
X158463413Y-113543277D01*
X158223639Y-113568901D01*
X158223631Y-113568902D01*
X158220256Y-113569263D01*
X157870117Y-113645606D01*
X157530271Y-113759317D01*
X157527178Y-113760739D01*
X157527177Y-113760740D01*
X157345090Y-113844491D01*
X157204694Y-113909066D01*
X157201760Y-113910822D01*
X157201758Y-113910823D01*
X156926001Y-114075860D01*
X156897193Y-114093101D01*
X156757079Y-114199069D01*
X156690684Y-114224205D01*
X156621236Y-114209455D01*
X156570788Y-114159501D01*
X156555077Y-114098572D01*
X156555077Y-97558636D01*
X156555636Y-97546780D01*
X156557366Y-97539040D01*
X156555139Y-97468188D01*
X156555077Y-97464230D01*
X156555077Y-97435145D01*
X156554523Y-97430756D01*
X156553590Y-97418914D01*
X156553468Y-97415008D01*
X156552139Y-97372746D01*
X156546157Y-97352156D01*
X156542147Y-97332793D01*
X156540452Y-97319373D01*
X156540452Y-97319372D01*
X156539459Y-97311513D01*
X156536543Y-97304148D01*
X156536542Y-97304144D01*
X156522451Y-97268556D01*
X156518612Y-97257346D01*
X156505722Y-97212977D01*
X156494802Y-97194512D01*
X156486111Y-97176772D01*
X156478212Y-97156821D01*
X156451059Y-97119448D01*
X156444544Y-97109529D01*
X156425070Y-97076600D01*
X156425067Y-97076596D01*
X156421030Y-97069770D01*
X156405866Y-97054606D01*
X156393025Y-97039572D01*
X156385078Y-97028634D01*
X156380418Y-97022220D01*
X156344824Y-96992774D01*
X156336045Y-96984785D01*
X152489457Y-93138197D01*
X152455431Y-93075885D01*
X152457994Y-93012473D01*
X152462370Y-92998069D01*
X152491529Y-92776590D01*
X152493156Y-92710000D01*
X152474852Y-92487361D01*
X152420431Y-92270702D01*
X152331354Y-92065840D01*
X152286499Y-91996504D01*
X152212822Y-91882617D01*
X152212820Y-91882614D01*
X152210014Y-91878277D01*
X152059670Y-91713051D01*
X152055619Y-91709852D01*
X152055615Y-91709848D01*
X151888414Y-91577800D01*
X151888410Y-91577798D01*
X151884359Y-91574598D01*
X151843053Y-91551796D01*
X151793084Y-91501364D01*
X151778312Y-91431921D01*
X151803428Y-91365516D01*
X151830780Y-91338909D01*
X151897932Y-91291010D01*
X152009860Y-91211173D01*
X152168096Y-91053489D01*
X152198574Y-91011075D01*
X152295435Y-90876277D01*
X152298453Y-90872077D01*
X152333953Y-90800249D01*
X152395136Y-90676453D01*
X152395137Y-90676451D01*
X152397430Y-90671811D01*
X152447289Y-90507705D01*
X152460865Y-90463023D01*
X152460865Y-90463021D01*
X152462370Y-90458069D01*
X152491529Y-90236590D01*
X152493156Y-90170000D01*
X152474852Y-89947361D01*
X152420431Y-89730702D01*
X152331354Y-89525840D01*
X152254184Y-89406553D01*
X152212822Y-89342617D01*
X152212820Y-89342614D01*
X152210014Y-89338277D01*
X152059670Y-89173051D01*
X152055619Y-89169852D01*
X152055615Y-89169848D01*
X151888414Y-89037800D01*
X151888410Y-89037798D01*
X151884359Y-89034598D01*
X151872199Y-89027885D01*
X151842569Y-89011529D01*
X151792598Y-88961097D01*
X151777826Y-88891654D01*
X151802942Y-88825248D01*
X151830294Y-88798641D01*
X152005328Y-88673792D01*
X152013200Y-88667139D01*
X152164052Y-88516812D01*
X152170730Y-88508965D01*
X152295003Y-88336020D01*
X152300313Y-88327183D01*
X152394670Y-88136267D01*
X152398469Y-88126672D01*
X152460377Y-87922910D01*
X152462555Y-87912837D01*
X152463986Y-87901962D01*
X152461775Y-87887778D01*
X152448617Y-87884000D01*
X150694500Y-87884000D01*
X150626379Y-87863998D01*
X150579886Y-87810342D01*
X150568500Y-87758000D01*
X150568500Y-87502000D01*
X150588502Y-87433879D01*
X150642158Y-87387386D01*
X150694500Y-87376000D01*
X152448344Y-87376000D01*
X152461875Y-87372027D01*
X152463180Y-87362947D01*
X152421214Y-87195875D01*
X152417894Y-87186124D01*
X152332972Y-86990814D01*
X152328105Y-86981739D01*
X152212426Y-86802926D01*
X152206136Y-86794757D01*
X152062806Y-86637240D01*
X152055273Y-86630215D01*
X151888139Y-86498222D01*
X151879556Y-86492520D01*
X151842602Y-86472120D01*
X151792631Y-86421687D01*
X151777859Y-86352245D01*
X151802975Y-86285839D01*
X151830327Y-86259232D01*
X151873727Y-86228275D01*
X152009860Y-86131173D01*
X152050972Y-86090205D01*
X152164435Y-85977137D01*
X152168096Y-85973489D01*
X152227594Y-85890689D01*
X152295435Y-85796277D01*
X152298453Y-85792077D01*
X152310105Y-85768502D01*
X152395136Y-85596453D01*
X152395137Y-85596451D01*
X152397430Y-85591811D01*
X152462370Y-85378069D01*
X152491529Y-85156590D01*
X152493156Y-85090000D01*
X152474852Y-84867361D01*
X152420431Y-84650702D01*
X152331354Y-84445840D01*
X152273189Y-84355930D01*
X152212822Y-84262617D01*
X152212820Y-84262614D01*
X152210014Y-84258277D01*
X152059670Y-84093051D01*
X152055619Y-84089852D01*
X152055615Y-84089848D01*
X151888414Y-83957800D01*
X151888410Y-83957798D01*
X151884359Y-83954598D01*
X151843053Y-83931796D01*
X151793084Y-83881364D01*
X151778312Y-83811921D01*
X151803428Y-83745516D01*
X151830780Y-83718909D01*
X151874603Y-83687650D01*
X152009860Y-83591173D01*
X152168096Y-83433489D01*
X152180982Y-83415557D01*
X152295435Y-83256277D01*
X152298453Y-83252077D01*
X152397430Y-83051811D01*
X152462370Y-82838069D01*
X152491529Y-82616590D01*
X152491615Y-82613083D01*
X152493074Y-82553365D01*
X152493074Y-82553361D01*
X152493156Y-82550000D01*
X152474852Y-82327361D01*
X152420431Y-82110702D01*
X152331354Y-81905840D01*
X152253999Y-81786267D01*
X152212822Y-81722617D01*
X152212820Y-81722614D01*
X152210014Y-81718277D01*
X152059670Y-81553051D01*
X152055619Y-81549852D01*
X152055615Y-81549848D01*
X151888414Y-81417800D01*
X151888410Y-81417798D01*
X151884359Y-81414598D01*
X151843053Y-81391796D01*
X151793084Y-81341364D01*
X151778312Y-81271921D01*
X151803428Y-81205516D01*
X151830780Y-81178909D01*
X151874603Y-81147650D01*
X152009860Y-81051173D01*
X152168096Y-80893489D01*
X152298453Y-80712077D01*
X152338159Y-80631739D01*
X152395136Y-80516453D01*
X152395137Y-80516451D01*
X152397430Y-80511811D01*
X152462370Y-80298069D01*
X152491529Y-80076590D01*
X152491649Y-80071687D01*
X152493074Y-80013365D01*
X152493074Y-80013361D01*
X152493156Y-80010000D01*
X152474852Y-79787361D01*
X152420431Y-79570702D01*
X152331354Y-79365840D01*
X152210014Y-79178277D01*
X152059670Y-79013051D01*
X152055619Y-79009852D01*
X152055615Y-79009848D01*
X151888414Y-78877800D01*
X151888410Y-78877798D01*
X151884359Y-78874598D01*
X151843053Y-78851796D01*
X151793084Y-78801364D01*
X151778312Y-78731921D01*
X151803428Y-78665516D01*
X151830780Y-78638909D01*
X151988076Y-78526711D01*
X152009860Y-78511173D01*
X152021439Y-78499635D01*
X152091209Y-78430107D01*
X152168096Y-78353489D01*
X152298453Y-78172077D01*
X152331605Y-78105000D01*
X152395136Y-77976453D01*
X152395137Y-77976451D01*
X152397430Y-77971811D01*
X152462370Y-77758069D01*
X152491529Y-77536590D01*
X152493156Y-77470000D01*
X152474852Y-77247361D01*
X152420431Y-77030702D01*
X152331354Y-76825840D01*
X152247911Y-76696857D01*
X152212822Y-76642617D01*
X152212820Y-76642614D01*
X152210014Y-76638277D01*
X152059670Y-76473051D01*
X152055619Y-76469852D01*
X152055615Y-76469848D01*
X151888414Y-76337800D01*
X151888410Y-76337798D01*
X151884359Y-76334598D01*
X151843053Y-76311796D01*
X151793084Y-76261364D01*
X151778312Y-76191921D01*
X151803428Y-76125516D01*
X151830780Y-76098909D01*
X151988076Y-75986711D01*
X152009860Y-75971173D01*
X152021439Y-75959635D01*
X152091209Y-75890107D01*
X152168096Y-75813489D01*
X152298453Y-75632077D01*
X152331605Y-75565000D01*
X152395136Y-75436453D01*
X152395137Y-75436451D01*
X152397430Y-75431811D01*
X152462370Y-75218069D01*
X152491529Y-74996590D01*
X152492358Y-74962651D01*
X152493074Y-74933365D01*
X152493074Y-74933361D01*
X152493156Y-74930000D01*
X152474852Y-74707361D01*
X152420431Y-74490702D01*
X152331354Y-74285840D01*
X152210014Y-74098277D01*
X152059670Y-73933051D01*
X152055619Y-73929852D01*
X152055615Y-73929848D01*
X151888414Y-73797800D01*
X151888410Y-73797798D01*
X151884359Y-73794598D01*
X151843053Y-73771796D01*
X151793084Y-73721364D01*
X151778312Y-73651921D01*
X151803428Y-73585516D01*
X151830780Y-73558909D01*
X151988076Y-73446711D01*
X152009860Y-73431173D01*
X152021439Y-73419635D01*
X152091209Y-73350107D01*
X152168096Y-73273489D01*
X152298453Y-73092077D01*
X152331605Y-73025000D01*
X152395136Y-72896453D01*
X152395137Y-72896451D01*
X152397430Y-72891811D01*
X152462370Y-72678069D01*
X152491529Y-72456590D01*
X152493156Y-72390000D01*
X152474852Y-72167361D01*
X152420431Y-71950702D01*
X152331354Y-71745840D01*
X152210014Y-71558277D01*
X152059670Y-71393051D01*
X152055619Y-71389852D01*
X152055615Y-71389848D01*
X151888414Y-71257800D01*
X151888410Y-71257798D01*
X151884359Y-71254598D01*
X151843053Y-71231796D01*
X151793084Y-71181364D01*
X151778312Y-71111921D01*
X151803428Y-71045516D01*
X151830780Y-71018909D01*
X151880343Y-70983556D01*
X152009860Y-70891173D01*
X152056413Y-70844783D01*
X152137370Y-70764108D01*
X152168096Y-70733489D01*
X152230926Y-70646052D01*
X152295435Y-70556277D01*
X152298453Y-70552077D01*
X152336132Y-70475840D01*
X152395136Y-70356453D01*
X152395137Y-70356451D01*
X152397430Y-70351811D01*
X152462370Y-70138069D01*
X152491529Y-69916590D01*
X152492654Y-69870562D01*
X152493074Y-69853365D01*
X152493074Y-69853361D01*
X152493156Y-69850000D01*
X152474852Y-69627361D01*
X152420431Y-69410702D01*
X152331354Y-69205840D01*
X152244992Y-69072345D01*
X152212822Y-69022617D01*
X152212820Y-69022614D01*
X152210014Y-69018277D01*
X152059670Y-68853051D01*
X152055619Y-68849852D01*
X152055615Y-68849848D01*
X151888414Y-68717800D01*
X151888410Y-68717798D01*
X151884359Y-68714598D01*
X151843053Y-68691796D01*
X151793084Y-68641364D01*
X151778312Y-68571921D01*
X151803428Y-68505516D01*
X151830780Y-68478909D01*
X151876412Y-68446360D01*
X152009860Y-68351173D01*
X152014845Y-68346206D01*
X152128605Y-68232842D01*
X152168096Y-68193489D01*
X152177430Y-68180500D01*
X152295435Y-68016277D01*
X152298453Y-68012077D01*
X152397430Y-67811811D01*
X152462370Y-67598069D01*
X152491529Y-67376590D01*
X152493156Y-67310000D01*
X152474852Y-67087361D01*
X152420431Y-66870702D01*
X152331354Y-66665840D01*
X152210014Y-66478277D01*
X152059670Y-66313051D01*
X152055619Y-66309852D01*
X152055615Y-66309848D01*
X151888414Y-66177800D01*
X151888410Y-66177798D01*
X151884359Y-66174598D01*
X151843053Y-66151796D01*
X151793084Y-66101364D01*
X151778312Y-66031921D01*
X151803428Y-65965516D01*
X151830780Y-65938909D01*
X151921932Y-65873891D01*
X152009860Y-65811173D01*
X152014845Y-65806206D01*
X152153400Y-65668134D01*
X152168096Y-65653489D01*
X152189313Y-65623963D01*
X152295435Y-65476277D01*
X152298453Y-65472077D01*
X152397430Y-65271811D01*
X152462370Y-65058069D01*
X152491529Y-64836590D01*
X152493156Y-64770000D01*
X152474852Y-64547361D01*
X152420431Y-64330702D01*
X152331354Y-64125840D01*
X152237617Y-63980944D01*
X152212822Y-63942617D01*
X152212820Y-63942614D01*
X152210014Y-63938277D01*
X152059670Y-63773051D01*
X152055619Y-63769852D01*
X152055615Y-63769848D01*
X151888414Y-63637800D01*
X151888410Y-63637798D01*
X151884359Y-63634598D01*
X151855198Y-63618500D01*
X151832136Y-63605769D01*
X151688789Y-63526638D01*
X151683920Y-63524914D01*
X151683916Y-63524912D01*
X151483087Y-63453795D01*
X151483083Y-63453794D01*
X151478212Y-63452069D01*
X151473119Y-63451162D01*
X151473116Y-63451161D01*
X151263373Y-63413800D01*
X151263367Y-63413799D01*
X151258284Y-63412894D01*
X151184452Y-63411992D01*
X151040081Y-63410228D01*
X151040079Y-63410228D01*
X151034911Y-63410165D01*
X150814091Y-63443955D01*
X150601756Y-63513357D01*
X150403607Y-63616507D01*
X150399474Y-63619610D01*
X150399471Y-63619612D01*
X150233136Y-63744500D01*
X150224965Y-63750635D01*
X150161214Y-63817347D01*
X150144283Y-63835064D01*
X150082759Y-63870494D01*
X150011846Y-63867037D01*
X149954060Y-63825791D01*
X149935207Y-63792243D01*
X149893767Y-63681703D01*
X149890615Y-63673295D01*
X149803261Y-63556739D01*
X149686705Y-63469385D01*
X149550316Y-63418255D01*
X149488134Y-63411500D01*
X148356371Y-63411500D01*
X148288250Y-63391498D01*
X148267276Y-63374595D01*
X147263770Y-62371089D01*
X147251384Y-62356677D01*
X147242851Y-62345082D01*
X147242846Y-62345077D01*
X147238508Y-62339182D01*
X147232930Y-62334443D01*
X147232927Y-62334440D01*
X147198232Y-62304965D01*
X147190716Y-62298035D01*
X147185021Y-62292340D01*
X147168736Y-62279456D01*
X147162749Y-62274719D01*
X147159345Y-62271928D01*
X147109297Y-62229409D01*
X147109295Y-62229408D01*
X147103715Y-62224667D01*
X147097199Y-62221339D01*
X147092150Y-62217972D01*
X147087021Y-62214805D01*
X147081284Y-62210266D01*
X147015125Y-62179345D01*
X147011225Y-62177439D01*
X146946192Y-62144231D01*
X146939084Y-62142492D01*
X146933441Y-62140393D01*
X146927678Y-62138476D01*
X146921050Y-62135378D01*
X146849583Y-62120513D01*
X146845299Y-62119543D01*
X146774390Y-62102192D01*
X146768788Y-62101844D01*
X146768785Y-62101844D01*
X146763236Y-62101500D01*
X146763238Y-62101464D01*
X146759245Y-62101225D01*
X146755053Y-62100851D01*
X146747885Y-62099360D01*
X146681675Y-62101151D01*
X146670479Y-62101454D01*
X146667072Y-62101500D01*
X127380193Y-62101500D01*
X127312072Y-62081498D01*
X127291175Y-62064673D01*
X127242285Y-62015868D01*
X127237103Y-62010695D01*
X127232565Y-62007898D01*
X127191976Y-61950647D01*
X127188746Y-61879724D01*
X127224372Y-61818313D01*
X127232868Y-61810938D01*
X127243007Y-61802902D01*
X127357539Y-61688171D01*
X127366551Y-61676760D01*
X127451616Y-61538757D01*
X127457763Y-61525576D01*
X127508938Y-61371290D01*
X127511805Y-61357914D01*
X127521472Y-61263562D01*
X127521800Y-61257146D01*
X127521800Y-61232115D01*
X127517325Y-61216876D01*
X127515935Y-61215671D01*
X127508252Y-61214000D01*
X126160800Y-61214000D01*
X126092679Y-61193998D01*
X126046186Y-61140342D01*
X126034800Y-61088000D01*
X126034800Y-60687885D01*
X126542800Y-60687885D01*
X126547275Y-60703124D01*
X126548665Y-60704329D01*
X126556348Y-60706000D01*
X127503684Y-60706000D01*
X127518923Y-60701525D01*
X127520128Y-60700135D01*
X127521799Y-60692452D01*
X127521799Y-60662905D01*
X127521462Y-60656386D01*
X127511543Y-60560794D01*
X127508651Y-60547400D01*
X127457212Y-60393216D01*
X127451039Y-60380038D01*
X127365737Y-60242193D01*
X127356701Y-60230792D01*
X127241971Y-60116261D01*
X127230560Y-60107249D01*
X127092557Y-60022184D01*
X127079376Y-60016037D01*
X126925090Y-59964862D01*
X126911714Y-59961995D01*
X126817362Y-59952328D01*
X126810945Y-59952000D01*
X126560915Y-59952000D01*
X126545676Y-59956475D01*
X126544471Y-59957865D01*
X126542800Y-59965548D01*
X126542800Y-60687885D01*
X126034800Y-60687885D01*
X126034800Y-59970116D01*
X126030325Y-59954877D01*
X126028935Y-59953672D01*
X126021252Y-59952001D01*
X125766705Y-59952001D01*
X125760186Y-59952338D01*
X125664594Y-59962257D01*
X125651200Y-59965149D01*
X125497016Y-60016588D01*
X125483838Y-60022761D01*
X125345993Y-60108063D01*
X125334592Y-60117099D01*
X125220061Y-60231829D01*
X125211049Y-60243240D01*
X125125984Y-60381243D01*
X125119837Y-60394424D01*
X125087613Y-60491575D01*
X125047182Y-60549935D01*
X124981618Y-60577171D01*
X124911736Y-60564637D01*
X124859724Y-60516312D01*
X124848496Y-60491783D01*
X124815612Y-60393216D01*
X124809439Y-60380038D01*
X124724137Y-60242193D01*
X124715101Y-60230792D01*
X124600371Y-60116261D01*
X124588960Y-60107249D01*
X124450957Y-60022184D01*
X124437776Y-60016037D01*
X124283490Y-59964862D01*
X124270114Y-59961995D01*
X124175762Y-59952328D01*
X124169345Y-59952000D01*
X123919315Y-59952000D01*
X123904076Y-59956475D01*
X123902871Y-59957865D01*
X123901200Y-59965548D01*
X123901200Y-61088000D01*
X123881198Y-61156121D01*
X123827542Y-61202614D01*
X123775200Y-61214000D01*
X122432316Y-61214000D01*
X122417077Y-61218475D01*
X122415872Y-61219865D01*
X122414201Y-61227548D01*
X122414201Y-61257095D01*
X122414538Y-61263614D01*
X122424457Y-61359206D01*
X122427349Y-61372600D01*
X122478788Y-61526784D01*
X122484961Y-61539962D01*
X122570263Y-61677807D01*
X122579299Y-61689208D01*
X122694028Y-61803738D01*
X122702962Y-61810794D01*
X122744023Y-61868712D01*
X122747253Y-61939635D01*
X122711626Y-62001046D01*
X122703793Y-62007846D01*
X122697852Y-62011522D01*
X122644794Y-62064673D01*
X122641153Y-62068320D01*
X122578871Y-62102399D01*
X122566588Y-62104452D01*
X122563640Y-62104795D01*
X122559332Y-62105221D01*
X122486564Y-62111140D01*
X122479603Y-62113395D01*
X122473663Y-62114582D01*
X122467788Y-62115971D01*
X122460519Y-62116818D01*
X122391870Y-62141736D01*
X122387742Y-62143153D01*
X122325264Y-62163393D01*
X122325262Y-62163394D01*
X122318301Y-62165649D01*
X122312046Y-62169445D01*
X122306572Y-62171951D01*
X122301142Y-62174670D01*
X122294263Y-62177167D01*
X122288143Y-62181180D01*
X122288142Y-62181180D01*
X122233224Y-62217186D01*
X122229520Y-62219523D01*
X122167093Y-62257405D01*
X122158716Y-62264803D01*
X122158692Y-62264776D01*
X122155700Y-62267429D01*
X122152467Y-62270132D01*
X122146348Y-62274144D01*
X122117151Y-62304965D01*
X122093072Y-62330383D01*
X122090694Y-62332825D01*
X120652124Y-63771395D01*
X120589812Y-63805421D01*
X120563029Y-63808300D01*
X118989870Y-63808300D01*
X118970920Y-63806867D01*
X118956685Y-63804701D01*
X118956681Y-63804701D01*
X118949451Y-63803601D01*
X118942159Y-63804194D01*
X118942156Y-63804194D01*
X118896782Y-63807885D01*
X118886567Y-63808300D01*
X118878507Y-63808300D01*
X118874873Y-63808724D01*
X118874867Y-63808724D01*
X118861842Y-63810243D01*
X118850280Y-63811591D01*
X118845932Y-63812021D01*
X118773164Y-63817940D01*
X118766203Y-63820195D01*
X118760263Y-63821382D01*
X118754388Y-63822771D01*
X118747119Y-63823618D01*
X118678470Y-63848536D01*
X118674342Y-63849953D01*
X118611864Y-63870193D01*
X118611862Y-63870194D01*
X118604901Y-63872449D01*
X118598646Y-63876245D01*
X118593172Y-63878751D01*
X118587742Y-63881470D01*
X118580863Y-63883967D01*
X118574743Y-63887980D01*
X118574742Y-63887980D01*
X118519824Y-63923986D01*
X118516120Y-63926323D01*
X118453693Y-63964205D01*
X118445316Y-63971603D01*
X118445292Y-63971576D01*
X118442300Y-63974229D01*
X118439067Y-63976932D01*
X118432948Y-63980944D01*
X118427916Y-63986256D01*
X118379672Y-64037183D01*
X118377294Y-64039625D01*
X115232324Y-67184595D01*
X115170012Y-67218621D01*
X115143229Y-67221500D01*
X113401866Y-67221500D01*
X113339684Y-67228255D01*
X113203295Y-67279385D01*
X113086739Y-67366739D01*
X112999385Y-67483295D01*
X112948255Y-67619684D01*
X112941500Y-67681866D01*
X112941500Y-68955051D01*
X112921498Y-69023172D01*
X112904595Y-69044146D01*
X111213594Y-70735147D01*
X111151282Y-70769173D01*
X111080467Y-70764108D01*
X111023631Y-70721561D01*
X110998820Y-70655041D01*
X110998499Y-70646052D01*
X110998499Y-60999598D01*
X111018501Y-60931477D01*
X111072157Y-60884984D01*
X111142431Y-60874880D01*
X111207011Y-60904374D01*
X111241732Y-60953419D01*
X111287374Y-61069288D01*
X111318151Y-61127909D01*
X111445929Y-61371290D01*
X111453957Y-61386582D01*
X111455858Y-61389411D01*
X111455864Y-61389421D01*
X111639569Y-61662800D01*
X111653834Y-61684029D01*
X111884665Y-61958150D01*
X112143751Y-62205738D01*
X112428061Y-62423897D01*
X112460056Y-62443350D01*
X112731355Y-62608303D01*
X112731360Y-62608306D01*
X112734270Y-62610075D01*
X112737358Y-62611521D01*
X112737357Y-62611521D01*
X113055710Y-62760649D01*
X113055720Y-62760653D01*
X113058794Y-62762093D01*
X113062012Y-62763195D01*
X113062015Y-62763196D01*
X113394615Y-62877071D01*
X113394623Y-62877073D01*
X113397838Y-62878174D01*
X113747435Y-62956959D01*
X113799728Y-62962917D01*
X114100114Y-62997142D01*
X114100122Y-62997142D01*
X114103497Y-62997527D01*
X114106901Y-62997545D01*
X114106904Y-62997545D01*
X114301227Y-62998562D01*
X114461857Y-62999403D01*
X114465243Y-62999053D01*
X114465245Y-62999053D01*
X114814932Y-62962917D01*
X114814941Y-62962916D01*
X114818324Y-62962566D01*
X114821657Y-62961852D01*
X114821660Y-62961851D01*
X114994186Y-62924864D01*
X115168727Y-62887446D01*
X115508968Y-62774922D01*
X115835066Y-62626311D01*
X115929052Y-62570506D01*
X116140262Y-62445099D01*
X116140267Y-62445096D01*
X116143207Y-62443350D01*
X116429786Y-62228180D01*
X116691451Y-61983319D01*
X116925140Y-61711630D01*
X117053011Y-61525576D01*
X117126190Y-61419101D01*
X117126195Y-61419094D01*
X117128120Y-61416292D01*
X117129732Y-61413298D01*
X117129737Y-61413290D01*
X117296395Y-61103772D01*
X117298017Y-61100760D01*
X117432842Y-60768724D01*
X117443142Y-60732568D01*
X117455870Y-60687885D01*
X122414200Y-60687885D01*
X122418675Y-60703124D01*
X122420065Y-60704329D01*
X122427748Y-60706000D01*
X123375085Y-60706000D01*
X123390324Y-60701525D01*
X123391529Y-60700135D01*
X123393200Y-60692452D01*
X123393200Y-59970116D01*
X123388725Y-59954877D01*
X123387335Y-59953672D01*
X123379652Y-59952001D01*
X123125105Y-59952001D01*
X123118586Y-59952338D01*
X123022994Y-59962257D01*
X123009600Y-59965149D01*
X122855416Y-60016588D01*
X122842238Y-60022761D01*
X122704393Y-60108063D01*
X122692992Y-60117099D01*
X122578461Y-60231829D01*
X122569449Y-60243240D01*
X122484384Y-60381243D01*
X122478237Y-60394424D01*
X122427062Y-60548710D01*
X122424195Y-60562086D01*
X122414528Y-60656438D01*
X122414200Y-60662855D01*
X122414200Y-60687885D01*
X117455870Y-60687885D01*
X117511731Y-60491783D01*
X117531020Y-60424070D01*
X117562109Y-60242193D01*
X117590829Y-60074175D01*
X117590829Y-60074173D01*
X117591401Y-60070828D01*
X117593511Y-60036340D01*
X117613168Y-59714928D01*
X117613278Y-59713131D01*
X117613359Y-59690000D01*
X117593979Y-59332159D01*
X117536066Y-58978505D01*
X117440297Y-58633173D01*
X117437243Y-58625497D01*
X117309052Y-58303369D01*
X117307793Y-58300205D01*
X117216780Y-58128311D01*
X117141702Y-57986513D01*
X117141698Y-57986506D01*
X117140103Y-57983494D01*
X116939190Y-57686746D01*
X116707403Y-57413432D01*
X116447454Y-57166750D01*
X116162384Y-56949585D01*
X116159472Y-56947828D01*
X116159467Y-56947825D01*
X115858443Y-56766236D01*
X115858437Y-56766233D01*
X115855528Y-56764478D01*
X115686496Y-56686016D01*
X115563208Y-56628787D01*
X115509841Y-56581963D01*
X115490261Y-56513720D01*
X115510685Y-56445724D01*
X115564627Y-56399565D01*
X115616259Y-56388500D01*
X136500770Y-56388500D01*
X157434885Y-56388501D01*
G37*
G04 #@! TD.AperFunction*
G04 #@! TA.AperFunction,Conductor*
G36*
X135661052Y-89436047D02*
G01*
X135667635Y-89442176D01*
X144592595Y-98367136D01*
X144626621Y-98429448D01*
X144629500Y-98456231D01*
X144629500Y-107105944D01*
X144628941Y-107117800D01*
X144627212Y-107125537D01*
X144627461Y-107133459D01*
X144629438Y-107196369D01*
X144629500Y-107200327D01*
X144629500Y-107229432D01*
X144630056Y-107233832D01*
X144630988Y-107245664D01*
X144632438Y-107291831D01*
X144635623Y-107302792D01*
X144638419Y-107312416D01*
X144642430Y-107331782D01*
X144645118Y-107353064D01*
X144648034Y-107360429D01*
X144648035Y-107360433D01*
X144662126Y-107396021D01*
X144665965Y-107407231D01*
X144678855Y-107451600D01*
X144689775Y-107470065D01*
X144698466Y-107487805D01*
X144706365Y-107507756D01*
X144717703Y-107523361D01*
X144733516Y-107545126D01*
X144740033Y-107555048D01*
X144759507Y-107587977D01*
X144759510Y-107587981D01*
X144763547Y-107594807D01*
X144778711Y-107609971D01*
X144791551Y-107625004D01*
X144804159Y-107642357D01*
X144839752Y-107671802D01*
X144848532Y-107679792D01*
X147232101Y-110063361D01*
X147266127Y-110125673D01*
X147264424Y-110186125D01*
X147250989Y-110234570D01*
X147227251Y-110456695D01*
X147227548Y-110461848D01*
X147227548Y-110461851D01*
X147239812Y-110674547D01*
X147240110Y-110679715D01*
X147241247Y-110684761D01*
X147241248Y-110684767D01*
X147265243Y-110791239D01*
X147289222Y-110897639D01*
X147373266Y-111104616D01*
X147424942Y-111188944D01*
X147487291Y-111290688D01*
X147489987Y-111295088D01*
X147636250Y-111463938D01*
X147808126Y-111606632D01*
X147881955Y-111649774D01*
X147930679Y-111701412D01*
X147943750Y-111771195D01*
X147917019Y-111836967D01*
X147876562Y-111870327D01*
X147868457Y-111874546D01*
X147859738Y-111880036D01*
X147689433Y-112007905D01*
X147681726Y-112014748D01*
X147534590Y-112168717D01*
X147528104Y-112176727D01*
X147408098Y-112352649D01*
X147403000Y-112361623D01*
X147313338Y-112554783D01*
X147309775Y-112564470D01*
X147254389Y-112764183D01*
X147255912Y-112772607D01*
X147268292Y-112776000D01*
X151258000Y-112776000D01*
X151326121Y-112796002D01*
X151372614Y-112849658D01*
X151384000Y-112902000D01*
X151384000Y-113158000D01*
X151363998Y-113226121D01*
X151310342Y-113272614D01*
X151258000Y-113284000D01*
X147273225Y-113284000D01*
X147259694Y-113287973D01*
X147258257Y-113297966D01*
X147288565Y-113432446D01*
X147291645Y-113442275D01*
X147371770Y-113639603D01*
X147376413Y-113648794D01*
X147487694Y-113830388D01*
X147493777Y-113838699D01*
X147582396Y-113941003D01*
X147611879Y-114005588D01*
X147601764Y-114075860D01*
X147555263Y-114129509D01*
X147487159Y-114149500D01*
X147136949Y-114149500D01*
X147068828Y-114129498D01*
X147047854Y-114112595D01*
X143434916Y-110499656D01*
X143400890Y-110437344D01*
X143398011Y-110410561D01*
X143398011Y-105229567D01*
X143398570Y-105217711D01*
X143398570Y-105217708D01*
X143400299Y-105209974D01*
X143398073Y-105139142D01*
X143398011Y-105135184D01*
X143398011Y-105106079D01*
X143397455Y-105101679D01*
X143396523Y-105089841D01*
X143395322Y-105051605D01*
X143395073Y-105043680D01*
X143389091Y-105023090D01*
X143385081Y-105003727D01*
X143383386Y-104990307D01*
X143383386Y-104990306D01*
X143382393Y-104982447D01*
X143379477Y-104975082D01*
X143379476Y-104975078D01*
X143365387Y-104939493D01*
X143361542Y-104928264D01*
X143350867Y-104891521D01*
X143348656Y-104883910D01*
X143337741Y-104865454D01*
X143329042Y-104847698D01*
X143328693Y-104846818D01*
X143321146Y-104827755D01*
X143293991Y-104790379D01*
X143287476Y-104780460D01*
X143268001Y-104747531D01*
X143267999Y-104747529D01*
X143263963Y-104740704D01*
X143248797Y-104725537D01*
X143235966Y-104710514D01*
X143228012Y-104699567D01*
X143228010Y-104699565D01*
X143223352Y-104693154D01*
X143187752Y-104663703D01*
X143178973Y-104655714D01*
X135270655Y-96747395D01*
X135262665Y-96738615D01*
X135262663Y-96738613D01*
X135258416Y-96731920D01*
X135206742Y-96683395D01*
X135203901Y-96680641D01*
X135183333Y-96660073D01*
X135179826Y-96657353D01*
X135170804Y-96649647D01*
X135154267Y-96634118D01*
X135137133Y-96618028D01*
X135130181Y-96614206D01*
X135118342Y-96607697D01*
X135101818Y-96596843D01*
X135091132Y-96588555D01*
X135084868Y-96583696D01*
X135077596Y-96580549D01*
X135077594Y-96580548D01*
X135042465Y-96565346D01*
X135031805Y-96560124D01*
X134998284Y-96541695D01*
X134998282Y-96541694D01*
X134991337Y-96537876D01*
X134970559Y-96532541D01*
X134951869Y-96526142D01*
X134932176Y-96517620D01*
X134886552Y-96510394D01*
X134874929Y-96507987D01*
X134846928Y-96500798D01*
X134830188Y-96496500D01*
X134808741Y-96496500D01*
X134789031Y-96494949D01*
X134775677Y-96492834D01*
X134767848Y-96491594D01*
X134721859Y-96495941D01*
X134710004Y-96496500D01*
X134508009Y-96496500D01*
X134439888Y-96476498D01*
X134393395Y-96422842D01*
X134383291Y-96352568D01*
X134397277Y-96312833D01*
X134396962Y-96312697D01*
X134398904Y-96308209D01*
X134399553Y-96306365D01*
X134404145Y-96298601D01*
X134450562Y-96138831D01*
X134452351Y-96116109D01*
X134453307Y-96103958D01*
X134453307Y-96103950D01*
X134453500Y-96101502D01*
X134453500Y-95668498D01*
X134450562Y-95631169D01*
X134404145Y-95471399D01*
X134319453Y-95328193D01*
X134319329Y-95328069D01*
X134294643Y-95265196D01*
X134308544Y-95195573D01*
X134353356Y-95148396D01*
X134353318Y-95148348D01*
X134353636Y-95148102D01*
X134356009Y-95145603D01*
X134359577Y-95143493D01*
X134359581Y-95143490D01*
X134366407Y-95139453D01*
X134381571Y-95124289D01*
X134396605Y-95111448D01*
X134407543Y-95103501D01*
X134413957Y-95098841D01*
X134443398Y-95063253D01*
X134451387Y-95054473D01*
X135201644Y-94304215D01*
X135210425Y-94296225D01*
X135210427Y-94296224D01*
X135217120Y-94291976D01*
X135265660Y-94240286D01*
X135268414Y-94237445D01*
X135288966Y-94216893D01*
X135291678Y-94213397D01*
X135299389Y-94204368D01*
X135325584Y-94176473D01*
X135331012Y-94170693D01*
X135341341Y-94151905D01*
X135352198Y-94135376D01*
X135360487Y-94124691D01*
X135360488Y-94124689D01*
X135365344Y-94118429D01*
X135383697Y-94076016D01*
X135388908Y-94065379D01*
X135411164Y-94024897D01*
X135416497Y-94004126D01*
X135422899Y-93985424D01*
X135431419Y-93965737D01*
X135438645Y-93920112D01*
X135441053Y-93908486D01*
X135450569Y-93871425D01*
X135450569Y-93871424D01*
X135452540Y-93863748D01*
X135452540Y-93842302D01*
X135454091Y-93822591D01*
X135456206Y-93809238D01*
X135457446Y-93801409D01*
X135453099Y-93755424D01*
X135452540Y-93743566D01*
X135452540Y-89531271D01*
X135472542Y-89463150D01*
X135526198Y-89416657D01*
X135596472Y-89406553D01*
X135661052Y-89436047D01*
G37*
G04 #@! TD.AperFunction*
G04 #@! TA.AperFunction,Conductor*
G36*
X121846771Y-66083502D02*
G01*
X121893264Y-66137158D01*
X121903368Y-66207432D01*
X121873874Y-66272012D01*
X121867745Y-66278595D01*
X119073995Y-69072345D01*
X119065215Y-69080335D01*
X119065213Y-69080337D01*
X119058520Y-69084584D01*
X119053094Y-69090362D01*
X119053093Y-69090363D01*
X119009996Y-69136257D01*
X119007241Y-69139099D01*
X118986673Y-69159667D01*
X118983956Y-69163170D01*
X118976248Y-69172195D01*
X118944628Y-69205867D01*
X118940807Y-69212818D01*
X118940806Y-69212819D01*
X118934297Y-69224658D01*
X118923443Y-69241182D01*
X118915618Y-69251271D01*
X118910296Y-69258132D01*
X118907149Y-69265404D01*
X118907148Y-69265406D01*
X118891946Y-69300535D01*
X118886724Y-69311195D01*
X118864476Y-69351663D01*
X118859141Y-69372441D01*
X118852742Y-69391131D01*
X118844220Y-69410824D01*
X118837287Y-69454596D01*
X118836994Y-69456448D01*
X118834587Y-69468071D01*
X118827398Y-69496072D01*
X118823100Y-69512812D01*
X118823100Y-69534259D01*
X118821549Y-69553969D01*
X118818194Y-69575152D01*
X118820288Y-69597299D01*
X118822541Y-69621138D01*
X118823100Y-69632996D01*
X118823100Y-94442450D01*
X118803098Y-94510571D01*
X118786195Y-94531545D01*
X118505145Y-94812595D01*
X118442833Y-94846621D01*
X118416050Y-94849500D01*
X118395513Y-94849500D01*
X118389061Y-94850872D01*
X118389056Y-94850872D01*
X118304568Y-94868831D01*
X118208712Y-94889206D01*
X118202682Y-94891891D01*
X118202681Y-94891891D01*
X118040278Y-94964197D01*
X118040276Y-94964198D01*
X118034248Y-94966882D01*
X118028907Y-94970762D01*
X118028906Y-94970763D01*
X117995905Y-94994740D01*
X117879747Y-95079134D01*
X117875326Y-95084044D01*
X117875325Y-95084045D01*
X117760823Y-95211213D01*
X117751960Y-95221056D01*
X117712179Y-95289959D01*
X117678265Y-95348700D01*
X117656473Y-95386444D01*
X117597458Y-95568072D01*
X117596768Y-95574633D01*
X117596768Y-95574635D01*
X117579632Y-95737680D01*
X117577496Y-95758000D01*
X117578186Y-95764565D01*
X117595863Y-95932749D01*
X117597458Y-95947928D01*
X117656473Y-96129556D01*
X117751960Y-96294944D01*
X117756378Y-96299851D01*
X117756379Y-96299852D01*
X117867120Y-96422842D01*
X117879747Y-96436866D01*
X118034248Y-96549118D01*
X118040276Y-96551802D01*
X118040278Y-96551803D01*
X118202681Y-96624109D01*
X118208712Y-96626794D01*
X118269016Y-96639612D01*
X118389056Y-96665128D01*
X118389061Y-96665128D01*
X118395513Y-96666500D01*
X118586487Y-96666500D01*
X118592939Y-96665128D01*
X118592944Y-96665128D01*
X118712984Y-96639612D01*
X118773288Y-96626794D01*
X118779319Y-96624109D01*
X118941722Y-96551803D01*
X118941724Y-96551802D01*
X118947752Y-96549118D01*
X119102253Y-96436866D01*
X119114880Y-96422842D01*
X119225621Y-96299852D01*
X119225622Y-96299851D01*
X119230040Y-96294944D01*
X119325527Y-96129556D01*
X119353390Y-96043803D01*
X119382502Y-95954207D01*
X119382502Y-95954205D01*
X119384542Y-95947928D01*
X119397755Y-95822213D01*
X119424768Y-95756558D01*
X119433970Y-95746290D01*
X119889205Y-95291055D01*
X119897985Y-95283065D01*
X119897987Y-95283063D01*
X119904680Y-95278816D01*
X119953205Y-95227142D01*
X119955959Y-95224301D01*
X119976527Y-95203733D01*
X119979247Y-95200226D01*
X119986953Y-95191204D01*
X120013144Y-95163313D01*
X120018572Y-95157533D01*
X120023595Y-95148396D01*
X120028903Y-95138742D01*
X120039757Y-95122218D01*
X120048045Y-95111532D01*
X120052904Y-95105268D01*
X120056052Y-95097994D01*
X120071254Y-95062865D01*
X120076476Y-95052205D01*
X120094905Y-95018684D01*
X120094906Y-95018682D01*
X120098724Y-95011737D01*
X120104059Y-94990959D01*
X120110458Y-94972269D01*
X120118980Y-94952576D01*
X120126206Y-94906952D01*
X120128613Y-94895329D01*
X120138128Y-94858268D01*
X120140100Y-94850588D01*
X120140100Y-94829141D01*
X120141651Y-94809431D01*
X120143766Y-94796077D01*
X120145006Y-94788248D01*
X120140659Y-94742259D01*
X120140100Y-94730404D01*
X120140100Y-93359001D01*
X120160102Y-93290880D01*
X120213758Y-93244387D01*
X120284032Y-93234283D01*
X120292292Y-93235753D01*
X120294053Y-93236127D01*
X120294054Y-93236127D01*
X120300513Y-93237500D01*
X120491487Y-93237500D01*
X120497939Y-93236128D01*
X120497944Y-93236128D01*
X120603936Y-93213598D01*
X120678288Y-93197794D01*
X120684315Y-93195111D01*
X120684323Y-93195108D01*
X120788977Y-93148513D01*
X120859344Y-93139079D01*
X120923641Y-93169186D01*
X120961454Y-93229275D01*
X120965535Y-93276789D01*
X120955696Y-93370400D01*
X120975658Y-93560328D01*
X121034673Y-93741956D01*
X121037976Y-93747678D01*
X121037977Y-93747679D01*
X121039994Y-93751173D01*
X121130160Y-93907344D01*
X121134578Y-93912251D01*
X121134579Y-93912252D01*
X121229090Y-94017217D01*
X121257947Y-94049266D01*
X121263289Y-94053147D01*
X121263291Y-94053149D01*
X121287279Y-94070577D01*
X121382182Y-94139528D01*
X121425535Y-94195749D01*
X121431610Y-94266485D01*
X121398479Y-94329277D01*
X121334318Y-94364709D01*
X121263176Y-94379831D01*
X121263167Y-94379834D01*
X121256712Y-94381206D01*
X121250682Y-94383891D01*
X121250681Y-94383891D01*
X121088278Y-94456197D01*
X121088276Y-94456198D01*
X121082248Y-94458882D01*
X121076907Y-94462762D01*
X121076906Y-94462763D01*
X121026843Y-94499136D01*
X120927747Y-94571134D01*
X120923326Y-94576044D01*
X120923325Y-94576045D01*
X120822792Y-94687699D01*
X120799960Y-94713056D01*
X120796659Y-94718774D01*
X120720607Y-94850500D01*
X120704473Y-94878444D01*
X120645458Y-95060072D01*
X120644768Y-95066633D01*
X120644768Y-95066635D01*
X120628726Y-95219269D01*
X120625496Y-95250000D01*
X120626186Y-95256565D01*
X120637597Y-95365131D01*
X120645458Y-95439928D01*
X120704473Y-95621556D01*
X120799960Y-95786944D01*
X120804378Y-95791851D01*
X120804379Y-95791852D01*
X120910631Y-95909857D01*
X120927747Y-95928866D01*
X121082248Y-96041118D01*
X121088276Y-96043802D01*
X121088278Y-96043803D01*
X121250681Y-96116109D01*
X121256712Y-96118794D01*
X121343009Y-96137137D01*
X121437056Y-96157128D01*
X121437061Y-96157128D01*
X121443513Y-96158500D01*
X121634487Y-96158500D01*
X121640939Y-96157128D01*
X121640944Y-96157128D01*
X121734991Y-96137137D01*
X121821288Y-96118794D01*
X121854611Y-96103958D01*
X121921621Y-96074123D01*
X121991988Y-96064689D01*
X122056285Y-96094795D01*
X122093867Y-96154077D01*
X122115123Y-96227240D01*
X122135855Y-96298601D01*
X122220547Y-96441807D01*
X122223229Y-96444489D01*
X122248502Y-96508861D01*
X122234600Y-96578484D01*
X122224428Y-96594312D01*
X122220547Y-96598193D01*
X122135855Y-96741399D01*
X122089438Y-96901169D01*
X122088934Y-96907574D01*
X122088933Y-96907579D01*
X122086693Y-96936042D01*
X122086500Y-96938498D01*
X122086500Y-97371502D01*
X122086693Y-97373950D01*
X122086693Y-97373958D01*
X122087222Y-97380671D01*
X122089438Y-97408831D01*
X122103032Y-97455621D01*
X122127206Y-97538829D01*
X122135855Y-97568601D01*
X122220547Y-97711807D01*
X122223229Y-97714489D01*
X122248502Y-97778861D01*
X122234600Y-97848484D01*
X122224428Y-97864312D01*
X122220547Y-97868193D01*
X122135855Y-98011399D01*
X122133644Y-98019010D01*
X122133643Y-98019012D01*
X122126306Y-98044268D01*
X122089438Y-98171169D01*
X122086500Y-98208498D01*
X122086500Y-98641502D01*
X122086693Y-98643950D01*
X122086693Y-98643958D01*
X122087828Y-98658373D01*
X122089438Y-98678831D01*
X122135855Y-98838601D01*
X122139891Y-98845426D01*
X122143038Y-98852697D01*
X122141568Y-98853333D01*
X122156774Y-98913267D01*
X122134256Y-98980599D01*
X122078912Y-99025067D01*
X122008311Y-99032555D01*
X121979612Y-99023696D01*
X121827319Y-98955891D01*
X121827318Y-98955891D01*
X121821288Y-98953206D01*
X121726542Y-98933067D01*
X121640944Y-98914872D01*
X121640939Y-98914872D01*
X121634487Y-98913500D01*
X121443513Y-98913500D01*
X121437061Y-98914872D01*
X121437056Y-98914872D01*
X121351458Y-98933067D01*
X121256712Y-98953206D01*
X121250685Y-98955889D01*
X121250677Y-98955892D01*
X121120548Y-99013829D01*
X121050181Y-99023263D01*
X120985884Y-98993156D01*
X120948071Y-98933067D01*
X120943300Y-98898722D01*
X120943300Y-97973866D01*
X120936545Y-97911684D01*
X120885415Y-97775295D01*
X120798061Y-97658739D01*
X120681505Y-97571385D01*
X120545116Y-97520255D01*
X120482934Y-97513500D01*
X118886666Y-97513500D01*
X118824484Y-97520255D01*
X118688095Y-97571385D01*
X118571539Y-97658739D01*
X118484185Y-97775295D01*
X118481033Y-97783703D01*
X118476723Y-97791575D01*
X118475059Y-97790664D01*
X118439137Y-97838490D01*
X118372576Y-97863193D01*
X118363791Y-97863500D01*
X117830809Y-97863500D01*
X117762688Y-97843498D01*
X117716195Y-97789842D01*
X117713897Y-97784306D01*
X117713567Y-97783703D01*
X117710415Y-97775295D01*
X117623061Y-97658739D01*
X117506505Y-97571385D01*
X117370116Y-97520255D01*
X117307934Y-97513500D01*
X117294300Y-97513500D01*
X117226179Y-97493498D01*
X117179686Y-97439842D01*
X117168300Y-97387500D01*
X117168300Y-94697056D01*
X117168859Y-94685200D01*
X117168859Y-94685197D01*
X117170588Y-94677463D01*
X117168362Y-94606631D01*
X117168300Y-94602673D01*
X117168300Y-93814660D01*
X117188302Y-93746539D01*
X117205127Y-93725642D01*
X117292134Y-93638483D01*
X117297305Y-93633303D01*
X117301146Y-93627072D01*
X117386275Y-93488968D01*
X117386276Y-93488966D01*
X117390115Y-93482738D01*
X117429553Y-93363836D01*
X117443632Y-93321389D01*
X117443632Y-93321387D01*
X117445797Y-93314861D01*
X117456500Y-93210400D01*
X117456500Y-92209600D01*
X117455615Y-92201072D01*
X117446238Y-92110692D01*
X117446237Y-92110688D01*
X117445526Y-92103834D01*
X117415754Y-92014595D01*
X117391868Y-91943002D01*
X117389550Y-91936054D01*
X117296478Y-91785652D01*
X117227576Y-91716870D01*
X117177982Y-91667362D01*
X117143903Y-91605079D01*
X117141000Y-91578189D01*
X117141000Y-91321779D01*
X117161002Y-91253658D01*
X117188736Y-91223033D01*
X117189622Y-91222331D01*
X117195848Y-91218478D01*
X117320805Y-91093303D01*
X117413615Y-90942738D01*
X117464601Y-90789020D01*
X117467132Y-90781389D01*
X117467132Y-90781387D01*
X117469297Y-90774861D01*
X117480000Y-90670400D01*
X117480000Y-89669600D01*
X117469026Y-89563834D01*
X117413050Y-89396054D01*
X117319978Y-89245652D01*
X117194803Y-89120695D01*
X117188835Y-89117016D01*
X117147846Y-89059205D01*
X117141000Y-89018238D01*
X117141000Y-88797165D01*
X117161002Y-88729044D01*
X117200695Y-88690022D01*
X117213123Y-88682331D01*
X117213128Y-88682327D01*
X117219348Y-88678478D01*
X117344305Y-88553303D01*
X117363445Y-88522252D01*
X117433275Y-88408968D01*
X117433276Y-88408966D01*
X117437115Y-88402738D01*
X117480757Y-88271161D01*
X117490632Y-88241389D01*
X117490632Y-88241387D01*
X117492797Y-88234861D01*
X117503500Y-88130400D01*
X117503500Y-87129600D01*
X117499073Y-87086929D01*
X117493238Y-87030692D01*
X117493237Y-87030688D01*
X117492526Y-87023834D01*
X117436550Y-86856054D01*
X117343478Y-86705652D01*
X117218303Y-86580695D01*
X117200884Y-86569958D01*
X117153391Y-86517187D01*
X117141000Y-86462698D01*
X117141000Y-86257165D01*
X117161002Y-86189044D01*
X117200695Y-86150022D01*
X117213123Y-86142331D01*
X117213128Y-86142327D01*
X117219348Y-86138478D01*
X117344305Y-86013303D01*
X117437115Y-85862738D01*
X117474491Y-85750051D01*
X117490632Y-85701389D01*
X117490632Y-85701387D01*
X117492797Y-85694861D01*
X117496738Y-85656402D01*
X117502536Y-85599805D01*
X117503500Y-85590400D01*
X117503500Y-84589600D01*
X117492526Y-84483834D01*
X117436550Y-84316054D01*
X117343478Y-84165652D01*
X117218303Y-84040695D01*
X117083823Y-83957800D01*
X117073968Y-83951725D01*
X117073966Y-83951724D01*
X117067738Y-83947885D01*
X116982877Y-83919738D01*
X116906389Y-83894368D01*
X116906387Y-83894368D01*
X116899861Y-83892203D01*
X116893025Y-83891503D01*
X116893022Y-83891502D01*
X116849969Y-83887091D01*
X116795400Y-83881500D01*
X116169600Y-83881500D01*
X116166354Y-83881837D01*
X116166350Y-83881837D01*
X116136417Y-83884943D01*
X116063834Y-83892474D01*
X116053553Y-83895904D01*
X116051102Y-83895993D01*
X116050557Y-83896111D01*
X116050536Y-83896014D01*
X115982606Y-83898488D01*
X115924584Y-83865475D01*
X115691984Y-83632875D01*
X115683994Y-83624095D01*
X115683992Y-83624093D01*
X115679745Y-83617400D01*
X115628071Y-83568875D01*
X115625230Y-83566121D01*
X115604662Y-83545553D01*
X115601155Y-83542833D01*
X115592133Y-83535127D01*
X115564242Y-83508936D01*
X115558462Y-83503508D01*
X115551510Y-83499686D01*
X115539671Y-83493177D01*
X115523147Y-83482323D01*
X115512461Y-83474035D01*
X115506197Y-83469176D01*
X115498925Y-83466029D01*
X115498923Y-83466028D01*
X115463794Y-83450826D01*
X115453134Y-83445604D01*
X115419613Y-83427175D01*
X115419611Y-83427174D01*
X115412666Y-83423356D01*
X115391888Y-83418021D01*
X115373198Y-83411622D01*
X115353505Y-83403100D01*
X115307881Y-83395874D01*
X115296258Y-83393467D01*
X115268257Y-83386278D01*
X115251517Y-83381980D01*
X115230070Y-83381980D01*
X115210360Y-83380429D01*
X115197006Y-83378314D01*
X115189177Y-83377074D01*
X115143188Y-83381421D01*
X115131333Y-83381980D01*
X113981830Y-83381980D01*
X113913709Y-83361978D01*
X113892734Y-83345075D01*
X113674604Y-83126944D01*
X113640579Y-83064632D01*
X113637700Y-83037849D01*
X113637700Y-82663802D01*
X113657702Y-82595681D01*
X113711358Y-82549188D01*
X113781632Y-82539084D01*
X113808648Y-82546092D01*
X113914996Y-82586702D01*
X113924899Y-82589579D01*
X114028250Y-82610606D01*
X114042299Y-82609410D01*
X114046000Y-82599065D01*
X114046000Y-82598517D01*
X114554000Y-82598517D01*
X114558064Y-82612359D01*
X114571478Y-82614393D01*
X114578184Y-82613534D01*
X114588262Y-82611392D01*
X114792255Y-82550191D01*
X114801842Y-82546433D01*
X114993095Y-82452739D01*
X115001945Y-82447464D01*
X115175328Y-82323792D01*
X115183200Y-82317139D01*
X115334052Y-82166812D01*
X115340730Y-82158965D01*
X115465003Y-81986020D01*
X115470313Y-81977183D01*
X115564670Y-81786267D01*
X115568469Y-81776672D01*
X115630377Y-81572910D01*
X115632555Y-81562837D01*
X115633986Y-81551962D01*
X115631775Y-81537778D01*
X115618617Y-81534000D01*
X114572115Y-81534000D01*
X114556876Y-81538475D01*
X114555671Y-81539865D01*
X114554000Y-81547548D01*
X114554000Y-82598517D01*
X114046000Y-82598517D01*
X114046000Y-81152000D01*
X114066002Y-81083879D01*
X114119658Y-81037386D01*
X114172000Y-81026000D01*
X115618344Y-81026000D01*
X115631875Y-81022027D01*
X115633180Y-81012947D01*
X115591214Y-80845875D01*
X115587894Y-80836124D01*
X115502972Y-80640814D01*
X115498105Y-80631739D01*
X115382426Y-80452926D01*
X115376136Y-80444757D01*
X115232806Y-80287240D01*
X115225273Y-80280215D01*
X115058139Y-80148222D01*
X115049556Y-80142520D01*
X115012602Y-80122120D01*
X114962631Y-80071687D01*
X114947859Y-80002245D01*
X114972975Y-79935839D01*
X115000327Y-79909232D01*
X115023797Y-79892491D01*
X115179860Y-79781173D01*
X115338096Y-79623489D01*
X115468453Y-79442077D01*
X115506132Y-79365840D01*
X115565136Y-79246453D01*
X115565137Y-79246451D01*
X115567430Y-79241811D01*
X115632370Y-79028069D01*
X115661529Y-78806590D01*
X115661717Y-78798889D01*
X115663074Y-78743365D01*
X115663074Y-78743361D01*
X115663156Y-78740000D01*
X115644852Y-78517361D01*
X115642383Y-78507529D01*
X115627899Y-78449868D01*
X115590431Y-78300702D01*
X115501354Y-78095840D01*
X115380014Y-77908277D01*
X115229670Y-77743051D01*
X115225619Y-77739852D01*
X115225615Y-77739848D01*
X115058414Y-77607800D01*
X115058410Y-77607798D01*
X115054359Y-77604598D01*
X115013053Y-77581796D01*
X114963084Y-77531364D01*
X114948312Y-77461921D01*
X114973428Y-77395516D01*
X115000780Y-77368909D01*
X115081689Y-77311197D01*
X115179860Y-77241173D01*
X115184845Y-77236206D01*
X115261209Y-77160107D01*
X115338096Y-77083489D01*
X115375664Y-77031208D01*
X115465435Y-76906277D01*
X115468453Y-76902077D01*
X115501605Y-76835000D01*
X115565136Y-76706453D01*
X115565137Y-76706451D01*
X115567430Y-76701811D01*
X115591424Y-76622839D01*
X115622887Y-76570373D01*
X116993599Y-75199660D01*
X117002380Y-75191670D01*
X117002391Y-75191661D01*
X117009080Y-75187416D01*
X117057621Y-75135726D01*
X117060343Y-75132917D01*
X117080926Y-75112333D01*
X117083638Y-75108837D01*
X117091349Y-75099808D01*
X117117544Y-75071913D01*
X117122972Y-75066133D01*
X117133301Y-75047345D01*
X117144158Y-75030816D01*
X117152447Y-75020131D01*
X117152448Y-75020129D01*
X117157304Y-75013869D01*
X117175657Y-74971456D01*
X117180868Y-74960819D01*
X117203124Y-74920337D01*
X117208457Y-74899566D01*
X117214859Y-74880864D01*
X117223379Y-74861177D01*
X117230605Y-74815552D01*
X117233013Y-74803926D01*
X117242529Y-74766865D01*
X117242529Y-74766864D01*
X117244500Y-74759188D01*
X117244500Y-74737742D01*
X117246051Y-74718031D01*
X117246464Y-74715427D01*
X117249406Y-74696849D01*
X117245059Y-74650864D01*
X117244500Y-74639006D01*
X117244500Y-68498550D01*
X117264502Y-68430429D01*
X117281405Y-68409455D01*
X119590455Y-66100405D01*
X119652767Y-66066379D01*
X119679550Y-66063500D01*
X121778650Y-66063500D01*
X121846771Y-66083502D01*
G37*
G04 #@! TD.AperFunction*
G04 #@! TA.AperFunction,Conductor*
G36*
X122068688Y-69568338D02*
G01*
X122125524Y-69610885D01*
X122135812Y-69628627D01*
X122135855Y-69628601D01*
X122220547Y-69771807D01*
X122223229Y-69774489D01*
X122248502Y-69838861D01*
X122234600Y-69908484D01*
X122224428Y-69924312D01*
X122220547Y-69928193D01*
X122135855Y-70071399D01*
X122089438Y-70231169D01*
X122086500Y-70268498D01*
X122086500Y-70701502D01*
X122086693Y-70703950D01*
X122086693Y-70703958D01*
X122088079Y-70721561D01*
X122089438Y-70738831D01*
X122135855Y-70898601D01*
X122220547Y-71041807D01*
X122223229Y-71044489D01*
X122248502Y-71108861D01*
X122234600Y-71178484D01*
X122224428Y-71194312D01*
X122220547Y-71198193D01*
X122135855Y-71341399D01*
X122089438Y-71501169D01*
X122088934Y-71507574D01*
X122088933Y-71507579D01*
X122086978Y-71532425D01*
X122086500Y-71538498D01*
X122086500Y-71971502D01*
X122089438Y-72008831D01*
X122091233Y-72015008D01*
X122126016Y-72134733D01*
X122135855Y-72168601D01*
X122220547Y-72311807D01*
X122223229Y-72314489D01*
X122248502Y-72378861D01*
X122234600Y-72448484D01*
X122224428Y-72464312D01*
X122220547Y-72468193D01*
X122135855Y-72611399D01*
X122133644Y-72619010D01*
X122133643Y-72619012D01*
X122128263Y-72637530D01*
X122089438Y-72771169D01*
X122088934Y-72777574D01*
X122088933Y-72777579D01*
X122086693Y-72806042D01*
X122086500Y-72808498D01*
X122086500Y-73241502D01*
X122089438Y-73278831D01*
X122091233Y-73285008D01*
X122127461Y-73409707D01*
X122135855Y-73438601D01*
X122220547Y-73581807D01*
X122223229Y-73584489D01*
X122248502Y-73648861D01*
X122234600Y-73718484D01*
X122224428Y-73734312D01*
X122220547Y-73738193D01*
X122135855Y-73881399D01*
X122089438Y-74041169D01*
X122086500Y-74078498D01*
X122086500Y-74511502D01*
X122089438Y-74548831D01*
X122094331Y-74565673D01*
X122127461Y-74679707D01*
X122135855Y-74708601D01*
X122220547Y-74851807D01*
X122223229Y-74854489D01*
X122248502Y-74918861D01*
X122234600Y-74988484D01*
X122224428Y-75004312D01*
X122220547Y-75008193D01*
X122135855Y-75151399D01*
X122133644Y-75159010D01*
X122133643Y-75159012D01*
X122129282Y-75174023D01*
X122089438Y-75311169D01*
X122086500Y-75348498D01*
X122086500Y-75781502D01*
X122089438Y-75818831D01*
X122135855Y-75978601D01*
X122220547Y-76121807D01*
X122223229Y-76124489D01*
X122248502Y-76188861D01*
X122234600Y-76258484D01*
X122224428Y-76274312D01*
X122220547Y-76278193D01*
X122135855Y-76421399D01*
X122089438Y-76581169D01*
X122088934Y-76587574D01*
X122088933Y-76587579D01*
X122087129Y-76610506D01*
X122086500Y-76618498D01*
X122086500Y-77051502D01*
X122089438Y-77088831D01*
X122094331Y-77105673D01*
X122127461Y-77219707D01*
X122135855Y-77248601D01*
X122220547Y-77391807D01*
X122223229Y-77394489D01*
X122248502Y-77458861D01*
X122234600Y-77528484D01*
X122224428Y-77544312D01*
X122220547Y-77548193D01*
X122135855Y-77691399D01*
X122133644Y-77699010D01*
X122133643Y-77699012D01*
X122123640Y-77733444D01*
X122089438Y-77851169D01*
X122086500Y-77888498D01*
X122086500Y-78321502D01*
X122089438Y-78358831D01*
X122135855Y-78518601D01*
X122139892Y-78525427D01*
X122211703Y-78646852D01*
X122220547Y-78661807D01*
X122223487Y-78664747D01*
X122248820Y-78729266D01*
X122234921Y-78798889D01*
X122222874Y-78817636D01*
X122216910Y-78825324D01*
X122140352Y-78954779D01*
X122134107Y-78969210D01*
X122095061Y-79103605D01*
X122095101Y-79117706D01*
X122102370Y-79121000D01*
X125131878Y-79121000D01*
X125147049Y-79116545D01*
X125174249Y-79056987D01*
X125233976Y-79018604D01*
X125269473Y-79013500D01*
X125404300Y-79013500D01*
X125472421Y-79033502D01*
X125518914Y-79087158D01*
X125530300Y-79139500D01*
X125530300Y-94850500D01*
X125510298Y-94918621D01*
X125456642Y-94965114D01*
X125404300Y-94976500D01*
X125278395Y-94976500D01*
X125210274Y-94956498D01*
X125163781Y-94902842D01*
X125152783Y-94840616D01*
X125153306Y-94833963D01*
X125153500Y-94831502D01*
X125153500Y-94398498D01*
X125153307Y-94396042D01*
X125151067Y-94367579D01*
X125151066Y-94367574D01*
X125150562Y-94361169D01*
X125109462Y-94219699D01*
X125106357Y-94209012D01*
X125106356Y-94209010D01*
X125104145Y-94201399D01*
X125019453Y-94058193D01*
X125016771Y-94055511D01*
X124991498Y-93991139D01*
X125005400Y-93921516D01*
X125015572Y-93905688D01*
X125019453Y-93901807D01*
X125104145Y-93758601D01*
X125107650Y-93746539D01*
X125148767Y-93605008D01*
X125150562Y-93598831D01*
X125151762Y-93583595D01*
X125153307Y-93563958D01*
X125153307Y-93563950D01*
X125153500Y-93561502D01*
X125153500Y-93128498D01*
X125153307Y-93126042D01*
X125151067Y-93097579D01*
X125151066Y-93097574D01*
X125150562Y-93091169D01*
X125104145Y-92931399D01*
X125019453Y-92788193D01*
X125016771Y-92785511D01*
X124991498Y-92721139D01*
X125005400Y-92651516D01*
X125015572Y-92635688D01*
X125019453Y-92631807D01*
X125104145Y-92488601D01*
X125109513Y-92470126D01*
X125123317Y-92422609D01*
X125150562Y-92328831D01*
X125153500Y-92291502D01*
X125153500Y-91858498D01*
X125153307Y-91856042D01*
X125151067Y-91827579D01*
X125151066Y-91827574D01*
X125150562Y-91821169D01*
X125104145Y-91661399D01*
X125058344Y-91583954D01*
X125023491Y-91525020D01*
X125023489Y-91525017D01*
X125019453Y-91518193D01*
X124901807Y-91400547D01*
X124894983Y-91396511D01*
X124894980Y-91396509D01*
X124765427Y-91319892D01*
X124765428Y-91319892D01*
X124758601Y-91315855D01*
X124750990Y-91313644D01*
X124750988Y-91313643D01*
X124694737Y-91297301D01*
X124598831Y-91269438D01*
X124592426Y-91268934D01*
X124592421Y-91268933D01*
X124563958Y-91266693D01*
X124563950Y-91266693D01*
X124561502Y-91266500D01*
X122678498Y-91266500D01*
X122676050Y-91266693D01*
X122676042Y-91266693D01*
X122647579Y-91268933D01*
X122647574Y-91268934D01*
X122641169Y-91269438D01*
X122634997Y-91271231D01*
X122634992Y-91271232D01*
X122578393Y-91287676D01*
X122566918Y-91291010D01*
X122566219Y-91291213D01*
X122495223Y-91291010D01*
X122441971Y-91259311D01*
X121485305Y-90302645D01*
X121451279Y-90240333D01*
X121448400Y-90213550D01*
X121448400Y-88126959D01*
X121468402Y-88058838D01*
X121480764Y-88042649D01*
X121524521Y-87994052D01*
X121524522Y-87994051D01*
X121528940Y-87989144D01*
X121624427Y-87823756D01*
X121683442Y-87642128D01*
X121703404Y-87452200D01*
X121683442Y-87262272D01*
X121624427Y-87080644D01*
X121528940Y-86915256D01*
X121524191Y-86909981D01*
X121405575Y-86778245D01*
X121405574Y-86778244D01*
X121401153Y-86773334D01*
X121300877Y-86700479D01*
X121251994Y-86664963D01*
X121251993Y-86664962D01*
X121246652Y-86661082D01*
X121240624Y-86658398D01*
X121240622Y-86658397D01*
X121078219Y-86586091D01*
X121078218Y-86586091D01*
X121072188Y-86583406D01*
X120978787Y-86563553D01*
X120891844Y-86545072D01*
X120891839Y-86545072D01*
X120885387Y-86543700D01*
X120824889Y-86543700D01*
X120756768Y-86523698D01*
X120710275Y-86470042D01*
X120698889Y-86417700D01*
X120698889Y-79640871D01*
X122093456Y-79640871D01*
X122134107Y-79780790D01*
X122140352Y-79795221D01*
X122216911Y-79924678D01*
X122226551Y-79937104D01*
X122332896Y-80043449D01*
X122345322Y-80053089D01*
X122474779Y-80129648D01*
X122489210Y-80135893D01*
X122635065Y-80178269D01*
X122647667Y-80180570D01*
X122676084Y-80182807D01*
X122681014Y-80183000D01*
X123347885Y-80183000D01*
X123363124Y-80178525D01*
X123364329Y-80177135D01*
X123366000Y-80169452D01*
X123366000Y-80164884D01*
X123874000Y-80164884D01*
X123878475Y-80180123D01*
X123879865Y-80181328D01*
X123887548Y-80182999D01*
X124558984Y-80182999D01*
X124563920Y-80182805D01*
X124592336Y-80180570D01*
X124604931Y-80178270D01*
X124750790Y-80135893D01*
X124765221Y-80129648D01*
X124894678Y-80053089D01*
X124907104Y-80043449D01*
X125013449Y-79937104D01*
X125023089Y-79924678D01*
X125099648Y-79795221D01*
X125105893Y-79780790D01*
X125144939Y-79646395D01*
X125144899Y-79632294D01*
X125137630Y-79629000D01*
X123892115Y-79629000D01*
X123876876Y-79633475D01*
X123875671Y-79634865D01*
X123874000Y-79642548D01*
X123874000Y-80164884D01*
X123366000Y-80164884D01*
X123366000Y-79647115D01*
X123361525Y-79631876D01*
X123360135Y-79630671D01*
X123352452Y-79629000D01*
X122108122Y-79629000D01*
X122094591Y-79632973D01*
X122093456Y-79640871D01*
X120698889Y-79640871D01*
X120698889Y-70886161D01*
X120718891Y-70818040D01*
X120735794Y-70797066D01*
X121935561Y-69597299D01*
X121997873Y-69563273D01*
X122068688Y-69568338D01*
G37*
G04 #@! TD.AperFunction*
G04 #@! TA.AperFunction,Conductor*
G36*
X134566567Y-78526711D02*
G01*
X134596765Y-78561932D01*
X134642960Y-78641944D01*
X134647378Y-78646851D01*
X134647379Y-78646852D01*
X134752409Y-78763500D01*
X134770747Y-78783866D01*
X134817994Y-78818193D01*
X134900036Y-78877800D01*
X134925248Y-78896118D01*
X134931276Y-78898802D01*
X134931278Y-78898803D01*
X135057003Y-78954779D01*
X135099712Y-78973794D01*
X135193113Y-78993647D01*
X135280056Y-79012128D01*
X135280061Y-79012128D01*
X135286513Y-79013500D01*
X135477487Y-79013500D01*
X135483939Y-79012128D01*
X135483944Y-79012128D01*
X135570887Y-78993647D01*
X135664288Y-78973794D01*
X135706997Y-78954779D01*
X135832722Y-78898803D01*
X135832724Y-78898802D01*
X135838752Y-78896118D01*
X135863965Y-78877800D01*
X135972576Y-78798889D01*
X135988163Y-78787564D01*
X136055031Y-78763706D01*
X136062224Y-78763500D01*
X141280050Y-78763500D01*
X141348171Y-78783502D01*
X141369145Y-78800405D01*
X147232101Y-84663361D01*
X147266127Y-84725673D01*
X147264424Y-84786125D01*
X147250989Y-84834570D01*
X147227251Y-85056695D01*
X147227548Y-85061848D01*
X147227548Y-85061851D01*
X147233011Y-85156590D01*
X147240110Y-85279715D01*
X147241247Y-85284761D01*
X147241248Y-85284767D01*
X147261119Y-85372939D01*
X147289222Y-85497639D01*
X147373266Y-85704616D01*
X147412415Y-85768502D01*
X147473981Y-85868968D01*
X147489987Y-85895088D01*
X147636250Y-86063938D01*
X147808126Y-86206632D01*
X147845164Y-86228275D01*
X147881955Y-86249774D01*
X147930679Y-86301412D01*
X147943750Y-86371195D01*
X147917019Y-86436967D01*
X147876562Y-86470327D01*
X147868457Y-86474546D01*
X147859738Y-86480036D01*
X147689433Y-86607905D01*
X147681726Y-86614748D01*
X147534590Y-86768717D01*
X147528104Y-86776727D01*
X147408098Y-86952649D01*
X147403000Y-86961623D01*
X147313338Y-87154783D01*
X147309775Y-87164470D01*
X147254389Y-87364183D01*
X147255912Y-87372607D01*
X147268292Y-87376000D01*
X149025500Y-87376000D01*
X149093621Y-87396002D01*
X149140114Y-87449658D01*
X149151500Y-87502000D01*
X149151500Y-87758000D01*
X149131498Y-87826121D01*
X149077842Y-87872614D01*
X149025500Y-87884000D01*
X147273225Y-87884000D01*
X147259694Y-87887973D01*
X147258257Y-87897966D01*
X147288565Y-88032446D01*
X147291645Y-88042275D01*
X147371770Y-88239603D01*
X147376413Y-88248794D01*
X147487694Y-88430388D01*
X147493777Y-88438699D01*
X147633213Y-88599667D01*
X147640580Y-88606883D01*
X147804434Y-88742916D01*
X147812881Y-88748831D01*
X147881969Y-88789203D01*
X147930693Y-88840842D01*
X147943764Y-88910625D01*
X147917033Y-88976396D01*
X147876584Y-89009752D01*
X147863607Y-89016507D01*
X147859474Y-89019610D01*
X147859471Y-89019612D01*
X147716838Y-89126704D01*
X147684965Y-89150635D01*
X147530629Y-89312138D01*
X147404743Y-89496680D01*
X147376606Y-89557296D01*
X147313492Y-89693265D01*
X147310688Y-89699305D01*
X147250989Y-89914570D01*
X147227251Y-90136695D01*
X147227548Y-90141848D01*
X147227548Y-90141851D01*
X147236819Y-90302645D01*
X147240110Y-90359715D01*
X147241247Y-90364761D01*
X147241248Y-90364767D01*
X147261119Y-90452939D01*
X147289222Y-90577639D01*
X147373266Y-90784616D01*
X147375965Y-90789020D01*
X147473981Y-90948968D01*
X147489987Y-90975088D01*
X147636250Y-91143938D01*
X147808126Y-91286632D01*
X147865044Y-91319892D01*
X147881445Y-91329476D01*
X147930169Y-91381114D01*
X147943240Y-91450897D01*
X147916509Y-91516669D01*
X147876055Y-91550027D01*
X147863607Y-91556507D01*
X147859474Y-91559610D01*
X147859471Y-91559612D01*
X147713764Y-91669012D01*
X147684965Y-91690635D01*
X147681393Y-91694373D01*
X147566127Y-91814992D01*
X147530629Y-91852138D01*
X147527720Y-91856403D01*
X147527714Y-91856411D01*
X147432149Y-91996504D01*
X147377238Y-92041507D01*
X147328061Y-92051500D01*
X145136661Y-92051500D01*
X145068540Y-92031498D01*
X145047566Y-92014595D01*
X133615405Y-80582433D01*
X133581379Y-80520121D01*
X133578500Y-80493338D01*
X133578500Y-80309500D01*
X133598502Y-80241379D01*
X133652158Y-80194886D01*
X133704500Y-80183500D01*
X133861502Y-80183500D01*
X133863950Y-80183307D01*
X133863958Y-80183307D01*
X133892421Y-80181067D01*
X133892426Y-80181066D01*
X133898831Y-80180562D01*
X134029774Y-80142520D01*
X134050988Y-80136357D01*
X134050990Y-80136356D01*
X134058601Y-80134145D01*
X134113373Y-80101753D01*
X134194980Y-80053491D01*
X134194983Y-80053489D01*
X134201807Y-80049453D01*
X134319453Y-79931807D01*
X134323489Y-79924983D01*
X134323491Y-79924980D01*
X134400108Y-79795427D01*
X134404145Y-79788601D01*
X134406415Y-79780790D01*
X134445669Y-79645673D01*
X134450562Y-79628831D01*
X134453500Y-79591502D01*
X134453500Y-79158498D01*
X134450562Y-79121169D01*
X134418221Y-79009848D01*
X134406357Y-78969012D01*
X134406356Y-78969010D01*
X134404145Y-78961399D01*
X134319453Y-78818193D01*
X134316771Y-78815511D01*
X134291498Y-78751139D01*
X134305400Y-78681516D01*
X134315572Y-78665688D01*
X134319453Y-78661807D01*
X134379194Y-78560791D01*
X134431086Y-78512340D01*
X134500936Y-78499635D01*
X134566567Y-78526711D01*
G37*
G04 #@! TD.AperFunction*
M02*
