G04 #@! TF.GenerationSoftware,KiCad,Pcbnew,6.0.4-1.fc35*
G04 #@! TF.CreationDate,2022-04-07T10:49:23-04:00*
G04 #@! TF.ProjectId,switch_mux_breakout,73776974-6368-45f6-9d75-785f62726561,0*
G04 #@! TF.SameCoordinates,Original*
G04 #@! TF.FileFunction,Legend,Bot*
G04 #@! TF.FilePolarity,Positive*
%FSLAX46Y46*%
G04 Gerber Fmt 4.6, Leading zero omitted, Abs format (unit mm)*
G04 Created by KiCad (PCBNEW 6.0.4-1.fc35) date 2022-04-07 10:49:23*
%MOMM*%
%LPD*%
G01*
G04 APERTURE LIST*
%ADD10C,0.150000*%
%ADD11R,1.600000X1.600000*%
%ADD12O,1.600000X1.600000*%
%ADD13R,1.700000X1.700000*%
%ADD14O,1.700000X1.700000*%
%ADD15C,5.600000*%
G04 APERTURE END LIST*
D10*
X138777023Y-93659761D02*
X138634166Y-93707380D01*
X138396071Y-93707380D01*
X138300833Y-93659761D01*
X138253214Y-93612142D01*
X138205595Y-93516904D01*
X138205595Y-93421666D01*
X138253214Y-93326428D01*
X138300833Y-93278809D01*
X138396071Y-93231190D01*
X138586547Y-93183571D01*
X138681785Y-93135952D01*
X138729404Y-93088333D01*
X138777023Y-92993095D01*
X138777023Y-92897857D01*
X138729404Y-92802619D01*
X138681785Y-92755000D01*
X138586547Y-92707380D01*
X138348452Y-92707380D01*
X138205595Y-92755000D01*
X137396071Y-93659761D02*
X137491309Y-93707380D01*
X137681785Y-93707380D01*
X137777023Y-93659761D01*
X137824642Y-93564523D01*
X137824642Y-93183571D01*
X137777023Y-93088333D01*
X137681785Y-93040714D01*
X137491309Y-93040714D01*
X137396071Y-93088333D01*
X137348452Y-93183571D01*
X137348452Y-93278809D01*
X137824642Y-93374047D01*
X137062738Y-93040714D02*
X136681785Y-93040714D01*
X136919880Y-92707380D02*
X136919880Y-93564523D01*
X136872261Y-93659761D01*
X136777023Y-93707380D01*
X136681785Y-93707380D01*
X135586547Y-93040714D02*
X135586547Y-93897857D01*
X135634166Y-93993095D01*
X135729404Y-94040714D01*
X135777023Y-94040714D01*
X135586547Y-92707380D02*
X135634166Y-92755000D01*
X135586547Y-92802619D01*
X135538928Y-92755000D01*
X135586547Y-92707380D01*
X135586547Y-92802619D01*
X134681785Y-93040714D02*
X134681785Y-93707380D01*
X135110357Y-93040714D02*
X135110357Y-93564523D01*
X135062738Y-93659761D01*
X134967500Y-93707380D01*
X134824642Y-93707380D01*
X134729404Y-93659761D01*
X134681785Y-93612142D01*
X134205595Y-93707380D02*
X134205595Y-93040714D01*
X134205595Y-93135952D02*
X134157976Y-93088333D01*
X134062738Y-93040714D01*
X133919880Y-93040714D01*
X133824642Y-93088333D01*
X133777023Y-93183571D01*
X133777023Y-93707380D01*
X133777023Y-93183571D02*
X133729404Y-93088333D01*
X133634166Y-93040714D01*
X133491309Y-93040714D01*
X133396071Y-93088333D01*
X133348452Y-93183571D01*
X133348452Y-93707380D01*
X132872261Y-93040714D02*
X132872261Y-94040714D01*
X132872261Y-93088333D02*
X132777023Y-93040714D01*
X132586547Y-93040714D01*
X132491309Y-93088333D01*
X132443690Y-93135952D01*
X132396071Y-93231190D01*
X132396071Y-93516904D01*
X132443690Y-93612142D01*
X132491309Y-93659761D01*
X132586547Y-93707380D01*
X132777023Y-93707380D01*
X132872261Y-93659761D01*
X131586547Y-93659761D02*
X131681785Y-93707380D01*
X131872261Y-93707380D01*
X131967500Y-93659761D01*
X132015119Y-93564523D01*
X132015119Y-93183571D01*
X131967500Y-93088333D01*
X131872261Y-93040714D01*
X131681785Y-93040714D01*
X131586547Y-93088333D01*
X131538928Y-93183571D01*
X131538928Y-93278809D01*
X132015119Y-93374047D01*
X131110357Y-93707380D02*
X131110357Y-93040714D01*
X131110357Y-93231190D02*
X131062738Y-93135952D01*
X131015119Y-93088333D01*
X130919880Y-93040714D01*
X130824642Y-93040714D01*
X129872261Y-93040714D02*
X129491309Y-93040714D01*
X129729404Y-92707380D02*
X129729404Y-93564523D01*
X129681785Y-93659761D01*
X129586547Y-93707380D01*
X129491309Y-93707380D01*
X129015119Y-93707380D02*
X129110357Y-93659761D01*
X129157976Y-93612142D01*
X129205595Y-93516904D01*
X129205595Y-93231190D01*
X129157976Y-93135952D01*
X129110357Y-93088333D01*
X129015119Y-93040714D01*
X128872261Y-93040714D01*
X128777023Y-93088333D01*
X128729404Y-93135952D01*
X128681785Y-93231190D01*
X128681785Y-93516904D01*
X128729404Y-93612142D01*
X128777023Y-93659761D01*
X128872261Y-93707380D01*
X129015119Y-93707380D01*
X138681785Y-94317380D02*
X138777023Y-94507857D01*
X138253214Y-95317380D02*
X138253214Y-94317380D01*
X137824642Y-95317380D02*
X137824642Y-94793571D01*
X137872261Y-94698333D01*
X137967500Y-94650714D01*
X138110357Y-94650714D01*
X138205595Y-94698333D01*
X138253214Y-94745952D01*
X137348452Y-95317380D02*
X137348452Y-94650714D01*
X137348452Y-94317380D02*
X137396071Y-94365000D01*
X137348452Y-94412619D01*
X137300833Y-94365000D01*
X137348452Y-94317380D01*
X137348452Y-94412619D01*
X136443690Y-94650714D02*
X136443690Y-95460238D01*
X136491309Y-95555476D01*
X136538928Y-95603095D01*
X136634166Y-95650714D01*
X136777023Y-95650714D01*
X136872261Y-95603095D01*
X136443690Y-95269761D02*
X136538928Y-95317380D01*
X136729404Y-95317380D01*
X136824642Y-95269761D01*
X136872261Y-95222142D01*
X136919880Y-95126904D01*
X136919880Y-94841190D01*
X136872261Y-94745952D01*
X136824642Y-94698333D01*
X136729404Y-94650714D01*
X136538928Y-94650714D01*
X136443690Y-94698333D01*
X135967500Y-95317380D02*
X135967500Y-94317380D01*
X135538928Y-95317380D02*
X135538928Y-94793571D01*
X135586547Y-94698333D01*
X135681785Y-94650714D01*
X135824642Y-94650714D01*
X135919880Y-94698333D01*
X135967500Y-94745952D01*
X135015119Y-94317380D02*
X135110357Y-94507857D01*
X133967500Y-94650714D02*
X133586547Y-94650714D01*
X133824642Y-94317380D02*
X133824642Y-95174523D01*
X133777023Y-95269761D01*
X133681785Y-95317380D01*
X133586547Y-95317380D01*
X133110357Y-95317380D02*
X133205595Y-95269761D01*
X133253214Y-95222142D01*
X133300833Y-95126904D01*
X133300833Y-94841190D01*
X133253214Y-94745952D01*
X133205595Y-94698333D01*
X133110357Y-94650714D01*
X132967500Y-94650714D01*
X132872261Y-94698333D01*
X132824642Y-94745952D01*
X132777023Y-94841190D01*
X132777023Y-95126904D01*
X132824642Y-95222142D01*
X132872261Y-95269761D01*
X132967500Y-95317380D01*
X133110357Y-95317380D01*
X131157976Y-95269761D02*
X131253214Y-95317380D01*
X131443690Y-95317380D01*
X131538928Y-95269761D01*
X131586547Y-95222142D01*
X131634166Y-95126904D01*
X131634166Y-94841190D01*
X131586547Y-94745952D01*
X131538928Y-94698333D01*
X131443690Y-94650714D01*
X131253214Y-94650714D01*
X131157976Y-94698333D01*
X130586547Y-95317380D02*
X130681785Y-95269761D01*
X130729404Y-95222142D01*
X130777023Y-95126904D01*
X130777023Y-94841190D01*
X130729404Y-94745952D01*
X130681785Y-94698333D01*
X130586547Y-94650714D01*
X130443690Y-94650714D01*
X130348452Y-94698333D01*
X130300833Y-94745952D01*
X130253214Y-94841190D01*
X130253214Y-95126904D01*
X130300833Y-95222142D01*
X130348452Y-95269761D01*
X130443690Y-95317380D01*
X130586547Y-95317380D01*
X129824642Y-94650714D02*
X129824642Y-95317380D01*
X129824642Y-94745952D02*
X129777023Y-94698333D01*
X129681785Y-94650714D01*
X129538928Y-94650714D01*
X129443690Y-94698333D01*
X129396071Y-94793571D01*
X129396071Y-95317380D01*
X128919880Y-94650714D02*
X128919880Y-95317380D01*
X128919880Y-94745952D02*
X128872261Y-94698333D01*
X128777023Y-94650714D01*
X128634166Y-94650714D01*
X128538928Y-94698333D01*
X128491309Y-94793571D01*
X128491309Y-95317380D01*
X127634166Y-95269761D02*
X127729404Y-95317380D01*
X127919880Y-95317380D01*
X128015119Y-95269761D01*
X128062738Y-95174523D01*
X128062738Y-94793571D01*
X128015119Y-94698333D01*
X127919880Y-94650714D01*
X127729404Y-94650714D01*
X127634166Y-94698333D01*
X127586547Y-94793571D01*
X127586547Y-94888809D01*
X128062738Y-94984047D01*
X126729404Y-95269761D02*
X126824642Y-95317380D01*
X127015119Y-95317380D01*
X127110357Y-95269761D01*
X127157976Y-95222142D01*
X127205595Y-95126904D01*
X127205595Y-94841190D01*
X127157976Y-94745952D01*
X127110357Y-94698333D01*
X127015119Y-94650714D01*
X126824642Y-94650714D01*
X126729404Y-94698333D01*
X126443690Y-94650714D02*
X126062738Y-94650714D01*
X126300833Y-94317380D02*
X126300833Y-95174523D01*
X126253214Y-95269761D01*
X126157976Y-95317380D01*
X126062738Y-95317380D01*
X138777023Y-96879761D02*
X138681785Y-96927380D01*
X138491309Y-96927380D01*
X138396071Y-96879761D01*
X138348452Y-96784523D01*
X138348452Y-96736904D01*
X138396071Y-96641666D01*
X138491309Y-96594047D01*
X138634166Y-96594047D01*
X138729404Y-96546428D01*
X138777023Y-96451190D01*
X138777023Y-96403571D01*
X138729404Y-96308333D01*
X138634166Y-96260714D01*
X138491309Y-96260714D01*
X138396071Y-96308333D01*
X138015119Y-96260714D02*
X137824642Y-96927380D01*
X137634166Y-96451190D01*
X137443690Y-96927380D01*
X137253214Y-96260714D01*
X136872261Y-96927380D02*
X136872261Y-96260714D01*
X136872261Y-95927380D02*
X136919880Y-95975000D01*
X136872261Y-96022619D01*
X136824642Y-95975000D01*
X136872261Y-95927380D01*
X136872261Y-96022619D01*
X136538928Y-96260714D02*
X136157976Y-96260714D01*
X136396071Y-95927380D02*
X136396071Y-96784523D01*
X136348452Y-96879761D01*
X136253214Y-96927380D01*
X136157976Y-96927380D01*
X135396071Y-96879761D02*
X135491309Y-96927380D01*
X135681785Y-96927380D01*
X135777023Y-96879761D01*
X135824642Y-96832142D01*
X135872261Y-96736904D01*
X135872261Y-96451190D01*
X135824642Y-96355952D01*
X135777023Y-96308333D01*
X135681785Y-96260714D01*
X135491309Y-96260714D01*
X135396071Y-96308333D01*
X134967500Y-96927380D02*
X134967500Y-95927380D01*
X134538928Y-96927380D02*
X134538928Y-96403571D01*
X134586547Y-96308333D01*
X134681785Y-96260714D01*
X134824642Y-96260714D01*
X134919880Y-96308333D01*
X134967500Y-96355952D01*
X133681785Y-96879761D02*
X133777023Y-96927380D01*
X133967500Y-96927380D01*
X134062738Y-96879761D01*
X134110357Y-96784523D01*
X134110357Y-96403571D01*
X134062738Y-96308333D01*
X133967500Y-96260714D01*
X133777023Y-96260714D01*
X133681785Y-96308333D01*
X133634166Y-96403571D01*
X133634166Y-96498809D01*
X134110357Y-96594047D01*
X133253214Y-96879761D02*
X133157976Y-96927380D01*
X132967500Y-96927380D01*
X132872261Y-96879761D01*
X132824642Y-96784523D01*
X132824642Y-96736904D01*
X132872261Y-96641666D01*
X132967500Y-96594047D01*
X133110357Y-96594047D01*
X133205595Y-96546428D01*
X133253214Y-96451190D01*
X133253214Y-96403571D01*
X133205595Y-96308333D01*
X133110357Y-96260714D01*
X132967500Y-96260714D01*
X132872261Y-96308333D01*
X131777023Y-96260714D02*
X131396071Y-96260714D01*
X131634166Y-95927380D02*
X131634166Y-96784523D01*
X131586547Y-96879761D01*
X131491309Y-96927380D01*
X131396071Y-96927380D01*
X130919880Y-96927380D02*
X131015119Y-96879761D01*
X131062738Y-96832142D01*
X131110357Y-96736904D01*
X131110357Y-96451190D01*
X131062738Y-96355952D01*
X131015119Y-96308333D01*
X130919880Y-96260714D01*
X130777023Y-96260714D01*
X130681785Y-96308333D01*
X130634166Y-96355952D01*
X130586547Y-96451190D01*
X130586547Y-96736904D01*
X130634166Y-96832142D01*
X130681785Y-96879761D01*
X130777023Y-96927380D01*
X130919880Y-96927380D01*
X138729404Y-98156428D02*
X137967500Y-98156428D01*
X138348452Y-98537380D02*
X138348452Y-97775476D01*
X137586547Y-97537380D02*
X136967500Y-97537380D01*
X137300833Y-97918333D01*
X137157976Y-97918333D01*
X137062738Y-97965952D01*
X137015119Y-98013571D01*
X136967500Y-98108809D01*
X136967500Y-98346904D01*
X137015119Y-98442142D01*
X137062738Y-98489761D01*
X137157976Y-98537380D01*
X137443690Y-98537380D01*
X137538928Y-98489761D01*
X137586547Y-98442142D01*
X136538928Y-98442142D02*
X136491309Y-98489761D01*
X136538928Y-98537380D01*
X136586547Y-98489761D01*
X136538928Y-98442142D01*
X136538928Y-98537380D01*
X136157976Y-97537380D02*
X135538928Y-97537380D01*
X135872261Y-97918333D01*
X135729404Y-97918333D01*
X135634166Y-97965952D01*
X135586547Y-98013571D01*
X135538928Y-98108809D01*
X135538928Y-98346904D01*
X135586547Y-98442142D01*
X135634166Y-98489761D01*
X135729404Y-98537380D01*
X136015119Y-98537380D01*
X136110357Y-98489761D01*
X136157976Y-98442142D01*
X135205595Y-97870714D02*
X134967500Y-98537380D01*
X134729404Y-97870714D01*
X134348452Y-98442142D02*
X134300833Y-98489761D01*
X134348452Y-98537380D01*
X134396071Y-98489761D01*
X134348452Y-98442142D01*
X134348452Y-98537380D01*
X138777023Y-101709761D02*
X138634166Y-101757380D01*
X138396071Y-101757380D01*
X138300833Y-101709761D01*
X138253214Y-101662142D01*
X138205595Y-101566904D01*
X138205595Y-101471666D01*
X138253214Y-101376428D01*
X138300833Y-101328809D01*
X138396071Y-101281190D01*
X138586547Y-101233571D01*
X138681785Y-101185952D01*
X138729404Y-101138333D01*
X138777023Y-101043095D01*
X138777023Y-100947857D01*
X138729404Y-100852619D01*
X138681785Y-100805000D01*
X138586547Y-100757380D01*
X138348452Y-100757380D01*
X138205595Y-100805000D01*
X137396071Y-101709761D02*
X137491309Y-101757380D01*
X137681785Y-101757380D01*
X137777023Y-101709761D01*
X137824642Y-101614523D01*
X137824642Y-101233571D01*
X137777023Y-101138333D01*
X137681785Y-101090714D01*
X137491309Y-101090714D01*
X137396071Y-101138333D01*
X137348452Y-101233571D01*
X137348452Y-101328809D01*
X137824642Y-101424047D01*
X137062738Y-101090714D02*
X136681785Y-101090714D01*
X136919880Y-100757380D02*
X136919880Y-101614523D01*
X136872261Y-101709761D01*
X136777023Y-101757380D01*
X136681785Y-101757380D01*
X135586547Y-101090714D02*
X135586547Y-101947857D01*
X135634166Y-102043095D01*
X135729404Y-102090714D01*
X135777023Y-102090714D01*
X135586547Y-100757380D02*
X135634166Y-100805000D01*
X135586547Y-100852619D01*
X135538928Y-100805000D01*
X135586547Y-100757380D01*
X135586547Y-100852619D01*
X134681785Y-101090714D02*
X134681785Y-101757380D01*
X135110357Y-101090714D02*
X135110357Y-101614523D01*
X135062738Y-101709761D01*
X134967500Y-101757380D01*
X134824642Y-101757380D01*
X134729404Y-101709761D01*
X134681785Y-101662142D01*
X134205595Y-101757380D02*
X134205595Y-101090714D01*
X134205595Y-101185952D02*
X134157976Y-101138333D01*
X134062738Y-101090714D01*
X133919880Y-101090714D01*
X133824642Y-101138333D01*
X133777023Y-101233571D01*
X133777023Y-101757380D01*
X133777023Y-101233571D02*
X133729404Y-101138333D01*
X133634166Y-101090714D01*
X133491309Y-101090714D01*
X133396071Y-101138333D01*
X133348452Y-101233571D01*
X133348452Y-101757380D01*
X132872261Y-101090714D02*
X132872261Y-102090714D01*
X132872261Y-101138333D02*
X132777023Y-101090714D01*
X132586547Y-101090714D01*
X132491309Y-101138333D01*
X132443690Y-101185952D01*
X132396071Y-101281190D01*
X132396071Y-101566904D01*
X132443690Y-101662142D01*
X132491309Y-101709761D01*
X132586547Y-101757380D01*
X132777023Y-101757380D01*
X132872261Y-101709761D01*
X131586547Y-101709761D02*
X131681785Y-101757380D01*
X131872261Y-101757380D01*
X131967500Y-101709761D01*
X132015119Y-101614523D01*
X132015119Y-101233571D01*
X131967500Y-101138333D01*
X131872261Y-101090714D01*
X131681785Y-101090714D01*
X131586547Y-101138333D01*
X131538928Y-101233571D01*
X131538928Y-101328809D01*
X132015119Y-101424047D01*
X131110357Y-101757380D02*
X131110357Y-101090714D01*
X131110357Y-101281190D02*
X131062738Y-101185952D01*
X131015119Y-101138333D01*
X130919880Y-101090714D01*
X130824642Y-101090714D01*
X129872261Y-101090714D02*
X129491309Y-101090714D01*
X129729404Y-100757380D02*
X129729404Y-101614523D01*
X129681785Y-101709761D01*
X129586547Y-101757380D01*
X129491309Y-101757380D01*
X129015119Y-101757380D02*
X129110357Y-101709761D01*
X129157976Y-101662142D01*
X129205595Y-101566904D01*
X129205595Y-101281190D01*
X129157976Y-101185952D01*
X129110357Y-101138333D01*
X129015119Y-101090714D01*
X128872261Y-101090714D01*
X128777023Y-101138333D01*
X128729404Y-101185952D01*
X128681785Y-101281190D01*
X128681785Y-101566904D01*
X128729404Y-101662142D01*
X128777023Y-101709761D01*
X128872261Y-101757380D01*
X129015119Y-101757380D01*
X138681785Y-102367380D02*
X138777023Y-102557857D01*
X138110357Y-103367380D02*
X138205595Y-103319761D01*
X138253214Y-103224523D01*
X138253214Y-102367380D01*
X137586547Y-103367380D02*
X137681785Y-103319761D01*
X137729404Y-103272142D01*
X137777023Y-103176904D01*
X137777023Y-102891190D01*
X137729404Y-102795952D01*
X137681785Y-102748333D01*
X137586547Y-102700714D01*
X137443690Y-102700714D01*
X137348452Y-102748333D01*
X137300833Y-102795952D01*
X137253214Y-102891190D01*
X137253214Y-103176904D01*
X137300833Y-103272142D01*
X137348452Y-103319761D01*
X137443690Y-103367380D01*
X137586547Y-103367380D01*
X136919880Y-102700714D02*
X136729404Y-103367380D01*
X136538928Y-102891190D01*
X136348452Y-103367380D01*
X136157976Y-102700714D01*
X135729404Y-102367380D02*
X135824642Y-102557857D01*
X134681785Y-102700714D02*
X134300833Y-102700714D01*
X134538928Y-102367380D02*
X134538928Y-103224523D01*
X134491309Y-103319761D01*
X134396071Y-103367380D01*
X134300833Y-103367380D01*
X133824642Y-103367380D02*
X133919880Y-103319761D01*
X133967500Y-103272142D01*
X134015119Y-103176904D01*
X134015119Y-102891190D01*
X133967500Y-102795952D01*
X133919880Y-102748333D01*
X133824642Y-102700714D01*
X133681785Y-102700714D01*
X133586547Y-102748333D01*
X133538928Y-102795952D01*
X133491309Y-102891190D01*
X133491309Y-103176904D01*
X133538928Y-103272142D01*
X133586547Y-103319761D01*
X133681785Y-103367380D01*
X133824642Y-103367380D01*
X131872261Y-103319761D02*
X131967500Y-103367380D01*
X132157976Y-103367380D01*
X132253214Y-103319761D01*
X132300833Y-103272142D01*
X132348452Y-103176904D01*
X132348452Y-102891190D01*
X132300833Y-102795952D01*
X132253214Y-102748333D01*
X132157976Y-102700714D01*
X131967500Y-102700714D01*
X131872261Y-102748333D01*
X131300833Y-103367380D02*
X131396071Y-103319761D01*
X131443690Y-103272142D01*
X131491309Y-103176904D01*
X131491309Y-102891190D01*
X131443690Y-102795952D01*
X131396071Y-102748333D01*
X131300833Y-102700714D01*
X131157976Y-102700714D01*
X131062738Y-102748333D01*
X131015119Y-102795952D01*
X130967500Y-102891190D01*
X130967500Y-103176904D01*
X131015119Y-103272142D01*
X131062738Y-103319761D01*
X131157976Y-103367380D01*
X131300833Y-103367380D01*
X130538928Y-102700714D02*
X130538928Y-103367380D01*
X130538928Y-102795952D02*
X130491309Y-102748333D01*
X130396071Y-102700714D01*
X130253214Y-102700714D01*
X130157976Y-102748333D01*
X130110357Y-102843571D01*
X130110357Y-103367380D01*
X129634166Y-102700714D02*
X129634166Y-103367380D01*
X129634166Y-102795952D02*
X129586547Y-102748333D01*
X129491309Y-102700714D01*
X129348452Y-102700714D01*
X129253214Y-102748333D01*
X129205595Y-102843571D01*
X129205595Y-103367380D01*
X128348452Y-103319761D02*
X128443690Y-103367380D01*
X128634166Y-103367380D01*
X128729404Y-103319761D01*
X128777023Y-103224523D01*
X128777023Y-102843571D01*
X128729404Y-102748333D01*
X128634166Y-102700714D01*
X128443690Y-102700714D01*
X128348452Y-102748333D01*
X128300833Y-102843571D01*
X128300833Y-102938809D01*
X128777023Y-103034047D01*
X127443690Y-103319761D02*
X127538928Y-103367380D01*
X127729404Y-103367380D01*
X127824642Y-103319761D01*
X127872261Y-103272142D01*
X127919880Y-103176904D01*
X127919880Y-102891190D01*
X127872261Y-102795952D01*
X127824642Y-102748333D01*
X127729404Y-102700714D01*
X127538928Y-102700714D01*
X127443690Y-102748333D01*
X127157976Y-102700714D02*
X126777023Y-102700714D01*
X127015119Y-102367380D02*
X127015119Y-103224523D01*
X126967500Y-103319761D01*
X126872261Y-103367380D01*
X126777023Y-103367380D01*
X138777023Y-104929761D02*
X138681785Y-104977380D01*
X138491309Y-104977380D01*
X138396071Y-104929761D01*
X138348452Y-104834523D01*
X138348452Y-104786904D01*
X138396071Y-104691666D01*
X138491309Y-104644047D01*
X138634166Y-104644047D01*
X138729404Y-104596428D01*
X138777023Y-104501190D01*
X138777023Y-104453571D01*
X138729404Y-104358333D01*
X138634166Y-104310714D01*
X138491309Y-104310714D01*
X138396071Y-104358333D01*
X138015119Y-104310714D02*
X137824642Y-104977380D01*
X137634166Y-104501190D01*
X137443690Y-104977380D01*
X137253214Y-104310714D01*
X136872261Y-104977380D02*
X136872261Y-104310714D01*
X136872261Y-103977380D02*
X136919880Y-104025000D01*
X136872261Y-104072619D01*
X136824642Y-104025000D01*
X136872261Y-103977380D01*
X136872261Y-104072619D01*
X136538928Y-104310714D02*
X136157976Y-104310714D01*
X136396071Y-103977380D02*
X136396071Y-104834523D01*
X136348452Y-104929761D01*
X136253214Y-104977380D01*
X136157976Y-104977380D01*
X135396071Y-104929761D02*
X135491309Y-104977380D01*
X135681785Y-104977380D01*
X135777023Y-104929761D01*
X135824642Y-104882142D01*
X135872261Y-104786904D01*
X135872261Y-104501190D01*
X135824642Y-104405952D01*
X135777023Y-104358333D01*
X135681785Y-104310714D01*
X135491309Y-104310714D01*
X135396071Y-104358333D01*
X134967500Y-104977380D02*
X134967500Y-103977380D01*
X134538928Y-104977380D02*
X134538928Y-104453571D01*
X134586547Y-104358333D01*
X134681785Y-104310714D01*
X134824642Y-104310714D01*
X134919880Y-104358333D01*
X134967500Y-104405952D01*
X133681785Y-104929761D02*
X133777023Y-104977380D01*
X133967500Y-104977380D01*
X134062738Y-104929761D01*
X134110357Y-104834523D01*
X134110357Y-104453571D01*
X134062738Y-104358333D01*
X133967500Y-104310714D01*
X133777023Y-104310714D01*
X133681785Y-104358333D01*
X133634166Y-104453571D01*
X133634166Y-104548809D01*
X134110357Y-104644047D01*
X133253214Y-104929761D02*
X133157976Y-104977380D01*
X132967500Y-104977380D01*
X132872261Y-104929761D01*
X132824642Y-104834523D01*
X132824642Y-104786904D01*
X132872261Y-104691666D01*
X132967500Y-104644047D01*
X133110357Y-104644047D01*
X133205595Y-104596428D01*
X133253214Y-104501190D01*
X133253214Y-104453571D01*
X133205595Y-104358333D01*
X133110357Y-104310714D01*
X132967500Y-104310714D01*
X132872261Y-104358333D01*
X131777023Y-104310714D02*
X131396071Y-104310714D01*
X131634166Y-103977380D02*
X131634166Y-104834523D01*
X131586547Y-104929761D01*
X131491309Y-104977380D01*
X131396071Y-104977380D01*
X130919880Y-104977380D02*
X131015119Y-104929761D01*
X131062738Y-104882142D01*
X131110357Y-104786904D01*
X131110357Y-104501190D01*
X131062738Y-104405952D01*
X131015119Y-104358333D01*
X130919880Y-104310714D01*
X130777023Y-104310714D01*
X130681785Y-104358333D01*
X130634166Y-104405952D01*
X130586547Y-104501190D01*
X130586547Y-104786904D01*
X130634166Y-104882142D01*
X130681785Y-104929761D01*
X130777023Y-104977380D01*
X130919880Y-104977380D01*
X138300833Y-105920714D02*
X138300833Y-106730238D01*
X138348452Y-106825476D01*
X138396071Y-106873095D01*
X138491309Y-106920714D01*
X138634166Y-106920714D01*
X138729404Y-106873095D01*
X138300833Y-106539761D02*
X138396071Y-106587380D01*
X138586547Y-106587380D01*
X138681785Y-106539761D01*
X138729404Y-106492142D01*
X138777023Y-106396904D01*
X138777023Y-106111190D01*
X138729404Y-106015952D01*
X138681785Y-105968333D01*
X138586547Y-105920714D01*
X138396071Y-105920714D01*
X138300833Y-105968333D01*
X137824642Y-106587380D02*
X137824642Y-105920714D01*
X137824642Y-106111190D02*
X137777023Y-106015952D01*
X137729404Y-105968333D01*
X137634166Y-105920714D01*
X137538928Y-105920714D01*
X137062738Y-106587380D02*
X137157976Y-106539761D01*
X137205595Y-106492142D01*
X137253214Y-106396904D01*
X137253214Y-106111190D01*
X137205595Y-106015952D01*
X137157976Y-105968333D01*
X137062738Y-105920714D01*
X136919880Y-105920714D01*
X136824642Y-105968333D01*
X136777023Y-106015952D01*
X136729404Y-106111190D01*
X136729404Y-106396904D01*
X136777023Y-106492142D01*
X136824642Y-106539761D01*
X136919880Y-106587380D01*
X137062738Y-106587380D01*
X135872261Y-105920714D02*
X135872261Y-106587380D01*
X136300833Y-105920714D02*
X136300833Y-106444523D01*
X136253214Y-106539761D01*
X136157976Y-106587380D01*
X136015119Y-106587380D01*
X135919880Y-106539761D01*
X135872261Y-106492142D01*
X135396071Y-105920714D02*
X135396071Y-106587380D01*
X135396071Y-106015952D02*
X135348452Y-105968333D01*
X135253214Y-105920714D01*
X135110357Y-105920714D01*
X135015119Y-105968333D01*
X134967500Y-106063571D01*
X134967500Y-106587380D01*
X134062738Y-106587380D02*
X134062738Y-105587380D01*
X134062738Y-106539761D02*
X134157976Y-106587380D01*
X134348452Y-106587380D01*
X134443690Y-106539761D01*
X134491309Y-106492142D01*
X134538928Y-106396904D01*
X134538928Y-106111190D01*
X134491309Y-106015952D01*
X134443690Y-105968333D01*
X134348452Y-105920714D01*
X134157976Y-105920714D01*
X134062738Y-105968333D01*
X133586547Y-106492142D02*
X133538928Y-106539761D01*
X133586547Y-106587380D01*
X133634166Y-106539761D01*
X133586547Y-106492142D01*
X133586547Y-106587380D01*
%LPC*%
D11*
X140817500Y-68224400D03*
D12*
X140817500Y-70764400D03*
X140817500Y-73304400D03*
X140817500Y-75844400D03*
X140817500Y-78384400D03*
X140817500Y-80924400D03*
X140817500Y-83464400D03*
X140817500Y-86004400D03*
X148437500Y-86004400D03*
X148437500Y-83464400D03*
X148437500Y-80924400D03*
X148437500Y-78384400D03*
X148437500Y-75844400D03*
X148437500Y-73304400D03*
X148437500Y-70764400D03*
X148437500Y-68224400D03*
D11*
X152400000Y-91490800D03*
D12*
X152400000Y-94030800D03*
X152400000Y-96570800D03*
X152400000Y-99110800D03*
X152400000Y-101650800D03*
X152400000Y-104190800D03*
X152400000Y-106730800D03*
X152400000Y-109270800D03*
X160020000Y-109270800D03*
X160020000Y-106730800D03*
X160020000Y-104190800D03*
X160020000Y-101650800D03*
X160020000Y-99110800D03*
X160020000Y-96570800D03*
X160020000Y-94030800D03*
X160020000Y-91490800D03*
D11*
X140817600Y-91490800D03*
D12*
X140817600Y-94030800D03*
X140817600Y-96570800D03*
X140817600Y-99110800D03*
X140817600Y-101650800D03*
X140817600Y-104190800D03*
X140817600Y-106730800D03*
X140817600Y-109270800D03*
X148437600Y-109270800D03*
X148437600Y-106730800D03*
X148437600Y-104190800D03*
X148437600Y-101650800D03*
X148437600Y-99110800D03*
X148437600Y-96570800D03*
X148437600Y-94030800D03*
X148437600Y-91490800D03*
D13*
X114300000Y-68580000D03*
D14*
X114300000Y-71120000D03*
X114300000Y-73660000D03*
X114300000Y-76200000D03*
X114300000Y-78740000D03*
X114300000Y-81280000D03*
D15*
X158750000Y-62230000D03*
X158750000Y-115570000D03*
D11*
X152400000Y-68224400D03*
D12*
X152400000Y-70764400D03*
X152400000Y-73304400D03*
X152400000Y-75844400D03*
X152400000Y-78384400D03*
X152400000Y-80924400D03*
X152400000Y-83464400D03*
X152400000Y-86004400D03*
X160020000Y-86004400D03*
X160020000Y-83464400D03*
X160020000Y-80924400D03*
X160020000Y-78384400D03*
X160020000Y-75844400D03*
X160020000Y-73304400D03*
X160020000Y-70764400D03*
X160020000Y-68224400D03*
D13*
X128270000Y-111775000D03*
D14*
X128270000Y-114315000D03*
X128270000Y-116855000D03*
D15*
X114300000Y-115570000D03*
X114299999Y-62229999D03*
M02*
