  0
SECTION
  2
HEADER
  9
$ANGBASE
  50
0.0
  9
$ANGDIR
  70
1
  9
$MEASUREMENT
  70
1
  0
ENDSEC
  0
SECTION
  2
TABLES
  0
TABLE
  2
LTYPE
  70
4
  0
LTYPE
  5
40F
  2
CONTINUOUS
  70
0
  3
Solid line
  72
65
  73
0
  40
0.0
  0
LTYPE
  5
410
  2
DASHDOT
 70
0
  3
Dash Dot ____ _ ____ _
 72
65
 73
4
 40
2.0
 49
1.25
 49
-0.25
 49
0.25
 49
-0.25
  0
LTYPE
  5
411
  2
DASHED
 70
0
  3
Dashed __ __ __ __ __
 72
65
 73
2
 40
0.75
 49
0.5
 49
-0.25
  0
LTYPE
  5
43B
  2
DOTTED
 70
0
  3
Dotted .  .  .  .
 72
65
 73
2
 40
0.2
 49
0.0
 49
-0.2
  0
ENDTAB
  0
TABLE
  2
STYLE
  70
4
  0
STYLE
  2
KICAD
  70
0
  40
0
  41
1
  42
1
  50
0
  71
0
  3
isocp.shx
  0
STYLE
  2
KICADB
  70
0
  40
0
  41
1
  42
1
  50
0
  71
0
  3
isocp.shx
  0
STYLE
  2
KICADI
  70
0
  40
0
  41
1
  42
1
  50
15
  71
0
  3
isocp.shx
  0
STYLE
  2
KICADBI
  70
0
  40
0
  41
1
  42
1
  50
15
  71
0
  3
isocp.shx
  0
ENDTAB
  0
TABLE
  2
LAYER
  70
1
  0
LAYER
  2
BLACK
  70
0
  62
7
  6
CONTINUOUS
  0
ENDTAB
  0
ENDSEC
  0
SECTION
  2
ENTITIES
0
LINE
8
BLACK
6
CONTINUOUS
10
129.584
20
-122.648
11
129.904
21
-122.691
0
LINE
8
BLACK
6
CONTINUOUS
10
129.904
20
-122.691
11
130.216
21
-122.769
0
LINE
8
BLACK
6
CONTINUOUS
10
130.216
20
-122.769
11
130.518
21
-122.883
0
LINE
8
BLACK
6
CONTINUOUS
10
130.518
20
-122.883
11
130.804
21
-123.031
0
LINE
8
BLACK
6
CONTINUOUS
10
130.804
20
-123.031
11
131.072
21
-123.211
0
LINE
8
BLACK
6
CONTINUOUS
10
131.072
20
-123.211
11
131.317
21
-123.42
0
LINE
8
BLACK
6
CONTINUOUS
10
131.317
20
-123.42
11
131.536
21
-123.656
0
LINE
8
BLACK
6
CONTINUOUS
10
131.536
20
-123.656
11
131.727
21
-123.916
0
LINE
8
BLACK
6
CONTINUOUS
10
131.727
20
-123.916
11
131.887
21
-124.196
0
LINE
8
BLACK
6
CONTINUOUS
10
131.887
20
-124.196
11
132.013
21
-124.493
0
LINE
8
BLACK
6
CONTINUOUS
10
132.013
20
-124.493
11
132.105
21
-124.802
0
LINE
8
BLACK
6
CONTINUOUS
10
132.105
20
-124.802
11
132.16
21
-125.119
0
LINE
8
BLACK
6
CONTINUOUS
10
132.16
20
-125.119
11
132.179
21
-125.441
0
LINE
8
BLACK
6
CONTINUOUS
10
132.179
20
-125.441
11
132.174
21
-125.617
0
LINE
8
BLACK
6
CONTINUOUS
10
132.174
20
-125.617
11
132.135
21
-125.937
0
LINE
8
BLACK
6
CONTINUOUS
10
132.135
20
-125.937
11
132.06
21
-126.25
0
LINE
8
BLACK
6
CONTINUOUS
10
132.06
20
-126.25
11
131.949
21
-126.553
0
LINE
8
BLACK
6
CONTINUOUS
10
131.949
20
-126.553
11
131.804
21
-126.841
0
LINE
8
BLACK
6
CONTINUOUS
10
131.804
20
-126.841
11
131.627
21
-127.11
0
LINE
8
BLACK
6
CONTINUOUS
10
131.627
20
-127.11
11
131.42
21
-127.358
0
LINE
8
BLACK
6
CONTINUOUS
10
131.42
20
-127.358
11
131.186
21
-127.58
0
LINE
8
BLACK
6
CONTINUOUS
10
131.186
20
-127.58
11
130.929
21
-127.773
0
LINE
8
BLACK
6
CONTINUOUS
10
130.929
20
-127.773
11
130.65
21
-127.936
0
LINE
8
BLACK
6
CONTINUOUS
10
130.65
20
-127.936
11
130.355
21
-128.065
0
LINE
8
BLACK
6
CONTINUOUS
10
130.355
20
-128.065
11
130.047
21
-128.16
0
LINE
8
BLACK
6
CONTINUOUS
10
130.047
20
-128.16
11
129.73
21
-128.219
0
LINE
8
BLACK
6
CONTINUOUS
10
129.73
20
-128.219
11
129.408
21
-128.241
0
LINE
8
BLACK
6
CONTINUOUS
10
129.408
20
-128.241
11
129.086
21
-128.226
0
LINE
8
BLACK
6
CONTINUOUS
10
129.086
20
-128.226
11
128.768
21
-128.174
0
LINE
8
BLACK
6
CONTINUOUS
10
128.768
20
-128.174
11
128.458
21
-128.085
0
LINE
8
BLACK
6
CONTINUOUS
10
128.458
20
-128.085
11
128.16
21
-127.962
0
LINE
8
BLACK
6
CONTINUOUS
10
128.16
20
-127.962
11
127.879
21
-127.805
0
LINE
8
BLACK
6
CONTINUOUS
10
127.879
20
-127.805
11
127.617
21
-127.617
0
LINE
8
BLACK
6
CONTINUOUS
10
127.617
20
-127.617
11
127.379
21
-127.4
0
LINE
8
BLACK
6
CONTINUOUS
10
127.379
20
-127.4
11
127.167
21
-127.157
0
LINE
8
BLACK
6
CONTINUOUS
10
127.167
20
-127.157
11
126.984
21
-126.891
0
LINE
8
BLACK
6
CONTINUOUS
10
126.984
20
-126.891
11
126.833
21
-126.607
0
LINE
8
BLACK
6
CONTINUOUS
10
126.833
20
-126.607
11
126.716
21
-126.306
0
LINE
8
BLACK
6
CONTINUOUS
10
126.716
20
-126.306
11
126.634
21
-125.994
0
LINE
8
BLACK
6
CONTINUOUS
10
126.634
20
-125.994
11
126.589
21
-125.675
0
LINE
8
BLACK
6
CONTINUOUS
10
126.589
20
-125.675
11
126.58
21
-125.353
0
LINE
8
BLACK
6
CONTINUOUS
10
126.58
20
-125.353
11
126.609
21
-125.032
0
LINE
8
BLACK
6
CONTINUOUS
10
126.609
20
-125.032
11
126.674
21
-124.716
0
LINE
8
BLACK
6
CONTINUOUS
10
126.674
20
-124.716
11
126.776
21
-124.41
0
LINE
8
BLACK
6
CONTINUOUS
10
126.776
20
-124.41
11
126.911
21
-124.118
0
LINE
8
BLACK
6
CONTINUOUS
10
126.911
20
-124.118
11
127.08
21
-123.843
0
LINE
8
BLACK
6
CONTINUOUS
10
127.08
20
-123.843
11
127.279
21
-123.589
0
LINE
8
BLACK
6
CONTINUOUS
10
127.279
20
-123.589
11
127.505
21
-123.36
0
LINE
8
BLACK
6
CONTINUOUS
10
127.505
20
-123.36
11
127.757
21
-123.159
0
LINE
8
BLACK
6
CONTINUOUS
10
127.757
20
-123.159
11
128.03
21
-122.987
0
LINE
8
BLACK
6
CONTINUOUS
10
128.03
20
-122.987
11
128.321
21
-122.849
0
LINE
8
BLACK
6
CONTINUOUS
10
128.321
20
-122.849
11
128.626
21
-122.744
0
LINE
8
BLACK
6
CONTINUOUS
10
128.626
20
-122.744
11
128.941
21
-122.675
0
LINE
8
BLACK
6
CONTINUOUS
10
128.941
20
-122.675
11
129.262
21
-122.643
0
LINE
8
BLACK
6
CONTINUOUS
10
129.262
20
-122.643
11
129.584
21
-122.648
0
LINE
8
BLACK
6
CONTINUOUS
10
174.034
20
-122.648
11
174.354
21
-122.691
0
LINE
8
BLACK
6
CONTINUOUS
10
174.354
20
-122.691
11
174.666
21
-122.769
0
LINE
8
BLACK
6
CONTINUOUS
10
174.666
20
-122.769
11
174.968
21
-122.883
0
LINE
8
BLACK
6
CONTINUOUS
10
174.968
20
-122.883
11
175.254
21
-123.031
0
LINE
8
BLACK
6
CONTINUOUS
10
175.254
20
-123.031
11
175.522
21
-123.211
0
LINE
8
BLACK
6
CONTINUOUS
10
175.522
20
-123.211
11
175.767
21
-123.42
0
LINE
8
BLACK
6
CONTINUOUS
10
175.767
20
-123.42
11
175.986
21
-123.656
0
LINE
8
BLACK
6
CONTINUOUS
10
175.986
20
-123.656
11
176.177
21
-123.916
0
LINE
8
BLACK
6
CONTINUOUS
10
176.177
20
-123.916
11
176.337
21
-124.196
0
LINE
8
BLACK
6
CONTINUOUS
10
176.337
20
-124.196
11
176.463
21
-124.493
0
LINE
8
BLACK
6
CONTINUOUS
10
176.463
20
-124.493
11
176.555
21
-124.802
0
LINE
8
BLACK
6
CONTINUOUS
10
176.555
20
-124.802
11
176.61
21
-125.119
0
LINE
8
BLACK
6
CONTINUOUS
10
176.61
20
-125.119
11
176.629
21
-125.441
0
LINE
8
BLACK
6
CONTINUOUS
10
176.629
20
-125.441
11
176.624
21
-125.617
0
LINE
8
BLACK
6
CONTINUOUS
10
176.624
20
-125.617
11
176.585
21
-125.937
0
LINE
8
BLACK
6
CONTINUOUS
10
176.585
20
-125.937
11
176.51
21
-126.25
0
LINE
8
BLACK
6
CONTINUOUS
10
176.51
20
-126.25
11
176.399
21
-126.553
0
LINE
8
BLACK
6
CONTINUOUS
10
176.399
20
-126.553
11
176.254
21
-126.841
0
LINE
8
BLACK
6
CONTINUOUS
10
176.254
20
-126.841
11
176.077
21
-127.11
0
LINE
8
BLACK
6
CONTINUOUS
10
176.077
20
-127.11
11
175.87
21
-127.358
0
LINE
8
BLACK
6
CONTINUOUS
10
175.87
20
-127.358
11
175.636
21
-127.58
0
LINE
8
BLACK
6
CONTINUOUS
10
175.636
20
-127.58
11
175.379
21
-127.773
0
LINE
8
BLACK
6
CONTINUOUS
10
175.379
20
-127.773
11
175.1
21
-127.936
0
LINE
8
BLACK
6
CONTINUOUS
10
175.1
20
-127.936
11
174.805
21
-128.065
0
LINE
8
BLACK
6
CONTINUOUS
10
174.805
20
-128.065
11
174.497
21
-128.16
0
LINE
8
BLACK
6
CONTINUOUS
10
174.497
20
-128.16
11
174.18
21
-128.219
0
LINE
8
BLACK
6
CONTINUOUS
10
174.18
20
-128.219
11
173.858
21
-128.241
0
LINE
8
BLACK
6
CONTINUOUS
10
173.858
20
-128.241
11
173.536
21
-128.226
0
LINE
8
BLACK
6
CONTINUOUS
10
173.536
20
-128.226
11
173.218
21
-128.174
0
LINE
8
BLACK
6
CONTINUOUS
10
173.218
20
-128.174
11
172.908
21
-128.085
0
LINE
8
BLACK
6
CONTINUOUS
10
172.908
20
-128.085
11
172.61
21
-127.962
0
LINE
8
BLACK
6
CONTINUOUS
10
172.61
20
-127.962
11
172.329
21
-127.805
0
LINE
8
BLACK
6
CONTINUOUS
10
172.329
20
-127.805
11
172.067
21
-127.617
0
LINE
8
BLACK
6
CONTINUOUS
10
172.067
20
-127.617
11
171.829
21
-127.4
0
LINE
8
BLACK
6
CONTINUOUS
10
171.829
20
-127.4
11
171.617
21
-127.157
0
LINE
8
BLACK
6
CONTINUOUS
10
171.617
20
-127.157
11
171.434
21
-126.891
0
LINE
8
BLACK
6
CONTINUOUS
10
171.434
20
-126.891
11
171.283
21
-126.607
0
LINE
8
BLACK
6
CONTINUOUS
10
171.283
20
-126.607
11
171.166
21
-126.306
0
LINE
8
BLACK
6
CONTINUOUS
10
171.166
20
-126.306
11
171.084
21
-125.994
0
LINE
8
BLACK
6
CONTINUOUS
10
171.084
20
-125.994
11
171.039
21
-125.675
0
LINE
8
BLACK
6
CONTINUOUS
10
171.039
20
-125.675
11
171.03
21
-125.353
0
LINE
8
BLACK
6
CONTINUOUS
10
171.03
20
-125.353
11
171.059
21
-125.032
0
LINE
8
BLACK
6
CONTINUOUS
10
171.059
20
-125.032
11
171.124
21
-124.716
0
LINE
8
BLACK
6
CONTINUOUS
10
171.124
20
-124.716
11
171.226
21
-124.41
0
LINE
8
BLACK
6
CONTINUOUS
10
171.226
20
-124.41
11
171.361
21
-124.118
0
LINE
8
BLACK
6
CONTINUOUS
10
171.361
20
-124.118
11
171.53
21
-123.843
0
LINE
8
BLACK
6
CONTINUOUS
10
171.53
20
-123.843
11
171.729
21
-123.589
0
LINE
8
BLACK
6
CONTINUOUS
10
171.729
20
-123.589
11
171.955
21
-123.36
0
LINE
8
BLACK
6
CONTINUOUS
10
171.955
20
-123.36
11
172.207
21
-123.159
0
LINE
8
BLACK
6
CONTINUOUS
10
172.207
20
-123.159
11
172.48
21
-122.987
0
LINE
8
BLACK
6
CONTINUOUS
10
172.48
20
-122.987
11
172.771
21
-122.849
0
LINE
8
BLACK
6
CONTINUOUS
10
172.771
20
-122.849
11
173.076
21
-122.744
0
LINE
8
BLACK
6
CONTINUOUS
10
173.076
20
-122.744
11
173.391
21
-122.675
0
LINE
8
BLACK
6
CONTINUOUS
10
173.391
20
-122.675
11
173.712
21
-122.643
0
LINE
8
BLACK
6
CONTINUOUS
10
173.712
20
-122.643
11
174.034
21
-122.648
0
LINE
8
BLACK
6
CONTINUOUS
10
165.202
20
-120.823
11
165.364
21
-120.895
0
LINE
8
BLACK
6
CONTINUOUS
10
165.364
20
-120.895
11
165.508
21
-120.999
0
LINE
8
BLACK
6
CONTINUOUS
10
165.508
20
-120.999
11
165.627
21
-121.131
0
LINE
8
BLACK
6
CONTINUOUS
10
165.627
20
-121.131
11
165.716
21
-121.285
0
LINE
8
BLACK
6
CONTINUOUS
10
165.716
20
-121.285
11
165.77
21
-121.454
0
LINE
8
BLACK
6
CONTINUOUS
10
165.77
20
-121.454
11
165.789
21
-121.631
0
LINE
8
BLACK
6
CONTINUOUS
10
165.789
20
-121.631
11
165.77
21
-121.808
0
LINE
8
BLACK
6
CONTINUOUS
10
165.77
20
-121.808
11
165.716
21
-121.977
0
LINE
8
BLACK
6
CONTINUOUS
10
165.716
20
-121.977
11
165.627
21
-122.131
0
LINE
8
BLACK
6
CONTINUOUS
10
165.627
20
-122.131
11
165.508
21
-122.263
0
LINE
8
BLACK
6
CONTINUOUS
10
165.508
20
-122.263
11
165.364
21
-122.367
0
LINE
8
BLACK
6
CONTINUOUS
10
165.364
20
-122.367
11
165.202
21
-122.439
0
LINE
8
BLACK
6
CONTINUOUS
10
165.202
20
-122.439
11
165.028
21
-122.476
0
LINE
8
BLACK
6
CONTINUOUS
10
165.028
20
-122.476
11
164.85
21
-122.476
0
LINE
8
BLACK
6
CONTINUOUS
10
164.85
20
-122.476
11
164.676
21
-122.439
0
LINE
8
BLACK
6
CONTINUOUS
10
164.676
20
-122.439
11
164.514
21
-122.367
0
LINE
8
BLACK
6
CONTINUOUS
10
164.514
20
-122.367
11
164.37
21
-122.263
0
LINE
8
BLACK
6
CONTINUOUS
10
164.37
20
-122.263
11
164.251
21
-122.131
0
LINE
8
BLACK
6
CONTINUOUS
10
164.251
20
-122.131
11
164.163
21
-121.977
0
LINE
8
BLACK
6
CONTINUOUS
10
164.163
20
-121.977
11
164.108
21
-121.808
0
LINE
8
BLACK
6
CONTINUOUS
10
164.108
20
-121.808
11
164.089
21
-121.631
0
LINE
8
BLACK
6
CONTINUOUS
10
164.089
20
-121.631
11
164.108
21
-121.454
0
LINE
8
BLACK
6
CONTINUOUS
10
164.108
20
-121.454
11
164.163
21
-121.285
0
LINE
8
BLACK
6
CONTINUOUS
10
164.163
20
-121.285
11
164.251
21
-121.131
0
LINE
8
BLACK
6
CONTINUOUS
10
164.251
20
-121.131
11
164.37
21
-120.999
0
LINE
8
BLACK
6
CONTINUOUS
10
164.37
20
-120.999
11
164.514
21
-120.895
0
LINE
8
BLACK
6
CONTINUOUS
10
164.514
20
-120.895
11
164.676
21
-120.823
0
LINE
8
BLACK
6
CONTINUOUS
10
164.676
20
-120.823
11
164.85
21
-120.786
0
LINE
8
BLACK
6
CONTINUOUS
10
164.85
20
-120.786
11
165.028
21
-120.786
0
LINE
8
BLACK
6
CONTINUOUS
10
165.028
20
-120.786
11
165.202
21
-120.823
0
LINE
8
BLACK
6
CONTINUOUS
10
162.662
20
-120.823
11
162.824
21
-120.895
0
LINE
8
BLACK
6
CONTINUOUS
10
162.824
20
-120.895
11
162.968
21
-120.999
0
LINE
8
BLACK
6
CONTINUOUS
10
162.968
20
-120.999
11
163.087
21
-121.131
0
LINE
8
BLACK
6
CONTINUOUS
10
163.087
20
-121.131
11
163.176
21
-121.285
0
LINE
8
BLACK
6
CONTINUOUS
10
163.176
20
-121.285
11
163.23
21
-121.454
0
LINE
8
BLACK
6
CONTINUOUS
10
163.23
20
-121.454
11
163.249
21
-121.631
0
LINE
8
BLACK
6
CONTINUOUS
10
163.249
20
-121.631
11
163.23
21
-121.808
0
LINE
8
BLACK
6
CONTINUOUS
10
163.23
20
-121.808
11
163.176
21
-121.977
0
LINE
8
BLACK
6
CONTINUOUS
10
163.176
20
-121.977
11
163.087
21
-122.131
0
LINE
8
BLACK
6
CONTINUOUS
10
163.087
20
-122.131
11
162.968
21
-122.263
0
LINE
8
BLACK
6
CONTINUOUS
10
162.968
20
-122.263
11
162.824
21
-122.367
0
LINE
8
BLACK
6
CONTINUOUS
10
162.824
20
-122.367
11
162.662
21
-122.439
0
LINE
8
BLACK
6
CONTINUOUS
10
162.662
20
-122.439
11
162.488
21
-122.476
0
LINE
8
BLACK
6
CONTINUOUS
10
162.488
20
-122.476
11
162.31
21
-122.476
0
LINE
8
BLACK
6
CONTINUOUS
10
162.31
20
-122.476
11
162.136
21
-122.439
0
LINE
8
BLACK
6
CONTINUOUS
10
162.136
20
-122.439
11
161.974
21
-122.367
0
LINE
8
BLACK
6
CONTINUOUS
10
161.974
20
-122.367
11
161.83
21
-122.263
0
LINE
8
BLACK
6
CONTINUOUS
10
161.83
20
-122.263
11
161.711
21
-122.131
0
LINE
8
BLACK
6
CONTINUOUS
10
161.711
20
-122.131
11
161.623
21
-121.977
0
LINE
8
BLACK
6
CONTINUOUS
10
161.623
20
-121.977
11
161.568
21
-121.808
0
LINE
8
BLACK
6
CONTINUOUS
10
161.568
20
-121.808
11
161.549
21
-121.631
0
LINE
8
BLACK
6
CONTINUOUS
10
161.549
20
-121.631
11
161.568
21
-121.454
0
LINE
8
BLACK
6
CONTINUOUS
10
161.568
20
-121.454
11
161.623
21
-121.285
0
LINE
8
BLACK
6
CONTINUOUS
10
161.623
20
-121.285
11
161.711
21
-121.131
0
LINE
8
BLACK
6
CONTINUOUS
10
161.711
20
-121.131
11
161.83
21
-120.999
0
LINE
8
BLACK
6
CONTINUOUS
10
161.83
20
-120.999
11
161.974
21
-120.895
0
LINE
8
BLACK
6
CONTINUOUS
10
161.974
20
-120.895
11
162.136
21
-120.823
0
LINE
8
BLACK
6
CONTINUOUS
10
162.136
20
-120.823
11
162.31
21
-120.786
0
LINE
8
BLACK
6
CONTINUOUS
10
162.31
20
-120.786
11
162.488
21
-120.786
0
LINE
8
BLACK
6
CONTINUOUS
10
162.488
20
-120.786
11
162.662
21
-120.823
0
LINE
8
BLACK
6
CONTINUOUS
10
165.202
20
-118.283
11
165.364
21
-118.355
0
LINE
8
BLACK
6
CONTINUOUS
10
165.364
20
-118.355
11
165.508
21
-118.459
0
LINE
8
BLACK
6
CONTINUOUS
10
165.508
20
-118.459
11
165.627
21
-118.591
0
LINE
8
BLACK
6
CONTINUOUS
10
165.627
20
-118.591
11
165.716
21
-118.745
0
LINE
8
BLACK
6
CONTINUOUS
10
165.716
20
-118.745
11
165.77
21
-118.914
0
LINE
8
BLACK
6
CONTINUOUS
10
165.77
20
-118.914
11
165.789
21
-119.091
0
LINE
8
BLACK
6
CONTINUOUS
10
165.789
20
-119.091
11
165.77
21
-119.268
0
LINE
8
BLACK
6
CONTINUOUS
10
165.77
20
-119.268
11
165.716
21
-119.437
0
LINE
8
BLACK
6
CONTINUOUS
10
165.716
20
-119.437
11
165.627
21
-119.591
0
LINE
8
BLACK
6
CONTINUOUS
10
165.627
20
-119.591
11
165.508
21
-119.723
0
LINE
8
BLACK
6
CONTINUOUS
10
165.508
20
-119.723
11
165.364
21
-119.827
0
LINE
8
BLACK
6
CONTINUOUS
10
165.364
20
-119.827
11
165.202
21
-119.899
0
LINE
8
BLACK
6
CONTINUOUS
10
165.202
20
-119.899
11
165.028
21
-119.936
0
LINE
8
BLACK
6
CONTINUOUS
10
165.028
20
-119.936
11
164.85
21
-119.936
0
LINE
8
BLACK
6
CONTINUOUS
10
164.85
20
-119.936
11
164.676
21
-119.899
0
LINE
8
BLACK
6
CONTINUOUS
10
164.676
20
-119.899
11
164.514
21
-119.827
0
LINE
8
BLACK
6
CONTINUOUS
10
164.514
20
-119.827
11
164.37
21
-119.723
0
LINE
8
BLACK
6
CONTINUOUS
10
164.37
20
-119.723
11
164.251
21
-119.591
0
LINE
8
BLACK
6
CONTINUOUS
10
164.251
20
-119.591
11
164.163
21
-119.437
0
LINE
8
BLACK
6
CONTINUOUS
10
164.163
20
-119.437
11
164.108
21
-119.268
0
LINE
8
BLACK
6
CONTINUOUS
10
164.108
20
-119.268
11
164.089
21
-119.091
0
LINE
8
BLACK
6
CONTINUOUS
10
164.089
20
-119.091
11
164.108
21
-118.914
0
LINE
8
BLACK
6
CONTINUOUS
10
164.108
20
-118.914
11
164.163
21
-118.745
0
LINE
8
BLACK
6
CONTINUOUS
10
164.163
20
-118.745
11
164.251
21
-118.591
0
LINE
8
BLACK
6
CONTINUOUS
10
164.251
20
-118.591
11
164.37
21
-118.459
0
LINE
8
BLACK
6
CONTINUOUS
10
164.37
20
-118.459
11
164.514
21
-118.355
0
LINE
8
BLACK
6
CONTINUOUS
10
164.514
20
-118.355
11
164.676
21
-118.283
0
LINE
8
BLACK
6
CONTINUOUS
10
164.676
20
-118.283
11
164.85
21
-118.246
0
LINE
8
BLACK
6
CONTINUOUS
10
164.85
20
-118.246
11
165.028
21
-118.246
0
LINE
8
BLACK
6
CONTINUOUS
10
165.028
20
-118.246
11
165.202
21
-118.283
0
LINE
8
BLACK
6
CONTINUOUS
10
162.662
20
-118.283
11
162.824
21
-118.355
0
LINE
8
BLACK
6
CONTINUOUS
10
162.824
20
-118.355
11
162.968
21
-118.459
0
LINE
8
BLACK
6
CONTINUOUS
10
162.968
20
-118.459
11
163.087
21
-118.591
0
LINE
8
BLACK
6
CONTINUOUS
10
163.087
20
-118.591
11
163.176
21
-118.745
0
LINE
8
BLACK
6
CONTINUOUS
10
163.176
20
-118.745
11
163.23
21
-118.914
0
LINE
8
BLACK
6
CONTINUOUS
10
163.23
20
-118.914
11
163.249
21
-119.091
0
LINE
8
BLACK
6
CONTINUOUS
10
163.249
20
-119.091
11
163.23
21
-119.268
0
LINE
8
BLACK
6
CONTINUOUS
10
163.23
20
-119.268
11
163.176
21
-119.437
0
LINE
8
BLACK
6
CONTINUOUS
10
163.176
20
-119.437
11
163.087
21
-119.591
0
LINE
8
BLACK
6
CONTINUOUS
10
163.087
20
-119.591
11
162.968
21
-119.723
0
LINE
8
BLACK
6
CONTINUOUS
10
162.968
20
-119.723
11
162.824
21
-119.827
0
LINE
8
BLACK
6
CONTINUOUS
10
162.824
20
-119.827
11
162.662
21
-119.899
0
LINE
8
BLACK
6
CONTINUOUS
10
162.662
20
-119.899
11
162.488
21
-119.936
0
LINE
8
BLACK
6
CONTINUOUS
10
162.488
20
-119.936
11
162.31
21
-119.936
0
LINE
8
BLACK
6
CONTINUOUS
10
162.31
20
-119.936
11
162.136
21
-119.899
0
LINE
8
BLACK
6
CONTINUOUS
10
162.136
20
-119.899
11
161.974
21
-119.827
0
LINE
8
BLACK
6
CONTINUOUS
10
161.974
20
-119.827
11
161.83
21
-119.723
0
LINE
8
BLACK
6
CONTINUOUS
10
161.83
20
-119.723
11
161.711
21
-119.591
0
LINE
8
BLACK
6
CONTINUOUS
10
161.711
20
-119.591
11
161.623
21
-119.437
0
LINE
8
BLACK
6
CONTINUOUS
10
161.623
20
-119.437
11
161.568
21
-119.268
0
LINE
8
BLACK
6
CONTINUOUS
10
161.568
20
-119.268
11
161.549
21
-119.091
0
LINE
8
BLACK
6
CONTINUOUS
10
161.549
20
-119.091
11
161.568
21
-118.914
0
LINE
8
BLACK
6
CONTINUOUS
10
161.568
20
-118.914
11
161.623
21
-118.745
0
LINE
8
BLACK
6
CONTINUOUS
10
161.623
20
-118.745
11
161.711
21
-118.591
0
LINE
8
BLACK
6
CONTINUOUS
10
161.711
20
-118.591
11
161.83
21
-118.459
0
LINE
8
BLACK
6
CONTINUOUS
10
161.83
20
-118.459
11
161.974
21
-118.355
0
LINE
8
BLACK
6
CONTINUOUS
10
161.974
20
-118.355
11
162.136
21
-118.283
0
LINE
8
BLACK
6
CONTINUOUS
10
162.136
20
-118.283
11
162.31
21
-118.246
0
LINE
8
BLACK
6
CONTINUOUS
10
162.31
20
-118.246
11
162.488
21
-118.246
0
LINE
8
BLACK
6
CONTINUOUS
10
162.488
20
-118.246
11
162.662
21
-118.283
0
LINE
8
BLACK
6
CONTINUOUS
10
129.642
20
-115.743
11
129.804
21
-115.815
0
LINE
8
BLACK
6
CONTINUOUS
10
129.804
20
-115.815
11
129.948
21
-115.919
0
LINE
8
BLACK
6
CONTINUOUS
10
129.948
20
-115.919
11
130.067
21
-116.051
0
LINE
8
BLACK
6
CONTINUOUS
10
130.067
20
-116.051
11
130.156
21
-116.205
0
LINE
8
BLACK
6
CONTINUOUS
10
130.156
20
-116.205
11
130.21
21
-116.374
0
LINE
8
BLACK
6
CONTINUOUS
10
130.21
20
-116.374
11
130.229
21
-116.551
0
LINE
8
BLACK
6
CONTINUOUS
10
130.229
20
-116.551
11
130.21
21
-116.728
0
LINE
8
BLACK
6
CONTINUOUS
10
130.21
20
-116.728
11
130.156
21
-116.897
0
LINE
8
BLACK
6
CONTINUOUS
10
130.156
20
-116.897
11
130.067
21
-117.051
0
LINE
8
BLACK
6
CONTINUOUS
10
130.067
20
-117.051
11
129.948
21
-117.183
0
LINE
8
BLACK
6
CONTINUOUS
10
129.948
20
-117.183
11
129.804
21
-117.287
0
LINE
8
BLACK
6
CONTINUOUS
10
129.804
20
-117.287
11
129.642
21
-117.359
0
LINE
8
BLACK
6
CONTINUOUS
10
129.642
20
-117.359
11
129.468
21
-117.396
0
LINE
8
BLACK
6
CONTINUOUS
10
129.468
20
-117.396
11
129.29
21
-117.396
0
LINE
8
BLACK
6
CONTINUOUS
10
129.29
20
-117.396
11
129.116
21
-117.359
0
LINE
8
BLACK
6
CONTINUOUS
10
129.116
20
-117.359
11
128.954
21
-117.287
0
LINE
8
BLACK
6
CONTINUOUS
10
128.954
20
-117.287
11
128.81
21
-117.183
0
LINE
8
BLACK
6
CONTINUOUS
10
128.81
20
-117.183
11
128.691
21
-117.051
0
LINE
8
BLACK
6
CONTINUOUS
10
128.691
20
-117.051
11
128.603
21
-116.897
0
LINE
8
BLACK
6
CONTINUOUS
10
128.603
20
-116.897
11
128.548
21
-116.728
0
LINE
8
BLACK
6
CONTINUOUS
10
128.548
20
-116.728
11
128.529
21
-116.551
0
LINE
8
BLACK
6
CONTINUOUS
10
128.529
20
-116.551
11
128.548
21
-116.374
0
LINE
8
BLACK
6
CONTINUOUS
10
128.548
20
-116.374
11
128.603
21
-116.205
0
LINE
8
BLACK
6
CONTINUOUS
10
128.603
20
-116.205
11
128.691
21
-116.051
0
LINE
8
BLACK
6
CONTINUOUS
10
128.691
20
-116.051
11
128.81
21
-115.919
0
LINE
8
BLACK
6
CONTINUOUS
10
128.81
20
-115.919
11
128.954
21
-115.815
0
LINE
8
BLACK
6
CONTINUOUS
10
128.954
20
-115.815
11
129.116
21
-115.743
0
LINE
8
BLACK
6
CONTINUOUS
10
129.116
20
-115.743
11
129.29
21
-115.706
0
LINE
8
BLACK
6
CONTINUOUS
10
129.29
20
-115.706
11
129.468
21
-115.706
0
LINE
8
BLACK
6
CONTINUOUS
10
129.468
20
-115.706
11
129.642
21
-115.743
0
LINE
8
BLACK
6
CONTINUOUS
10
165.202
20
-115.743
11
165.364
21
-115.815
0
LINE
8
BLACK
6
CONTINUOUS
10
165.364
20
-115.815
11
165.508
21
-115.919
0
LINE
8
BLACK
6
CONTINUOUS
10
165.508
20
-115.919
11
165.627
21
-116.051
0
LINE
8
BLACK
6
CONTINUOUS
10
165.627
20
-116.051
11
165.716
21
-116.205
0
LINE
8
BLACK
6
CONTINUOUS
10
165.716
20
-116.205
11
165.77
21
-116.374
0
LINE
8
BLACK
6
CONTINUOUS
10
165.77
20
-116.374
11
165.789
21
-116.551
0
LINE
8
BLACK
6
CONTINUOUS
10
165.789
20
-116.551
11
165.77
21
-116.728
0
LINE
8
BLACK
6
CONTINUOUS
10
165.77
20
-116.728
11
165.716
21
-116.897
0
LINE
8
BLACK
6
CONTINUOUS
10
165.716
20
-116.897
11
165.627
21
-117.051
0
LINE
8
BLACK
6
CONTINUOUS
10
165.627
20
-117.051
11
165.508
21
-117.183
0
LINE
8
BLACK
6
CONTINUOUS
10
165.508
20
-117.183
11
165.364
21
-117.287
0
LINE
8
BLACK
6
CONTINUOUS
10
165.364
20
-117.287
11
165.202
21
-117.359
0
LINE
8
BLACK
6
CONTINUOUS
10
165.202
20
-117.359
11
165.028
21
-117.396
0
LINE
8
BLACK
6
CONTINUOUS
10
165.028
20
-117.396
11
164.85
21
-117.396
0
LINE
8
BLACK
6
CONTINUOUS
10
164.85
20
-117.396
11
164.676
21
-117.359
0
LINE
8
BLACK
6
CONTINUOUS
10
164.676
20
-117.359
11
164.514
21
-117.287
0
LINE
8
BLACK
6
CONTINUOUS
10
164.514
20
-117.287
11
164.37
21
-117.183
0
LINE
8
BLACK
6
CONTINUOUS
10
164.37
20
-117.183
11
164.251
21
-117.051
0
LINE
8
BLACK
6
CONTINUOUS
10
164.251
20
-117.051
11
164.163
21
-116.897
0
LINE
8
BLACK
6
CONTINUOUS
10
164.163
20
-116.897
11
164.108
21
-116.728
0
LINE
8
BLACK
6
CONTINUOUS
10
164.108
20
-116.728
11
164.089
21
-116.551
0
LINE
8
BLACK
6
CONTINUOUS
10
164.089
20
-116.551
11
164.108
21
-116.374
0
LINE
8
BLACK
6
CONTINUOUS
10
164.108
20
-116.374
11
164.163
21
-116.205
0
LINE
8
BLACK
6
CONTINUOUS
10
164.163
20
-116.205
11
164.251
21
-116.051
0
LINE
8
BLACK
6
CONTINUOUS
10
164.251
20
-116.051
11
164.37
21
-115.919
0
LINE
8
BLACK
6
CONTINUOUS
10
164.37
20
-115.919
11
164.514
21
-115.815
0
LINE
8
BLACK
6
CONTINUOUS
10
164.514
20
-115.815
11
164.676
21
-115.743
0
LINE
8
BLACK
6
CONTINUOUS
10
164.676
20
-115.743
11
164.85
21
-115.706
0
LINE
8
BLACK
6
CONTINUOUS
10
164.85
20
-115.706
11
165.028
21
-115.706
0
LINE
8
BLACK
6
CONTINUOUS
10
165.028
20
-115.706
11
165.202
21
-115.743
0
LINE
8
BLACK
6
CONTINUOUS
10
162.662
20
-115.743
11
162.824
21
-115.815
0
LINE
8
BLACK
6
CONTINUOUS
10
162.824
20
-115.815
11
162.968
21
-115.919
0
LINE
8
BLACK
6
CONTINUOUS
10
162.968
20
-115.919
11
163.087
21
-116.051
0
LINE
8
BLACK
6
CONTINUOUS
10
163.087
20
-116.051
11
163.176
21
-116.205
0
LINE
8
BLACK
6
CONTINUOUS
10
163.176
20
-116.205
11
163.23
21
-116.374
0
LINE
8
BLACK
6
CONTINUOUS
10
163.23
20
-116.374
11
163.249
21
-116.551
0
LINE
8
BLACK
6
CONTINUOUS
10
163.249
20
-116.551
11
163.23
21
-116.728
0
LINE
8
BLACK
6
CONTINUOUS
10
163.23
20
-116.728
11
163.176
21
-116.897
0
LINE
8
BLACK
6
CONTINUOUS
10
163.176
20
-116.897
11
163.087
21
-117.051
0
LINE
8
BLACK
6
CONTINUOUS
10
163.087
20
-117.051
11
162.968
21
-117.183
0
LINE
8
BLACK
6
CONTINUOUS
10
162.968
20
-117.183
11
162.824
21
-117.287
0
LINE
8
BLACK
6
CONTINUOUS
10
162.824
20
-117.287
11
162.662
21
-117.359
0
LINE
8
BLACK
6
CONTINUOUS
10
162.662
20
-117.359
11
162.488
21
-117.396
0
LINE
8
BLACK
6
CONTINUOUS
10
162.488
20
-117.396
11
162.31
21
-117.396
0
LINE
8
BLACK
6
CONTINUOUS
10
162.31
20
-117.396
11
162.136
21
-117.359
0
LINE
8
BLACK
6
CONTINUOUS
10
162.136
20
-117.359
11
161.974
21
-117.287
0
LINE
8
BLACK
6
CONTINUOUS
10
161.974
20
-117.287
11
161.83
21
-117.183
0
LINE
8
BLACK
6
CONTINUOUS
10
161.83
20
-117.183
11
161.711
21
-117.051
0
LINE
8
BLACK
6
CONTINUOUS
10
161.711
20
-117.051
11
161.623
21
-116.897
0
LINE
8
BLACK
6
CONTINUOUS
10
161.623
20
-116.897
11
161.568
21
-116.728
0
LINE
8
BLACK
6
CONTINUOUS
10
161.568
20
-116.728
11
161.549
21
-116.551
0
LINE
8
BLACK
6
CONTINUOUS
10
161.549
20
-116.551
11
161.568
21
-116.374
0
LINE
8
BLACK
6
CONTINUOUS
10
161.568
20
-116.374
11
161.623
21
-116.205
0
LINE
8
BLACK
6
CONTINUOUS
10
161.623
20
-116.205
11
161.711
21
-116.051
0
LINE
8
BLACK
6
CONTINUOUS
10
161.711
20
-116.051
11
161.83
21
-115.919
0
LINE
8
BLACK
6
CONTINUOUS
10
161.83
20
-115.919
11
161.974
21
-115.815
0
LINE
8
BLACK
6
CONTINUOUS
10
161.974
20
-115.815
11
162.136
21
-115.743
0
LINE
8
BLACK
6
CONTINUOUS
10
162.136
20
-115.743
11
162.31
21
-115.706
0
LINE
8
BLACK
6
CONTINUOUS
10
162.31
20
-115.706
11
162.488
21
-115.706
0
LINE
8
BLACK
6
CONTINUOUS
10
162.488
20
-115.706
11
162.662
21
-115.743
0
LINE
8
BLACK
6
CONTINUOUS
10
129.642
20
-113.203
11
129.804
21
-113.275
0
LINE
8
BLACK
6
CONTINUOUS
10
129.804
20
-113.275
11
129.948
21
-113.379
0
LINE
8
BLACK
6
CONTINUOUS
10
129.948
20
-113.379
11
130.067
21
-113.511
0
LINE
8
BLACK
6
CONTINUOUS
10
130.067
20
-113.511
11
130.156
21
-113.665
0
LINE
8
BLACK
6
CONTINUOUS
10
130.156
20
-113.665
11
130.21
21
-113.834
0
LINE
8
BLACK
6
CONTINUOUS
10
130.21
20
-113.834
11
130.229
21
-114.011
0
LINE
8
BLACK
6
CONTINUOUS
10
130.229
20
-114.011
11
130.21
21
-114.188
0
LINE
8
BLACK
6
CONTINUOUS
10
130.21
20
-114.188
11
130.156
21
-114.357
0
LINE
8
BLACK
6
CONTINUOUS
10
130.156
20
-114.357
11
130.067
21
-114.511
0
LINE
8
BLACK
6
CONTINUOUS
10
130.067
20
-114.511
11
129.948
21
-114.643
0
LINE
8
BLACK
6
CONTINUOUS
10
129.948
20
-114.643
11
129.804
21
-114.747
0
LINE
8
BLACK
6
CONTINUOUS
10
129.804
20
-114.747
11
129.642
21
-114.819
0
LINE
8
BLACK
6
CONTINUOUS
10
129.642
20
-114.819
11
129.468
21
-114.856
0
LINE
8
BLACK
6
CONTINUOUS
10
129.468
20
-114.856
11
129.29
21
-114.856
0
LINE
8
BLACK
6
CONTINUOUS
10
129.29
20
-114.856
11
129.116
21
-114.819
0
LINE
8
BLACK
6
CONTINUOUS
10
129.116
20
-114.819
11
128.954
21
-114.747
0
LINE
8
BLACK
6
CONTINUOUS
10
128.954
20
-114.747
11
128.81
21
-114.643
0
LINE
8
BLACK
6
CONTINUOUS
10
128.81
20
-114.643
11
128.691
21
-114.511
0
LINE
8
BLACK
6
CONTINUOUS
10
128.691
20
-114.511
11
128.603
21
-114.357
0
LINE
8
BLACK
6
CONTINUOUS
10
128.603
20
-114.357
11
128.548
21
-114.188
0
LINE
8
BLACK
6
CONTINUOUS
10
128.548
20
-114.188
11
128.529
21
-114.011
0
LINE
8
BLACK
6
CONTINUOUS
10
128.529
20
-114.011
11
128.548
21
-113.834
0
LINE
8
BLACK
6
CONTINUOUS
10
128.548
20
-113.834
11
128.603
21
-113.665
0
LINE
8
BLACK
6
CONTINUOUS
10
128.603
20
-113.665
11
128.691
21
-113.511
0
LINE
8
BLACK
6
CONTINUOUS
10
128.691
20
-113.511
11
128.81
21
-113.379
0
LINE
8
BLACK
6
CONTINUOUS
10
128.81
20
-113.379
11
128.954
21
-113.275
0
LINE
8
BLACK
6
CONTINUOUS
10
128.954
20
-113.275
11
129.116
21
-113.203
0
LINE
8
BLACK
6
CONTINUOUS
10
129.116
20
-113.203
11
129.29
21
-113.166
0
LINE
8
BLACK
6
CONTINUOUS
10
129.29
20
-113.166
11
129.468
21
-113.166
0
LINE
8
BLACK
6
CONTINUOUS
10
129.468
20
-113.166
11
129.642
21
-113.203
0
LINE
8
BLACK
6
CONTINUOUS
10
165.202
20
-113.203
11
165.364
21
-113.275
0
LINE
8
BLACK
6
CONTINUOUS
10
165.364
20
-113.275
11
165.508
21
-113.379
0
LINE
8
BLACK
6
CONTINUOUS
10
165.508
20
-113.379
11
165.627
21
-113.511
0
LINE
8
BLACK
6
CONTINUOUS
10
165.627
20
-113.511
11
165.716
21
-113.665
0
LINE
8
BLACK
6
CONTINUOUS
10
165.716
20
-113.665
11
165.77
21
-113.834
0
LINE
8
BLACK
6
CONTINUOUS
10
165.77
20
-113.834
11
165.789
21
-114.011
0
LINE
8
BLACK
6
CONTINUOUS
10
165.789
20
-114.011
11
165.77
21
-114.188
0
LINE
8
BLACK
6
CONTINUOUS
10
165.77
20
-114.188
11
165.716
21
-114.357
0
LINE
8
BLACK
6
CONTINUOUS
10
165.716
20
-114.357
11
165.627
21
-114.511
0
LINE
8
BLACK
6
CONTINUOUS
10
165.627
20
-114.511
11
165.508
21
-114.643
0
LINE
8
BLACK
6
CONTINUOUS
10
165.508
20
-114.643
11
165.364
21
-114.747
0
LINE
8
BLACK
6
CONTINUOUS
10
165.364
20
-114.747
11
165.202
21
-114.819
0
LINE
8
BLACK
6
CONTINUOUS
10
165.202
20
-114.819
11
165.028
21
-114.856
0
LINE
8
BLACK
6
CONTINUOUS
10
165.028
20
-114.856
11
164.85
21
-114.856
0
LINE
8
BLACK
6
CONTINUOUS
10
164.85
20
-114.856
11
164.676
21
-114.819
0
LINE
8
BLACK
6
CONTINUOUS
10
164.676
20
-114.819
11
164.514
21
-114.747
0
LINE
8
BLACK
6
CONTINUOUS
10
164.514
20
-114.747
11
164.37
21
-114.643
0
LINE
8
BLACK
6
CONTINUOUS
10
164.37
20
-114.643
11
164.251
21
-114.511
0
LINE
8
BLACK
6
CONTINUOUS
10
164.251
20
-114.511
11
164.163
21
-114.357
0
LINE
8
BLACK
6
CONTINUOUS
10
164.163
20
-114.357
11
164.108
21
-114.188
0
LINE
8
BLACK
6
CONTINUOUS
10
164.108
20
-114.188
11
164.089
21
-114.011
0
LINE
8
BLACK
6
CONTINUOUS
10
164.089
20
-114.011
11
164.108
21
-113.834
0
LINE
8
BLACK
6
CONTINUOUS
10
164.108
20
-113.834
11
164.163
21
-113.665
0
LINE
8
BLACK
6
CONTINUOUS
10
164.163
20
-113.665
11
164.251
21
-113.511
0
LINE
8
BLACK
6
CONTINUOUS
10
164.251
20
-113.511
11
164.37
21
-113.379
0
LINE
8
BLACK
6
CONTINUOUS
10
164.37
20
-113.379
11
164.514
21
-113.275
0
LINE
8
BLACK
6
CONTINUOUS
10
164.514
20
-113.275
11
164.676
21
-113.203
0
LINE
8
BLACK
6
CONTINUOUS
10
164.676
20
-113.203
11
164.85
21
-113.166
0
LINE
8
BLACK
6
CONTINUOUS
10
164.85
20
-113.166
11
165.028
21
-113.166
0
LINE
8
BLACK
6
CONTINUOUS
10
165.028
20
-113.166
11
165.202
21
-113.203
0
LINE
8
BLACK
6
CONTINUOUS
10
162.662
20
-113.203
11
162.824
21
-113.275
0
LINE
8
BLACK
6
CONTINUOUS
10
162.824
20
-113.275
11
162.968
21
-113.379
0
LINE
8
BLACK
6
CONTINUOUS
10
162.968
20
-113.379
11
163.087
21
-113.511
0
LINE
8
BLACK
6
CONTINUOUS
10
163.087
20
-113.511
11
163.176
21
-113.665
0
LINE
8
BLACK
6
CONTINUOUS
10
163.176
20
-113.665
11
163.23
21
-113.834
0
LINE
8
BLACK
6
CONTINUOUS
10
163.23
20
-113.834
11
163.249
21
-114.011
0
LINE
8
BLACK
6
CONTINUOUS
10
163.249
20
-114.011
11
163.23
21
-114.188
0
LINE
8
BLACK
6
CONTINUOUS
10
163.23
20
-114.188
11
163.176
21
-114.357
0
LINE
8
BLACK
6
CONTINUOUS
10
163.176
20
-114.357
11
163.087
21
-114.511
0
LINE
8
BLACK
6
CONTINUOUS
10
163.087
20
-114.511
11
162.968
21
-114.643
0
LINE
8
BLACK
6
CONTINUOUS
10
162.968
20
-114.643
11
162.824
21
-114.747
0
LINE
8
BLACK
6
CONTINUOUS
10
162.824
20
-114.747
11
162.662
21
-114.819
0
LINE
8
BLACK
6
CONTINUOUS
10
162.662
20
-114.819
11
162.488
21
-114.856
0
LINE
8
BLACK
6
CONTINUOUS
10
162.488
20
-114.856
11
162.31
21
-114.856
0
LINE
8
BLACK
6
CONTINUOUS
10
162.31
20
-114.856
11
162.136
21
-114.819
0
LINE
8
BLACK
6
CONTINUOUS
10
162.136
20
-114.819
11
161.974
21
-114.747
0
LINE
8
BLACK
6
CONTINUOUS
10
161.974
20
-114.747
11
161.83
21
-114.643
0
LINE
8
BLACK
6
CONTINUOUS
10
161.83
20
-114.643
11
161.711
21
-114.511
0
LINE
8
BLACK
6
CONTINUOUS
10
161.711
20
-114.511
11
161.623
21
-114.357
0
LINE
8
BLACK
6
CONTINUOUS
10
161.623
20
-114.357
11
161.568
21
-114.188
0
LINE
8
BLACK
6
CONTINUOUS
10
161.568
20
-114.188
11
161.549
21
-114.011
0
LINE
8
BLACK
6
CONTINUOUS
10
161.549
20
-114.011
11
161.568
21
-113.834
0
LINE
8
BLACK
6
CONTINUOUS
10
161.568
20
-113.834
11
161.623
21
-113.665
0
LINE
8
BLACK
6
CONTINUOUS
10
161.623
20
-113.665
11
161.711
21
-113.511
0
LINE
8
BLACK
6
CONTINUOUS
10
161.711
20
-113.511
11
161.83
21
-113.379
0
LINE
8
BLACK
6
CONTINUOUS
10
161.83
20
-113.379
11
161.974
21
-113.275
0
LINE
8
BLACK
6
CONTINUOUS
10
161.974
20
-113.275
11
162.136
21
-113.203
0
LINE
8
BLACK
6
CONTINUOUS
10
162.136
20
-113.203
11
162.31
21
-113.166
0
LINE
8
BLACK
6
CONTINUOUS
10
162.31
20
-113.166
11
162.488
21
-113.166
0
LINE
8
BLACK
6
CONTINUOUS
10
162.488
20
-113.166
11
162.662
21
-113.203
0
LINE
8
BLACK
6
CONTINUOUS
10
130.229
20
-112.321
11
128.529
21
-112.321
0
LINE
8
BLACK
6
CONTINUOUS
10
128.529
20
-112.321
11
128.529
21
-110.621
0
LINE
8
BLACK
6
CONTINUOUS
10
128.529
20
-110.621
11
130.229
21
-110.621
0
LINE
8
BLACK
6
CONTINUOUS
10
130.229
20
-110.621
11
130.229
21
-112.321
0
LINE
8
BLACK
6
CONTINUOUS
10
165.202
20
-110.663
11
165.364
21
-110.735
0
LINE
8
BLACK
6
CONTINUOUS
10
165.364
20
-110.735
11
165.508
21
-110.839
0
LINE
8
BLACK
6
CONTINUOUS
10
165.508
20
-110.839
11
165.627
21
-110.971
0
LINE
8
BLACK
6
CONTINUOUS
10
165.627
20
-110.971
11
165.716
21
-111.125
0
LINE
8
BLACK
6
CONTINUOUS
10
165.716
20
-111.125
11
165.77
21
-111.294
0
LINE
8
BLACK
6
CONTINUOUS
10
165.77
20
-111.294
11
165.789
21
-111.471
0
LINE
8
BLACK
6
CONTINUOUS
10
165.789
20
-111.471
11
165.77
21
-111.648
0
LINE
8
BLACK
6
CONTINUOUS
10
165.77
20
-111.648
11
165.716
21
-111.817
0
LINE
8
BLACK
6
CONTINUOUS
10
165.716
20
-111.817
11
165.627
21
-111.971
0
LINE
8
BLACK
6
CONTINUOUS
10
165.627
20
-111.971
11
165.508
21
-112.103
0
LINE
8
BLACK
6
CONTINUOUS
10
165.508
20
-112.103
11
165.364
21
-112.207
0
LINE
8
BLACK
6
CONTINUOUS
10
165.364
20
-112.207
11
165.202
21
-112.279
0
LINE
8
BLACK
6
CONTINUOUS
10
165.202
20
-112.279
11
165.028
21
-112.316
0
LINE
8
BLACK
6
CONTINUOUS
10
165.028
20
-112.316
11
164.85
21
-112.316
0
LINE
8
BLACK
6
CONTINUOUS
10
164.85
20
-112.316
11
164.676
21
-112.279
0
LINE
8
BLACK
6
CONTINUOUS
10
164.676
20
-112.279
11
164.514
21
-112.207
0
LINE
8
BLACK
6
CONTINUOUS
10
164.514
20
-112.207
11
164.37
21
-112.103
0
LINE
8
BLACK
6
CONTINUOUS
10
164.37
20
-112.103
11
164.251
21
-111.971
0
LINE
8
BLACK
6
CONTINUOUS
10
164.251
20
-111.971
11
164.163
21
-111.817
0
LINE
8
BLACK
6
CONTINUOUS
10
164.163
20
-111.817
11
164.108
21
-111.648
0
LINE
8
BLACK
6
CONTINUOUS
10
164.108
20
-111.648
11
164.089
21
-111.471
0
LINE
8
BLACK
6
CONTINUOUS
10
164.089
20
-111.471
11
164.108
21
-111.294
0
LINE
8
BLACK
6
CONTINUOUS
10
164.108
20
-111.294
11
164.163
21
-111.125
0
LINE
8
BLACK
6
CONTINUOUS
10
164.163
20
-111.125
11
164.251
21
-110.971
0
LINE
8
BLACK
6
CONTINUOUS
10
164.251
20
-110.971
11
164.37
21
-110.839
0
LINE
8
BLACK
6
CONTINUOUS
10
164.37
20
-110.839
11
164.514
21
-110.735
0
LINE
8
BLACK
6
CONTINUOUS
10
164.514
20
-110.735
11
164.676
21
-110.663
0
LINE
8
BLACK
6
CONTINUOUS
10
164.676
20
-110.663
11
164.85
21
-110.626
0
LINE
8
BLACK
6
CONTINUOUS
10
164.85
20
-110.626
11
165.028
21
-110.626
0
LINE
8
BLACK
6
CONTINUOUS
10
165.028
20
-110.626
11
165.202
21
-110.663
0
LINE
8
BLACK
6
CONTINUOUS
10
162.662
20
-110.663
11
162.824
21
-110.735
0
LINE
8
BLACK
6
CONTINUOUS
10
162.824
20
-110.735
11
162.968
21
-110.839
0
LINE
8
BLACK
6
CONTINUOUS
10
162.968
20
-110.839
11
163.087
21
-110.971
0
LINE
8
BLACK
6
CONTINUOUS
10
163.087
20
-110.971
11
163.176
21
-111.125
0
LINE
8
BLACK
6
CONTINUOUS
10
163.176
20
-111.125
11
163.23
21
-111.294
0
LINE
8
BLACK
6
CONTINUOUS
10
163.23
20
-111.294
11
163.249
21
-111.471
0
LINE
8
BLACK
6
CONTINUOUS
10
163.249
20
-111.471
11
163.23
21
-111.648
0
LINE
8
BLACK
6
CONTINUOUS
10
163.23
20
-111.648
11
163.176
21
-111.817
0
LINE
8
BLACK
6
CONTINUOUS
10
163.176
20
-111.817
11
163.087
21
-111.971
0
LINE
8
BLACK
6
CONTINUOUS
10
163.087
20
-111.971
11
162.968
21
-112.103
0
LINE
8
BLACK
6
CONTINUOUS
10
162.968
20
-112.103
11
162.824
21
-112.207
0
LINE
8
BLACK
6
CONTINUOUS
10
162.824
20
-112.207
11
162.662
21
-112.279
0
LINE
8
BLACK
6
CONTINUOUS
10
162.662
20
-112.279
11
162.488
21
-112.316
0
LINE
8
BLACK
6
CONTINUOUS
10
162.488
20
-112.316
11
162.31
21
-112.316
0
LINE
8
BLACK
6
CONTINUOUS
10
162.31
20
-112.316
11
162.136
21
-112.279
0
LINE
8
BLACK
6
CONTINUOUS
10
162.136
20
-112.279
11
161.974
21
-112.207
0
LINE
8
BLACK
6
CONTINUOUS
10
161.974
20
-112.207
11
161.83
21
-112.103
0
LINE
8
BLACK
6
CONTINUOUS
10
161.83
20
-112.103
11
161.711
21
-111.971
0
LINE
8
BLACK
6
CONTINUOUS
10
161.711
20
-111.971
11
161.623
21
-111.817
0
LINE
8
BLACK
6
CONTINUOUS
10
161.623
20
-111.817
11
161.568
21
-111.648
0
LINE
8
BLACK
6
CONTINUOUS
10
161.568
20
-111.648
11
161.549
21
-111.471
0
LINE
8
BLACK
6
CONTINUOUS
10
161.549
20
-111.471
11
161.568
21
-111.294
0
LINE
8
BLACK
6
CONTINUOUS
10
161.568
20
-111.294
11
161.623
21
-111.125
0
LINE
8
BLACK
6
CONTINUOUS
10
161.623
20
-111.125
11
161.711
21
-110.971
0
LINE
8
BLACK
6
CONTINUOUS
10
161.711
20
-110.971
11
161.83
21
-110.839
0
LINE
8
BLACK
6
CONTINUOUS
10
161.83
20
-110.839
11
161.974
21
-110.735
0
LINE
8
BLACK
6
CONTINUOUS
10
161.974
20
-110.735
11
162.136
21
-110.663
0
LINE
8
BLACK
6
CONTINUOUS
10
162.136
20
-110.663
11
162.31
21
-110.626
0
LINE
8
BLACK
6
CONTINUOUS
10
162.31
20
-110.626
11
162.488
21
-110.626
0
LINE
8
BLACK
6
CONTINUOUS
10
162.488
20
-110.626
11
162.662
21
-110.663
0
LINE
8
BLACK
6
CONTINUOUS
10
165.202
20
-108.123
11
165.364
21
-108.195
0
LINE
8
BLACK
6
CONTINUOUS
10
165.364
20
-108.195
11
165.508
21
-108.299
0
LINE
8
BLACK
6
CONTINUOUS
10
165.508
20
-108.299
11
165.627
21
-108.431
0
LINE
8
BLACK
6
CONTINUOUS
10
165.627
20
-108.431
11
165.716
21
-108.585
0
LINE
8
BLACK
6
CONTINUOUS
10
165.716
20
-108.585
11
165.77
21
-108.754
0
LINE
8
BLACK
6
CONTINUOUS
10
165.77
20
-108.754
11
165.789
21
-108.931
0
LINE
8
BLACK
6
CONTINUOUS
10
165.789
20
-108.931
11
165.77
21
-109.108
0
LINE
8
BLACK
6
CONTINUOUS
10
165.77
20
-109.108
11
165.716
21
-109.277
0
LINE
8
BLACK
6
CONTINUOUS
10
165.716
20
-109.277
11
165.627
21
-109.431
0
LINE
8
BLACK
6
CONTINUOUS
10
165.627
20
-109.431
11
165.508
21
-109.563
0
LINE
8
BLACK
6
CONTINUOUS
10
165.508
20
-109.563
11
165.364
21
-109.667
0
LINE
8
BLACK
6
CONTINUOUS
10
165.364
20
-109.667
11
165.202
21
-109.739
0
LINE
8
BLACK
6
CONTINUOUS
10
165.202
20
-109.739
11
165.028
21
-109.776
0
LINE
8
BLACK
6
CONTINUOUS
10
165.028
20
-109.776
11
164.85
21
-109.776
0
LINE
8
BLACK
6
CONTINUOUS
10
164.85
20
-109.776
11
164.676
21
-109.739
0
LINE
8
BLACK
6
CONTINUOUS
10
164.676
20
-109.739
11
164.514
21
-109.667
0
LINE
8
BLACK
6
CONTINUOUS
10
164.514
20
-109.667
11
164.37
21
-109.563
0
LINE
8
BLACK
6
CONTINUOUS
10
164.37
20
-109.563
11
164.251
21
-109.431
0
LINE
8
BLACK
6
CONTINUOUS
10
164.251
20
-109.431
11
164.163
21
-109.277
0
LINE
8
BLACK
6
CONTINUOUS
10
164.163
20
-109.277
11
164.108
21
-109.108
0
LINE
8
BLACK
6
CONTINUOUS
10
164.108
20
-109.108
11
164.089
21
-108.931
0
LINE
8
BLACK
6
CONTINUOUS
10
164.089
20
-108.931
11
164.108
21
-108.754
0
LINE
8
BLACK
6
CONTINUOUS
10
164.108
20
-108.754
11
164.163
21
-108.585
0
LINE
8
BLACK
6
CONTINUOUS
10
164.163
20
-108.585
11
164.251
21
-108.431
0
LINE
8
BLACK
6
CONTINUOUS
10
164.251
20
-108.431
11
164.37
21
-108.299
0
LINE
8
BLACK
6
CONTINUOUS
10
164.37
20
-108.299
11
164.514
21
-108.195
0
LINE
8
BLACK
6
CONTINUOUS
10
164.514
20
-108.195
11
164.676
21
-108.123
0
LINE
8
BLACK
6
CONTINUOUS
10
164.676
20
-108.123
11
164.85
21
-108.086
0
LINE
8
BLACK
6
CONTINUOUS
10
164.85
20
-108.086
11
165.028
21
-108.086
0
LINE
8
BLACK
6
CONTINUOUS
10
165.028
20
-108.086
11
165.202
21
-108.123
0
LINE
8
BLACK
6
CONTINUOUS
10
162.662
20
-108.123
11
162.824
21
-108.195
0
LINE
8
BLACK
6
CONTINUOUS
10
162.824
20
-108.195
11
162.968
21
-108.299
0
LINE
8
BLACK
6
CONTINUOUS
10
162.968
20
-108.299
11
163.087
21
-108.431
0
LINE
8
BLACK
6
CONTINUOUS
10
163.087
20
-108.431
11
163.176
21
-108.585
0
LINE
8
BLACK
6
CONTINUOUS
10
163.176
20
-108.585
11
163.23
21
-108.754
0
LINE
8
BLACK
6
CONTINUOUS
10
163.23
20
-108.754
11
163.249
21
-108.931
0
LINE
8
BLACK
6
CONTINUOUS
10
163.249
20
-108.931
11
163.23
21
-109.108
0
LINE
8
BLACK
6
CONTINUOUS
10
163.23
20
-109.108
11
163.176
21
-109.277
0
LINE
8
BLACK
6
CONTINUOUS
10
163.176
20
-109.277
11
163.087
21
-109.431
0
LINE
8
BLACK
6
CONTINUOUS
10
163.087
20
-109.431
11
162.968
21
-109.563
0
LINE
8
BLACK
6
CONTINUOUS
10
162.968
20
-109.563
11
162.824
21
-109.667
0
LINE
8
BLACK
6
CONTINUOUS
10
162.824
20
-109.667
11
162.662
21
-109.739
0
LINE
8
BLACK
6
CONTINUOUS
10
162.662
20
-109.739
11
162.488
21
-109.776
0
LINE
8
BLACK
6
CONTINUOUS
10
162.488
20
-109.776
11
162.31
21
-109.776
0
LINE
8
BLACK
6
CONTINUOUS
10
162.31
20
-109.776
11
162.136
21
-109.739
0
LINE
8
BLACK
6
CONTINUOUS
10
162.136
20
-109.739
11
161.974
21
-109.667
0
LINE
8
BLACK
6
CONTINUOUS
10
161.974
20
-109.667
11
161.83
21
-109.563
0
LINE
8
BLACK
6
CONTINUOUS
10
161.83
20
-109.563
11
161.711
21
-109.431
0
LINE
8
BLACK
6
CONTINUOUS
10
161.711
20
-109.431
11
161.623
21
-109.277
0
LINE
8
BLACK
6
CONTINUOUS
10
161.623
20
-109.277
11
161.568
21
-109.108
0
LINE
8
BLACK
6
CONTINUOUS
10
161.568
20
-109.108
11
161.549
21
-108.931
0
LINE
8
BLACK
6
CONTINUOUS
10
161.549
20
-108.931
11
161.568
21
-108.754
0
LINE
8
BLACK
6
CONTINUOUS
10
161.568
20
-108.754
11
161.623
21
-108.585
0
LINE
8
BLACK
6
CONTINUOUS
10
161.623
20
-108.585
11
161.711
21
-108.431
0
LINE
8
BLACK
6
CONTINUOUS
10
161.711
20
-108.431
11
161.83
21
-108.299
0
LINE
8
BLACK
6
CONTINUOUS
10
161.83
20
-108.299
11
161.974
21
-108.195
0
LINE
8
BLACK
6
CONTINUOUS
10
161.974
20
-108.195
11
162.136
21
-108.123
0
LINE
8
BLACK
6
CONTINUOUS
10
162.136
20
-108.123
11
162.31
21
-108.086
0
LINE
8
BLACK
6
CONTINUOUS
10
162.31
20
-108.086
11
162.488
21
-108.086
0
LINE
8
BLACK
6
CONTINUOUS
10
162.488
20
-108.086
11
162.662
21
-108.123
0
LINE
8
BLACK
6
CONTINUOUS
10
129.642
20
-105.583
11
129.804
21
-105.655
0
LINE
8
BLACK
6
CONTINUOUS
10
129.804
20
-105.655
11
129.948
21
-105.759
0
LINE
8
BLACK
6
CONTINUOUS
10
129.948
20
-105.759
11
130.067
21
-105.891
0
LINE
8
BLACK
6
CONTINUOUS
10
130.067
20
-105.891
11
130.156
21
-106.045
0
LINE
8
BLACK
6
CONTINUOUS
10
130.156
20
-106.045
11
130.21
21
-106.214
0
LINE
8
BLACK
6
CONTINUOUS
10
130.21
20
-106.214
11
130.229
21
-106.391
0
LINE
8
BLACK
6
CONTINUOUS
10
130.229
20
-106.391
11
130.21
21
-106.568
0
LINE
8
BLACK
6
CONTINUOUS
10
130.21
20
-106.568
11
130.156
21
-106.737
0
LINE
8
BLACK
6
CONTINUOUS
10
130.156
20
-106.737
11
130.067
21
-106.891
0
LINE
8
BLACK
6
CONTINUOUS
10
130.067
20
-106.891
11
129.948
21
-107.023
0
LINE
8
BLACK
6
CONTINUOUS
10
129.948
20
-107.023
11
129.804
21
-107.127
0
LINE
8
BLACK
6
CONTINUOUS
10
129.804
20
-107.127
11
129.642
21
-107.199
0
LINE
8
BLACK
6
CONTINUOUS
10
129.642
20
-107.199
11
129.468
21
-107.236
0
LINE
8
BLACK
6
CONTINUOUS
10
129.468
20
-107.236
11
129.29
21
-107.236
0
LINE
8
BLACK
6
CONTINUOUS
10
129.29
20
-107.236
11
129.116
21
-107.199
0
LINE
8
BLACK
6
CONTINUOUS
10
129.116
20
-107.199
11
128.954
21
-107.127
0
LINE
8
BLACK
6
CONTINUOUS
10
128.954
20
-107.127
11
128.81
21
-107.023
0
LINE
8
BLACK
6
CONTINUOUS
10
128.81
20
-107.023
11
128.691
21
-106.891
0
LINE
8
BLACK
6
CONTINUOUS
10
128.691
20
-106.891
11
128.603
21
-106.737
0
LINE
8
BLACK
6
CONTINUOUS
10
128.603
20
-106.737
11
128.548
21
-106.568
0
LINE
8
BLACK
6
CONTINUOUS
10
128.548
20
-106.568
11
128.529
21
-106.391
0
LINE
8
BLACK
6
CONTINUOUS
10
128.529
20
-106.391
11
128.548
21
-106.214
0
LINE
8
BLACK
6
CONTINUOUS
10
128.548
20
-106.214
11
128.603
21
-106.045
0
LINE
8
BLACK
6
CONTINUOUS
10
128.603
20
-106.045
11
128.691
21
-105.891
0
LINE
8
BLACK
6
CONTINUOUS
10
128.691
20
-105.891
11
128.81
21
-105.759
0
LINE
8
BLACK
6
CONTINUOUS
10
128.81
20
-105.759
11
128.954
21
-105.655
0
LINE
8
BLACK
6
CONTINUOUS
10
128.954
20
-105.655
11
129.116
21
-105.583
0
LINE
8
BLACK
6
CONTINUOUS
10
129.116
20
-105.583
11
129.29
21
-105.546
0
LINE
8
BLACK
6
CONTINUOUS
10
129.29
20
-105.546
11
129.468
21
-105.546
0
LINE
8
BLACK
6
CONTINUOUS
10
129.468
20
-105.546
11
129.642
21
-105.583
0
LINE
8
BLACK
6
CONTINUOUS
10
165.202
20
-105.583
11
165.364
21
-105.655
0
LINE
8
BLACK
6
CONTINUOUS
10
165.364
20
-105.655
11
165.508
21
-105.759
0
LINE
8
BLACK
6
CONTINUOUS
10
165.508
20
-105.759
11
165.627
21
-105.891
0
LINE
8
BLACK
6
CONTINUOUS
10
165.627
20
-105.891
11
165.716
21
-106.045
0
LINE
8
BLACK
6
CONTINUOUS
10
165.716
20
-106.045
11
165.77
21
-106.214
0
LINE
8
BLACK
6
CONTINUOUS
10
165.77
20
-106.214
11
165.789
21
-106.391
0
LINE
8
BLACK
6
CONTINUOUS
10
165.789
20
-106.391
11
165.77
21
-106.568
0
LINE
8
BLACK
6
CONTINUOUS
10
165.77
20
-106.568
11
165.716
21
-106.737
0
LINE
8
BLACK
6
CONTINUOUS
10
165.716
20
-106.737
11
165.627
21
-106.891
0
LINE
8
BLACK
6
CONTINUOUS
10
165.627
20
-106.891
11
165.508
21
-107.023
0
LINE
8
BLACK
6
CONTINUOUS
10
165.508
20
-107.023
11
165.364
21
-107.127
0
LINE
8
BLACK
6
CONTINUOUS
10
165.364
20
-107.127
11
165.202
21
-107.199
0
LINE
8
BLACK
6
CONTINUOUS
10
165.202
20
-107.199
11
165.028
21
-107.236
0
LINE
8
BLACK
6
CONTINUOUS
10
165.028
20
-107.236
11
164.85
21
-107.236
0
LINE
8
BLACK
6
CONTINUOUS
10
164.85
20
-107.236
11
164.676
21
-107.199
0
LINE
8
BLACK
6
CONTINUOUS
10
164.676
20
-107.199
11
164.514
21
-107.127
0
LINE
8
BLACK
6
CONTINUOUS
10
164.514
20
-107.127
11
164.37
21
-107.023
0
LINE
8
BLACK
6
CONTINUOUS
10
164.37
20
-107.023
11
164.251
21
-106.891
0
LINE
8
BLACK
6
CONTINUOUS
10
164.251
20
-106.891
11
164.163
21
-106.737
0
LINE
8
BLACK
6
CONTINUOUS
10
164.163
20
-106.737
11
164.108
21
-106.568
0
LINE
8
BLACK
6
CONTINUOUS
10
164.108
20
-106.568
11
164.089
21
-106.391
0
LINE
8
BLACK
6
CONTINUOUS
10
164.089
20
-106.391
11
164.108
21
-106.214
0
LINE
8
BLACK
6
CONTINUOUS
10
164.108
20
-106.214
11
164.163
21
-106.045
0
LINE
8
BLACK
6
CONTINUOUS
10
164.163
20
-106.045
11
164.251
21
-105.891
0
LINE
8
BLACK
6
CONTINUOUS
10
164.251
20
-105.891
11
164.37
21
-105.759
0
LINE
8
BLACK
6
CONTINUOUS
10
164.37
20
-105.759
11
164.514
21
-105.655
0
LINE
8
BLACK
6
CONTINUOUS
10
164.514
20
-105.655
11
164.676
21
-105.583
0
LINE
8
BLACK
6
CONTINUOUS
10
164.676
20
-105.583
11
164.85
21
-105.546
0
LINE
8
BLACK
6
CONTINUOUS
10
164.85
20
-105.546
11
165.028
21
-105.546
0
LINE
8
BLACK
6
CONTINUOUS
10
165.028
20
-105.546
11
165.202
21
-105.583
0
LINE
8
BLACK
6
CONTINUOUS
10
162.662
20
-105.583
11
162.824
21
-105.655
0
LINE
8
BLACK
6
CONTINUOUS
10
162.824
20
-105.655
11
162.968
21
-105.759
0
LINE
8
BLACK
6
CONTINUOUS
10
162.968
20
-105.759
11
163.087
21
-105.891
0
LINE
8
BLACK
6
CONTINUOUS
10
163.087
20
-105.891
11
163.176
21
-106.045
0
LINE
8
BLACK
6
CONTINUOUS
10
163.176
20
-106.045
11
163.23
21
-106.214
0
LINE
8
BLACK
6
CONTINUOUS
10
163.23
20
-106.214
11
163.249
21
-106.391
0
LINE
8
BLACK
6
CONTINUOUS
10
163.249
20
-106.391
11
163.23
21
-106.568
0
LINE
8
BLACK
6
CONTINUOUS
10
163.23
20
-106.568
11
163.176
21
-106.737
0
LINE
8
BLACK
6
CONTINUOUS
10
163.176
20
-106.737
11
163.087
21
-106.891
0
LINE
8
BLACK
6
CONTINUOUS
10
163.087
20
-106.891
11
162.968
21
-107.023
0
LINE
8
BLACK
6
CONTINUOUS
10
162.968
20
-107.023
11
162.824
21
-107.127
0
LINE
8
BLACK
6
CONTINUOUS
10
162.824
20
-107.127
11
162.662
21
-107.199
0
LINE
8
BLACK
6
CONTINUOUS
10
162.662
20
-107.199
11
162.488
21
-107.236
0
LINE
8
BLACK
6
CONTINUOUS
10
162.488
20
-107.236
11
162.31
21
-107.236
0
LINE
8
BLACK
6
CONTINUOUS
10
162.31
20
-107.236
11
162.136
21
-107.199
0
LINE
8
BLACK
6
CONTINUOUS
10
162.136
20
-107.199
11
161.974
21
-107.127
0
LINE
8
BLACK
6
CONTINUOUS
10
161.974
20
-107.127
11
161.83
21
-107.023
0
LINE
8
BLACK
6
CONTINUOUS
10
161.83
20
-107.023
11
161.711
21
-106.891
0
LINE
8
BLACK
6
CONTINUOUS
10
161.711
20
-106.891
11
161.623
21
-106.737
0
LINE
8
BLACK
6
CONTINUOUS
10
161.623
20
-106.737
11
161.568
21
-106.568
0
LINE
8
BLACK
6
CONTINUOUS
10
161.568
20
-106.568
11
161.549
21
-106.391
0
LINE
8
BLACK
6
CONTINUOUS
10
161.549
20
-106.391
11
161.568
21
-106.214
0
LINE
8
BLACK
6
CONTINUOUS
10
161.568
20
-106.214
11
161.623
21
-106.045
0
LINE
8
BLACK
6
CONTINUOUS
10
161.623
20
-106.045
11
161.711
21
-105.891
0
LINE
8
BLACK
6
CONTINUOUS
10
161.711
20
-105.891
11
161.83
21
-105.759
0
LINE
8
BLACK
6
CONTINUOUS
10
161.83
20
-105.759
11
161.974
21
-105.655
0
LINE
8
BLACK
6
CONTINUOUS
10
161.974
20
-105.655
11
162.136
21
-105.583
0
LINE
8
BLACK
6
CONTINUOUS
10
162.136
20
-105.583
11
162.31
21
-105.546
0
LINE
8
BLACK
6
CONTINUOUS
10
162.31
20
-105.546
11
162.488
21
-105.546
0
LINE
8
BLACK
6
CONTINUOUS
10
162.488
20
-105.546
11
162.662
21
-105.583
0
LINE
8
BLACK
6
CONTINUOUS
10
129.642
20
-103.043
11
129.804
21
-103.115
0
LINE
8
BLACK
6
CONTINUOUS
10
129.804
20
-103.115
11
129.948
21
-103.219
0
LINE
8
BLACK
6
CONTINUOUS
10
129.948
20
-103.219
11
130.067
21
-103.351
0
LINE
8
BLACK
6
CONTINUOUS
10
130.067
20
-103.351
11
130.156
21
-103.505
0
LINE
8
BLACK
6
CONTINUOUS
10
130.156
20
-103.505
11
130.21
21
-103.674
0
LINE
8
BLACK
6
CONTINUOUS
10
130.21
20
-103.674
11
130.229
21
-103.851
0
LINE
8
BLACK
6
CONTINUOUS
10
130.229
20
-103.851
11
130.21
21
-104.028
0
LINE
8
BLACK
6
CONTINUOUS
10
130.21
20
-104.028
11
130.156
21
-104.197
0
LINE
8
BLACK
6
CONTINUOUS
10
130.156
20
-104.197
11
130.067
21
-104.351
0
LINE
8
BLACK
6
CONTINUOUS
10
130.067
20
-104.351
11
129.948
21
-104.483
0
LINE
8
BLACK
6
CONTINUOUS
10
129.948
20
-104.483
11
129.804
21
-104.587
0
LINE
8
BLACK
6
CONTINUOUS
10
129.804
20
-104.587
11
129.642
21
-104.659
0
LINE
8
BLACK
6
CONTINUOUS
10
129.642
20
-104.659
11
129.468
21
-104.696
0
LINE
8
BLACK
6
CONTINUOUS
10
129.468
20
-104.696
11
129.29
21
-104.696
0
LINE
8
BLACK
6
CONTINUOUS
10
129.29
20
-104.696
11
129.116
21
-104.659
0
LINE
8
BLACK
6
CONTINUOUS
10
129.116
20
-104.659
11
128.954
21
-104.587
0
LINE
8
BLACK
6
CONTINUOUS
10
128.954
20
-104.587
11
128.81
21
-104.483
0
LINE
8
BLACK
6
CONTINUOUS
10
128.81
20
-104.483
11
128.691
21
-104.351
0
LINE
8
BLACK
6
CONTINUOUS
10
128.691
20
-104.351
11
128.603
21
-104.197
0
LINE
8
BLACK
6
CONTINUOUS
10
128.603
20
-104.197
11
128.548
21
-104.028
0
LINE
8
BLACK
6
CONTINUOUS
10
128.548
20
-104.028
11
128.529
21
-103.851
0
LINE
8
BLACK
6
CONTINUOUS
10
128.529
20
-103.851
11
128.548
21
-103.674
0
LINE
8
BLACK
6
CONTINUOUS
10
128.548
20
-103.674
11
128.603
21
-103.505
0
LINE
8
BLACK
6
CONTINUOUS
10
128.603
20
-103.505
11
128.691
21
-103.351
0
LINE
8
BLACK
6
CONTINUOUS
10
128.691
20
-103.351
11
128.81
21
-103.219
0
LINE
8
BLACK
6
CONTINUOUS
10
128.81
20
-103.219
11
128.954
21
-103.115
0
LINE
8
BLACK
6
CONTINUOUS
10
128.954
20
-103.115
11
129.116
21
-103.043
0
LINE
8
BLACK
6
CONTINUOUS
10
129.116
20
-103.043
11
129.29
21
-103.006
0
LINE
8
BLACK
6
CONTINUOUS
10
129.29
20
-103.006
11
129.468
21
-103.006
0
LINE
8
BLACK
6
CONTINUOUS
10
129.468
20
-103.006
11
129.642
21
-103.043
0
LINE
8
BLACK
6
CONTINUOUS
10
165.202
20
-103.043
11
165.364
21
-103.115
0
LINE
8
BLACK
6
CONTINUOUS
10
165.364
20
-103.115
11
165.508
21
-103.219
0
LINE
8
BLACK
6
CONTINUOUS
10
165.508
20
-103.219
11
165.627
21
-103.351
0
LINE
8
BLACK
6
CONTINUOUS
10
165.627
20
-103.351
11
165.716
21
-103.505
0
LINE
8
BLACK
6
CONTINUOUS
10
165.716
20
-103.505
11
165.77
21
-103.674
0
LINE
8
BLACK
6
CONTINUOUS
10
165.77
20
-103.674
11
165.789
21
-103.851
0
LINE
8
BLACK
6
CONTINUOUS
10
165.789
20
-103.851
11
165.77
21
-104.028
0
LINE
8
BLACK
6
CONTINUOUS
10
165.77
20
-104.028
11
165.716
21
-104.197
0
LINE
8
BLACK
6
CONTINUOUS
10
165.716
20
-104.197
11
165.627
21
-104.351
0
LINE
8
BLACK
6
CONTINUOUS
10
165.627
20
-104.351
11
165.508
21
-104.483
0
LINE
8
BLACK
6
CONTINUOUS
10
165.508
20
-104.483
11
165.364
21
-104.587
0
LINE
8
BLACK
6
CONTINUOUS
10
165.364
20
-104.587
11
165.202
21
-104.659
0
LINE
8
BLACK
6
CONTINUOUS
10
165.202
20
-104.659
11
165.028
21
-104.696
0
LINE
8
BLACK
6
CONTINUOUS
10
165.028
20
-104.696
11
164.85
21
-104.696
0
LINE
8
BLACK
6
CONTINUOUS
10
164.85
20
-104.696
11
164.676
21
-104.659
0
LINE
8
BLACK
6
CONTINUOUS
10
164.676
20
-104.659
11
164.514
21
-104.587
0
LINE
8
BLACK
6
CONTINUOUS
10
164.514
20
-104.587
11
164.37
21
-104.483
0
LINE
8
BLACK
6
CONTINUOUS
10
164.37
20
-104.483
11
164.251
21
-104.351
0
LINE
8
BLACK
6
CONTINUOUS
10
164.251
20
-104.351
11
164.163
21
-104.197
0
LINE
8
BLACK
6
CONTINUOUS
10
164.163
20
-104.197
11
164.108
21
-104.028
0
LINE
8
BLACK
6
CONTINUOUS
10
164.108
20
-104.028
11
164.089
21
-103.851
0
LINE
8
BLACK
6
CONTINUOUS
10
164.089
20
-103.851
11
164.108
21
-103.674
0
LINE
8
BLACK
6
CONTINUOUS
10
164.108
20
-103.674
11
164.163
21
-103.505
0
LINE
8
BLACK
6
CONTINUOUS
10
164.163
20
-103.505
11
164.251
21
-103.351
0
LINE
8
BLACK
6
CONTINUOUS
10
164.251
20
-103.351
11
164.37
21
-103.219
0
LINE
8
BLACK
6
CONTINUOUS
10
164.37
20
-103.219
11
164.514
21
-103.115
0
LINE
8
BLACK
6
CONTINUOUS
10
164.514
20
-103.115
11
164.676
21
-103.043
0
LINE
8
BLACK
6
CONTINUOUS
10
164.676
20
-103.043
11
164.85
21
-103.006
0
LINE
8
BLACK
6
CONTINUOUS
10
164.85
20
-103.006
11
165.028
21
-103.006
0
LINE
8
BLACK
6
CONTINUOUS
10
165.028
20
-103.006
11
165.202
21
-103.043
0
LINE
8
BLACK
6
CONTINUOUS
10
162.662
20
-103.043
11
162.824
21
-103.115
0
LINE
8
BLACK
6
CONTINUOUS
10
162.824
20
-103.115
11
162.968
21
-103.219
0
LINE
8
BLACK
6
CONTINUOUS
10
162.968
20
-103.219
11
163.087
21
-103.351
0
LINE
8
BLACK
6
CONTINUOUS
10
163.087
20
-103.351
11
163.176
21
-103.505
0
LINE
8
BLACK
6
CONTINUOUS
10
163.176
20
-103.505
11
163.23
21
-103.674
0
LINE
8
BLACK
6
CONTINUOUS
10
163.23
20
-103.674
11
163.249
21
-103.851
0
LINE
8
BLACK
6
CONTINUOUS
10
163.249
20
-103.851
11
163.23
21
-104.028
0
LINE
8
BLACK
6
CONTINUOUS
10
163.23
20
-104.028
11
163.176
21
-104.197
0
LINE
8
BLACK
6
CONTINUOUS
10
163.176
20
-104.197
11
163.087
21
-104.351
0
LINE
8
BLACK
6
CONTINUOUS
10
163.087
20
-104.351
11
162.968
21
-104.483
0
LINE
8
BLACK
6
CONTINUOUS
10
162.968
20
-104.483
11
162.824
21
-104.587
0
LINE
8
BLACK
6
CONTINUOUS
10
162.824
20
-104.587
11
162.662
21
-104.659
0
LINE
8
BLACK
6
CONTINUOUS
10
162.662
20
-104.659
11
162.488
21
-104.696
0
LINE
8
BLACK
6
CONTINUOUS
10
162.488
20
-104.696
11
162.31
21
-104.696
0
LINE
8
BLACK
6
CONTINUOUS
10
162.31
20
-104.696
11
162.136
21
-104.659
0
LINE
8
BLACK
6
CONTINUOUS
10
162.136
20
-104.659
11
161.974
21
-104.587
0
LINE
8
BLACK
6
CONTINUOUS
10
161.974
20
-104.587
11
161.83
21
-104.483
0
LINE
8
BLACK
6
CONTINUOUS
10
161.83
20
-104.483
11
161.711
21
-104.351
0
LINE
8
BLACK
6
CONTINUOUS
10
161.711
20
-104.351
11
161.623
21
-104.197
0
LINE
8
BLACK
6
CONTINUOUS
10
161.623
20
-104.197
11
161.568
21
-104.028
0
LINE
8
BLACK
6
CONTINUOUS
10
161.568
20
-104.028
11
161.549
21
-103.851
0
LINE
8
BLACK
6
CONTINUOUS
10
161.549
20
-103.851
11
161.568
21
-103.674
0
LINE
8
BLACK
6
CONTINUOUS
10
161.568
20
-103.674
11
161.623
21
-103.505
0
LINE
8
BLACK
6
CONTINUOUS
10
161.623
20
-103.505
11
161.711
21
-103.351
0
LINE
8
BLACK
6
CONTINUOUS
10
161.711
20
-103.351
11
161.83
21
-103.219
0
LINE
8
BLACK
6
CONTINUOUS
10
161.83
20
-103.219
11
161.974
21
-103.115
0
LINE
8
BLACK
6
CONTINUOUS
10
161.974
20
-103.115
11
162.136
21
-103.043
0
LINE
8
BLACK
6
CONTINUOUS
10
162.136
20
-103.043
11
162.31
21
-103.006
0
LINE
8
BLACK
6
CONTINUOUS
10
162.31
20
-103.006
11
162.488
21
-103.006
0
LINE
8
BLACK
6
CONTINUOUS
10
162.488
20
-103.006
11
162.662
21
-103.043
0
LINE
8
BLACK
6
CONTINUOUS
10
130.229
20
-102.161
11
128.529
21
-102.161
0
LINE
8
BLACK
6
CONTINUOUS
10
128.529
20
-102.161
11
128.529
21
-100.461
0
LINE
8
BLACK
6
CONTINUOUS
10
128.529
20
-100.461
11
130.229
21
-100.461
0
LINE
8
BLACK
6
CONTINUOUS
10
130.229
20
-100.461
11
130.229
21
-102.161
0
LINE
8
BLACK
6
CONTINUOUS
10
165.202
20
-100.503
11
165.364
21
-100.575
0
LINE
8
BLACK
6
CONTINUOUS
10
165.364
20
-100.575
11
165.508
21
-100.679
0
LINE
8
BLACK
6
CONTINUOUS
10
165.508
20
-100.679
11
165.627
21
-100.811
0
LINE
8
BLACK
6
CONTINUOUS
10
165.627
20
-100.811
11
165.716
21
-100.965
0
LINE
8
BLACK
6
CONTINUOUS
10
165.716
20
-100.965
11
165.77
21
-101.134
0
LINE
8
BLACK
6
CONTINUOUS
10
165.77
20
-101.134
11
165.789
21
-101.311
0
LINE
8
BLACK
6
CONTINUOUS
10
165.789
20
-101.311
11
165.77
21
-101.488
0
LINE
8
BLACK
6
CONTINUOUS
10
165.77
20
-101.488
11
165.716
21
-101.657
0
LINE
8
BLACK
6
CONTINUOUS
10
165.716
20
-101.657
11
165.627
21
-101.811
0
LINE
8
BLACK
6
CONTINUOUS
10
165.627
20
-101.811
11
165.508
21
-101.943
0
LINE
8
BLACK
6
CONTINUOUS
10
165.508
20
-101.943
11
165.364
21
-102.047
0
LINE
8
BLACK
6
CONTINUOUS
10
165.364
20
-102.047
11
165.202
21
-102.119
0
LINE
8
BLACK
6
CONTINUOUS
10
165.202
20
-102.119
11
165.028
21
-102.156
0
LINE
8
BLACK
6
CONTINUOUS
10
165.028
20
-102.156
11
164.85
21
-102.156
0
LINE
8
BLACK
6
CONTINUOUS
10
164.85
20
-102.156
11
164.676
21
-102.119
0
LINE
8
BLACK
6
CONTINUOUS
10
164.676
20
-102.119
11
164.514
21
-102.047
0
LINE
8
BLACK
6
CONTINUOUS
10
164.514
20
-102.047
11
164.37
21
-101.943
0
LINE
8
BLACK
6
CONTINUOUS
10
164.37
20
-101.943
11
164.251
21
-101.811
0
LINE
8
BLACK
6
CONTINUOUS
10
164.251
20
-101.811
11
164.163
21
-101.657
0
LINE
8
BLACK
6
CONTINUOUS
10
164.163
20
-101.657
11
164.108
21
-101.488
0
LINE
8
BLACK
6
CONTINUOUS
10
164.108
20
-101.488
11
164.089
21
-101.311
0
LINE
8
BLACK
6
CONTINUOUS
10
164.089
20
-101.311
11
164.108
21
-101.134
0
LINE
8
BLACK
6
CONTINUOUS
10
164.108
20
-101.134
11
164.163
21
-100.965
0
LINE
8
BLACK
6
CONTINUOUS
10
164.163
20
-100.965
11
164.251
21
-100.811
0
LINE
8
BLACK
6
CONTINUOUS
10
164.251
20
-100.811
11
164.37
21
-100.679
0
LINE
8
BLACK
6
CONTINUOUS
10
164.37
20
-100.679
11
164.514
21
-100.575
0
LINE
8
BLACK
6
CONTINUOUS
10
164.514
20
-100.575
11
164.676
21
-100.503
0
LINE
8
BLACK
6
CONTINUOUS
10
164.676
20
-100.503
11
164.85
21
-100.466
0
LINE
8
BLACK
6
CONTINUOUS
10
164.85
20
-100.466
11
165.028
21
-100.466
0
LINE
8
BLACK
6
CONTINUOUS
10
165.028
20
-100.466
11
165.202
21
-100.503
0
LINE
8
BLACK
6
CONTINUOUS
10
162.662
20
-100.503
11
162.824
21
-100.575
0
LINE
8
BLACK
6
CONTINUOUS
10
162.824
20
-100.575
11
162.968
21
-100.679
0
LINE
8
BLACK
6
CONTINUOUS
10
162.968
20
-100.679
11
163.087
21
-100.811
0
LINE
8
BLACK
6
CONTINUOUS
10
163.087
20
-100.811
11
163.176
21
-100.965
0
LINE
8
BLACK
6
CONTINUOUS
10
163.176
20
-100.965
11
163.23
21
-101.134
0
LINE
8
BLACK
6
CONTINUOUS
10
163.23
20
-101.134
11
163.249
21
-101.311
0
LINE
8
BLACK
6
CONTINUOUS
10
163.249
20
-101.311
11
163.23
21
-101.488
0
LINE
8
BLACK
6
CONTINUOUS
10
163.23
20
-101.488
11
163.176
21
-101.657
0
LINE
8
BLACK
6
CONTINUOUS
10
163.176
20
-101.657
11
163.087
21
-101.811
0
LINE
8
BLACK
6
CONTINUOUS
10
163.087
20
-101.811
11
162.968
21
-101.943
0
LINE
8
BLACK
6
CONTINUOUS
10
162.968
20
-101.943
11
162.824
21
-102.047
0
LINE
8
BLACK
6
CONTINUOUS
10
162.824
20
-102.047
11
162.662
21
-102.119
0
LINE
8
BLACK
6
CONTINUOUS
10
162.662
20
-102.119
11
162.488
21
-102.156
0
LINE
8
BLACK
6
CONTINUOUS
10
162.488
20
-102.156
11
162.31
21
-102.156
0
LINE
8
BLACK
6
CONTINUOUS
10
162.31
20
-102.156
11
162.136
21
-102.119
0
LINE
8
BLACK
6
CONTINUOUS
10
162.136
20
-102.119
11
161.974
21
-102.047
0
LINE
8
BLACK
6
CONTINUOUS
10
161.974
20
-102.047
11
161.83
21
-101.943
0
LINE
8
BLACK
6
CONTINUOUS
10
161.83
20
-101.943
11
161.711
21
-101.811
0
LINE
8
BLACK
6
CONTINUOUS
10
161.711
20
-101.811
11
161.623
21
-101.657
0
LINE
8
BLACK
6
CONTINUOUS
10
161.623
20
-101.657
11
161.568
21
-101.488
0
LINE
8
BLACK
6
CONTINUOUS
10
161.568
20
-101.488
11
161.549
21
-101.311
0
LINE
8
BLACK
6
CONTINUOUS
10
161.549
20
-101.311
11
161.568
21
-101.134
0
LINE
8
BLACK
6
CONTINUOUS
10
161.568
20
-101.134
11
161.623
21
-100.965
0
LINE
8
BLACK
6
CONTINUOUS
10
161.623
20
-100.965
11
161.711
21
-100.811
0
LINE
8
BLACK
6
CONTINUOUS
10
161.711
20
-100.811
11
161.83
21
-100.679
0
LINE
8
BLACK
6
CONTINUOUS
10
161.83
20
-100.679
11
161.974
21
-100.575
0
LINE
8
BLACK
6
CONTINUOUS
10
161.974
20
-100.575
11
162.136
21
-100.503
0
LINE
8
BLACK
6
CONTINUOUS
10
162.136
20
-100.503
11
162.31
21
-100.466
0
LINE
8
BLACK
6
CONTINUOUS
10
162.31
20
-100.466
11
162.488
21
-100.466
0
LINE
8
BLACK
6
CONTINUOUS
10
162.488
20
-100.466
11
162.662
21
-100.503
0
LINE
8
BLACK
6
CONTINUOUS
10
165.202
20
-97.9626
11
165.364
21
-98.0349
0
LINE
8
BLACK
6
CONTINUOUS
10
165.364
20
-98.0349
11
165.508
21
-98.1393
0
LINE
8
BLACK
6
CONTINUOUS
10
165.508
20
-98.1393
11
165.627
21
-98.2714
0
LINE
8
BLACK
6
CONTINUOUS
10
165.627
20
-98.2714
11
165.716
21
-98.4253
0
LINE
8
BLACK
6
CONTINUOUS
10
165.716
20
-98.4253
11
165.77
21
-98.5943
0
LINE
8
BLACK
6
CONTINUOUS
10
165.77
20
-98.5943
11
165.789
21
-98.771
0
LINE
8
BLACK
6
CONTINUOUS
10
165.789
20
-98.771
11
165.77
21
-98.9477
0
LINE
8
BLACK
6
CONTINUOUS
10
165.77
20
-98.9477
11
165.716
21
-99.1167
0
LINE
8
BLACK
6
CONTINUOUS
10
165.716
20
-99.1167
11
165.627
21
-99.2706
0
LINE
8
BLACK
6
CONTINUOUS
10
165.627
20
-99.2706
11
165.508
21
-99.4027
0
LINE
8
BLACK
6
CONTINUOUS
10
165.508
20
-99.4027
11
165.364
21
-99.5071
0
LINE
8
BLACK
6
CONTINUOUS
10
165.364
20
-99.5071
11
165.202
21
-99.5794
0
LINE
8
BLACK
6
CONTINUOUS
10
165.202
20
-99.5794
11
165.028
21
-99.6163
0
LINE
8
BLACK
6
CONTINUOUS
10
165.028
20
-99.6163
11
164.85
21
-99.6163
0
LINE
8
BLACK
6
CONTINUOUS
10
164.85
20
-99.6163
11
164.676
21
-99.5794
0
LINE
8
BLACK
6
CONTINUOUS
10
164.676
20
-99.5794
11
164.514
21
-99.5071
0
LINE
8
BLACK
6
CONTINUOUS
10
164.514
20
-99.5071
11
164.37
21
-99.4027
0
LINE
8
BLACK
6
CONTINUOUS
10
164.37
20
-99.4027
11
164.251
21
-99.2706
0
LINE
8
BLACK
6
CONTINUOUS
10
164.251
20
-99.2706
11
164.163
21
-99.1167
0
LINE
8
BLACK
6
CONTINUOUS
10
164.163
20
-99.1167
11
164.108
21
-98.9477
0
LINE
8
BLACK
6
CONTINUOUS
10
164.108
20
-98.9477
11
164.089
21
-98.771
0
LINE
8
BLACK
6
CONTINUOUS
10
164.089
20
-98.771
11
164.108
21
-98.5943
0
LINE
8
BLACK
6
CONTINUOUS
10
164.108
20
-98.5943
11
164.163
21
-98.4253
0
LINE
8
BLACK
6
CONTINUOUS
10
164.163
20
-98.4253
11
164.251
21
-98.2714
0
LINE
8
BLACK
6
CONTINUOUS
10
164.251
20
-98.2714
11
164.37
21
-98.1393
0
LINE
8
BLACK
6
CONTINUOUS
10
164.37
20
-98.1393
11
164.514
21
-98.0349
0
LINE
8
BLACK
6
CONTINUOUS
10
164.514
20
-98.0349
11
164.676
21
-97.9626
0
LINE
8
BLACK
6
CONTINUOUS
10
164.676
20
-97.9626
11
164.85
21
-97.9256
0
LINE
8
BLACK
6
CONTINUOUS
10
164.85
20
-97.9256
11
165.028
21
-97.9256
0
LINE
8
BLACK
6
CONTINUOUS
10
165.028
20
-97.9256
11
165.202
21
-97.9626
0
LINE
8
BLACK
6
CONTINUOUS
10
162.662
20
-97.9626
11
162.824
21
-98.0349
0
LINE
8
BLACK
6
CONTINUOUS
10
162.824
20
-98.0349
11
162.968
21
-98.1393
0
LINE
8
BLACK
6
CONTINUOUS
10
162.968
20
-98.1393
11
163.087
21
-98.2714
0
LINE
8
BLACK
6
CONTINUOUS
10
163.087
20
-98.2714
11
163.176
21
-98.4253
0
LINE
8
BLACK
6
CONTINUOUS
10
163.176
20
-98.4253
11
163.23
21
-98.5943
0
LINE
8
BLACK
6
CONTINUOUS
10
163.23
20
-98.5943
11
163.249
21
-98.771
0
LINE
8
BLACK
6
CONTINUOUS
10
163.249
20
-98.771
11
163.23
21
-98.9477
0
LINE
8
BLACK
6
CONTINUOUS
10
163.23
20
-98.9477
11
163.176
21
-99.1167
0
LINE
8
BLACK
6
CONTINUOUS
10
163.176
20
-99.1167
11
163.087
21
-99.2706
0
LINE
8
BLACK
6
CONTINUOUS
10
163.087
20
-99.2706
11
162.968
21
-99.4027
0
LINE
8
BLACK
6
CONTINUOUS
10
162.968
20
-99.4027
11
162.824
21
-99.5071
0
LINE
8
BLACK
6
CONTINUOUS
10
162.824
20
-99.5071
11
162.662
21
-99.5794
0
LINE
8
BLACK
6
CONTINUOUS
10
162.662
20
-99.5794
11
162.488
21
-99.6163
0
LINE
8
BLACK
6
CONTINUOUS
10
162.488
20
-99.6163
11
162.31
21
-99.6163
0
LINE
8
BLACK
6
CONTINUOUS
10
162.31
20
-99.6163
11
162.136
21
-99.5794
0
LINE
8
BLACK
6
CONTINUOUS
10
162.136
20
-99.5794
11
161.974
21
-99.5071
0
LINE
8
BLACK
6
CONTINUOUS
10
161.974
20
-99.5071
11
161.83
21
-99.4027
0
LINE
8
BLACK
6
CONTINUOUS
10
161.83
20
-99.4027
11
161.711
21
-99.2706
0
LINE
8
BLACK
6
CONTINUOUS
10
161.711
20
-99.2706
11
161.623
21
-99.1167
0
LINE
8
BLACK
6
CONTINUOUS
10
161.623
20
-99.1167
11
161.568
21
-98.9477
0
LINE
8
BLACK
6
CONTINUOUS
10
161.568
20
-98.9477
11
161.549
21
-98.771
0
LINE
8
BLACK
6
CONTINUOUS
10
161.549
20
-98.771
11
161.568
21
-98.5943
0
LINE
8
BLACK
6
CONTINUOUS
10
161.568
20
-98.5943
11
161.623
21
-98.4253
0
LINE
8
BLACK
6
CONTINUOUS
10
161.623
20
-98.4253
11
161.711
21
-98.2714
0
LINE
8
BLACK
6
CONTINUOUS
10
161.711
20
-98.2714
11
161.83
21
-98.1393
0
LINE
8
BLACK
6
CONTINUOUS
10
161.83
20
-98.1393
11
161.974
21
-98.0349
0
LINE
8
BLACK
6
CONTINUOUS
10
161.974
20
-98.0349
11
162.136
21
-97.9626
0
LINE
8
BLACK
6
CONTINUOUS
10
162.136
20
-97.9626
11
162.31
21
-97.9256
0
LINE
8
BLACK
6
CONTINUOUS
10
162.31
20
-97.9256
11
162.488
21
-97.9256
0
LINE
8
BLACK
6
CONTINUOUS
10
162.488
20
-97.9256
11
162.662
21
-97.9626
0
LINE
8
BLACK
6
CONTINUOUS
10
165.202
20
-95.4226
11
165.364
21
-95.4949
0
LINE
8
BLACK
6
CONTINUOUS
10
165.364
20
-95.4949
11
165.508
21
-95.5993
0
LINE
8
BLACK
6
CONTINUOUS
10
165.508
20
-95.5993
11
165.627
21
-95.7314
0
LINE
8
BLACK
6
CONTINUOUS
10
165.627
20
-95.7314
11
165.716
21
-95.8853
0
LINE
8
BLACK
6
CONTINUOUS
10
165.716
20
-95.8853
11
165.77
21
-96.0543
0
LINE
8
BLACK
6
CONTINUOUS
10
165.77
20
-96.0543
11
165.789
21
-96.231
0
LINE
8
BLACK
6
CONTINUOUS
10
165.789
20
-96.231
11
165.77
21
-96.4077
0
LINE
8
BLACK
6
CONTINUOUS
10
165.77
20
-96.4077
11
165.716
21
-96.5767
0
LINE
8
BLACK
6
CONTINUOUS
10
165.716
20
-96.5767
11
165.627
21
-96.7306
0
LINE
8
BLACK
6
CONTINUOUS
10
165.627
20
-96.7306
11
165.508
21
-96.8627
0
LINE
8
BLACK
6
CONTINUOUS
10
165.508
20
-96.8627
11
165.364
21
-96.9671
0
LINE
8
BLACK
6
CONTINUOUS
10
165.364
20
-96.9671
11
165.202
21
-97.0394
0
LINE
8
BLACK
6
CONTINUOUS
10
165.202
20
-97.0394
11
165.028
21
-97.0763
0
LINE
8
BLACK
6
CONTINUOUS
10
165.028
20
-97.0763
11
164.85
21
-97.0763
0
LINE
8
BLACK
6
CONTINUOUS
10
164.85
20
-97.0763
11
164.676
21
-97.0394
0
LINE
8
BLACK
6
CONTINUOUS
10
164.676
20
-97.0394
11
164.514
21
-96.9671
0
LINE
8
BLACK
6
CONTINUOUS
10
164.514
20
-96.9671
11
164.37
21
-96.8627
0
LINE
8
BLACK
6
CONTINUOUS
10
164.37
20
-96.8627
11
164.251
21
-96.7306
0
LINE
8
BLACK
6
CONTINUOUS
10
164.251
20
-96.7306
11
164.163
21
-96.5767
0
LINE
8
BLACK
6
CONTINUOUS
10
164.163
20
-96.5767
11
164.108
21
-96.4077
0
LINE
8
BLACK
6
CONTINUOUS
10
164.108
20
-96.4077
11
164.089
21
-96.231
0
LINE
8
BLACK
6
CONTINUOUS
10
164.089
20
-96.231
11
164.108
21
-96.0543
0
LINE
8
BLACK
6
CONTINUOUS
10
164.108
20
-96.0543
11
164.163
21
-95.8853
0
LINE
8
BLACK
6
CONTINUOUS
10
164.163
20
-95.8853
11
164.251
21
-95.7314
0
LINE
8
BLACK
6
CONTINUOUS
10
164.251
20
-95.7314
11
164.37
21
-95.5993
0
LINE
8
BLACK
6
CONTINUOUS
10
164.37
20
-95.5993
11
164.514
21
-95.4949
0
LINE
8
BLACK
6
CONTINUOUS
10
164.514
20
-95.4949
11
164.676
21
-95.4226
0
LINE
8
BLACK
6
CONTINUOUS
10
164.676
20
-95.4226
11
164.85
21
-95.3856
0
LINE
8
BLACK
6
CONTINUOUS
10
164.85
20
-95.3856
11
165.028
21
-95.3856
0
LINE
8
BLACK
6
CONTINUOUS
10
165.028
20
-95.3856
11
165.202
21
-95.4226
0
LINE
8
BLACK
6
CONTINUOUS
10
162.662
20
-95.4226
11
162.824
21
-95.4949
0
LINE
8
BLACK
6
CONTINUOUS
10
162.824
20
-95.4949
11
162.968
21
-95.5993
0
LINE
8
BLACK
6
CONTINUOUS
10
162.968
20
-95.5993
11
163.087
21
-95.7314
0
LINE
8
BLACK
6
CONTINUOUS
10
163.087
20
-95.7314
11
163.176
21
-95.8853
0
LINE
8
BLACK
6
CONTINUOUS
10
163.176
20
-95.8853
11
163.23
21
-96.0543
0
LINE
8
BLACK
6
CONTINUOUS
10
163.23
20
-96.0543
11
163.249
21
-96.231
0
LINE
8
BLACK
6
CONTINUOUS
10
163.249
20
-96.231
11
163.23
21
-96.4077
0
LINE
8
BLACK
6
CONTINUOUS
10
163.23
20
-96.4077
11
163.176
21
-96.5767
0
LINE
8
BLACK
6
CONTINUOUS
10
163.176
20
-96.5767
11
163.087
21
-96.7306
0
LINE
8
BLACK
6
CONTINUOUS
10
163.087
20
-96.7306
11
162.968
21
-96.8627
0
LINE
8
BLACK
6
CONTINUOUS
10
162.968
20
-96.8627
11
162.824
21
-96.9671
0
LINE
8
BLACK
6
CONTINUOUS
10
162.824
20
-96.9671
11
162.662
21
-97.0394
0
LINE
8
BLACK
6
CONTINUOUS
10
162.662
20
-97.0394
11
162.488
21
-97.0763
0
LINE
8
BLACK
6
CONTINUOUS
10
162.488
20
-97.0763
11
162.31
21
-97.0763
0
LINE
8
BLACK
6
CONTINUOUS
10
162.31
20
-97.0763
11
162.136
21
-97.0394
0
LINE
8
BLACK
6
CONTINUOUS
10
162.136
20
-97.0394
11
161.974
21
-96.9671
0
LINE
8
BLACK
6
CONTINUOUS
10
161.974
20
-96.9671
11
161.83
21
-96.8627
0
LINE
8
BLACK
6
CONTINUOUS
10
161.83
20
-96.8627
11
161.711
21
-96.7306
0
LINE
8
BLACK
6
CONTINUOUS
10
161.711
20
-96.7306
11
161.623
21
-96.5767
0
LINE
8
BLACK
6
CONTINUOUS
10
161.623
20
-96.5767
11
161.568
21
-96.4077
0
LINE
8
BLACK
6
CONTINUOUS
10
161.568
20
-96.4077
11
161.549
21
-96.231
0
LINE
8
BLACK
6
CONTINUOUS
10
161.549
20
-96.231
11
161.568
21
-96.0543
0
LINE
8
BLACK
6
CONTINUOUS
10
161.568
20
-96.0543
11
161.623
21
-95.8853
0
LINE
8
BLACK
6
CONTINUOUS
10
161.623
20
-95.8853
11
161.711
21
-95.7314
0
LINE
8
BLACK
6
CONTINUOUS
10
161.711
20
-95.7314
11
161.83
21
-95.5993
0
LINE
8
BLACK
6
CONTINUOUS
10
161.83
20
-95.5993
11
161.974
21
-95.4949
0
LINE
8
BLACK
6
CONTINUOUS
10
161.974
20
-95.4949
11
162.136
21
-95.4226
0
LINE
8
BLACK
6
CONTINUOUS
10
162.136
20
-95.4226
11
162.31
21
-95.3856
0
LINE
8
BLACK
6
CONTINUOUS
10
162.31
20
-95.3856
11
162.488
21
-95.3856
0
LINE
8
BLACK
6
CONTINUOUS
10
162.488
20
-95.3856
11
162.662
21
-95.4226
0
LINE
8
BLACK
6
CONTINUOUS
10
129.642
20
-92.8826
11
129.804
21
-92.9549
0
LINE
8
BLACK
6
CONTINUOUS
10
129.804
20
-92.9549
11
129.948
21
-93.0593
0
LINE
8
BLACK
6
CONTINUOUS
10
129.948
20
-93.0593
11
130.067
21
-93.1914
0
LINE
8
BLACK
6
CONTINUOUS
10
130.067
20
-93.1914
11
130.156
21
-93.3453
0
LINE
8
BLACK
6
CONTINUOUS
10
130.156
20
-93.3453
11
130.21
21
-93.5143
0
LINE
8
BLACK
6
CONTINUOUS
10
130.21
20
-93.5143
11
130.229
21
-93.691
0
LINE
8
BLACK
6
CONTINUOUS
10
130.229
20
-93.691
11
130.21
21
-93.8677
0
LINE
8
BLACK
6
CONTINUOUS
10
130.21
20
-93.8677
11
130.156
21
-94.0367
0
LINE
8
BLACK
6
CONTINUOUS
10
130.156
20
-94.0367
11
130.067
21
-94.1906
0
LINE
8
BLACK
6
CONTINUOUS
10
130.067
20
-94.1906
11
129.948
21
-94.3227
0
LINE
8
BLACK
6
CONTINUOUS
10
129.948
20
-94.3227
11
129.804
21
-94.4271
0
LINE
8
BLACK
6
CONTINUOUS
10
129.804
20
-94.4271
11
129.642
21
-94.4994
0
LINE
8
BLACK
6
CONTINUOUS
10
129.642
20
-94.4994
11
129.468
21
-94.5363
0
LINE
8
BLACK
6
CONTINUOUS
10
129.468
20
-94.5363
11
129.29
21
-94.5363
0
LINE
8
BLACK
6
CONTINUOUS
10
129.29
20
-94.5363
11
129.116
21
-94.4994
0
LINE
8
BLACK
6
CONTINUOUS
10
129.116
20
-94.4994
11
128.954
21
-94.4271
0
LINE
8
BLACK
6
CONTINUOUS
10
128.954
20
-94.4271
11
128.81
21
-94.3227
0
LINE
8
BLACK
6
CONTINUOUS
10
128.81
20
-94.3227
11
128.691
21
-94.1906
0
LINE
8
BLACK
6
CONTINUOUS
10
128.691
20
-94.1906
11
128.603
21
-94.0367
0
LINE
8
BLACK
6
CONTINUOUS
10
128.603
20
-94.0367
11
128.548
21
-93.8677
0
LINE
8
BLACK
6
CONTINUOUS
10
128.548
20
-93.8677
11
128.529
21
-93.691
0
LINE
8
BLACK
6
CONTINUOUS
10
128.529
20
-93.691
11
128.548
21
-93.5143
0
LINE
8
BLACK
6
CONTINUOUS
10
128.548
20
-93.5143
11
128.603
21
-93.3453
0
LINE
8
BLACK
6
CONTINUOUS
10
128.603
20
-93.3453
11
128.691
21
-93.1914
0
LINE
8
BLACK
6
CONTINUOUS
10
128.691
20
-93.1914
11
128.81
21
-93.0593
0
LINE
8
BLACK
6
CONTINUOUS
10
128.81
20
-93.0593
11
128.954
21
-92.9549
0
LINE
8
BLACK
6
CONTINUOUS
10
128.954
20
-92.9549
11
129.116
21
-92.8826
0
LINE
8
BLACK
6
CONTINUOUS
10
129.116
20
-92.8826
11
129.29
21
-92.8456
0
LINE
8
BLACK
6
CONTINUOUS
10
129.29
20
-92.8456
11
129.468
21
-92.8456
0
LINE
8
BLACK
6
CONTINUOUS
10
129.468
20
-92.8456
11
129.642
21
-92.8826
0
LINE
8
BLACK
6
CONTINUOUS
10
165.202
20
-92.8826
11
165.364
21
-92.9549
0
LINE
8
BLACK
6
CONTINUOUS
10
165.364
20
-92.9549
11
165.508
21
-93.0593
0
LINE
8
BLACK
6
CONTINUOUS
10
165.508
20
-93.0593
11
165.627
21
-93.1914
0
LINE
8
BLACK
6
CONTINUOUS
10
165.627
20
-93.1914
11
165.716
21
-93.3453
0
LINE
8
BLACK
6
CONTINUOUS
10
165.716
20
-93.3453
11
165.77
21
-93.5143
0
LINE
8
BLACK
6
CONTINUOUS
10
165.77
20
-93.5143
11
165.789
21
-93.691
0
LINE
8
BLACK
6
CONTINUOUS
10
165.789
20
-93.691
11
165.77
21
-93.8677
0
LINE
8
BLACK
6
CONTINUOUS
10
165.77
20
-93.8677
11
165.716
21
-94.0367
0
LINE
8
BLACK
6
CONTINUOUS
10
165.716
20
-94.0367
11
165.627
21
-94.1906
0
LINE
8
BLACK
6
CONTINUOUS
10
165.627
20
-94.1906
11
165.508
21
-94.3227
0
LINE
8
BLACK
6
CONTINUOUS
10
165.508
20
-94.3227
11
165.364
21
-94.4271
0
LINE
8
BLACK
6
CONTINUOUS
10
165.364
20
-94.4271
11
165.202
21
-94.4994
0
LINE
8
BLACK
6
CONTINUOUS
10
165.202
20
-94.4994
11
165.028
21
-94.5363
0
LINE
8
BLACK
6
CONTINUOUS
10
165.028
20
-94.5363
11
164.85
21
-94.5363
0
LINE
8
BLACK
6
CONTINUOUS
10
164.85
20
-94.5363
11
164.676
21
-94.4994
0
LINE
8
BLACK
6
CONTINUOUS
10
164.676
20
-94.4994
11
164.514
21
-94.4271
0
LINE
8
BLACK
6
CONTINUOUS
10
164.514
20
-94.4271
11
164.37
21
-94.3227
0
LINE
8
BLACK
6
CONTINUOUS
10
164.37
20
-94.3227
11
164.251
21
-94.1906
0
LINE
8
BLACK
6
CONTINUOUS
10
164.251
20
-94.1906
11
164.163
21
-94.0367
0
LINE
8
BLACK
6
CONTINUOUS
10
164.163
20
-94.0367
11
164.108
21
-93.8677
0
LINE
8
BLACK
6
CONTINUOUS
10
164.108
20
-93.8677
11
164.089
21
-93.691
0
LINE
8
BLACK
6
CONTINUOUS
10
164.089
20
-93.691
11
164.108
21
-93.5143
0
LINE
8
BLACK
6
CONTINUOUS
10
164.108
20
-93.5143
11
164.163
21
-93.3453
0
LINE
8
BLACK
6
CONTINUOUS
10
164.163
20
-93.3453
11
164.251
21
-93.1914
0
LINE
8
BLACK
6
CONTINUOUS
10
164.251
20
-93.1914
11
164.37
21
-93.0593
0
LINE
8
BLACK
6
CONTINUOUS
10
164.37
20
-93.0593
11
164.514
21
-92.9549
0
LINE
8
BLACK
6
CONTINUOUS
10
164.514
20
-92.9549
11
164.676
21
-92.8826
0
LINE
8
BLACK
6
CONTINUOUS
10
164.676
20
-92.8826
11
164.85
21
-92.8456
0
LINE
8
BLACK
6
CONTINUOUS
10
164.85
20
-92.8456
11
165.028
21
-92.8456
0
LINE
8
BLACK
6
CONTINUOUS
10
165.028
20
-92.8456
11
165.202
21
-92.8826
0
LINE
8
BLACK
6
CONTINUOUS
10
162.662
20
-92.8826
11
162.824
21
-92.9549
0
LINE
8
BLACK
6
CONTINUOUS
10
162.824
20
-92.9549
11
162.968
21
-93.0593
0
LINE
8
BLACK
6
CONTINUOUS
10
162.968
20
-93.0593
11
163.087
21
-93.1914
0
LINE
8
BLACK
6
CONTINUOUS
10
163.087
20
-93.1914
11
163.176
21
-93.3453
0
LINE
8
BLACK
6
CONTINUOUS
10
163.176
20
-93.3453
11
163.23
21
-93.5143
0
LINE
8
BLACK
6
CONTINUOUS
10
163.23
20
-93.5143
11
163.249
21
-93.691
0
LINE
8
BLACK
6
CONTINUOUS
10
163.249
20
-93.691
11
163.23
21
-93.8677
0
LINE
8
BLACK
6
CONTINUOUS
10
163.23
20
-93.8677
11
163.176
21
-94.0367
0
LINE
8
BLACK
6
CONTINUOUS
10
163.176
20
-94.0367
11
163.087
21
-94.1906
0
LINE
8
BLACK
6
CONTINUOUS
10
163.087
20
-94.1906
11
162.968
21
-94.3227
0
LINE
8
BLACK
6
CONTINUOUS
10
162.968
20
-94.3227
11
162.824
21
-94.4271
0
LINE
8
BLACK
6
CONTINUOUS
10
162.824
20
-94.4271
11
162.662
21
-94.4994
0
LINE
8
BLACK
6
CONTINUOUS
10
162.662
20
-94.4994
11
162.488
21
-94.5363
0
LINE
8
BLACK
6
CONTINUOUS
10
162.488
20
-94.5363
11
162.31
21
-94.5363
0
LINE
8
BLACK
6
CONTINUOUS
10
162.31
20
-94.5363
11
162.136
21
-94.4994
0
LINE
8
BLACK
6
CONTINUOUS
10
162.136
20
-94.4994
11
161.974
21
-94.4271
0
LINE
8
BLACK
6
CONTINUOUS
10
161.974
20
-94.4271
11
161.83
21
-94.3227
0
LINE
8
BLACK
6
CONTINUOUS
10
161.83
20
-94.3227
11
161.711
21
-94.1906
0
LINE
8
BLACK
6
CONTINUOUS
10
161.711
20
-94.1906
11
161.623
21
-94.0367
0
LINE
8
BLACK
6
CONTINUOUS
10
161.623
20
-94.0367
11
161.568
21
-93.8677
0
LINE
8
BLACK
6
CONTINUOUS
10
161.568
20
-93.8677
11
161.549
21
-93.691
0
LINE
8
BLACK
6
CONTINUOUS
10
161.549
20
-93.691
11
161.568
21
-93.5143
0
LINE
8
BLACK
6
CONTINUOUS
10
161.568
20
-93.5143
11
161.623
21
-93.3453
0
LINE
8
BLACK
6
CONTINUOUS
10
161.623
20
-93.3453
11
161.711
21
-93.1914
0
LINE
8
BLACK
6
CONTINUOUS
10
161.711
20
-93.1914
11
161.83
21
-93.0593
0
LINE
8
BLACK
6
CONTINUOUS
10
161.83
20
-93.0593
11
161.974
21
-92.9549
0
LINE
8
BLACK
6
CONTINUOUS
10
161.974
20
-92.9549
11
162.136
21
-92.8826
0
LINE
8
BLACK
6
CONTINUOUS
10
162.136
20
-92.8826
11
162.31
21
-92.8456
0
LINE
8
BLACK
6
CONTINUOUS
10
162.31
20
-92.8456
11
162.488
21
-92.8456
0
LINE
8
BLACK
6
CONTINUOUS
10
162.488
20
-92.8456
11
162.662
21
-92.8826
0
LINE
8
BLACK
6
CONTINUOUS
10
129.642
20
-90.3426
11
129.804
21
-90.4149
0
LINE
8
BLACK
6
CONTINUOUS
10
129.804
20
-90.4149
11
129.948
21
-90.5193
0
LINE
8
BLACK
6
CONTINUOUS
10
129.948
20
-90.5193
11
130.067
21
-90.6514
0
LINE
8
BLACK
6
CONTINUOUS
10
130.067
20
-90.6514
11
130.156
21
-90.8053
0
LINE
8
BLACK
6
CONTINUOUS
10
130.156
20
-90.8053
11
130.21
21
-90.9743
0
LINE
8
BLACK
6
CONTINUOUS
10
130.21
20
-90.9743
11
130.229
21
-91.151
0
LINE
8
BLACK
6
CONTINUOUS
10
130.229
20
-91.151
11
130.21
21
-91.3277
0
LINE
8
BLACK
6
CONTINUOUS
10
130.21
20
-91.3277
11
130.156
21
-91.4967
0
LINE
8
BLACK
6
CONTINUOUS
10
130.156
20
-91.4967
11
130.067
21
-91.6506
0
LINE
8
BLACK
6
CONTINUOUS
10
130.067
20
-91.6506
11
129.948
21
-91.7827
0
LINE
8
BLACK
6
CONTINUOUS
10
129.948
20
-91.7827
11
129.804
21
-91.8871
0
LINE
8
BLACK
6
CONTINUOUS
10
129.804
20
-91.8871
11
129.642
21
-91.9594
0
LINE
8
BLACK
6
CONTINUOUS
10
129.642
20
-91.9594
11
129.468
21
-91.9963
0
LINE
8
BLACK
6
CONTINUOUS
10
129.468
20
-91.9963
11
129.29
21
-91.9963
0
LINE
8
BLACK
6
CONTINUOUS
10
129.29
20
-91.9963
11
129.116
21
-91.9594
0
LINE
8
BLACK
6
CONTINUOUS
10
129.116
20
-91.9594
11
128.954
21
-91.8871
0
LINE
8
BLACK
6
CONTINUOUS
10
128.954
20
-91.8871
11
128.81
21
-91.7827
0
LINE
8
BLACK
6
CONTINUOUS
10
128.81
20
-91.7827
11
128.691
21
-91.6506
0
LINE
8
BLACK
6
CONTINUOUS
10
128.691
20
-91.6506
11
128.603
21
-91.4967
0
LINE
8
BLACK
6
CONTINUOUS
10
128.603
20
-91.4967
11
128.548
21
-91.3277
0
LINE
8
BLACK
6
CONTINUOUS
10
128.548
20
-91.3277
11
128.529
21
-91.151
0
LINE
8
BLACK
6
CONTINUOUS
10
128.529
20
-91.151
11
128.548
21
-90.9743
0
LINE
8
BLACK
6
CONTINUOUS
10
128.548
20
-90.9743
11
128.603
21
-90.8053
0
LINE
8
BLACK
6
CONTINUOUS
10
128.603
20
-90.8053
11
128.691
21
-90.6514
0
LINE
8
BLACK
6
CONTINUOUS
10
128.691
20
-90.6514
11
128.81
21
-90.5193
0
LINE
8
BLACK
6
CONTINUOUS
10
128.81
20
-90.5193
11
128.954
21
-90.4149
0
LINE
8
BLACK
6
CONTINUOUS
10
128.954
20
-90.4149
11
129.116
21
-90.3426
0
LINE
8
BLACK
6
CONTINUOUS
10
129.116
20
-90.3426
11
129.29
21
-90.3056
0
LINE
8
BLACK
6
CONTINUOUS
10
129.29
20
-90.3056
11
129.468
21
-90.3056
0
LINE
8
BLACK
6
CONTINUOUS
10
129.468
20
-90.3056
11
129.642
21
-90.3426
0
LINE
8
BLACK
6
CONTINUOUS
10
165.202
20
-90.3426
11
165.364
21
-90.4149
0
LINE
8
BLACK
6
CONTINUOUS
10
165.364
20
-90.4149
11
165.508
21
-90.5193
0
LINE
8
BLACK
6
CONTINUOUS
10
165.508
20
-90.5193
11
165.627
21
-90.6514
0
LINE
8
BLACK
6
CONTINUOUS
10
165.627
20
-90.6514
11
165.716
21
-90.8053
0
LINE
8
BLACK
6
CONTINUOUS
10
165.716
20
-90.8053
11
165.77
21
-90.9743
0
LINE
8
BLACK
6
CONTINUOUS
10
165.77
20
-90.9743
11
165.789
21
-91.151
0
LINE
8
BLACK
6
CONTINUOUS
10
165.789
20
-91.151
11
165.77
21
-91.3277
0
LINE
8
BLACK
6
CONTINUOUS
10
165.77
20
-91.3277
11
165.716
21
-91.4967
0
LINE
8
BLACK
6
CONTINUOUS
10
165.716
20
-91.4967
11
165.627
21
-91.6506
0
LINE
8
BLACK
6
CONTINUOUS
10
165.627
20
-91.6506
11
165.508
21
-91.7827
0
LINE
8
BLACK
6
CONTINUOUS
10
165.508
20
-91.7827
11
165.364
21
-91.8871
0
LINE
8
BLACK
6
CONTINUOUS
10
165.364
20
-91.8871
11
165.202
21
-91.9594
0
LINE
8
BLACK
6
CONTINUOUS
10
165.202
20
-91.9594
11
165.028
21
-91.9963
0
LINE
8
BLACK
6
CONTINUOUS
10
165.028
20
-91.9963
11
164.85
21
-91.9963
0
LINE
8
BLACK
6
CONTINUOUS
10
164.85
20
-91.9963
11
164.676
21
-91.9594
0
LINE
8
BLACK
6
CONTINUOUS
10
164.676
20
-91.9594
11
164.514
21
-91.8871
0
LINE
8
BLACK
6
CONTINUOUS
10
164.514
20
-91.8871
11
164.37
21
-91.7827
0
LINE
8
BLACK
6
CONTINUOUS
10
164.37
20
-91.7827
11
164.251
21
-91.6506
0
LINE
8
BLACK
6
CONTINUOUS
10
164.251
20
-91.6506
11
164.163
21
-91.4967
0
LINE
8
BLACK
6
CONTINUOUS
10
164.163
20
-91.4967
11
164.108
21
-91.3277
0
LINE
8
BLACK
6
CONTINUOUS
10
164.108
20
-91.3277
11
164.089
21
-91.151
0
LINE
8
BLACK
6
CONTINUOUS
10
164.089
20
-91.151
11
164.108
21
-90.9743
0
LINE
8
BLACK
6
CONTINUOUS
10
164.108
20
-90.9743
11
164.163
21
-90.8053
0
LINE
8
BLACK
6
CONTINUOUS
10
164.163
20
-90.8053
11
164.251
21
-90.6514
0
LINE
8
BLACK
6
CONTINUOUS
10
164.251
20
-90.6514
11
164.37
21
-90.5193
0
LINE
8
BLACK
6
CONTINUOUS
10
164.37
20
-90.5193
11
164.514
21
-90.4149
0
LINE
8
BLACK
6
CONTINUOUS
10
164.514
20
-90.4149
11
164.676
21
-90.3426
0
LINE
8
BLACK
6
CONTINUOUS
10
164.676
20
-90.3426
11
164.85
21
-90.3056
0
LINE
8
BLACK
6
CONTINUOUS
10
164.85
20
-90.3056
11
165.028
21
-90.3056
0
LINE
8
BLACK
6
CONTINUOUS
10
165.028
20
-90.3056
11
165.202
21
-90.3426
0
LINE
8
BLACK
6
CONTINUOUS
10
162.662
20
-90.3426
11
162.824
21
-90.4149
0
LINE
8
BLACK
6
CONTINUOUS
10
162.824
20
-90.4149
11
162.968
21
-90.5193
0
LINE
8
BLACK
6
CONTINUOUS
10
162.968
20
-90.5193
11
163.087
21
-90.6514
0
LINE
8
BLACK
6
CONTINUOUS
10
163.087
20
-90.6514
11
163.176
21
-90.8053
0
LINE
8
BLACK
6
CONTINUOUS
10
163.176
20
-90.8053
11
163.23
21
-90.9743
0
LINE
8
BLACK
6
CONTINUOUS
10
163.23
20
-90.9743
11
163.249
21
-91.151
0
LINE
8
BLACK
6
CONTINUOUS
10
163.249
20
-91.151
11
163.23
21
-91.3277
0
LINE
8
BLACK
6
CONTINUOUS
10
163.23
20
-91.3277
11
163.176
21
-91.4967
0
LINE
8
BLACK
6
CONTINUOUS
10
163.176
20
-91.4967
11
163.087
21
-91.6506
0
LINE
8
BLACK
6
CONTINUOUS
10
163.087
20
-91.6506
11
162.968
21
-91.7827
0
LINE
8
BLACK
6
CONTINUOUS
10
162.968
20
-91.7827
11
162.824
21
-91.8871
0
LINE
8
BLACK
6
CONTINUOUS
10
162.824
20
-91.8871
11
162.662
21
-91.9594
0
LINE
8
BLACK
6
CONTINUOUS
10
162.662
20
-91.9594
11
162.488
21
-91.9963
0
LINE
8
BLACK
6
CONTINUOUS
10
162.488
20
-91.9963
11
162.31
21
-91.9963
0
LINE
8
BLACK
6
CONTINUOUS
10
162.31
20
-91.9963
11
162.136
21
-91.9594
0
LINE
8
BLACK
6
CONTINUOUS
10
162.136
20
-91.9594
11
161.974
21
-91.8871
0
LINE
8
BLACK
6
CONTINUOUS
10
161.974
20
-91.8871
11
161.83
21
-91.7827
0
LINE
8
BLACK
6
CONTINUOUS
10
161.83
20
-91.7827
11
161.711
21
-91.6506
0
LINE
8
BLACK
6
CONTINUOUS
10
161.711
20
-91.6506
11
161.623
21
-91.4967
0
LINE
8
BLACK
6
CONTINUOUS
10
161.623
20
-91.4967
11
161.568
21
-91.3277
0
LINE
8
BLACK
6
CONTINUOUS
10
161.568
20
-91.3277
11
161.549
21
-91.151
0
LINE
8
BLACK
6
CONTINUOUS
10
161.549
20
-91.151
11
161.568
21
-90.9743
0
LINE
8
BLACK
6
CONTINUOUS
10
161.568
20
-90.9743
11
161.623
21
-90.8053
0
LINE
8
BLACK
6
CONTINUOUS
10
161.623
20
-90.8053
11
161.711
21
-90.6514
0
LINE
8
BLACK
6
CONTINUOUS
10
161.711
20
-90.6514
11
161.83
21
-90.5193
0
LINE
8
BLACK
6
CONTINUOUS
10
161.83
20
-90.5193
11
161.974
21
-90.4149
0
LINE
8
BLACK
6
CONTINUOUS
10
161.974
20
-90.4149
11
162.136
21
-90.3426
0
LINE
8
BLACK
6
CONTINUOUS
10
162.136
20
-90.3426
11
162.31
21
-90.3056
0
LINE
8
BLACK
6
CONTINUOUS
10
162.31
20
-90.3056
11
162.488
21
-90.3056
0
LINE
8
BLACK
6
CONTINUOUS
10
162.488
20
-90.3056
11
162.662
21
-90.3426
0
LINE
8
BLACK
6
CONTINUOUS
10
129.642
20
-87.8026
11
129.804
21
-87.8749
0
LINE
8
BLACK
6
CONTINUOUS
10
129.804
20
-87.8749
11
129.948
21
-87.9793
0
LINE
8
BLACK
6
CONTINUOUS
10
129.948
20
-87.9793
11
130.067
21
-88.1114
0
LINE
8
BLACK
6
CONTINUOUS
10
130.067
20
-88.1114
11
130.156
21
-88.2653
0
LINE
8
BLACK
6
CONTINUOUS
10
130.156
20
-88.2653
11
130.21
21
-88.4343
0
LINE
8
BLACK
6
CONTINUOUS
10
130.21
20
-88.4343
11
130.229
21
-88.611
0
LINE
8
BLACK
6
CONTINUOUS
10
130.229
20
-88.611
11
130.21
21
-88.7877
0
LINE
8
BLACK
6
CONTINUOUS
10
130.21
20
-88.7877
11
130.156
21
-88.9567
0
LINE
8
BLACK
6
CONTINUOUS
10
130.156
20
-88.9567
11
130.067
21
-89.1106
0
LINE
8
BLACK
6
CONTINUOUS
10
130.067
20
-89.1106
11
129.948
21
-89.2427
0
LINE
8
BLACK
6
CONTINUOUS
10
129.948
20
-89.2427
11
129.804
21
-89.3471
0
LINE
8
BLACK
6
CONTINUOUS
10
129.804
20
-89.3471
11
129.642
21
-89.4194
0
LINE
8
BLACK
6
CONTINUOUS
10
129.642
20
-89.4194
11
129.468
21
-89.4563
0
LINE
8
BLACK
6
CONTINUOUS
10
129.468
20
-89.4563
11
129.29
21
-89.4563
0
LINE
8
BLACK
6
CONTINUOUS
10
129.29
20
-89.4563
11
129.116
21
-89.4194
0
LINE
8
BLACK
6
CONTINUOUS
10
129.116
20
-89.4194
11
128.954
21
-89.3471
0
LINE
8
BLACK
6
CONTINUOUS
10
128.954
20
-89.3471
11
128.81
21
-89.2427
0
LINE
8
BLACK
6
CONTINUOUS
10
128.81
20
-89.2427
11
128.691
21
-89.1106
0
LINE
8
BLACK
6
CONTINUOUS
10
128.691
20
-89.1106
11
128.603
21
-88.9567
0
LINE
8
BLACK
6
CONTINUOUS
10
128.603
20
-88.9567
11
128.548
21
-88.7877
0
LINE
8
BLACK
6
CONTINUOUS
10
128.548
20
-88.7877
11
128.529
21
-88.611
0
LINE
8
BLACK
6
CONTINUOUS
10
128.529
20
-88.611
11
128.548
21
-88.4343
0
LINE
8
BLACK
6
CONTINUOUS
10
128.548
20
-88.4343
11
128.603
21
-88.2653
0
LINE
8
BLACK
6
CONTINUOUS
10
128.603
20
-88.2653
11
128.691
21
-88.1114
0
LINE
8
BLACK
6
CONTINUOUS
10
128.691
20
-88.1114
11
128.81
21
-87.9793
0
LINE
8
BLACK
6
CONTINUOUS
10
128.81
20
-87.9793
11
128.954
21
-87.8749
0
LINE
8
BLACK
6
CONTINUOUS
10
128.954
20
-87.8749
11
129.116
21
-87.8026
0
LINE
8
BLACK
6
CONTINUOUS
10
129.116
20
-87.8026
11
129.29
21
-87.7656
0
LINE
8
BLACK
6
CONTINUOUS
10
129.29
20
-87.7656
11
129.468
21
-87.7656
0
LINE
8
BLACK
6
CONTINUOUS
10
129.468
20
-87.7656
11
129.642
21
-87.8026
0
LINE
8
BLACK
6
CONTINUOUS
10
165.202
20
-87.8026
11
165.364
21
-87.8749
0
LINE
8
BLACK
6
CONTINUOUS
10
165.364
20
-87.8749
11
165.508
21
-87.9793
0
LINE
8
BLACK
6
CONTINUOUS
10
165.508
20
-87.9793
11
165.627
21
-88.1114
0
LINE
8
BLACK
6
CONTINUOUS
10
165.627
20
-88.1114
11
165.716
21
-88.2653
0
LINE
8
BLACK
6
CONTINUOUS
10
165.716
20
-88.2653
11
165.77
21
-88.4343
0
LINE
8
BLACK
6
CONTINUOUS
10
165.77
20
-88.4343
11
165.789
21
-88.611
0
LINE
8
BLACK
6
CONTINUOUS
10
165.789
20
-88.611
11
165.77
21
-88.7877
0
LINE
8
BLACK
6
CONTINUOUS
10
165.77
20
-88.7877
11
165.716
21
-88.9567
0
LINE
8
BLACK
6
CONTINUOUS
10
165.716
20
-88.9567
11
165.627
21
-89.1106
0
LINE
8
BLACK
6
CONTINUOUS
10
165.627
20
-89.1106
11
165.508
21
-89.2427
0
LINE
8
BLACK
6
CONTINUOUS
10
165.508
20
-89.2427
11
165.364
21
-89.3471
0
LINE
8
BLACK
6
CONTINUOUS
10
165.364
20
-89.3471
11
165.202
21
-89.4194
0
LINE
8
BLACK
6
CONTINUOUS
10
165.202
20
-89.4194
11
165.028
21
-89.4563
0
LINE
8
BLACK
6
CONTINUOUS
10
165.028
20
-89.4563
11
164.85
21
-89.4563
0
LINE
8
BLACK
6
CONTINUOUS
10
164.85
20
-89.4563
11
164.676
21
-89.4194
0
LINE
8
BLACK
6
CONTINUOUS
10
164.676
20
-89.4194
11
164.514
21
-89.3471
0
LINE
8
BLACK
6
CONTINUOUS
10
164.514
20
-89.3471
11
164.37
21
-89.2427
0
LINE
8
BLACK
6
CONTINUOUS
10
164.37
20
-89.2427
11
164.251
21
-89.1106
0
LINE
8
BLACK
6
CONTINUOUS
10
164.251
20
-89.1106
11
164.163
21
-88.9567
0
LINE
8
BLACK
6
CONTINUOUS
10
164.163
20
-88.9567
11
164.108
21
-88.7877
0
LINE
8
BLACK
6
CONTINUOUS
10
164.108
20
-88.7877
11
164.089
21
-88.611
0
LINE
8
BLACK
6
CONTINUOUS
10
164.089
20
-88.611
11
164.108
21
-88.4343
0
LINE
8
BLACK
6
CONTINUOUS
10
164.108
20
-88.4343
11
164.163
21
-88.2653
0
LINE
8
BLACK
6
CONTINUOUS
10
164.163
20
-88.2653
11
164.251
21
-88.1114
0
LINE
8
BLACK
6
CONTINUOUS
10
164.251
20
-88.1114
11
164.37
21
-87.9793
0
LINE
8
BLACK
6
CONTINUOUS
10
164.37
20
-87.9793
11
164.514
21
-87.8749
0
LINE
8
BLACK
6
CONTINUOUS
10
164.514
20
-87.8749
11
164.676
21
-87.8026
0
LINE
8
BLACK
6
CONTINUOUS
10
164.676
20
-87.8026
11
164.85
21
-87.7656
0
LINE
8
BLACK
6
CONTINUOUS
10
164.85
20
-87.7656
11
165.028
21
-87.7656
0
LINE
8
BLACK
6
CONTINUOUS
10
165.028
20
-87.7656
11
165.202
21
-87.8026
0
LINE
8
BLACK
6
CONTINUOUS
10
162.662
20
-87.8026
11
162.824
21
-87.8749
0
LINE
8
BLACK
6
CONTINUOUS
10
162.824
20
-87.8749
11
162.968
21
-87.9793
0
LINE
8
BLACK
6
CONTINUOUS
10
162.968
20
-87.9793
11
163.087
21
-88.1114
0
LINE
8
BLACK
6
CONTINUOUS
10
163.087
20
-88.1114
11
163.176
21
-88.2653
0
LINE
8
BLACK
6
CONTINUOUS
10
163.176
20
-88.2653
11
163.23
21
-88.4343
0
LINE
8
BLACK
6
CONTINUOUS
10
163.23
20
-88.4343
11
163.249
21
-88.611
0
LINE
8
BLACK
6
CONTINUOUS
10
163.249
20
-88.611
11
163.23
21
-88.7877
0
LINE
8
BLACK
6
CONTINUOUS
10
163.23
20
-88.7877
11
163.176
21
-88.9567
0
LINE
8
BLACK
6
CONTINUOUS
10
163.176
20
-88.9567
11
163.087
21
-89.1106
0
LINE
8
BLACK
6
CONTINUOUS
10
163.087
20
-89.1106
11
162.968
21
-89.2427
0
LINE
8
BLACK
6
CONTINUOUS
10
162.968
20
-89.2427
11
162.824
21
-89.3471
0
LINE
8
BLACK
6
CONTINUOUS
10
162.824
20
-89.3471
11
162.662
21
-89.4194
0
LINE
8
BLACK
6
CONTINUOUS
10
162.662
20
-89.4194
11
162.488
21
-89.4563
0
LINE
8
BLACK
6
CONTINUOUS
10
162.488
20
-89.4563
11
162.31
21
-89.4563
0
LINE
8
BLACK
6
CONTINUOUS
10
162.31
20
-89.4563
11
162.136
21
-89.4194
0
LINE
8
BLACK
6
CONTINUOUS
10
162.136
20
-89.4194
11
161.974
21
-89.3471
0
LINE
8
BLACK
6
CONTINUOUS
10
161.974
20
-89.3471
11
161.83
21
-89.2427
0
LINE
8
BLACK
6
CONTINUOUS
10
161.83
20
-89.2427
11
161.711
21
-89.1106
0
LINE
8
BLACK
6
CONTINUOUS
10
161.711
20
-89.1106
11
161.623
21
-88.9567
0
LINE
8
BLACK
6
CONTINUOUS
10
161.623
20
-88.9567
11
161.568
21
-88.7877
0
LINE
8
BLACK
6
CONTINUOUS
10
161.568
20
-88.7877
11
161.549
21
-88.611
0
LINE
8
BLACK
6
CONTINUOUS
10
161.549
20
-88.611
11
161.568
21
-88.4343
0
LINE
8
BLACK
6
CONTINUOUS
10
161.568
20
-88.4343
11
161.623
21
-88.2653
0
LINE
8
BLACK
6
CONTINUOUS
10
161.623
20
-88.2653
11
161.711
21
-88.1114
0
LINE
8
BLACK
6
CONTINUOUS
10
161.711
20
-88.1114
11
161.83
21
-87.9793
0
LINE
8
BLACK
6
CONTINUOUS
10
161.83
20
-87.9793
11
161.974
21
-87.8749
0
LINE
8
BLACK
6
CONTINUOUS
10
161.974
20
-87.8749
11
162.136
21
-87.8026
0
LINE
8
BLACK
6
CONTINUOUS
10
162.136
20
-87.8026
11
162.31
21
-87.7656
0
LINE
8
BLACK
6
CONTINUOUS
10
162.31
20
-87.7656
11
162.488
21
-87.7656
0
LINE
8
BLACK
6
CONTINUOUS
10
162.488
20
-87.7656
11
162.662
21
-87.8026
0
LINE
8
BLACK
6
CONTINUOUS
10
165.202
20
-85.2626
11
165.364
21
-85.3349
0
LINE
8
BLACK
6
CONTINUOUS
10
165.364
20
-85.3349
11
165.508
21
-85.4393
0
LINE
8
BLACK
6
CONTINUOUS
10
165.508
20
-85.4393
11
165.627
21
-85.5714
0
LINE
8
BLACK
6
CONTINUOUS
10
165.627
20
-85.5714
11
165.716
21
-85.7253
0
LINE
8
BLACK
6
CONTINUOUS
10
165.716
20
-85.7253
11
165.77
21
-85.8943
0
LINE
8
BLACK
6
CONTINUOUS
10
165.77
20
-85.8943
11
165.789
21
-86.071
0
LINE
8
BLACK
6
CONTINUOUS
10
165.789
20
-86.071
11
165.77
21
-86.2477
0
LINE
8
BLACK
6
CONTINUOUS
10
165.77
20
-86.2477
11
165.716
21
-86.4167
0
LINE
8
BLACK
6
CONTINUOUS
10
165.716
20
-86.4167
11
165.627
21
-86.5706
0
LINE
8
BLACK
6
CONTINUOUS
10
165.627
20
-86.5706
11
165.508
21
-86.7027
0
LINE
8
BLACK
6
CONTINUOUS
10
165.508
20
-86.7027
11
165.364
21
-86.8071
0
LINE
8
BLACK
6
CONTINUOUS
10
165.364
20
-86.8071
11
165.202
21
-86.8794
0
LINE
8
BLACK
6
CONTINUOUS
10
165.202
20
-86.8794
11
165.028
21
-86.9163
0
LINE
8
BLACK
6
CONTINUOUS
10
165.028
20
-86.9163
11
164.85
21
-86.9163
0
LINE
8
BLACK
6
CONTINUOUS
10
164.85
20
-86.9163
11
164.676
21
-86.8794
0
LINE
8
BLACK
6
CONTINUOUS
10
164.676
20
-86.8794
11
164.514
21
-86.8071
0
LINE
8
BLACK
6
CONTINUOUS
10
164.514
20
-86.8071
11
164.37
21
-86.7027
0
LINE
8
BLACK
6
CONTINUOUS
10
164.37
20
-86.7027
11
164.251
21
-86.5706
0
LINE
8
BLACK
6
CONTINUOUS
10
164.251
20
-86.5706
11
164.163
21
-86.4167
0
LINE
8
BLACK
6
CONTINUOUS
10
164.163
20
-86.4167
11
164.108
21
-86.2477
0
LINE
8
BLACK
6
CONTINUOUS
10
164.108
20
-86.2477
11
164.089
21
-86.071
0
LINE
8
BLACK
6
CONTINUOUS
10
164.089
20
-86.071
11
164.108
21
-85.8943
0
LINE
8
BLACK
6
CONTINUOUS
10
164.108
20
-85.8943
11
164.163
21
-85.7253
0
LINE
8
BLACK
6
CONTINUOUS
10
164.163
20
-85.7253
11
164.251
21
-85.5714
0
LINE
8
BLACK
6
CONTINUOUS
10
164.251
20
-85.5714
11
164.37
21
-85.4393
0
LINE
8
BLACK
6
CONTINUOUS
10
164.37
20
-85.4393
11
164.514
21
-85.3349
0
LINE
8
BLACK
6
CONTINUOUS
10
164.514
20
-85.3349
11
164.676
21
-85.2626
0
LINE
8
BLACK
6
CONTINUOUS
10
164.676
20
-85.2626
11
164.85
21
-85.2256
0
LINE
8
BLACK
6
CONTINUOUS
10
164.85
20
-85.2256
11
165.028
21
-85.2256
0
LINE
8
BLACK
6
CONTINUOUS
10
165.028
20
-85.2256
11
165.202
21
-85.2626
0
LINE
8
BLACK
6
CONTINUOUS
10
129.642
20
-85.2626
11
129.804
21
-85.3349
0
LINE
8
BLACK
6
CONTINUOUS
10
129.804
20
-85.3349
11
129.948
21
-85.4393
0
LINE
8
BLACK
6
CONTINUOUS
10
129.948
20
-85.4393
11
130.067
21
-85.5714
0
LINE
8
BLACK
6
CONTINUOUS
10
130.067
20
-85.5714
11
130.156
21
-85.7253
0
LINE
8
BLACK
6
CONTINUOUS
10
130.156
20
-85.7253
11
130.21
21
-85.8943
0
LINE
8
BLACK
6
CONTINUOUS
10
130.21
20
-85.8943
11
130.229
21
-86.071
0
LINE
8
BLACK
6
CONTINUOUS
10
130.229
20
-86.071
11
130.21
21
-86.2477
0
LINE
8
BLACK
6
CONTINUOUS
10
130.21
20
-86.2477
11
130.156
21
-86.4167
0
LINE
8
BLACK
6
CONTINUOUS
10
130.156
20
-86.4167
11
130.067
21
-86.5706
0
LINE
8
BLACK
6
CONTINUOUS
10
130.067
20
-86.5706
11
129.948
21
-86.7027
0
LINE
8
BLACK
6
CONTINUOUS
10
129.948
20
-86.7027
11
129.804
21
-86.8071
0
LINE
8
BLACK
6
CONTINUOUS
10
129.804
20
-86.8071
11
129.642
21
-86.8794
0
LINE
8
BLACK
6
CONTINUOUS
10
129.642
20
-86.8794
11
129.468
21
-86.9163
0
LINE
8
BLACK
6
CONTINUOUS
10
129.468
20
-86.9163
11
129.29
21
-86.9163
0
LINE
8
BLACK
6
CONTINUOUS
10
129.29
20
-86.9163
11
129.116
21
-86.8794
0
LINE
8
BLACK
6
CONTINUOUS
10
129.116
20
-86.8794
11
128.954
21
-86.8071
0
LINE
8
BLACK
6
CONTINUOUS
10
128.954
20
-86.8071
11
128.81
21
-86.7027
0
LINE
8
BLACK
6
CONTINUOUS
10
128.81
20
-86.7027
11
128.691
21
-86.5706
0
LINE
8
BLACK
6
CONTINUOUS
10
128.691
20
-86.5706
11
128.603
21
-86.4167
0
LINE
8
BLACK
6
CONTINUOUS
10
128.603
20
-86.4167
11
128.548
21
-86.2477
0
LINE
8
BLACK
6
CONTINUOUS
10
128.548
20
-86.2477
11
128.529
21
-86.071
0
LINE
8
BLACK
6
CONTINUOUS
10
128.529
20
-86.071
11
128.548
21
-85.8943
0
LINE
8
BLACK
6
CONTINUOUS
10
128.548
20
-85.8943
11
128.603
21
-85.7253
0
LINE
8
BLACK
6
CONTINUOUS
10
128.603
20
-85.7253
11
128.691
21
-85.5714
0
LINE
8
BLACK
6
CONTINUOUS
10
128.691
20
-85.5714
11
128.81
21
-85.4393
0
LINE
8
BLACK
6
CONTINUOUS
10
128.81
20
-85.4393
11
128.954
21
-85.3349
0
LINE
8
BLACK
6
CONTINUOUS
10
128.954
20
-85.3349
11
129.116
21
-85.2626
0
LINE
8
BLACK
6
CONTINUOUS
10
129.116
20
-85.2626
11
129.29
21
-85.2256
0
LINE
8
BLACK
6
CONTINUOUS
10
129.29
20
-85.2256
11
129.468
21
-85.2256
0
LINE
8
BLACK
6
CONTINUOUS
10
129.468
20
-85.2256
11
129.642
21
-85.2626
0
LINE
8
BLACK
6
CONTINUOUS
10
162.662
20
-85.2626
11
162.824
21
-85.3349
0
LINE
8
BLACK
6
CONTINUOUS
10
162.824
20
-85.3349
11
162.968
21
-85.4393
0
LINE
8
BLACK
6
CONTINUOUS
10
162.968
20
-85.4393
11
163.087
21
-85.5714
0
LINE
8
BLACK
6
CONTINUOUS
10
163.087
20
-85.5714
11
163.176
21
-85.7253
0
LINE
8
BLACK
6
CONTINUOUS
10
163.176
20
-85.7253
11
163.23
21
-85.8943
0
LINE
8
BLACK
6
CONTINUOUS
10
163.23
20
-85.8943
11
163.249
21
-86.071
0
LINE
8
BLACK
6
CONTINUOUS
10
163.249
20
-86.071
11
163.23
21
-86.2477
0
LINE
8
BLACK
6
CONTINUOUS
10
163.23
20
-86.2477
11
163.176
21
-86.4167
0
LINE
8
BLACK
6
CONTINUOUS
10
163.176
20
-86.4167
11
163.087
21
-86.5706
0
LINE
8
BLACK
6
CONTINUOUS
10
163.087
20
-86.5706
11
162.968
21
-86.7027
0
LINE
8
BLACK
6
CONTINUOUS
10
162.968
20
-86.7027
11
162.824
21
-86.8071
0
LINE
8
BLACK
6
CONTINUOUS
10
162.824
20
-86.8071
11
162.662
21
-86.8794
0
LINE
8
BLACK
6
CONTINUOUS
10
162.662
20
-86.8794
11
162.488
21
-86.9163
0
LINE
8
BLACK
6
CONTINUOUS
10
162.488
20
-86.9163
11
162.31
21
-86.9163
0
LINE
8
BLACK
6
CONTINUOUS
10
162.31
20
-86.9163
11
162.136
21
-86.8794
0
LINE
8
BLACK
6
CONTINUOUS
10
162.136
20
-86.8794
11
161.974
21
-86.8071
0
LINE
8
BLACK
6
CONTINUOUS
10
161.974
20
-86.8071
11
161.83
21
-86.7027
0
LINE
8
BLACK
6
CONTINUOUS
10
161.83
20
-86.7027
11
161.711
21
-86.5706
0
LINE
8
BLACK
6
CONTINUOUS
10
161.711
20
-86.5706
11
161.623
21
-86.4167
0
LINE
8
BLACK
6
CONTINUOUS
10
161.623
20
-86.4167
11
161.568
21
-86.2477
0
LINE
8
BLACK
6
CONTINUOUS
10
161.568
20
-86.2477
11
161.549
21
-86.071
0
LINE
8
BLACK
6
CONTINUOUS
10
161.549
20
-86.071
11
161.568
21
-85.8943
0
LINE
8
BLACK
6
CONTINUOUS
10
161.568
20
-85.8943
11
161.623
21
-85.7253
0
LINE
8
BLACK
6
CONTINUOUS
10
161.623
20
-85.7253
11
161.711
21
-85.5714
0
LINE
8
BLACK
6
CONTINUOUS
10
161.711
20
-85.5714
11
161.83
21
-85.4393
0
LINE
8
BLACK
6
CONTINUOUS
10
161.83
20
-85.4393
11
161.974
21
-85.3349
0
LINE
8
BLACK
6
CONTINUOUS
10
161.974
20
-85.3349
11
162.136
21
-85.2626
0
LINE
8
BLACK
6
CONTINUOUS
10
162.136
20
-85.2626
11
162.31
21
-85.2256
0
LINE
8
BLACK
6
CONTINUOUS
10
162.31
20
-85.2256
11
162.488
21
-85.2256
0
LINE
8
BLACK
6
CONTINUOUS
10
162.488
20
-85.2256
11
162.662
21
-85.2626
0
LINE
8
BLACK
6
CONTINUOUS
10
129.642
20
-82.7226
11
129.804
21
-82.7949
0
LINE
8
BLACK
6
CONTINUOUS
10
129.804
20
-82.7949
11
129.948
21
-82.8993
0
LINE
8
BLACK
6
CONTINUOUS
10
129.948
20
-82.8993
11
130.067
21
-83.0314
0
LINE
8
BLACK
6
CONTINUOUS
10
130.067
20
-83.0314
11
130.156
21
-83.1853
0
LINE
8
BLACK
6
CONTINUOUS
10
130.156
20
-83.1853
11
130.21
21
-83.3543
0
LINE
8
BLACK
6
CONTINUOUS
10
130.21
20
-83.3543
11
130.229
21
-83.531
0
LINE
8
BLACK
6
CONTINUOUS
10
130.229
20
-83.531
11
130.21
21
-83.7077
0
LINE
8
BLACK
6
CONTINUOUS
10
130.21
20
-83.7077
11
130.156
21
-83.8767
0
LINE
8
BLACK
6
CONTINUOUS
10
130.156
20
-83.8767
11
130.067
21
-84.0306
0
LINE
8
BLACK
6
CONTINUOUS
10
130.067
20
-84.0306
11
129.948
21
-84.1627
0
LINE
8
BLACK
6
CONTINUOUS
10
129.948
20
-84.1627
11
129.804
21
-84.2671
0
LINE
8
BLACK
6
CONTINUOUS
10
129.804
20
-84.2671
11
129.642
21
-84.3394
0
LINE
8
BLACK
6
CONTINUOUS
10
129.642
20
-84.3394
11
129.468
21
-84.3763
0
LINE
8
BLACK
6
CONTINUOUS
10
129.468
20
-84.3763
11
129.29
21
-84.3763
0
LINE
8
BLACK
6
CONTINUOUS
10
129.29
20
-84.3763
11
129.116
21
-84.3394
0
LINE
8
BLACK
6
CONTINUOUS
10
129.116
20
-84.3394
11
128.954
21
-84.2671
0
LINE
8
BLACK
6
CONTINUOUS
10
128.954
20
-84.2671
11
128.81
21
-84.1627
0
LINE
8
BLACK
6
CONTINUOUS
10
128.81
20
-84.1627
11
128.691
21
-84.0306
0
LINE
8
BLACK
6
CONTINUOUS
10
128.691
20
-84.0306
11
128.603
21
-83.8767
0
LINE
8
BLACK
6
CONTINUOUS
10
128.603
20
-83.8767
11
128.548
21
-83.7077
0
LINE
8
BLACK
6
CONTINUOUS
10
128.548
20
-83.7077
11
128.529
21
-83.531
0
LINE
8
BLACK
6
CONTINUOUS
10
128.529
20
-83.531
11
128.548
21
-83.3543
0
LINE
8
BLACK
6
CONTINUOUS
10
128.548
20
-83.3543
11
128.603
21
-83.1853
0
LINE
8
BLACK
6
CONTINUOUS
10
128.603
20
-83.1853
11
128.691
21
-83.0314
0
LINE
8
BLACK
6
CONTINUOUS
10
128.691
20
-83.0314
11
128.81
21
-82.8993
0
LINE
8
BLACK
6
CONTINUOUS
10
128.81
20
-82.8993
11
128.954
21
-82.7949
0
LINE
8
BLACK
6
CONTINUOUS
10
128.954
20
-82.7949
11
129.116
21
-82.7226
0
LINE
8
BLACK
6
CONTINUOUS
10
129.116
20
-82.7226
11
129.29
21
-82.6856
0
LINE
8
BLACK
6
CONTINUOUS
10
129.29
20
-82.6856
11
129.468
21
-82.6856
0
LINE
8
BLACK
6
CONTINUOUS
10
129.468
20
-82.6856
11
129.642
21
-82.7226
0
LINE
8
BLACK
6
CONTINUOUS
10
162.662
20
-82.7226
11
162.824
21
-82.7949
0
LINE
8
BLACK
6
CONTINUOUS
10
162.824
20
-82.7949
11
162.968
21
-82.8993
0
LINE
8
BLACK
6
CONTINUOUS
10
162.968
20
-82.8993
11
163.087
21
-83.0314
0
LINE
8
BLACK
6
CONTINUOUS
10
163.087
20
-83.0314
11
163.176
21
-83.1853
0
LINE
8
BLACK
6
CONTINUOUS
10
163.176
20
-83.1853
11
163.23
21
-83.3543
0
LINE
8
BLACK
6
CONTINUOUS
10
163.23
20
-83.3543
11
163.249
21
-83.531
0
LINE
8
BLACK
6
CONTINUOUS
10
163.249
20
-83.531
11
163.23
21
-83.7077
0
LINE
8
BLACK
6
CONTINUOUS
10
163.23
20
-83.7077
11
163.176
21
-83.8767
0
LINE
8
BLACK
6
CONTINUOUS
10
163.176
20
-83.8767
11
163.087
21
-84.0306
0
LINE
8
BLACK
6
CONTINUOUS
10
163.087
20
-84.0306
11
162.968
21
-84.1627
0
LINE
8
BLACK
6
CONTINUOUS
10
162.968
20
-84.1627
11
162.824
21
-84.2671
0
LINE
8
BLACK
6
CONTINUOUS
10
162.824
20
-84.2671
11
162.662
21
-84.3394
0
LINE
8
BLACK
6
CONTINUOUS
10
162.662
20
-84.3394
11
162.488
21
-84.3763
0
LINE
8
BLACK
6
CONTINUOUS
10
162.488
20
-84.3763
11
162.31
21
-84.3763
0
LINE
8
BLACK
6
CONTINUOUS
10
162.31
20
-84.3763
11
162.136
21
-84.3394
0
LINE
8
BLACK
6
CONTINUOUS
10
162.136
20
-84.3394
11
161.974
21
-84.2671
0
LINE
8
BLACK
6
CONTINUOUS
10
161.974
20
-84.2671
11
161.83
21
-84.1627
0
LINE
8
BLACK
6
CONTINUOUS
10
161.83
20
-84.1627
11
161.711
21
-84.0306
0
LINE
8
BLACK
6
CONTINUOUS
10
161.711
20
-84.0306
11
161.623
21
-83.8767
0
LINE
8
BLACK
6
CONTINUOUS
10
161.623
20
-83.8767
11
161.568
21
-83.7077
0
LINE
8
BLACK
6
CONTINUOUS
10
161.568
20
-83.7077
11
161.549
21
-83.531
0
LINE
8
BLACK
6
CONTINUOUS
10
161.549
20
-83.531
11
161.568
21
-83.3543
0
LINE
8
BLACK
6
CONTINUOUS
10
161.568
20
-83.3543
11
161.623
21
-83.1853
0
LINE
8
BLACK
6
CONTINUOUS
10
161.623
20
-83.1853
11
161.711
21
-83.0314
0
LINE
8
BLACK
6
CONTINUOUS
10
161.711
20
-83.0314
11
161.83
21
-82.8993
0
LINE
8
BLACK
6
CONTINUOUS
10
161.83
20
-82.8993
11
161.974
21
-82.7949
0
LINE
8
BLACK
6
CONTINUOUS
10
161.974
20
-82.7949
11
162.136
21
-82.7226
0
LINE
8
BLACK
6
CONTINUOUS
10
162.136
20
-82.7226
11
162.31
21
-82.6856
0
LINE
8
BLACK
6
CONTINUOUS
10
162.31
20
-82.6856
11
162.488
21
-82.6856
0
LINE
8
BLACK
6
CONTINUOUS
10
162.488
20
-82.6856
11
162.662
21
-82.7226
0
LINE
8
BLACK
6
CONTINUOUS
10
165.202
20
-82.7226
11
165.364
21
-82.7949
0
LINE
8
BLACK
6
CONTINUOUS
10
165.364
20
-82.7949
11
165.508
21
-82.8993
0
LINE
8
BLACK
6
CONTINUOUS
10
165.508
20
-82.8993
11
165.627
21
-83.0314
0
LINE
8
BLACK
6
CONTINUOUS
10
165.627
20
-83.0314
11
165.716
21
-83.1853
0
LINE
8
BLACK
6
CONTINUOUS
10
165.716
20
-83.1853
11
165.77
21
-83.3543
0
LINE
8
BLACK
6
CONTINUOUS
10
165.77
20
-83.3543
11
165.789
21
-83.531
0
LINE
8
BLACK
6
CONTINUOUS
10
165.789
20
-83.531
11
165.77
21
-83.7077
0
LINE
8
BLACK
6
CONTINUOUS
10
165.77
20
-83.7077
11
165.716
21
-83.8767
0
LINE
8
BLACK
6
CONTINUOUS
10
165.716
20
-83.8767
11
165.627
21
-84.0306
0
LINE
8
BLACK
6
CONTINUOUS
10
165.627
20
-84.0306
11
165.508
21
-84.1627
0
LINE
8
BLACK
6
CONTINUOUS
10
165.508
20
-84.1627
11
165.364
21
-84.2671
0
LINE
8
BLACK
6
CONTINUOUS
10
165.364
20
-84.2671
11
165.202
21
-84.3394
0
LINE
8
BLACK
6
CONTINUOUS
10
165.202
20
-84.3394
11
165.028
21
-84.3763
0
LINE
8
BLACK
6
CONTINUOUS
10
165.028
20
-84.3763
11
164.85
21
-84.3763
0
LINE
8
BLACK
6
CONTINUOUS
10
164.85
20
-84.3763
11
164.676
21
-84.3394
0
LINE
8
BLACK
6
CONTINUOUS
10
164.676
20
-84.3394
11
164.514
21
-84.2671
0
LINE
8
BLACK
6
CONTINUOUS
10
164.514
20
-84.2671
11
164.37
21
-84.1627
0
LINE
8
BLACK
6
CONTINUOUS
10
164.37
20
-84.1627
11
164.251
21
-84.0306
0
LINE
8
BLACK
6
CONTINUOUS
10
164.251
20
-84.0306
11
164.163
21
-83.8767
0
LINE
8
BLACK
6
CONTINUOUS
10
164.163
20
-83.8767
11
164.108
21
-83.7077
0
LINE
8
BLACK
6
CONTINUOUS
10
164.108
20
-83.7077
11
164.089
21
-83.531
0
LINE
8
BLACK
6
CONTINUOUS
10
164.089
20
-83.531
11
164.108
21
-83.3543
0
LINE
8
BLACK
6
CONTINUOUS
10
164.108
20
-83.3543
11
164.163
21
-83.1853
0
LINE
8
BLACK
6
CONTINUOUS
10
164.163
20
-83.1853
11
164.251
21
-83.0314
0
LINE
8
BLACK
6
CONTINUOUS
10
164.251
20
-83.0314
11
164.37
21
-82.8993
0
LINE
8
BLACK
6
CONTINUOUS
10
164.37
20
-82.8993
11
164.514
21
-82.7949
0
LINE
8
BLACK
6
CONTINUOUS
10
164.514
20
-82.7949
11
164.676
21
-82.7226
0
LINE
8
BLACK
6
CONTINUOUS
10
164.676
20
-82.7226
11
164.85
21
-82.6856
0
LINE
8
BLACK
6
CONTINUOUS
10
164.85
20
-82.6856
11
165.028
21
-82.6856
0
LINE
8
BLACK
6
CONTINUOUS
10
165.028
20
-82.6856
11
165.202
21
-82.7226
0
LINE
8
BLACK
6
CONTINUOUS
10
129.642
20
-80.1826
11
129.804
21
-80.2549
0
LINE
8
BLACK
6
CONTINUOUS
10
129.804
20
-80.2549
11
129.948
21
-80.3593
0
LINE
8
BLACK
6
CONTINUOUS
10
129.948
20
-80.3593
11
130.067
21
-80.4914
0
LINE
8
BLACK
6
CONTINUOUS
10
130.067
20
-80.4914
11
130.156
21
-80.6453
0
LINE
8
BLACK
6
CONTINUOUS
10
130.156
20
-80.6453
11
130.21
21
-80.8143
0
LINE
8
BLACK
6
CONTINUOUS
10
130.21
20
-80.8143
11
130.229
21
-80.991
0
LINE
8
BLACK
6
CONTINUOUS
10
130.229
20
-80.991
11
130.21
21
-81.1677
0
LINE
8
BLACK
6
CONTINUOUS
10
130.21
20
-81.1677
11
130.156
21
-81.3367
0
LINE
8
BLACK
6
CONTINUOUS
10
130.156
20
-81.3367
11
130.067
21
-81.4906
0
LINE
8
BLACK
6
CONTINUOUS
10
130.067
20
-81.4906
11
129.948
21
-81.6227
0
LINE
8
BLACK
6
CONTINUOUS
10
129.948
20
-81.6227
11
129.804
21
-81.7271
0
LINE
8
BLACK
6
CONTINUOUS
10
129.804
20
-81.7271
11
129.642
21
-81.7994
0
LINE
8
BLACK
6
CONTINUOUS
10
129.642
20
-81.7994
11
129.468
21
-81.8363
0
LINE
8
BLACK
6
CONTINUOUS
10
129.468
20
-81.8363
11
129.29
21
-81.8363
0
LINE
8
BLACK
6
CONTINUOUS
10
129.29
20
-81.8363
11
129.116
21
-81.7994
0
LINE
8
BLACK
6
CONTINUOUS
10
129.116
20
-81.7994
11
128.954
21
-81.7271
0
LINE
8
BLACK
6
CONTINUOUS
10
128.954
20
-81.7271
11
128.81
21
-81.6227
0
LINE
8
BLACK
6
CONTINUOUS
10
128.81
20
-81.6227
11
128.691
21
-81.4906
0
LINE
8
BLACK
6
CONTINUOUS
10
128.691
20
-81.4906
11
128.603
21
-81.3367
0
LINE
8
BLACK
6
CONTINUOUS
10
128.603
20
-81.3367
11
128.548
21
-81.1677
0
LINE
8
BLACK
6
CONTINUOUS
10
128.548
20
-81.1677
11
128.529
21
-80.991
0
LINE
8
BLACK
6
CONTINUOUS
10
128.529
20
-80.991
11
128.548
21
-80.8143
0
LINE
8
BLACK
6
CONTINUOUS
10
128.548
20
-80.8143
11
128.603
21
-80.6453
0
LINE
8
BLACK
6
CONTINUOUS
10
128.603
20
-80.6453
11
128.691
21
-80.4914
0
LINE
8
BLACK
6
CONTINUOUS
10
128.691
20
-80.4914
11
128.81
21
-80.3593
0
LINE
8
BLACK
6
CONTINUOUS
10
128.81
20
-80.3593
11
128.954
21
-80.2549
0
LINE
8
BLACK
6
CONTINUOUS
10
128.954
20
-80.2549
11
129.116
21
-80.1826
0
LINE
8
BLACK
6
CONTINUOUS
10
129.116
20
-80.1826
11
129.29
21
-80.1456
0
LINE
8
BLACK
6
CONTINUOUS
10
129.29
20
-80.1456
11
129.468
21
-80.1456
0
LINE
8
BLACK
6
CONTINUOUS
10
129.468
20
-80.1456
11
129.642
21
-80.1826
0
LINE
8
BLACK
6
CONTINUOUS
10
162.662
20
-80.1826
11
162.824
21
-80.2549
0
LINE
8
BLACK
6
CONTINUOUS
10
162.824
20
-80.2549
11
162.968
21
-80.3593
0
LINE
8
BLACK
6
CONTINUOUS
10
162.968
20
-80.3593
11
163.087
21
-80.4914
0
LINE
8
BLACK
6
CONTINUOUS
10
163.087
20
-80.4914
11
163.176
21
-80.6453
0
LINE
8
BLACK
6
CONTINUOUS
10
163.176
20
-80.6453
11
163.23
21
-80.8143
0
LINE
8
BLACK
6
CONTINUOUS
10
163.23
20
-80.8143
11
163.249
21
-80.991
0
LINE
8
BLACK
6
CONTINUOUS
10
163.249
20
-80.991
11
163.23
21
-81.1677
0
LINE
8
BLACK
6
CONTINUOUS
10
163.23
20
-81.1677
11
163.176
21
-81.3367
0
LINE
8
BLACK
6
CONTINUOUS
10
163.176
20
-81.3367
11
163.087
21
-81.4906
0
LINE
8
BLACK
6
CONTINUOUS
10
163.087
20
-81.4906
11
162.968
21
-81.6227
0
LINE
8
BLACK
6
CONTINUOUS
10
162.968
20
-81.6227
11
162.824
21
-81.7271
0
LINE
8
BLACK
6
CONTINUOUS
10
162.824
20
-81.7271
11
162.662
21
-81.7994
0
LINE
8
BLACK
6
CONTINUOUS
10
162.662
20
-81.7994
11
162.488
21
-81.8363
0
LINE
8
BLACK
6
CONTINUOUS
10
162.488
20
-81.8363
11
162.31
21
-81.8363
0
LINE
8
BLACK
6
CONTINUOUS
10
162.31
20
-81.8363
11
162.136
21
-81.7994
0
LINE
8
BLACK
6
CONTINUOUS
10
162.136
20
-81.7994
11
161.974
21
-81.7271
0
LINE
8
BLACK
6
CONTINUOUS
10
161.974
20
-81.7271
11
161.83
21
-81.6227
0
LINE
8
BLACK
6
CONTINUOUS
10
161.83
20
-81.6227
11
161.711
21
-81.4906
0
LINE
8
BLACK
6
CONTINUOUS
10
161.711
20
-81.4906
11
161.623
21
-81.3367
0
LINE
8
BLACK
6
CONTINUOUS
10
161.623
20
-81.3367
11
161.568
21
-81.1677
0
LINE
8
BLACK
6
CONTINUOUS
10
161.568
20
-81.1677
11
161.549
21
-80.991
0
LINE
8
BLACK
6
CONTINUOUS
10
161.549
20
-80.991
11
161.568
21
-80.8143
0
LINE
8
BLACK
6
CONTINUOUS
10
161.568
20
-80.8143
11
161.623
21
-80.6453
0
LINE
8
BLACK
6
CONTINUOUS
10
161.623
20
-80.6453
11
161.711
21
-80.4914
0
LINE
8
BLACK
6
CONTINUOUS
10
161.711
20
-80.4914
11
161.83
21
-80.3593
0
LINE
8
BLACK
6
CONTINUOUS
10
161.83
20
-80.3593
11
161.974
21
-80.2549
0
LINE
8
BLACK
6
CONTINUOUS
10
161.974
20
-80.2549
11
162.136
21
-80.1826
0
LINE
8
BLACK
6
CONTINUOUS
10
162.136
20
-80.1826
11
162.31
21
-80.1456
0
LINE
8
BLACK
6
CONTINUOUS
10
162.31
20
-80.1456
11
162.488
21
-80.1456
0
LINE
8
BLACK
6
CONTINUOUS
10
162.488
20
-80.1456
11
162.662
21
-80.1826
0
LINE
8
BLACK
6
CONTINUOUS
10
165.202
20
-80.1826
11
165.364
21
-80.2549
0
LINE
8
BLACK
6
CONTINUOUS
10
165.364
20
-80.2549
11
165.508
21
-80.3593
0
LINE
8
BLACK
6
CONTINUOUS
10
165.508
20
-80.3593
11
165.627
21
-80.4914
0
LINE
8
BLACK
6
CONTINUOUS
10
165.627
20
-80.4914
11
165.716
21
-80.6453
0
LINE
8
BLACK
6
CONTINUOUS
10
165.716
20
-80.6453
11
165.77
21
-80.8143
0
LINE
8
BLACK
6
CONTINUOUS
10
165.77
20
-80.8143
11
165.789
21
-80.991
0
LINE
8
BLACK
6
CONTINUOUS
10
165.789
20
-80.991
11
165.77
21
-81.1677
0
LINE
8
BLACK
6
CONTINUOUS
10
165.77
20
-81.1677
11
165.716
21
-81.3367
0
LINE
8
BLACK
6
CONTINUOUS
10
165.716
20
-81.3367
11
165.627
21
-81.4906
0
LINE
8
BLACK
6
CONTINUOUS
10
165.627
20
-81.4906
11
165.508
21
-81.6227
0
LINE
8
BLACK
6
CONTINUOUS
10
165.508
20
-81.6227
11
165.364
21
-81.7271
0
LINE
8
BLACK
6
CONTINUOUS
10
165.364
20
-81.7271
11
165.202
21
-81.7994
0
LINE
8
BLACK
6
CONTINUOUS
10
165.202
20
-81.7994
11
165.028
21
-81.8363
0
LINE
8
BLACK
6
CONTINUOUS
10
165.028
20
-81.8363
11
164.85
21
-81.8363
0
LINE
8
BLACK
6
CONTINUOUS
10
164.85
20
-81.8363
11
164.676
21
-81.7994
0
LINE
8
BLACK
6
CONTINUOUS
10
164.676
20
-81.7994
11
164.514
21
-81.7271
0
LINE
8
BLACK
6
CONTINUOUS
10
164.514
20
-81.7271
11
164.37
21
-81.6227
0
LINE
8
BLACK
6
CONTINUOUS
10
164.37
20
-81.6227
11
164.251
21
-81.4906
0
LINE
8
BLACK
6
CONTINUOUS
10
164.251
20
-81.4906
11
164.163
21
-81.3367
0
LINE
8
BLACK
6
CONTINUOUS
10
164.163
20
-81.3367
11
164.108
21
-81.1677
0
LINE
8
BLACK
6
CONTINUOUS
10
164.108
20
-81.1677
11
164.089
21
-80.991
0
LINE
8
BLACK
6
CONTINUOUS
10
164.089
20
-80.991
11
164.108
21
-80.8143
0
LINE
8
BLACK
6
CONTINUOUS
10
164.108
20
-80.8143
11
164.163
21
-80.6453
0
LINE
8
BLACK
6
CONTINUOUS
10
164.163
20
-80.6453
11
164.251
21
-80.4914
0
LINE
8
BLACK
6
CONTINUOUS
10
164.251
20
-80.4914
11
164.37
21
-80.3593
0
LINE
8
BLACK
6
CONTINUOUS
10
164.37
20
-80.3593
11
164.514
21
-80.2549
0
LINE
8
BLACK
6
CONTINUOUS
10
164.514
20
-80.2549
11
164.676
21
-80.1826
0
LINE
8
BLACK
6
CONTINUOUS
10
164.676
20
-80.1826
11
164.85
21
-80.1456
0
LINE
8
BLACK
6
CONTINUOUS
10
164.85
20
-80.1456
11
165.028
21
-80.1456
0
LINE
8
BLACK
6
CONTINUOUS
10
165.028
20
-80.1456
11
165.202
21
-80.1826
0
LINE
8
BLACK
6
CONTINUOUS
10
130.229
20
-79.301
11
128.529
21
-79.301
0
LINE
8
BLACK
6
CONTINUOUS
10
128.529
20
-79.301
11
128.529
21
-77.601
0
LINE
8
BLACK
6
CONTINUOUS
10
128.529
20
-77.601
11
130.229
21
-77.601
0
LINE
8
BLACK
6
CONTINUOUS
10
130.229
20
-77.601
11
130.229
21
-79.301
0
LINE
8
BLACK
6
CONTINUOUS
10
162.662
20
-77.6426
11
162.824
21
-77.7149
0
LINE
8
BLACK
6
CONTINUOUS
10
162.824
20
-77.7149
11
162.968
21
-77.8193
0
LINE
8
BLACK
6
CONTINUOUS
10
162.968
20
-77.8193
11
163.087
21
-77.9514
0
LINE
8
BLACK
6
CONTINUOUS
10
163.087
20
-77.9514
11
163.176
21
-78.1053
0
LINE
8
BLACK
6
CONTINUOUS
10
163.176
20
-78.1053
11
163.23
21
-78.2743
0
LINE
8
BLACK
6
CONTINUOUS
10
163.23
20
-78.2743
11
163.249
21
-78.451
0
LINE
8
BLACK
6
CONTINUOUS
10
163.249
20
-78.451
11
163.23
21
-78.6277
0
LINE
8
BLACK
6
CONTINUOUS
10
163.23
20
-78.6277
11
163.176
21
-78.7967
0
LINE
8
BLACK
6
CONTINUOUS
10
163.176
20
-78.7967
11
163.087
21
-78.9506
0
LINE
8
BLACK
6
CONTINUOUS
10
163.087
20
-78.9506
11
162.968
21
-79.0827
0
LINE
8
BLACK
6
CONTINUOUS
10
162.968
20
-79.0827
11
162.824
21
-79.1871
0
LINE
8
BLACK
6
CONTINUOUS
10
162.824
20
-79.1871
11
162.662
21
-79.2594
0
LINE
8
BLACK
6
CONTINUOUS
10
162.662
20
-79.2594
11
162.488
21
-79.2963
0
LINE
8
BLACK
6
CONTINUOUS
10
162.488
20
-79.2963
11
162.31
21
-79.2963
0
LINE
8
BLACK
6
CONTINUOUS
10
162.31
20
-79.2963
11
162.136
21
-79.2594
0
LINE
8
BLACK
6
CONTINUOUS
10
162.136
20
-79.2594
11
161.974
21
-79.1871
0
LINE
8
BLACK
6
CONTINUOUS
10
161.974
20
-79.1871
11
161.83
21
-79.0827
0
LINE
8
BLACK
6
CONTINUOUS
10
161.83
20
-79.0827
11
161.711
21
-78.9506
0
LINE
8
BLACK
6
CONTINUOUS
10
161.711
20
-78.9506
11
161.623
21
-78.7967
0
LINE
8
BLACK
6
CONTINUOUS
10
161.623
20
-78.7967
11
161.568
21
-78.6277
0
LINE
8
BLACK
6
CONTINUOUS
10
161.568
20
-78.6277
11
161.549
21
-78.451
0
LINE
8
BLACK
6
CONTINUOUS
10
161.549
20
-78.451
11
161.568
21
-78.2743
0
LINE
8
BLACK
6
CONTINUOUS
10
161.568
20
-78.2743
11
161.623
21
-78.1053
0
LINE
8
BLACK
6
CONTINUOUS
10
161.623
20
-78.1053
11
161.711
21
-77.9514
0
LINE
8
BLACK
6
CONTINUOUS
10
161.711
20
-77.9514
11
161.83
21
-77.8193
0
LINE
8
BLACK
6
CONTINUOUS
10
161.83
20
-77.8193
11
161.974
21
-77.7149
0
LINE
8
BLACK
6
CONTINUOUS
10
161.974
20
-77.7149
11
162.136
21
-77.6426
0
LINE
8
BLACK
6
CONTINUOUS
10
162.136
20
-77.6426
11
162.31
21
-77.6056
0
LINE
8
BLACK
6
CONTINUOUS
10
162.31
20
-77.6056
11
162.488
21
-77.6056
0
LINE
8
BLACK
6
CONTINUOUS
10
162.488
20
-77.6056
11
162.662
21
-77.6426
0
LINE
8
BLACK
6
CONTINUOUS
10
165.202
20
-77.6426
11
165.364
21
-77.7149
0
LINE
8
BLACK
6
CONTINUOUS
10
165.364
20
-77.7149
11
165.508
21
-77.8193
0
LINE
8
BLACK
6
CONTINUOUS
10
165.508
20
-77.8193
11
165.627
21
-77.9514
0
LINE
8
BLACK
6
CONTINUOUS
10
165.627
20
-77.9514
11
165.716
21
-78.1053
0
LINE
8
BLACK
6
CONTINUOUS
10
165.716
20
-78.1053
11
165.77
21
-78.2743
0
LINE
8
BLACK
6
CONTINUOUS
10
165.77
20
-78.2743
11
165.789
21
-78.451
0
LINE
8
BLACK
6
CONTINUOUS
10
165.789
20
-78.451
11
165.77
21
-78.6277
0
LINE
8
BLACK
6
CONTINUOUS
10
165.77
20
-78.6277
11
165.716
21
-78.7967
0
LINE
8
BLACK
6
CONTINUOUS
10
165.716
20
-78.7967
11
165.627
21
-78.9506
0
LINE
8
BLACK
6
CONTINUOUS
10
165.627
20
-78.9506
11
165.508
21
-79.0827
0
LINE
8
BLACK
6
CONTINUOUS
10
165.508
20
-79.0827
11
165.364
21
-79.1871
0
LINE
8
BLACK
6
CONTINUOUS
10
165.364
20
-79.1871
11
165.202
21
-79.2594
0
LINE
8
BLACK
6
CONTINUOUS
10
165.202
20
-79.2594
11
165.028
21
-79.2963
0
LINE
8
BLACK
6
CONTINUOUS
10
165.028
20
-79.2963
11
164.85
21
-79.2963
0
LINE
8
BLACK
6
CONTINUOUS
10
164.85
20
-79.2963
11
164.676
21
-79.2594
0
LINE
8
BLACK
6
CONTINUOUS
10
164.676
20
-79.2594
11
164.514
21
-79.1871
0
LINE
8
BLACK
6
CONTINUOUS
10
164.514
20
-79.1871
11
164.37
21
-79.0827
0
LINE
8
BLACK
6
CONTINUOUS
10
164.37
20
-79.0827
11
164.251
21
-78.9506
0
LINE
8
BLACK
6
CONTINUOUS
10
164.251
20
-78.9506
11
164.163
21
-78.7967
0
LINE
8
BLACK
6
CONTINUOUS
10
164.163
20
-78.7967
11
164.108
21
-78.6277
0
LINE
8
BLACK
6
CONTINUOUS
10
164.108
20
-78.6277
11
164.089
21
-78.451
0
LINE
8
BLACK
6
CONTINUOUS
10
164.089
20
-78.451
11
164.108
21
-78.2743
0
LINE
8
BLACK
6
CONTINUOUS
10
164.108
20
-78.2743
11
164.163
21
-78.1053
0
LINE
8
BLACK
6
CONTINUOUS
10
164.163
20
-78.1053
11
164.251
21
-77.9514
0
LINE
8
BLACK
6
CONTINUOUS
10
164.251
20
-77.9514
11
164.37
21
-77.8193
0
LINE
8
BLACK
6
CONTINUOUS
10
164.37
20
-77.8193
11
164.514
21
-77.7149
0
LINE
8
BLACK
6
CONTINUOUS
10
164.514
20
-77.7149
11
164.676
21
-77.6426
0
LINE
8
BLACK
6
CONTINUOUS
10
164.676
20
-77.6426
11
164.85
21
-77.6056
0
LINE
8
BLACK
6
CONTINUOUS
10
164.85
20
-77.6056
11
165.028
21
-77.6056
0
LINE
8
BLACK
6
CONTINUOUS
10
165.028
20
-77.6056
11
165.202
21
-77.6426
0
LINE
8
BLACK
6
CONTINUOUS
10
165.202
20
-75.1026
11
165.364
21
-75.1749
0
LINE
8
BLACK
6
CONTINUOUS
10
165.364
20
-75.1749
11
165.508
21
-75.2793
0
LINE
8
BLACK
6
CONTINUOUS
10
165.508
20
-75.2793
11
165.627
21
-75.4114
0
LINE
8
BLACK
6
CONTINUOUS
10
165.627
20
-75.4114
11
165.716
21
-75.5653
0
LINE
8
BLACK
6
CONTINUOUS
10
165.716
20
-75.5653
11
165.77
21
-75.7343
0
LINE
8
BLACK
6
CONTINUOUS
10
165.77
20
-75.7343
11
165.789
21
-75.911
0
LINE
8
BLACK
6
CONTINUOUS
10
165.789
20
-75.911
11
165.77
21
-76.0877
0
LINE
8
BLACK
6
CONTINUOUS
10
165.77
20
-76.0877
11
165.716
21
-76.2567
0
LINE
8
BLACK
6
CONTINUOUS
10
165.716
20
-76.2567
11
165.627
21
-76.4106
0
LINE
8
BLACK
6
CONTINUOUS
10
165.627
20
-76.4106
11
165.508
21
-76.5427
0
LINE
8
BLACK
6
CONTINUOUS
10
165.508
20
-76.5427
11
165.364
21
-76.6471
0
LINE
8
BLACK
6
CONTINUOUS
10
165.364
20
-76.6471
11
165.202
21
-76.7194
0
LINE
8
BLACK
6
CONTINUOUS
10
165.202
20
-76.7194
11
165.028
21
-76.7563
0
LINE
8
BLACK
6
CONTINUOUS
10
165.028
20
-76.7563
11
164.85
21
-76.7563
0
LINE
8
BLACK
6
CONTINUOUS
10
164.85
20
-76.7563
11
164.676
21
-76.7194
0
LINE
8
BLACK
6
CONTINUOUS
10
164.676
20
-76.7194
11
164.514
21
-76.6471
0
LINE
8
BLACK
6
CONTINUOUS
10
164.514
20
-76.6471
11
164.37
21
-76.5427
0
LINE
8
BLACK
6
CONTINUOUS
10
164.37
20
-76.5427
11
164.251
21
-76.4106
0
LINE
8
BLACK
6
CONTINUOUS
10
164.251
20
-76.4106
11
164.163
21
-76.2567
0
LINE
8
BLACK
6
CONTINUOUS
10
164.163
20
-76.2567
11
164.108
21
-76.0877
0
LINE
8
BLACK
6
CONTINUOUS
10
164.108
20
-76.0877
11
164.089
21
-75.911
0
LINE
8
BLACK
6
CONTINUOUS
10
164.089
20
-75.911
11
164.108
21
-75.7343
0
LINE
8
BLACK
6
CONTINUOUS
10
164.108
20
-75.7343
11
164.163
21
-75.5653
0
LINE
8
BLACK
6
CONTINUOUS
10
164.163
20
-75.5653
11
164.251
21
-75.4114
0
LINE
8
BLACK
6
CONTINUOUS
10
164.251
20
-75.4114
11
164.37
21
-75.2793
0
LINE
8
BLACK
6
CONTINUOUS
10
164.37
20
-75.2793
11
164.514
21
-75.1749
0
LINE
8
BLACK
6
CONTINUOUS
10
164.514
20
-75.1749
11
164.676
21
-75.1026
0
LINE
8
BLACK
6
CONTINUOUS
10
164.676
20
-75.1026
11
164.85
21
-75.0656
0
LINE
8
BLACK
6
CONTINUOUS
10
164.85
20
-75.0656
11
165.028
21
-75.0656
0
LINE
8
BLACK
6
CONTINUOUS
10
165.028
20
-75.0656
11
165.202
21
-75.1026
0
LINE
8
BLACK
6
CONTINUOUS
10
162.662
20
-75.1026
11
162.824
21
-75.1749
0
LINE
8
BLACK
6
CONTINUOUS
10
162.824
20
-75.1749
11
162.968
21
-75.2793
0
LINE
8
BLACK
6
CONTINUOUS
10
162.968
20
-75.2793
11
163.087
21
-75.4114
0
LINE
8
BLACK
6
CONTINUOUS
10
163.087
20
-75.4114
11
163.176
21
-75.5653
0
LINE
8
BLACK
6
CONTINUOUS
10
163.176
20
-75.5653
11
163.23
21
-75.7343
0
LINE
8
BLACK
6
CONTINUOUS
10
163.23
20
-75.7343
11
163.249
21
-75.911
0
LINE
8
BLACK
6
CONTINUOUS
10
163.249
20
-75.911
11
163.23
21
-76.0877
0
LINE
8
BLACK
6
CONTINUOUS
10
163.23
20
-76.0877
11
163.176
21
-76.2567
0
LINE
8
BLACK
6
CONTINUOUS
10
163.176
20
-76.2567
11
163.087
21
-76.4106
0
LINE
8
BLACK
6
CONTINUOUS
10
163.087
20
-76.4106
11
162.968
21
-76.5427
0
LINE
8
BLACK
6
CONTINUOUS
10
162.968
20
-76.5427
11
162.824
21
-76.6471
0
LINE
8
BLACK
6
CONTINUOUS
10
162.824
20
-76.6471
11
162.662
21
-76.7194
0
LINE
8
BLACK
6
CONTINUOUS
10
162.662
20
-76.7194
11
162.488
21
-76.7563
0
LINE
8
BLACK
6
CONTINUOUS
10
162.488
20
-76.7563
11
162.31
21
-76.7563
0
LINE
8
BLACK
6
CONTINUOUS
10
162.31
20
-76.7563
11
162.136
21
-76.7194
0
LINE
8
BLACK
6
CONTINUOUS
10
162.136
20
-76.7194
11
161.974
21
-76.6471
0
LINE
8
BLACK
6
CONTINUOUS
10
161.974
20
-76.6471
11
161.83
21
-76.5427
0
LINE
8
BLACK
6
CONTINUOUS
10
161.83
20
-76.5427
11
161.711
21
-76.4106
0
LINE
8
BLACK
6
CONTINUOUS
10
161.711
20
-76.4106
11
161.623
21
-76.2567
0
LINE
8
BLACK
6
CONTINUOUS
10
161.623
20
-76.2567
11
161.568
21
-76.0877
0
LINE
8
BLACK
6
CONTINUOUS
10
161.568
20
-76.0877
11
161.549
21
-75.911
0
LINE
8
BLACK
6
CONTINUOUS
10
161.549
20
-75.911
11
161.568
21
-75.7343
0
LINE
8
BLACK
6
CONTINUOUS
10
161.568
20
-75.7343
11
161.623
21
-75.5653
0
LINE
8
BLACK
6
CONTINUOUS
10
161.623
20
-75.5653
11
161.711
21
-75.4114
0
LINE
8
BLACK
6
CONTINUOUS
10
161.711
20
-75.4114
11
161.83
21
-75.2793
0
LINE
8
BLACK
6
CONTINUOUS
10
161.83
20
-75.2793
11
161.974
21
-75.1749
0
LINE
8
BLACK
6
CONTINUOUS
10
161.974
20
-75.1749
11
162.136
21
-75.1026
0
LINE
8
BLACK
6
CONTINUOUS
10
162.136
20
-75.1026
11
162.31
21
-75.0656
0
LINE
8
BLACK
6
CONTINUOUS
10
162.31
20
-75.0656
11
162.488
21
-75.0656
0
LINE
8
BLACK
6
CONTINUOUS
10
162.488
20
-75.0656
11
162.662
21
-75.1026
0
LINE
8
BLACK
6
CONTINUOUS
10
163.249
20
-74.221
11
161.549
21
-74.221
0
LINE
8
BLACK
6
CONTINUOUS
10
161.549
20
-74.221
11
161.549
21
-72.521
0
LINE
8
BLACK
6
CONTINUOUS
10
161.549
20
-72.521
11
163.249
21
-72.521
0
LINE
8
BLACK
6
CONTINUOUS
10
163.249
20
-72.521
11
163.249
21
-74.221
0
LINE
8
BLACK
6
CONTINUOUS
10
165.202
20
-72.5626
11
165.364
21
-72.6349
0
LINE
8
BLACK
6
CONTINUOUS
10
165.364
20
-72.6349
11
165.508
21
-72.7393
0
LINE
8
BLACK
6
CONTINUOUS
10
165.508
20
-72.7393
11
165.627
21
-72.8714
0
LINE
8
BLACK
6
CONTINUOUS
10
165.627
20
-72.8714
11
165.716
21
-73.0253
0
LINE
8
BLACK
6
CONTINUOUS
10
165.716
20
-73.0253
11
165.77
21
-73.1943
0
LINE
8
BLACK
6
CONTINUOUS
10
165.77
20
-73.1943
11
165.789
21
-73.371
0
LINE
8
BLACK
6
CONTINUOUS
10
165.789
20
-73.371
11
165.77
21
-73.5477
0
LINE
8
BLACK
6
CONTINUOUS
10
165.77
20
-73.5477
11
165.716
21
-73.7167
0
LINE
8
BLACK
6
CONTINUOUS
10
165.716
20
-73.7167
11
165.627
21
-73.8706
0
LINE
8
BLACK
6
CONTINUOUS
10
165.627
20
-73.8706
11
165.508
21
-74.0027
0
LINE
8
BLACK
6
CONTINUOUS
10
165.508
20
-74.0027
11
165.364
21
-74.1071
0
LINE
8
BLACK
6
CONTINUOUS
10
165.364
20
-74.1071
11
165.202
21
-74.1794
0
LINE
8
BLACK
6
CONTINUOUS
10
165.202
20
-74.1794
11
165.028
21
-74.2163
0
LINE
8
BLACK
6
CONTINUOUS
10
165.028
20
-74.2163
11
164.85
21
-74.2163
0
LINE
8
BLACK
6
CONTINUOUS
10
164.85
20
-74.2163
11
164.676
21
-74.1794
0
LINE
8
BLACK
6
CONTINUOUS
10
164.676
20
-74.1794
11
164.514
21
-74.1071
0
LINE
8
BLACK
6
CONTINUOUS
10
164.514
20
-74.1071
11
164.37
21
-74.0027
0
LINE
8
BLACK
6
CONTINUOUS
10
164.37
20
-74.0027
11
164.251
21
-73.8706
0
LINE
8
BLACK
6
CONTINUOUS
10
164.251
20
-73.8706
11
164.163
21
-73.7167
0
LINE
8
BLACK
6
CONTINUOUS
10
164.163
20
-73.7167
11
164.108
21
-73.5477
0
LINE
8
BLACK
6
CONTINUOUS
10
164.108
20
-73.5477
11
164.089
21
-73.371
0
LINE
8
BLACK
6
CONTINUOUS
10
164.089
20
-73.371
11
164.108
21
-73.1943
0
LINE
8
BLACK
6
CONTINUOUS
10
164.108
20
-73.1943
11
164.163
21
-73.0253
0
LINE
8
BLACK
6
CONTINUOUS
10
164.163
20
-73.0253
11
164.251
21
-72.8714
0
LINE
8
BLACK
6
CONTINUOUS
10
164.251
20
-72.8714
11
164.37
21
-72.7393
0
LINE
8
BLACK
6
CONTINUOUS
10
164.37
20
-72.7393
11
164.514
21
-72.6349
0
LINE
8
BLACK
6
CONTINUOUS
10
164.514
20
-72.6349
11
164.676
21
-72.5626
0
LINE
8
BLACK
6
CONTINUOUS
10
164.676
20
-72.5626
11
164.85
21
-72.5256
0
LINE
8
BLACK
6
CONTINUOUS
10
164.85
20
-72.5256
11
165.028
21
-72.5256
0
LINE
8
BLACK
6
CONTINUOUS
10
165.028
20
-72.5256
11
165.202
21
-72.5626
0
LINE
8
BLACK
6
CONTINUOUS
10
174.034
20
-65.4985
11
174.354
21
-65.5406
0
LINE
8
BLACK
6
CONTINUOUS
10
174.354
20
-65.5406
11
174.666
21
-65.6191
0
LINE
8
BLACK
6
CONTINUOUS
10
174.666
20
-65.6191
11
174.968
21
-65.7331
0
LINE
8
BLACK
6
CONTINUOUS
10
174.968
20
-65.7331
11
175.254
21
-65.8809
0
LINE
8
BLACK
6
CONTINUOUS
10
175.254
20
-65.8809
11
175.522
21
-66.0607
0
LINE
8
BLACK
6
CONTINUOUS
10
175.522
20
-66.0607
11
175.767
21
-66.27
0
LINE
8
BLACK
6
CONTINUOUS
10
175.767
20
-66.27
11
175.986
21
-66.5062
0
LINE
8
BLACK
6
CONTINUOUS
10
175.986
20
-66.5062
11
176.177
21
-66.766
0
LINE
8
BLACK
6
CONTINUOUS
10
176.177
20
-66.766
11
176.337
21
-67.046
0
LINE
8
BLACK
6
CONTINUOUS
10
176.337
20
-67.046
11
176.463
21
-67.3425
0
LINE
8
BLACK
6
CONTINUOUS
10
176.463
20
-67.3425
11
176.555
21
-67.6516
0
LINE
8
BLACK
6
CONTINUOUS
10
176.555
20
-67.6516
11
176.61
21
-67.9692
0
LINE
8
BLACK
6
CONTINUOUS
10
176.61
20
-67.9692
11
176.629
21
-68.291
0
LINE
8
BLACK
6
CONTINUOUS
10
176.629
20
-68.291
11
176.624
21
-68.4668
0
LINE
8
BLACK
6
CONTINUOUS
10
176.624
20
-68.4668
11
176.585
21
-68.7868
0
LINE
8
BLACK
6
CONTINUOUS
10
176.585
20
-68.7868
11
176.51
21
-69.1003
0
LINE
8
BLACK
6
CONTINUOUS
10
176.51
20
-69.1003
11
176.399
21
-69.403
0
LINE
8
BLACK
6
CONTINUOUS
10
176.399
20
-69.403
11
176.254
21
-69.691
0
LINE
8
BLACK
6
CONTINUOUS
10
176.254
20
-69.691
11
176.077
21
-69.9604
0
LINE
8
BLACK
6
CONTINUOUS
10
176.077
20
-69.9604
11
175.87
21
-70.2077
0
LINE
8
BLACK
6
CONTINUOUS
10
175.87
20
-70.2077
11
175.636
21
-70.4296
0
LINE
8
BLACK
6
CONTINUOUS
10
175.636
20
-70.4296
11
175.379
21
-70.6232
0
LINE
8
BLACK
6
CONTINUOUS
10
175.379
20
-70.6232
11
175.1
21
-70.7858
0
LINE
8
BLACK
6
CONTINUOUS
10
175.1
20
-70.7858
11
174.805
21
-70.9154
0
LINE
8
BLACK
6
CONTINUOUS
10
174.805
20
-70.9154
11
174.497
21
-71.0102
0
LINE
8
BLACK
6
CONTINUOUS
10
174.497
20
-71.0102
11
174.18
21
-71.0689
0
LINE
8
BLACK
6
CONTINUOUS
10
174.18
20
-71.0689
11
173.858
21
-71.0908
0
LINE
8
BLACK
6
CONTINUOUS
10
173.858
20
-71.0908
11
173.536
21
-71.0756
0
LINE
8
BLACK
6
CONTINUOUS
10
173.536
20
-71.0756
11
173.218
21
-71.0235
0
LINE
8
BLACK
6
CONTINUOUS
10
173.218
20
-71.0235
11
172.908
21
-70.9352
0
LINE
8
BLACK
6
CONTINUOUS
10
172.908
20
-70.9352
11
172.61
21
-70.8119
0
LINE
8
BLACK
6
CONTINUOUS
10
172.61
20
-70.8119
11
172.329
21
-70.6551
0
LINE
8
BLACK
6
CONTINUOUS
10
172.329
20
-70.6551
11
172.067
21
-70.467
0
LINE
8
BLACK
6
CONTINUOUS
10
172.067
20
-70.467
11
171.829
21
-70.25
0
LINE
8
BLACK
6
CONTINUOUS
10
171.829
20
-70.25
11
171.617
21
-70.0071
0
LINE
8
BLACK
6
CONTINUOUS
10
171.617
20
-70.0071
11
171.434
21
-69.7415
0
LINE
8
BLACK
6
CONTINUOUS
10
171.434
20
-69.7415
11
171.283
21
-69.4566
0
LINE
8
BLACK
6
CONTINUOUS
10
171.283
20
-69.4566
11
171.166
21
-69.1562
0
LINE
8
BLACK
6
CONTINUOUS
10
171.166
20
-69.1562
11
171.084
21
-68.8444
0
LINE
8
BLACK
6
CONTINUOUS
10
171.084
20
-68.8444
11
171.039
21
-68.5253
0
LINE
8
BLACK
6
CONTINUOUS
10
171.039
20
-68.5253
11
171.03
21
-68.203
0
LINE
8
BLACK
6
CONTINUOUS
10
171.03
20
-68.203
11
171.059
21
-67.8819
0
LINE
8
BLACK
6
CONTINUOUS
10
171.059
20
-67.8819
11
171.124
21
-67.5663
0
LINE
8
BLACK
6
CONTINUOUS
10
171.124
20
-67.5663
11
171.226
21
-67.2602
0
LINE
8
BLACK
6
CONTINUOUS
10
171.226
20
-67.2602
11
171.361
21
-66.9678
0
LINE
8
BLACK
6
CONTINUOUS
10
171.361
20
-66.9678
11
171.53
21
-66.693
0
LINE
8
BLACK
6
CONTINUOUS
10
171.53
20
-66.693
11
171.729
21
-66.4393
0
LINE
8
BLACK
6
CONTINUOUS
10
171.729
20
-66.4393
11
171.955
21
-66.2102
0
LINE
8
BLACK
6
CONTINUOUS
10
171.955
20
-66.2102
11
172.207
21
-66.0086
0
LINE
8
BLACK
6
CONTINUOUS
10
172.207
20
-66.0086
11
172.48
21
-65.8373
0
LINE
8
BLACK
6
CONTINUOUS
10
172.48
20
-65.8373
11
172.771
21
-65.6985
0
LINE
8
BLACK
6
CONTINUOUS
10
172.771
20
-65.6985
11
173.076
21
-65.5941
0
LINE
8
BLACK
6
CONTINUOUS
10
173.076
20
-65.5941
11
173.391
21
-65.5255
0
LINE
8
BLACK
6
CONTINUOUS
10
173.391
20
-65.5255
11
173.712
21
-65.4934
0
LINE
8
BLACK
6
CONTINUOUS
10
173.712
20
-65.4934
11
174.034
21
-65.4985
0
LINE
8
BLACK
6
CONTINUOUS
10
129.584
20
-65.4985
11
129.904
21
-65.5406
0
LINE
8
BLACK
6
CONTINUOUS
10
129.904
20
-65.5406
11
130.216
21
-65.6191
0
LINE
8
BLACK
6
CONTINUOUS
10
130.216
20
-65.6191
11
130.518
21
-65.7331
0
LINE
8
BLACK
6
CONTINUOUS
10
130.518
20
-65.7331
11
130.804
21
-65.8809
0
LINE
8
BLACK
6
CONTINUOUS
10
130.804
20
-65.8809
11
131.072
21
-66.0607
0
LINE
8
BLACK
6
CONTINUOUS
10
131.072
20
-66.0607
11
131.317
21
-66.27
0
LINE
8
BLACK
6
CONTINUOUS
10
131.317
20
-66.27
11
131.536
21
-66.5062
0
LINE
8
BLACK
6
CONTINUOUS
10
131.536
20
-66.5062
11
131.727
21
-66.766
0
LINE
8
BLACK
6
CONTINUOUS
10
131.727
20
-66.766
11
131.887
21
-67.046
0
LINE
8
BLACK
6
CONTINUOUS
10
131.887
20
-67.046
11
132.013
21
-67.3425
0
LINE
8
BLACK
6
CONTINUOUS
10
132.013
20
-67.3425
11
132.105
21
-67.6516
0
LINE
8
BLACK
6
CONTINUOUS
10
132.105
20
-67.6516
11
132.16
21
-67.9692
0
LINE
8
BLACK
6
CONTINUOUS
10
132.16
20
-67.9692
11
132.179
21
-68.291
0
LINE
8
BLACK
6
CONTINUOUS
10
132.179
20
-68.291
11
132.174
21
-68.4668
0
LINE
8
BLACK
6
CONTINUOUS
10
132.174
20
-68.4668
11
132.135
21
-68.7868
0
LINE
8
BLACK
6
CONTINUOUS
10
132.135
20
-68.7868
11
132.06
21
-69.1003
0
LINE
8
BLACK
6
CONTINUOUS
10
132.06
20
-69.1003
11
131.949
21
-69.403
0
LINE
8
BLACK
6
CONTINUOUS
10
131.949
20
-69.403
11
131.804
21
-69.691
0
LINE
8
BLACK
6
CONTINUOUS
10
131.804
20
-69.691
11
131.627
21
-69.9604
0
LINE
8
BLACK
6
CONTINUOUS
10
131.627
20
-69.9604
11
131.42
21
-70.2077
0
LINE
8
BLACK
6
CONTINUOUS
10
131.42
20
-70.2077
11
131.186
21
-70.4296
0
LINE
8
BLACK
6
CONTINUOUS
10
131.186
20
-70.4296
11
130.929
21
-70.6232
0
LINE
8
BLACK
6
CONTINUOUS
10
130.929
20
-70.6232
11
130.65
21
-70.7858
0
LINE
8
BLACK
6
CONTINUOUS
10
130.65
20
-70.7858
11
130.355
21
-70.9154
0
LINE
8
BLACK
6
CONTINUOUS
10
130.355
20
-70.9154
11
130.047
21
-71.0102
0
LINE
8
BLACK
6
CONTINUOUS
10
130.047
20
-71.0102
11
129.73
21
-71.0689
0
LINE
8
BLACK
6
CONTINUOUS
10
129.73
20
-71.0689
11
129.408
21
-71.0908
0
LINE
8
BLACK
6
CONTINUOUS
10
129.408
20
-71.0908
11
129.086
21
-71.0756
0
LINE
8
BLACK
6
CONTINUOUS
10
129.086
20
-71.0756
11
128.768
21
-71.0235
0
LINE
8
BLACK
6
CONTINUOUS
10
128.768
20
-71.0235
11
128.458
21
-70.9352
0
LINE
8
BLACK
6
CONTINUOUS
10
128.458
20
-70.9352
11
128.16
21
-70.8119
0
LINE
8
BLACK
6
CONTINUOUS
10
128.16
20
-70.8119
11
127.879
21
-70.6551
0
LINE
8
BLACK
6
CONTINUOUS
10
127.879
20
-70.6551
11
127.617
21
-70.467
0
LINE
8
BLACK
6
CONTINUOUS
10
127.617
20
-70.467
11
127.379
21
-70.25
0
LINE
8
BLACK
6
CONTINUOUS
10
127.379
20
-70.25
11
127.167
21
-70.0071
0
LINE
8
BLACK
6
CONTINUOUS
10
127.167
20
-70.0071
11
126.984
21
-69.7415
0
LINE
8
BLACK
6
CONTINUOUS
10
126.984
20
-69.7415
11
126.833
21
-69.4566
0
LINE
8
BLACK
6
CONTINUOUS
10
126.833
20
-69.4566
11
126.716
21
-69.1562
0
LINE
8
BLACK
6
CONTINUOUS
10
126.716
20
-69.1562
11
126.634
21
-68.8444
0
LINE
8
BLACK
6
CONTINUOUS
10
126.634
20
-68.8444
11
126.589
21
-68.5253
0
LINE
8
BLACK
6
CONTINUOUS
10
126.589
20
-68.5253
11
126.58
21
-68.203
0
LINE
8
BLACK
6
CONTINUOUS
10
126.58
20
-68.203
11
126.609
21
-67.8819
0
LINE
8
BLACK
6
CONTINUOUS
10
126.609
20
-67.8819
11
126.674
21
-67.5663
0
LINE
8
BLACK
6
CONTINUOUS
10
126.674
20
-67.5663
11
126.776
21
-67.2602
0
LINE
8
BLACK
6
CONTINUOUS
10
126.776
20
-67.2602
11
126.911
21
-66.9678
0
LINE
8
BLACK
6
CONTINUOUS
10
126.911
20
-66.9678
11
127.08
21
-66.693
0
LINE
8
BLACK
6
CONTINUOUS
10
127.08
20
-66.693
11
127.279
21
-66.4393
0
LINE
8
BLACK
6
CONTINUOUS
10
127.279
20
-66.4393
11
127.505
21
-66.2102
0
LINE
8
BLACK
6
CONTINUOUS
10
127.505
20
-66.2102
11
127.757
21
-66.0086
0
LINE
8
BLACK
6
CONTINUOUS
10
127.757
20
-66.0086
11
128.03
21
-65.8373
0
LINE
8
BLACK
6
CONTINUOUS
10
128.03
20
-65.8373
11
128.321
21
-65.6985
0
LINE
8
BLACK
6
CONTINUOUS
10
128.321
20
-65.6985
11
128.626
21
-65.5941
0
LINE
8
BLACK
6
CONTINUOUS
10
128.626
20
-65.5941
11
128.941
21
-65.5255
0
LINE
8
BLACK
6
CONTINUOUS
10
128.941
20
-65.5255
11
129.262
21
-65.4934
0
LINE
8
BLACK
6
CONTINUOUS
10
129.262
20
-65.4934
11
129.584
21
-65.4985
  0
ENDSEC
  0
EOF
