  0
SECTION
  2
HEADER
  9
$ANGBASE
  50
0.0
  9
$ANGDIR
  70
1
  9
$MEASUREMENT
  70
1
  0
ENDSEC
  0
SECTION
  2
TABLES
  0
TABLE
  2
LTYPE
  70
4
  0
LTYPE
  5
40F
  2
CONTINUOUS
  70
0
  3
Solid line
  72
65
  73
0
  40
0.0
  0
LTYPE
  5
410
  2
DASHDOT
 70
0
  3
Dash Dot ____ _ ____ _
 72
65
 73
4
 40
2.0
 49
1.25
 49
-0.25
 49
0.25
 49
-0.25
  0
LTYPE
  5
411
  2
DASHED
 70
0
  3
Dashed __ __ __ __ __
 72
65
 73
2
 40
0.75
 49
0.5
 49
-0.25
  0
LTYPE
  5
43B
  2
DOTTED
 70
0
  3
Dotted .  .  .  .
 72
65
 73
2
 40
0.2
 49
0.0
 49
-0.2
  0
ENDTAB
  0
TABLE
  2
STYLE
  70
4
  0
STYLE
  2
KICAD
  70
0
  40
0
  41
1
  42
1
  50
0
  71
0
  3
isocp.shx
  0
STYLE
  2
KICADB
  70
0
  40
0
  41
1
  42
1
  50
0
  71
0
  3
isocp.shx
  0
STYLE
  2
KICADI
  70
0
  40
0
  41
1
  42
1
  50
15
  71
0
  3
isocp.shx
  0
STYLE
  2
KICADBI
  70
0
  40
0
  41
1
  42
1
  50
15
  71
0
  3
isocp.shx
  0
ENDTAB
  0
TABLE
  2
LAYER
  70
1
  0
LAYER
  2
BLACK
  70
0
  62
7
  6
CONTINUOUS
  0
ENDTAB
  0
ENDSEC
  0
SECTION
  2
ENTITIES
0
LINE
8
BLACK
6
CONTINUOUS
10
129.001
20
-129.282
11
128.626
21
-129.227
0
LINE
8
BLACK
6
CONTINUOUS
10
128.626
20
-129.227
11
128.259
21
-129.135
0
LINE
8
BLACK
6
CONTINUOUS
10
128.259
20
-129.135
11
127.902
21
-129.007
0
LINE
8
BLACK
6
CONTINUOUS
10
127.902
20
-129.007
11
127.559
21
-128.845
0
LINE
8
BLACK
6
CONTINUOUS
10
127.559
20
-128.845
11
127.235
21
-128.65
0
LINE
8
BLACK
6
CONTINUOUS
10
127.235
20
-128.65
11
126.93
21
-128.425
0
LINE
8
BLACK
6
CONTINUOUS
10
126.93
20
-128.425
11
126.65
21
-128.17
0
LINE
8
BLACK
6
CONTINUOUS
10
126.65
20
-128.17
11
126.395
21
-127.89
0
LINE
8
BLACK
6
CONTINUOUS
10
126.395
20
-127.89
11
126.17
21
-127.585
0
LINE
8
BLACK
6
CONTINUOUS
10
126.17
20
-127.585
11
125.975
21
-127.261
0
LINE
8
BLACK
6
CONTINUOUS
10
125.975
20
-127.261
11
125.813
21
-126.918
0
LINE
8
BLACK
6
CONTINUOUS
10
125.813
20
-126.918
11
125.685
21
-126.561
0
LINE
8
BLACK
6
CONTINUOUS
10
125.685
20
-126.561
11
125.593
21
-126.194
0
LINE
8
BLACK
6
CONTINUOUS
10
125.593
20
-126.194
11
125.538
21
-125.819
0
LINE
8
BLACK
6
CONTINUOUS
10
125.538
20
-125.819
11
125.519
21
-125.441
0
LINE
8
BLACK
6
CONTINUOUS
10
125.519
20
-125.441
11
125.519
21
-125.441
0
LINE
8
BLACK
6
CONTINUOUS
10
125.519
20
-125.441
11
125.519
21
-68.291
0
LINE
8
BLACK
6
CONTINUOUS
10
125.519
20
-68.291
11
125.538
21
-67.9126
0
LINE
8
BLACK
6
CONTINUOUS
10
125.538
20
-67.9126
11
125.593
21
-67.5379
0
LINE
8
BLACK
6
CONTINUOUS
10
125.593
20
-67.5379
11
125.685
21
-67.1705
0
LINE
8
BLACK
6
CONTINUOUS
10
125.685
20
-67.1705
11
125.813
21
-66.8138
0
LINE
8
BLACK
6
CONTINUOUS
10
125.813
20
-66.8138
11
125.975
21
-66.4714
0
LINE
8
BLACK
6
CONTINUOUS
10
125.975
20
-66.4714
11
126.17
21
-66.1465
0
LINE
8
BLACK
6
CONTINUOUS
10
126.17
20
-66.1465
11
126.395
21
-65.8422
0
LINE
8
BLACK
6
CONTINUOUS
10
126.395
20
-65.8422
11
126.65
21
-65.5616
0
LINE
8
BLACK
6
CONTINUOUS
10
126.65
20
-65.5616
11
126.93
21
-65.3072
0
LINE
8
BLACK
6
CONTINUOUS
10
126.93
20
-65.3072
11
127.235
21
-65.0815
0
LINE
8
BLACK
6
CONTINUOUS
10
127.235
20
-65.0815
11
127.559
21
-64.8868
0
LINE
8
BLACK
6
CONTINUOUS
10
127.559
20
-64.8868
11
127.902
21
-64.7248
0
LINE
8
BLACK
6
CONTINUOUS
10
127.902
20
-64.7248
11
128.259
21
-64.5972
0
LINE
8
BLACK
6
CONTINUOUS
10
128.259
20
-64.5972
11
128.626
21
-64.5052
0
LINE
8
BLACK
6
CONTINUOUS
10
128.626
20
-64.5052
11
129.001
21
-64.4496
0
LINE
8
BLACK
6
CONTINUOUS
10
129.001
20
-64.4496
11
129.379
21
-64.431
0
LINE
8
BLACK
6
CONTINUOUS
10
129.379
20
-64.431
11
129.379
21
-64.431
0
LINE
8
BLACK
6
CONTINUOUS
10
129.379
20
-64.431
11
129.379
21
-64.431
0
LINE
8
BLACK
6
CONTINUOUS
10
129.379
20
-64.431
11
173.829
21
-64.431
0
LINE
8
BLACK
6
CONTINUOUS
10
173.829
20
-64.431
11
173.829
21
-64.431
0
LINE
8
BLACK
6
CONTINUOUS
10
173.829
20
-64.431
11
174.207
21
-64.4496
0
LINE
8
BLACK
6
CONTINUOUS
10
174.207
20
-64.4496
11
174.582
21
-64.5052
0
LINE
8
BLACK
6
CONTINUOUS
10
174.582
20
-64.5052
11
174.95
21
-64.5972
0
LINE
8
BLACK
6
CONTINUOUS
10
174.95
20
-64.5972
11
175.306
21
-64.7248
0
LINE
8
BLACK
6
CONTINUOUS
10
175.306
20
-64.7248
11
175.649
21
-64.8868
0
LINE
8
BLACK
6
CONTINUOUS
10
175.649
20
-64.8868
11
175.974
21
-65.0815
0
LINE
8
BLACK
6
CONTINUOUS
10
175.974
20
-65.0815
11
176.278
21
-65.3072
0
LINE
8
BLACK
6
CONTINUOUS
10
176.278
20
-65.3072
11
176.558
21
-65.5616
0
LINE
8
BLACK
6
CONTINUOUS
10
176.558
20
-65.5616
11
176.813
21
-65.8422
0
LINE
8
BLACK
6
CONTINUOUS
10
176.813
20
-65.8422
11
177.038
21
-66.1465
0
LINE
8
BLACK
6
CONTINUOUS
10
177.038
20
-66.1465
11
177.233
21
-66.4714
0
LINE
8
BLACK
6
CONTINUOUS
10
177.233
20
-66.4714
11
177.395
21
-66.8138
0
LINE
8
BLACK
6
CONTINUOUS
10
177.395
20
-66.8138
11
177.523
21
-67.1705
0
LINE
8
BLACK
6
CONTINUOUS
10
177.523
20
-67.1705
11
177.615
21
-67.5379
0
LINE
8
BLACK
6
CONTINUOUS
10
177.615
20
-67.5379
11
177.67
21
-67.9126
0
LINE
8
BLACK
6
CONTINUOUS
10
177.67
20
-67.9126
11
177.689
21
-68.2909
0
LINE
8
BLACK
6
CONTINUOUS
10
177.689
20
-68.2909
11
177.689
21
-68.291
0
LINE
8
BLACK
6
CONTINUOUS
10
177.689
20
-68.291
11
177.689
21
-125.441
0
LINE
8
BLACK
6
CONTINUOUS
10
177.689
20
-125.441
11
177.67
21
-125.819
0
LINE
8
BLACK
6
CONTINUOUS
10
177.67
20
-125.819
11
177.615
21
-126.194
0
LINE
8
BLACK
6
CONTINUOUS
10
177.615
20
-126.194
11
177.523
21
-126.561
0
LINE
8
BLACK
6
CONTINUOUS
10
177.523
20
-126.561
11
177.395
21
-126.918
0
LINE
8
BLACK
6
CONTINUOUS
10
177.395
20
-126.918
11
177.233
21
-127.261
0
LINE
8
BLACK
6
CONTINUOUS
10
177.233
20
-127.261
11
177.039
21
-127.585
0
LINE
8
BLACK
6
CONTINUOUS
10
177.039
20
-127.585
11
176.813
21
-127.89
0
LINE
8
BLACK
6
CONTINUOUS
10
176.813
20
-127.89
11
176.558
21
-128.17
0
LINE
8
BLACK
6
CONTINUOUS
10
176.558
20
-128.17
11
176.278
21
-128.425
0
LINE
8
BLACK
6
CONTINUOUS
10
176.278
20
-128.425
11
175.974
21
-128.65
0
LINE
8
BLACK
6
CONTINUOUS
10
175.974
20
-128.65
11
175.649
21
-128.845
0
LINE
8
BLACK
6
CONTINUOUS
10
175.649
20
-128.845
11
175.306
21
-129.007
0
LINE
8
BLACK
6
CONTINUOUS
10
175.306
20
-129.007
11
174.95
21
-129.135
0
LINE
8
BLACK
6
CONTINUOUS
10
174.95
20
-129.135
11
174.582
21
-129.227
0
LINE
8
BLACK
6
CONTINUOUS
10
174.582
20
-129.227
11
174.207
21
-129.282
0
LINE
8
BLACK
6
CONTINUOUS
10
174.207
20
-129.282
11
173.829
21
-129.301
0
LINE
8
BLACK
6
CONTINUOUS
10
173.829
20
-129.301
11
173.829
21
-129.301
0
LINE
8
BLACK
6
CONTINUOUS
10
173.829
20
-129.301
11
129.379
21
-129.301
0
LINE
8
BLACK
6
CONTINUOUS
10
129.379
20
-129.301
11
129.001
21
-129.282
0
LINE
8
BLACK
6
CONTINUOUS
10
173.839
20
-129.205
11
174.198
21
-129.187
0
LINE
8
BLACK
6
CONTINUOUS
10
174.198
20
-129.187
11
174.563
21
-129.133
0
LINE
8
BLACK
6
CONTINUOUS
10
174.563
20
-129.133
11
174.922
21
-129.043
0
LINE
8
BLACK
6
CONTINUOUS
10
174.922
20
-129.043
11
175.27
21
-128.919
0
LINE
8
BLACK
6
CONTINUOUS
10
175.27
20
-128.919
11
175.604
21
-128.761
0
LINE
8
BLACK
6
CONTINUOUS
10
175.604
20
-128.761
11
175.921
21
-128.571
0
LINE
8
BLACK
6
CONTINUOUS
10
175.921
20
-128.571
11
176.217
21
-128.351
0
LINE
8
BLACK
6
CONTINUOUS
10
176.217
20
-128.351
11
176.491
21
-128.103
0
LINE
8
BLACK
6
CONTINUOUS
10
176.491
20
-128.103
11
176.739
21
-127.829
0
LINE
8
BLACK
6
CONTINUOUS
10
176.739
20
-127.829
11
176.959
21
-127.532
0
LINE
8
BLACK
6
CONTINUOUS
10
176.959
20
-127.532
11
177.149
21
-127.216
0
LINE
8
BLACK
6
CONTINUOUS
10
177.149
20
-127.216
11
177.307
21
-126.882
0
LINE
8
BLACK
6
CONTINUOUS
10
177.307
20
-126.882
11
177.431
21
-126.534
0
LINE
8
BLACK
6
CONTINUOUS
10
177.431
20
-126.534
11
177.521
21
-126.175
0
LINE
8
BLACK
6
CONTINUOUS
10
177.521
20
-126.175
11
177.575
21
-125.81
0
LINE
8
BLACK
6
CONTINUOUS
10
177.575
20
-125.81
11
177.593
21
-125.451
0
LINE
8
BLACK
6
CONTINUOUS
10
177.593
20
-125.451
11
177.589
21
-125.441
0
LINE
8
BLACK
6
CONTINUOUS
10
177.589
20
-125.441
11
177.589
21
-68.291
0
LINE
8
BLACK
6
CONTINUOUS
10
177.589
20
-68.291
11
177.593
21
-68.2812
0
LINE
8
BLACK
6
CONTINUOUS
10
177.593
20
-68.2812
11
177.575
21
-67.922
0
LINE
8
BLACK
6
CONTINUOUS
10
177.575
20
-67.922
11
177.521
21
-67.5566
0
LINE
8
BLACK
6
CONTINUOUS
10
177.521
20
-67.5566
11
177.431
21
-67.1982
0
LINE
8
BLACK
6
CONTINUOUS
10
177.431
20
-67.1982
11
177.307
21
-66.8504
0
LINE
8
BLACK
6
CONTINUOUS
10
177.307
20
-66.8504
11
177.149
21
-66.5164
0
LINE
8
BLACK
6
CONTINUOUS
10
177.149
20
-66.5164
11
176.959
21
-66.1995
0
LINE
8
BLACK
6
CONTINUOUS
10
176.959
20
-66.1995
11
176.739
21
-65.9028
0
LINE
8
BLACK
6
CONTINUOUS
10
176.739
20
-65.9028
11
176.491
21
-65.6291
0
LINE
8
BLACK
6
CONTINUOUS
10
176.491
20
-65.6291
11
176.217
21
-65.381
0
LINE
8
BLACK
6
CONTINUOUS
10
176.217
20
-65.381
11
175.92
21
-65.1609
0
LINE
8
BLACK
6
CONTINUOUS
10
175.92
20
-65.1609
11
175.604
21
-64.971
0
LINE
8
BLACK
6
CONTINUOUS
10
175.604
20
-64.971
11
175.27
21
-64.813
0
LINE
8
BLACK
6
CONTINUOUS
10
175.27
20
-64.813
11
174.922
21
-64.6886
0
LINE
8
BLACK
6
CONTINUOUS
10
174.922
20
-64.6886
11
174.563
21
-64.5988
0
LINE
8
BLACK
6
CONTINUOUS
10
174.563
20
-64.5988
11
174.198
21
-64.5446
0
LINE
8
BLACK
6
CONTINUOUS
10
174.198
20
-64.5446
11
173.839
21
-64.5269
0
LINE
8
BLACK
6
CONTINUOUS
10
173.839
20
-64.5269
11
173.829
21
-64.531
0
LINE
8
BLACK
6
CONTINUOUS
10
173.829
20
-64.531
11
129.379
21
-64.531
0
LINE
8
BLACK
6
CONTINUOUS
10
129.379
20
-64.531
11
129.369
21
-64.527
0
LINE
8
BLACK
6
CONTINUOUS
10
129.369
20
-64.527
11
129.01
21
-64.5446
0
LINE
8
BLACK
6
CONTINUOUS
10
129.01
20
-64.5446
11
128.645
21
-64.5988
0
LINE
8
BLACK
6
CONTINUOUS
10
128.645
20
-64.5988
11
128.286
21
-64.6886
0
LINE
8
BLACK
6
CONTINUOUS
10
128.286
20
-64.6886
11
127.938
21
-64.813
0
LINE
8
BLACK
6
CONTINUOUS
10
127.938
20
-64.813
11
127.604
21
-64.971
0
LINE
8
BLACK
6
CONTINUOUS
10
127.604
20
-64.971
11
127.288
21
-65.1609
0
LINE
8
BLACK
6
CONTINUOUS
10
127.288
20
-65.1609
11
126.991
21
-65.381
0
LINE
8
BLACK
6
CONTINUOUS
10
126.991
20
-65.381
11
126.717
21
-65.6291
0
LINE
8
BLACK
6
CONTINUOUS
10
126.717
20
-65.6291
11
126.469
21
-65.9028
0
LINE
8
BLACK
6
CONTINUOUS
10
126.469
20
-65.9028
11
126.249
21
-66.1995
0
LINE
8
BLACK
6
CONTINUOUS
10
126.249
20
-66.1995
11
126.059
21
-66.5164
0
LINE
8
BLACK
6
CONTINUOUS
10
126.059
20
-66.5164
11
125.901
21
-66.8504
0
LINE
8
BLACK
6
CONTINUOUS
10
125.901
20
-66.8504
11
125.777
21
-67.1982
0
LINE
8
BLACK
6
CONTINUOUS
10
125.777
20
-67.1982
11
125.687
21
-67.5566
0
LINE
8
BLACK
6
CONTINUOUS
10
125.687
20
-67.5566
11
125.633
21
-67.922
0
LINE
8
BLACK
6
CONTINUOUS
10
125.633
20
-67.922
11
125.615
21
-68.2812
0
LINE
8
BLACK
6
CONTINUOUS
10
125.615
20
-68.2812
11
125.619
21
-68.291
0
LINE
8
BLACK
6
CONTINUOUS
10
125.619
20
-68.291
11
125.619
21
-125.441
0
LINE
8
BLACK
6
CONTINUOUS
10
125.619
20
-125.441
11
125.615
21
-125.451
0
LINE
8
BLACK
6
CONTINUOUS
10
125.615
20
-125.451
11
125.615
21
-125.451
0
LINE
8
BLACK
6
CONTINUOUS
10
125.615
20
-125.451
11
125.633
21
-125.81
0
LINE
8
BLACK
6
CONTINUOUS
10
125.633
20
-125.81
11
125.687
21
-126.175
0
LINE
8
BLACK
6
CONTINUOUS
10
125.687
20
-126.175
11
125.777
21
-126.534
0
LINE
8
BLACK
6
CONTINUOUS
10
125.777
20
-126.534
11
125.901
21
-126.882
0
LINE
8
BLACK
6
CONTINUOUS
10
125.901
20
-126.882
11
126.059
21
-127.216
0
LINE
8
BLACK
6
CONTINUOUS
10
126.059
20
-127.216
11
126.249
21
-127.532
0
LINE
8
BLACK
6
CONTINUOUS
10
126.249
20
-127.532
11
126.469
21
-127.829
0
LINE
8
BLACK
6
CONTINUOUS
10
126.469
20
-127.829
11
126.717
21
-128.103
0
LINE
8
BLACK
6
CONTINUOUS
10
126.717
20
-128.103
11
126.991
21
-128.351
0
LINE
8
BLACK
6
CONTINUOUS
10
126.991
20
-128.351
11
127.288
21
-128.571
0
LINE
8
BLACK
6
CONTINUOUS
10
127.288
20
-128.571
11
127.604
21
-128.761
0
LINE
8
BLACK
6
CONTINUOUS
10
127.604
20
-128.761
11
127.938
21
-128.919
0
LINE
8
BLACK
6
CONTINUOUS
10
127.938
20
-128.919
11
128.286
21
-129.043
0
LINE
8
BLACK
6
CONTINUOUS
10
128.286
20
-129.043
11
128.645
21
-129.133
0
LINE
8
BLACK
6
CONTINUOUS
10
128.645
20
-129.133
11
129.01
21
-129.187
0
LINE
8
BLACK
6
CONTINUOUS
10
129.01
20
-129.187
11
129.369
21
-129.205
0
LINE
8
BLACK
6
CONTINUOUS
10
129.369
20
-129.205
11
129.379
21
-129.201
0
LINE
8
BLACK
6
CONTINUOUS
10
129.379
20
-129.201
11
173.829
21
-129.201
0
LINE
8
BLACK
6
CONTINUOUS
10
173.829
20
-129.201
11
173.839
21
-129.205
  0
ENDSEC
  0
EOF
